<?xml version="1.0" standalone="no"?>
<!DOCTYPE svg PUBLIC "-//W3C//DTD SVG 20010904//EN"
 "http://www.w3.org/TR/2001/REC-SVG-20010904/DTD/svg10.dtd">
<svg version="1.0" xmlns="http://www.w3.org/2000/svg"
 width="130.000000pt" height="130.000000pt" viewBox="0 0 130.000000 130.000000"
 preserveAspectRatio="xMidYMid meet">

<g transform="translate(0.000000,130.000000) scale(0.100000,-0.100000)"
fill="#000000" stroke="none">
<path d="M592 1177 l-72 -72 41 -42 c23 -22 38 -46 35 -52 -4 -6 -26 -11 -50
-11 -96 0 -221 -62 -261 -130 -16 -29 -20 -52 -20 -135 0 -102 7 -129 59 -215
8 -14 17 -33 20 -42 5 -17 29 -18 325 -18 l319 0 44 87 c42 85 43 90 43 183
-1 97 -13 139 -50 170 -14 12 -26 4 -94 -64 l-77 -76 -27 28 -27 28 70 69 c38
38 66 73 61 78 -13 13 -112 37 -153 37 -48 0 -49 16 -3 60 19 19 35 39 35 45
0 10 -130 145 -141 145 -2 0 -37 -33 -77 -73z m115 -29 c18 -18 33 -37 33 -43
0 -6 -16 -26 -35 -45 l-35 -34 -35 34 c-19 19 -35 38 -35 44 0 10 60 76 69 76
3 0 20 -14 38 -32z"/>
<path d="M265 357 l-80 -32 -3 -87 c-1 -49 -1 -88 2 -88 3 0 41 14 86 30 76
28 91 30 221 30 l139 0 0 90 0 90 -142 0 c-137 -1 -146 -2 -223 -33z"/>
<path d="M702 303 l3 -88 155 -6 c138 -5 162 -8 219 -32 36 -15 66 -27 68 -27
2 0 3 40 3 89 l0 88 -83 32 c-79 29 -90 31 -225 31 l-143 0 3 -87z"/>
</g>
</svg>
