<?xml version="1.0" standalone="no"?>
<!DOCTYPE svg PUBLIC "-//W3C//DTD SVG 20010904//EN"
 "http://www.w3.org/TR/2001/REC-SVG-20010904/DTD/svg10.dtd">
<svg version="1.0" xmlns="http://www.w3.org/2000/svg"
 width="130.000000pt" height="130.000000pt" viewBox="0 0 130.000000 130.000000"
 preserveAspectRatio="xMidYMid meet">

<g transform="translate(0.000000,130.000000) scale(0.100000,-0.100000)"
fill="#000000" stroke="none">
<path d="M584 1146 c-28 -28 -34 -42 -34 -75 0 -34 -3 -41 -20 -41 -17 0 -20
-7 -20 -44 l0 -43 -83 -5 c-101 -5 -160 -31 -233 -103 -64 -64 -84 -119 -84
-234 0 -120 12 -155 73 -214 l52 -51 3 36 3 36 57 -32 c53 -29 64 -31 152 -31
82 0 103 4 153 27 l57 27 48 -24 c116 -58 244 -51 332 17 l25 20 5 -37 5 -36
44 37 c65 56 81 99 81 224 0 127 -21 181 -94 248 -67 62 -124 85 -223 90 l-83
5 0 43 c0 36 -3 44 -18 44 -14 0 -18 8 -18 34 0 45 -18 78 -54 99 -46 28 -87
22 -126 -17z m22 -171 c37 -19 67 -19 104 0 l30 16 0 -33 c0 -51 -62 -279 -77
-285 -8 -3 -16 -3 -20 0 -9 10 -73 260 -73 290 0 32 -1 31 36 12z"/>
<path d="M240 230 l0 -100 415 0 415 0 0 100 c0 90 -8 118 -25 90 -3 -5 -38
-19 -77 -31 -93 -27 -181 -23 -258 12 l-55 25 -55 -25 c-71 -32 -155 -38 -239
-16 -36 9 -74 23 -85 31 -11 8 -24 14 -28 14 -5 0 -8 -45 -8 -100z"/>
</g>
</svg>
