<?xml version="1.0" standalone="no"?>
<!DOCTYPE svg PUBLIC "-//W3C//DTD SVG 20010904//EN"
 "http://www.w3.org/TR/2001/REC-SVG-20010904/DTD/svg10.dtd">
<svg version="1.0" xmlns="http://www.w3.org/2000/svg"
 width="130.000000pt" height="130.000000pt" viewBox="0 0 130.000000 130.000000"
 preserveAspectRatio="xMidYMid meet">

<g transform="translate(0.000000,130.000000) scale(0.100000,-0.100000)"
fill="#000000" stroke="none">
<path d="M650 1123 l0 -71 -46 -11 c-69 -18 -121 -47 -181 -104 -53 -50 -66
-77 -38 -77 32 0 11 -29 -95 -128 -135 -127 -137 -135 -54 -211 70 -64 87 -65
205 -6 l90 46 50 -56 c40 -42 58 -55 80 -55 25 0 29 -4 29 -28 0 -18 -13 -43
-34 -69 -35 -40 -36 -40 -122 -47 -171 -13 -284 -73 -284 -151 l0 -35 446 0
445 0 -3 323 c-3 311 -4 324 -26 368 -48 98 -127 167 -254 220 -56 24 -89 47
-140 97 l-68 66 0 -71z m-22 -275 c2 -4 -19 -8 -47 -8 l-51 0 0 51 0 52 48
-44 c26 -24 49 -47 50 -51z"/>
</g>
</svg>
