<?xml version="1.0" standalone="no"?>
<!DOCTYPE svg PUBLIC "-//W3C//DTD SVG 20010904//EN"
 "http://www.w3.org/TR/2001/REC-SVG-20010904/DTD/svg10.dtd">
<svg version="1.0" xmlns="http://www.w3.org/2000/svg"
 width="130.000000pt" height="130.000000pt" viewBox="0 0 130.000000 130.000000"
 preserveAspectRatio="xMidYMid meet">

<g transform="translate(0.000000,130.000000) scale(0.100000,-0.100000)"
fill="#000000" stroke="none">
<path d="M633 1052 c-12 -2 -33 -15 -47 -29 -30 -30 -35 -95 -11 -127 14 -18
12 -21 -22 -40 -105 -59 -121 -215 -31 -291 17 -14 29 -27 27 -29 -2 -1 -26
-10 -52 -20 -64 -24 -140 -86 -172 -140 -30 -52 -49 -150 -39 -212 l6 -44 370
0 371 0 -5 94 c-4 81 -9 102 -35 147 -37 67 -103 123 -178 153 -53 22 -55 25
-37 37 10 8 31 32 46 53 30 45 36 128 11 175 -16 32 -65 77 -94 86 -18 5 -18
7 0 43 38 78 -21 157 -108 144z"/>
</g>
</svg>
