<?xml version="1.0" standalone="no"?>
<!DOCTYPE svg PUBLIC "-//W3C//DTD SVG 20010904//EN"
 "http://www.w3.org/TR/2001/REC-SVG-20010904/DTD/svg10.dtd">
<svg version="1.0" xmlns="http://www.w3.org/2000/svg"
 width="130.000000pt" height="130.000000pt" viewBox="0 0 130.000000 130.000000"
 preserveAspectRatio="xMidYMid meet">

<g transform="translate(0.000000,130.000000) scale(0.100000,-0.100000)"
fill="#000000" stroke="none">
<path d="M580 938 c-29 -145 -56 -269 -60 -276 -4 -8 -39 57 -86 162 -43 97
-81 176 -84 176 -3 0 -19 -66 -34 -147 -16 -82 -32 -157 -36 -167 -6 -19 -8
-18 -24 6 -9 14 -35 39 -58 54 -22 16 -56 51 -74 79 -19 27 -34 46 -34 42 0
-4 27 -122 60 -261 33 -140 60 -261 60 -270 0 -14 19 -16 158 -16 170 0 172 0
238 62 29 27 32 28 45 12 8 -10 34 -30 58 -46 44 -28 47 -28 198 -28 84 0 153
3 153 7 0 9 119 515 126 533 7 19 0 11 -39 -43 -18 -26 -53 -61 -77 -78 -25
-18 -51 -41 -58 -51 -7 -10 -16 -18 -20 -18 -4 0 -21 77 -36 170 -16 94 -30
169 -32 167 -1 -1 -37 -79 -79 -172 -42 -94 -79 -173 -84 -177 -4 -5 -31 110
-61 255 -29 144 -56 268 -60 275 -3 6 -30 -106 -60 -250z"/>
<path d="M619 314 c-7 -8 -31 -25 -53 -37 -36 -19 -60 -22 -198 -25 l-158 -4
0 -59 0 -59 425 0 425 0 0 60 0 60 -142 0 c-154 1 -194 9 -252 54 -30 23 -35
24 -47 10z"/>
</g>
</svg>
