<?xml version="1.0" standalone="no"?>
<!DOCTYPE svg PUBLIC "-//W3C//DTD SVG 20010904//EN"
 "http://www.w3.org/TR/2001/REC-SVG-20010904/DTD/svg10.dtd">
<svg version="1.0" xmlns="http://www.w3.org/2000/svg"
 width="130.000000pt" height="130.000000pt" viewBox="0 0 130.000000 130.000000"
 preserveAspectRatio="xMidYMid meet">

<g transform="translate(0.000000,130.000000) scale(0.100000,-0.100000)"
fill="#000000" stroke="none">
<path d="M320 925 l0 -135 40 0 c22 0 40 -4 40 -10 0 -5 -16 -109 -35 -230
-19 -121 -35 -225 -35 -230 0 -6 -16 -10 -35 -10 l-35 0 0 -95 0 -95 400 0
400 0 0 95 0 95 -35 0 c-19 0 -35 2 -35 4 0 3 -18 107 -40 232 -22 125 -40
231 -40 236 0 4 20 8 45 8 l45 0 0 135 0 135 -90 0 -90 0 0 -35 c0 -33 -2 -35
-35 -35 -33 0 -35 2 -35 35 l0 35 -90 0 -90 0 0 -35 c0 -33 -2 -35 -35 -35
-33 0 -35 2 -35 35 l0 35 -90 0 -90 0 0 -135z m590 -100 l0 -35 -255 0 -255 0
0 35 0 35 255 0 255 0 0 -35z m80 -545 l0 -30 -330 0 -330 0 0 30 0 30 330 0
330 0 0 -30z"/>
</g>
</svg>
