<?xml version="1.0" encoding="UTF-8" standalone="no"?>
<svg
   version="1.0"
   width="130.000000pt"
   height="130.000000pt"
   viewBox="0 0 130.000000 130.000000"
   preserveAspectRatio="xMidYMid meet"
   id="svg10"
   sodipodi:docname="wb.svg"
   inkscape:version="1.1.2 (0a00cf5339, 2022-02-04)"
   xmlns:inkscape="http://www.inkscape.org/namespaces/inkscape"
   xmlns:sodipodi="http://sodipodi.sourceforge.net/DTD/sodipodi-0.dtd"
   xmlns="http://www.w3.org/2000/svg"
   xmlns:svg="http://www.w3.org/2000/svg">
  <defs
     id="defs14" />
  <sodipodi:namedview
     id="namedview12"
     pagecolor="#ffffff"
     bordercolor="#000000"
     borderopacity="0.25"
     inkscape:showpageshadow="2"
     inkscape:pageopacity="0.0"
     inkscape:pagecheckerboard="0"
     inkscape:deskcolor="#d1d1d1"
     inkscape:document-units="pt"
     showgrid="false"
     inkscape:zoom="4.6846154"
     inkscape:cx="86.239737"
     inkscape:cy="86.239737"
     inkscape:window-width="1920"
     inkscape:window-height="1011"
     inkscape:window-x="0"
     inkscape:window-y="0"
     inkscape:window-maximized="1"
     inkscape:current-layer="svg10"
     inkscape:pageshadow="0" />
  <g
     transform="translate(0.000000,130.000000) scale(0.100000,-0.100000)"
     fill="#000000"
     stroke="none"
     id="g8">
    <path
       d="M615 1140 l-69 -70 32 -33 c47 -49 43 -63 -24 -71 -114 -13 -218 -67 -250 -129 -9 -16 -18 -68 -21 -115 -4 -72 -2 -97 15 -144 11 -32 30 -70 41 -84 12 -15 21 -35 21 -45 0 -18 14 -19 323 -19 l322 0 36 63 c49 84 63 142 56 231 -5 74 -22 121 -52 146 -14 12 -26 4 -96 -66 l-79 -79 -27 28 -28 27 74 74 73 74 -48 16 c-27 9 -70 19 -97 22 -26 4 -50 11 -53 16 -4 6 11 27 32 49 l38 39 -69 70 c-38 39 -72 70 -75 70 -3 0 -37 -31 -75 -70z m115 -35 l34 -35 -37 -38 -37 -37 -37 37 -37 38 34 35 c19 19 37 35 40 35 3 0 21 -16 40 -35z m-2 -169 c15 -7 53 -17 86 -21 l59 -7 -64 -64 -64 -64 63 -62 62 -63 79 79 80 80 11 -28 c14 -37 13 -135 -2 -177 -6 -19 -25 -55 -41 -81 l-29 -48 -277 0 c-316 0 -290 -7 -337 94 -23 51 -26 67 -22 140 3 55 10 90 22 108 25 39 110 77 203 92 43 7 87 18 98 24 26 15 41 15 73 -2z"
       id="path2" />
    <path
       d="M280 321 l-75 -28 -3 -87 c-2 -66 0 -86 10 -86 8 0 49 14 91 30 73 28 87 30 213 30 l134 0 0 85 0 85 -147 -1 c-137 0 -154 -2 -223 -28z m320 -61 l0 -40 -129 0 c-92 0 -139 -4 -164 -15 -51 -21 -57 -19 -57 16 0 27 6 33 53 54 45 21 67 24 175 24 l122 1 0 -40z"
       id="path4" />
    <path
       d="M720 265 l0 -85 138 0 c129 0 142 -2 215 -30 43 -17 83 -30 88 -30 6 0 9 35 7 87 l-3 87 -70 27 c-65 26 -81 28 -222 28 l-153 1 0 -85z m344 14 c53 -20 56 -24 56 -55 0 -40 -3 -40 -65 -14 -38 16 -69 20 -166 20 l-119 0 0 35 0 35 119 0 c98 0 129 -4 175 -21z"
       id="path6" />
  </g>
  <path
     style="opacity:0.81;fill:#ffffff;stroke:#333333;stroke-width:0.213465"
     d="m 63.0134,108.95308 c -6.155253,-0.37164 -9.438068,-1.4618 -11.344589,-3.76734 -1.283766,-1.55245 -4.966497,-9.367037 -6.313007,-13.395921 -1.189933,-3.560388 -1.403627,-6.668299 -0.95403,-13.875205 0.396394,-6.354084 1.164191,-10.622854 2.345603,-13.041 2.777498,-5.68506 13.326621,-10.752073 27.751802,-13.329899 7.066271,-1.262765 11.631119,-2.462146 13.823357,-3.631991 0.618123,-0.329849 1.647979,-0.717018 2.288568,-0.860376 1.456602,-0.325973 2.983897,0.0086 5.779328,1.265855 3.615768,1.626264 8.195068,2.683694 14.931408,3.447888 2.23071,0.25306 4.19511,0.505049 4.36534,0.559978 0.20018,0.06459 -2.66466,3.074747 -8.11065,8.522047 l -8.420153,8.422178 8.429943,8.431966 8.42994,8.431965 10.56968,-10.568093 10.56968,-10.568095 0.90066,2.331284 c 1.2636,3.270715 1.57566,5.249496 1.70313,10.799758 0.12343,5.374514 -0.22644,9.333338 -1.12282,12.704868 -0.71795,2.700409 -3.16174,7.625277 -6.74859,13.600183 l -2.84859,4.74511 -31.592776,-0.0268 C 80.070608,109.13666 64.575652,109.0474 63.0134,108.95308 Z"
     id="path312"
     transform="scale(0.75)" />
  <path
     style="opacity:0.81;fill:#ffffff;stroke:#333333;stroke-width:0.213465"
     d="m 87.164857,35.636411 c -2.563413,-2.648332 -4.686141,-4.885831 -4.717173,-4.972219 -0.07032,-0.195771 7.66184,-7.847307 8.755107,-8.663814 l 0.800493,-0.597848 0.800493,0.597848 c 1.093267,0.816507 8.825433,8.468043 8.755103,8.663814 -0.1045,0.290925 -9.376064,9.787368 -9.555596,9.787368 -0.09772,0 -2.275013,-2.166817 -4.838427,-4.815149 z"
     id="path314"
     transform="scale(0.75)" />
  <path
     style="opacity:0.81;fill:#ffffff;stroke:#333333;stroke-width:0.213465"
     d="m 34.047619,147.18621 c -0.362596,-0.40151 -0.437106,-0.83135 -0.49446,-2.85247 -0.06163,-2.17165 -0.02294,-2.46343 0.442475,-3.33716 0.3522,-0.66119 0.918654,-1.23122 1.830704,-1.84227 1.513525,-1.01402 6.899658,-3.45656 9.098132,-4.12588 3.945467,-1.2012 8.691597,-1.49457 24.291458,-1.50153 l 10.619868,-0.005 v 5.21155 5.21156 l -15.102627,0.0981 c -18.72991,0.1216 -19.468553,0.19058 -25.135468,2.34713 -3.354802,1.27667 -4.913902,1.50021 -5.550082,0.79575 z"
     id="path316"
     transform="scale(0.75)" />
  <path
     style="opacity:0.81;fill:#ffffff;stroke:#333333;stroke-width:0.213465"
     d="m 145.79639,147.20762 c -0.64573,-0.21469 -2.61495,-0.96905 -4.37603,-1.67635 -3.41258,-1.37058 -5.77388,-2.03297 -8.55329,-2.39937 -2.91875,-0.38476 -11.07807,-0.6351 -20.85147,-0.63976 l -9.33908,-0.004 v -4.50099 -4.50099 l 14.14204,0.0955 c 15.18199,0.10247 16.21007,0.16766 20.71749,1.31367 3.9827,1.0126 9.63134,3.41455 10.63277,4.52133 0.82525,0.91206 1.04304,1.81667 1.04267,4.3308 -4.3e-4,2.85122 -0.34631,3.73199 -1.49392,3.80408 -0.41092,0.0258 -1.27545,-0.12873 -1.92118,-0.34342 z"
     id="path318"
     transform="scale(0.75)" />
  <path
     style="fill:#ffffff;stroke:#00a7ca;stroke-width:0.0524417"
     d="m 87.329027,35.412418 c -2.477599,-2.536717 -4.504725,-4.68269 -4.504725,-4.768829 0,-0.08614 1.96308,-2.093156 4.3624,-4.460037 2.919773,-2.880297 4.512597,-4.303421 4.816582,-4.303421 0.303985,0 1.896809,1.423124 4.816581,4.303421 2.39932,2.366881 4.362405,4.3803 4.362405,4.474264 0,0.221882 -8.965573,9.366814 -9.183103,9.366814 -0.09098,0 -2.192542,-2.075495 -4.67014,-4.612212 z"
     id="path2002"
     transform="scale(0.75)" />
  <path
     style="fill:#ffffff;stroke:#00a7ca;stroke-width:0.0524417"
     d="m 67.027914,108.75169 c -6.862913,-0.14953 -9.022872,-0.39541 -11.464199,-1.30502 -2.94673,-1.09792 -3.806111,-2.07186 -6.244097,-7.07642 C 44.557947,90.595759 43.964046,87.766797 44.62014,77.984961 45.0543,71.511973 45.916424,66.945882 47.125172,64.717478 49.20134,60.889931 54.979968,57.24939 63.241368,54.56426 c 3.480737,-1.131314 6.765685,-1.930448 12.406027,-3.018031 5.42953,-1.046936 9.65976,-2.110853 11.485404,-2.888619 4.63333,-1.973905 4.767985,-1.971215 9.996197,0.199694 3.318574,1.377971 8.196914,2.426196 15.046704,3.233135 1.64368,0.193634 3.02873,0.391991 3.07791,0.440795 0.0492,0.0488 -3.64693,3.836561 -8.21355,8.417239 l -8.302953,8.328505 8.532743,8.534746 c 4.69301,4.69411 8.62963,8.534745 8.74804,8.534745 0.11841,0 4.87341,-4.658867 10.56667,-10.353037 5.69327,-5.694171 10.4124,-10.353038 10.48698,-10.353038 0.26746,0 1.69334,4.355405 1.99819,6.103557 0.76579,4.391317 0.60834,13.06876 -0.31802,17.527424 -0.7224,3.477046 -2.776,7.800088 -7.35657,15.486425 l -2.51243,4.21593 -27.67206,-0.0401 c -15.219634,-0.022 -30.601865,-0.10393 -34.182736,-0.18195 z"
     id="path2041"
     transform="scale(0.75)" />
  <path
     style="fill:#ffffff;stroke:#00a7ca;stroke-width:0.0524417"
     d="m 34.382227,147.02504 c -0.463417,-0.37526 -0.516428,-0.60783 -0.600505,-2.63457 -0.08455,-2.03812 -0.0495,-2.30243 0.421456,-3.17829 0.680169,-1.26496 2.286368,-2.34254 5.956727,-3.99632 3.500559,-1.57727 5.753208,-2.31204 8.388095,-2.73604 3.052165,-0.49114 9.955078,-0.73436 20.988125,-0.73949 l 10.086206,-0.005 v 4.98152 4.98152 l -14.462233,0.13675 c -7.954228,0.0752 -15.711001,0.24403 -17.237274,0.37515 -3.007599,0.25839 -5.049704,0.73951 -8.858785,2.08715 -3.215317,1.13757 -4.020661,1.26268 -4.681812,0.72732 z"
     id="path2080"
     transform="scale(0.75)" />
  <path
     style="fill:#ffffff;stroke:#00a7ca;stroke-width:0.0524417"
     d="m 146.00985,146.99442 c -0.64573,-0.20899 -2.58376,-0.92464 -4.30674,-1.59033 -3.55002,-1.37158 -6.33112,-2.15289 -8.82134,-2.47822 -2.59469,-0.33898 -12.93031,-0.64445 -21.93349,-0.64825 l -8.0583,-0.003 v -4.26929 -4.2693 l 8.69869,0.0109 c 13.40175,0.0167 20.81939,0.27967 23.53448,0.83429 4.4827,0.9157 10.96214,3.42017 12.62441,4.87966 0.93573,0.82158 1.25129,1.89292 1.24961,4.24247 -0.002,1.98053 -0.29436,3.18221 -0.84798,3.4785 -0.52923,0.28323 -0.74471,0.2644 -2.13934,-0.18698 z"
     id="path2119"
     transform="scale(0.75)" />
</svg>
