<?xml version="1.0" encoding="UTF-8" standalone="no"?>
<svg
   version="1.0"
   width="130.000000pt"
   height="130.000000pt"
   viewBox="0 0 130.000000 130.000000"
   preserveAspectRatio="xMidYMid meet"
   id="svg536"
   sodipodi:docname="wk.svg"
   inkscape:version="1.1.2 (0a00cf5339, 2022-02-04)"
   xmlns:inkscape="http://www.inkscape.org/namespaces/inkscape"
   xmlns:sodipodi="http://sodipodi.sourceforge.net/DTD/sodipodi-0.dtd"
   xmlns="http://www.w3.org/2000/svg"
   xmlns:svg="http://www.w3.org/2000/svg">
  <defs
     id="defs540" />
  <sodipodi:namedview
     id="namedview538"
     pagecolor="#ffffff"
     bordercolor="#000000"
     borderopacity="0.25"
     inkscape:showpageshadow="2"
     inkscape:pageopacity="0.0"
     inkscape:pagecheckerboard="0"
     inkscape:deskcolor="#d1d1d1"
     inkscape:document-units="pt"
     showgrid="false"
     inkscape:zoom="4.6846154"
     inkscape:cx="86.239737"
     inkscape:cy="86.239737"
     inkscape:window-width="1920"
     inkscape:window-height="1011"
     inkscape:window-x="0"
     inkscape:window-y="0"
     inkscape:window-maximized="1"
     inkscape:current-layer="svg536"
     inkscape:pageshadow="0" />
  <g
     transform="translate(0.000000,130.000000) scale(0.100000,-0.100000)"
     fill="#000000"
     stroke="none"
     id="g534">
    <path
       d="M578 1150 c-31 -24 -52 -72 -46 -105 4 -21 1 -25 -18 -25 -22 0 -24 -4 -24 -44 l0 -43 -82 -5 c-60 -3 -96 -11 -128 -27 -125 -64 -181 -149 -188 -286 -6 -123 13 -181 83 -242 l55 -48 0 -103 0 -102 413 2 412 3 3 103 3 102 53 53 c63 61 76 96 76 208 0 110 -23 172 -85 234 -72 71 -131 98 -232 103 l-83 5 0 43 c0 37 -3 44 -20 44 -17 0 -20 7 -20 41 0 33 -6 47 -34 75 -27 27 -42 34 -74 34 -24 0 -49 -8 -64 -20z m110 -42 c17 -17 15 -74 -4 -92 -8 -9 -28 -16 -44 -16 -51 0 -76 51 -50 101 12 22 78 27 98 7z m8 -303 c-20 -74 -36 -137 -36 -140 0 -3 -8 -5 -18 -5 -16 0 -25 25 -58 154 -21 85 -36 157 -33 160 2 3 26 -3 52 -12 46 -16 49 -16 85 3 l37 20 3 -22 c2 -12 -13 -83 -32 -158z m-128 -137 c29 -117 52 -234 52 -259 0 -43 -2 -47 -37 -63 -132 -58 -295 -28 -385 72 -48 53 -61 98 -56 191 5 92 34 158 92 207 53 45 107 62 201 63 l81 1 52 -212z m407 188 c71 -32 109 -68 139 -128 22 -43 26 -66 26 -136 0 -103 -13 -134 -83 -194 -83 -71 -110 -82 -207 -83 -67 0 -95 5 -132 22 l-48 22 0 64 c0 52 67 368 95 445 3 8 29 12 82 12 61 0 89 -5 128 -24z m-260 -570 c70 -30 145 -33 219 -11 27 8 53 15 58 15 4 0 8 -25 8 -55 l0 -55 -360 0 -360 0 0 55 c0 30 3 55 6 55 3 0 34 -7 68 -16 80 -21 157 -15 226 18 30 15 60 25 65 23 6 -2 37 -15 70 -29z"
       id="path532" />
  </g>
  <path
     style="opacity:0.81;fill:#ffffff;stroke:#333333;stroke-width:0.213465"
     d="m 82.623406,39.470905 c -1.945437,-0.705419 -3.370565,-1.956532 -4.353937,-3.822301 -0.650866,-1.2349 -0.674789,-1.372564 -0.667704,-3.842364 0.0066,-2.298125 0.06695,-2.70253 0.586847,-3.932089 0.706913,-1.671845 1.034566,-2.049513 2.362153,-2.722732 2.80135,-1.420564 7.541571,-1.472116 10.068258,-0.109496 0.877342,0.473143 1.176156,0.798302 1.702838,1.852971 0.568279,1.137966 0.6476,1.536987 0.718748,3.615663 0.163298,4.770924 -1.116112,7.44355 -4.137939,8.643957 -1.676339,0.665919 -4.871349,0.826904 -6.279264,0.316391 z"
     id="path659"
     transform="scale(0.75)" />
  <path
     style="opacity:0.81;fill:#ffffff;stroke:#333333;stroke-width:0.213465"
     d="m 84.685043,84.85116 c -1.054682,-0.8308 -2.042845,-3.115438 -3.449498,-7.975261 -3.544183,-12.244743 -8.209322,-32.681002 -7.600639,-33.295607 0.281624,-0.284363 2.362418,0.227169 6.62782,1.629348 3.692376,1.213807 4.082696,1.299092 6.004233,1.311932 l 2.055136,0.01373 2.961284,-1.528971 c 1.628706,-0.840934 3.458824,-1.800291 4.066927,-2.131905 0.608103,-0.331615 1.182229,-0.526348 1.275838,-0.43274 0.09361,0.09361 0.169745,1.341141 0.169196,2.772299 -0.0015,4.018487 -1.051015,8.755575 -7.303083,32.964446 -0.91677,3.54986 -1.759467,6.545784 -1.872659,6.657607 -0.113193,0.111822 -0.6861,0.266268 -1.273128,0.343211 -0.904417,0.118546 -1.158003,0.06847 -1.661427,-0.328091 z"
     id="path661"
     transform="scale(0.75)" />
  <path
     style="opacity:0.81;fill:#ffffff;stroke:#333333;stroke-width:0.213465"
     d="m 53.472906,130.71198 c -10.421989,-1.17645 -20.687357,-6.17889 -26.851752,-13.08519 -4.591094,-5.14365 -6.652444,-9.46534 -7.415579,-15.54704 -0.341933,-2.724981 -0.15371,-11.787084 0.309051,-14.879422 0.433702,-2.898154 1.437799,-6.910524 2.270333,-9.072249 1.837496,-4.771164 3.846514,-7.841582 7.550003,-11.538801 5.679381,-5.669765 11.319274,-8.473682 19.534168,-9.711564 2.288807,-0.344894 4.663421,-0.475971 11.324819,-0.625121 4.635819,-0.103797 8.450871,-0.166612 8.477894,-0.139589 0.09508,0.09509 8.164123,33.173045 9.237507,37.867947 3.295963,14.416289 4.845834,23.406359 4.62718,26.840069 -0.220124,3.4568 -0.794135,4.2814 -4.088254,5.87299 -4.085667,1.97404 -9.586332,3.48972 -14.667285,4.04148 -2.430734,0.26396 -7.871323,0.25156 -10.308085,-0.0235 z"
     id="path663"
     transform="scale(0.75)" />
  <path
     style="opacity:0.81;fill:#ffffff;stroke:#333333;stroke-width:0.213465"
     d="m 105.67566,130.94218 c -4.1659,-0.40117 -6.623656,-1.1561 -12.396459,-3.80771 l -3.730761,-1.71364 -0.06533,-4.54129 c -0.07284,-5.06347 0.05424,-6.44417 1.243194,-13.5068 2.780412,-16.516272 10.228176,-48.608134 11.607056,-50.013957 1.15201,-1.174519 11.59878,-1.677023 18.27419,-0.879013 3.70255,0.44262 6.48305,1.390678 11.60896,3.958267 7.90277,3.958532 12.49425,8.517666 16.31071,16.195789 2.44852,4.926046 2.95832,7.039494 3.24671,13.459681 0.19615,4.366845 -0.0141,11.479173 -0.40782,13.796493 -0.63471,3.73557 -2.055,7.16447 -4.06158,9.80555 -2.2411,2.94976 -9.64201,9.47727 -14.26058,12.57764 -4.4414,2.98145 -7.77348,4.14494 -13.39699,4.67795 -2.68789,0.25476 -11.28993,0.24925 -13.9713,-0.009 z"
     id="path665"
     transform="scale(0.75)" />
  <path
     style="opacity:0.81;fill:#ffffff;stroke:#333333;stroke-width:0.213465"
     d="m 37.420459,143.39491 c 0.07103,-3.25801 0.2415,-6.5325 0.378829,-7.27665 l 0.249687,-1.35301 0.774363,0.13596 c 0.4259,0.0748 3.079782,0.70084 5.897516,1.39123 7.381414,1.80858 8.330051,1.95509 13.448276,2.07706 8.287954,0.19749 11.778845,-0.60493 21.880131,-5.02936 1.350164,-0.59138 3.179467,-1.28606 4.065119,-1.54373 l 1.610276,-0.46848 5.53125,2.2988 c 6.328182,2.63 7.708336,3.12877 10.673484,3.85724 4.7568,1.16864 10.29,1.46624 15.29651,0.82271 2.4607,-0.31629 4.83508,-0.86945 11.88478,-2.7688 1.56547,-0.42177 2.97317,-0.71818 3.12822,-0.65868 0.575,0.22065 0.79003,2.20461 0.89981,8.30224 l 0.11049,6.13712 H 85.27026 37.291318 Z"
     id="path667"
     transform="scale(0.75)" />
  <path
     style="fill:#ffffff;stroke:#00a7ca;stroke-width:0.0524417"
     d="m 53.807943,130.53036 c -9.658223,-1.00973 -19.556012,-5.57622 -25.850309,-11.92641 -4.613187,-4.65416 -7.154206,-9.16423 -8.221735,-14.59281 -0.756349,-3.84617 -0.580423,-13.857933 0.326051,-18.555171 1.563517,-8.101964 4.182523,-13.308126 9.27642,-18.440031 3.822811,-3.851335 7.159324,-6.139205 11.326654,-7.766765 5.327672,-2.080733 9.337183,-2.587075 22.763193,-2.874655 l 5.045622,-0.108075 0.789569,3.139356 c 1.324833,5.267577 6.020367,24.539188 7.578311,31.103232 3.671277,15.468089 5.38441,24.811979 5.400936,29.458129 0.01422,3.99382 -0.571878,4.91676 -4.21756,6.64164 -3.243972,1.53482 -7.763466,2.88733 -12.064504,3.61043 -2.393537,0.40241 -9.531553,0.58516 -12.152648,0.31113 z"
     id="path1659"
     transform="scale(0.75)" />
  <path
     style="fill:#ffffff;stroke:#00a7ca;stroke-width:0.0524417"
     d="m 84.564446,84.271667 c -1.000201,-1.051431 -1.821914,-3.106372 -3.330669,-8.329354 -2.922165,-10.1159 -7.368976,-29.166595 -7.373661,-31.589686 -0.0013,-0.661671 0.02563,-0.683286 0.692429,-0.556218 0.70307,0.133979 2.494089,0.65869 7.056734,2.067395 2.22657,0.687448 2.784043,0.778232 4.778871,0.778232 h 2.258262 l 3.946477,-2.054186 3.946477,-2.054187 -0.110914,3.281609 c -0.13821,4.089251 -0.658904,6.653495 -4.201805,20.692512 -3.105867,12.307235 -4.600213,17.900684 -4.843275,18.128746 -0.100674,0.09446 -0.597189,0.239101 -1.103367,0.321424 -0.873004,0.141984 -0.96121,0.106698 -1.715559,-0.686287 z"
     id="path1698"
     transform="scale(0.75)" />
  <path
     style="fill:#ffffff;stroke:#00a7ca;stroke-width:0.0524417"
     d="m 83.027213,39.321005 c -1.876734,-0.533289 -3.557788,-1.957259 -4.561951,-3.864293 -0.505873,-0.960716 -0.550648,-1.260517 -0.550648,-3.686953 0,-2.451671 0.04394,-2.738122 0.612399,-3.991819 0.716643,-1.580522 1.509126,-2.263128 3.336698,-2.874065 2.783684,-0.930554 6.423996,-0.782487 8.520956,0.346584 0.872138,0.469588 1.192703,0.809782 1.699308,1.803361 0.53067,1.040778 0.638575,1.537421 0.718873,3.308703 0.162261,3.579268 -0.707451,6.357276 -2.392697,7.642675 -1.670775,1.274363 -5.27084,1.915976 -7.382938,1.315807 z"
     id="path1737"
     transform="scale(0.75)" />
  <path
     style="fill:#ffffff;stroke:#00a7ca;stroke-width:0.0524417"
     d="m 105.84609,130.72981 c -3.97882,-0.34892 -6.843372,-1.24578 -13.116492,-4.1066 l -2.967694,-1.3534 0.02046,-5.42637 c 0.02289,-6.0692 0.177797,-7.33906 2.224384,-18.23424 3.177035,-16.913227 9.244952,-42.424055 10.442652,-43.903148 0.50181,-0.619706 2.40122,-0.986556 6.52433,-1.260099 5.41527,-0.35927 11.39968,-0.0024 14.90563,0.888968 4.93458,1.254536 12.4928,5.246169 16.44614,8.685512 4.92521,4.284844 9.6002,12.289285 10.72734,18.367197 0.44833,2.417534 0.6565,13.566966 0.32155,17.22212 -0.53919,5.88401 -2.38658,10.11013 -6.09775,13.9493 -3.4197,3.53765 -8.91173,8.18858 -12.5016,10.58701 -3.60696,2.40984 -6.6647,3.61895 -10.8867,4.30486 -2.4557,0.39896 -12.65185,0.57622 -16.04225,0.27889 z"
     id="path1776"
     transform="scale(0.75)" />
  <path
     style="fill:#ffffff;stroke:#00a7ca;stroke-width:0.0524417"
     d="m 37.648214,143.50164 c 0.13085,-5.00719 0.364906,-8.14585 0.626996,-8.40794 0.05009,-0.0501 2.913715,0.57725 6.363601,1.39409 3.449885,0.81684 7.040992,1.60437 7.980236,1.75005 2.369654,0.36756 11.493706,0.37898 13.555009,0.017 3.683269,-0.64686 7.565148,-1.93562 13.448275,-4.46478 1.350165,-0.58043 3.251002,-1.31953 4.224085,-1.64244 l 1.76924,-0.58711 6.022221,2.45617 c 3.312221,1.3509 6.790694,2.69486 7.729939,2.98658 5.755834,1.78772 13.100734,2.29833 19.046974,1.32414 1.08338,-0.1775 4.58954,-0.98787 7.79146,-1.80084 3.35473,-0.85177 5.90318,-1.39887 6.01402,-1.29109 0.36524,0.35512 0.52599,2.25659 0.68078,8.05273 l 0.15535,5.81691 H 85.27909 37.501783 Z"
     id="path1815"
     transform="scale(0.75)" />
</svg>
