<?xml version="1.0" encoding="UTF-8" standalone="no"?>
<svg
   version="1.0"
   width="130.000000pt"
   height="130.000000pt"
   viewBox="0 0 130.000000 130.000000"
   preserveAspectRatio="xMidYMid meet"
   id="svg344"
   sodipodi:docname="wn.svg"
   inkscape:version="1.1.2 (0a00cf5339, 2022-02-04)"
   xmlns:inkscape="http://www.inkscape.org/namespaces/inkscape"
   xmlns:sodipodi="http://sodipodi.sourceforge.net/DTD/sodipodi-0.dtd"
   xmlns="http://www.w3.org/2000/svg"
   xmlns:svg="http://www.w3.org/2000/svg">
  <defs
     id="defs348" />
  <sodipodi:namedview
     id="namedview346"
     pagecolor="#ffffff"
     bordercolor="#000000"
     borderopacity="0.25"
     inkscape:showpageshadow="2"
     inkscape:pageopacity="0.0"
     inkscape:pagecheckerboard="0"
     inkscape:deskcolor="#d1d1d1"
     inkscape:document-units="pt"
     showgrid="false"
     inkscape:zoom="4.6846154"
     inkscape:cx="86.239737"
     inkscape:cy="86.239737"
     inkscape:window-width="1920"
     inkscape:window-height="1011"
     inkscape:window-x="0"
     inkscape:window-y="0"
     inkscape:window-maximized="1"
     inkscape:current-layer="svg344"
     inkscape:pageshadow="0" />
  <g
     transform="translate(0.000000,130.000000) scale(0.100000,-0.100000)"
     fill="#000000"
     stroke="none"
     id="g342">
    <path
       d="M660 1123 l0 -71 -46 -11 c-69 -18 -121 -47 -181 -104 -53 -50 -66 -77 -38 -77 33 0 10 -31 -95 -129 -135 -126 -137 -134 -54 -210 70 -64 87 -65 205 -6 l90 46 50 -56 c40 -42 58 -55 80 -55 25 0 29 -4 29 -28 0 -18 -13 -43 -35 -69 -34 -40 -35 -40 -121 -47 -172 -14 -284 -73 -284 -150 l0 -36 446 0 445 0 -3 323 c-3 313 -4 323 -26 368 -49 100 -127 167 -254 220 -56 24 -89 47 -140 97 l-68 66 0 -71z m195 -144 c58 -24 94 -48 135 -89 95 -94 95 -90 98 -428 l3 -292 -381 0 c-209 0 -380 4 -380 8 0 34 108 70 238 79 l83 6 49 54 c49 54 50 56 50 119 l0 64 -44 0 c-41 0 -48 4 -95 57 -28 31 -51 61 -51 65 0 5 -50 -17 -111 -47 -64 -33 -118 -54 -128 -50 -9 3 -33 21 -52 41 l-34 36 108 102 c86 81 107 106 107 129 0 15 -5 27 -12 27 -18 0 52 69 97 95 36 21 64 30 148 49 22 5 27 12 27 38 l0 32 33 -30 c17 -17 68 -46 112 -65z"
       id="path338" />
    <path
       d="M550 892 l0 -42 47 0 c26 0 43 3 38 8 -6 4 -27 23 -47 41 l-38 35 0 -42z"
       id="path340" />
  </g>
  <path
     style="opacity:0.81;fill:#ffffff;stroke:#333333;stroke-width:0.213465"
     d="m 66.600985,150.36806 c -10.796922,-0.15854 -21.490565,-0.52744 -22.103089,-0.76249 -1.142379,-0.43837 1.100493,-2.85702 4.065322,-4.38394 3.465116,-1.78456 8.899982,-3.41225 15.155994,-4.53907 4.627398,-0.83348 7.295655,-1.13156 15.47619,-1.72892 l 7.577997,-0.55336 1.050964,-1.1049 c 3.38818,-3.56207 9.466247,-10.48637 10.245031,-11.67141 1.832613,-2.78859 2.045546,-4.11235 2.045546,-12.71659 v -6.28176 l -3.682263,-0.004 c -5.957435,-0.007 -7.332186,-0.33476 -9.71344,-2.3169 -2.361387,-1.9656 -9.822363,-10.511879 -11.4379,-13.101699 -0.347879,-0.557676 -0.747201,-1.013957 -0.887381,-1.013957 -0.951888,0 -5.795264,2.124693 -14.837306,6.508831 -9.12981,4.426695 -14.26735,6.512515 -16.040841,6.512515 -0.868991,0 -1.987485,-0.61413 -3.930298,-2.15801 -1.529132,-1.21515 -6.519788,-6.159923 -7.548076,-7.478684 l -0.44012,-0.564446 8.909881,-8.421172 C 58.102014,67.958132 60.101935,65.6429 60.045326,61.969311 60.019021,60.262243 59.50892,59.045513 58.648409,58.63729 c -0.517805,-0.245645 -0.558981,-0.334884 -0.34473,-0.747127 0.529234,-1.018297 2.733594,-3.50271 4.663539,-5.256019 4.328223,-3.932083 7.473865,-6.152221 11.367008,-8.02263 3.174852,-1.525315 5.925913,-2.404142 12.820483,-4.095507 3.623102,-0.888813 5.912165,-1.555499 6.248107,-1.819751 1.063409,-0.836477 1.245802,-1.521444 1.336586,-5.019483 l 0.08442,-3.252619 2.378731,2.193196 c 1.308301,1.206258 2.907057,2.582256 3.552787,3.057774 2.99482,2.205398 8.57611,5.205175 14.77701,7.942215 4.01255,1.771111 7.61278,3.823634 10.51855,5.99672 2.46498,1.843436 10.90215,10.075456 12.597,12.290703 4.11853,5.383118 5.28972,10.134382 5.86701,23.801314 0.1606,3.802075 0.83019,54.058984 0.85251,63.986044 l 0.002,0.90722 -33.88752,-0.0349 c -18.638099,-0.0192 -38.834527,-0.1076 -44.880915,-0.19638 z M 83.1324,59.880086 c 2.046847,-0.335181 2.093047,-0.573676 0.396139,-2.044911 -0.798251,-0.692091 -2.881438,-2.557098 -4.629308,-4.144462 -5.014,-4.553569 -5.421476,-4.91403 -5.554952,-4.91403 -0.06924,0 -0.125888,2.545567 -0.125888,5.656815 v 5.656814 l 4.32266,-0.0013 c 2.377463,-6.4e-4 4.893571,-0.09472 5.591349,-0.20899 z"
     id="path467"
     transform="scale(0.75)" />
  <path
     style="fill:#ffffff;stroke:#00a7ca;stroke-width:0.0524417"
     d="m 69.802955,150.15883 c -12.637526,-0.14273 -24.163598,-0.49035 -25.028735,-0.75484 -0.616316,-0.18842 -0.437494,-0.54689 0.914676,-1.83357 2.440273,-2.32209 7.860992,-4.50083 14.986721,-6.0236 5.969397,-1.27566 10.272555,-1.79859 21.294826,-2.58779 l 4.802956,-0.34389 0.713992,-0.67867 c 2.923346,-2.77873 10.490513,-11.59218 11.370462,-13.24313 1.201407,-2.25407 1.292067,-2.95901 1.410867,-10.97002 l 0.10841,-7.31117 h -3.531082 c -4.324472,0 -6.500777,-0.27247 -8.044735,-1.0072 -2.01019,-0.95659 -8.242226,-7.543365 -12.427445,-13.134835 -0.94469,-1.26211 -1.84566,-2.294746 -2.002158,-2.294746 -0.914344,0 -4.890064,1.73061 -14.70681,6.401798 -9.717221,4.623823 -13.677737,6.265933 -15.753624,6.531753 -0.771575,0.0988 -1.089036,6.4e-4 -2.252792,-0.69711 -1.954126,-1.17149 -9.819066,-8.694521 -9.6062,-9.188596 0.04078,-0.09466 1.947305,-1.943874 4.236714,-4.109358 22.018077,-20.826249 23.909451,-22.937738 23.906686,-26.688897 -0.0013,-1.867697 -0.308349,-2.851921 -1.096288,-3.514927 l -0.658227,-0.553862 0.528425,-0.798505 c 1.53143,-2.314145 6.975655,-7.267855 10.852221,-9.874452 2.348596,-1.579191 6.384405,-3.561961 9.06756,-4.454838 1.064444,-0.354216 4.378483,-1.281315 7.364532,-2.06022 2.986049,-0.778904 5.795159,-1.515104 6.242465,-1.635999 0.975171,-0.263563 1.965637,-1.195811 2.144802,-2.018735 0.07155,-0.328621 0.194398,-1.867586 0.273,-3.419921 l 0.142916,-2.822427 0.474767,0.367583 c 0.261121,0.202171 1.423152,1.224638 2.582291,2.272149 3.020592,2.729701 5.822982,4.475371 12.247102,7.62899 3.11125,1.527321 6.85518,3.369153 8.31986,4.09296 5.51504,2.725402 9.12237,5.588114 16.34761,12.973173 5.40578,5.52535 7.13743,8.727707 8.1829,15.13266 0.93472,5.726448 1.1811,11.871553 1.51057,37.676522 0.11843,9.27504 0.27872,21.8828 0.35621,28.01724 l 0.1409,11.15353 -30.93067,-0.037 c -17.011867,-0.0203 -37.03042,-0.10586 -44.485675,-0.19007 z M 84.158456,59.888899 c 0.55941,-0.171621 0.800493,-0.368213 0.800493,-0.652764 0,-0.261815 -1.924271,-2.138408 -5.389984,-5.256442 -6.874703,-6.185033 -6.12243,-5.570646 -6.360338,-5.194522 -0.10844,0.17144 -0.198636,2.845066 -0.200433,5.94139 l -0.0033,5.629683 5.176519,-0.11088 c 2.956469,-0.06333 5.519825,-0.216203 5.977011,-0.356465 z"
     id="path1481"
     transform="scale(0.75)" />
</svg>
