<?xml version="1.0" encoding="UTF-8" standalone="no"?>
<svg
   version="1.0"
   width="130.000000pt"
   height="130.000000pt"
   viewBox="0 0 130.000000 130.000000"
   preserveAspectRatio="xMidYMid meet"
   id="svg723"
   sodipodi:docname="wp.svg"
   inkscape:version="1.1.2 (0a00cf5339, 2022-02-04)"
   xmlns:inkscape="http://www.inkscape.org/namespaces/inkscape"
   xmlns:sodipodi="http://sodipodi.sourceforge.net/DTD/sodipodi-0.dtd"
   xmlns="http://www.w3.org/2000/svg"
   xmlns:svg="http://www.w3.org/2000/svg">
  <defs
     id="defs727" />
  <sodipodi:namedview
     id="namedview725"
     pagecolor="#ffffff"
     bordercolor="#000000"
     borderopacity="0.25"
     inkscape:showpageshadow="2"
     inkscape:pageopacity="0.0"
     inkscape:pagecheckerboard="0"
     inkscape:deskcolor="#d1d1d1"
     inkscape:document-units="pt"
     showgrid="false"
     inkscape:zoom="4.9096154"
     inkscape:cx="86.564825"
     inkscape:cy="86.768507"
     inkscape:window-width="1920"
     inkscape:window-height="1011"
     inkscape:window-x="0"
     inkscape:window-y="0"
     inkscape:window-maximized="1"
     inkscape:current-layer="svg723"
     inkscape:pageshadow="0" />
  <path
     d="m 60.1,26.4 c -4.8,2.6 -6.3,8.4 -3.6,13.6 1.4,2.8 1.4,2.9 -2,4.8 -5.3,3.2 -8.5,9.1 -8.5,15.7 0,6.5 1.7,10.3 6.1,13.8 l 3.2,2.5 -4.9,1.6 c -6.1,2 -14,7.9 -17.5,13.1 -3.5,5.1 -4.9,10.6 -4.9,19.4 v 7.1 h 37.1 37.1 l -0.4,-9.3 C 101.6,101.3 101,98.5 99,94.6 95.3,87.3 87.2,80.8 77.6,77.6 75.9,77 76.1,76.6 79.2,73.4 87.7,64.9 86.1,51.9 75.8,45.1 72.2,42.8 72.1,42.7 73.5,39.9 78.3,30.8 69,21.5 60.1,26.4 Z m 8.7,4.8 c 0.7,0.7 1.2,2.4 1.2,3.8 0,1.4 -0.5,3.1 -1.2,3.8 -0.7,0.7 -2.4,1.2 -3.8,1.2 -1.4,0 -3.1,-0.5 -3.8,-1.2 -1.5,-1.5 -1.5,-6.1 0,-7.6 1.5,-1.5 6.1,-1.5 7.6,0 z m 5.8,17.9 c 5.6,5.2 6.9,11.7 3.6,17.8 -4.9,9.1 -20,9.5 -25.7,0.7 -4,-6 -0.9,-16.6 5.8,-20 4.7,-2.4 12.9,-1.7 16.3,1.5 z M 72.3,81.5 C 88.4,85.7 96.9,94.6 97,107.2 V 113 H 65 33 v -4.8 c 0,-7 1.7,-11.9 5.7,-16.3 5.2,-5.8 17.2,-11.1 26.3,-11.8 0.9,-0.1 4.2,0.6 7.3,1.4 z"
     id="path719"
     style="fill:#000000;stroke:none;stroke-width:0.1" />
  <path
     style="opacity:0.81;fill:#ffffff;stroke:#333333;stroke-width:0.203682"
     d="m 84.595913,52.969754 c -1.520229,-0.345503 -2.004079,-0.582498 -2.877424,-1.409395 -1.945518,-1.842047 -1.952775,-7.771665 -0.01204,-9.837483 0.2296,-0.244398 0.889636,-0.656737 1.466745,-0.916309 0.909255,-0.408963 1.375485,-0.471948 3.493474,-0.471948 2.133194,0 2.580838,0.0614 3.518214,0.482592 1.301221,0.584674 1.908702,1.269799 2.499055,2.818468 0.601557,1.578058 0.645208,4.156691 0.09896,5.846108 -0.531603,1.644134 -1.667087,2.813822 -3.158763,3.253915 -1.610787,0.475235 -3.566461,0.566267 -5.028224,0.234052 z"
     id="path729"
     transform="scale(0.75)" />
  <path
     style="opacity:0.81;fill:#ffffff;stroke:#333333;stroke-width:0.203682"
     d="m 83.000392,98.152735 c -7.446855,-1.329588 -13.278345,-6.312083 -14.787108,-12.63428 -0.5973,-2.502881 -0.470801,-6.869255 0.273582,-9.443249 1.168609,-4.040921 2.858631,-7.020177 5.433863,-9.579085 3.390572,-3.369082 7.069708,-4.728082 12.847779,-4.745716 4.255561,-0.01299 8.022934,0.840257 10.767409,2.438629 2.367638,1.378903 5.599363,5.218391 7.175913,8.52542 1.43193,3.003673 1.69334,4.164094 1.69775,7.536231 0.004,3.355278 -0.36833,4.982847 -1.8191,7.943596 -1.21801,2.485757 -2.65785,4.317864 -4.63928,5.903202 -4.494118,3.59574 -10.917531,5.132455 -16.950808,4.055252 z"
     id="path731"
     transform="scale(0.75)" />
  <path
     style="opacity:0.81;fill:#ffffff;stroke:#333333;stroke-width:0.203682"
     d="m 44.258012,144.46142 c 0.08528,-5.1208 0.172072,-6.4917 0.513929,-8.11723 1.296641,-6.16551 3.909654,-10.84339 8.510958,-15.23652 6.925217,-6.6119 20.147655,-12.49369 31.416011,-13.97492 2.606803,-0.34266 3.210738,-0.28595 7.874533,0.73954 21.245697,4.67158 33.622177,14.80609 36.151837,29.60303 0.33889,1.98228 0.40907,3.3154 0.40907,7.77015 v 5.37733 H 86.644879 44.155407 Z"
     id="path733"
     transform="scale(0.75)" />
  <path
     style="fill:#ffffff;stroke:#00a7ca;stroke-width:0.0500384"
     d="m 44.468826,144.55545 c 0.147527,-6.56383 0.372226,-8.33294 1.478809,-11.64303 2.706331,-8.09536 8.870333,-14.33383 19.128746,-19.35984 7.967351,-3.90353 17.380687,-6.52738 22.477988,-6.26547 3.350788,0.17217 10.948689,2.11156 16.323421,4.16661 5.69732,2.17839 10.95922,5.22289 14.6651,8.48514 5.04445,4.44058 8.38065,10.09078 9.79528,16.58935 0.36332,1.66902 0.44637,2.8998 0.5353,7.93321 l 0.10525,5.95769 H 86.65788 44.337035 Z"
     id="path1075"
     transform="scale(0.75)" />
  <path
     style="fill:#ffffff;stroke:#00a7ca;stroke-width:0.0500384"
     d="M 84.324324,98.146714 C 77.331359,97.125689 71.789008,93.367236 69.318386,87.970687 68.554559,86.302271 68.24178,84.969662 68.0991,82.775871 67.5586,74.465356 72.276889,66.109494 79.118293,63.26141 c 2.349596,-0.978139 4.7228,-1.302241 8.668624,-1.183848 4.000368,0.120029 6.376241,0.647532 8.951929,1.987553 2.800747,1.457108 6.127684,5.314725 7.965044,9.235546 1.28053,2.732591 1.46785,3.763498 1.37057,7.54322 -0.0751,2.915963 -0.14427,3.44242 -0.62861,4.78128 -2.04346,5.648624 -5.718823,9.371431 -11.171398,11.315603 -3.050773,1.087784 -7.262947,1.598299 -9.950128,1.20595 z"
     id="path1114"
     transform="scale(0.75)" />
  <path
     style="fill:#ffffff;stroke:#00a7ca;stroke-width:0.0500384"
     d="m 85.240893,52.856352 c -2.253838,-0.335919 -3.71424,-1.39738 -4.323672,-3.142565 -0.558569,-1.599528 -0.486341,-4.969925 0.136832,-6.385155 0.934787,-2.122903 2.154767,-2.708633 5.641642,-2.708633 2.123298,0 2.627761,0.06453 3.42158,0.437666 1.830685,0.860524 2.761691,2.73359 2.761691,5.556172 0,4.108387 -1.624295,5.935533 -5.601254,6.300772 -0.560125,0.05144 -1.476694,0.02522 -2.036819,-0.05826 z"
     id="path1153"
     transform="scale(0.75)" />
</svg>
