<?xml version="1.0" encoding="UTF-8" standalone="no"?>
<svg
   version="1.0"
   width="130.000000pt"
   height="130.000000pt"
   viewBox="0 0 130.000000 130.000000"
   preserveAspectRatio="xMidYMid meet"
   id="svg787"
   sodipodi:docname="wq.svg"
   inkscape:version="1.1.2 (0a00cf5339, 2022-02-04)"
   xmlns:inkscape="http://www.inkscape.org/namespaces/inkscape"
   xmlns:sodipodi="http://sodipodi.sourceforge.net/DTD/sodipodi-0.dtd"
   xmlns="http://www.w3.org/2000/svg"
   xmlns:svg="http://www.w3.org/2000/svg">
  <defs
     id="defs791" />
  <sodipodi:namedview
     id="namedview789"
     pagecolor="#ffffff"
     bordercolor="#000000"
     borderopacity="0.25"
     inkscape:showpageshadow="2"
     inkscape:pageopacity="0.0"
     inkscape:pagecheckerboard="0"
     inkscape:deskcolor="#d1d1d1"
     inkscape:document-units="pt"
     showgrid="false"
     inkscape:zoom="4.6846154"
     inkscape:cx="86.239737"
     inkscape:cy="86.239737"
     inkscape:window-width="1920"
     inkscape:window-height="1011"
     inkscape:window-x="0"
     inkscape:window-y="0"
     inkscape:window-maximized="1"
     inkscape:current-layer="svg787"
     inkscape:pageshadow="0" />
  <g
     transform="translate(0.000000,130.000000) scale(0.100000,-0.100000)"
     fill="#000000"
     stroke="none"
     id="g785">
    <path
       d="M591 917 c-30 -144 -57 -269 -60 -279 -4 -10 -35 49 -86 162 -44 99 -83 176 -87 172 -3 -4 -20 -76 -37 -161 -17 -85 -33 -156 -35 -158 -2 -2 -12 6 -22 19 -11 13 -37 37 -60 55 -22 18 -53 50 -69 73 -15 22 -29 39 -31 37 -2 -1 24 -115 56 -252 54 -227 60 -260 60 -362 l0 -113 425 0 425 0 0 102 c0 89 7 132 60 357 34 141 63 262 65 269 8 24 -3 11 -34 -37 -18 -27 -43 -57 -57 -66 -14 -9 -43 -33 -65 -52 -22 -20 -41 -34 -43 -32 -1 2 -15 76 -30 164 -15 88 -29 161 -31 163 -4 4 -20 -31 -110 -235 -28 -62 -53 -113 -56 -113 -3 0 -29 116 -59 258 -29 141 -55 265 -59 274 -4 10 -30 -98 -60 -245z m115 -257 c26 -118 50 -221 53 -228 4 -7 32 48 64 130 32 79 65 160 75 182 l17 38 25 -136 c13 -76 27 -139 31 -141 3 -3 19 13 34 35 26 38 75 79 75 63 0 -5 -14 -77 -32 -160 l-33 -153 -125 0 c-134 0 -158 7 -221 66 l-25 24 -25 -26 c-49 -53 -87 -64 -218 -64 -117 0 -121 1 -126 23 -3 12 -16 74 -30 137 -14 63 -28 125 -30 138 l-6 23 32 -23 c17 -13 43 -40 58 -60 l28 -38 17 98 c10 53 22 119 28 146 l11 50 69 -175 c38 -95 73 -177 77 -182 4 -4 31 104 61 239 36 161 57 240 62 228 4 -11 28 -116 54 -234z m-35 -366 c33 -40 90 -56 216 -62 l123 -5 0 -33 0 -34 -365 0 -365 0 0 35 0 35 89 0 c120 0 188 14 236 49 48 35 49 35 66 15z"
       id="path783" />
  </g>
  <path
     style="opacity:0.81;fill:#ffffff;stroke:#333333;stroke-width:0.213465"
     d="m 41.945813,134.37089 c -3.139827,-0.22841 -4.215539,-0.59775 -4.769337,-1.63752 -0.212777,-0.39949 -2.771495,-11.8374 -7.607305,-34.005948 -0.627461,-2.876437 -1.211321,-5.508375 -1.297467,-5.848751 -0.126188,-0.498592 -0.09872,-0.583425 0.141334,-0.436501 3.785592,2.31693 8.959343,7.360134 12.654405,12.3351 1.381365,1.85984 2.54306,3.34876 2.581543,3.3087 0.03848,-0.0401 0.566811,-2.95461 1.174062,-6.47677 1.874578,-10.872908 4.35751,-23.80274 5.896738,-30.707174 l 0.373629,-1.675971 2.850367,7.226053 c 7.459897,18.911813 10.552038,26.553962 13.686731,33.826412 2.144906,4.97615 2.644872,6.00797 2.961086,6.11104 0.527112,0.17181 3.230745,-10.05737 6.783959,-25.667064 5.113696,-22.465085 6.103274,-26.586665 7.704543,-32.089337 0.523618,-1.799382 1.108595,-3.574362 1.299949,-3.944401 0.317528,-0.614035 0.361692,-0.635563 0.505623,-0.246479 0.348204,0.941283 2.953395,12.203329 6.61485,28.595488 2.124179,9.509852 4.635585,20.556653 5.5809,24.548443 0.945317,3.99179 1.767897,7.47393 1.827947,7.73809 0.19469,0.85632 0.83302,0.56224 1.62174,-0.74712 2.02504,-3.3618 3.1211,-5.84746 9.85986,-22.360431 6.79401,-16.648366 9.46684,-22.876543 9.61892,-22.413793 0.0386,0.117405 0.41827,2.134647 0.84374,4.482758 4.52122,24.951679 5.74991,30.943706 6.51659,31.779946 0.48651,0.53064 2.30184,-1.31269 5.21516,-5.29557 2.95015,-4.033252 8.37754,-8.803887 9.14395,-8.037474 0.28872,0.288715 -1.63329,10.045104 -5.65356,28.698314 l -2.84588,13.20432 -13.55501,-0.10562 c -8.44181,-0.0658 -14.31998,-0.20041 -15.58293,-0.35693 -7.435586,-0.92149 -10.846293,-2.69841 -17.508592,-9.12166 -1.378011,-1.32856 -2.600188,-2.41557 -2.715954,-2.41557 -0.115764,0 -1.384947,1.24824 -2.820405,2.77386 -6.193093,6.58211 -10.344725,8.34155 -21.142237,8.96 -4.179428,0.23938 -16.676329,0.24036 -19.958949,0.001 z"
     id="path910"
     transform="scale(0.75)" />
  <path
     style="opacity:0.81;fill:#ffffff;stroke:#333333;stroke-width:0.213465"
     d="m 37.356322,147.31361 v -4.56652 l 11.15353,-0.11101 c 7.925361,-0.0789 11.92582,-0.20322 13.821839,-0.42957 9.139244,-1.09104 13.707474,-2.64878 19.215689,-6.55244 3.458747,-2.4512 4.361461,-2.99355 5.212554,-3.13166 0.742989,-0.12057 0.840839,-0.0543 2.740097,1.85514 1.083275,1.0891 2.670001,2.44141 3.526056,3.00514 3.482248,2.29312 8.980693,3.74688 17.228433,4.55509 2.98789,0.29279 6.89788,0.49829 20.9729,1.10232 l 3.25534,0.1397 v 4.35017 4.35016 H 85.91954 37.356322 Z"
     id="path912"
     transform="scale(0.75)" />
  <path
     style="fill:#ffffff;stroke:#00a7ca;stroke-width:0.0524417"
     d="m 42.479474,134.16362 c -1.350164,-0.0802 -2.694991,-0.21571 -2.988505,-0.30119 -1.269394,-0.3697 -1.745871,-0.64871 -2.023007,-1.18463 -0.162335,-0.31392 -1.505483,-6.03992 -2.984773,-12.72445 -1.47929,-6.68452 -3.418695,-15.44823 -4.309788,-19.4749 -0.891094,-4.026675 -1.562183,-7.379213 -1.491309,-7.450087 0.196876,-0.196877 3.091373,2.096599 5.401294,4.279753 2.312809,2.185883 4.957564,5.191614 7.363249,8.368234 1.855796,2.45052 2.256035,2.85089 2.413374,2.41419 0.05764,-0.15998 0.777602,-4.0852 1.599917,-8.722724 2.776739,-15.659659 5.531052,-29.454081 5.788783,-28.991942 0.08617,0.154517 2.361861,5.852369 5.057087,12.661893 8.75822,22.127763 13.364226,33.036013 14.156106,33.525423 0.133454,0.0825 0.328746,0.0176 0.433982,-0.14422 0.399358,-0.614 1.732834,-5.15535 3.058409,-10.41585 1.316008,-5.22254 2.307746,-9.449373 6.415088,-27.34138 3.155053,-13.743729 5.793385,-23.694581 6.282296,-23.694581 0.100194,0 0.244842,0.249697 0.321437,0.554882 0.564986,2.251081 3.701256,15.958493 6.72841,29.407255 4.633985,20.587444 7.007056,30.700464 7.264396,30.957804 0.68204,0.68204 2.28277,-1.62173 4.46524,-6.42633 0.68166,-1.50063 3.56882,-8.39591 6.41593,-15.322839 5.5799,-13.575742 9.01069,-21.763605 9.61017,-22.935448 0.32459,-0.634507 0.39337,-0.678331 0.50253,-0.320197 0.0696,0.228207 0.99806,5.169848 2.06333,10.981425 3.94927,21.545019 4.64404,24.548439 5.67868,24.548439 0.50101,0 2.56825,-2.18034 4.45262,-4.69622 2.7026,-3.608344 8.08005,-8.752055 9.14976,-8.752055 0.11697,0 0.14031,0.520914 0.0565,1.26157 -0.20781,1.83677 -2.48305,13.049405 -5.55388,27.370135 -1.47601,6.88332 -2.68366,12.57483 -2.68366,12.64779 0,0.19661 -15.10548,0.14273 -22.84072,-0.0815 -5.78101,-0.16756 -7.06845,-0.26684 -9.17898,-0.70787 -5.233531,-1.09362 -8.084194,-2.75085 -13.661743,-7.94223 -3.967243,-3.69256 -3.089188,-3.69795 -6.892881,0.0423 -3.618797,3.55843 -5.248655,4.80843 -7.87346,6.03845 -3.347628,1.56875 -6.73584,2.20963 -13.586821,2.56994 -4.375819,0.23013 -14.742041,0.23076 -18.609071,10e-4 z"
     id="path2298"
     transform="scale(0.75)" />
  <path
     style="fill:#ffffff;stroke:#00a7ca;stroke-width:0.0524417"
     d="m 37.569786,147.29064 v -4.37603 l 5.603449,-0.006 c 10.547856,-0.0106 18.679969,-0.35238 22.397668,-0.94127 7.480097,-1.18488 10.561966,-2.38636 16.578564,-6.46323 3.097973,-2.09919 4.382785,-2.83616 4.944479,-2.83616 0.125139,0 1.018545,0.74446 1.985341,1.65435 2.450652,2.30641 3.458973,3.09624 5.058644,3.9625 3.589293,1.94368 9.656879,3.32225 17.504109,3.97697 2.44336,0.20386 20.20766,1.07941 21.90043,1.07941 h 0.72682 v 4.16256 4.16257 H 85.91954 37.569786 Z"
     id="path2337"
     transform="scale(0.75)" />
</svg>
