<?xml version="1.0" encoding="UTF-8" standalone="no"?>
<svg
   version="1.0"
   width="130.000000pt"
   height="130.000000pt"
   viewBox="0 0 130.000000 130.000000"
   preserveAspectRatio="xMidYMid meet"
   id="svg6"
   sodipodi:docname="wr.svg"
   inkscape:version="1.2.2 (b0a8486541, 2022-12-01)"
   xmlns:inkscape="http://www.inkscape.org/namespaces/inkscape"
   xmlns:sodipodi="http://sodipodi.sourceforge.net/DTD/sodipodi-0.dtd"
   xmlns="http://www.w3.org/2000/svg"
   xmlns:svg="http://www.w3.org/2000/svg">
  <defs
     id="defs10" />
  <sodipodi:namedview
     id="namedview8"
     pagecolor="#ffffff"
     bordercolor="#000000"
     borderopacity="0.25"
     inkscape:showpageshadow="2"
     inkscape:pageopacity="0.0"
     inkscape:pagecheckerboard="0"
     inkscape:deskcolor="#d1d1d1"
     inkscape:document-units="pt"
     showgrid="false"
     inkscape:zoom="4.6846154"
     inkscape:cx="85.91954"
     inkscape:cy="85.706075"
     inkscape:window-width="1883"
     inkscape:window-height="1055"
     inkscape:window-x="37"
     inkscape:window-y="0"
     inkscape:window-maximized="1"
     inkscape:current-layer="svg6" />
  <g
     transform="translate(0.000000,130.000000) scale(0.100000,-0.100000)"
     fill="#000000"
     stroke="none"
     id="g4">
    <path
       d="M320 920 l0 -130 40 0 c29 0 40 -4 40 -15 0 -8 -16 -114 -35 -235 -19 -121 -35 -225 -35 -230 0 -6 -16 -10 -35 -10 l-35 0 0 -95 0 -95 398 2 397 3 3 92 3 93 -36 0 c-19 0 -35 3 -35 8 0 4 -18 108 -40 232 -22 123 -40 230 -40 237 0 9 15 13 45 13 l45 0 0 130 0 130 -90 0 -90 0 0 -35 c0 -33 -2 -35 -35 -35 -33 0 -35 2 -35 35 l0 35 -90 0 -90 0 0 -35 c0 -33 -2 -35 -35 -35 -33 0 -35 2 -35 35 l0 35 -90 0 -90 0 0 -130z m130 45 l0 -35 80 0 80 0 0 35 c0 35 0 35 45 35 45 0 45 0 45 -35 l0 -35 80 0 80 0 0 35 c0 35 0 35 45 35 l45 0 0 -85 0 -85 -295 0 -295 0 0 85 0 85 45 0 c45 0 45 0 45 -35z m410 -178 c0 -1 18 -104 40 -227 22 -124 40 -233 40 -242 0 -17 -20 -18 -283 -18 l-284 0 29 178 c15 97 33 207 39 245 l11 67 204 0 c112 0 204 -1 204 -3z m150 -582 l0 -45 -352 2 -353 3 -3 43 -3 42 355 0 356 0 0 -45z"
       id="path2" />
  </g>
  <path
     style="opacity:0.81;fill:#ff0000;stroke:#000000;stroke-width:0.213465"
     d="m 49.950739,133.04545 c 0,-0.17746 1.00088,-6.50671 2.224179,-14.06501 1.223298,-7.55829 3.29922,-20.466483 4.613159,-28.684873 1.313939,-8.218391 2.644229,-16.527505 2.956199,-18.464697 l 0.56722,-3.522167 h 27.035073 c 14.869291,0 27.079751,0.04803 27.134361,0.106732 0.0546,0.0587 0.59131,2.940476 1.19269,6.403941 0.60137,3.463465 2.19846,12.541051 3.54909,20.172414 2.75086,15.543 4.7905,27.55351 5.54638,32.6601 0.596,4.02644 0.55725,4.17433 -1.22765,4.68528 -2.35242,0.67341 -7.09492,0.77985 -40.343575,0.90539 -29.578536,0.11169 -33.247126,0.0899 -33.247126,-0.19711 z"
     id="path362"
     transform="scale(0.75)" />
  <path
     style="opacity:0.81;fill:#ff0000;stroke:#000000;stroke-width:0.213465"
     d="M 48.029557,51.309889 V 39.96789 l 5.069786,0.10542 c 3.407843,0.07086 5.254506,0.192844 5.633275,0.372107 0.943184,0.446387 1.095562,1.102522 1.203596,5.182662 l 0.100326,3.788998 H 70.790027 81.543514 V 45.45156 41.486043 l 0.600728,-0.600729 c 0.558673,-0.558674 0.762976,-0.611787 2.918387,-0.7587 2.805966,-0.191255 6.368817,0.02558 7.162285,0.435901 0.31927,0.165101 0.657776,0.47184 0.752232,0.681643 0.09446,0.209802 0.211318,2.134537 0.259691,4.277188 l 0.08795,3.895731 h 10.759613 10.75961 v -3.937193 c 0,-3.827721 0.014,-3.95345 0.50291,-4.521863 0.63956,-0.743531 1.94254,-0.907236 7.34191,-0.922429 l 3.89573,-0.01096 V 51.338259 62.651888 H 87.307061 48.029557 Z"
     id="path364"
     transform="scale(0.75)" />
  <path
     style="opacity:0.81;fill:#ff0000;stroke:#000000;stroke-width:0.213465"
     d="m 104.70443,151.73396 c -17.051569,-0.0999 -63.815195,-0.51905 -63.868665,-0.57252 -0.03147,-0.0315 -0.200326,-2.06798 -0.375239,-4.52559 -0.174914,-2.4576 -0.364035,-4.92464 -0.420269,-5.48232 l -0.102244,-1.01396 h 47.272372 47.272375 v 5.87028 5.87028 l -11.0468,-0.0506 c -6.07574,-0.0278 -14.50493,-0.0708 -18.73153,-0.0956 z"
     id="path366"
     transform="scale(0.75)" />
  <path
     style="opacity:0.81;fill:#ffffff;stroke:#333333;stroke-width:0.213465"
     d="m 50.531265,132.94684 c -0.298895,-0.0778 -0.354192,-0.24343 -0.258918,-0.77573 0.06663,-0.37227 1.12164,-6.9207 2.344467,-14.55206 1.222826,-7.63137 3.497733,-21.8241 5.055348,-31.539412 l 2.832029,-17.664203 h 9.950723 c 5.472896,0 17.59019,0.06373 26.927317,0.141624 l 16.976589,0.141623 0.35102,1.939657 c 0.19306,1.066812 1.64435,9.28818 3.22507,18.269707 5.49379,31.215064 7.03142,40.544504 6.90285,41.882314 -0.0882,0.91756 -1.021,1.39114 -3.30325,1.67704 -3.2865,0.41169 -69.543906,0.85909 -71.003245,0.47944 z"
     id="path644"
     transform="scale(0.75)" />
  <path
     style="opacity:0.81;fill:#ffffff;stroke:#333333;stroke-width:0.213465"
     d="M 48.243021,51.304761 V 40.171098 l 4.860502,0.126814 c 2.673277,0.06975 5.124507,0.227188 5.447178,0.349867 0.324603,0.123414 0.687057,0.486994 0.811389,0.81391 0.123593,0.324971 0.280825,2.295905 0.349404,4.379854 l 0.12469,3.788999 h 10.960398 10.960396 v -4.01862 -4.018619 l 0.539579,-0.506908 c 0.62231,-0.58463 1.928803,-0.804714 4.903771,-0.826059 2.57555,-0.01848 4.81152,0.319514 5.292689,0.800052 0.331493,0.331057 0.400579,0.93307 0.5137,4.476326 l 0.130698,4.093828 h 10.960025 10.96003 v -3.937194 c 0,-3.776116 0.0196,-3.959919 0.4803,-4.492681 0.64284,-0.743482 2.18132,-0.952771 7.04433,-0.95828 l 3.789,-0.0043 V 51.338259 62.438423 H 87.30706 48.243021 Z"
     id="path646"
     transform="scale(0.75)" />
  <path
     style="opacity:0.81;fill:#ffffff;stroke:#333333;stroke-width:0.213465"
     d="m 105.98522,151.52358 c -2.81773,-0.0245 -18.571427,-0.15485 -35.008209,-0.28977 -16.436781,-0.13492 -29.90269,-0.26245 -29.924241,-0.2834 -0.02155,-0.0209 -0.190508,-2.0537 -0.375458,-4.51724 -0.184951,-2.46353 -0.384586,-4.83937 -0.443634,-5.27964 l -0.107361,-0.80049 h 47.071488 47.071485 v 5.65681 5.65682 l -11.58046,-0.0493 c -6.36925,-0.0271 -13.88587,-0.0693 -16.70361,-0.0938 z"
     id="path648"
     transform="scale(0.75)" />
  <path
     style="opacity:0.81;fill:#ffffff;stroke:#333333;stroke-width:0.213465"
     d="m 50.857634,132.74874 c -0.365585,-0.0838 -0.454746,-0.22161 -0.372504,-0.57562 0.155102,-0.66763 10.138844,-63.059643 10.138844,-63.3613 0,-0.192159 6.286346,-0.215423 26.730094,-0.09892 14.701552,0.08378 26.753492,0.175727 26.782092,0.204329 0.10734,0.107335 6.19449,34.800601 8.3765,47.741231 1.92224,11.40007 2.24986,13.80803 1.96401,14.4354 -0.44514,0.97697 -1.79733,1.15864 -10.16633,1.36589 -8.63312,0.21379 -62.706659,0.46006 -63.452706,0.28899 z"
     id="path650"
     transform="scale(0.75)" />
  <path
     style="opacity:0.81;fill:#ffffff;stroke:#333333;stroke-width:0.213465"
     d="M 48.456486,51.304265 V 40.38357 l 4.536125,0.140549 c 2.494868,0.0773 4.824302,0.218882 5.176519,0.314623 1.003274,0.272715 1.160896,0.888812 1.314863,5.139408 l 0.14003,3.865856 h 11.17321 11.17321 l 0.0067,-4.109195 0.0067,-4.109195 0.53393,-0.388792 c 0.792082,-0.576762 3.078618,-0.856508 5.856605,-0.716527 2.670798,0.134581 3.735352,0.399771 4.063089,1.012153 0.116443,0.217575 0.273692,2.176683 0.349444,4.353574 l 0.137727,3.957982 h 11.173142 11.17315 v -3.856397 c 0,-2.354236 0.0898,-4.024271 0.23064,-4.287366 0.48586,-0.907838 1.51738,-1.107491 6.22666,-1.205185 l 4.4294,-0.09189 V 51.314065 62.224959 H 87.30706 48.456486 Z"
     id="path652"
     transform="scale(0.75)" />
  <path
     style="opacity:0.81;fill:#ffffff;stroke:#333333;stroke-width:0.213465"
     d="m 107.47947,151.31095 c -2.1133,-0.0253 -17.866991,-0.15672 -35.008206,-0.29203 -17.141215,-0.13531 -31.183058,-0.26225 -31.204096,-0.2821 -0.02104,-0.0198 -0.18959,-2.0041 -0.37456,-4.40944 -0.184971,-2.40535 -0.388244,-4.68555 -0.451718,-5.06712 l -0.115408,-0.69376 h 46.865174 46.865174 v 5.44335 5.44335 l -11.367,-0.0481 c -6.25184,-0.0265 -13.09606,-0.0688 -15.20936,-0.0941 z"
     id="path654"
     transform="scale(0.75)" />
  <path
     style="opacity:1;fill:#ffffff;stroke:#333333;stroke-width:0.213465"
     d="m 50.774729,131.76108 c 0.749249,-4.56346 7.109835,-44.22178 8.387932,-52.298847 l 1.663576,-10.513136 h 22.438432 c 12.341139,0 24.307581,0.0626 26.592101,0.13911 l 4.15367,0.139111 0.70104,3.970085 c 6.879,38.956837 9.6304,55.258577 9.63131,57.064507 6.4e-4,1.07958 -0.51465,1.37582 -2.88517,1.65899 -2.56206,0.30606 -28.41212,0.62116 -51.842046,0.63195 l -18.972274,0.009 z"
     id="path434"
     transform="scale(0.75)" />
  <path
     style="opacity:1;fill:#ffffff;stroke:#333333;stroke-width:0.213465"
     d="M 48.563218,51.330414 V 40.542602 l 2.828407,0.121296 c 5.171063,0.221759 6.744229,0.356616 7.08026,0.606944 0.432716,0.322353 0.764176,2.127831 0.766086,4.172908 8.32e-4,0.893868 0.06275,2.273614 0.1376,3.066102 l 0.136083,1.440887 h 11.25483 11.254832 l 0.132312,-0.800493 c 0.07277,-0.440271 0.13337,-2.310957 0.134662,-4.15708 l 0.0023,-3.356587 0.69376,-0.368408 c 1.454931,-0.772614 8.425623,-0.592728 9.112712,0.235164 0.180316,0.217268 0.623659,5.730755 0.649223,8.073841 0.0038,0.351013 0.685444,0.373563 11.291715,0.373563 h 11.28764 l 0.15441,-4.002463 c 0.11966,-3.101761 0.22695,-4.084238 0.47679,-4.365848 0.47541,-0.535875 2.06851,-0.763752 6.30501,-0.901874 l 3.789,-0.123531 V 51.337624 62.118226 H 87.30706 48.563218 Z"
     id="path436"
     transform="scale(0.75)" />
  <path
     style="opacity:1;fill:#ffffff;stroke:#333333;stroke-width:0.213465"
     d="m 128.29228,151.20675 c -2.34811,-0.0234 -21.46387,-0.15795 -42.479472,-0.299 -21.0156,-0.14105 -39.603038,-0.31617 -41.305419,-0.38916 l -3.095238,-0.13271 -0.236363,-3.09524 c -0.13,-1.70238 -0.308102,-3.88773 -0.395781,-4.85632 l -0.159418,-1.76109 H 87.284843 133.9491 v 5.33662 5.33662 l -0.69376,-0.0486 c -0.38157,-0.0267 -2.61495,-0.0677 -4.96306,-0.0911 z"
     id="path438"
     transform="scale(0.75)" />
</svg>
