<svg id="svg" version="1.1" xmlns="http://www.w3.org/2000/svg" xmlns:xlink="http://www.w3.org/1999/xlink" width="400" height="400" viewBox="0, 0, 400,400"><g id="svgg"><path id="path0" d="M188.849 38.787 C 184.371 39.890,183.835 41.255,183.600 52.128 C 183.312 65.492,183.959 64.831,170.800 65.201 C 156.682 65.597,157.000 65.215,157.000 81.800 C 157.000 97.983,156.543 97.463,170.583 97.259 C 185.548 97.041,186.030 97.591,182.971 111.366 C 177.778 134.747,177.786 134.739,165.196 130.281 C 158.061 127.754,153.543 126.485,148.558 125.607 C 146.161 125.185,142.040 124.395,139.400 123.850 C 112.796 118.366,95.677 121.658,77.678 135.721 C 57.088 151.809,47.653 185.198,56.445 210.864 C 58.437 216.679,60.626 220.464,65.468 226.463 C 75.062 238.350,78.363 242.043,89.366 253.200 C 104.863 268.914,110.725 275.497,116.081 283.200 C 121.039 290.331,122.019 290.805,129.826 289.849 C 148.607 287.548,158.945 286.866,182.800 286.354 C 202.690 285.928,230.165 286.321,244.400 287.237 C 255.939 287.980,259.338 287.914,263.600 286.864 C 266.511 286.148,268.461 285.935,271.934 285.955 C 278.222 285.992,278.292 285.952,282.599 279.760 C 286.737 273.812,291.073 269.051,308.038 251.826 C 314.770 244.992,321.003 238.320,321.891 237.000 C 322.778 235.680,324.840 233.153,326.472 231.385 C 339.995 216.730,345.296 196.697,341.569 174.326 C 339.585 162.420,332.790 147.382,326.314 140.564 C 307.572 120.834,273.522 117.338,235.006 131.188 C 223.901 135.182,223.564 134.771,218.596 111.168 C 215.837 98.063,216.224 97.563,229.411 97.176 C 242.013 96.806,241.699 97.103,242.035 85.272 C 242.192 79.742,242.506 75.850,242.983 73.532 C 244.474 66.290,243.191 65.472,229.871 65.176 C 214.940 64.843,215.363 65.202,215.782 53.231 C 216.170 42.121,216.170 42.119,215.447 41.015 C 213.957 38.742,213.181 38.607,201.200 38.527 C 195.150 38.487,189.592 38.604,188.849 38.787 M210.900 42.266 C 213.030 43.340,212.019 46.424,209.288 47.182 C 208.470 47.410,205.280 47.597,202.200 47.598 C 193.003 47.603,192.857 47.784,192.823 59.250 C 192.781 72.840,191.968 73.672,178.400 74.011 C 166.687 74.304,166.411 74.476,166.387 81.519 C 166.360 89.444,165.358 92.811,163.030 92.794 C 160.543 92.776,160.230 91.524,160.068 80.951 C 159.863 67.549,159.441 68.000,172.200 68.000 C 186.050 68.000,186.496 67.545,186.800 53.110 C 187.068 40.389,186.127 41.180,200.600 41.505 C 207.304 41.655,210.098 41.861,210.900 42.266 M238.295 68.712 C 240.169 69.782,239.805 72.260,237.608 73.396 C 235.840 74.310,218.703 74.275,216.396 73.352 C 213.633 72.246,213.024 69.597,215.300 68.581 C 217.049 67.800,236.897 67.913,238.295 68.712 M113.231 126.638 C 113.911 127.457,112.800 128.363,109.851 129.395 C 90.222 136.262,73.629 152.756,66.848 172.142 C 63.580 181.484,63.553 181.657,63.233 195.400 C 62.928 208.530,62.711 210.008,61.208 209.204 C 58.943 207.992,56.844 201.167,56.531 194.000 C 55.198 163.454,71.314 137.123,96.651 128.448 C 102.909 126.305,112.121 125.299,113.231 126.638 M146.937 170.024 C 160.056 172.685,171.696 179.622,174.252 186.302 C 175.148 188.644,175.625 238.228,174.790 242.249 C 173.807 246.984,171.874 247.897,161.552 248.506 C 150.129 249.180,149.769 249.034,142.729 240.878 C 138.645 236.147,133.009 229.969,127.176 223.827 C 112.434 208.305,108.598 199.971,110.993 188.666 C 114.018 174.391,129.325 166.452,146.937 170.024 M269.100 169.805 C 280.557 171.978,287.383 177.610,290.363 187.347 C 293.906 198.927,289.792 207.894,272.620 226.022 C 270.629 228.124,266.030 233.064,262.400 237.000 C 251.702 248.599,251.904 248.453,246.200 248.711 C 240.263 248.980,232.577 248.199,230.466 247.113 C 226.806 245.229,227.000 247.041,227.000 214.800 L 227.000 186.600 227.886 184.943 C 232.894 175.579,255.592 167.242,269.100 169.805 M170.000 294.787 C 125.396 296.558,105.731 301.524,98.589 312.819 C 94.825 318.773,91.772 345.124,94.284 349.986 C 96.009 353.326,84.497 353.000,200.800 353.000 C 315.233 353.000,305.721 353.219,307.470 350.549 C 309.010 348.199,308.842 333.394,307.194 326.200 C 306.741 324.220,306.112 321.278,305.797 319.662 C 304.363 312.309,299.679 307.157,290.622 302.972 C 283.132 299.512,268.166 297.115,242.000 295.187 C 234.873 294.662,180.725 294.361,170.000 294.787 M226.200 297.605 C 237.267 297.933,245.884 298.472,258.200 299.609 C 269.064 300.611,269.924 300.751,282.929 303.612 C 293.233 305.880,302.831 313.912,299.371 317.371 C 298.501 318.242,297.535 318.174,291.255 316.798 C 285.122 315.455,278.451 314.555,270.400 313.984 C 267.430 313.773,264.190 313.415,263.200 313.187 C 262.210 312.959,256.450 312.600,250.400 312.390 C 244.350 312.179,238.140 311.835,236.600 311.624 C 232.990 311.130,164.810 311.125,160.800 311.618 C 159.150 311.821,153.480 312.164,148.200 312.379 C 142.920 312.595,137.880 312.958,137.000 313.187 C 136.120 313.415,132.790 313.771,129.600 313.978 C 126.410 314.186,120.830 314.908,117.200 315.583 C 105.179 317.820,102.400 317.712,102.400 315.011 C 102.400 311.588,107.423 307.588,115.580 304.518 C 129.829 299.154,177.615 296.168,226.200 297.605 " stroke="none" fill="#545454" fill-rule="evenodd"></path><path id="path1" d="M177.385 22.784 C 170.295 23.867,168.781 26.747,168.501 39.687 C 168.375 45.490,168.161 48.500,167.856 48.753 C 167.605 48.961,163.350 49.193,158.400 49.268 C 141.435 49.525,141.890 48.638,141.730 81.759 C 141.667 94.716,141.543 105.390,141.454 105.480 C 141.364 105.569,139.765 105.439,137.898 105.190 C 131.050 104.279,110.075 104.852,105.400 106.079 C 103.200 106.656,100.050 107.348,98.400 107.616 C 86.769 109.509,69.865 119.296,60.056 129.818 C 50.866 139.675,42.856 154.014,40.798 164.292 C 40.544 165.561,39.884 168.040,39.331 169.800 C 37.387 175.993,37.058 201.597,38.838 208.169 C 39.260 209.726,40.070 212.800,40.639 215.000 C 43.054 224.339,50.635 237.988,58.191 246.600 C 59.542 248.140,61.711 250.750,63.010 252.400 C 64.309 254.050,70.857 260.980,77.561 267.800 C 92.007 282.498,98.002 289.066,97.994 290.188 C 97.990 290.750,96.741 291.924,93.938 293.998 C 79.107 304.977,74.750 318.500,75.312 351.800 C 75.563 366.709,76.600 368.826,84.215 369.993 C 89.880 370.861,317.773 370.345,320.389 369.458 C 323.369 368.448,325.341 366.413,326.199 363.461 C 327.118 360.303,326.867 334.139,325.879 330.000 C 325.538 328.570,325.054 325.540,324.805 323.267 C 323.527 311.601,316.420 299.827,306.697 293.265 C 304.684 291.907,303.600 290.914,303.600 290.428 C 303.600 289.072,308.483 283.594,323.364 268.255 C 349.777 241.030,358.390 228.407,362.025 211.600 C 362.429 209.730,363.137 206.760,363.598 205.000 C 365.180 198.953,365.066 180.846,363.408 174.800 C 363.076 173.590,362.525 171.010,362.184 169.067 C 359.681 154.808,349.269 136.251,338.108 126.156 C 327.268 116.352,316.434 110.809,300.159 106.740 L 293.400 105.050 281.000 104.891 C 272.980 104.788,267.281 104.897,264.866 105.199 C 262.813 105.456,261.013 105.547,260.866 105.400 C 260.720 105.254,260.510 94.304,260.400 81.067 L 260.200 57.000 259.096 54.751 C 256.872 50.224,253.823 49.200,242.565 49.200 C 236.915 49.200,234.791 49.068,234.491 48.700 C 234.259 48.414,234.004 44.597,233.896 39.800 C 233.629 27.944,232.550 25.304,227.190 23.403 C 224.847 22.572,182.237 22.043,177.385 22.784 M213.496 39.308 C 214.209 39.698,215.087 40.466,215.447 41.015 C 216.170 42.119,216.170 42.121,215.782 53.231 C 215.363 65.202,214.940 64.843,229.871 65.176 C 243.191 65.472,244.474 66.290,242.983 73.532 C 242.506 75.850,242.192 79.742,242.035 85.272 C 241.699 97.103,242.013 96.806,229.411 97.176 C 216.224 97.563,215.837 98.063,218.596 111.168 C 223.564 134.771,223.901 135.182,235.006 131.188 C 264.337 120.641,291.945 119.951,310.600 129.299 C 323.407 135.718,330.896 143.959,336.478 157.777 C 347.605 185.324,343.913 212.485,326.472 231.385 C 324.840 233.153,322.778 235.680,321.891 237.000 C 321.003 238.320,314.770 244.992,308.038 251.826 C 291.073 269.051,286.737 273.812,282.599 279.760 C 278.292 285.952,278.222 285.992,271.934 285.955 C 268.461 285.935,266.511 286.148,263.600 286.864 C 259.338 287.914,255.939 287.980,244.400 287.237 C 230.165 286.321,202.690 285.928,182.800 286.354 C 158.945 286.866,148.607 287.548,129.826 289.849 C 122.019 290.805,121.039 290.331,116.081 283.200 C 110.725 275.497,104.863 268.914,89.366 253.200 C 78.363 242.043,75.062 238.350,65.468 226.463 C 55.125 213.649,51.274 198.551,53.793 180.692 C 56.458 161.802,65.084 145.562,77.678 135.721 C 95.677 121.658,112.796 118.366,139.400 123.850 C 142.040 124.395,146.161 125.185,148.558 125.607 C 153.543 126.485,158.061 127.754,165.196 130.281 C 177.786 134.739,177.778 134.747,182.971 111.366 C 186.030 97.591,185.548 97.041,170.583 97.259 C 156.543 97.463,157.000 97.983,157.000 81.800 C 157.000 65.215,156.682 65.597,170.800 65.201 C 183.959 64.831,183.312 65.492,183.600 52.128 C 183.900 38.206,183.636 38.410,201.200 38.527 C 210.883 38.591,212.355 38.685,213.496 39.308 M131.600 169.794 C 118.541 172.400,110.435 181.841,110.407 194.480 C 110.387 203.240,114.562 210.546,127.176 223.827 C 133.009 229.969,138.645 236.147,142.729 240.878 C 149.769 249.034,150.129 249.180,161.552 248.506 C 171.874 247.897,173.807 246.984,174.790 242.249 C 175.625 238.228,175.148 188.644,174.252 186.302 C 170.281 175.923,146.674 166.786,131.600 169.794 M256.600 169.628 C 246.110 171.070,230.994 179.133,227.886 184.943 L 227.000 186.600 227.000 214.800 C 227.000 247.041,226.806 245.229,230.466 247.113 C 232.577 248.199,240.263 248.980,246.200 248.711 C 251.904 248.453,251.702 248.599,262.400 237.000 C 266.030 233.064,270.629 228.124,272.620 226.022 C 287.348 210.475,292.287 201.758,291.453 192.786 C 289.947 176.582,275.559 167.021,256.600 169.628 M144.534 188.015 C 149.370 189.365,154.481 191.762,156.000 193.391 L 157.000 194.463 157.127 209.532 C 157.249 224.103,157.094 228.185,156.427 227.924 C 156.151 227.816,148.417 219.697,137.735 208.303 C 126.359 196.169,125.772 190.999,135.379 187.578 C 138.212 186.569,139.591 186.635,144.534 188.015 M266.258 187.644 C 276.419 190.773,275.358 195.899,261.433 210.963 C 249.976 223.357,245.853 227.618,245.447 227.482 C 244.520 227.173,244.851 194.248,245.792 193.209 C 247.593 191.219,258.595 186.966,262.258 186.842 C 262.950 186.819,264.750 187.180,266.258 187.644 M242.000 295.187 C 264.673 296.858,268.683 297.393,284.099 300.801 C 295.594 303.343,304.048 310.691,305.797 319.662 C 306.112 321.278,306.741 324.220,307.194 326.200 C 308.842 333.394,309.010 348.199,307.470 350.549 C 305.721 353.219,315.233 353.000,200.800 353.000 C 84.497 353.000,96.009 353.326,94.284 349.986 C 91.772 345.124,94.825 318.773,98.589 312.819 C 105.731 301.524,125.396 296.558,170.000 294.787 C 180.725 294.361,234.873 294.662,242.000 295.187 " stroke="none" fill="#2c2c2c" fill-rule="evenodd"></path><path id="path2" d="M171.579 300.394 C 167.718 300.537,164.388 300.757,164.179 300.882 C 163.822 301.096,159.434 301.451,145.400 302.400 C 128.760 303.526,115.249 306.631,112.167 310.037 C 111.330 310.962,112.879 311.078,117.000 310.401 C 118.320 310.184,122.280 309.819,125.800 309.589 C 129.320 309.360,133.910 308.830,136.000 308.412 C 145.996 306.410,254.100 306.411,264.000 308.413 C 266.149 308.847,272.146 309.456,277.800 309.814 C 283.300 310.161,288.070 310.481,288.400 310.523 C 289.543 310.670,289.347 309.796,288.039 308.915 C 286.184 307.665,282.704 306.418,279.200 305.748 C 277.550 305.432,274.220 304.727,271.800 304.180 C 269.380 303.633,264.970 303.009,262.000 302.792 C 259.030 302.575,253.900 302.208,250.600 301.976 C 247.300 301.743,243.070 301.376,241.200 301.158 C 232.602 300.159,190.362 299.695,171.579 300.394 " stroke="none" fill="#797979" fill-rule="evenodd"></path><path id="path3" d="M190.052 41.609 C 187.083 42.291,187.024 42.502,186.800 53.110 C 186.496 67.545,186.050 68.000,172.200 68.000 C 159.441 68.000,159.863 67.549,160.068 80.951 C 160.230 91.524,160.543 92.776,163.030 92.794 C 165.358 92.811,166.360 89.444,166.387 81.519 C 166.411 74.476,166.687 74.304,178.400 74.011 C 191.968 73.672,192.781 72.840,192.823 59.250 C 192.857 47.784,193.003 47.603,202.200 47.598 C 205.280 47.597,208.470 47.410,209.288 47.182 C 212.019 46.424,213.030 43.340,210.900 42.266 C 209.631 41.626,192.346 41.081,190.052 41.609 M215.300 68.581 C 213.024 69.597,213.633 72.246,216.396 73.352 C 218.703 74.275,235.840 74.310,237.608 73.396 C 239.805 72.260,240.169 69.782,238.295 68.712 C 236.897 67.913,217.049 67.800,215.300 68.581 M103.851 126.644 C 82.023 130.048,62.993 150.024,58.019 174.755 C 55.055 189.495,56.653 206.767,61.208 209.204 C 62.711 210.008,62.928 208.530,63.233 195.400 C 63.553 181.657,63.580 181.484,66.848 172.142 C 73.629 152.756,90.222 136.262,109.851 129.395 C 117.075 126.867,113.355 125.162,103.851 126.644 M174.000 297.610 C 132.486 298.930,109.710 303.629,103.540 312.146 C 99.750 317.378,103.067 318.213,117.200 315.583 C 120.830 314.908,126.410 314.186,129.600 313.978 C 132.790 313.771,136.120 313.415,137.000 313.187 C 137.880 312.958,142.920 312.595,148.200 312.379 C 153.480 312.164,159.150 311.821,160.800 311.618 C 164.810 311.125,232.990 311.130,236.600 311.624 C 238.140 311.835,244.350 312.179,250.400 312.390 C 256.450 312.600,262.210 312.959,263.200 313.187 C 264.190 313.415,267.430 313.773,270.400 313.984 C 278.451 314.555,285.122 315.455,291.255 316.798 C 297.535 318.174,298.501 318.242,299.371 317.371 C 302.831 313.912,293.233 305.880,282.929 303.612 C 268.460 300.428,267.255 300.265,245.800 298.563 C 230.776 297.371,196.013 296.910,174.000 297.610 M228.200 300.409 C 233.480 300.603,239.330 300.941,241.200 301.158 C 243.070 301.376,247.300 301.743,250.600 301.976 C 253.900 302.208,259.030 302.575,262.000 302.792 C 264.970 303.009,269.380 303.633,271.800 304.180 C 274.220 304.727,277.550 305.432,279.200 305.748 C 282.704 306.418,286.184 307.665,288.039 308.915 C 289.347 309.796,289.543 310.670,288.400 310.523 C 288.070 310.481,283.300 310.161,277.800 309.814 C 272.146 309.456,266.149 308.847,264.000 308.413 C 254.100 306.411,145.996 306.410,136.000 308.412 C 133.910 308.830,129.320 309.360,125.800 309.589 C 122.280 309.819,118.320 310.184,117.000 310.401 C 112.879 311.078,111.330 310.962,112.167 310.037 C 115.249 306.631,128.760 303.526,145.400 302.400 C 159.434 301.451,163.822 301.096,164.179 300.882 C 165.435 300.129,211.417 299.789,228.200 300.409 " stroke="none" fill="#646464" fill-rule="evenodd"></path><path id="path4" d="" stroke="none" fill="#583c6c" fill-rule="evenodd"></path><path id="path5" d="" stroke="none" fill="#64406c" fill-rule="evenodd"></path><path id="path6" d="" stroke="none" fill="#3c5c6c" fill-rule="evenodd"></path></g></svg>