<svg id="svg" version="1.1" xmlns="http://www.w3.org/2000/svg" xmlns:xlink="http://www.w3.org/1999/xlink" width="400" height="400" viewBox="0, 0, 400,400"><g id="svgg"><path id="path0" d="M184.919 74.797 C 179.445 75.952,178.068 78.516,177.724 88.200 C 177.538 93.452,177.617 94.607,178.356 97.467 C 179.341 101.278,179.427 105.296,178.643 110.800 C 177.347 119.888,176.101 120.531,160.167 120.330 C 144.963 120.139,144.760 119.970,141.804 104.991 C 138.533 88.418,137.349 85.600,133.656 85.600 C 132.841 85.600,131.190 85.330,129.987 85.000 C 123.718 83.279,120.699 83.493,115.149 86.051 C 108.042 89.327,108.089 89.001,110.618 117.400 C 112.434 137.787,113.303 141.497,117.065 144.922 C 131.966 158.488,133.735 159.282,145.783 157.812 C 162.922 155.721,171.028 154.981,188.206 153.942 C 199.155 153.280,216.129 153.883,235.013 155.606 C 244.704 156.490,245.125 156.497,248.124 155.830 C 253.648 154.601,261.377 148.437,264.552 142.727 C 269.891 133.127,278.977 94.122,277.050 89.075 C 274.124 81.413,262.451 78.863,259.307 85.200 C 257.045 89.757,256.544 95.100,257.443 105.054 C 258.134 112.699,254.911 118.939,249.715 120.018 C 245.211 120.953,227.681 120.358,225.622 119.200 C 222.282 117.322,221.245 112.837,218.824 89.800 C 217.675 78.863,217.728 78.923,208.400 77.984 C 204.793 77.621,203.023 77.213,200.200 76.093 C 196.325 74.557,189.004 73.936,184.919 74.797 M194.526 76.180 C 198.251 77.508,198.576 79.385,195.581 82.261 C 194.470 83.328,193.404 84.256,193.210 84.324 C 193.017 84.392,190.846 86.789,188.386 89.652 C 183.611 95.207,182.637 95.969,181.255 95.229 C 177.757 93.358,178.137 79.764,181.752 77.395 C 184.376 75.675,191.273 75.019,194.526 76.180 M268.697 83.407 C 274.263 85.059,274.176 87.652,268.347 93.933 C 261.100 101.742,258.575 101.867,258.617 94.418 C 258.668 85.163,262.077 81.441,268.697 83.407 M124.958 85.584 C 128.044 86.758,128.223 88.389,125.989 95.019 C 122.612 105.045,121.568 111.722,121.146 126.000 C 120.682 141.691,120.283 143.326,117.384 141.426 C 114.649 139.634,113.469 135.064,112.213 121.400 C 111.890 117.880,111.261 111.130,110.815 106.400 C 109.591 93.393,109.694 91.824,111.925 89.463 C 114.703 86.525,121.843 84.400,124.958 85.584 M165.788 171.206 C 157.436 172.016,145.359 173.690,144.111 174.211 C 142.371 174.938,141.377 177.193,141.031 181.200 C 140.889 182.850,140.414 186.810,139.977 190.000 C 139.098 196.420,136.275 220.514,135.596 227.400 C 135.357 229.820,134.914 233.510,134.611 235.600 C 134.309 237.690,133.860 241.380,133.615 243.800 C 133.369 246.220,132.738 251.260,132.212 255.000 C 131.686 258.740,130.969 264.410,130.619 267.600 C 130.269 270.790,129.729 275.553,129.418 278.185 C 128.441 286.469,128.670 286.709,136.908 286.038 C 140.038 285.783,146.470 285.306,151.200 284.979 C 155.930 284.651,162.500 284.165,165.800 283.899 C 174.913 283.164,224.733 283.242,234.800 284.007 C 249.349 285.113,250.729 284.590,249.610 278.400 C 249.058 275.347,248.188 268.398,247.581 262.200 C 247.344 259.780,246.809 256.449,246.392 254.798 C 245.974 253.146,245.346 249.996,244.996 247.798 C 244.098 242.156,240.750 229.200,239.209 225.400 C 238.496 223.640,237.390 220.612,236.752 218.671 C 226.312 186.889,198.171 168.067,165.788 171.206 M197.400 295.444 C 196.520 295.522,187.700 295.772,177.800 296.000 C 120.514 297.319,98.982 303.518,97.577 319.095 C 97.384 321.243,96.964 324.260,96.646 325.800 C 94.955 333.968,94.763 346.943,96.311 348.490 L 97.222 349.400 200.046 349.400 L 302.869 349.400 303.784 348.337 C 305.486 346.357,305.405 337.691,303.575 326.091 C 303.149 323.392,302.800 320.409,302.800 319.464 C 302.800 313.600,299.017 309.085,290.600 304.903 C 279.577 299.426,254.173 296.315,216.259 295.801 C 208.812 295.700,201.882 295.546,200.859 295.460 C 199.837 295.374,198.280 295.367,197.400 295.444 M229.000 297.412 C 239.483 297.711,264.585 299.767,270.587 300.819 C 289.563 304.145,300.000 309.709,300.000 316.498 C 300.000 319.445,298.958 319.633,291.200 318.088 C 281.736 316.203,275.090 315.192,269.600 314.803 C 266.410 314.577,262.000 314.191,259.800 313.944 C 253.802 313.273,228.951 312.369,203.830 311.910 C 194.746 311.744,163.766 312.396,160.800 312.816 C 159.370 313.019,156.040 313.186,153.400 313.189 C 150.760 313.192,145.810 313.460,142.400 313.784 C 138.990 314.108,133.590 314.564,130.400 314.797 C 124.690 315.215,114.207 316.856,106.845 318.485 C 96.840 320.699,98.180 312.350,108.708 306.872 C 117.523 302.286,127.032 300.543,156.200 298.169 C 169.702 297.070,204.333 296.710,229.000 297.412 " stroke="none" fill="#545454" fill-rule="evenodd"></path><path id="path1" d="M188.562 57.185 C 187.000 57.362,184.715 57.800,183.484 58.158 C 182.252 58.517,179.299 58.997,176.922 59.226 C 168.804 60.007,165.479 61.817,164.210 66.145 C 162.278 72.731,161.196 78.531,160.809 84.366 C 160.282 92.327,160.064 92.691,159.109 87.200 C 158.783 85.330,158.136 82.360,157.671 80.600 C 157.206 78.840,156.538 76.008,156.187 74.306 C 155.356 70.282,153.716 67.828,150.771 66.200 L 148.600 65.000 137.200 65.018 C 127.593 65.033,125.454 65.143,123.600 65.721 C 122.390 66.098,119.960 66.771,118.200 67.218 C 105.892 70.340,95.074 75.932,92.943 80.273 C 91.101 84.023,91.148 96.030,93.039 104.968 C 93.397 106.660,93.797 112.067,94.034 118.400 C 95.104 147.047,101.356 162.301,115.800 171.511 C 121.092 174.885,120.617 174.160,120.482 178.656 C 120.417 180.825,120.029 183.950,119.621 185.600 C 118.671 189.438,118.493 190.851,117.997 198.463 C 117.773 201.908,117.231 206.408,116.792 208.463 C 116.354 210.518,115.817 215.170,115.601 218.800 C 115.094 227.299,114.910 228.814,113.968 232.200 C 113.458 234.034,113.049 237.416,112.784 242.000 C 112.561 245.850,112.038 250.800,111.622 253.000 C 111.206 255.200,110.756 257.630,110.622 258.400 C 110.488 259.170,110.199 262.938,109.980 266.772 C 109.730 271.132,109.288 274.890,108.799 276.803 C 108.370 278.485,107.897 281.166,107.749 282.760 C 107.411 286.402,107.121 286.725,102.344 288.786 C 89.555 294.301,81.702 303.069,77.609 316.400 C 75.325 323.839,75.135 326.258,75.277 346.109 C 75.425 366.922,75.534 367.381,80.811 369.486 C 82.975 370.350,311.072 370.838,316.597 369.991 C 322.008 369.162,324.036 366.978,324.790 361.169 C 325.263 357.526,325.277 339.104,324.814 329.600 C 323.860 310.020,314.377 295.916,297.128 288.420 C 292.861 286.566,292.400 285.999,292.400 282.604 C 292.400 281.682,292.025 279.504,291.566 277.764 C 291.020 275.692,290.548 271.884,290.199 266.730 C 289.895 262.233,289.230 256.575,288.649 253.530 C 288.065 250.470,287.460 245.303,287.227 241.400 C 286.963 236.960,286.540 233.559,286.009 231.600 C 285.452 229.546,285.072 226.326,284.804 221.388 C 284.570 217.068,284.022 212.096,283.439 208.988 C 282.902 206.135,282.265 200.754,282.023 197.031 C 281.740 192.699,281.225 188.713,280.591 185.960 C 279.619 181.741,279.246 175.534,279.906 174.571 C 280.068 174.335,281.550 173.277,283.200 172.220 C 294.444 165.014,301.015 154.967,303.620 140.992 C 304.111 138.357,304.752 134.940,305.043 133.400 C 305.334 131.860,305.772 125.650,306.017 119.600 C 306.321 112.088,306.710 107.268,307.244 104.400 C 309.062 94.636,309.050 83.626,307.216 80.032 C 305.305 76.285,292.554 69.627,283.400 67.598 C 282.300 67.354,279.780 66.670,277.800 66.077 C 272.759 64.569,253.080 64.402,250.000 65.841 C 246.232 67.602,244.828 69.909,243.397 76.694 C 242.851 79.282,242.049 82.840,241.615 84.600 C 241.181 86.360,240.718 88.498,240.585 89.352 C 240.171 92.018,239.707 90.409,239.258 84.754 C 238.776 78.684,236.743 67.997,235.527 65.139 C 234.043 61.652,231.314 60.161,225.270 59.536 C 223.142 59.316,219.330 58.674,216.800 58.109 C 211.817 56.996,195.060 56.448,188.562 57.185 M212.800 59.383 C 214.230 59.707,214.680 59.882,213.800 59.772 C 206.529 58.863,193.230 58.867,186.200 59.780 L 184.600 59.988 186.161 59.587 C 191.059 58.331,207.600 58.204,212.800 59.383 M202.300 59.896 C 201.035 59.975,198.965 59.975,197.700 59.896 C 196.435 59.816,197.470 59.751,200.000 59.751 C 202.530 59.751,203.565 59.816,202.300 59.896 M183.400 60.400 C 182.740 60.568,181.570 60.701,180.800 60.696 L 179.400 60.686 181.000 60.400 C 183.313 59.986,185.028 59.986,183.400 60.400 M221.125 60.599 C 231.314 61.806,235.759 65.366,235.578 72.173 C 235.566 72.628,235.203 71.653,234.772 70.007 C 233.132 63.742,230.648 62.121,220.955 60.987 C 218.151 60.659,215.769 60.303,215.662 60.195 C 215.394 59.927,215.546 59.938,221.125 60.599 M176.600 61.256 C 170.218 62.064,167.120 64.217,165.648 68.864 C 165.206 70.259,164.835 71.092,164.822 70.715 C 164.718 67.538,168.314 63.005,171.832 61.881 C 174.632 60.985,175.159 60.892,177.400 60.897 C 179.210 60.901,179.133 60.935,176.600 61.256 M148.657 67.427 C 152.427 69.356,154.653 73.216,155.329 79.000 C 155.499 80.453,155.310 80.016,154.639 77.400 C 152.583 69.392,149.982 67.065,142.519 66.553 C 139.489 66.345,129.925 66.848,126.200 67.412 C 125.041 67.587,125.046 67.579,126.322 67.180 C 131.387 65.594,145.375 65.749,148.657 67.427 M268.000 66.397 C 273.781 66.881,282.383 68.975,289.549 71.642 C 303.524 76.844,306.930 80.115,306.914 88.312 C 306.906 92.284,306.044 101.377,305.707 101.040 C 305.604 100.938,305.718 99.035,305.960 96.811 C 307.463 82.996,306.073 79.629,297.052 75.244 C 283.920 68.862,266.803 65.291,256.163 66.714 C 248.912 67.684,247.189 69.780,244.801 80.531 C 244.321 82.693,243.857 84.390,243.769 84.302 C 243.456 83.989,246.006 73.557,246.755 72.088 C 249.526 66.657,254.661 65.282,268.000 66.397 M138.505 67.482 C 138.014 67.577,137.114 67.579,136.505 67.487 C 135.897 67.395,136.300 67.317,137.400 67.314 C 138.500 67.311,138.997 67.387,138.505 67.482 M143.105 67.475 C 142.722 67.575,142.002 67.579,141.505 67.483 C 141.007 67.387,141.320 67.305,142.200 67.301 C 143.080 67.296,143.487 67.375,143.105 67.475 M258.705 67.475 C 258.322 67.575,257.602 67.579,257.105 67.483 C 256.607 67.387,256.920 67.305,257.800 67.301 C 258.680 67.296,259.087 67.375,258.705 67.475 M263.705 67.482 C 263.214 67.577,262.314 67.579,261.705 67.487 C 261.097 67.395,261.500 67.317,262.600 67.314 C 263.700 67.311,264.197 67.387,263.705 67.482 M124.000 68.000 C 122.632 68.438,121.581 68.438,122.600 68.000 C 123.040 67.811,123.760 67.662,124.200 67.668 C 124.843 67.677,124.804 67.743,124.000 68.000 M118.400 69.395 C 114.053 70.592,106.691 73.441,102.593 75.511 C 94.000 79.852,93.098 82.082,94.067 96.600 C 94.300 100.091,94.281 100.294,93.921 98.200 C 92.372 89.193,93.489 81.638,96.816 78.633 C 100.200 75.576,117.128 68.453,121.000 68.458 C 121.440 68.458,120.270 68.880,118.400 69.395 M203.320 71.169 C 203.936 71.404,206.996 71.783,210.120 72.011 C 220.960 72.804,223.114 74.441,224.212 82.720 C 224.525 85.074,225.046 88.890,225.370 91.200 C 225.695 93.510,226.238 98.010,226.577 101.200 C 228.061 115.151,227.379 114.436,239.200 114.436 C 249.621 114.436,250.529 113.980,251.018 108.508 C 251.132 107.239,251.304 105.930,251.401 105.600 C 251.498 105.270,251.677 103.830,251.800 102.400 C 251.923 100.970,252.095 99.530,252.184 99.200 C 252.272 98.870,252.452 97.610,252.583 96.400 C 252.714 95.190,253.183 92.850,253.625 91.200 C 254.067 89.550,254.507 87.860,254.602 87.445 C 256.606 78.711,261.240 76.243,271.200 78.603 C 273.975 79.261,281.524 82.455,281.995 83.171 C 282.108 83.343,283.640 84.262,285.400 85.213 C 291.816 88.681,292.805 90.814,292.056 99.571 C 291.820 102.337,291.529 106.730,291.410 109.333 C 291.290 111.936,290.992 114.442,290.746 114.901 C 290.500 115.361,290.137 118.811,289.939 122.568 C 288.761 144.909,284.383 153.969,271.699 160.318 C 265.719 163.312,263.855 163.714,257.088 163.474 C 241.559 162.922,233.732 162.335,221.000 160.765 C 215.141 160.042,182.698 160.206,178.000 160.982 C 173.288 161.760,169.132 162.216,159.408 163.021 C 155.232 163.367,150.587 163.908,149.084 164.224 C 144.817 165.122,138.902 165.385,135.867 164.813 C 134.409 164.538,133.078 164.313,132.908 164.313 C 131.124 164.318,122.179 158.077,118.600 154.330 C 110.653 146.011,108.835 141.846,108.011 130.080 C 107.784 126.846,107.244 120.780,106.809 116.600 C 103.827 87.886,104.510 85.630,117.532 81.170 C 121.673 79.752,122.256 79.672,130.495 79.400 C 138.638 79.131,139.574 79.457,142.745 83.672 C 143.710 84.953,148.400 103.718,148.995 108.673 C 149.630 113.964,150.561 114.420,160.784 114.444 C 172.988 114.474,172.704 114.823,173.023 99.415 C 173.449 78.836,175.714 72.584,183.200 71.320 C 188.356 70.450,201.180 70.353,203.320 71.169 M163.413 80.454 C 163.067 82.954,162.634 86.980,162.449 89.400 C 162.174 92.992,162.102 93.321,162.056 91.190 C 161.982 87.760,163.445 75.311,163.872 75.738 C 163.964 75.831,163.758 77.953,163.413 80.454 M237.762 88.000 L 237.957 92.200 237.592 88.400 C 237.392 86.310,236.952 82.838,236.614 80.684 C 235.766 75.278,235.933 74.453,236.832 79.600 C 237.236 81.910,237.654 85.690,237.762 88.000 M157.628 88.727 C 159.149 96.521,160.115 99.079,161.053 97.796 C 161.473 97.221,161.600 97.186,161.600 97.647 C 161.600 97.977,161.352 98.586,161.050 99.000 C 159.932 100.528,158.970 97.496,156.217 83.776 C 156.005 82.716,156.022 82.691,156.388 83.527 C 156.611 84.036,157.169 86.376,157.628 88.727 M242.817 89.110 C 241.257 97.298,239.704 100.979,238.807 98.617 C 238.305 97.299,238.311 96.252,238.812 97.500 C 239.488 99.180,240.037 98.548,241.161 94.800 C 241.508 93.644,243.195 85.393,243.199 84.833 C 243.199 84.742,243.288 84.754,243.395 84.861 C 243.502 84.969,243.242 86.880,242.817 89.110 M94.676 91.100 C 94.575 91.485,94.493 91.170,94.493 90.400 C 94.493 89.630,94.575 89.315,94.676 89.700 C 94.776 90.085,94.776 90.715,94.676 91.100 M238.282 95.700 C 238.187 96.195,238.109 95.790,238.109 94.800 C 238.109 93.810,238.187 93.405,238.282 93.900 C 238.378 94.395,238.378 95.205,238.282 95.700 M161.876 96.300 C 161.775 96.685,161.693 96.370,161.693 95.600 C 161.693 94.830,161.775 94.515,161.876 94.900 C 161.976 95.285,161.976 95.915,161.876 96.300 M94.676 102.700 C 94.575 103.085,94.493 102.770,94.493 102.000 C 94.493 101.230,94.575 100.915,94.676 101.300 C 94.776 101.685,94.776 102.315,94.676 102.700 M305.483 103.695 C 305.387 104.193,305.305 103.880,305.301 103.000 C 305.296 102.120,305.375 101.713,305.475 102.095 C 305.575 102.478,305.579 103.198,305.483 103.695 M95.560 110.967 C 95.622 115.884,95.334 114.383,95.106 108.600 C 94.979 105.375,95.019 104.236,95.211 105.600 C 95.381 106.810,95.539 109.225,95.560 110.967 M305.087 107.495 C 304.995 108.103,304.917 107.700,304.914 106.600 C 304.911 105.500,304.987 105.003,305.082 105.495 C 305.177 105.986,305.179 106.886,305.087 107.495 M304.671 115.540 C 304.417 122.290,303.345 133.603,302.924 133.993 C 302.801 134.107,302.816 133.210,302.958 132.000 C 303.574 126.750,304.021 120.969,304.264 115.100 C 304.408 111.635,304.615 108.800,304.726 108.800 C 304.836 108.800,304.811 111.833,304.671 115.540 M96.808 128.334 C 97.059 130.828,97.186 132.948,97.090 133.044 C 96.766 133.367,95.958 125.045,95.803 119.800 L 95.649 114.600 96.001 119.200 C 96.194 121.730,96.557 125.841,96.808 128.334 M97.476 135.500 C 97.375 135.885,97.293 135.570,97.293 134.800 C 97.293 134.030,97.375 133.715,97.476 134.100 C 97.576 134.485,97.576 135.115,97.476 135.500 M302.676 136.300 C 302.575 136.685,302.493 136.370,302.493 135.600 C 302.493 134.830,302.575 134.515,302.676 134.900 C 302.776 135.285,302.776 135.915,302.676 136.300 M100.436 147.392 C 103.813 157.518,108.969 164.154,118.266 170.340 C 122.881 173.411,122.971 173.634,122.382 180.417 C 122.145 183.148,121.859 185.474,121.747 185.586 C 121.635 185.699,121.671 184.211,121.828 182.280 C 122.548 173.402,122.724 173.882,117.429 170.274 C 111.089 165.955,105.436 159.644,102.312 153.400 C 100.282 149.342,97.507 139.610,97.644 137.027 C 97.668 136.572,97.946 137.640,98.262 139.400 C 98.578 141.160,99.557 144.756,100.436 147.392 M301.979 140.723 C 299.713 152.792,292.403 163.865,282.310 170.515 C 280.391 171.780,278.610 173.207,278.353 173.687 C 277.917 174.502,278.064 181.821,278.600 186.000 L 278.779 187.400 278.411 185.973 C 277.863 183.850,277.233 175.722,277.536 174.693 C 278.010 173.089,278.551 172.562,282.312 170.047 C 292.808 163.025,300.233 151.267,301.851 139.105 C 302.005 137.947,302.210 137.235,302.307 137.523 C 302.403 137.811,302.256 139.251,301.979 140.723 M213.400 164.371 C 218.773 164.563,223.616 164.923,224.400 165.188 C 225.170 165.449,228.860 165.816,232.600 166.004 C 240.413 166.396,248.634 167.281,252.400 168.135 C 253.830 168.459,255.816 168.837,256.813 168.974 C 260.400 169.467,262.379 171.499,263.258 175.593 C 263.519 176.807,263.862 177.980,264.020 178.200 C 264.453 178.802,264.881 181.090,264.869 182.737 C 264.847 185.697,266.386 199.302,266.800 199.800 C 267.035 200.083,267.327 202.359,267.448 204.857 C 267.772 211.535,269.057 223.385,269.559 224.323 C 269.798 224.770,270.086 226.815,270.199 228.868 C 270.312 230.920,270.488 233.050,270.591 233.600 C 270.693 234.150,270.968 236.748,271.201 239.374 C 271.434 242.000,271.821 244.385,272.062 244.674 C 272.302 244.963,272.390 245.200,272.259 245.200 C 272.127 245.200,272.209 245.695,272.440 246.300 C 272.671 246.905,272.852 248.480,272.843 249.800 C 272.815 253.537,273.952 265.349,274.786 270.000 C 278.057 288.238,276.514 292.838,267.347 292.176 C 263.508 291.898,259.454 292.240,259.807 292.812 C 260.060 293.221,264.575 294.161,269.200 294.768 C 271.070 295.013,274.097 295.654,275.927 296.192 C 277.756 296.729,280.003 297.281,280.918 297.418 C 281.834 297.554,282.692 297.733,282.825 297.816 C 282.958 297.898,283.682 298.073,284.434 298.204 C 291.387 299.422,302.462 306.858,305.783 312.538 C 308.667 317.473,311.025 329.387,311.470 341.282 C 311.820 350.613,310.905 353.396,306.856 355.318 L 305.000 356.200 200.000 356.200 C 84.487 356.200,93.731 356.383,91.056 354.049 C 85.757 349.426,89.479 318.093,96.299 309.906 C 100.331 305.065,110.116 299.166,115.763 298.171 C 116.406 298.058,117.042 297.898,117.175 297.816 C 117.308 297.733,118.213 297.547,119.185 297.402 C 121.533 297.052,126.818 295.367,127.783 294.662 C 128.516 294.126,128.488 294.067,127.176 293.406 C 121.891 290.741,121.393 286.566,124.194 268.400 C 124.720 264.990,125.354 259.860,125.603 257.000 C 125.852 254.140,126.397 249.820,126.814 247.400 C 127.232 244.980,127.759 240.930,127.985 238.400 C 128.445 233.250,128.899 229.295,130.002 220.800 C 130.416 217.610,130.865 213.380,131.000 211.400 C 131.134 209.420,131.669 205.100,132.189 201.800 C 132.708 198.500,133.248 194.270,133.389 192.400 C 134.217 181.377,135.324 174.953,136.853 172.290 C 140.200 166.464,153.387 164.204,184.066 164.201 C 191.473 164.201,197.683 164.046,197.866 163.858 C 198.050 163.670,199.460 163.631,201.000 163.772 C 202.540 163.913,208.120 164.183,213.400 164.371 M121.025 190.464 C 120.676 192.739,120.221 196.130,120.015 198.000 L 119.640 201.400 119.797 198.000 C 119.963 194.408,121.181 185.847,121.483 186.149 C 121.581 186.247,121.375 188.189,121.025 190.464 M280.146 195.400 C 280.821 201.559,281.289 208.027,281.014 207.400 C 280.918 207.180,280.561 204.030,280.222 200.400 C 279.882 196.770,279.488 192.810,279.346 191.600 C 279.204 190.390,279.188 189.490,279.310 189.600 C 279.433 189.710,279.809 192.320,280.146 195.400 M119.487 204.700 C 119.395 205.305,119.320 204.810,119.320 203.600 C 119.320 202.390,119.395 201.895,119.487 202.500 C 119.578 203.105,119.578 204.095,119.487 204.700 M119.076 207.900 C 118.975 208.285,118.893 207.970,118.893 207.200 C 118.893 206.430,118.975 206.115,119.076 206.500 C 119.176 206.885,119.176 207.515,119.076 207.900 M281.476 209.900 C 281.375 210.285,281.293 209.970,281.293 209.200 C 281.293 208.430,281.375 208.115,281.476 208.500 C 281.576 208.885,281.576 209.515,281.476 209.900 M118.676 210.700 C 118.575 211.085,118.493 210.770,118.493 210.000 C 118.493 209.230,118.575 208.915,118.676 209.300 C 118.776 209.685,118.776 210.315,118.676 210.700 M282.961 220.600 L 283.151 225.400 282.808 221.200 C 282.619 218.890,282.271 215.830,282.035 214.400 C 281.445 210.823,281.577 210.026,282.233 213.200 C 282.529 214.630,282.857 217.960,282.961 220.600 M118.058 215.082 C 117.816 216.797,117.434 220.747,117.208 223.859 C 116.983 226.972,116.454 231.202,116.032 233.259 C 115.611 235.317,114.965 240.510,114.598 244.800 C 114.230 249.090,113.856 252.675,113.765 252.767 C 113.233 253.304,114.709 237.709,115.598 233.402 C 116.051 231.203,116.596 226.793,116.809 223.602 C 117.223 217.385,117.971 211.437,118.297 211.764 C 118.407 211.874,118.299 213.367,118.058 215.082 M283.487 228.295 C 283.395 228.903,283.317 228.500,283.314 227.400 C 283.311 226.300,283.387 225.803,283.482 226.295 C 283.577 226.786,283.579 227.686,283.487 228.295 M285.580 240.369 C 285.811 242.663,285.977 245.453,285.949 246.569 C 285.921 247.686,285.654 245.900,285.357 242.600 C 285.059 239.300,284.632 235.736,284.408 234.680 C 283.821 231.920,283.989 231.392,284.624 234.000 C 284.919 235.210,285.349 238.076,285.580 240.369 M286.282 251.300 C 286.187 251.795,286.109 251.390,286.109 250.400 C 286.109 249.410,286.187 249.005,286.282 249.500 C 286.378 249.995,286.378 250.805,286.282 251.300 M286.676 254.300 C 286.575 254.685,286.493 254.370,286.493 253.600 C 286.493 252.830,286.575 252.515,286.676 252.900 C 286.776 253.285,286.776 253.915,286.676 254.300 M113.476 255.100 C 113.375 255.485,113.293 255.170,113.293 254.400 C 113.293 253.630,113.375 253.315,113.476 253.700 C 113.576 254.085,113.576 254.715,113.476 255.100 M288.557 267.800 L 288.754 272.600 288.391 268.323 C 288.192 265.970,287.752 262.327,287.414 260.227 C 286.570 254.979,286.721 254.092,287.624 259.000 C 288.028 261.200,288.448 265.160,288.557 267.800 M112.799 259.515 C 112.536 260.992,112.076 264.900,111.776 268.200 C 111.233 274.174,111.232 274.180,111.418 269.600 C 111.607 264.934,112.820 255.461,113.116 256.347 C 113.204 256.613,113.062 258.039,112.799 259.515 M289.083 275.295 C 288.987 275.793,288.905 275.480,288.901 274.600 C 288.896 273.720,288.975 273.313,289.075 273.695 C 289.175 274.078,289.179 274.798,289.083 275.295 M111.076 276.300 C 110.975 276.685,110.893 276.370,110.893 275.600 C 110.893 274.830,110.975 274.515,111.076 274.900 C 111.176 275.285,111.176 275.915,111.076 276.300 M110.056 282.348 C 109.318 287.184,108.418 289.220,107.030 289.191 C 106.794 289.186,106.984 288.871,107.453 288.491 C 108.634 287.534,109.050 286.556,109.360 284.000 C 109.720 281.037,110.475 277.141,110.654 277.321 C 110.734 277.401,110.465 279.663,110.056 282.348 M290.619 282.834 C 291.366 287.869,291.585 288.140,296.678 290.336 C 305.620 294.191,313.019 300.786,317.168 308.600 C 318.562 311.224,318.325 310.934,315.563 306.631 C 310.758 299.143,304.793 294.265,295.454 290.183 C 291.177 288.313,290.903 287.935,290.187 282.932 C 289.548 278.457,289.525 278.191,289.801 278.467 C 289.911 278.578,290.279 280.543,290.619 282.834 M102.574 291.154 C 91.607 296.388,83.598 305.023,80.374 315.091 C 79.865 316.681,79.373 317.907,79.282 317.815 C 78.951 317.484,80.888 312.143,82.236 309.673 C 86.874 301.172,94.659 294.003,103.200 290.369 C 107.325 288.614,106.974 289.055,102.574 291.154 M208.700 290.682 C 209.195 290.778,210.005 290.778,210.500 290.682 C 210.995 290.587,210.590 290.509,209.600 290.509 C 208.610 290.509,208.205 290.587,208.700 290.682 M252.200 291.095 C 249.550 291.546,249.365 291.637,250.166 292.085 C 251.200 292.664,258.000 293.031,258.000 292.507 C 258.000 291.913,253.637 290.850,252.200 291.095 M320.024 314.670 C 321.244 318.216,320.886 318.158,319.588 314.600 C 318.947 312.840,318.422 311.310,318.423 311.200 C 318.426 310.690,319.324 312.635,320.024 314.670 M323.011 326.800 L 323.161 329.800 322.785 326.800 C 322.578 325.150,322.047 322.602,321.605 321.138 C 320.480 317.417,320.672 317.173,321.870 320.800 C 322.444 322.536,322.925 325.064,323.011 326.800 M78.377 321.790 C 77.910 323.493,77.377 326.802,77.193 329.143 L 76.859 333.400 76.971 329.200 C 77.071 325.434,78.529 317.995,79.062 318.529 C 79.153 318.619,78.844 320.087,78.377 321.790 M323.184 361.471 C 322.614 364.226,320.924 366.471,318.536 367.647 L 316.600 368.600 200.000 368.600 L 83.400 368.600 81.270 367.420 C 78.638 365.962,77.245 363.783,76.999 360.741 L 76.827 358.600 77.174 360.457 C 77.946 364.583,79.777 366.764,83.341 367.800 C 85.189 368.337,98.672 368.395,201.014 368.303 L 316.600 368.200 318.200 367.339 C 322.859 364.832,322.962 364.383,323.200 345.600 L 323.400 329.800 323.506 344.600 C 323.574 353.994,323.456 360.156,323.184 361.471 " stroke="none" fill="#242424" fill-rule="evenodd"></path><path id="path2" d="M184.085 79.003 C 181.090 80.304,180.641 87.690,183.605 86.915 C 184.602 86.654,189.426 81.509,189.717 80.395 C 190.201 78.546,186.974 77.748,184.085 79.003 M264.008 86.114 C 262.236 87.010,261.391 89.796,262.589 90.791 C 263.388 91.454,265.783 89.981,266.659 88.285 C 267.632 86.404,266.029 85.091,264.008 86.114 M116.107 89.382 C 112.242 91.182,111.637 94.022,113.052 103.727 C 114.833 115.945,115.644 115.955,118.661 103.800 C 119.426 100.720,120.490 96.796,121.026 95.079 C 123.042 88.620,121.523 86.861,116.107 89.382 M182.800 300.854 C 173.890 300.994,164.800 301.309,162.600 301.556 C 160.400 301.802,153.110 302.447,146.400 302.989 C 128.911 304.401,114.380 307.274,116.839 308.833 C 117.531 309.272,118.534 309.192,135.400 307.370 C 148.173 305.990,200.211 304.820,217.400 305.527 C 223.780 305.789,235.840 306.184,244.200 306.405 C 252.560 306.626,261.830 307.073,264.800 307.399 C 282.132 309.301,285.066 309.378,282.762 307.870 C 275.720 303.262,230.709 300.103,182.800 300.854 " stroke="none" fill="#7d7575" fill-rule="evenodd"></path><path id="path3" d="M197.119 58.698 C 198.944 58.772,201.824 58.772,203.519 58.697 C 205.214 58.622,203.720 58.561,200.200 58.562 C 196.680 58.562,195.294 58.624,197.119 58.698 M137.100 66.296 C 138.475 66.374,140.725 66.374,142.100 66.296 C 143.475 66.218,142.350 66.154,139.600 66.154 C 136.850 66.154,135.725 66.218,137.100 66.296 M258.316 66.297 C 259.699 66.375,261.859 66.374,263.116 66.295 C 264.372 66.216,263.240 66.152,260.600 66.153 C 257.960 66.153,256.932 66.218,258.316 66.297 M187.400 73.030 C 176.813 74.497,175.243 78.462,176.005 101.800 C 176.464 115.885,174.896 117.572,161.320 117.590 C 147.907 117.608,147.513 117.304,145.038 105.000 C 140.566 82.774,140.429 82.581,128.800 82.236 L 122.200 82.040 118.200 83.352 C 106.507 87.185,106.285 88.110,109.388 120.200 C 109.729 123.720,110.196 128.670,110.427 131.200 C 111.289 140.637,112.726 143.845,119.000 150.343 C 128.730 160.419,134.760 162.819,145.800 161.006 C 147.780 160.681,153.180 160.050,157.800 159.604 C 162.420 159.159,169.710 158.402,174.000 157.922 C 184.443 156.754,215.202 156.631,224.000 157.723 C 238.955 159.578,250.803 159.840,262.400 158.571 C 268.870 157.863,276.938 152.676,280.087 147.200 C 282.852 142.391,284.923 132.437,285.557 120.914 C 285.765 117.127,286.049 113.844,286.188 113.619 C 286.327 113.395,286.618 110.193,286.834 106.505 C 287.051 102.817,287.330 98.432,287.455 96.759 C 287.759 92.674,287.381 92.054,281.985 87.806 C 274.849 82.188,272.066 80.790,266.785 80.171 C 259.075 79.266,255.785 84.954,254.801 100.890 C 253.811 116.931,253.210 117.565,239.000 117.565 C 224.823 117.565,225.522 118.421,223.001 97.964 C 222.014 89.954,221.106 82.648,220.983 81.729 C 220.400 77.365,217.837 75.855,209.598 75.025 C 206.409 74.704,202.630 74.156,201.200 73.809 C 198.672 73.195,189.817 72.695,187.400 73.030 M200.200 76.093 C 203.023 77.213,204.793 77.621,208.400 77.984 C 217.728 78.923,217.675 78.863,218.824 89.800 C 221.245 112.837,222.282 117.322,225.622 119.200 C 227.681 120.358,245.211 120.953,249.715 120.018 C 254.911 118.939,258.134 112.699,257.443 105.054 C 256.544 95.100,257.045 89.757,259.307 85.200 C 262.451 78.863,274.124 81.413,277.050 89.075 C 278.977 94.122,269.891 133.127,264.552 142.727 C 261.377 148.437,253.648 154.601,248.124 155.830 C 245.125 156.497,244.704 156.490,235.013 155.606 C 202.537 152.643,184.487 153.089,145.783 157.812 C 133.735 159.282,131.966 158.488,117.065 144.922 C 113.303 141.497,112.434 137.787,110.618 117.400 C 108.089 89.001,108.042 89.327,115.149 86.051 C 120.699 83.493,123.718 83.279,129.987 85.000 C 131.190 85.330,132.841 85.600,133.656 85.600 C 137.349 85.600,138.533 88.418,141.804 104.991 C 144.760 119.970,144.963 120.139,160.167 120.330 C 176.101 120.531,177.347 119.888,178.643 110.800 C 179.427 105.296,179.341 101.278,178.356 97.467 C 176.682 90.994,177.778 79.476,180.291 77.133 C 183.768 73.889,193.375 73.387,200.200 76.093 M93.348 89.200 C 93.348 91.510,93.414 92.455,93.495 91.300 C 93.576 90.145,93.576 88.255,93.495 87.100 C 93.414 85.945,93.348 86.890,93.348 89.200 M237.693 87.600 C 237.693 88.370,237.775 88.685,237.876 88.300 C 237.976 87.915,237.976 87.285,237.876 86.900 C 237.775 86.515,237.693 86.830,237.693 87.600 M162.109 88.800 C 162.109 89.790,162.187 90.195,162.282 89.700 C 162.378 89.205,162.378 88.395,162.282 87.900 C 162.187 87.405,162.109 87.810,162.109 88.800 M306.893 88.400 C 306.893 89.170,306.975 89.485,307.076 89.100 C 307.176 88.715,307.176 88.085,307.076 87.700 C 306.975 87.315,306.893 87.630,306.893 88.400 M306.493 93.600 C 306.493 94.370,306.575 94.685,306.676 94.300 C 306.776 93.915,306.776 93.285,306.676 92.900 C 306.575 92.515,306.493 92.830,306.493 93.600 M95.320 112.000 C 95.320 113.210,95.395 113.705,95.487 113.100 C 95.578 112.495,95.578 111.505,95.487 110.900 C 95.395 110.295,95.320 110.790,95.320 112.000 M304.524 115.800 C 304.526 117.120,304.601 117.612,304.690 116.893 C 304.779 116.174,304.777 115.094,304.686 114.493 C 304.595 113.892,304.522 114.480,304.524 115.800 M95.714 120.600 C 95.717 121.700,95.795 122.103,95.887 121.495 C 95.979 120.886,95.977 119.986,95.882 119.495 C 95.787 119.003,95.711 119.500,95.714 120.600 M304.109 122.400 C 304.109 123.390,304.187 123.795,304.282 123.300 C 304.378 122.805,304.378 121.995,304.282 121.500 C 304.187 121.005,304.109 121.410,304.109 122.400 M96.093 125.600 C 96.093 126.370,96.175 126.685,96.276 126.300 C 96.376 125.915,96.376 125.285,96.276 124.900 C 96.175 124.515,96.093 124.830,96.093 125.600 M170.200 167.871 C 169.320 167.945,165.270 168.283,161.200 168.622 C 151.565 169.423,143.310 170.819,141.462 171.962 C 138.837 173.584,137.776 178.307,136.196 195.400 C 136.053 196.940,135.689 199.820,135.386 201.800 C 135.083 203.780,134.469 208.820,134.021 213.000 C 133.574 217.180,132.841 223.660,132.392 227.400 C 131.943 231.140,131.317 236.630,131.000 239.600 C 130.683 242.570,130.066 247.430,129.629 250.400 C 129.192 253.370,128.637 257.780,128.396 260.200 C 128.155 262.620,127.619 266.940,127.205 269.800 C 124.189 290.650,124.055 290.449,140.000 289.014 C 166.163 286.660,201.021 285.741,224.000 286.800 C 245.461 287.789,247.485 287.791,251.561 286.832 C 254.918 286.043,255.690 285.993,258.761 286.372 C 271.136 287.898,272.390 287.254,271.385 279.898 C 270.861 276.059,270.045 269.780,268.954 261.200 C 268.605 258.450,268.173 254.220,267.994 251.800 C 267.815 249.380,267.479 245.960,267.248 244.200 C 265.303 229.381,263.460 214.013,262.403 203.800 C 261.795 197.916,260.431 186.781,259.538 180.400 C 258.683 174.292,258.227 173.914,250.389 172.806 C 238.916 171.185,235.714 170.831,230.400 170.597 C 227.430 170.467,224.190 170.197,223.200 169.997 C 222.210 169.798,218.700 169.621,215.400 169.605 C 212.100 169.589,207.240 169.316,204.600 168.999 C 201.866 168.670,198.423 168.518,196.600 168.645 C 194.781 168.772,190.743 168.595,187.244 168.234 C 181.687 167.662,174.467 167.508,170.200 167.871 M184.942 171.779 C 208.894 176.107,228.641 193.980,236.752 218.671 C 237.390 220.612,238.496 223.640,239.209 225.400 C 240.750 229.200,244.098 242.156,244.996 247.798 C 245.346 249.996,245.974 253.146,246.392 254.798 C 246.809 256.449,247.344 259.780,247.581 262.200 C 248.188 268.398,249.058 275.347,249.610 278.400 C 250.729 284.590,249.349 285.113,234.800 284.007 C 224.733 283.242,174.913 283.164,165.800 283.899 C 162.500 284.165,155.930 284.651,151.200 284.979 C 146.470 285.306,140.038 285.783,136.908 286.038 C 128.670 286.709,128.441 286.469,129.418 278.185 C 129.729 275.553,130.269 270.790,130.619 267.600 C 130.969 264.410,131.686 258.740,132.212 255.000 C 132.738 251.260,133.369 246.220,133.615 243.800 C 133.860 241.380,134.309 237.690,134.611 235.600 C 134.914 233.510,135.357 229.820,135.596 227.400 C 136.275 220.514,139.098 196.420,139.977 190.000 C 140.414 186.810,140.889 182.850,141.031 181.200 C 141.618 174.402,142.115 174.068,153.816 172.603 C 169.460 170.644,177.487 170.432,184.942 171.779 M277.728 176.800 C 277.728 178.230,277.801 178.815,277.889 178.100 C 277.978 177.385,277.978 176.215,277.889 175.500 C 277.801 174.785,277.728 175.370,277.728 176.800 M122.109 178.800 C 122.109 179.790,122.187 180.195,122.282 179.700 C 122.378 179.205,122.378 178.395,122.282 177.900 C 122.187 177.405,122.109 177.810,122.109 178.800 M119.693 197.600 C 119.693 198.370,119.775 198.685,119.876 198.300 C 119.976 197.915,119.976 197.285,119.876 196.900 C 119.775 196.515,119.693 196.830,119.693 197.600 M280.501 200.600 C 280.505 201.480,280.587 201.793,280.683 201.295 C 280.779 200.798,280.775 200.078,280.675 199.695 C 280.575 199.313,280.496 199.720,280.501 200.600 M282.893 220.000 C 282.893 220.770,282.975 221.085,283.076 220.700 C 283.176 220.315,283.176 219.685,283.076 219.300 C 282.975 218.915,282.893 219.230,282.893 220.000 M116.920 222.400 C 116.920 223.610,116.995 224.105,117.087 223.500 C 117.178 222.895,117.178 221.905,117.087 221.300 C 116.995 220.695,116.920 221.190,116.920 222.400 M285.293 239.600 C 285.293 240.370,285.375 240.685,285.476 240.300 C 285.576 239.915,285.576 239.285,285.476 238.900 C 285.375 238.515,285.293 238.830,285.293 239.600 M114.501 240.600 C 114.505 241.480,114.587 241.793,114.683 241.295 C 114.779 240.798,114.775 240.078,114.675 239.695 C 114.575 239.313,114.496 239.720,114.501 240.600 M285.709 244.400 C 285.709 245.390,285.787 245.795,285.882 245.300 C 285.978 244.805,285.978 243.995,285.882 243.500 C 285.787 243.005,285.709 243.410,285.709 244.400 M114.101 245.800 C 114.105 246.680,114.187 246.993,114.283 246.495 C 114.379 245.998,114.375 245.278,114.275 244.895 C 114.175 244.513,114.096 244.920,114.101 245.800 M288.501 267.400 C 288.505 268.280,288.587 268.593,288.683 268.095 C 288.779 267.598,288.775 266.878,288.675 266.495 C 288.575 266.113,288.496 266.520,288.501 267.400 M111.309 270.000 C 111.309 270.990,111.387 271.395,111.482 270.900 C 111.578 270.405,111.578 269.595,111.482 269.100 C 111.387 268.605,111.309 269.010,111.309 270.000 M198.000 293.813 C 197.670 293.904,188.940 294.163,178.600 294.387 C 156.763 294.861,146.278 295.571,130.600 297.639 C 113.319 299.919,100.167 306.272,96.620 314.053 C 93.275 321.390,90.576 345.478,92.616 349.777 C 94.185 353.083,83.427 352.781,200.113 352.791 C 313.907 352.801,305.566 352.990,307.166 350.359 C 309.812 346.008,307.139 320.563,303.292 313.476 C 299.157 305.862,286.278 299.843,269.400 297.637 C 252.052 295.370,238.743 294.532,215.000 294.213 C 208.620 294.127,202.320 293.964,201.000 293.852 C 199.680 293.739,198.330 293.721,198.000 293.813 M216.259 295.801 C 276.917 296.624,302.800 303.702,302.800 319.464 C 302.800 320.409,303.149 323.392,303.575 326.091 C 305.405 337.691,305.486 346.357,303.784 348.337 L 302.869 349.400 200.046 349.400 L 97.222 349.400 96.311 348.490 C 94.763 346.943,94.955 333.968,96.646 325.800 C 96.964 324.260,97.384 321.243,97.577 319.095 C 98.616 307.580,111.116 301.176,138.000 298.390 C 153.296 296.804,159.769 296.415,177.800 296.000 C 187.700 295.772,196.520 295.522,197.400 295.444 C 198.280 295.367,199.837 295.374,200.859 295.460 C 201.882 295.546,208.812 295.700,216.259 295.801 M309.800 299.200 C 310.883 300.300,311.860 301.200,311.970 301.200 C 312.080 301.200,311.283 300.300,310.200 299.200 C 309.117 298.100,308.140 297.200,308.030 297.200 C 307.920 297.200,308.717 298.100,309.800 299.200 M76.893 327.600 C 76.893 328.370,76.975 328.685,77.076 328.300 C 77.176 327.915,77.176 327.285,77.076 326.900 C 76.975 326.515,76.893 326.830,76.893 327.600 M323.328 332.400 C 323.328 333.830,323.401 334.415,323.489 333.700 C 323.578 332.985,323.578 331.815,323.489 331.100 C 323.401 330.385,323.328 330.970,323.328 332.400 M323.293 359.200 C 323.293 359.970,323.375 360.285,323.476 359.900 C 323.576 359.515,323.576 358.885,323.476 358.500 C 323.375 358.115,323.293 358.430,323.293 359.200 " stroke="none" fill="#454545" fill-rule="evenodd"></path><path id="path4" d="M183.609 77.677 C 179.172 79.964,178.474 92.935,182.896 90.920 C 183.962 90.434,192.830 81.082,193.582 79.651 C 194.942 77.061,187.616 75.611,183.609 77.677 M189.336 78.993 C 190.431 80.089,185.933 86.306,183.605 86.915 C 181.817 87.382,180.977 83.866,182.185 80.974 C 183.119 78.738,187.788 77.445,189.336 78.993 M263.239 84.506 C 259.796 86.275,258.561 95.600,261.769 95.600 C 263.089 95.600,269.228 89.880,269.927 88.000 C 270.971 85.186,266.481 82.840,263.239 84.506 M266.405 86.324 C 267.261 87.017,267.272 87.101,266.659 88.285 C 265.783 89.981,263.388 91.454,262.589 90.791 C 261.391 89.796,262.236 87.010,264.008 86.114 C 265.292 85.464,265.350 85.469,266.405 86.324 M117.872 87.167 C 113.603 88.568,111.702 90.317,111.024 93.465 C 110.553 95.653,113.916 127.825,114.996 131.461 C 116.690 137.165,118.356 133.049,118.388 123.084 C 118.412 115.207,120.442 103.606,123.390 94.487 C 125.793 87.052,124.292 85.060,117.872 87.167 M121.520 88.880 C 122.258 89.618,122.096 91.653,121.026 95.079 C 120.490 96.796,119.426 100.720,118.661 103.800 C 116.179 113.798,115.441 114.986,114.352 110.732 C 112.415 103.163,111.859 93.893,113.209 91.678 C 114.633 89.343,120.132 87.492,121.520 88.880 M183.000 298.463 C 167.234 298.716,164.328 298.886,140.000 300.973 C 123.124 302.421,110.493 306.058,105.404 310.935 C 100.763 315.381,104.600 315.962,118.893 312.977 C 120.374 312.667,124.694 312.135,128.493 311.794 C 132.292 311.453,137.830 310.908,140.800 310.583 C 143.770 310.258,148.566 309.994,151.458 309.996 C 154.349 309.998,158.489 309.827,160.658 309.616 C 170.383 308.670,199.357 308.485,224.800 309.207 C 248.749 309.887,255.964 310.190,261.000 310.728 C 263.420 310.987,268.351 311.475,271.959 311.814 C 275.566 312.153,280.336 312.780,282.559 313.206 C 297.054 315.989,299.393 315.490,294.342 310.696 C 284.720 301.564,247.133 297.434,183.000 298.463 M244.800 302.211 C 266.451 303.918,279.752 305.901,282.762 307.870 C 285.066 309.378,282.132 309.301,264.800 307.399 C 261.830 307.073,252.560 306.626,244.200 306.405 C 235.840 306.184,223.780 305.789,217.400 305.527 C 200.211 304.820,148.173 305.990,135.400 307.370 C 118.534 309.192,117.531 309.272,116.839 308.833 C 114.380 307.274,128.911 304.401,146.400 302.989 C 153.110 302.447,160.400 301.802,162.600 301.556 C 167.392 301.019,193.643 300.566,212.800 300.688 C 224.418 300.763,229.478 301.004,244.800 302.211 " stroke="none" fill="#6c6c6c" fill-rule="evenodd"></path><path id="path5" d="M193.111 59.093 C 194.051 59.178,195.491 59.177,196.311 59.091 C 197.130 59.005,196.360 58.936,194.600 58.937 C 192.840 58.939,192.170 59.009,193.111 59.093 M203.900 59.093 C 204.835 59.177,206.365 59.177,207.300 59.093 C 208.235 59.009,207.470 58.940,205.600 58.940 C 203.730 58.940,202.965 59.009,203.900 59.093 M197.700 59.896 C 198.965 59.975,201.035 59.975,202.300 59.896 C 203.565 59.816,202.530 59.751,200.000 59.751 C 197.470 59.751,196.435 59.816,197.700 59.896 M221.300 61.076 C 221.685 61.176,222.315 61.176,222.700 61.076 C 223.085 60.975,222.770 60.893,222.000 60.893 C 221.230 60.893,220.915 60.975,221.300 61.076 M168.422 63.843 C 167.740 64.417,166.994 65.272,166.764 65.743 C 166.424 66.441,166.495 66.415,167.149 65.601 C 167.591 65.052,168.458 64.198,169.076 63.703 C 169.694 63.209,170.079 62.803,169.931 62.802 C 169.783 62.801,169.104 63.269,168.422 63.843 M231.999 64.601 C 232.768 65.480,233.555 66.380,233.748 66.600 C 233.940 66.820,233.911 66.640,233.683 66.200 C 233.455 65.760,232.668 64.860,231.934 64.201 L 230.600 63.002 231.999 64.601 M132.307 66.690 C 133.026 66.779,134.106 66.777,134.707 66.686 C 135.308 66.595,134.720 66.522,133.400 66.524 C 132.080 66.526,131.588 66.601,132.307 66.690 M265.700 66.687 C 266.305 66.778,267.295 66.778,267.900 66.687 C 268.505 66.595,268.010 66.520,266.800 66.520 C 265.590 66.520,265.095 66.595,265.700 66.687 M136.505 67.487 C 137.114 67.579,138.014 67.577,138.505 67.482 C 138.997 67.387,138.500 67.311,137.400 67.314 C 136.300 67.317,135.897 67.395,136.505 67.487 M141.505 67.483 C 142.002 67.579,142.722 67.575,143.105 67.475 C 143.487 67.375,143.080 67.296,142.200 67.301 C 141.320 67.305,141.007 67.387,141.505 67.483 M148.859 68.006 C 149.661 68.430,150.966 69.535,151.759 70.461 C 152.552 71.386,153.200 72.022,153.200 71.873 C 153.200 70.887,148.809 67.157,147.720 67.218 C 147.544 67.227,148.057 67.582,148.859 68.006 M257.105 67.483 C 257.602 67.579,258.322 67.575,258.705 67.475 C 259.087 67.375,258.680 67.296,257.800 67.301 C 256.920 67.305,256.607 67.387,257.105 67.483 M261.705 67.487 C 262.314 67.579,263.214 67.577,263.705 67.482 C 264.197 67.387,263.700 67.311,262.600 67.314 C 261.500 67.317,261.097 67.395,261.705 67.487 M248.441 69.814 C 247.759 70.592,247.200 71.348,247.200 71.494 C 247.200 71.640,247.336 71.589,247.503 71.380 C 247.670 71.171,248.333 70.415,248.978 69.700 C 249.622 68.985,250.045 68.400,249.916 68.400 C 249.788 68.400,249.124 69.036,248.441 69.814 M187.000 70.862 C 177.057 71.973,175.674 73.519,173.991 85.415 C 173.489 88.960,173.132 94.119,173.023 99.415 C 172.704 114.823,172.988 114.474,160.784 114.444 C 150.561 114.420,149.630 113.964,148.995 108.673 C 148.400 103.718,143.710 84.953,142.745 83.672 C 139.574 79.457,138.638 79.131,130.495 79.400 C 122.256 79.672,121.673 79.752,117.532 81.170 C 104.510 85.630,103.827 87.886,106.809 116.600 C 107.244 120.780,107.784 126.846,108.011 130.080 C 108.835 141.846,110.653 146.011,118.600 154.330 C 122.179 158.077,131.124 164.318,132.908 164.313 C 133.078 164.313,134.409 164.538,135.867 164.813 C 138.902 165.385,144.817 165.122,149.084 164.224 C 150.587 163.908,155.232 163.367,159.408 163.021 C 169.132 162.216,173.288 161.760,178.000 160.982 C 182.698 160.206,215.141 160.042,221.000 160.765 C 233.732 162.335,241.559 162.922,257.088 163.474 C 263.855 163.714,265.719 163.312,271.699 160.318 C 284.383 153.969,288.761 144.909,289.939 122.568 C 290.137 118.811,290.500 115.361,290.746 114.901 C 290.992 114.442,291.290 111.936,291.410 109.333 C 291.529 106.730,291.820 102.337,292.056 99.571 C 292.805 90.814,291.816 88.681,285.400 85.213 C 283.640 84.262,282.108 83.343,281.995 83.171 C 281.524 82.455,273.975 79.261,271.200 78.603 C 261.240 76.243,256.606 78.711,254.602 87.445 C 254.507 87.860,254.067 89.550,253.625 91.200 C 253.183 92.850,252.714 95.190,252.583 96.400 C 252.452 97.610,252.272 98.870,252.184 99.200 C 252.095 99.530,251.923 100.970,251.800 102.400 C 251.677 103.830,251.498 105.270,251.401 105.600 C 251.304 105.930,251.132 107.239,251.018 108.508 C 250.529 113.980,249.621 114.436,239.200 114.436 C 227.379 114.436,228.061 115.151,226.577 101.200 C 226.238 98.010,225.695 93.510,225.370 91.200 C 225.046 88.890,224.525 85.074,224.212 82.720 C 223.114 74.441,220.960 72.804,210.120 72.011 C 206.996 71.783,203.936 71.404,203.320 71.169 C 201.850 70.609,191.078 70.406,187.000 70.862 M201.200 73.809 C 202.630 74.156,206.409 74.704,209.598 75.025 C 217.837 75.855,220.400 77.365,220.983 81.729 C 221.106 82.648,222.014 89.954,223.001 97.964 C 225.522 118.421,224.823 117.565,239.000 117.565 C 253.210 117.565,253.811 116.931,254.801 100.890 C 255.785 84.954,259.075 79.266,266.785 80.171 C 272.066 80.790,274.849 82.188,281.985 87.806 C 287.381 92.054,287.759 92.674,287.455 96.759 C 287.330 98.432,287.051 102.817,286.834 106.505 C 286.618 110.193,286.327 113.395,286.188 113.619 C 286.049 113.844,285.765 117.127,285.557 120.914 C 284.923 132.437,282.852 142.391,280.087 147.200 C 276.938 152.676,268.870 157.863,262.400 158.571 C 250.803 159.840,238.955 159.578,224.000 157.723 C 215.202 156.631,184.443 156.754,174.000 157.922 C 169.710 158.402,162.420 159.159,157.800 159.604 C 153.180 160.050,147.780 160.681,145.800 161.006 C 134.760 162.819,128.730 160.419,119.000 150.343 C 112.726 143.845,111.289 140.637,110.427 131.200 C 110.196 128.670,109.729 123.720,109.388 120.200 C 106.285 88.110,106.507 87.185,118.200 83.352 L 122.200 82.040 128.800 82.236 C 140.429 82.581,140.566 82.774,145.038 105.000 C 147.513 117.304,147.907 117.608,161.320 117.590 C 174.896 117.572,176.464 115.885,176.005 101.800 C 175.243 78.462,176.813 74.497,187.400 73.030 C 189.817 72.695,198.672 73.195,201.200 73.809 M102.300 75.226 C 101.035 75.879,100.000 76.503,100.000 76.612 C 100.000 76.791,104.760 74.525,105.167 74.153 C 105.690 73.673,104.298 74.194,102.300 75.226 M302.400 78.125 C 302.400 78.194,302.985 78.779,303.700 79.425 L 305.000 80.600 303.825 79.300 C 302.730 78.088,302.400 77.816,302.400 78.125 M94.955 81.012 C 94.590 81.569,94.364 82.098,94.453 82.187 C 94.542 82.276,94.918 81.820,95.289 81.174 C 96.114 79.736,95.869 79.617,94.955 81.012 M237.293 85.600 C 237.293 86.370,237.375 86.685,237.476 86.300 C 237.576 85.915,237.576 85.285,237.476 84.900 C 237.375 84.515,237.293 84.830,237.293 85.600 M162.493 86.400 C 162.493 87.170,162.575 87.485,162.676 87.100 C 162.776 86.715,162.776 86.085,162.676 85.700 C 162.575 85.315,162.493 85.630,162.493 86.400 M306.542 89.000 C 306.541 90.980,306.608 91.840,306.692 90.912 C 306.776 89.984,306.777 88.364,306.695 87.312 C 306.612 86.260,306.543 87.020,306.542 89.000 M237.709 90.400 C 237.709 91.390,237.787 91.795,237.882 91.300 C 237.978 90.805,237.978 89.995,237.882 89.500 C 237.787 89.005,237.709 89.410,237.709 90.400 M94.493 90.400 C 94.493 91.170,94.575 91.485,94.676 91.100 C 94.776 90.715,94.776 90.085,94.676 89.700 C 94.575 89.315,94.493 89.630,94.493 90.400 M162.109 92.000 C 162.109 92.990,162.187 93.395,162.282 92.900 C 162.378 92.405,162.378 91.595,162.282 91.100 C 162.187 90.605,162.109 91.010,162.109 92.000 M93.709 94.000 C 93.709 94.990,93.787 95.395,93.882 94.900 C 93.978 94.405,93.978 93.595,93.882 93.100 C 93.787 92.605,93.709 93.010,93.709 94.000 M306.101 95.800 C 306.105 96.680,306.187 96.993,306.283 96.495 C 306.379 95.998,306.375 95.278,306.275 94.895 C 306.175 94.513,306.096 94.920,306.101 95.800 M240.361 97.304 C 240.043 98.017,239.544 98.549,239.253 98.488 C 238.963 98.426,238.791 98.574,238.873 98.817 C 239.174 99.721,239.821 99.356,240.544 97.877 C 240.953 97.040,241.210 96.276,241.114 96.181 C 241.019 96.086,240.680 96.591,240.361 97.304 M159.216 96.920 C 159.207 97.096,159.492 97.805,159.850 98.496 C 160.489 99.732,161.600 99.320,161.600 97.847 C 161.600 97.627,161.353 97.785,161.051 98.197 C 160.530 98.911,160.472 98.890,159.867 97.774 C 159.518 97.128,159.225 96.744,159.216 96.920 M95.301 108.600 C 95.305 109.480,95.387 109.793,95.483 109.295 C 95.579 108.798,95.575 108.078,95.475 107.695 C 95.375 107.313,95.296 107.720,95.301 108.600 M304.528 111.200 C 304.528 112.630,304.601 113.215,304.689 112.500 C 304.778 111.785,304.778 110.615,304.689 109.900 C 304.601 109.185,304.528 109.770,304.528 111.200 M95.720 116.800 C 95.720 118.010,95.795 118.505,95.887 117.900 C 95.978 117.295,95.978 116.305,95.887 115.700 C 95.795 115.095,95.720 115.590,95.720 116.800 M304.114 119.000 C 304.117 120.100,304.195 120.503,304.287 119.895 C 304.379 119.286,304.377 118.386,304.282 117.895 C 304.187 117.403,304.111 117.900,304.114 119.000 M96.109 122.800 C 96.109 123.790,96.187 124.195,96.282 123.700 C 96.378 123.205,96.378 122.395,96.282 121.900 C 96.187 121.405,96.109 121.810,96.109 122.800 M303.701 124.600 C 303.705 125.480,303.787 125.793,303.883 125.295 C 303.979 124.798,303.975 124.078,303.875 123.695 C 303.775 123.313,303.696 123.720,303.701 124.600 M96.501 127.800 C 96.505 128.680,96.587 128.993,96.683 128.495 C 96.779 127.998,96.775 127.278,96.675 126.895 C 96.575 126.513,96.496 126.920,96.501 127.800 M303.293 129.200 C 303.293 129.970,303.375 130.285,303.476 129.900 C 303.576 129.515,303.576 128.885,303.476 128.500 C 303.375 128.115,303.293 128.430,303.293 129.200 M289.387 164.500 L 287.000 167.000 289.500 164.613 C 290.875 163.299,292.000 162.174,292.000 162.113 C 292.000 161.817,291.605 162.178,289.387 164.500 M109.200 163.325 C 109.200 163.394,109.785 163.979,110.500 164.625 L 111.800 165.800 110.625 164.500 C 109.530 163.288,109.200 163.016,109.200 163.325 M197.866 163.858 C 197.683 164.046,191.473 164.201,184.066 164.201 C 153.387 164.204,140.200 166.464,136.853 172.290 C 135.324 174.953,134.217 181.377,133.389 192.400 C 133.248 194.270,132.708 198.500,132.189 201.800 C 131.669 205.100,131.134 209.420,131.000 211.400 C 130.865 213.380,130.416 217.610,130.002 220.800 C 128.899 229.295,128.445 233.250,127.985 238.400 C 127.759 240.930,127.232 244.980,126.814 247.400 C 126.397 249.820,125.852 254.140,125.603 257.000 C 125.354 259.860,124.720 264.990,124.194 268.400 C 121.393 286.566,121.891 290.741,127.176 293.406 C 128.488 294.067,128.516 294.126,127.783 294.662 C 126.818 295.367,121.533 297.052,119.185 297.402 C 118.213 297.547,117.308 297.733,117.175 297.816 C 117.042 297.898,116.406 298.058,115.763 298.171 C 110.116 299.166,100.331 305.065,96.299 309.906 C 89.479 318.093,85.757 349.426,91.056 354.049 C 93.731 356.383,84.487 356.200,200.000 356.200 L 305.000 356.200 306.856 355.318 C 310.905 353.396,311.820 350.613,311.470 341.282 C 311.025 329.387,308.667 317.473,305.783 312.538 C 302.462 306.858,291.387 299.422,284.434 298.204 C 283.682 298.073,282.958 297.898,282.825 297.816 C 282.692 297.733,281.834 297.554,280.918 297.418 C 280.003 297.281,277.756 296.729,275.927 296.192 C 274.097 295.654,271.070 295.013,269.200 294.768 C 264.575 294.161,260.060 293.221,259.807 292.812 C 259.454 292.240,263.508 291.898,267.347 292.176 C 276.514 292.838,278.057 288.238,274.786 270.000 C 273.952 265.349,272.815 253.537,272.843 249.800 C 272.852 248.480,272.671 246.905,272.440 246.300 C 272.209 245.695,272.127 245.200,272.259 245.200 C 272.390 245.200,272.302 244.963,272.062 244.674 C 271.821 244.385,271.434 242.000,271.201 239.374 C 270.968 236.748,270.693 234.150,270.591 233.600 C 270.488 233.050,270.312 230.920,270.199 228.868 C 270.086 226.815,269.798 224.770,269.559 224.323 C 269.057 223.385,267.772 211.535,267.448 204.857 C 267.327 202.359,267.035 200.083,266.800 199.800 C 266.386 199.302,264.847 185.697,264.869 182.737 C 264.881 181.090,264.453 178.802,264.020 178.200 C 263.862 177.980,263.519 176.807,263.258 175.593 C 262.379 171.499,260.400 169.467,256.813 168.974 C 255.816 168.837,253.830 168.459,252.400 168.135 C 248.634 167.281,240.413 166.396,232.600 166.004 C 228.860 165.816,225.170 165.449,224.400 165.188 C 223.616 164.923,218.773 164.563,213.400 164.371 C 208.120 164.183,202.540 163.913,201.000 163.772 C 199.460 163.631,198.050 163.670,197.866 163.858 M187.244 168.234 C 190.743 168.595,194.781 168.772,196.600 168.645 C 198.423 168.518,201.866 168.670,204.600 168.999 C 207.240 169.316,212.100 169.589,215.400 169.605 C 218.700 169.621,222.210 169.798,223.200 169.997 C 224.190 170.197,227.430 170.467,230.400 170.597 C 235.714 170.831,238.916 171.185,250.389 172.806 C 258.227 173.914,258.683 174.292,259.538 180.400 C 260.431 186.781,261.795 197.916,262.403 203.800 C 263.460 214.013,265.303 229.381,267.248 244.200 C 267.479 245.960,267.815 249.380,267.994 251.800 C 268.173 254.220,268.605 258.450,268.954 261.200 C 270.045 269.780,270.861 276.059,271.385 279.898 C 272.390 287.254,271.136 287.898,258.761 286.372 C 255.690 285.993,254.918 286.043,251.561 286.832 C 247.485 287.791,245.461 287.789,224.000 286.800 C 201.021 285.741,166.163 286.660,140.000 289.014 C 124.055 290.449,124.189 290.650,127.205 269.800 C 127.619 266.940,128.155 262.620,128.396 260.200 C 128.637 257.780,129.192 253.370,129.629 250.400 C 130.066 247.430,130.683 242.570,131.000 239.600 C 131.317 236.630,131.943 231.140,132.392 227.400 C 132.841 223.660,133.574 217.180,134.021 213.000 C 134.469 208.820,135.083 203.780,135.386 201.800 C 135.689 199.820,136.053 196.940,136.196 195.400 C 137.776 178.307,138.837 173.584,141.462 171.962 C 143.310 170.819,151.565 169.423,161.200 168.622 C 165.270 168.283,169.320 167.945,170.200 167.871 C 174.467 167.508,181.687 167.662,187.244 168.234 M122.501 176.200 C 122.505 177.080,122.587 177.393,122.683 176.895 C 122.779 176.398,122.775 175.678,122.675 175.295 C 122.575 174.913,122.496 175.320,122.501 176.200 M277.701 180.600 C 277.705 181.480,277.787 181.793,277.883 181.295 C 277.979 180.798,277.975 180.078,277.875 179.695 C 277.775 179.313,277.696 179.720,277.701 180.600 M122.093 181.600 C 122.093 182.370,122.175 182.685,122.276 182.300 C 122.376 181.915,122.376 181.285,122.276 180.900 C 122.175 180.515,122.093 180.830,122.093 181.600 M280.093 198.400 C 280.093 199.170,280.175 199.485,280.276 199.100 C 280.376 198.715,280.376 198.085,280.276 197.700 C 280.175 197.315,280.093 197.630,280.093 198.400 M119.693 200.000 C 119.693 200.770,119.775 201.085,119.876 200.700 C 119.976 200.315,119.976 199.685,119.876 199.300 C 119.775 198.915,119.693 199.230,119.693 200.000 M280.493 203.200 C 280.493 203.970,280.575 204.285,280.676 203.900 C 280.776 203.515,280.776 202.885,280.676 202.500 C 280.575 202.115,280.493 202.430,280.493 203.200 M117.309 219.600 C 117.309 220.590,117.387 220.995,117.482 220.500 C 117.578 220.005,117.578 219.195,117.482 218.700 C 117.387 218.205,117.309 218.610,117.309 219.600 M282.920 223.200 C 282.920 224.410,282.995 224.905,283.087 224.300 C 283.178 223.695,283.178 222.705,283.087 222.100 C 282.995 221.495,282.920 221.990,282.920 223.200 M116.901 225.800 C 116.905 226.680,116.987 226.993,117.083 226.495 C 117.179 225.998,117.175 225.278,117.075 224.895 C 116.975 224.513,116.896 224.920,116.901 225.800 M114.893 238.800 C 114.893 239.570,114.975 239.885,115.076 239.500 C 115.176 239.115,115.176 238.485,115.076 238.100 C 114.975 237.715,114.893 238.030,114.893 238.800 M285.301 242.200 C 285.305 243.080,285.387 243.393,285.483 242.895 C 285.579 242.398,285.575 241.678,285.475 241.295 C 285.375 240.913,285.296 241.320,285.301 242.200 M114.501 243.400 C 114.505 244.280,114.587 244.593,114.683 244.095 C 114.779 243.598,114.775 242.878,114.675 242.495 C 114.575 242.113,114.496 242.520,114.501 243.400 M285.693 247.200 C 285.693 247.970,285.775 248.285,285.876 247.900 C 285.976 247.515,285.976 246.885,285.876 246.500 C 285.775 246.115,285.693 246.430,285.693 247.200 M114.093 248.400 C 114.093 249.170,114.175 249.485,114.276 249.100 C 114.376 248.715,114.376 248.085,114.276 247.700 C 114.175 247.315,114.093 247.630,114.093 248.400 M288.093 265.200 C 288.093 265.970,288.175 266.285,288.276 265.900 C 288.376 265.515,288.376 264.885,288.276 264.500 C 288.175 264.115,288.093 264.430,288.093 265.200 M111.709 266.800 C 111.709 267.790,111.787 268.195,111.882 267.700 C 111.978 267.205,111.978 266.395,111.882 265.900 C 111.787 265.405,111.709 265.810,111.709 266.800 M288.514 270.600 C 288.517 271.700,288.595 272.103,288.687 271.495 C 288.779 270.886,288.777 269.986,288.682 269.495 C 288.587 269.003,288.511 269.500,288.514 270.600 M111.293 272.800 C 111.293 273.570,111.375 273.885,111.476 273.500 C 111.576 273.115,111.576 272.485,111.476 272.100 C 111.375 271.715,111.293 272.030,111.293 272.800 M107.878 288.213 C 107.260 288.756,106.914 289.200,107.108 289.200 C 107.302 289.200,107.883 288.750,108.400 288.200 C 109.595 286.928,109.331 286.934,107.878 288.213 M210.500 290.682 C 210.005 290.778,209.195 290.778,208.700 290.682 C 208.205 290.587,208.610 290.509,209.600 290.509 C 210.590 290.509,210.995 290.587,210.500 290.682 M256.300 291.677 C 259.223 292.412,258.303 292.928,254.460 292.709 C 250.635 292.491,248.564 291.846,250.406 291.447 C 253.029 290.878,253.139 290.882,256.300 291.677 M100.300 291.829 C 98.749 292.670,98.925 292.961,100.500 292.159 C 102.008 291.393,102.275 291.194,101.767 291.216 C 101.565 291.225,100.905 291.501,100.300 291.829 M215.000 294.213 C 238.743 294.532,252.052 295.370,269.400 297.637 C 286.278 299.843,299.157 305.862,303.292 313.476 C 307.139 320.563,309.812 346.008,307.166 350.359 C 305.566 352.990,313.907 352.801,200.113 352.791 C 83.427 352.781,94.185 353.083,92.616 349.777 C 90.576 345.478,93.275 321.390,96.620 314.053 C 100.167 306.272,113.319 299.919,130.600 297.639 C 146.278 295.571,156.763 294.861,178.600 294.387 C 188.940 294.163,197.670 293.904,198.000 293.813 C 198.330 293.721,199.680 293.739,201.000 293.852 C 202.320 293.964,208.620 294.127,215.000 294.213 M95.093 295.014 C 94.272 295.572,93.600 296.115,93.600 296.220 C 93.600 296.325,94.320 295.935,95.200 295.353 C 96.597 294.428,97.070 294.000,96.693 294.000 C 96.634 294.000,95.914 294.456,95.093 295.014 M307.600 297.400 C 308.346 298.170,309.047 298.800,309.157 298.800 C 309.267 298.800,308.746 298.170,308.000 297.400 C 307.254 296.630,306.553 296.000,306.443 296.000 C 306.333 296.000,306.854 296.630,307.600 297.400 M89.988 299.500 L 87.400 302.200 90.100 299.612 C 92.608 297.207,92.983 296.800,92.688 296.800 C 92.627 296.800,91.412 298.015,89.988 299.500 M311.600 301.400 C 312.346 302.170,313.047 302.800,313.157 302.800 C 313.267 302.800,312.746 302.170,312.000 301.400 C 311.254 300.630,310.553 300.000,310.443 300.000 C 310.333 300.000,310.854 300.630,311.600 301.400 M317.400 309.600 C 317.741 310.260,318.111 310.800,318.221 310.800 C 318.331 310.800,318.141 310.260,317.800 309.600 C 317.459 308.940,317.089 308.400,316.979 308.400 C 316.869 308.400,317.059 308.940,317.400 309.600 M322.901 328.200 C 322.905 329.080,322.987 329.393,323.083 328.895 C 323.179 328.398,323.175 327.678,323.075 327.295 C 322.975 326.913,322.896 327.320,322.901 328.200 M76.924 331.000 C 76.926 332.320,77.001 332.812,77.090 332.093 C 77.179 331.374,77.177 330.294,77.086 329.693 C 76.995 329.092,76.922 329.680,76.924 331.000 M323.377 346.400 C 323.377 352.890,323.432 355.545,323.499 352.300 C 323.566 349.055,323.566 343.745,323.499 340.500 C 323.432 337.255,323.377 339.910,323.377 346.400 M321.400 364.531 C 320.960 365.213,319.988 366.182,319.241 366.685 C 318.493 367.188,318.082 367.600,318.327 367.600 C 318.916 367.600,321.519 365.299,322.048 364.311 C 322.731 363.035,322.263 363.193,321.400 364.531 M143.268 368.700 C 174.435 368.757,225.555 368.757,256.868 368.700 C 288.180 368.643,262.680 368.597,200.200 368.597 C 137.720 368.597,112.100 368.643,143.268 368.700 " stroke="none" fill="#3c3434" fill-rule="evenodd"></path><path id="path6" d="M184.489 76.188 C 180.046 77.575,179.044 79.555,179.018 87.000 C 178.981 97.528,181.101 98.128,188.386 89.652 C 190.846 86.789,193.017 84.392,193.210 84.324 C 194.436 83.893,197.600 80.216,197.600 79.223 C 197.600 76.233,189.987 74.471,184.489 76.188 M193.229 77.851 C 194.397 79.020,194.073 79.542,188.455 85.548 C 183.119 91.253,182.373 91.750,181.083 90.461 C 179.817 89.194,179.767 82.149,181.009 80.000 C 182.811 76.883,190.849 75.469,193.229 77.851 M262.808 83.501 C 258.420 85.705,256.769 98.385,260.676 99.884 C 262.514 100.590,272.800 90.337,272.800 87.798 C 272.800 84.186,266.681 81.555,262.808 83.501 M268.219 84.582 C 270.984 85.737,270.755 87.761,267.478 91.146 C 262.257 96.538,259.988 96.880,260.010 92.271 C 260.040 85.651,263.352 82.549,268.219 84.582 M118.400 85.954 C 109.779 88.741,109.280 90.088,110.815 106.400 C 111.261 111.130,111.890 117.880,112.213 121.400 C 113.469 135.064,114.649 139.634,117.384 141.426 C 120.283 143.326,120.682 141.691,121.146 126.000 C 121.568 111.722,122.612 105.045,125.989 95.019 C 128.952 86.223,126.527 83.327,118.400 85.954 M124.031 87.428 C 125.104 88.399,125.005 89.491,123.390 94.487 C 120.442 103.606,118.412 115.207,118.388 123.084 C 118.356 133.049,116.690 137.165,114.996 131.461 C 113.916 127.825,110.553 95.653,111.024 93.465 C 112.089 88.519,120.779 84.485,124.031 87.428 M179.800 297.225 C 143.702 297.903,119.683 301.162,108.708 306.872 C 98.180 312.350,96.840 320.699,106.845 318.485 C 114.207 316.856,124.690 315.215,130.400 314.797 C 133.590 314.564,138.990 314.108,142.400 313.784 C 145.810 313.460,150.760 313.192,153.400 313.189 C 156.040 313.186,159.370 313.019,160.800 312.816 C 163.766 312.396,194.746 311.744,203.830 311.910 C 228.951 312.369,253.802 313.273,259.800 313.944 C 262.000 314.191,266.410 314.577,269.600 314.803 C 275.090 315.192,281.736 316.203,291.200 318.088 C 298.958 319.633,300.000 319.445,300.000 316.498 C 300.000 310.813,290.826 304.917,277.800 302.232 C 268.861 300.389,262.966 299.689,244.000 298.221 C 230.169 297.151,204.751 296.756,179.800 297.225 M231.000 298.798 C 268.495 300.609,287.469 304.173,294.342 310.696 C 299.393 315.490,297.054 315.989,282.559 313.206 C 280.336 312.780,275.566 312.153,271.959 311.814 C 268.351 311.475,263.420 310.987,261.000 310.728 C 255.964 310.190,248.749 309.887,224.800 309.207 C 199.357 308.485,170.383 308.670,160.658 309.616 C 158.489 309.827,154.349 309.998,151.458 309.996 C 148.566 309.994,143.770 310.258,140.800 310.583 C 137.830 310.908,132.292 311.453,128.493 311.794 C 124.694 312.135,120.374 312.667,118.893 312.977 C 104.600 315.962,100.763 315.381,105.404 310.935 C 110.493 306.058,123.124 302.421,140.000 300.973 C 164.328 298.886,167.234 298.716,183.000 298.463 C 203.039 298.142,219.846 298.259,231.000 298.798 " stroke="none" fill="#645c5c" fill-rule="evenodd"></path></g></svg>