<svg id="svg" version="1.1" xmlns="http://www.w3.org/2000/svg" xmlns:xlink="http://www.w3.org/1999/xlink" width="400" height="400" viewBox="0, 0, 400,400"><g id="svgg"><path id="path0" d="M191.800 28.413 C 190.260 28.810,188.170 29.149,187.155 29.167 C 175.466 29.374,159.326 43.904,157.392 55.960 C 157.236 56.928,156.655 58.998,156.099 60.560 C 154.725 64.421,154.653 70.679,155.945 74.000 C 156.415 75.210,156.985 77.280,157.211 78.600 C 157.437 79.920,157.902 81.765,158.244 82.700 C 159.074 84.967,159.873 83.929,148.372 95.508 C 131.325 112.671,119.243 128.387,111.093 144.000 C 109.657 146.750,108.201 149.540,107.857 150.200 C 107.513 150.860,106.490 153.110,105.584 155.200 C 104.679 157.290,103.430 160.170,102.810 161.600 C 102.189 163.030,101.561 164.896,101.414 165.747 C 101.267 166.598,100.697 168.276,100.148 169.475 C 99.600 170.675,98.898 172.949,98.589 174.528 C 98.280 176.108,97.644 178.390,97.176 179.600 C 96.591 181.112,96.202 183.426,95.934 187.000 C 95.719 189.860,95.151 193.730,94.672 195.600 C 93.525 200.071,93.454 213.058,94.547 218.200 C 94.921 219.960,95.477 224.287,95.782 227.816 C 96.184 232.471,96.604 234.998,97.312 237.024 C 97.848 238.560,98.419 241.073,98.580 242.608 C 98.746 244.190,99.359 246.527,99.994 248.000 C 100.610 249.430,101.313 251.549,101.555 252.709 C 101.797 253.868,102.423 255.668,102.946 256.709 C 103.469 257.749,104.032 259.050,104.199 259.600 C 105.079 262.514,110.998 273.721,114.261 278.651 C 118.699 285.358,118.642 285.050,115.500 285.400 C 114.125 285.554,111.740 286.175,110.200 286.782 C 108.660 287.388,106.733 288.007,105.919 288.157 C 103.089 288.677,93.434 293.694,89.600 296.635 C 83.299 301.469,78.614 309.085,75.350 319.800 C 74.963 321.073,74.610 324.782,74.381 330.000 C 74.182 334.510,73.837 339.010,73.614 340.000 C 72.774 343.720,72.603 358.512,73.367 361.334 C 74.125 364.133,75.741 366.417,77.736 367.508 C 78.926 368.159,85.926 368.200,197.200 368.200 L 315.400 368.200 317.045 367.320 C 320.272 365.593,320.202 366.125,320.183 343.400 C 320.168 325.952,320.082 323.145,319.508 321.400 C 319.146 320.300,318.466 318.230,317.996 316.800 C 314.198 305.239,304.619 294.182,295.664 291.023 C 294.816 290.723,293.409 290.115,292.537 289.670 C 291.665 289.225,289.793 288.570,288.376 288.214 C 286.959 287.858,284.970 287.220,283.956 286.797 C 282.942 286.373,280.827 285.814,279.256 285.554 C 275.712 284.969,275.662 285.354,280.149 278.605 C 283.493 273.576,290.399 260.432,290.400 259.097 C 290.400 258.824,290.955 257.430,291.632 256.000 C 292.309 254.570,293.046 252.410,293.269 251.200 C 293.493 249.990,294.106 247.977,294.632 246.726 C 295.158 245.475,295.846 242.859,296.161 240.913 C 296.475 238.966,297.106 236.265,297.563 234.911 C 298.479 232.190,299.191 225.489,299.197 219.535 C 299.198 217.410,299.470 214.260,299.800 212.535 C 300.563 208.546,300.568 205.610,299.819 200.600 C 299.490 198.400,299.058 193.630,298.858 190.000 C 298.554 184.469,298.331 182.970,297.482 180.743 C 296.924 179.282,296.343 177.032,296.189 175.743 C 296.035 174.454,295.405 172.230,294.788 170.800 C 294.171 169.370,293.543 167.480,293.393 166.600 C 292.768 162.956,285.475 147.582,280.775 140.000 C 269.540 121.877,244.434 92.869,238.577 91.242 C 233.592 89.858,229.202 91.653,227.063 95.948 C 226.556 96.967,224.723 100.230,222.990 103.200 C 221.256 106.170,219.328 109.849,218.705 111.376 C 218.082 112.903,217.417 114.343,217.227 114.576 C 217.037 114.809,216.611 115.917,216.281 117.037 C 215.951 118.157,215.313 119.795,214.863 120.676 C 214.413 121.558,213.767 123.480,213.427 124.948 C 213.086 126.416,212.435 128.347,211.980 129.240 C 211.524 130.133,210.897 132.312,210.586 134.082 C 210.274 135.853,209.661 138.258,209.224 139.428 C 208.786 140.598,208.234 143.140,207.997 145.077 C 207.759 147.015,207.120 149.900,206.575 151.489 C 205.808 153.729,205.500 155.749,205.206 160.489 C 204.967 164.359,204.538 167.592,204.037 169.306 C 203.012 172.819,202.766 175.507,202.456 186.621 L 202.200 195.800 198.522 195.915 C 194.692 196.034,193.506 195.464,194.142 193.807 C 194.254 193.515,194.544 188.174,194.786 181.938 C 195.150 172.580,195.365 170.174,196.017 168.163 C 196.912 165.400,197.565 160.945,197.596 157.400 C 197.609 155.914,197.994 153.933,198.607 152.200 C 199.152 150.660,199.788 147.870,200.020 146.000 C 200.522 141.950,200.717 141.101,201.631 139.000 C 202.014 138.120,202.527 136.080,202.772 134.467 C 203.017 132.854,203.557 130.869,203.971 130.057 C 204.385 129.245,204.947 127.415,205.220 125.990 C 205.493 124.566,205.986 122.865,206.315 122.210 C 206.644 121.556,207.407 119.576,208.011 117.810 C 210.500 110.526,211.741 107.620,215.531 100.200 C 216.543 98.220,217.801 95.700,218.328 94.600 C 220.039 91.026,226.704 81.494,230.211 77.604 C 234.591 72.746,234.964 71.638,234.707 64.244 C 234.149 48.170,219.708 31.284,204.775 29.242 C 203.111 29.015,200.689 28.552,199.391 28.214 C 196.500 27.462,195.380 27.491,191.800 28.413 M223.800 41.200 C 224.659 42.080,225.272 42.800,225.162 42.800 C 225.052 42.800,224.259 42.080,223.400 41.200 C 222.541 40.320,221.928 39.600,222.038 39.600 C 222.148 39.600,222.941 40.320,223.800 41.200 M201.786 42.464 C 211.431 45.274,220.153 55.171,220.176 63.330 C 220.185 66.710,219.730 67.726,216.381 71.800 C 204.002 86.860,191.332 116.898,185.759 144.400 C 184.541 150.410,182.826 160.385,182.595 162.800 C 182.459 164.230,182.000 168.010,181.575 171.200 C 180.543 178.945,180.078 185.595,179.751 197.283 L 179.479 207.015 180.504 208.207 L 181.530 209.400 196.758 209.514 C 216.606 209.662,214.977 210.601,215.351 198.800 C 215.617 190.439,217.409 169.152,218.228 164.621 C 218.549 162.849,219.078 159.600,219.405 157.400 C 219.731 155.200,220.556 150.880,221.237 147.800 C 222.440 142.363,222.771 141.091,225.205 132.575 C 225.838 130.361,227.606 125.557,229.135 121.899 C 234.868 108.182,236.715 107.542,245.259 116.313 C 257.007 128.371,267.924 144.079,275.367 159.631 C 294.071 198.709,287.947 249.372,260.696 281.015 C 253.623 289.227,252.326 289.833,242.613 289.452 C 217.386 288.463,213.158 288.407,192.200 288.786 C 180.100 289.005,164.530 289.391,157.600 289.644 C 141.273 290.239,141.020 290.166,134.728 283.045 C 115.237 260.989,105.179 228.423,108.004 196.516 C 110.972 162.985,134.903 123.941,171.897 92.268 C 177.336 87.612,177.362 87.481,173.841 82.539 C 159.921 62.998,178.891 35.793,201.786 42.464 M236.305 91.875 C 235.922 91.975,235.202 91.979,234.705 91.883 C 234.207 91.787,234.520 91.705,235.400 91.701 C 236.280 91.696,236.687 91.775,236.305 91.875 M150.800 94.519 C 150.800 94.584,150.035 95.349,149.100 96.219 L 147.400 97.800 148.981 96.100 C 150.452 94.519,150.800 94.216,150.800 94.519 M256.600 109.600 C 257.459 110.480,258.072 111.200,257.962 111.200 C 257.852 111.200,257.059 110.480,256.200 109.600 C 255.341 108.720,254.728 108.000,254.838 108.000 C 254.948 108.000,255.741 108.720,256.600 109.600 M194.287 176.695 C 194.195 177.303,194.117 176.900,194.114 175.800 C 194.111 174.700,194.187 174.203,194.282 174.695 C 194.377 175.186,194.379 176.086,194.287 176.695 M203.882 178.500 C 203.787 178.995,203.709 178.590,203.709 177.600 C 203.709 176.610,203.787 176.205,203.882 176.700 C 203.978 177.195,203.978 178.005,203.882 178.500 M193.887 184.295 C 193.795 184.903,193.717 184.500,193.714 183.400 C 193.711 182.300,193.787 181.803,193.882 182.295 C 193.977 182.786,193.979 183.686,193.887 184.295 M203.487 186.295 C 203.395 186.903,203.317 186.500,203.314 185.400 C 203.311 184.300,203.387 183.803,203.482 184.295 C 203.577 184.786,203.579 185.686,203.487 186.295 M193.476 190.300 C 193.375 190.685,193.293 190.370,193.293 189.600 C 193.293 188.830,193.375 188.515,193.476 188.900 C 193.576 189.285,193.576 189.915,193.476 190.300 M298.276 192.300 C 298.175 192.685,298.093 192.370,298.093 191.600 C 298.093 190.830,298.175 190.515,298.276 190.900 C 298.376 191.285,298.376 191.915,298.276 192.300 M298.287 224.695 C 298.195 225.303,298.117 224.900,298.114 223.800 C 298.111 222.700,298.187 222.203,298.282 222.695 C 298.377 223.186,298.379 224.086,298.287 224.695 M96.683 227.695 C 96.587 228.193,96.505 227.880,96.501 227.000 C 96.496 226.120,96.575 225.713,96.675 226.095 C 96.775 226.478,96.779 227.198,96.683 227.695 M223.600 294.023 C 232.343 294.285,239.260 294.684,241.600 295.061 C 243.690 295.398,248.370 295.821,252.000 296.001 C 288.594 297.813,303.051 306.324,306.355 328.000 C 308.700 343.382,308.180 352.427,304.831 354.510 L 303.400 355.400 198.600 355.522 C 123.923 355.608,93.214 355.518,91.760 355.206 C 87.489 354.292,86.800 352.591,86.800 342.958 C 86.800 309.452,98.979 298.548,138.800 296.402 C 143.090 296.170,149.120 295.620,152.200 295.179 C 162.211 293.745,196.077 293.196,223.600 294.023 M307.200 300.200 C 307.946 300.970,308.467 301.600,308.357 301.600 C 308.247 301.600,307.546 300.970,306.800 300.200 C 306.054 299.430,305.533 298.800,305.643 298.800 C 305.753 298.800,306.454 299.430,307.200 300.200 M319.476 329.100 C 319.375 329.485,319.293 329.170,319.293 328.400 C 319.293 327.630,319.375 327.315,319.476 327.700 C 319.576 328.085,319.576 328.715,319.476 329.100 M75.092 335.712 C 75.008 336.640,74.941 335.780,74.942 333.800 C 74.943 331.820,75.012 331.060,75.095 332.112 C 75.177 333.164,75.176 334.784,75.092 335.712 M319.899 353.900 C 319.831 356.925,319.775 354.450,319.775 348.400 C 319.775 342.350,319.831 339.875,319.899 342.900 C 319.967 345.925,319.967 350.875,319.899 353.900 " stroke="none" fill="#464646" fill-rule="evenodd"></path><path id="path1" d="M191.600 43.476 C 173.048 46.576,164.793 67.755,176.274 82.795 C 179.932 87.588,179.827 87.861,171.683 94.805 C 143.538 118.806,122.701 148.427,113.862 177.000 C 103.542 210.363,111.818 252.866,133.740 279.085 C 141.793 288.718,141.813 288.725,158.200 287.843 C 179.722 286.684,221.827 286.187,234.200 286.945 C 251.411 288.000,251.223 288.039,256.610 282.312 C 274.429 263.371,284.018 236.775,283.995 206.364 C 283.972 177.075,270.240 146.033,245.276 118.838 C 237.961 110.869,236.193 110.824,232.618 118.517 C 223.514 138.106,218.656 163.764,217.229 199.800 C 216.736 212.259,218.135 211.358,199.000 211.526 C 174.326 211.743,176.284 214.628,178.413 181.200 C 181.032 140.083,195.866 94.097,213.732 71.709 C 218.992 65.118,219.281 63.356,216.122 57.175 C 211.077 47.305,201.317 41.852,191.600 43.476 M200.362 44.812 C 206.768 46.347,211.401 50.273,214.975 57.194 C 218.085 63.215,217.935 64.899,213.847 69.873 C 209.226 75.494,199.920 91.911,195.319 102.558 C 186.538 122.875,179.060 155.200,177.587 179.198 C 177.364 182.829,177.006 188.031,176.791 190.758 C 176.274 197.315,176.293 206.864,176.825 208.274 C 178.319 212.226,179.666 212.476,198.670 212.322 C 218.931 212.159,217.534 213.064,218.037 199.771 C 219.420 163.198,225.287 133.247,234.317 116.657 C 237.076 111.587,239.195 112.735,249.727 125.000 C 270.933 149.696,282.800 179.007,282.800 206.686 C 282.800 218.617,281.840 227.192,279.418 236.883 C 274.858 255.130,267.214 269.650,256.022 281.320 C 250.449 287.132,250.494 287.119,238.567 286.209 C 223.853 285.086,192.417 285.413,159.400 287.033 C 142.108 287.881,142.590 288.005,136.535 281.182 C 120.342 262.935,111.335 238.711,110.154 210.230 C 108.590 172.490,131.325 130.568,172.728 94.850 C 180.458 88.182,180.821 87.286,177.481 83.139 C 162.947 65.100,178.227 39.505,200.362 44.812 M169.600 295.658 C 162.657 295.885,157.740 296.258,154.200 296.825 C 151.340 297.284,145.400 297.815,141.000 298.004 C 109.476 299.364,94.902 306.798,90.614 323.705 C 88.653 331.438,87.827 348.389,89.282 351.046 C 90.803 353.823,81.373 353.600,197.200 353.600 C 312.274 353.600,303.679 353.788,304.964 351.246 C 306.454 348.299,305.565 330.133,303.564 322.656 C 299.327 306.824,282.286 298.635,251.800 297.784 C 248.500 297.692,243.460 297.258,240.600 296.821 C 231.290 295.396,195.507 294.810,169.600 295.658 M223.371 296.422 C 232.338 296.699,237.970 297.047,239.971 297.449 C 241.637 297.784,246.690 298.218,251.200 298.413 C 288.541 300.033,301.755 308.362,304.191 331.816 C 305.652 345.889,305.211 350.830,302.361 352.294 C 300.725 353.135,93.574 353.015,91.797 352.172 C 87.501 350.133,88.928 326.635,93.934 317.000 C 99.866 305.581,114.218 299.914,140.000 298.812 C 145.615 298.572,150.777 298.117,153.724 297.602 C 162.025 296.151,195.981 295.575,223.371 296.422 " stroke="none" fill="#a4a4a4" fill-rule="evenodd"></path><path id="path2" d="M190.400 45.824 C 173.654 49.434,167.342 68.974,178.542 82.533 C 182.535 87.366,182.199 88.217,173.265 95.896 C 144.638 120.504,124.529 148.952,115.652 177.400 C 104.919 211.794,114.659 256.254,138.427 281.363 C 143.659 286.889,143.505 286.856,159.221 285.792 C 164.159 285.457,176.750 285.018,187.200 284.816 C 203.166 284.507,207.158 284.311,212.200 283.586 C 219.065 282.599,230.629 282.681,239.200 283.777 C 248.661 284.987,249.040 284.884,254.025 279.736 C 273.929 259.185,283.274 227.244,279.575 192.400 C 278.970 186.703,274.678 171.604,271.503 164.000 C 270.630 161.910,269.574 159.340,269.156 158.290 C 264.162 145.744,256.141 133.587,244.483 120.896 C 237.455 113.246,236.995 113.278,233.345 121.679 C 225.574 139.567,220.808 164.175,219.608 192.600 C 219.376 198.100,219.119 204.079,219.038 205.886 C 218.702 213.361,218.675 213.371,198.305 213.517 C 178.648 213.658,177.792 213.496,175.615 209.229 C 174.016 206.096,173.472 195.046,174.565 187.896 C 174.875 185.863,175.243 181.320,175.382 177.800 C 175.628 171.593,176.314 165.356,177.172 161.527 C 177.401 160.501,177.774 157.893,177.999 155.731 C 178.536 150.578,180.187 142.915,183.586 129.800 C 187.193 115.878,195.480 96.516,204.507 80.916 C 206.136 78.102,208.114 74.630,208.904 73.200 C 209.693 71.770,211.343 69.280,212.570 67.666 C 215.254 64.134,215.306 63.577,213.383 58.931 C 208.830 47.932,201.092 43.519,190.400 45.824 M202.000 48.196 C 213.178 51.679,210.418 65.406,191.546 100.200 C 185.100 112.084,184.336 113.537,179.544 123.000 C 171.905 138.085,169.015 145.131,166.336 155.200 C 161.651 172.808,168.646 209.430,177.585 214.100 L 179.691 215.200 197.148 215.200 C 215.229 215.200,216.610 215.090,218.302 213.510 C 220.465 211.490,220.493 211.299,221.248 193.800 C 221.743 182.339,222.193 175.954,222.744 172.600 C 223.178 169.960,223.742 165.820,223.996 163.400 C 224.251 160.980,224.789 157.560,225.193 155.800 C 225.596 154.040,226.221 151.009,226.582 149.066 C 229.051 135.774,235.824 117.609,238.316 117.597 C 239.535 117.591,250.210 129.429,255.092 136.200 C 259.917 142.893,265.158 154.358,266.246 160.600 C 266.553 162.360,267.173 165.637,267.623 167.882 C 270.060 180.020,270.135 198.606,267.785 208.200 C 264.564 221.353,262.951 226.109,259.101 233.800 C 250.292 251.399,235.667 266.872,217.600 277.708 C 209.294 282.690,209.624 282.637,183.600 283.202 C 172.930 283.434,161.050 283.885,157.200 284.204 C 144.574 285.249,144.495 285.235,140.516 281.136 C 131.076 271.408,122.960 257.475,118.885 243.997 C 115.040 231.282,114.747 229.944,113.606 219.901 C 110.311 190.888,117.237 166.618,137.035 137.800 C 146.678 123.764,160.360 108.814,174.823 96.511 C 184.228 88.510,184.677 87.132,179.764 81.340 C 165.806 64.886,181.325 41.754,202.000 48.196 M164.600 297.658 C 161.080 297.845,156.760 298.275,155.000 298.613 C 153.240 298.952,148.380 299.403,144.200 299.616 C 101.280 301.803,91.056 309.996,90.672 342.507 C 90.593 349.213,90.919 350.409,93.047 351.218 C 94.415 351.738,299.985 351.738,301.353 351.218 C 303.891 350.253,304.143 347.945,303.188 334.400 C 301.439 309.601,288.867 301.087,251.800 299.601 C 246.960 299.407,241.560 298.973,239.800 298.638 C 232.789 297.301,183.426 296.658,164.600 297.658 M232.284 299.173 C 234.969 299.387,238.659 299.849,240.484 300.198 C 242.361 300.557,247.878 300.989,253.200 301.194 C 283.528 302.360,296.716 309.252,300.668 326.000 C 301.435 329.250,302.244 346.946,301.682 348.179 C 300.835 350.039,303.350 349.996,197.200 349.996 C 92.239 349.996,93.666 350.019,92.745 348.297 C 92.206 347.291,92.489 335.912,93.213 329.446 C 95.340 310.455,109.106 302.385,141.400 301.197 C 146.943 300.993,152.352 300.580,154.200 300.220 C 157.445 299.587,165.480 298.892,172.400 298.645 C 180.001 298.374,227.530 298.793,232.284 299.173 " stroke="none" fill="#d4d4d4" fill-rule="evenodd"></path><path id="path3" d="M188.540 47.937 C 174.650 52.048,169.983 69.810,179.764 81.340 C 184.677 87.132,184.228 88.510,174.823 96.511 C 140.257 125.915,117.606 161.881,113.597 193.728 C 112.343 203.685,112.742 216.894,114.644 228.400 C 117.705 246.919,128.333 268.581,140.516 281.136 C 144.495 285.235,144.574 285.249,157.200 284.204 C 161.050 283.885,172.930 283.434,183.600 283.202 C 209.624 282.637,209.294 282.690,217.600 277.708 C 235.667 266.872,250.292 251.399,259.101 233.800 C 262.951 226.109,264.564 221.353,267.785 208.200 C 270.135 198.606,270.060 180.020,267.623 167.882 C 267.173 165.637,266.553 162.360,266.246 160.600 C 265.158 154.358,259.917 142.893,255.092 136.200 C 250.210 129.429,239.535 117.591,238.316 117.597 C 235.824 117.609,229.051 135.774,226.582 149.066 C 226.221 151.009,225.596 154.040,225.193 155.800 C 224.789 157.560,224.251 160.980,223.996 163.400 C 223.742 165.820,223.178 169.960,222.744 172.600 C 222.193 175.954,221.743 182.339,221.248 193.800 C 220.238 217.222,222.515 215.200,197.148 215.200 L 179.691 215.200 177.585 214.100 C 168.646 209.430,161.651 172.808,166.336 155.200 C 169.015 145.131,171.905 138.085,179.544 123.000 C 184.336 113.537,185.100 112.084,191.546 100.200 C 208.211 69.475,211.851 56.829,205.829 50.574 C 202.928 47.561,194.272 46.240,188.540 47.937 M172.400 298.645 C 165.480 298.892,157.445 299.587,154.200 300.220 C 152.352 300.580,146.943 300.993,141.400 301.197 C 109.106 302.385,95.340 310.455,93.213 329.446 C 92.489 335.912,92.206 347.291,92.745 348.297 C 93.666 350.019,92.239 349.996,197.200 349.996 C 303.350 349.996,300.835 350.039,301.682 348.179 C 302.244 346.946,301.435 329.250,300.668 326.000 C 296.716 309.252,283.528 302.360,253.200 301.194 C 247.878 300.989,242.361 300.557,240.484 300.198 C 233.995 298.956,191.118 297.978,172.400 298.645 " stroke="none" fill="#fcfcfc" fill-rule="evenodd"></path><path id="path4" d="M223.400 41.200 C 224.259 42.080,225.052 42.800,225.162 42.800 C 225.272 42.800,224.659 42.080,223.800 41.200 C 222.941 40.320,222.148 39.600,222.038 39.600 C 221.928 39.600,222.541 40.320,223.400 41.200 M191.997 41.648 C 172.920 43.605,162.625 66.793,173.841 82.539 C 177.362 87.481,177.336 87.612,171.897 92.268 C 134.903 123.941,110.972 162.985,108.004 196.516 C 105.179 228.423,115.237 260.989,134.728 283.045 C 141.020 290.166,141.273 290.239,157.600 289.644 C 164.530 289.391,180.100 289.005,192.200 288.786 C 213.158 288.407,217.386 288.463,242.613 289.452 C 252.326 289.833,253.623 289.227,260.696 281.015 C 287.947 249.372,294.071 198.709,275.367 159.631 C 267.924 144.079,257.007 128.371,245.259 116.313 C 236.715 107.542,234.868 108.182,229.135 121.899 C 225.883 129.679,223.559 137.301,221.237 147.800 C 220.556 150.880,219.731 155.200,219.405 157.400 C 219.078 159.600,218.549 162.849,218.228 164.621 C 217.409 169.152,215.617 190.439,215.351 198.800 C 214.977 210.601,216.606 209.662,196.758 209.514 L 181.530 209.400 180.504 208.207 L 179.479 207.015 179.751 197.283 C 180.078 185.595,180.543 178.945,181.575 171.200 C 182.000 168.010,182.459 164.230,182.595 162.800 C 182.826 160.385,184.541 150.410,185.759 144.400 C 191.332 116.898,204.002 86.860,216.381 71.800 C 221.117 66.037,221.472 63.099,218.225 56.530 C 213.121 46.206,203.084 40.511,191.997 41.648 M199.517 43.815 C 206.719 45.251,212.339 49.772,216.122 57.175 C 219.281 63.356,218.992 65.118,213.732 71.709 C 195.866 94.097,181.032 140.083,178.413 181.200 C 176.284 214.628,174.326 211.743,199.000 211.526 C 218.135 211.358,216.736 212.259,217.229 199.800 C 218.656 163.764,223.514 138.106,232.618 118.517 C 236.193 110.824,237.961 110.869,245.276 118.838 C 270.240 146.033,283.972 177.075,283.995 206.364 C 284.018 236.775,274.429 263.371,256.610 282.312 C 251.223 288.039,251.411 288.000,234.200 286.945 C 221.827 286.187,179.722 286.684,158.200 287.843 C 141.813 288.725,141.793 288.718,133.740 279.085 C 111.818 252.866,103.542 210.363,113.862 177.000 C 122.701 148.427,143.538 118.806,171.683 94.805 C 179.827 87.861,179.932 87.588,176.274 82.795 C 162.542 64.806,177.658 39.456,199.517 43.815 M234.705 91.883 C 235.202 91.979,235.922 91.975,236.305 91.875 C 236.687 91.775,236.280 91.696,235.400 91.701 C 234.520 91.705,234.207 91.787,234.705 91.883 M148.981 96.100 L 147.400 97.800 149.100 96.219 C 150.681 94.748,150.984 94.400,150.681 94.400 C 150.616 94.400,149.851 95.165,148.981 96.100 M256.200 109.600 C 257.059 110.480,257.852 111.200,257.962 111.200 C 258.072 111.200,257.459 110.480,256.600 109.600 C 255.741 108.720,254.948 108.000,254.838 108.000 C 254.728 108.000,255.341 108.720,256.200 109.600 M194.114 175.800 C 194.117 176.900,194.195 177.303,194.287 176.695 C 194.379 176.086,194.377 175.186,194.282 174.695 C 194.187 174.203,194.111 174.700,194.114 175.800 M203.709 177.600 C 203.709 178.590,203.787 178.995,203.882 178.500 C 203.978 178.005,203.978 177.195,203.882 176.700 C 203.787 176.205,203.709 176.610,203.709 177.600 M193.714 183.400 C 193.717 184.500,193.795 184.903,193.887 184.295 C 193.979 183.686,193.977 182.786,193.882 182.295 C 193.787 181.803,193.711 182.300,193.714 183.400 M203.314 185.400 C 203.317 186.500,203.395 186.903,203.487 186.295 C 203.579 185.686,203.577 184.786,203.482 184.295 C 203.387 183.803,203.311 184.300,203.314 185.400 M193.293 189.600 C 193.293 190.370,193.375 190.685,193.476 190.300 C 193.576 189.915,193.576 189.285,193.476 188.900 C 193.375 188.515,193.293 188.830,193.293 189.600 M298.093 191.600 C 298.093 192.370,298.175 192.685,298.276 192.300 C 298.376 191.915,298.376 191.285,298.276 190.900 C 298.175 190.515,298.093 190.830,298.093 191.600 M298.114 223.800 C 298.117 224.900,298.195 225.303,298.287 224.695 C 298.379 224.086,298.377 223.186,298.282 222.695 C 298.187 222.203,298.111 222.700,298.114 223.800 M96.501 227.000 C 96.505 227.880,96.587 228.193,96.683 227.695 C 96.779 227.198,96.775 226.478,96.675 226.095 C 96.575 225.713,96.496 226.120,96.501 227.000 M167.600 294.050 C 161.694 294.247,155.575 294.695,152.200 295.179 C 149.120 295.620,143.090 296.170,138.800 296.402 C 98.979 298.548,86.800 309.452,86.800 342.958 C 86.800 352.591,87.489 354.292,91.760 355.206 C 93.214 355.518,123.923 355.608,198.600 355.522 L 303.400 355.400 304.831 354.510 C 308.180 352.427,308.700 343.382,306.355 328.000 C 303.051 306.324,288.594 297.813,252.000 296.001 C 248.370 295.821,243.690 295.398,241.600 295.061 C 233.777 293.801,192.145 293.232,167.600 294.050 M221.000 295.611 C 231.615 295.916,236.767 296.234,240.600 296.821 C 243.460 297.258,248.500 297.692,251.800 297.784 C 282.286 298.635,299.327 306.824,303.564 322.656 C 305.565 330.133,306.454 348.299,304.964 351.246 C 303.679 353.788,312.274 353.600,197.200 353.600 C 81.373 353.600,90.803 353.823,89.282 351.046 C 87.827 348.389,88.653 331.438,90.614 323.705 C 94.902 306.798,109.476 299.364,141.000 298.004 C 145.400 297.815,151.340 297.284,154.200 296.825 C 163.249 295.374,193.569 294.823,221.000 295.611 M306.800 300.200 C 307.546 300.970,308.247 301.600,308.357 301.600 C 308.467 301.600,307.946 300.970,307.200 300.200 C 306.454 299.430,305.753 298.800,305.643 298.800 C 305.533 298.800,306.054 299.430,306.800 300.200 M319.293 328.400 C 319.293 329.170,319.375 329.485,319.476 329.100 C 319.576 328.715,319.576 328.085,319.476 327.700 C 319.375 327.315,319.293 327.630,319.293 328.400 M74.942 333.800 C 74.941 335.780,75.008 336.640,75.092 335.712 C 75.176 334.784,75.177 333.164,75.095 332.112 C 75.012 331.060,74.943 331.820,74.942 333.800 M319.775 348.400 C 319.775 354.450,319.831 356.925,319.899 353.900 C 319.967 350.875,319.967 345.925,319.899 342.900 C 319.831 339.875,319.775 342.350,319.775 348.400 " stroke="none" fill="#8c8c8c" fill-rule="evenodd"></path><path id="path5" d="M191.600 44.275 C 173.195 47.324,165.559 68.342,177.481 83.139 C 180.821 87.286,180.458 88.182,172.728 94.850 C 131.325 130.568,108.590 172.490,110.154 210.230 C 111.335 238.711,120.342 262.935,136.535 281.182 C 142.590 288.005,142.108 287.881,159.400 287.033 C 192.417 285.413,223.853 285.086,238.567 286.209 C 250.494 287.119,250.449 287.132,256.022 281.320 C 264.435 272.548,271.338 261.266,275.800 248.995 C 280.617 235.750,282.800 222.554,282.800 206.686 C 282.800 179.007,270.933 149.696,249.727 125.000 C 239.195 112.735,237.076 111.587,234.317 116.657 C 225.287 133.247,219.420 163.198,218.037 199.771 C 217.534 213.064,218.931 212.159,198.670 212.322 C 179.666 212.476,178.319 212.226,176.825 208.274 C 176.293 206.864,176.274 197.315,176.791 190.758 C 177.006 188.031,177.364 182.829,177.587 179.198 C 179.060 155.200,186.538 122.875,195.319 102.558 C 199.920 91.911,209.226 75.494,213.847 69.873 C 217.935 64.899,218.085 63.215,214.975 57.194 C 210.032 47.623,201.120 42.697,191.600 44.275 M202.474 45.961 C 207.072 47.432,211.075 51.406,214.198 57.600 C 216.992 63.143,216.871 64.617,213.254 69.121 C 206.375 77.687,195.107 99.450,189.707 114.600 C 185.883 125.327,180.888 145.228,179.607 154.838 C 179.361 156.687,178.711 161.057,178.164 164.548 C 177.617 168.040,176.911 174.790,176.595 179.548 C 176.279 184.307,175.818 191.072,175.570 194.582 C 174.285 212.770,174.322 212.800,197.298 212.800 C 220.027 212.800,218.032 214.304,218.790 196.600 C 220.123 165.453,224.103 143.082,231.703 124.022 C 236.163 112.837,237.028 112.411,242.983 118.468 C 259.990 135.765,272.255 157.509,279.156 182.600 C 282.695 195.466,282.517 220.148,278.776 235.449 C 274.202 254.154,266.885 268.333,255.435 280.678 C 250.485 286.015,249.836 286.180,237.845 285.160 C 227.789 284.304,214.022 284.114,208.400 284.754 C 206.310 284.992,201.720 285.193,198.200 285.201 C 189.926 285.220,160.839 286.246,152.673 286.807 C 144.209 287.388,143.200 287.110,139.207 283.103 C 116.761 260.574,106.004 220.957,112.807 185.868 C 118.387 157.078,141.318 122.647,173.200 95.182 C 181.340 88.170,181.663 87.278,177.789 82.522 C 162.972 64.333,180.190 38.833,202.474 45.961 M167.924 296.450 C 161.464 296.672,156.944 297.039,153.724 297.602 C 150.777 298.117,145.615 298.572,140.000 298.812 C 110.561 300.071,96.389 307.026,91.637 322.550 C 89.767 328.658,88.631 347.179,89.937 350.272 C 91.094 353.014,82.026 352.801,197.260 352.794 C 279.114 352.789,301.606 352.682,302.361 352.294 C 305.211 350.830,305.652 345.889,304.191 331.816 C 301.755 308.362,288.541 300.033,251.200 298.413 C 246.690 298.218,241.637 297.784,239.971 297.449 C 233.766 296.202,191.950 295.622,167.924 296.450 M231.200 297.195 C 234.830 297.401,239.330 297.855,241.200 298.205 C 243.070 298.554,248.560 299.007,253.400 299.211 C 287.179 300.637,300.967 309.047,303.380 329.698 C 304.986 343.446,304.646 350.346,302.296 351.688 C 301.336 352.236,100.171 352.720,94.883 352.187 C 93.075 352.004,92.062 351.670,91.283 350.998 L 90.200 350.064 90.241 341.732 C 90.396 310.412,101.955 300.803,141.400 299.206 C 146.240 299.010,151.653 298.583,153.428 298.256 C 162.785 296.536,208.551 295.911,231.200 297.195 " stroke="none" fill="#b4b4b4" fill-rule="evenodd"></path><path id="path6" d="M189.244 45.408 C 172.802 50.015,166.896 69.150,177.789 82.522 C 181.663 87.278,181.340 88.170,173.200 95.182 C 121.613 139.621,101.525 188.819,114.804 238.200 C 119.798 256.769,127.992 271.846,139.207 283.103 C 143.200 287.110,144.209 287.388,152.673 286.807 C 160.839 286.246,189.926 285.220,198.200 285.201 C 201.720 285.193,206.310 284.992,208.400 284.754 C 214.022 284.114,227.789 284.304,237.845 285.160 C 249.836 286.180,250.485 286.015,255.435 280.678 C 266.885 268.333,274.202 254.154,278.776 235.449 C 282.517 220.148,282.695 195.466,279.156 182.600 C 272.255 157.509,259.990 135.765,242.983 118.468 C 237.028 112.411,236.163 112.837,231.703 124.022 C 224.103 143.082,220.123 165.453,218.790 196.600 C 218.032 214.304,220.027 212.800,197.298 212.800 C 174.322 212.800,174.285 212.770,175.570 194.582 C 175.818 191.072,176.279 184.307,176.595 179.548 C 176.911 174.790,177.617 168.040,178.164 164.548 C 178.711 161.057,179.361 156.687,179.607 154.838 C 180.888 145.228,185.883 125.327,189.707 114.600 C 195.107 99.450,206.375 77.687,213.254 69.121 C 216.871 64.617,216.992 63.143,214.198 57.600 C 208.984 47.258,199.383 42.567,189.244 45.408 M198.886 45.778 C 206.202 47.083,209.847 50.391,213.383 58.931 C 215.306 63.577,215.254 64.134,212.570 67.666 C 211.343 69.280,209.693 71.770,208.904 73.200 C 208.114 74.630,206.136 78.102,204.507 80.916 C 195.480 96.516,187.193 115.878,183.586 129.800 C 180.187 142.915,178.536 150.578,177.999 155.731 C 177.774 157.893,177.401 160.501,177.172 161.527 C 176.314 165.356,175.628 171.593,175.382 177.800 C 175.243 181.320,174.875 185.863,174.565 187.896 C 173.472 195.046,174.016 206.096,175.615 209.229 C 177.792 213.496,178.648 213.658,198.305 213.517 C 218.675 213.371,218.702 213.361,219.038 205.886 C 219.119 204.079,219.376 198.100,219.608 192.600 C 220.808 164.175,225.574 139.567,233.345 121.679 C 236.995 113.278,237.455 113.246,244.483 120.896 C 256.141 133.587,264.162 145.744,269.156 158.290 C 269.574 159.340,270.630 161.910,271.503 164.000 C 274.678 171.604,278.970 186.703,279.575 192.400 C 283.274 227.244,273.929 259.185,254.025 279.736 C 249.040 284.884,248.661 284.987,239.200 283.777 C 230.629 282.681,219.065 282.599,212.200 283.586 C 207.158 284.311,203.166 284.507,187.200 284.816 C 176.750 285.018,164.159 285.457,159.221 285.792 C 143.505 286.856,143.659 286.889,138.427 281.363 C 114.659 256.254,104.919 211.794,115.652 177.400 C 124.529 148.952,144.638 120.504,173.265 95.896 C 182.199 88.217,182.535 87.366,178.542 82.533 C 164.811 65.911,178.014 42.057,198.886 45.778 M171.600 296.793 C 161.034 297.164,158.071 297.403,153.428 298.256 C 151.653 298.583,146.240 299.010,141.400 299.206 C 101.955 300.803,90.396 310.412,90.241 341.732 L 90.200 350.064 91.283 350.998 C 92.062 351.670,93.075 352.004,94.883 352.187 C 100.171 352.720,301.336 352.236,302.296 351.688 C 304.646 350.346,304.986 343.446,303.380 329.698 C 300.967 309.047,287.179 300.637,253.400 299.211 C 248.560 299.007,243.070 298.554,241.200 298.205 C 234.129 296.883,192.870 296.046,171.600 296.793 M228.478 297.614 C 232.945 297.841,238.040 298.302,239.800 298.638 C 241.560 298.973,246.960 299.407,251.800 299.601 C 288.867 301.087,301.439 309.601,303.188 334.400 C 304.143 347.945,303.891 350.253,301.353 351.218 C 299.985 351.738,94.415 351.738,93.047 351.218 C 90.919 350.409,90.593 349.213,90.672 342.507 C 91.056 309.996,101.280 301.803,144.200 299.616 C 148.380 299.403,153.240 298.952,155.000 298.613 C 161.739 297.318,209.829 296.664,228.478 297.614 " stroke="none" fill="#c4c4c4" fill-rule="evenodd"></path></g></svg>