<svg id="svg" version="1.1" xmlns="http://www.w3.org/2000/svg" xmlns:xlink="http://www.w3.org/1999/xlink" width="400" height="400" viewBox="0, 0, 400,400"><g id="svgg"><path id="path0" d="M175.462 24.976 C 171.123 26.544,170.643 28.007,170.400 40.400 L 170.200 50.600 160.000 50.815 C 142.634 51.181,143.800 48.844,143.800 83.300 C 143.800 97.325,143.762 108.800,143.715 108.800 C 143.668 108.800,142.717 108.440,141.602 108.001 C 135.841 105.730,109.789 105.828,103.556 108.143 C 102.150 108.665,100.014 109.219,98.808 109.372 C 97.602 109.526,95.442 110.159,94.008 110.778 C 92.574 111.398,90.680 112.030,89.800 112.184 C 86.185 112.814,74.513 119.415,69.354 123.746 C 68.008 124.876,65.933 126.602,64.743 127.581 C 63.552 128.561,61.863 130.242,60.989 131.317 C 60.115 132.393,58.451 134.381,57.291 135.736 C 53.710 139.921,45.600 153.726,45.600 155.638 C 45.600 155.873,45.060 157.297,44.399 158.802 C 43.739 160.306,42.943 162.857,42.630 164.469 C 42.317 166.081,41.694 168.220,41.246 169.223 C 38.874 174.527,38.944 205.333,41.342 211.084 C 41.873 212.358,42.507 214.349,42.751 215.509 C 42.995 216.668,43.628 218.471,44.157 219.515 C 44.686 220.559,45.318 222.153,45.562 223.058 C 45.805 223.963,47.469 227.110,49.259 230.051 C 51.049 232.993,53.087 236.440,53.788 237.710 C 54.489 238.981,56.418 241.591,58.075 243.510 C 59.732 245.430,61.968 248.095,63.044 249.434 C 66.463 253.688,71.062 258.579,84.416 272.161 C 96.953 284.912,101.522 290.185,101.065 291.375 C 100.947 291.683,99.581 292.677,98.030 293.582 C 89.954 298.299,81.200 309.890,79.989 317.469 C 79.760 318.903,79.219 321.098,78.787 322.347 C 77.482 326.116,77.225 329.925,77.212 345.680 C 77.198 362.633,77.360 364.133,79.420 366.193 C 81.753 368.526,75.562 368.419,202.000 368.305 L 319.000 368.200 321.000 367.200 C 322.477 366.462,323.262 365.729,324.000 364.400 L 325.000 362.600 325.000 349.200 C 325.000 336.990,324.922 335.409,324.119 331.400 C 323.635 328.980,323.062 324.929,322.846 322.397 C 322.453 317.801,321.588 315.128,318.897 310.200 C 318.537 309.540,317.764 308.046,317.179 306.880 C 314.972 302.474,308.199 295.594,304.454 293.954 C 299.069 291.595,299.249 290.857,307.254 282.475 C 309.094 280.548,311.676 277.718,312.990 276.186 C 314.305 274.654,320.785 267.910,327.391 261.200 C 339.317 249.085,342.187 245.848,346.388 239.767 C 351.331 232.611,356.723 222.867,357.435 219.800 C 357.589 219.140,358.144 217.741,358.668 216.691 C 359.199 215.629,359.873 213.146,360.187 211.091 C 360.497 209.061,361.152 206.320,361.642 205.000 C 362.457 202.801,362.545 201.731,362.696 192.200 C 362.867 181.431,362.863 181.389,361.042 174.200 C 360.708 172.880,360.255 170.324,360.035 168.519 C 359.808 166.652,359.258 164.498,358.759 163.520 C 358.277 162.575,357.636 160.722,357.334 159.401 C 356.427 155.433,352.260 147.047,347.793 140.200 C 340.591 129.161,323.252 115.460,312.410 112.240 C 311.374 111.932,309.817 111.319,308.950 110.877 C 307.219 109.993,303.513 109.200,301.119 109.200 C 300.275 109.200,298.304 108.753,296.739 108.206 C 291.528 106.385,279.635 105.846,266.600 106.838 C 263.520 107.073,260.496 107.295,259.880 107.332 L 258.761 107.400 258.792 83.774 C 258.837 49.981,259.525 51.314,241.800 50.844 L 232.600 50.600 232.363 41.600 C 232.053 29.778,231.403 27.812,227.038 25.476 C 224.944 24.356,178.426 23.904,175.462 24.976 M180.300 25.476 C 179.915 25.576,179.285 25.576,178.900 25.476 C 178.515 25.375,178.830 25.293,179.600 25.293 C 180.370 25.293,180.685 25.375,180.300 25.476 M221.905 25.475 C 221.522 25.575,220.802 25.579,220.305 25.483 C 219.807 25.387,220.120 25.305,221.000 25.301 C 221.880 25.296,222.287 25.375,221.905 25.475 M171.098 47.300 C 171.027 49.555,170.969 47.710,170.969 43.200 C 170.969 38.690,171.027 36.845,171.098 39.100 C 171.170 41.355,171.170 45.045,171.098 47.300 M231.498 47.300 C 231.425 49.335,231.366 47.670,231.366 43.600 C 231.366 39.530,231.425 37.865,231.498 39.900 C 231.571 41.935,231.571 45.265,231.498 47.300 M215.073 38.777 C 218.028 40.119,218.185 40.761,218.305 52.000 C 218.455 66.011,217.245 64.800,231.087 64.801 C 245.806 64.802,245.000 63.782,245.000 82.400 C 245.000 101.073,245.769 100.094,230.867 100.400 C 218.705 100.650,219.313 100.236,220.781 107.261 C 226.150 132.968,225.393 131.622,232.922 128.829 C 238.338 126.820,245.418 124.609,249.000 123.810 C 250.540 123.466,253.150 122.843,254.800 122.427 C 258.467 121.501,259.223 121.401,270.000 120.425 C 304.568 117.295,330.510 131.469,343.011 160.315 C 350.034 176.522,350.852 198.370,345.005 213.618 C 339.843 227.080,332.431 236.673,308.239 261.200 C 295.535 274.080,291.308 278.896,286.295 286.200 C 281.175 293.659,282.636 293.299,264.400 291.587 C 262.090 291.370,257.320 290.928,253.800 290.604 C 248.189 290.088,234.469 289.605,209.800 289.055 C 191.432 288.646,155.598 289.804,144.600 291.163 C 129.310 293.052,122.801 293.415,120.721 292.495 C 118.727 291.613,118.926 291.844,111.483 281.800 C 106.944 275.676,104.420 272.907,87.944 255.967 C 59.498 226.721,52.135 213.203,52.234 190.400 C 52.425 146.171,85.884 115.951,130.012 120.153 C 133.855 120.519,138.080 120.919,139.400 121.043 C 140.720 121.167,143.690 121.688,146.000 122.201 C 148.310 122.714,151.280 123.344,152.600 123.601 C 155.401 124.145,160.872 125.771,168.250 128.252 C 175.883 130.819,175.546 131.126,178.208 119.200 C 179.019 115.570,180.113 110.741,180.641 108.468 C 182.561 100.197,183.103 100.647,170.915 100.397 C 155.698 100.084,156.600 101.218,156.600 82.400 C 156.600 63.739,155.516 65.102,170.600 64.800 C 183.994 64.532,182.800 65.606,182.800 53.822 C 182.800 37.568,182.256 38.040,201.000 38.026 C 212.338 38.018,213.543 38.083,215.073 38.777 M126.500 107.498 C 124.465 107.571,121.135 107.571,119.100 107.498 C 117.065 107.425,118.730 107.366,122.800 107.366 C 126.870 107.366,128.535 107.425,126.500 107.498 M283.321 107.498 C 281.297 107.570,277.877 107.571,275.721 107.498 C 273.564 107.426,275.220 107.367,279.400 107.367 C 283.580 107.366,285.344 107.425,283.321 107.498 M267.500 107.876 C 267.115 107.976,266.485 107.976,266.100 107.876 C 265.715 107.775,266.030 107.693,266.800 107.693 C 267.570 107.693,267.885 107.775,267.500 107.876 M133.844 172.425 C 123.222 173.657,114.958 180.817,113.559 190.000 C 111.936 200.645,115.187 207.020,130.523 223.261 C 137.423 230.568,139.453 232.792,145.849 240.060 C 151.435 246.407,152.857 246.810,165.364 245.594 C 172.494 244.901,171.995 247.179,171.998 215.320 C 172.000 186.514,171.991 186.391,169.532 183.932 C 161.629 176.029,146.057 171.008,133.844 172.425 M256.800 172.465 C 245.647 173.742,230.502 182.715,229.811 188.454 C 229.429 191.630,229.742 242.480,230.148 243.315 C 230.792 244.635,232.698 245.201,237.995 245.644 C 249.069 246.571,250.426 246.232,254.353 241.561 C 255.538 240.153,261.088 234.111,266.687 228.135 C 284.447 209.183,288.092 203.761,288.675 195.425 C 289.746 180.134,276.040 170.261,256.800 172.465 M40.683 180.495 C 40.587 180.993,40.505 180.680,40.501 179.800 C 40.496 178.920,40.575 178.513,40.675 178.895 C 40.775 179.278,40.779 179.998,40.683 180.495 M361.876 184.300 C 361.775 184.685,361.693 184.370,361.693 183.600 C 361.693 182.830,361.775 182.515,361.876 182.900 C 361.976 183.285,361.976 183.915,361.876 184.300 M263.505 183.875 C 263.122 183.975,262.402 183.979,261.905 183.883 C 261.407 183.787,261.720 183.705,262.600 183.701 C 263.480 183.696,263.887 183.775,263.505 183.875 M266.600 185.609 C 267.700 186.012,269.209 186.567,269.953 186.842 C 277.745 189.718,276.391 197.505,266.172 208.595 C 264.345 210.578,260.814 214.408,258.325 217.107 C 255.836 219.806,251.977 224.020,249.748 226.471 C 242.344 234.614,242.750 235.465,242.889 212.067 L 243.000 193.244 244.392 191.808 C 245.849 190.305,252.453 186.800,253.828 186.800 C 254.566 186.800,256.171 186.388,260.800 185.009 C 262.770 184.423,263.601 184.508,266.600 185.609 M141.462 185.556 C 142.763 185.972,145.154 186.517,146.776 186.769 C 150.133 187.290,156.265 190.194,157.605 191.897 C 158.694 193.282,158.869 231.335,157.788 231.749 C 157.158 231.991,151.767 226.689,148.486 222.600 C 147.603 221.500,145.741 219.430,144.347 218.000 C 124.818 197.958,122.941 194.049,129.886 187.888 C 132.208 185.829,138.407 184.580,141.462 185.556 M275.887 195.100 C 275.795 195.705,275.720 195.210,275.720 194.000 C 275.720 192.790,275.795 192.295,275.887 192.900 C 275.978 193.505,275.978 194.495,275.887 195.100 M242.300 222.272 C 242.237 227.733,242.185 223.380,242.185 212.600 C 242.185 201.820,242.237 197.353,242.300 202.672 C 242.363 207.992,242.363 216.812,242.300 222.272 M361.876 198.700 C 361.775 199.085,361.693 198.770,361.693 198.000 C 361.693 197.230,361.775 196.915,361.876 197.300 C 361.976 197.685,361.976 198.315,361.876 198.700 M40.676 201.900 C 40.575 202.285,40.493 201.970,40.493 201.200 C 40.493 200.430,40.575 200.115,40.676 200.500 C 40.776 200.885,40.776 201.515,40.676 201.900 M143.400 218.400 C 144.928 219.940,146.089 221.200,145.979 221.200 C 145.869 221.200,144.528 219.940,143.000 218.400 C 141.472 216.860,140.311 215.600,140.421 215.600 C 140.531 215.600,141.872 216.860,143.400 218.400 M259.600 217.714 C 259.600 217.776,258.565 218.811,257.300 220.014 L 255.000 222.200 257.186 219.900 C 259.218 217.763,259.600 217.417,259.600 217.714 M248.800 229.322 C 248.800 229.388,248.125 230.063,247.300 230.822 L 245.800 232.200 247.178 230.700 C 248.462 229.304,248.800 229.016,248.800 229.322 M67.400 252.400 C 68.483 253.500,69.280 254.400,69.170 254.400 C 69.060 254.400,68.083 253.500,67.000 252.400 C 65.917 251.300,65.120 250.400,65.230 250.400 C 65.340 250.400,66.317 251.300,67.400 252.400 M322.800 264.600 C 318.514 268.890,314.918 272.400,314.808 272.400 C 314.698 272.400,318.114 268.890,322.400 264.600 C 326.686 260.310,330.282 256.800,330.392 256.800 C 330.502 256.800,327.086 260.310,322.800 264.600 M308.400 279.715 C 308.400 279.778,307.455 280.723,306.300 281.815 L 304.200 283.800 306.185 281.700 C 308.029 279.749,308.400 279.417,308.400 279.715 M233.140 293.950 C 245.270 294.378,258.142 295.312,261.579 296.014 C 262.580 296.219,265.560 296.566,268.200 296.787 C 270.840 297.008,273.990 297.465,275.200 297.803 C 276.410 298.141,279.209 298.761,281.420 299.182 C 298.574 302.446,308.926 313.303,310.795 329.992 C 311.624 337.396,311.481 350.821,310.555 352.600 C 308.703 356.156,320.727 355.786,203.200 355.906 C 85.132 356.028,93.314 356.286,91.000 352.358 C 89.284 349.445,90.536 327.936,92.818 321.136 C 96.583 309.916,106.724 301.632,119.400 299.422 C 121.380 299.077,124.126 298.441,125.502 298.008 C 126.877 297.575,130.230 297.040,132.951 296.819 C 135.672 296.598,139.587 296.149,141.650 295.821 C 146.836 294.996,155.182 294.463,170.165 293.999 C 177.185 293.782,183.035 293.498,183.165 293.367 C 183.500 293.030,218.692 293.440,233.140 293.950 M93.200 298.522 C 93.200 298.588,92.525 299.263,91.700 300.022 L 90.200 301.400 91.578 299.900 C 92.862 298.504,93.200 298.216,93.200 298.522 M78.283 333.695 C 78.187 334.193,78.105 333.880,78.101 333.000 C 78.096 332.120,78.175 331.713,78.275 332.095 C 78.375 332.478,78.379 333.198,78.283 333.695 M324.299 354.523 C 324.230 357.205,324.173 354.900,324.173 349.400 C 324.174 343.900,324.230 341.705,324.299 344.523 C 324.368 347.341,324.368 351.841,324.299 354.523 " stroke="none" fill="#464646" fill-rule="evenodd"></path><path id="path1" d="M189.719 43.801 C 188.886 44.385,188.857 44.700,188.730 54.501 C 188.533 69.799,189.018 69.307,173.864 69.600 C 160.626 69.856,162.000 68.420,162.000 82.000 C 162.000 95.543,160.728 94.142,173.264 94.400 C 189.948 94.743,189.682 94.134,184.040 119.000 C 180.206 135.901,178.565 138.069,171.600 135.435 C 120.589 116.143,81.275 124.795,64.576 158.987 C 53.641 181.379,55.213 205.049,69.014 225.800 C 74.171 233.553,76.907 236.625,96.968 257.184 C 108.533 269.036,112.761 273.865,117.963 281.164 C 123.135 288.420,122.885 288.316,131.660 286.832 C 134.157 286.410,139.620 285.861,143.800 285.611 C 147.980 285.361,154.190 284.897,157.600 284.579 C 178.229 282.657,226.340 282.693,245.142 284.644 C 253.575 285.519,259.985 285.290,262.399 284.025 C 263.627 283.382,273.714 273.558,294.214 253.042 L 324.232 223.000 327.920 217.400 C 332.698 210.145,336.183 200.375,336.831 192.420 C 337.037 189.900,337.398 186.726,337.635 185.367 C 337.975 183.416,337.932 181.997,337.433 178.635 C 337.085 176.293,336.800 173.577,336.800 172.600 C 336.800 167.645,333.172 155.612,329.865 149.600 C 325.458 141.588,316.183 134.360,304.199 129.600 C 301.457 128.510,299.119 127.899,291.024 126.156 C 287.030 125.295,271.116 125.329,266.200 126.208 C 264.220 126.563,260.440 127.207,257.800 127.640 C 250.443 128.846,244.329 130.679,229.024 136.267 C 223.389 138.324,220.864 135.555,218.973 125.245 C 218.626 123.350,217.917 120.180,217.397 118.200 C 216.877 116.220,216.263 113.340,216.032 111.800 C 215.801 110.260,215.250 107.741,214.806 106.201 C 211.971 96.360,213.873 94.695,228.287 94.404 C 237.267 94.222,238.452 94.122,239.087 93.486 C 240.254 92.318,240.412 72.197,239.264 70.780 L 238.472 69.800 227.936 69.600 C 212.608 69.309,213.222 69.931,213.209 54.700 C 213.200 45.340,213.156 44.756,212.400 44.000 C 211.325 42.925,191.222 42.749,189.719 43.801 M147.917 167.434 C 160.029 169.899,173.095 177.349,176.512 183.739 L 177.400 185.400 177.510 214.720 C 177.626 245.705,177.601 246.186,175.755 248.381 C 174.223 250.201,171.776 250.690,162.400 251.051 C 147.965 251.607,149.023 252.048,139.779 241.628 C 136.154 237.543,130.474 231.320,127.156 227.800 C 108.827 208.356,104.857 199.682,108.414 186.848 C 112.658 171.532,128.879 163.561,147.917 167.434 M270.449 167.210 C 285.489 170.275,294.021 180.086,293.993 194.283 C 293.971 205.241,290.345 211.131,271.017 231.600 C 266.551 236.330,261.116 242.261,258.940 244.780 C 252.790 251.901,253.312 251.757,236.788 250.904 C 223.028 250.193,223.924 252.823,224.084 213.600 L 224.200 185.400 225.145 183.481 C 226.126 181.488,229.039 178.882,233.800 175.736 C 245.567 167.960,258.905 164.857,270.449 167.210 M172.000 298.832 C 168.810 299.003,162.780 299.425,158.600 299.769 C 154.420 300.113,147.263 300.674,142.695 301.017 C 134.363 301.641,132.292 301.935,123.400 303.756 C 102.844 307.965,96.052 317.161,96.012 340.838 C 96.001 347.900,96.043 348.315,96.842 349.038 C 98.202 350.269,304.536 350.231,305.474 349.000 C 306.717 347.369,305.292 328.296,303.532 323.000 C 300.055 312.538,291.821 306.004,279.600 304.008 C 277.950 303.739,274.620 303.099,272.200 302.586 C 269.780 302.073,265.190 301.455,262.000 301.213 C 258.810 300.971,251.880 300.421,246.600 299.990 C 227.483 298.432,190.194 297.853,172.000 298.832 " stroke="none" fill="#fbfbfb" fill-rule="evenodd"></path><path id="path2" d="M188.037 40.123 C 185.136 41.139,185.024 41.597,184.800 53.387 C 184.536 67.301,185.477 66.394,171.287 66.398 C 157.346 66.401,158.200 65.371,158.200 82.183 C 158.200 99.392,157.405 98.400,171.200 98.400 C 184.840 98.400,184.760 98.317,182.172 109.800 C 176.631 134.376,177.307 133.311,169.118 130.387 C 144.303 121.525,119.168 119.225,101.683 124.217 C 72.215 132.629,54.014 158.064,54.002 190.851 C 53.994 213.574,61.315 226.319,93.030 258.800 C 106.940 273.045,109.507 275.954,115.583 284.357 C 121.605 292.684,119.162 292.252,144.000 289.386 C 160.308 287.504,212.062 286.677,236.800 287.902 C 256.322 288.868,264.331 289.426,273.822 290.479 C 280.055 291.171,280.659 290.831,285.423 283.941 C 289.895 277.473,294.472 272.311,306.827 259.800 C 333.281 233.012,341.162 222.081,344.960 206.908 C 351.846 179.400,340.528 147.574,318.600 132.790 C 296.849 118.125,267.503 117.847,229.518 131.947 C 225.033 133.612,224.608 132.908,221.458 118.600 C 216.640 96.717,215.840 98.460,230.720 98.423 C 243.874 98.389,243.245 99.071,243.518 84.563 C 243.753 72.042,243.529 69.582,241.998 67.867 L 240.867 66.600 230.134 66.400 C 215.720 66.131,217.086 67.466,216.807 53.381 C 216.576 41.771,216.466 41.288,213.782 40.167 C 211.993 39.419,190.151 39.382,188.037 40.123 M213.762 40.855 C 215.775 41.773,215.999 43.054,216.006 53.660 C 216.014 67.716,215.221 66.914,229.309 67.108 C 243.738 67.308,242.555 66.136,242.729 80.400 C 242.880 92.727,242.707 94.798,241.405 96.313 L 240.471 97.400 230.335 97.604 C 215.749 97.899,216.117 97.512,218.748 109.800 C 224.406 136.218,223.722 135.086,232.066 131.831 C 262.842 119.824,293.470 119.324,313.600 130.502 C 342.150 146.355,354.654 188.341,339.710 218.171 C 334.215 229.139,328.641 236.080,310.780 254.200 C 296.194 268.997,289.270 276.729,284.589 283.450 C 279.689 290.484,280.090 290.334,269.600 289.058 C 266.630 288.697,262.613 288.401,260.672 288.400 C 258.732 288.400,252.882 288.133,247.672 287.807 C 206.634 285.240,165.774 286.028,131.269 290.053 C 120.733 291.282,122.177 292.057,113.658 280.600 C 108.478 273.635,105.864 270.754,88.950 253.365 C 71.144 235.060,66.898 229.723,61.270 218.573 C 49.573 195.399,53.778 163.792,71.176 144.101 C 92.025 120.503,125.160 115.992,168.267 130.882 C 177.928 134.219,177.254 135.140,182.591 111.326 C 185.679 97.546,185.729 97.606,171.260 97.602 C 158.358 97.599,159.072 98.406,158.878 83.600 C 158.722 71.655,158.862 70.038,160.190 68.493 L 161.130 67.400 171.465 67.174 C 186.364 66.849,185.600 67.591,185.600 53.439 C 185.600 39.462,184.496 40.404,200.881 40.401 C 208.917 40.400,213.086 40.547,213.762 40.855 M131.200 170.384 C 118.132 173.180,110.698 181.880,110.680 194.400 C 110.667 203.525,114.498 209.902,129.629 225.941 C 133.023 229.539,138.500 235.524,141.800 239.240 C 150.659 249.218,149.780 248.867,163.945 248.077 C 175.406 247.438,174.399 250.565,174.397 215.600 C 174.395 184.421,174.509 185.714,171.481 182.511 C 162.718 173.246,144.067 167.631,131.200 170.384 M255.000 170.205 C 243.195 172.379,228.191 181.431,227.413 186.848 C 227.275 187.812,227.215 201.142,227.281 216.471 C 227.429 251.076,225.988 247.419,239.744 248.111 C 251.253 248.690,251.798 248.538,255.916 243.600 C 257.109 242.170,262.500 236.275,267.896 230.499 C 286.921 210.137,290.427 204.870,291.042 195.734 C 292.222 178.190,275.594 166.412,255.000 170.205 M146.250 170.995 C 155.572 172.507,168.563 179.200,172.200 184.365 L 173.400 186.069 173.400 215.202 L 173.400 244.335 172.426 245.372 C 170.912 246.984,168.916 247.290,159.574 247.347 L 150.949 247.400 149.483 246.286 C 148.676 245.673,145.583 242.433,142.608 239.086 C 139.633 235.739,134.670 230.300,131.580 227.000 C 116.730 211.144,113.087 205.876,111.762 198.340 C 108.544 180.049,124.427 167.456,146.250 170.995 M271.897 171.377 C 288.815 175.524,295.517 193.084,285.959 208.219 C 283.245 212.515,278.985 217.512,268.411 228.800 C 262.950 234.630,257.361 240.750,255.991 242.400 C 251.749 247.508,252.012 247.407,243.043 247.360 C 233.060 247.308,231.096 247.054,229.470 245.600 L 228.200 244.466 228.092 215.710 L 227.985 186.955 228.924 185.177 C 231.792 179.749,246.341 172.217,257.000 170.642 C 259.420 170.284,269.460 170.780,271.897 171.377 M169.577 295.615 C 160.167 295.944,150.831 296.586,143.600 297.402 C 140.850 297.712,136.440 298.157,133.800 298.391 C 131.160 298.625,128.013 299.100,126.807 299.446 C 125.601 299.793,122.620 300.490,120.182 300.995 C 100.182 305.143,92.950 315.465,92.153 341.000 C 91.842 350.973,92.054 351.919,94.885 353.204 C 96.895 354.116,303.269 354.476,306.521 353.573 C 309.648 352.705,310.481 346.028,309.188 332.200 C 307.548 314.661,298.183 304.012,281.742 300.991 C 279.794 300.633,276.815 299.992,275.122 299.567 C 269.575 298.174,247.212 296.141,231.600 295.609 C 218.535 295.165,182.380 295.168,169.577 295.615 M234.832 296.384 C 249.080 297.018,270.956 299.166,275.350 300.363 C 276.918 300.789,279.550 301.351,281.200 301.610 C 296.888 304.076,306.624 314.892,308.377 331.800 C 309.775 345.281,309.051 351.948,306.098 352.802 C 303.486 353.557,96.050 353.166,94.900 352.404 C 92.714 350.956,92.268 345.996,93.211 333.633 C 94.641 314.893,102.908 305.240,120.658 301.588 C 122.755 301.157,125.526 300.530,126.815 300.196 C 131.173 299.067,153.925 297.004,168.800 296.390 C 174.190 296.167,179.860 295.920,181.400 295.841 C 186.516 295.578,225.657 295.976,234.832 296.384 " stroke="none" fill="#9c9c9c" fill-rule="evenodd"></path><path id="path3" d="M187.690 41.202 C 185.741 42.390,185.600 43.216,185.600 53.439 C 185.600 67.591,186.364 66.849,171.465 67.174 L 161.130 67.400 160.190 68.493 C 158.862 70.038,158.722 71.655,158.878 83.600 C 159.072 98.406,158.358 97.599,171.260 97.602 C 185.729 97.606,185.679 97.546,182.591 111.326 C 177.254 135.140,177.928 134.219,168.267 130.882 C 125.160 115.992,92.025 120.503,71.176 144.101 C 53.778 163.792,49.573 195.399,61.270 218.573 C 66.898 229.723,71.144 235.060,88.950 253.365 C 105.864 270.754,108.478 273.635,113.658 280.600 C 122.177 292.057,120.733 291.282,131.269 290.053 C 165.774 286.028,206.634 285.240,247.672 287.807 C 252.882 288.133,258.732 288.400,260.672 288.400 C 262.613 288.401,266.630 288.697,269.600 289.058 C 280.090 290.334,279.689 290.484,284.589 283.450 C 289.270 276.729,296.194 268.997,310.780 254.200 C 330.890 233.799,338.030 224.254,342.510 211.784 C 350.665 189.089,343.712 157.497,326.800 140.396 C 306.610 119.979,270.752 116.738,232.066 131.831 C 223.722 135.086,224.406 136.218,218.748 109.800 C 216.117 97.512,215.749 97.899,230.335 97.604 L 240.471 97.400 241.405 96.313 C 242.707 94.798,242.880 92.727,242.729 80.400 C 242.555 66.136,243.738 67.308,229.309 67.108 C 215.221 66.914,216.014 67.716,216.006 53.660 C 215.999 43.054,215.775 41.773,213.762 40.855 C 211.777 39.951,189.251 40.250,187.690 41.202 M214.291 42.108 L 215.400 43.217 215.600 53.908 C 215.872 68.448,214.702 67.299,229.536 67.592 L 240.071 67.800 241.036 68.922 L 242.000 70.045 242.000 82.042 C 242.000 98.361,242.994 97.194,229.087 97.198 C 216.447 97.201,215.571 97.787,217.176 105.159 C 224.139 137.138,223.615 136.100,231.133 132.846 C 248.758 125.217,273.726 121.369,290.800 123.652 C 323.726 128.054,346.081 156.431,345.103 192.583 C 344.534 213.569,337.351 226.063,309.791 254.000 C 296.701 267.269,288.807 276.005,285.106 281.317 C 279.326 289.616,279.486 289.519,273.099 288.573 C 270.845 288.239,263.870 287.798,257.600 287.594 C 251.330 287.389,243.822 287.043,240.915 286.826 C 214.305 284.835,161.405 285.858,136.800 288.838 C 121.188 290.730,121.948 290.945,116.203 283.016 C 110.307 274.878,107.168 271.277,95.947 259.778 C 75.385 238.707,72.559 235.536,67.138 227.447 C 54.830 209.080,51.973 189.383,58.544 168.195 C 71.478 126.487,113.536 112.234,167.521 131.263 C 178.362 135.085,177.620 136.020,183.127 111.600 C 186.410 97.043,186.525 97.201,172.713 97.198 C 158.795 97.194,159.604 98.112,159.601 82.326 C 159.599 66.514,158.690 67.605,171.887 67.590 C 181.517 67.580,183.238 67.343,184.763 65.820 L 185.800 64.784 186.000 54.274 C 186.277 39.709,184.968 40.822,201.691 40.927 L 213.183 41.000 214.291 42.108 M132.857 169.442 C 118.095 171.917,109.409 181.911,110.123 195.600 C 110.604 204.822,114.274 210.586,130.765 228.022 C 134.209 231.664,139.500 237.455,142.523 240.890 C 149.981 249.369,149.101 248.995,160.867 248.675 C 176.526 248.249,175.000 251.842,175.000 215.400 L 175.000 186.600 174.126 184.967 C 168.998 175.386,146.928 167.083,132.857 169.442 M256.600 169.427 C 247.643 170.794,239.687 174.234,232.186 179.986 C 226.041 184.697,226.334 182.814,226.482 216.689 C 226.629 250.437,225.874 247.805,235.595 248.452 C 250.138 249.420,251.921 249.091,255.670 244.747 C 260.147 239.561,261.990 237.541,270.039 229.000 C 287.978 209.964,291.600 204.119,291.600 194.200 C 291.600 177.246,276.305 166.420,256.600 169.427 M145.989 170.218 C 157.900 172.149,172.347 180.423,173.962 186.238 C 174.254 187.291,174.396 196.860,174.397 215.600 C 174.399 250.565,175.406 247.438,163.945 248.077 C 149.780 248.867,150.659 249.218,141.800 239.240 C 138.500 235.524,133.023 229.539,129.629 225.941 C 114.498 209.902,110.667 203.525,110.680 194.400 C 110.705 177.201,125.704 166.928,145.989 170.218 M271.749 170.575 C 283.852 173.233,291.854 183.668,291.042 195.734 C 290.427 204.870,286.921 210.137,267.896 230.499 C 262.500 236.275,257.109 242.170,255.916 243.600 C 251.798 248.538,251.253 248.690,239.744 248.111 C 225.988 247.419,227.429 251.076,227.281 216.471 C 227.143 184.291,227.047 185.757,229.471 183.166 C 238.858 173.130,257.755 167.502,271.749 170.575 M181.400 295.841 C 179.860 295.920,174.190 296.167,168.800 296.390 C 153.925 297.004,131.173 299.067,126.815 300.196 C 125.526 300.530,122.755 301.157,120.658 301.588 C 102.908 305.240,94.641 314.893,93.211 333.633 C 92.268 345.996,92.714 350.956,94.900 352.404 C 96.050 353.166,303.486 353.557,306.098 352.802 C 309.051 351.948,309.775 345.281,308.377 331.800 C 306.624 314.892,296.888 304.076,281.200 301.610 C 279.550 301.351,276.918 300.789,275.350 300.363 C 270.956 299.166,249.080 297.018,234.832 296.384 C 225.657 295.976,186.516 295.578,181.400 295.841 M231.400 296.801 C 246.360 297.386,269.262 299.486,274.600 300.762 C 276.360 301.183,279.370 301.818,281.289 302.174 C 300.739 305.783,308.390 317.850,308.398 344.931 L 308.400 350.062 307.231 351.231 L 306.062 352.400 201.085 352.400 L 96.108 352.400 95.064 351.579 C 93.106 350.039,92.762 342.953,94.046 330.643 C 95.587 315.872,103.903 306.138,117.800 302.840 C 119.560 302.423,122.988 301.619,125.417 301.054 C 140.772 297.484,194.113 295.343,231.400 296.801 " stroke="none" fill="#acacac" fill-rule="evenodd"></path><path id="path4" d="M178.900 25.476 C 179.285 25.576,179.915 25.576,180.300 25.476 C 180.685 25.375,180.370 25.293,179.600 25.293 C 178.830 25.293,178.515 25.375,178.900 25.476 M220.305 25.483 C 220.802 25.579,221.522 25.575,221.905 25.475 C 222.287 25.375,221.880 25.296,221.000 25.301 C 220.120 25.305,219.807 25.387,220.305 25.483 M170.969 43.200 C 170.969 47.710,171.027 49.555,171.098 47.300 C 171.170 45.045,171.170 41.355,171.098 39.100 C 171.027 36.845,170.969 38.690,170.969 43.200 M231.366 43.600 C 231.366 47.670,231.425 49.335,231.498 47.300 C 231.571 45.265,231.571 41.935,231.498 39.900 C 231.425 37.865,231.366 39.530,231.366 43.600 M187.033 38.593 C 183.276 39.932,182.800 41.645,182.800 53.822 C 182.800 65.606,183.994 64.532,170.600 64.800 C 155.516 65.102,156.600 63.739,156.600 82.400 C 156.600 101.218,155.698 100.084,170.915 100.397 C 183.103 100.647,182.561 100.197,180.641 108.468 C 180.113 110.741,179.019 115.570,178.208 119.200 C 175.546 131.126,175.883 130.819,168.250 128.252 C 160.872 125.771,155.401 124.145,152.600 123.601 C 151.280 123.344,148.310 122.714,146.000 122.201 C 143.690 121.688,140.720 121.167,139.400 121.043 C 138.080 120.919,133.855 120.519,130.012 120.153 C 91.239 116.461,61.015 138.557,53.571 176.036 C 47.854 204.825,55.504 222.616,87.944 255.967 C 104.420 272.907,106.944 275.676,111.483 281.800 C 118.926 291.844,118.727 291.613,120.721 292.495 C 122.801 293.415,129.310 293.052,144.600 291.163 C 155.598 289.804,191.432 288.646,209.800 289.055 C 234.469 289.605,248.189 290.088,253.800 290.604 C 257.320 290.928,262.090 291.370,264.400 291.587 C 282.636 293.299,281.175 293.659,286.295 286.200 C 291.308 278.896,295.535 274.080,308.239 261.200 C 332.431 236.673,339.843 227.080,345.005 213.618 C 349.855 200.969,350.233 183.526,345.973 168.956 C 335.982 134.790,308.095 116.976,270.000 120.425 C 259.223 121.401,258.467 121.501,254.800 122.427 C 253.150 122.843,250.540 123.466,249.000 123.810 C 245.418 124.609,238.338 126.820,232.922 128.829 C 225.393 131.622,226.150 132.968,220.781 107.261 C 219.313 100.236,218.705 100.650,230.867 100.400 C 245.769 100.094,245.000 101.073,245.000 82.400 C 245.000 63.782,245.806 64.802,231.087 64.801 C 217.245 64.800,218.455 66.011,218.305 52.000 C 218.147 37.268,219.070 38.014,201.000 38.026 C 191.423 38.033,188.243 38.162,187.033 38.593 M213.782 40.167 C 216.466 41.288,216.576 41.771,216.807 53.381 C 217.086 67.466,215.720 66.131,230.134 66.400 L 240.867 66.600 241.998 67.867 C 243.529 69.582,243.753 72.042,243.518 84.563 C 243.245 99.071,243.874 98.389,230.720 98.423 C 215.840 98.460,216.640 96.717,221.458 118.600 C 224.608 132.908,225.033 133.612,229.518 131.947 C 267.503 117.847,296.849 118.125,318.600 132.790 C 340.528 147.574,351.846 179.400,344.960 206.908 C 341.162 222.081,333.281 233.012,306.827 259.800 C 294.472 272.311,289.895 277.473,285.423 283.941 C 280.659 290.831,280.055 291.171,273.822 290.479 C 264.331 289.426,256.322 288.868,236.800 287.902 C 212.062 286.677,160.308 287.504,144.000 289.386 C 119.162 292.252,121.605 292.684,115.583 284.357 C 109.507 275.954,106.940 273.045,93.030 258.800 C 61.315 226.319,53.994 213.574,54.002 190.851 C 54.014 158.064,72.215 132.629,101.683 124.217 C 119.168 119.225,144.303 121.525,169.118 130.387 C 177.307 133.311,176.631 134.376,182.172 109.800 C 184.760 98.317,184.840 98.400,171.200 98.400 C 157.405 98.400,158.200 99.392,158.200 82.183 C 158.200 65.371,157.346 66.401,171.287 66.398 C 185.477 66.394,184.536 67.301,184.800 53.387 C 185.079 38.673,183.929 39.656,200.913 39.623 C 209.980 39.605,212.714 39.720,213.782 40.167 M119.100 107.498 C 121.135 107.571,124.465 107.571,126.500 107.498 C 128.535 107.425,126.870 107.366,122.800 107.366 C 118.730 107.366,117.065 107.425,119.100 107.498 M275.721 107.498 C 277.877 107.571,281.297 107.570,283.321 107.498 C 285.344 107.425,283.580 107.366,279.400 107.367 C 275.220 107.367,273.564 107.426,275.721 107.498 M266.100 107.876 C 266.485 107.976,267.115 107.976,267.500 107.876 C 267.885 107.775,267.570 107.693,266.800 107.693 C 266.030 107.693,265.715 107.775,266.100 107.876 M131.600 171.000 C 112.381 174.876,105.366 193.917,117.098 210.359 C 119.443 213.644,124.313 219.241,131.580 227.000 C 134.670 230.300,139.633 235.739,142.608 239.086 C 145.583 242.433,148.676 245.673,149.483 246.286 L 150.949 247.400 159.574 247.347 C 168.916 247.290,170.912 246.984,172.426 245.372 L 173.400 244.335 173.400 215.202 L 173.400 186.069 172.200 184.365 C 165.865 175.370,144.616 168.375,131.600 171.000 M257.000 170.642 C 246.341 172.217,231.792 179.749,228.924 185.177 L 227.985 186.955 228.092 215.710 L 228.200 244.466 229.470 245.600 C 231.096 247.054,233.060 247.308,243.043 247.360 C 252.012 247.407,251.749 247.508,255.991 242.400 C 257.361 240.750,262.950 234.630,268.411 228.800 C 278.985 217.512,283.245 212.515,285.959 208.219 C 295.517 193.084,288.815 175.524,271.897 171.377 C 269.460 170.780,259.420 170.284,257.000 170.642 M143.619 172.421 C 155.370 173.627,170.303 181.728,171.558 187.577 C 172.152 190.346,172.170 240.372,171.578 242.504 C 170.840 245.161,167.494 245.965,157.060 245.990 C 151.348 246.003,150.847 245.738,145.849 240.060 C 139.453 232.792,137.423 230.568,130.523 223.261 C 117.607 209.582,113.844 203.665,113.325 196.217 C 112.205 180.129,124.513 170.461,143.619 172.421 M271.189 173.050 C 284.402 176.009,291.988 189.250,287.421 201.383 C 285.046 207.693,281.232 212.614,266.687 228.135 C 261.088 234.111,255.538 240.153,254.353 241.561 C 250.426 246.232,249.069 246.571,237.995 245.644 C 232.698 245.201,230.792 244.635,230.148 243.315 C 229.742 242.480,229.429 191.630,229.811 188.454 C 230.356 183.921,239.234 177.631,250.400 173.866 C 255.844 172.030,265.028 171.670,271.189 173.050 M40.501 179.800 C 40.505 180.680,40.587 180.993,40.683 180.495 C 40.779 179.998,40.775 179.278,40.675 178.895 C 40.575 178.513,40.496 178.920,40.501 179.800 M361.693 183.600 C 361.693 184.370,361.775 184.685,361.876 184.300 C 361.976 183.915,361.976 183.285,361.876 182.900 C 361.775 182.515,361.693 182.830,361.693 183.600 M261.905 183.883 C 262.402 183.979,263.122 183.975,263.505 183.875 C 263.887 183.775,263.480 183.696,262.600 183.701 C 261.720 183.705,261.407 183.787,261.905 183.883 M275.720 194.000 C 275.720 195.210,275.795 195.705,275.887 195.100 C 275.978 194.495,275.978 193.505,275.887 192.900 C 275.795 192.295,275.720 192.790,275.720 194.000 M242.185 212.600 C 242.185 223.380,242.237 227.733,242.300 222.272 C 242.363 216.812,242.363 207.992,242.300 202.672 C 242.237 197.353,242.185 201.820,242.185 212.600 M361.693 198.000 C 361.693 198.770,361.775 199.085,361.876 198.700 C 361.976 198.315,361.976 197.685,361.876 197.300 C 361.775 196.915,361.693 197.230,361.693 198.000 M40.493 201.200 C 40.493 201.970,40.575 202.285,40.676 201.900 C 40.776 201.515,40.776 200.885,40.676 200.500 C 40.575 200.115,40.493 200.430,40.493 201.200 M143.000 218.400 C 144.528 219.940,145.869 221.200,145.979 221.200 C 146.089 221.200,144.928 219.940,143.400 218.400 C 141.872 216.860,140.531 215.600,140.421 215.600 C 140.311 215.600,141.472 216.860,143.000 218.400 M257.186 219.900 L 255.000 222.200 257.300 220.014 C 259.437 217.982,259.783 217.600,259.486 217.600 C 259.424 217.600,258.389 218.635,257.186 219.900 M247.178 230.700 L 245.800 232.200 247.300 230.822 C 248.696 229.538,248.984 229.200,248.678 229.200 C 248.612 229.200,247.937 229.875,247.178 230.700 M67.000 252.400 C 68.083 253.500,69.060 254.400,69.170 254.400 C 69.280 254.400,68.483 253.500,67.400 252.400 C 66.317 251.300,65.340 250.400,65.230 250.400 C 65.120 250.400,65.917 251.300,67.000 252.400 M322.400 264.600 C 318.114 268.890,314.698 272.400,314.808 272.400 C 314.918 272.400,318.514 268.890,322.800 264.600 C 327.086 260.310,330.502 256.800,330.392 256.800 C 330.282 256.800,326.686 260.310,322.400 264.600 M306.185 281.700 L 304.200 283.800 306.300 281.815 C 308.251 279.971,308.583 279.600,308.285 279.600 C 308.222 279.600,307.277 280.545,306.185 281.700 M183.165 293.367 C 183.035 293.498,177.185 293.782,170.165 293.999 C 155.182 294.463,146.836 294.996,141.650 295.821 C 139.587 296.149,135.672 296.598,132.951 296.819 C 130.230 297.040,126.877 297.575,125.502 298.008 C 124.126 298.441,121.380 299.077,119.400 299.422 C 106.724 301.632,96.583 309.916,92.818 321.136 C 90.536 327.936,89.284 349.445,91.000 352.358 C 93.314 356.286,85.132 356.028,203.200 355.906 C 320.727 355.786,308.703 356.156,310.555 352.600 C 311.481 350.821,311.624 337.396,310.795 329.992 C 308.926 313.303,298.574 302.446,281.420 299.182 C 279.209 298.761,276.410 298.141,275.200 297.803 C 273.990 297.465,270.840 297.008,268.200 296.787 C 265.560 296.566,262.580 296.219,261.579 296.014 C 253.951 294.457,184.413 292.110,183.165 293.367 M231.600 295.609 C 247.212 296.141,269.575 298.174,275.122 299.567 C 276.815 299.992,279.794 300.633,281.742 300.991 C 298.183 304.012,307.548 314.661,309.188 332.200 C 310.481 346.028,309.648 352.705,306.521 353.573 C 303.269 354.476,96.895 354.116,94.885 353.204 C 92.054 351.919,91.842 350.973,92.153 341.000 C 92.950 315.465,100.182 305.143,120.182 300.995 C 122.620 300.490,125.601 299.793,126.807 299.446 C 128.013 299.100,131.160 298.625,133.800 298.391 C 136.440 298.157,140.850 297.712,143.600 297.402 C 161.213 295.415,201.674 294.590,231.600 295.609 M91.578 299.900 L 90.200 301.400 91.700 300.022 C 93.096 298.738,93.384 298.400,93.078 298.400 C 93.012 298.400,92.337 299.075,91.578 299.900 M78.101 333.000 C 78.105 333.880,78.187 334.193,78.283 333.695 C 78.379 333.198,78.375 332.478,78.275 332.095 C 78.175 331.713,78.096 332.120,78.101 333.000 M324.173 349.400 C 324.173 354.900,324.230 357.205,324.299 354.523 C 324.368 351.841,324.368 347.341,324.299 344.523 C 324.230 341.705,324.174 343.900,324.173 349.400 " stroke="none" fill="#848484" fill-rule="evenodd"></path><path id="path5" d="M188.800 42.116 C 187.107 42.970,186.847 44.638,186.821 54.800 C 186.786 68.562,187.327 68.060,172.236 68.320 C 162.431 68.489,162.257 68.506,161.336 69.427 L 160.400 70.364 160.400 81.756 C 160.400 97.498,159.464 96.400,172.887 96.401 C 187.281 96.402,187.377 96.542,183.786 112.200 C 178.231 136.418,178.600 135.901,169.200 132.603 C 113.793 113.163,72.327 126.461,59.402 167.816 C 51.395 193.434,56.671 215.639,76.031 237.800 C 79.995 242.337,80.553 242.926,95.168 258.000 C 110.149 273.450,110.752 274.132,116.379 282.000 C 122.191 290.124,121.922 289.992,130.288 288.840 C 140.091 287.490,143.135 287.235,166.200 285.839 C 185.834 284.650,221.906 284.739,240.200 286.022 C 254.293 287.011,257.487 287.110,262.065 286.701 C 265.561 286.389,267.615 286.408,270.265 286.779 C 279.008 288.003,278.718 288.082,281.658 283.688 C 286.755 276.070,292.512 269.549,308.400 253.399 C 332.727 228.671,338.549 220.041,342.667 202.600 C 347.005 184.226,339.361 155.719,326.373 141.835 C 307.874 122.060,272.648 118.177,235.942 131.868 C 226.270 135.476,226.683 135.372,225.075 134.609 C 222.790 133.524,222.474 132.623,219.052 117.400 C 214.125 95.487,213.698 96.402,228.840 96.401 C 238.301 96.400,239.821 96.183,240.808 94.693 C 241.705 93.340,241.917 72.332,241.054 70.268 C 240.282 68.421,240.502 68.456,228.800 68.299 C 214.310 68.105,215.083 68.879,214.789 54.272 C 214.565 43.143,214.508 42.760,212.959 42.054 C 211.489 41.384,190.142 41.439,188.800 42.116 M212.400 44.000 C 213.156 44.756,213.200 45.340,213.209 54.700 C 213.222 69.931,212.608 69.309,227.936 69.600 L 238.472 69.800 239.264 70.780 C 240.412 72.197,240.254 92.318,239.087 93.486 C 238.452 94.122,237.267 94.222,228.287 94.404 C 213.873 94.695,211.971 96.360,214.806 106.201 C 215.250 107.741,215.801 110.260,216.032 111.800 C 216.263 113.340,216.877 116.220,217.397 118.200 C 217.917 120.180,218.626 123.350,218.973 125.245 C 220.864 135.555,223.389 138.324,229.024 136.267 C 244.329 130.679,250.443 128.846,257.800 127.640 C 260.440 127.207,264.220 126.563,266.200 126.208 C 271.116 125.329,287.030 125.295,291.024 126.156 C 299.119 127.899,301.457 128.510,304.199 129.600 C 316.183 134.360,325.458 141.588,329.865 149.600 C 333.172 155.612,336.800 167.645,336.800 172.600 C 336.800 173.577,337.085 176.293,337.433 178.635 C 337.932 181.997,337.975 183.416,337.635 185.367 C 337.398 186.726,337.037 189.900,336.831 192.420 C 336.183 200.375,332.698 210.145,327.920 217.400 L 324.232 223.000 294.214 253.042 C 273.714 273.558,263.627 283.382,262.399 284.025 C 259.985 285.290,253.575 285.519,245.142 284.644 C 226.340 282.693,178.229 282.657,157.600 284.579 C 154.190 284.897,147.980 285.361,143.800 285.611 C 139.620 285.861,134.157 286.410,131.660 286.832 C 122.885 288.316,123.135 288.420,117.963 281.164 C 112.761 273.865,108.533 269.036,96.968 257.184 C 76.907 236.625,74.171 233.553,69.014 225.800 C 55.213 205.049,53.641 181.379,64.576 158.987 C 81.275 124.795,120.589 116.143,171.600 135.435 C 178.565 138.069,180.206 135.901,184.040 119.000 C 189.682 94.134,189.948 94.743,173.264 94.400 C 160.728 94.142,162.000 95.543,162.000 82.000 C 162.000 68.420,160.626 69.856,173.864 69.600 C 189.018 69.307,188.533 69.799,188.730 54.501 C 188.857 44.700,188.886 44.385,189.719 43.801 C 191.222 42.749,211.325 42.925,212.400 44.000 M129.502 167.616 C 118.283 170.406,111.173 176.890,108.414 186.848 C 104.857 199.682,108.827 208.356,127.156 227.800 C 130.474 231.320,136.154 237.543,139.779 241.628 C 149.023 252.048,147.965 251.607,162.400 251.051 C 171.776 250.690,174.223 250.201,175.755 248.381 C 177.601 246.186,177.626 245.705,177.510 214.720 L 177.400 185.400 176.512 183.739 C 170.411 172.331,145.249 163.701,129.502 167.616 M252.800 167.588 C 241.627 170.107,227.824 178.040,225.145 183.481 L 224.200 185.400 224.084 213.600 C 223.924 252.823,223.028 250.193,236.788 250.904 C 253.312 251.757,252.790 251.901,258.940 244.780 C 261.116 242.261,266.551 236.330,271.017 231.600 C 290.345 211.131,293.971 205.241,293.993 194.283 C 294.032 174.423,275.564 162.455,252.800 167.588 M147.832 169.224 C 159.282 171.432,172.379 179.078,175.150 185.171 C 176.264 187.619,176.125 243.554,175.000 245.789 C 173.692 248.387,172.407 248.861,165.670 249.231 C 150.292 250.073,149.860 249.973,144.725 244.355 C 142.837 242.290,139.697 238.850,137.747 236.712 C 135.796 234.574,131.500 229.912,128.200 226.353 C 115.290 212.429,112.303 208.219,110.207 200.984 C 106.029 186.569,114.903 172.620,130.400 169.240 C 137.014 167.797,140.419 167.794,147.832 169.224 M271.347 169.226 C 284.650 171.937,292.992 182.453,292.271 195.600 C 291.727 205.511,288.013 211.110,267.992 232.200 C 265.068 235.280,260.718 240.082,258.326 242.870 C 252.061 250.173,252.293 250.105,236.329 249.231 C 225.071 248.614,225.998 251.652,226.009 215.406 C 226.019 182.776,225.871 184.526,228.851 181.739 C 236.229 174.839,247.057 169.996,259.000 168.255 C 261.105 167.948,267.572 168.457,271.347 169.226 M175.600 297.238 C 162.021 297.711,133.793 300.018,129.000 301.047 C 127.460 301.377,124.220 302.075,121.800 302.597 C 104.875 306.250,96.655 314.550,94.862 329.800 C 93.481 341.546,93.912 350.082,95.940 351.168 C 97.525 352.016,305.324 351.752,306.375 350.900 C 308.394 349.265,308.023 333.672,305.745 324.400 C 302.861 312.664,293.782 304.991,279.936 302.589 C 277.909 302.237,274.780 301.600,272.983 301.173 C 269.961 300.456,262.914 299.734,244.000 298.207 C 228.240 296.935,197.000 296.492,175.600 297.238 M229.200 298.807 C 233.490 299.027,241.320 299.560,246.600 299.990 C 251.880 300.421,258.810 300.971,262.000 301.213 C 265.190 301.455,269.780 302.073,272.200 302.586 C 274.620 303.099,277.950 303.739,279.600 304.008 C 291.821 306.004,300.055 312.538,303.532 323.000 C 305.292 328.296,306.717 347.369,305.474 349.000 C 304.536 350.231,98.202 350.269,96.842 349.038 C 96.043 348.315,96.001 347.900,96.012 340.838 C 96.052 317.161,102.844 307.965,123.400 303.756 C 132.292 301.935,134.363 301.641,142.695 301.017 C 147.263 300.674,154.420 300.113,158.600 299.769 C 162.780 299.425,168.810 299.003,172.000 298.832 C 180.683 298.365,220.277 298.347,229.200 298.807 " stroke="none" fill="#d4d4d4" fill-rule="evenodd"></path><path id="path6" d="M188.902 41.238 C 186.356 41.991,186.222 42.591,186.000 54.274 L 185.800 64.784 184.763 65.820 C 183.238 67.343,181.517 67.580,171.887 67.590 C 158.690 67.605,159.599 66.514,159.601 82.326 C 159.604 98.112,158.795 97.194,172.713 97.198 C 186.525 97.201,186.410 97.043,183.127 111.600 C 177.620 136.020,178.362 135.085,167.521 131.263 C 113.536 112.234,71.478 126.487,58.544 168.195 C 51.973 189.383,54.830 209.080,67.138 227.447 C 72.559 235.536,75.385 238.707,95.947 259.778 C 107.168 271.277,110.307 274.878,116.203 283.016 C 121.948 290.945,121.188 290.730,136.800 288.838 C 161.405 285.858,214.305 284.835,240.915 286.826 C 243.822 287.043,251.330 287.389,257.600 287.594 C 263.870 287.798,270.845 288.239,273.099 288.573 C 279.486 289.519,279.326 289.616,285.106 281.317 C 288.807 276.005,296.701 267.269,309.791 254.000 C 337.351 226.063,344.534 213.569,345.103 192.583 C 346.081 156.431,323.726 128.054,290.800 123.652 C 273.726 121.369,248.758 125.217,231.133 132.846 C 224.284 135.810,223.679 135.009,219.995 118.101 C 218.904 113.095,217.636 107.272,217.176 105.159 C 215.571 97.787,216.447 97.201,229.087 97.198 C 242.994 97.194,242.000 98.361,242.000 82.042 L 242.000 70.045 241.036 68.922 L 240.071 67.800 229.536 67.592 C 214.702 67.299,215.872 68.448,215.600 53.908 L 215.400 43.217 214.291 42.108 L 213.183 41.000 201.691 40.927 C 195.288 40.887,189.625 41.025,188.902 41.238 M212.959 42.054 C 214.508 42.760,214.565 43.143,214.789 54.272 C 215.083 68.879,214.310 68.105,228.800 68.299 C 240.502 68.456,240.282 68.421,241.054 70.268 C 241.917 72.332,241.705 93.340,240.808 94.693 C 239.821 96.183,238.301 96.400,228.840 96.401 C 213.698 96.402,214.125 95.487,219.052 117.400 C 222.474 132.623,222.790 133.524,225.075 134.609 C 226.683 135.372,226.270 135.476,235.942 131.868 C 272.648 118.177,307.874 122.060,326.373 141.835 C 339.361 155.719,347.005 184.226,342.667 202.600 C 338.549 220.041,332.727 228.671,308.400 253.399 C 292.512 269.549,286.755 276.070,281.658 283.688 C 278.718 288.082,279.008 288.003,270.265 286.779 C 267.615 286.408,265.561 286.389,262.065 286.701 C 257.487 287.110,254.293 287.011,240.200 286.022 C 221.906 284.739,185.834 284.650,166.200 285.839 C 143.135 287.235,140.091 287.490,130.288 288.840 C 121.922 289.992,122.191 290.124,116.379 282.000 C 110.752 274.132,110.149 273.450,95.168 258.000 C 80.553 242.926,79.995 242.337,76.031 237.800 C 56.671 215.639,51.395 193.434,59.402 167.816 C 72.327 126.461,113.793 113.163,169.200 132.603 C 178.600 135.901,178.231 136.418,183.786 112.200 C 187.377 96.542,187.281 96.402,172.887 96.401 C 159.464 96.400,160.400 97.498,160.400 81.756 L 160.400 70.364 161.336 69.427 C 162.257 68.506,162.431 68.489,172.236 68.320 C 187.327 68.060,186.786 68.562,186.821 54.800 C 186.847 44.638,187.107 42.970,188.800 42.116 C 190.142 41.439,211.489 41.384,212.959 42.054 M135.400 168.239 C 118.746 170.627,109.200 180.225,109.200 194.581 C 109.200 203.616,112.982 209.940,128.200 226.353 C 131.500 229.912,135.796 234.574,137.747 236.712 C 150.212 250.378,149.119 249.591,155.600 249.567 C 169.959 249.516,173.468 248.832,175.000 245.789 C 176.125 243.554,176.264 187.619,175.150 185.171 C 171.118 176.305,147.956 166.439,135.400 168.239 M259.000 168.255 C 247.057 169.996,236.229 174.839,228.851 181.739 C 225.871 184.526,226.019 182.776,226.009 215.406 C 225.998 251.652,225.071 248.614,236.329 249.231 C 252.293 250.105,252.061 250.173,258.326 242.870 C 260.718 240.082,265.068 235.280,267.992 232.200 C 290.563 208.424,294.480 201.297,291.847 188.800 C 289.036 175.458,274.019 166.065,259.000 168.255 M143.210 169.217 C 155.981 170.788,170.495 178.183,174.126 184.967 L 175.000 186.600 175.000 215.400 C 175.000 251.842,176.526 248.249,160.867 248.675 C 149.101 248.995,149.981 249.369,142.523 240.890 C 139.500 237.455,134.209 231.664,130.765 228.022 C 114.274 210.586,110.604 204.822,110.123 195.600 C 109.234 178.569,123.937 166.846,143.210 169.217 M266.600 169.213 C 282.246 170.977,291.600 180.327,291.600 194.200 C 291.600 204.119,287.978 209.964,270.039 229.000 C 261.990 237.541,260.147 239.561,255.670 244.747 C 251.921 249.091,250.138 249.420,235.595 248.452 C 225.874 247.805,226.629 250.437,226.482 216.689 C 226.334 182.814,226.041 184.697,232.186 179.986 C 242.782 171.861,255.310 167.939,266.600 169.213 M169.733 296.829 C 153.876 297.497,131.573 299.623,125.417 301.054 C 122.988 301.619,119.560 302.423,117.800 302.840 C 103.903 306.138,95.587 315.872,94.046 330.643 C 92.762 342.953,93.106 350.039,95.064 351.579 L 96.108 352.400 201.085 352.400 L 306.062 352.400 307.231 351.231 L 308.400 350.062 308.398 344.931 C 308.390 317.850,300.739 305.783,281.289 302.174 C 279.370 301.818,276.360 301.183,274.600 300.762 C 269.262 299.486,246.360 297.386,231.400 296.801 C 219.976 296.355,180.586 296.372,169.733 296.829 M223.716 297.205 C 230.802 297.427,239.930 297.878,244.000 298.207 C 262.914 299.734,269.961 300.456,272.983 301.173 C 274.780 301.600,277.909 302.237,279.936 302.589 C 291.444 304.586,299.851 310.319,303.744 318.825 C 307.509 327.051,309.273 348.553,306.375 350.900 C 305.324 351.752,97.525 352.016,95.940 351.168 C 93.912 350.082,93.481 341.546,94.862 329.800 C 96.655 314.550,104.875 306.250,121.800 302.597 C 124.220 302.075,127.460 301.377,129.000 301.047 C 133.793 300.018,162.021 297.711,175.600 297.238 C 189.151 296.765,209.290 296.752,223.716 297.205 " stroke="none" fill="#bcbcbc" fill-rule="evenodd"></path></g></svg>