<svg id="svg" version="1.1" xmlns="http://www.w3.org/2000/svg" xmlns:xlink="http://www.w3.org/1999/xlink" width="400" height="400" viewBox="0, 0, 400,400"><g id="svgg"><path id="path0" d="M157.400 35.184 C 146.517 37.542,137.222 47.052,135.983 57.094 C 135.759 58.906,135.216 61.229,134.775 62.257 C 134.335 63.285,133.785 65.488,133.554 67.152 C 132.892 71.905,131.169 74.152,120.834 83.735 C 113.056 90.948,111.603 92.561,109.609 96.200 C 105.769 103.208,103.832 107.635,101.641 114.400 C 101.250 115.610,100.602 117.230,100.202 118.000 C 99.802 118.770,99.151 120.697,98.755 122.283 C 98.358 123.868,97.681 125.856,97.250 126.701 C 96.819 127.546,96.334 128.949,96.172 129.819 C 95.700 132.351,90.661 142.259,88.268 145.360 C 87.436 146.438,86.381 148.053,85.925 148.948 C 85.468 149.843,84.162 151.751,83.023 153.187 C 81.883 154.624,78.990 158.680,76.593 162.200 C 74.197 165.720,71.037 170.130,69.572 172.000 C 64.632 178.304,56.869 190.307,56.027 192.943 C 55.595 194.294,54.835 196.480,54.337 197.800 C 53.161 200.921,52.991 212.284,54.080 215.000 C 54.432 215.880,55.275 218.032,55.951 219.783 C 58.152 225.479,63.547 231.581,69.427 235.024 C 74.367 237.917,83.112 241.969,85.891 242.653 C 87.381 243.019,89.266 243.651,90.080 244.057 C 90.894 244.463,92.874 244.985,94.480 245.217 C 96.086 245.448,98.750 246.076,100.400 246.612 C 114.146 251.079,123.396 247.400,132.477 233.856 C 140.087 222.505,140.771 222.014,149.584 221.563 C 155.900 221.239,157.076 221.047,159.200 219.990 C 159.970 219.606,161.651 219.076,162.936 218.810 C 167.180 217.935,174.868 213.826,181.553 208.863 C 183.397 207.493,184.993 206.459,185.099 206.565 C 185.788 207.254,179.579 213.899,174.669 217.728 C 173.208 218.868,169.925 221.600,167.374 223.800 C 164.824 226.000,161.176 229.024,159.268 230.521 C 155.654 233.355,142.265 246.618,140.208 249.400 C 139.558 250.280,138.195 251.990,137.180 253.200 C 132.089 259.267,123.968 272.816,122.798 277.193 C 122.535 278.180,121.903 279.807,121.395 280.809 C 120.887 281.812,120.277 283.685,120.039 284.971 C 119.477 288.012,119.270 288.226,114.898 290.274 C 105.552 294.652,96.762 302.996,93.697 310.400 C 93.378 311.170,92.672 312.746,92.129 313.902 C 91.585 315.057,90.902 317.577,90.612 319.502 C 90.321 321.426,89.663 324.170,89.150 325.600 C 88.240 328.135,88.213 328.609,88.080 344.501 C 87.926 362.991,88.054 364.111,90.575 366.324 C 93.057 368.504,87.761 368.418,213.211 368.305 L 330.221 368.200 332.174 367.195 C 335.845 365.306,335.800 365.558,335.800 346.800 C 335.800 330.792,335.789 330.569,334.859 328.000 C 334.301 326.459,333.776 323.786,333.570 321.437 C 333.302 318.381,332.957 316.916,332.063 315.037 C 331.425 313.697,330.589 311.637,330.206 310.461 C 328.725 305.913,320.465 296.715,315.600 294.195 C 314.610 293.683,313.180 292.799,312.422 292.232 C 311.665 291.664,310.832 291.200,310.571 291.200 C 308.889 291.200,309.017 286.695,310.798 283.204 C 311.215 282.387,311.758 280.477,312.005 278.959 C 312.252 277.442,312.899 275.172,313.443 273.915 C 313.987 272.658,314.595 270.201,314.794 268.455 C 314.993 266.709,315.608 264.206,316.162 262.891 C 316.715 261.577,317.288 259.264,317.436 257.751 C 317.584 256.238,318.137 253.956,318.665 252.681 C 319.194 251.405,319.881 248.525,320.192 246.281 C 320.503 244.036,321.138 241.030,321.602 239.600 C 323.864 232.639,323.783 194.150,321.490 186.600 C 320.956 184.840,320.400 181.813,320.255 179.873 C 320.110 177.933,319.624 175.323,319.175 174.073 C 318.168 171.271,317.794 169.776,317.212 166.239 C 316.962 164.721,316.475 162.931,316.129 162.262 C 315.783 161.593,315.092 159.596,314.593 157.823 C 312.069 148.847,301.775 128.727,295.994 121.471 C 294.560 119.672,292.447 116.863,291.299 115.229 C 288.427 111.146,278.796 101.107,274.216 97.423 C 272.138 95.752,270.340 94.226,270.220 94.033 C 269.708 93.204,256.611 84.447,253.400 82.786 C 252.300 82.217,249.960 80.922,248.200 79.908 C 246.440 78.895,244.460 77.938,243.800 77.782 C 243.140 77.627,241.610 76.990,240.400 76.367 C 236.546 74.383,231.867 72.493,229.687 72.041 C 228.525 71.800,226.900 71.259,226.077 70.839 C 225.254 70.419,223.415 69.854,221.990 69.582 C 220.566 69.311,218.389 68.672,217.153 68.162 C 214.690 67.145,210.831 66.408,207.951 66.403 C 206.934 66.401,204.774 65.972,203.151 65.449 C 201.528 64.926,199.300 64.368,198.200 64.210 C 196.215 63.924,196.102 63.825,182.800 50.657 C 166.484 34.505,164.922 33.554,157.400 35.184 M161.905 35.875 C 161.522 35.975,160.802 35.979,160.305 35.883 C 159.807 35.787,160.120 35.705,161.000 35.701 C 161.880 35.696,162.287 35.775,161.905 35.875 M161.509 50.220 C 162.488 50.629,167.358 55.181,175.844 63.619 C 190.295 77.989,189.720 77.578,196.800 78.597 C 258.213 87.438,300.868 131.468,308.018 193.400 C 308.449 197.140,309.003 201.998,309.248 204.195 C 310.311 213.714,308.908 231.786,306.237 243.000 C 305.713 245.200,305.156 247.810,304.999 248.800 C 304.632 251.116,301.823 262.451,300.588 266.600 C 300.064 268.360,298.443 274.030,296.986 279.200 C 292.921 293.621,293.573 293.128,280.600 291.590 C 258.442 288.963,253.326 288.720,219.800 288.707 C 182.080 288.693,168.174 289.222,148.769 291.408 C 132.979 293.186,131.560 292.062,136.149 281.403 C 142.934 265.640,155.918 250.983,181.400 230.316 C 202.302 213.364,208.881 197.641,201.587 182.075 C 197.760 173.909,198.027 173.865,187.660 184.363 C 176.380 195.784,168.464 201.853,160.756 204.991 C 157.058 206.496,154.741 206.939,147.000 207.625 C 134.250 208.753,130.291 211.263,122.117 223.400 C 114.331 234.961,111.568 235.818,96.400 231.369 C 75.579 225.262,67.235 218.064,67.206 206.184 C 67.190 199.718,68.595 197.202,84.842 174.600 C 99.835 153.741,102.828 149.107,106.281 141.400 C 107.964 137.643,108.358 136.586,113.433 122.200 C 119.677 104.500,121.899 101.172,135.331 89.392 C 143.038 82.634,146.016 76.893,148.402 64.200 C 149.829 56.611,152.878 51.675,157.062 50.183 C 159.068 49.468,159.723 49.474,161.509 50.220 M117.600 88.119 C 117.600 88.184,116.835 88.949,115.900 89.819 L 114.200 91.400 115.781 89.700 C 117.252 88.119,117.600 87.816,117.600 88.119 M157.349 114.163 C 151.767 116.762,144.481 129.131,147.561 130.779 C 148.031 131.031,148.638 131.098,148.908 130.927 C 149.179 130.757,152.550 130.605,156.400 130.590 C 164.484 130.559,166.672 129.995,169.549 127.203 C 176.455 120.501,166.527 109.889,157.349 114.163 M322.291 204.300 C 322.205 205.125,322.134 204.450,322.134 202.800 C 322.134 201.150,322.205 200.475,322.291 201.300 C 322.378 202.125,322.378 203.475,322.291 204.300 M54.293 208.500 C 54.209 209.435,54.140 208.670,54.140 206.800 C 54.140 204.930,54.209 204.165,54.293 205.100 C 54.377 206.035,54.377 207.565,54.293 208.500 M322.291 227.900 C 322.205 228.725,322.134 228.050,322.134 226.400 C 322.134 224.750,322.205 224.075,322.291 224.900 C 322.378 225.725,322.378 227.075,322.291 227.900 M156.800 234.104 C 156.800 234.162,153.695 237.267,149.900 241.004 L 143.000 247.800 149.796 240.900 C 156.109 234.490,156.800 233.819,156.800 234.104 M228.965 293.998 C 250.393 294.505,261.452 295.056,269.000 295.996 C 272.300 296.406,277.070 296.939,279.600 297.180 C 308.610 299.945,320.359 310.790,321.659 336.000 C 322.377 349.941,321.881 352.966,318.630 354.442 C 316.750 355.296,109.022 355.646,105.977 354.800 C 101.737 353.622,101.109 350.703,102.023 336.411 C 103.669 310.646,115.451 299.637,144.000 297.189 C 146.750 296.953,151.700 296.418,155.000 296.001 C 163.524 294.922,180.234 294.195,208.765 293.663 C 210.615 293.628,219.705 293.779,228.965 293.998 M89.087 334.295 C 88.995 334.903,88.917 334.500,88.914 333.400 C 88.911 332.300,88.987 331.803,89.082 332.295 C 89.177 332.786,89.179 333.686,89.087 334.295 M335.082 337.700 C 334.987 338.195,334.909 337.790,334.909 336.800 C 334.909 335.810,334.987 335.405,335.082 335.900 C 335.178 336.395,335.178 337.205,335.082 337.700 " stroke="none" fill="#474747" fill-rule="evenodd"></path><path id="path1" d="M160.305 35.883 C 160.802 35.979,161.522 35.975,161.905 35.875 C 162.287 35.775,161.880 35.696,161.000 35.701 C 160.120 35.705,159.807 35.787,160.305 35.883 M157.062 50.183 C 152.878 51.675,149.829 56.611,148.402 64.200 C 146.016 76.893,143.038 82.634,135.331 89.392 C 121.899 101.172,119.677 104.500,113.433 122.200 C 108.358 136.586,107.964 137.643,106.281 141.400 C 102.828 149.107,99.835 153.741,84.842 174.600 C 68.595 197.202,67.190 199.718,67.206 206.184 C 67.235 218.064,75.579 225.262,96.400 231.369 C 111.568 235.818,114.331 234.961,122.117 223.400 C 130.291 211.263,134.250 208.753,147.000 207.625 C 154.741 206.939,157.058 206.496,160.756 204.991 C 168.464 201.853,176.380 195.784,187.660 184.363 C 198.027 173.865,197.760 173.909,201.587 182.075 C 208.881 197.641,202.302 213.364,181.400 230.316 C 155.918 250.983,142.934 265.640,136.149 281.403 C 131.560 292.062,132.979 293.186,148.769 291.408 C 168.174 289.222,182.080 288.693,219.800 288.707 C 253.326 288.720,258.442 288.963,280.600 291.590 C 293.573 293.128,292.921 293.621,296.986 279.200 C 298.443 274.030,300.064 268.360,300.588 266.600 C 301.823 262.451,304.632 251.116,304.999 248.800 C 305.156 247.810,305.713 245.200,306.237 243.000 C 308.908 231.786,310.311 213.714,309.248 204.195 C 309.003 201.998,308.449 197.140,308.018 193.400 C 300.868 131.468,258.213 87.438,196.800 78.597 C 189.720 77.578,190.295 77.989,175.844 63.619 C 161.219 49.077,160.869 48.826,157.062 50.183 M161.074 52.025 C 161.693 52.259,167.960 58.179,175.000 65.181 C 189.233 79.337,189.052 79.204,195.400 80.190 C 259.152 90.088,300.026 133.613,306.378 198.365 C 308.705 222.078,307.025 235.077,296.943 271.400 C 291.081 292.518,292.450 291.124,279.446 289.209 C 274.130 288.426,265.712 287.720,251.000 286.823 C 231.407 285.629,165.843 287.411,148.000 289.622 C 135.381 291.186,134.454 290.609,137.443 283.050 C 143.414 267.945,156.247 253.221,181.180 232.869 C 204.913 213.497,211.654 196.874,202.782 179.603 C 198.634 171.528,197.014 171.547,189.672 179.754 C 179.772 190.822,168.210 200.018,160.124 203.256 C 156.333 204.774,154.481 205.095,146.800 205.569 C 133.683 206.378,129.088 209.245,120.688 221.860 C 113.438 232.746,111.776 233.477,100.717 230.632 C 80.145 225.342,70.693 218.818,69.175 208.864 C 68.201 202.474,69.810 198.765,79.355 185.400 C 99.402 157.330,102.408 152.897,105.670 146.589 C 107.855 142.364,111.600 133.682,111.600 132.841 C 111.600 131.923,118.584 113.130,120.189 109.729 C 123.220 103.307,125.022 101.134,134.276 92.740 C 145.061 82.958,147.050 79.424,150.220 64.400 C 152.256 54.754,156.248 50.203,161.074 52.025 M115.781 89.700 L 114.200 91.400 115.900 89.819 C 117.481 88.348,117.784 88.000,117.481 88.000 C 117.416 88.000,116.651 88.765,115.781 89.700 M157.529 112.128 C 153.208 113.953,149.944 117.326,147.219 122.783 C 142.921 131.390,143.468 134.066,149.299 132.955 C 151.037 132.623,154.342 132.444,157.774 132.496 C 165.368 132.609,169.479 130.984,172.269 126.767 C 177.591 118.726,166.944 108.152,157.529 112.128 M166.222 114.149 C 171.955 116.819,173.599 123.272,169.549 127.203 C 166.672 129.995,164.484 130.559,156.400 130.590 C 152.550 130.605,149.179 130.757,148.908 130.927 C 147.767 131.646,146.692 130.417,146.927 128.661 C 148.249 118.757,158.906 110.743,166.222 114.149 M322.134 202.800 C 322.134 204.450,322.205 205.125,322.291 204.300 C 322.378 203.475,322.378 202.125,322.291 201.300 C 322.205 200.475,322.134 201.150,322.134 202.800 M54.140 206.800 C 54.140 208.670,54.209 209.435,54.293 208.500 C 54.377 207.565,54.377 206.035,54.293 205.100 C 54.209 204.165,54.140 204.930,54.140 206.800 M322.134 226.400 C 322.134 228.050,322.205 228.725,322.291 227.900 C 322.378 227.075,322.378 225.725,322.291 224.900 C 322.205 224.075,322.134 224.750,322.134 226.400 M149.796 240.900 L 143.000 247.800 149.900 241.004 C 153.695 237.267,156.800 234.162,156.800 234.104 C 156.800 233.819,156.109 234.490,149.796 240.900 M192.400 294.035 C 174.300 294.465,162.035 295.110,155.000 296.001 C 151.700 296.418,146.750 296.953,144.000 297.189 C 115.451 299.637,103.669 310.646,102.023 336.411 C 101.109 350.703,101.737 353.622,105.977 354.800 C 109.022 355.646,316.750 355.296,318.630 354.442 C 321.881 352.966,322.377 349.941,321.659 336.000 C 320.359 310.790,308.610 299.945,279.600 297.180 C 277.070 296.939,272.300 296.406,269.000 295.996 C 260.026 294.879,222.167 293.413,208.765 293.663 C 206.914 293.697,199.550 293.865,192.400 294.035 M233.200 295.820 C 290.115 296.833,311.529 303.170,317.376 320.727 C 320.515 330.152,321.358 348.867,318.774 351.759 L 317.666 353.000 212.417 353.102 C 96.189 353.215,105.556 353.423,104.148 350.699 C 103.386 349.226,103.574 334.172,104.426 328.402 C 107.063 310.545,119.970 301.133,145.000 298.814 C 147.640 298.569,153.220 298.025,157.400 297.606 C 171.591 296.180,201.308 295.065,215.000 295.444 C 217.860 295.524,226.050 295.693,233.200 295.820 M88.914 333.400 C 88.917 334.500,88.995 334.903,89.087 334.295 C 89.179 333.686,89.177 332.786,89.082 332.295 C 88.987 331.803,88.911 332.300,88.914 333.400 M334.909 336.800 C 334.909 337.790,334.987 338.195,335.082 337.700 C 335.178 337.205,335.178 336.395,335.082 335.900 C 334.987 335.405,334.909 335.810,334.909 336.800 " stroke="none" fill="#949494" fill-rule="evenodd"></path><path id="path2" d="M156.229 54.428 C 153.454 56.864,152.810 58.499,150.813 68.163 C 148.528 79.224,145.029 85.045,135.721 93.275 C 123.455 104.120,122.094 106.440,113.693 130.823 C 108.134 146.960,106.011 150.518,81.846 184.200 C 77.452 190.325,73.607 196.149,72.492 198.367 L 70.600 202.134 70.600 206.367 C 70.600 217.002,79.040 223.436,100.372 229.063 C 111.617 232.029,112.291 231.663,121.200 217.750 C 128.344 206.593,133.107 204.023,147.400 203.611 C 162.093 203.188,172.059 197.150,188.958 178.431 C 194.320 172.491,195.474 171.600,197.800 171.600 C 205.338 171.600,210.655 190.404,206.622 202.800 C 202.874 214.321,196.795 221.775,179.400 236.176 C 158.325 253.625,144.451 269.591,139.331 282.287 C 136.471 289.381,136.550 289.421,150.400 287.847 C 155.530 287.265,161.337 286.851,177.200 285.941 C 181.050 285.720,195.180 285.400,208.600 285.229 C 224.533 285.027,233.555 284.763,234.600 284.469 C 236.835 283.840,244.876 283.892,252.749 284.586 C 256.407 284.909,262.820 285.363,267.000 285.595 C 271.180 285.827,277.521 286.487,281.091 287.061 C 289.659 288.439,290.073 288.279,291.181 283.153 C 291.400 282.137,292.018 279.887,292.554 278.153 C 303.998 241.123,307.543 211.995,303.185 190.800 C 302.755 188.710,302.126 185.200,301.786 183.000 C 299.836 170.375,293.964 154.427,286.616 141.800 C 267.251 108.523,236.109 88.359,193.041 81.214 C 188.495 80.460,187.836 79.939,173.969 66.154 C 159.182 51.455,159.429 51.618,156.229 54.428 M173.580 67.354 C 188.834 82.532,186.527 81.083,199.479 83.624 C 227.883 89.198,247.552 100.136,262.298 118.560 C 269.661 127.758,277.244 143.930,278.795 153.741 C 279.034 155.249,279.492 157.589,279.814 158.941 C 281.873 167.592,281.864 185.116,279.795 195.800 C 279.284 198.440,278.748 201.320,278.604 202.200 C 278.157 204.945,271.983 222.846,270.390 226.017 C 269.159 228.467,258.395 244.932,249.482 258.000 C 244.950 264.644,241.412 270.481,238.821 275.585 C 234.321 284.455,235.868 284.000,210.240 284.000 C 191.596 284.000,181.936 284.291,170.200 285.208 C 167.340 285.431,161.940 285.789,158.200 286.003 C 154.460 286.216,148.907 286.703,145.859 287.084 C 138.208 288.039,137.996 287.658,141.801 279.800 C 148.314 266.352,159.338 254.381,184.400 233.544 C 201.811 219.069,208.481 208.117,209.604 192.160 C 210.100 185.114,210.252 183.965,211.402 178.600 C 214.619 163.594,215.126 158.177,213.711 153.977 C 212.411 150.120,210.944 150.488,208.370 155.317 C 203.840 163.816,199.894 168.871,197.032 169.842 C 194.684 170.638,192.905 172.222,187.192 178.600 C 177.430 189.499,165.866 198.463,157.961 201.261 C 152.195 203.301,148.152 202.779,140.630 199.024 C 135.218 196.322,133.311 195.982,130.806 197.274 C 127.914 198.766,126.775 200.603,123.452 209.135 C 122.223 212.290,116.583 222.195,114.208 225.368 C 110.862 229.839,109.134 230.154,100.600 227.848 C 80.943 222.538,72.890 217.105,71.645 208.316 C 70.748 201.982,71.397 200.703,85.603 180.800 C 107.604 149.975,109.324 147.018,115.133 130.000 C 122.724 107.761,124.312 104.911,133.932 96.272 C 146.552 84.939,149.225 80.732,151.975 67.875 C 153.812 59.287,154.476 57.519,156.547 55.700 C 159.451 53.151,158.985 52.832,173.580 67.354 M157.396 109.311 C 150.567 111.921,145.612 117.948,142.391 127.564 C 139.811 135.264,141.727 138.387,147.650 136.134 C 148.964 135.634,151.346 135.410,157.222 135.234 L 165.043 135.000 168.085 133.496 C 175.481 129.840,178.172 123.341,175.035 116.711 C 172.080 110.463,163.643 106.924,157.396 109.311 M165.679 110.427 C 175.318 113.674,178.274 123.910,171.334 130.004 C 167.823 133.087,165.423 133.772,157.200 134.037 C 153.130 134.169,148.803 134.513,147.585 134.803 C 141.578 136.231,141.025 132.233,145.872 122.430 C 150.812 112.442,158.261 107.928,165.679 110.427 M183.600 297.214 C 168.097 297.780,143.559 300.059,135.811 301.653 C 113.290 306.286,106.309 314.565,105.126 338.045 C 104.647 347.550,104.791 349.227,106.208 350.645 L 107.164 351.600 211.906 351.600 C 316.573 351.600,316.650 351.599,317.520 350.789 C 318.820 349.578,318.918 348.669,318.698 339.874 C 317.861 306.335,305.655 299.790,239.127 297.206 C 227.868 296.769,195.664 296.773,183.600 297.214 M236.800 298.211 C 242.190 298.330,249.570 298.682,253.200 298.993 C 256.830 299.304,262.320 299.755,265.400 299.996 C 276.355 300.853,279.091 301.185,286.617 302.565 C 309.865 306.830,316.963 315.491,317.503 340.256 C 317.682 348.451,317.662 348.738,316.844 349.556 L 316.000 350.400 212.044 350.400 C 110.307 350.400,108.068 350.384,107.144 349.636 C 105.952 348.671,105.711 344.318,106.353 335.353 C 107.847 314.480,115.344 306.579,137.600 302.421 C 143.601 301.299,146.980 300.908,158.400 300.015 C 161.370 299.782,167.130 299.303,171.200 298.949 C 183.733 297.860,208.363 297.583,236.800 298.211 " stroke="none" fill="#d4d4d4" fill-rule="evenodd"></path><path id="path3" d="M157.000 52.227 C 153.529 54.026,151.727 57.261,150.220 64.400 C 147.050 79.424,145.061 82.958,134.276 92.740 C 125.022 101.134,123.220 103.307,120.189 109.729 C 118.584 113.130,111.600 131.923,111.600 132.841 C 111.600 133.682,107.855 142.364,105.670 146.589 C 102.408 152.897,99.402 157.330,79.355 185.400 C 69.810 198.765,68.201 202.474,69.175 208.864 C 70.693 218.818,80.145 225.342,100.717 230.632 C 111.776 233.477,113.438 232.746,120.688 221.860 C 129.088 209.245,133.683 206.378,146.800 205.569 C 154.481 205.095,156.333 204.774,160.124 203.256 C 168.210 200.018,179.772 190.822,189.672 179.754 C 197.014 171.547,198.634 171.528,202.782 179.603 C 211.654 196.874,204.913 213.497,181.180 232.869 C 156.247 253.221,143.414 267.945,137.443 283.050 C 134.454 290.609,135.381 291.186,148.000 289.622 C 165.843 287.411,231.407 285.629,251.000 286.823 C 265.712 287.720,274.130 288.426,279.446 289.209 C 292.450 291.124,291.081 292.518,296.943 271.400 C 307.025 235.077,308.705 222.078,306.378 198.365 C 300.026 133.613,259.152 90.088,195.400 80.190 C 189.052 79.204,189.233 79.337,175.000 65.181 C 160.762 51.020,160.162 50.588,157.000 52.227 M174.600 65.584 C 188.501 79.351,188.898 79.665,193.400 80.399 C 254.514 90.368,293.266 127.180,303.766 185.238 C 308.816 213.164,307.217 231.477,296.315 270.600 C 294.353 277.640,292.495 284.308,292.186 285.419 C 291.005 289.665,289.920 289.920,279.327 288.433 C 268.957 286.977,250.693 285.776,240.400 285.874 C 236.110 285.914,227.386 285.953,221.014 285.959 C 190.371 285.988,162.262 287.225,145.949 289.261 C 135.188 290.604,134.661 289.605,140.222 278.400 C 147.023 264.698,159.166 251.510,182.397 232.594 C 205.780 213.555,212.478 195.952,203.072 178.255 C 199.041 170.670,196.934 170.818,189.406 179.211 C 173.411 197.041,160.783 204.770,147.600 204.796 C 134.803 204.821,128.762 208.345,120.854 220.400 C 112.993 232.384,111.682 232.977,99.936 229.867 C 77.779 224.000,69.113 216.946,69.673 205.232 C 69.945 199.548,70.191 199.124,86.516 176.267 C 105.681 149.433,107.654 145.979,113.401 129.200 C 121.486 105.594,122.475 103.983,136.718 91.214 C 140.972 87.400,145.021 82.271,146.993 78.200 C 148.376 75.346,148.748 74.005,150.607 65.200 C 152.612 55.702,155.726 51.616,160.400 52.353 C 161.068 52.459,165.786 56.855,174.600 65.584 M159.968 110.842 C 154.774 111.613,149.991 115.922,146.475 123.000 C 141.966 132.076,142.877 135.364,149.400 133.551 C 150.280 133.306,153.970 133.082,157.600 133.053 C 164.959 132.994,167.432 132.279,170.943 129.197 C 178.920 122.193,171.142 109.185,159.968 110.842 M167.576 112.819 C 174.742 116.639,175.739 125.107,169.550 129.590 C 166.135 132.064,164.009 132.589,157.774 132.496 C 154.342 132.444,151.037 132.623,149.299 132.955 C 143.468 134.066,142.921 131.390,147.219 122.783 C 152.242 112.724,160.142 108.857,167.576 112.819 M195.200 295.616 C 178.482 295.978,168.238 296.517,157.400 297.606 C 153.220 298.025,147.640 298.569,145.000 298.814 C 119.970 301.133,107.063 310.545,104.426 328.402 C 103.574 334.172,103.386 349.226,104.148 350.699 C 105.556 353.423,96.189 353.215,212.417 353.102 L 317.666 353.000 318.774 351.759 C 321.358 348.867,320.515 330.152,317.376 320.727 C 311.529 303.170,290.115 296.833,233.200 295.820 C 226.050 295.693,217.860 295.524,215.000 295.444 C 212.140 295.365,203.230 295.443,195.200 295.616 M238.600 296.400 C 306.512 298.879,319.302 305.917,319.379 340.856 C 319.403 351.465,319.373 351.581,316.440 352.396 C 314.860 352.835,110.540 352.980,107.903 352.544 C 104.158 351.925,103.693 350.014,104.320 337.800 C 105.358 317.558,110.376 309.287,124.931 303.836 C 132.378 301.047,138.501 299.929,154.600 298.419 C 178.820 296.148,210.702 295.381,238.600 296.400 " stroke="none" fill="#a4a4a4" fill-rule="evenodd"></path><path id="path4" d="M157.303 56.575 C 155.420 58.159,154.710 60.344,152.215 72.225 C 150.667 79.594,147.076 85.517,140.224 92.000 C 123.953 107.395,124.303 106.832,116.039 131.000 C 110.502 147.194,108.170 151.242,88.375 179.000 C 72.884 200.725,72.545 201.325,72.884 206.477 C 73.409 214.465,78.949 219.177,93.800 224.266 C 98.925 226.023,107.332 227.990,108.499 227.706 C 111.500 226.976,117.549 216.674,120.963 206.477 C 125.719 192.275,132.195 189.758,144.492 197.334 C 150.650 201.128,152.187 201.461,156.858 200.011 C 165.086 197.456,176.396 188.359,189.357 173.870 C 191.093 171.929,193.497 169.615,194.699 168.727 C 197.054 166.987,201.716 160.317,205.234 153.656 C 212.280 140.313,218.882 145.684,217.547 163.674 C 217.237 167.847,214.532 181.751,213.006 187.019 C 212.457 188.911,211.637 192.650,211.183 195.329 C 208.619 210.439,201.416 221.693,186.542 233.828 C 162.004 253.849,150.628 266.035,143.485 279.953 C 141.049 284.699,141.090 285.407,143.800 285.382 C 147.271 285.350,161.549 284.416,168.000 283.799 C 179.113 282.736,189.070 282.400,209.410 282.400 C 233.924 282.400,230.967 283.307,235.600 274.364 C 237.470 270.754,239.558 266.990,240.239 266.000 C 240.921 265.010,242.580 262.359,243.925 260.109 C 245.271 257.859,247.247 254.889,248.315 253.509 C 266.425 230.128,275.130 210.045,277.405 186.400 C 277.712 183.210,278.080 179.430,278.223 178.000 C 278.484 175.384,277.745 168.542,276.019 157.600 C 270.589 123.184,240.229 93.239,203.451 86.023 C 192.433 83.861,188.071 82.857,186.728 82.173 C 185.166 81.377,168.429 64.898,164.271 60.061 C 160.344 55.495,159.242 54.943,157.303 56.575 M167.296 107.960 C 179.959 112.890,181.705 127.324,170.446 133.996 C 166.576 136.290,164.111 136.800,156.908 136.800 C 151.407 136.800,150.494 136.902,147.923 137.800 C 138.893 140.955,136.855 135.366,142.478 122.872 C 146.116 114.790,150.791 110.114,157.996 107.354 C 160.007 106.583,164.512 106.877,167.296 107.960 M186.800 299.225 C 182.070 299.389,176.490 299.716,174.400 299.952 C 172.310 300.187,165.290 300.745,158.800 301.192 C 152.310 301.639,146.460 302.093,145.800 302.201 C 119.668 306.466,113.236 310.651,109.309 325.944 C 107.756 331.990,106.908 345.960,107.973 347.950 L 108.428 348.800 211.786 348.800 C 305.213 348.800,315.203 348.740,315.771 348.171 C 317.128 346.815,316.448 335.873,314.370 325.600 C 311.844 313.108,303.657 306.668,286.600 303.757 C 276.670 302.062,273.740 301.704,265.800 301.215 C 261.620 300.958,255.410 300.491,252.000 300.177 C 238.192 298.906,208.503 298.473,186.800 299.225 " stroke="none" fill="#fcfcfc" fill-rule="evenodd"></path><path id="path5" d="M158.329 52.322 C 155.020 52.711,152.278 57.284,150.607 65.200 C 148.748 74.005,148.376 75.346,146.993 78.200 C 145.021 82.271,140.972 87.400,136.718 91.214 C 122.475 103.983,121.486 105.594,113.401 129.200 C 107.654 145.979,105.681 149.433,86.516 176.267 C 70.191 199.124,69.945 199.548,69.673 205.232 C 69.113 216.946,77.779 224.000,99.936 229.867 C 111.682 232.977,112.993 232.384,120.854 220.400 C 128.762 208.345,134.803 204.821,147.600 204.796 C 160.783 204.770,173.411 197.041,189.406 179.211 C 196.934 170.818,199.041 170.670,203.072 178.255 C 212.478 195.952,205.780 213.555,182.397 232.594 C 159.166 251.510,147.023 264.698,140.222 278.400 C 134.661 289.605,135.188 290.604,145.949 289.261 C 162.262 287.225,190.371 285.988,221.014 285.959 C 227.386 285.953,236.110 285.914,240.400 285.874 C 250.693 285.776,268.957 286.977,279.327 288.433 C 289.920 289.920,291.005 289.665,292.186 285.419 C 292.495 284.308,294.353 277.640,296.315 270.600 C 307.217 231.477,308.816 213.164,303.766 185.238 C 293.266 127.180,254.514 90.368,193.400 80.399 C 188.898 79.665,188.501 79.351,174.600 65.584 C 161.308 52.420,160.827 52.028,158.329 52.322 M173.969 66.154 C 187.836 79.939,188.495 80.460,193.041 81.214 C 231.641 87.618,259.971 104.059,280.207 131.800 C 290.497 145.908,299.272 166.727,301.786 183.000 C 302.126 185.200,302.755 188.710,303.185 190.800 C 307.543 211.995,303.998 241.123,292.554 278.153 C 292.018 279.887,291.400 282.137,291.181 283.153 C 290.073 288.279,289.659 288.439,281.091 287.061 C 277.521 286.487,271.180 285.827,267.000 285.595 C 262.820 285.363,256.407 284.909,252.749 284.586 C 244.876 283.892,236.835 283.840,234.600 284.469 C 233.555 284.763,224.533 285.027,208.600 285.229 C 195.180 285.400,181.050 285.720,177.200 285.941 C 161.337 286.851,155.530 287.265,150.400 287.847 C 136.550 289.421,136.471 289.381,139.331 282.287 C 144.451 269.591,158.325 253.625,179.400 236.176 C 190.208 227.228,194.562 223.060,198.670 217.726 C 208.431 205.052,210.805 190.358,204.969 178.739 C 200.042 168.928,197.579 168.881,188.958 178.431 C 172.059 197.150,162.093 203.188,147.400 203.611 C 133.107 204.023,128.344 206.593,121.200 217.750 C 112.291 231.663,111.617 232.029,100.372 229.063 C 79.040 223.436,70.600 217.002,70.600 206.367 L 70.600 202.134 72.492 198.367 C 73.607 196.149,77.452 190.325,81.846 184.200 C 106.011 150.518,108.134 146.960,113.693 130.823 C 122.094 106.440,123.455 104.120,135.721 93.275 C 145.029 85.045,148.528 79.224,150.813 68.163 C 152.810 58.499,153.454 56.864,156.229 54.428 C 159.429 51.618,159.182 51.455,173.969 66.154 M158.600 110.161 C 153.188 111.877,149.181 115.740,145.872 122.430 C 141.025 132.233,141.578 136.231,147.585 134.803 C 148.803 134.513,153.130 134.169,157.200 134.037 C 166.875 133.725,170.874 132.029,173.829 126.986 C 178.782 118.535,168.392 107.056,158.600 110.161 M167.336 111.971 C 174.728 115.560,176.552 124.272,170.943 129.197 C 167.432 132.279,164.959 132.994,157.600 133.053 C 153.970 133.082,150.280 133.306,149.400 133.551 C 142.877 135.364,141.966 132.076,146.475 123.000 C 151.661 112.561,159.746 108.287,167.336 111.971 M183.800 296.419 C 172.556 296.808,155.377 298.143,142.704 299.612 C 115.393 302.779,105.617 312.505,104.320 337.800 C 103.693 350.014,104.158 351.925,107.903 352.544 C 110.540 352.980,314.860 352.835,316.440 352.396 C 319.373 351.581,319.403 351.465,319.379 340.856 C 319.331 319.125,314.107 309.687,298.800 303.680 C 284.129 297.922,233.254 294.710,183.800 296.419 M239.127 297.206 C 289.012 299.144,306.589 303.742,314.140 316.832 C 318.365 324.158,320.719 347.808,317.520 350.789 C 316.650 351.599,316.573 351.600,211.906 351.600 L 107.164 351.600 106.208 350.645 C 103.142 347.579,105.165 326.104,109.321 317.602 C 115.500 304.961,126.237 301.477,169.800 297.980 C 183.565 296.875,220.100 296.467,239.127 297.206 " stroke="none" fill="#b4b4b4" fill-rule="evenodd"></path><path id="path6" d="M156.547 55.700 C 154.476 57.519,153.812 59.287,151.975 67.875 C 149.225 80.732,146.552 84.939,133.932 96.272 C 124.312 104.911,122.724 107.761,115.133 130.000 C 109.324 147.018,107.604 149.975,85.603 180.800 C 71.397 200.703,70.748 201.982,71.645 208.316 C 72.890 217.105,80.943 222.538,100.600 227.848 C 109.134 230.154,110.862 229.839,114.208 225.368 C 116.583 222.195,122.223 212.290,123.452 209.135 C 126.775 200.603,127.914 198.766,130.806 197.274 C 133.311 195.982,135.218 196.322,140.630 199.024 C 148.152 202.779,152.195 203.301,157.961 201.261 C 165.866 198.463,177.430 189.499,187.192 178.600 C 192.905 172.222,194.684 170.638,197.032 169.842 C 199.894 168.871,203.840 163.816,208.370 155.317 C 210.944 150.488,212.411 150.120,213.711 153.977 C 215.126 158.177,214.619 163.594,211.402 178.600 C 210.252 183.965,210.100 185.114,209.604 192.160 C 208.481 208.117,201.811 219.069,184.400 233.544 C 159.338 254.381,148.314 266.352,141.801 279.800 C 137.996 287.658,138.208 288.039,145.859 287.084 C 148.907 286.703,154.460 286.216,158.200 286.003 C 161.940 285.789,167.340 285.431,170.200 285.208 C 181.936 284.291,191.596 284.000,210.240 284.000 C 235.868 284.000,234.321 284.455,238.821 275.585 C 241.412 270.481,244.950 264.644,249.482 258.000 C 258.395 244.932,269.159 228.467,270.390 226.017 C 271.983 222.846,278.157 204.945,278.604 202.200 C 278.748 201.320,279.284 198.440,279.795 195.800 C 281.864 185.116,281.873 167.592,279.814 158.941 C 279.492 157.589,279.034 155.249,278.795 153.741 C 277.774 147.281,273.076 135.615,267.613 125.975 C 255.918 105.336,230.910 89.792,199.479 83.624 C 186.527 81.083,188.834 82.532,173.580 67.354 C 158.985 52.832,159.451 53.151,156.547 55.700 M160.320 56.161 C 160.914 56.470,162.692 58.225,164.271 60.061 C 168.429 64.898,185.166 81.377,186.728 82.173 C 188.071 82.857,192.433 83.861,203.451 86.023 C 240.229 93.239,270.589 123.184,276.019 157.600 C 277.745 168.542,278.484 175.384,278.223 178.000 C 278.080 179.430,277.712 183.210,277.405 186.400 C 276.070 200.279,272.047 215.003,266.860 225.000 C 264.567 229.419,251.947 248.820,248.315 253.509 C 247.247 254.889,245.271 257.859,243.925 260.109 C 242.580 262.359,240.921 265.010,240.239 266.000 C 239.558 266.990,237.470 270.754,235.600 274.364 C 230.967 283.307,233.924 282.400,209.410 282.400 C 189.070 282.400,179.113 282.736,168.000 283.799 C 161.549 284.416,147.271 285.350,143.800 285.382 C 141.090 285.407,141.049 284.699,143.485 279.953 C 150.628 266.035,162.004 253.849,186.542 233.828 C 201.416 221.693,208.619 210.439,211.183 195.329 C 211.637 192.650,212.457 188.911,213.006 187.019 C 217.942 169.986,219.055 150.888,215.309 147.498 C 212.157 144.646,208.960 146.600,205.234 153.656 C 201.716 160.317,197.054 166.987,194.699 168.727 C 193.497 169.615,191.093 171.929,189.357 173.870 C 176.396 188.359,165.086 197.456,156.858 200.011 C 152.187 201.461,150.650 201.128,144.492 197.334 C 132.195 189.758,125.719 192.275,120.963 206.477 C 117.549 216.674,111.500 226.976,108.499 227.706 C 107.332 227.990,98.925 226.023,93.800 224.266 C 78.949 219.177,73.409 214.465,72.884 206.477 C 72.545 201.325,72.884 200.725,88.375 179.000 C 108.170 151.242,110.502 147.194,116.039 131.000 C 124.303 106.832,123.953 107.395,140.224 92.000 C 147.076 85.517,150.667 79.594,152.215 72.225 C 155.378 57.161,156.804 54.334,160.320 56.161 M157.996 107.354 C 150.791 110.114,146.116 114.790,142.478 122.872 C 136.855 135.366,138.893 140.955,147.923 137.800 C 150.494 136.902,151.407 136.800,156.908 136.800 C 172.162 136.800,180.868 128.637,177.196 117.778 C 174.676 110.322,164.568 104.835,157.996 107.354 M167.664 109.903 C 179.039 115.087,179.269 127.967,168.085 133.496 L 165.043 135.000 157.222 135.234 C 151.346 135.410,148.964 135.634,147.650 136.134 C 141.727 138.387,139.811 135.264,142.391 127.564 C 147.411 112.580,157.724 105.373,167.664 109.903 M193.800 298.019 C 185.440 298.177,175.270 298.595,171.200 298.949 C 167.130 299.303,161.370 299.782,158.400 300.015 C 146.980 300.908,143.601 301.299,137.600 302.421 C 115.344 306.579,107.847 314.480,106.353 335.353 C 105.711 344.318,105.952 348.671,107.144 349.636 C 108.068 350.384,110.307 350.400,212.044 350.400 L 316.000 350.400 316.844 349.556 C 317.662 348.738,317.682 348.451,317.503 340.256 C 316.963 315.491,309.865 306.830,286.617 302.565 C 279.091 301.185,276.355 300.853,265.400 299.996 C 262.320 299.755,256.830 299.304,253.200 298.993 C 242.126 298.044,215.571 297.609,193.800 298.019 M235.200 299.205 C 241.030 299.425,248.590 299.863,252.000 300.177 C 255.410 300.491,261.620 300.958,265.800 301.215 C 273.740 301.704,276.670 302.062,286.600 303.757 C 303.657 306.668,311.844 313.108,314.370 325.600 C 316.448 335.873,317.128 346.815,315.771 348.171 C 315.203 348.740,305.213 348.800,211.786 348.800 L 108.428 348.800 107.973 347.950 C 106.908 345.960,107.756 331.990,109.309 325.944 C 113.236 310.651,119.668 306.466,145.800 302.201 C 146.460 302.093,152.310 301.639,158.800 301.192 C 165.290 300.745,172.310 300.187,174.400 299.952 C 183.509 298.926,216.986 298.514,235.200 299.205 " stroke="none" fill="#e4e4e4" fill-rule="evenodd"></path></g></svg>