<svg id="svg" version="1.1" xmlns="http://www.w3.org/2000/svg" xmlns:xlink="http://www.w3.org/1999/xlink" width="400" height="400" viewBox="0, 0, 400,400"><g id="svgg"><path id="path0" d="M192.000 84.016 C 190.790 84.451,188.180 84.999,186.200 85.234 C 184.220 85.469,181.520 86.090,180.200 86.614 C 178.880 87.138,176.720 87.903,175.400 88.314 C 174.080 88.725,171.740 89.841,170.200 90.794 C 168.660 91.747,166.115 93.311,164.544 94.270 C 157.327 98.677,147.223 110.464,144.146 118.065 C 143.582 119.459,142.933 120.829,142.703 121.110 C 142.474 121.390,141.877 123.100,141.376 124.910 C 140.875 126.719,140.046 129.280,139.533 130.600 C 138.091 134.311,138.091 156.489,139.533 160.200 C 140.046 161.520,140.875 164.081,141.376 165.890 C 141.877 167.700,142.470 169.410,142.695 169.690 C 142.920 169.971,143.632 171.460,144.278 173.000 C 144.923 174.540,146.475 177.381,147.725 179.314 C 150.524 183.637,150.524 183.641,147.700 185.445 C 146.435 186.253,144.680 187.496,143.800 188.207 C 142.920 188.919,141.570 189.818,140.800 190.206 C 136.663 192.292,130.681 197.143,129.463 199.400 C 128.196 201.749,128.214 209.625,129.498 214.200 C 129.992 215.960,130.656 218.480,130.974 219.800 C 131.674 222.710,136.972 232.788,138.766 234.623 C 140.856 236.761,142.895 237.249,150.748 237.495 L 157.697 237.712 157.438 239.912 C 157.296 241.122,156.644 243.332,155.990 244.823 C 155.335 246.314,154.800 247.724,154.800 247.957 C 154.800 248.189,154.054 249.869,153.143 251.690 C 147.152 263.658,136.505 275.000,122.600 284.226 C 113.478 290.279,106.321 296.740,103.200 301.741 C 102.430 302.974,100.784 305.573,99.542 307.515 C 97.105 311.328,93.852 318.138,93.388 320.400 C 93.231 321.170,92.669 322.659,92.140 323.708 C 91.542 324.894,90.958 327.166,90.597 329.708 C 90.277 331.959,89.613 334.790,89.122 336.000 C 88.284 338.062,88.219 338.914,88.081 349.581 C 87.909 362.845,88.016 363.934,89.670 365.818 C 92.122 368.611,83.520 368.419,200.815 368.304 L 306.600 368.200 308.380 367.200 C 311.771 365.294,311.800 365.158,311.800 351.000 C 311.800 339.016,311.768 338.513,310.866 336.013 C 310.353 334.591,309.675 331.834,309.361 329.887 C 309.046 327.941,308.364 325.325,307.846 324.074 C 307.327 322.823,306.596 320.857,306.221 319.705 C 305.846 318.552,305.387 317.515,305.201 317.400 C 305.015 317.285,304.464 315.978,303.976 314.496 C 301.260 306.233,290.166 292.798,281.000 286.672 C 269.477 278.970,269.378 278.892,261.859 271.604 C 252.113 262.159,244.269 249.685,242.615 241.000 C 241.928 237.392,241.614 237.600,247.724 237.597 C 256.595 237.592,260.487 236.495,262.355 233.472 C 266.070 227.462,269.600 218.769,269.600 215.631 C 269.600 215.010,270.050 213.124,270.600 211.439 C 272.245 206.400,271.825 200.548,269.615 197.721 C 269.133 197.104,264.569 193.810,259.472 190.400 C 249.767 183.907,249.412 183.549,250.772 181.640 C 253.638 177.614,257.874 169.006,258.638 165.652 C 258.971 164.193,259.727 161.650,260.319 160.000 C 261.392 157.010,261.395 156.962,261.398 145.600 L 261.400 134.200 260.116 130.200 C 259.410 128.000,258.572 125.390,258.254 124.400 C 254.947 114.090,248.539 104.765,240.082 97.954 C 231.489 91.033,219.256 85.243,213.151 85.208 C 212.354 85.204,210.324 84.750,208.639 84.200 C 204.511 82.853,195.516 82.753,192.000 84.016 M202.313 84.293 C 201.276 84.376,199.476 84.376,198.313 84.295 C 197.151 84.214,198.000 84.147,200.200 84.146 C 202.400 84.145,203.351 84.211,202.313 84.293 M206.800 97.613 C 223.274 99.747,238.772 112.611,244.636 129.017 C 251.251 147.524,246.731 166.312,232.257 180.472 C 226.031 186.563,224.767 185.033,249.074 200.820 C 255.420 204.942,256.205 205.952,256.183 209.970 C 256.156 214.981,253.525 220.121,250.000 222.052 C 249.244 222.466,246.412 222.633,238.412 222.735 C 224.979 222.907,224.695 223.033,225.396 228.516 C 229.218 258.400,242.909 278.927,271.600 297.789 C 286.802 307.783,295.674 323.458,297.592 343.711 C 298.344 351.660,297.252 354.403,293.098 354.993 C 288.138 355.696,105.773 355.005,104.663 354.278 C 101.119 351.956,101.098 343.438,104.605 331.023 C 109.181 314.822,115.833 305.751,130.600 295.570 C 155.610 278.326,167.830 260.936,172.999 235.232 C 175.548 222.554,176.084 223.200,163.020 223.200 C 148.953 223.200,147.616 222.732,144.897 216.856 C 140.424 207.189,140.878 206.540,161.400 193.244 C 168.993 188.325,171.200 186.547,171.200 185.353 C 171.200 185.005,168.990 182.443,166.290 179.660 C 133.564 145.936,160.391 91.602,206.800 97.613 M157.600 101.322 C 157.600 101.388,156.925 102.063,156.100 102.822 L 154.600 104.200 155.978 102.700 C 157.262 101.304,157.600 101.016,157.600 101.322 M261.092 146.691 C 261.005 147.521,260.933 146.940,260.931 145.400 C 260.929 143.860,261.000 143.181,261.089 143.891 C 261.177 144.601,261.179 145.861,261.092 146.691 M129.490 206.893 C 129.401 207.612,129.326 207.120,129.324 205.800 C 129.322 204.480,129.395 203.892,129.486 204.493 C 129.577 205.094,129.579 206.174,129.490 206.893 M155.682 236.697 C 154.078 236.773,151.558 236.773,150.082 236.696 C 148.607 236.619,149.920 236.557,153.000 236.558 C 156.080 236.558,157.287 236.621,155.682 236.697 M249.682 236.697 C 248.078 236.773,245.558 236.773,244.082 236.696 C 242.607 236.619,243.920 236.557,247.000 236.558 C 250.080 236.558,251.287 236.621,249.682 236.697 M141.600 270.119 C 141.600 270.184,140.835 270.949,139.900 271.819 L 138.200 273.400 139.781 271.700 C 141.252 270.119,141.600 269.816,141.600 270.119 M89.076 342.700 C 88.975 343.085,88.893 342.770,88.893 342.000 C 88.893 341.230,88.975 340.915,89.076 341.300 C 89.176 341.685,89.176 342.315,89.076 342.700 M88.697 356.482 C 88.621 358.087,88.558 356.880,88.558 353.800 C 88.557 350.720,88.619 349.407,88.696 350.882 C 88.773 352.358,88.773 354.878,88.697 356.482 " stroke="none" fill="#484848" fill-rule="evenodd"></path><path id="path1" d="M198.313 84.295 C 199.476 84.376,201.276 84.376,202.313 84.293 C 203.351 84.211,202.400 84.145,200.200 84.146 C 198.000 84.147,197.151 84.214,198.313 84.295 M192.876 97.629 C 166.200 101.092,146.812 128.911,152.753 155.200 C 155.146 165.792,158.218 171.342,166.290 179.660 C 168.990 182.443,171.200 185.005,171.200 185.353 C 171.200 186.547,168.993 188.325,161.400 193.244 C 140.878 206.540,140.424 207.189,144.897 216.856 C 147.616 222.732,148.953 223.200,163.020 223.200 C 176.084 223.200,175.548 222.554,172.999 235.232 C 167.830 260.936,155.610 278.326,130.600 295.570 C 115.833 305.751,109.181 314.822,104.605 331.023 C 101.098 343.438,101.119 351.956,104.663 354.278 C 105.773 355.005,288.138 355.696,293.098 354.993 C 297.252 354.403,298.344 351.660,297.592 343.711 C 295.674 323.458,286.802 307.783,271.600 297.789 C 242.909 278.927,229.218 258.400,225.396 228.516 C 224.695 223.033,224.979 222.907,238.412 222.735 C 246.412 222.633,249.244 222.466,250.000 222.052 C 253.525 220.121,256.156 214.981,256.183 209.970 C 256.205 205.952,255.420 204.942,249.074 200.820 C 224.767 185.033,226.031 186.563,232.257 180.472 C 266.028 147.434,239.476 91.580,192.876 97.629 M207.145 99.619 C 234.071 103.988,251.546 132.844,243.155 159.082 C 240.481 167.446,237.475 172.099,230.241 179.075 C 224.415 184.694,224.273 185.280,227.900 188.780 C 230.495 191.284,237.330 196.130,244.733 200.715 C 253.941 206.417,255.077 208.158,253.224 213.729 C 251.114 220.070,250.578 220.305,237.800 220.505 C 222.358 220.746,222.083 221.005,223.817 233.686 C 227.267 258.909,244.091 283.271,268.473 298.353 C 278.557 304.590,282.279 308.213,287.129 316.511 C 293.047 326.636,297.807 346.160,295.489 350.800 C 294.189 353.400,302.027 353.212,199.529 353.101 L 106.859 353.000 105.729 352.162 C 101.036 348.678,106.160 325.563,114.296 313.518 C 118.719 306.969,122.237 303.677,132.400 296.577 C 156.494 279.743,168.035 263.767,174.386 238.455 C 178.690 221.303,178.832 221.504,162.200 221.203 C 154.793 221.069,150.729 220.843,150.200 220.537 C 147.049 218.712,144.117 211.455,145.146 208.024 C 145.803 205.828,147.317 204.642,159.800 196.535 C 176.138 185.924,175.846 186.492,168.624 179.354 C 158.686 169.530,154.436 160.460,153.745 147.600 C 152.181 118.483,178.372 94.950,207.145 99.619 M155.978 102.700 L 154.600 104.200 156.100 102.822 C 156.925 102.063,157.600 101.388,157.600 101.322 C 157.600 101.016,157.262 101.304,155.978 102.700 M260.931 145.400 C 260.933 146.940,261.005 147.521,261.092 146.691 C 261.179 145.861,261.177 144.601,261.089 143.891 C 261.000 143.181,260.929 143.860,260.931 145.400 M129.324 205.800 C 129.326 207.120,129.401 207.612,129.490 206.893 C 129.579 206.174,129.577 205.094,129.486 204.493 C 129.395 203.892,129.322 204.480,129.324 205.800 M150.082 236.696 C 151.558 236.773,154.078 236.773,155.682 236.697 C 157.287 236.621,156.080 236.558,153.000 236.558 C 149.920 236.557,148.607 236.619,150.082 236.696 M244.082 236.696 C 245.558 236.773,248.078 236.773,249.682 236.697 C 251.287 236.621,250.080 236.558,247.000 236.558 C 243.920 236.557,242.607 236.619,244.082 236.696 M139.781 271.700 L 138.200 273.400 139.900 271.819 C 141.481 270.348,141.784 270.000,141.481 270.000 C 141.416 270.000,140.651 270.765,139.781 271.700 M88.893 342.000 C 88.893 342.770,88.975 343.085,89.076 342.700 C 89.176 342.315,89.176 341.685,89.076 341.300 C 88.975 340.915,88.893 341.230,88.893 342.000 M88.558 353.800 C 88.558 356.880,88.621 358.087,88.697 356.482 C 88.773 354.878,88.773 352.358,88.696 350.882 C 88.619 349.407,88.557 350.720,88.558 353.800 " stroke="none" fill="#949494" fill-rule="evenodd"></path><path id="path2" d="M192.200 101.380 C 163.380 106.936,147.602 136.039,158.811 162.965 C 161.072 168.396,164.336 172.867,170.241 178.624 C 178.686 186.855,179.463 185.515,158.200 199.388 C 146.480 207.034,145.873 207.722,146.990 212.084 C 148.896 219.525,149.370 219.750,163.600 220.000 C 176.147 220.220,176.609 220.311,178.558 222.932 C 179.945 224.797,179.722 229.759,178.087 233.439 C 177.393 235.000,176.363 237.970,175.798 240.039 C 168.815 265.624,157.142 281.233,131.823 298.843 C 119.975 307.084,114.397 313.969,109.776 326.057 C 106.976 333.381,104.738 345.600,105.606 348.823 C 106.356 351.609,98.692 351.400,200.135 351.400 L 292.469 351.400 293.435 350.278 C 296.133 347.141,291.923 328.223,286.316 318.288 C 281.211 309.243,277.277 305.448,267.800 300.428 C 253.481 292.842,241.043 280.811,231.587 265.400 C 222.917 251.270,217.402 226.001,222.053 221.720 C 224.779 219.211,229.788 218.086,239.800 217.735 L 247.400 217.468 248.438 216.359 C 249.779 214.924,250.957 211.225,250.596 209.581 C 250.282 208.152,248.070 206.397,241.054 202.015 C 236.447 199.137,226.108 190.267,224.146 187.509 C 221.798 184.210,222.547 181.610,226.836 178.172 C 250.759 158.991,245.925 117.747,218.233 104.770 C 210.907 101.337,199.874 99.900,192.200 101.380 M210.600 102.966 C 232.106 108.544,243.449 128.889,237.577 151.356 C 236.137 156.868,230.576 166.380,226.883 169.650 C 223.763 172.412,217.043 177.464,213.913 179.400 C 208.331 182.853,208.587 183.612,215.462 183.987 L 220.154 184.243 221.577 186.015 C 222.360 186.989,224.859 189.696,227.131 192.031 C 234.257 199.352,235.530 202.909,233.554 209.974 C 231.958 215.680,231.381 216.342,226.220 218.392 C 224.559 219.052,222.181 220.268,220.935 221.096 L 218.670 222.600 200.105 222.712 L 181.540 222.823 178.470 221.112 L 175.400 219.400 164.000 219.192 C 150.660 218.948,150.955 219.025,149.122 215.302 C 147.319 211.640,147.158 208.986,148.633 207.234 C 149.578 206.111,163.006 196.960,170.400 192.401 C 178.564 187.367,178.705 185.422,171.403 178.611 C 159.630 167.631,154.796 155.229,156.326 139.929 C 158.901 114.166,185.070 96.344,210.600 102.966 M191.803 246.032 C 197.741 251.989,203.950 257.961,205.600 259.302 C 207.250 260.643,212.920 266.001,218.200 271.209 C 223.480 276.416,228.700 281.283,229.800 282.023 C 230.900 282.764,233.049 284.416,234.575 285.696 C 237.941 288.518,246.767 293.055,255.400 296.400 C 273.556 303.436,278.727 307.138,284.849 317.483 C 290.596 327.193,295.480 346.920,292.800 349.600 C 291.564 350.836,108.663 350.867,107.144 349.632 C 104.428 347.423,108.274 329.490,113.702 319.048 C 116.884 312.928,122.640 306.239,127.914 302.533 C 142.812 292.064,146.155 289.387,152.620 282.749 C 164.051 271.011,172.328 256.896,175.792 243.231 C 178.502 232.541,178.324 232.510,191.803 246.032 " stroke="none" fill="#d4d4d4" fill-rule="evenodd"></path><path id="path3" d="M191.694 99.799 C 168.766 103.955,152.501 124.443,153.745 147.600 C 154.436 160.460,158.686 169.530,168.624 179.354 C 175.846 186.492,176.138 185.924,159.800 196.535 C 147.317 204.642,145.803 205.828,145.146 208.024 C 144.117 211.455,147.049 218.712,150.200 220.537 C 150.729 220.843,154.793 221.069,162.200 221.203 C 178.832 221.504,178.690 221.303,174.386 238.455 C 168.035 263.767,156.494 279.743,132.400 296.577 C 122.237 303.677,118.719 306.969,114.296 313.518 C 106.160 325.563,101.036 348.678,105.729 352.162 L 106.859 353.000 199.529 353.101 C 302.027 353.212,294.189 353.400,295.489 350.800 C 297.807 346.160,293.047 326.636,287.129 316.511 C 282.279 308.213,278.557 304.590,268.473 298.353 C 244.091 283.271,227.267 258.909,223.817 233.686 C 222.083 221.005,222.358 220.746,237.800 220.505 C 250.578 220.305,251.114 220.070,253.224 213.729 C 255.077 208.158,253.941 206.417,244.733 200.715 C 237.330 196.130,230.495 191.284,227.900 188.780 C 224.273 185.280,224.415 184.694,230.241 179.075 C 263.461 147.040,236.538 91.670,191.694 99.799 M211.000 101.373 C 238.284 108.700,251.969 140.280,239.002 165.992 C 236.953 170.055,234.296 173.407,229.147 178.427 C 221.994 185.398,222.224 186.162,234.213 195.278 C 235.540 196.287,239.500 198.943,243.013 201.182 C 251.040 206.296,252.533 207.694,252.533 210.099 C 252.533 212.589,251.236 215.918,249.600 217.628 L 248.200 219.092 238.600 219.319 C 222.200 219.706,221.160 220.448,222.239 231.000 C 225.046 258.467,242.550 284.404,268.600 299.700 C 277.847 305.129,281.565 308.706,286.273 316.706 C 293.249 328.559,297.468 348.972,293.488 351.611 C 292.551 352.232,115.182 352.783,109.244 352.183 C 104.091 351.662,103.351 346.784,106.533 334.312 C 110.956 316.975,116.936 308.417,132.028 297.828 C 157.323 280.080,168.199 265.193,175.444 238.400 C 180.174 220.909,179.777 220.400,161.405 220.400 C 149.210 220.400,148.212 219.862,146.218 212.204 C 144.871 207.032,144.512 207.365,167.675 192.282 C 176.658 186.433,176.703 186.065,169.321 178.783 C 141.348 151.190,154.461 107.798,193.000 100.426 C 196.930 99.674,206.560 100.180,211.000 101.373 " stroke="none" fill="#acacac" fill-rule="evenodd"></path><path id="path4" d="M193.000 100.426 C 172.107 104.422,157.568 119.139,154.958 138.932 C 152.917 154.410,157.499 167.121,169.321 178.783 C 176.703 186.065,176.658 186.433,167.675 192.282 C 144.512 207.365,144.871 207.032,146.218 212.204 C 148.212 219.862,149.210 220.400,161.405 220.400 C 179.777 220.400,180.174 220.909,175.444 238.400 C 168.199 265.193,157.323 280.080,132.028 297.828 C 116.936 308.417,110.956 316.975,106.533 334.312 C 103.351 346.784,104.091 351.662,109.244 352.183 C 115.182 352.783,292.551 352.232,293.488 351.611 C 297.468 348.972,293.249 328.559,286.273 316.706 C 281.565 308.706,277.847 305.129,268.600 299.700 C 242.550 284.404,225.046 258.467,222.239 231.000 C 221.160 220.448,222.200 219.706,238.600 219.319 L 248.200 219.092 249.600 217.628 C 251.236 215.918,252.533 212.589,252.533 210.099 C 252.533 207.694,251.040 206.296,243.013 201.182 C 239.500 198.943,235.540 196.287,234.213 195.278 C 222.224 186.162,221.994 185.398,229.147 178.427 C 247.405 160.630,249.075 135.904,233.379 115.764 C 224.471 104.335,207.086 97.731,193.000 100.426 M210.986 102.170 C 244.069 111.067,253.590 156.721,226.836 178.172 C 222.547 181.610,221.798 184.210,224.146 187.509 C 226.108 190.267,236.447 199.137,241.054 202.015 C 248.070 206.397,250.282 208.152,250.596 209.581 C 250.957 211.225,249.779 214.924,248.438 216.359 L 247.400 217.468 239.800 217.735 C 222.191 218.352,219.532 220.287,220.620 231.688 C 223.279 259.547,241.933 286.725,267.800 300.428 C 277.277 305.448,281.211 309.243,286.316 318.288 C 291.923 328.223,296.133 347.141,293.435 350.278 L 292.469 351.400 200.135 351.400 C 98.692 351.400,106.356 351.609,105.606 348.823 C 104.738 345.600,106.976 333.381,109.776 326.057 C 114.397 313.969,119.975 307.084,131.823 298.843 C 157.142 281.233,168.815 265.624,175.798 240.039 C 176.363 237.970,177.393 235.000,178.087 233.439 C 179.722 229.759,179.945 224.797,178.558 222.932 C 176.609 220.311,176.147 220.220,163.600 220.000 C 149.370 219.750,148.896 219.525,146.990 212.084 C 145.873 207.722,146.480 207.034,158.200 199.388 C 179.463 185.515,178.686 186.855,170.241 178.624 C 162.382 170.962,158.966 165.343,156.507 156.030 C 148.034 123.938,178.805 93.517,210.986 102.170 " stroke="none" fill="#c4c4c4" fill-rule="evenodd"></path><path id="path5" d="M191.384 103.982 C 166.318 107.958,151.321 133.854,159.803 158.513 C 162.473 166.274,164.572 169.483,171.353 176.167 C 181.117 185.793,181.075 187.857,171.000 193.692 C 161.943 198.937,150.442 206.826,149.624 208.355 C 148.744 209.999,149.705 214.346,151.378 216.293 L 152.329 217.400 163.864 217.639 C 174.160 217.852,175.707 217.972,178.257 218.750 C 181.050 219.602,181.557 219.620,200.457 219.511 L 219.800 219.400 222.658 218.060 C 232.731 213.338,233.565 201.242,224.463 191.869 C 220.300 187.582,221.111 187.829,210.400 187.594 C 200.334 187.373,198.725 187.068,198.477 185.334 C 198.280 183.959,200.115 182.612,206.816 179.213 C 225.466 169.754,234.020 158.770,235.643 142.200 C 238.168 116.424,218.735 99.643,191.384 103.982 M178.154 241.049 C 177.821 241.846,177.206 243.871,176.788 245.549 C 171.948 264.984,155.978 284.602,131.000 301.796 C 118.744 310.232,112.051 320.976,108.845 337.359 C 107.537 344.038,107.327 346.742,108.014 348.026 C 108.444 348.829,290.263 349.293,291.429 348.494 C 293.240 347.254,289.560 329.955,285.946 322.717 C 279.698 310.205,276.113 307.037,263.200 302.617 C 259.570 301.374,255.070 299.803,253.200 299.124 C 248.132 297.286,235.861 291.064,233.269 289.019 C 232.021 288.035,229.830 286.368,228.400 285.315 C 226.970 284.262,221.570 279.247,216.400 274.170 C 211.230 269.094,206.010 264.158,204.800 263.201 C 203.590 262.244,197.643 256.542,191.584 250.530 C 179.650 238.690,179.256 238.412,178.154 241.049 " stroke="none" fill="#fcfcfc" fill-rule="evenodd"></path><path id="path6" d="M191.589 102.380 C 155.325 109.001,143.727 152.799,171.403 178.611 C 178.705 185.422,178.564 187.367,170.400 192.401 C 163.006 196.960,149.578 206.111,148.633 207.234 C 147.158 208.986,147.319 211.640,149.122 215.302 C 150.955 219.025,150.660 218.948,164.000 219.192 L 175.400 219.400 178.470 221.112 L 181.540 222.823 200.105 222.712 L 218.670 222.600 220.935 221.096 C 222.181 220.268,224.559 219.052,226.220 218.392 C 231.381 216.342,231.958 215.680,233.554 209.974 C 235.530 202.909,234.257 199.352,227.131 192.031 C 224.859 189.696,222.360 186.989,221.577 186.015 L 220.154 184.243 215.462 183.987 C 208.587 183.612,208.331 182.853,213.913 179.400 C 217.043 177.464,223.763 172.412,226.883 169.650 C 230.576 166.380,236.137 156.868,237.577 151.356 C 245.365 121.559,222.122 96.806,191.589 102.380 M208.400 104.160 C 222.573 107.093,230.937 114.662,234.258 127.561 C 239.943 149.643,230.657 167.120,206.816 179.213 C 200.115 182.612,198.280 183.959,198.477 185.334 C 198.725 187.068,200.334 187.373,210.400 187.594 C 221.111 187.829,220.300 187.582,224.463 191.869 C 233.565 201.242,232.731 213.338,222.658 218.060 L 219.800 219.400 200.457 219.511 C 181.557 219.620,181.050 219.602,178.257 218.750 C 175.707 217.972,174.160 217.852,163.864 217.639 L 152.329 217.400 151.378 216.293 C 149.705 214.346,148.744 209.999,149.624 208.355 C 150.442 206.826,161.943 198.937,171.000 193.692 C 181.075 187.857,181.117 185.793,171.353 176.167 C 139.984 145.243,165.670 95.319,208.400 104.160 M178.710 235.900 C 177.595 237.172,176.860 239.019,175.792 243.231 C 172.328 256.896,164.051 271.011,152.620 282.749 C 146.155 289.387,142.812 292.064,127.914 302.533 C 122.640 306.239,116.884 312.928,113.702 319.048 C 108.274 329.490,104.428 347.423,107.144 349.632 C 108.663 350.867,291.564 350.836,292.800 349.600 C 295.480 346.920,290.596 327.193,284.849 317.483 C 278.727 307.138,273.556 303.436,255.400 296.400 C 246.767 293.055,237.941 288.518,234.575 285.696 C 233.049 284.416,230.900 282.764,229.800 282.023 C 228.700 281.283,223.480 276.416,218.200 271.209 C 212.920 266.001,207.250 260.643,205.600 259.302 C 203.950 257.961,197.741 251.989,191.803 246.032 C 180.772 234.966,180.032 234.393,178.710 235.900 M191.584 250.530 C 197.643 256.542,203.590 262.244,204.800 263.201 C 206.010 264.158,211.230 269.094,216.400 274.170 C 221.570 279.247,226.970 284.262,228.400 285.315 C 229.830 286.368,232.021 288.035,233.269 289.019 C 235.861 291.064,248.132 297.286,253.200 299.124 C 255.070 299.803,259.570 301.374,263.200 302.617 C 276.113 307.037,279.698 310.205,285.946 322.717 C 289.560 329.955,293.240 347.254,291.429 348.494 C 290.263 349.293,108.444 348.829,108.014 348.026 C 107.327 346.742,107.537 344.038,108.845 337.359 C 112.051 320.976,118.744 310.232,131.000 301.796 C 155.978 284.602,171.948 264.984,176.788 245.549 C 178.811 237.426,178.153 237.205,191.584 250.530 " stroke="none" fill="#e4e4e4" fill-rule="evenodd"></path></g></svg>