<svg id="svg" version="1.1" xmlns="http://www.w3.org/2000/svg" xmlns:xlink="http://www.w3.org/1999/xlink" width="400" height="400" viewBox="0, 0, 400,400"><g id="svgg"><path id="path0" d="M154.773 36.554 C 154.647 36.683,151.921 36.952,148.714 37.153 C 142.560 37.538,142.587 37.531,135.400 40.802 C 126.228 44.976,117.075 55.327,114.783 64.117 C 114.541 65.043,113.862 66.970,113.272 68.400 C 112.223 70.945,112.200 71.182,112.204 79.600 L 112.207 88.200 113.504 91.310 C 114.217 93.021,114.800 94.669,114.800 94.972 C 114.800 95.726,118.184 102.105,120.014 104.800 C 122.171 107.977,125.806 111.544,129.154 113.769 C 132.698 116.126,132.608 115.900,131.844 120.475 C 131.120 124.810,130.405 143.263,130.402 157.676 C 130.401 163.108,130.252 167.644,130.072 167.756 C 129.362 168.195,118.400 156.233,118.400 155.019 C 118.400 154.665,118.797 153.255,119.282 151.887 C 120.765 147.704,120.637 134.812,119.076 131.200 C 118.459 129.770,117.673 127.700,117.332 126.601 C 115.556 120.890,109.922 113.180,104.697 109.312 C 99.863 105.733,92.773 102.143,89.544 101.639 C 83.865 100.753,78.197 100.407,75.800 100.801 C 74.480 101.018,72.320 101.201,71.000 101.207 C 59.653 101.265,44.474 113.422,39.947 126.078 C 39.293 127.905,38.463 130.210,38.101 131.200 C 36.991 134.241,37.106 150.645,38.258 153.600 C 38.730 154.810,39.595 157.051,40.181 158.580 C 43.590 167.486,53.286 177.067,62.800 180.931 C 65.322 181.955,65.929 182.624,66.650 185.170 C 66.997 186.397,67.640 188.025,68.079 188.789 C 68.518 189.552,69.292 191.262,69.798 192.589 C 71.913 198.128,74.681 204.624,76.432 208.156 C 77.074 209.452,77.600 210.757,77.600 211.055 C 77.600 211.354,78.140 212.741,78.800 214.138 C 79.460 215.535,80.000 216.935,80.000 217.250 C 80.000 217.565,80.601 219.077,81.336 220.611 C 82.071 222.145,82.905 224.120,83.188 225.000 C 83.472 225.880,83.876 226.817,84.086 227.081 C 84.295 227.346,84.975 228.876,85.596 230.481 C 87.202 234.635,88.959 238.760,89.949 240.699 C 90.417 241.617,90.800 242.603,90.800 242.890 C 90.800 243.177,91.325 244.489,91.968 245.806 C 92.610 247.123,93.266 248.740,93.425 249.400 C 93.584 250.060,94.162 251.496,94.710 252.591 C 95.258 253.686,96.028 255.486,96.421 256.591 C 97.154 258.649,98.492 261.810,101.758 269.200 C 102.779 271.510,103.806 274.120,104.040 275.000 C 104.531 276.842,106.751 282.118,108.206 284.900 C 109.707 287.769,109.665 287.837,104.963 290.054 C 94.340 295.065,84.557 304.275,82.757 310.959 C 82.516 311.854,81.887 313.438,81.360 314.479 C 80.833 315.519,80.223 317.625,80.006 319.157 C 79.789 320.689,79.239 322.886,78.784 324.040 C 77.520 327.246,77.129 333.614,77.271 348.628 C 77.423 364.636,77.567 365.284,81.400 367.200 L 83.400 368.200 201.400 368.200 L 319.400 368.200 321.062 367.311 C 324.830 365.296,325.221 363.906,325.478 351.600 C 325.716 340.243,325.157 329.043,324.221 326.433 C 323.873 325.461,323.246 322.730,322.829 320.365 C 320.452 306.906,311.693 296.472,297.200 289.836 C 292.683 287.767,292.845 288.105,294.562 284.312 C 297.654 277.479,299.543 272.932,301.173 268.399 C 301.767 266.748,302.541 264.948,302.894 264.399 C 303.246 263.849,303.748 262.592,304.009 261.604 C 304.269 260.617,304.914 258.998,305.441 258.007 C 305.969 257.017,306.400 256.059,306.400 255.878 C 306.400 255.698,306.840 254.617,307.379 253.475 C 308.473 251.155,310.474 246.435,311.648 243.400 C 312.074 242.300,312.774 240.751,313.204 239.958 C 313.634 239.165,314.334 237.455,314.758 236.158 C 315.637 233.475,317.008 230.040,319.051 225.400 C 319.826 223.640,320.887 221.210,321.409 220.000 C 321.930 218.790,322.997 216.337,323.779 214.550 C 324.560 212.762,325.200 211.060,325.200 210.767 C 325.200 210.266,326.597 206.988,329.237 201.292 C 329.877 199.913,330.400 198.578,330.400 198.324 C 330.400 198.071,330.926 196.679,331.569 195.232 C 333.021 191.962,335.642 185.953,336.587 183.727 C 337.198 182.288,337.613 181.926,339.549 181.144 C 349.978 176.934,359.952 166.599,362.815 157.036 C 363.217 155.696,363.957 153.520,364.459 152.200 C 365.840 148.578,365.854 135.414,364.482 131.800 C 363.980 130.480,363.240 128.320,362.837 127.000 C 358.935 114.228,343.184 101.210,331.616 101.198 C 330.397 101.196,328.320 101.018,327.000 100.801 C 324.646 100.414,319.430 100.715,313.192 101.597 C 309.018 102.187,301.403 106.045,297.200 109.697 C 292.922 113.416,285.600 123.408,285.600 125.528 C 285.600 125.842,284.925 127.562,284.100 129.350 L 282.600 132.600 282.600 141.600 C 282.600 149.960,282.664 150.770,283.500 152.986 C 283.995 154.299,284.400 155.449,284.400 155.542 C 284.400 155.636,282.727 157.442,280.682 159.556 C 278.637 161.670,276.102 164.436,275.049 165.703 C 272.476 168.796,272.400 168.641,272.398 160.276 C 272.395 147.829,271.629 129.674,270.944 125.800 C 270.594 123.820,270.148 121.300,269.953 120.200 C 269.405 117.105,269.736 116.344,272.469 114.416 C 279.908 109.170,286.393 100.452,288.139 93.348 C 288.456 92.057,289.133 89.920,289.642 88.600 C 291.020 85.027,291.048 73.327,289.686 70.000 C 289.191 68.790,288.521 66.675,288.198 65.300 C 286.031 56.067,275.628 44.257,266.099 40.214 C 264.395 39.490,262.283 38.586,261.407 38.205 C 258.505 36.942,248.040 36.408,239.721 37.098 C 224.272 38.380,208.586 52.392,205.217 67.919 C 204.801 69.834,204.178 72.384,203.831 73.587 C 202.901 76.812,202.989 82.998,204.008 86.022 C 204.452 87.341,205.070 89.630,205.383 91.110 C 206.109 94.552,209.003 100.787,211.363 103.993 C 213.476 106.863,213.690 108.334,212.388 111.026 C 211.593 112.667,210.521 115.579,208.789 120.800 C 208.314 122.230,207.422 124.750,206.806 126.400 C 206.190 128.050,205.558 130.030,205.401 130.800 C 205.244 131.570,204.594 133.400,203.958 134.867 C 203.321 136.334,202.800 137.837,202.800 138.207 C 202.800 141.782,200.914 141.903,199.786 138.400 C 199.396 137.190,198.842 135.838,198.555 135.395 C 198.268 134.952,197.745 133.350,197.393 131.834 C 197.042 130.319,196.432 128.431,196.037 127.639 C 195.642 126.848,195.014 124.960,194.641 123.445 C 194.268 121.929,193.682 120.146,193.339 119.481 C 192.995 118.817,192.368 117.023,191.944 115.496 C 191.521 113.968,190.815 112.013,190.375 111.151 C 189.049 108.553,189.230 107.180,191.309 104.053 C 194.929 98.610,196.788 94.314,197.629 89.449 C 198.052 87.002,198.574 84.280,198.789 83.400 C 199.372 81.021,199.281 77.186,198.589 74.964 C 198.253 73.884,197.797 71.479,197.576 69.621 C 195.776 54.512,178.858 38.322,163.680 37.183 C 161.106 36.990,158.100 36.716,157.000 36.576 C 155.900 36.435,154.898 36.425,154.773 36.554 M151.300 37.882 C 150.805 37.978,149.995 37.978,149.500 37.882 C 149.005 37.787,149.410 37.709,150.400 37.709 C 151.390 37.709,151.795 37.787,151.300 37.882 M162.305 37.875 C 161.922 37.975,161.202 37.979,160.705 37.883 C 160.207 37.787,160.520 37.705,161.400 37.701 C 162.280 37.696,162.687 37.775,162.305 37.875 M242.305 37.875 C 241.922 37.975,241.202 37.979,240.705 37.883 C 240.207 37.787,240.520 37.705,241.400 37.701 C 242.280 37.696,242.687 37.775,242.305 37.875 M253.300 37.882 C 252.805 37.978,251.995 37.978,251.500 37.882 C 251.005 37.787,251.410 37.709,252.400 37.709 C 253.390 37.709,253.795 37.787,253.300 37.882 M125.600 48.925 C 125.600 48.994,125.015 49.579,124.300 50.225 L 123.000 51.400 124.175 50.100 C 125.270 48.888,125.600 48.616,125.600 48.925 M160.000 50.167 C 179.301 53.633,190.234 74.614,181.695 91.800 C 180.402 94.402,178.362 97.199,175.503 100.290 C 172.501 103.535,172.438 102.927,177.231 116.872 C 179.448 123.323,182.338 131.750,183.654 135.600 C 184.970 139.450,186.688 144.310,187.472 146.400 C 188.256 148.490,190.209 153.980,191.811 158.600 C 201.243 185.793,201.047 185.551,204.795 174.663 C 205.641 172.208,208.973 162.640,212.201 153.400 C 218.137 136.408,219.186 133.381,225.367 115.425 C 229.693 102.857,229.690 103.300,225.479 99.031 C 204.717 77.980,226.495 42.826,255.189 51.074 C 279.405 58.035,283.614 91.814,261.779 103.970 C 255.818 107.289,255.752 107.458,256.359 117.972 C 256.595 122.057,256.974 130.710,257.202 137.200 C 257.430 143.690,257.880 152.870,258.201 157.600 C 258.857 167.261,259.388 176.248,260.031 188.563 C 260.771 202.733,258.316 203.937,283.566 177.023 C 302.227 157.131,301.267 158.680,298.580 152.789 C 293.681 142.051,295.396 131.823,303.557 123.111 C 314.939 110.961,332.273 110.730,343.527 122.578 C 357.770 137.572,351.311 162.144,331.419 168.639 C 326.366 170.289,326.135 170.667,318.200 190.200 C 315.552 196.718,313.902 200.687,306.895 217.400 C 305.696 220.260,303.946 224.490,303.007 226.800 C 302.068 229.110,300.083 233.880,298.598 237.400 C 297.112 240.920,295.397 245.060,294.786 246.600 C 294.176 248.140,293.008 250.930,292.190 252.800 C 291.373 254.670,289.750 258.540,288.585 261.400 C 275.098 294.482,276.758 292.278,266.231 291.069 C 235.588 287.551,170.353 287.520,142.237 291.010 C 130.087 292.519,127.554 292.298,125.503 289.551 C 124.823 288.640,121.740 281.441,113.020 260.400 C 104.547 239.953,100.349 229.856,97.803 223.800 C 96.324 220.280,93.625 213.800,91.805 209.400 C 89.986 205.000,87.105 198.070,85.403 194.000 C 83.700 189.930,81.185 183.900,79.814 180.600 C 75.602 170.466,75.778 170.693,70.872 169.025 C 48.475 161.407,43.477 132.745,62.214 119.375 C 76.711 109.030,94.568 113.665,103.154 130.000 C 107.107 137.521,107.099 144.493,103.128 153.312 C 100.607 158.911,98.427 155.929,126.740 185.600 C 143.374 203.031,141.854 203.257,142.626 183.240 C 143.168 169.156,143.713 158.414,144.414 148.000 C 145.062 138.373,146.054 109.604,145.770 108.671 C 145.337 107.247,144.427 106.470,141.138 104.718 C 112.434 89.424,127.995 44.419,160.000 50.167 M289.895 80.887 C 289.814 82.049,289.747 81.200,289.746 79.000 C 289.745 76.800,289.811 75.849,289.893 76.887 C 289.976 77.924,289.976 79.724,289.895 80.887 M74.305 101.875 C 73.922 101.975,73.202 101.979,72.705 101.883 C 72.207 101.787,72.520 101.705,73.400 101.701 C 74.280 101.696,74.687 101.775,74.305 101.875 M84.705 101.875 C 84.322 101.975,83.602 101.979,83.105 101.883 C 82.607 101.787,82.920 101.705,83.800 101.701 C 84.680 101.696,85.087 101.775,84.705 101.875 M319.905 101.875 C 319.522 101.975,318.802 101.979,318.305 101.883 C 317.807 101.787,318.120 101.705,319.000 101.701 C 319.880 101.696,320.287 101.775,319.905 101.875 M329.905 101.875 C 329.522 101.975,328.802 101.979,328.305 101.883 C 327.807 101.787,328.120 101.705,329.000 101.701 C 329.880 101.696,330.287 101.775,329.905 101.875 M296.400 112.200 C 295.428 113.190,294.543 114.000,294.433 114.000 C 294.323 114.000,295.028 113.190,296.000 112.200 C 296.972 111.210,297.857 110.400,297.967 110.400 C 298.077 110.400,297.372 111.210,296.400 112.200 M269.083 118.895 C 268.987 119.393,268.905 119.080,268.901 118.200 C 268.896 117.320,268.975 116.913,269.075 117.295 C 269.175 117.678,269.179 118.398,269.083 118.895 M131.890 136.093 C 131.801 136.812,131.726 136.320,131.724 135.000 C 131.722 133.680,131.795 133.092,131.886 133.693 C 131.977 134.294,131.979 135.374,131.890 136.093 M283.476 136.700 C 283.375 137.085,283.293 136.770,283.293 136.000 C 283.293 135.230,283.375 134.915,283.476 135.300 C 283.576 135.685,283.576 136.315,283.476 136.700 M119.483 138.895 C 119.387 139.393,119.305 139.080,119.301 138.200 C 119.296 137.320,119.375 136.913,119.475 137.295 C 119.575 137.678,119.579 138.398,119.483 138.895 M364.676 138.700 C 364.575 139.085,364.493 138.770,364.493 138.000 C 364.493 137.230,364.575 136.915,364.676 137.300 C 364.776 137.685,364.776 138.315,364.676 138.700 M271.087 141.500 C 270.995 142.105,270.920 141.610,270.920 140.400 C 270.920 139.190,270.995 138.695,271.087 139.300 C 271.178 139.905,271.178 140.895,271.087 141.500 M119.483 145.295 C 119.387 145.793,119.305 145.480,119.301 144.600 C 119.296 143.720,119.375 143.313,119.475 143.695 C 119.575 144.078,119.579 144.798,119.483 145.295 M131.494 150.700 C 131.412 151.745,131.344 150.890,131.344 148.800 C 131.344 146.710,131.412 145.855,131.494 146.900 C 131.576 147.945,131.576 149.655,131.494 150.700 M271.492 156.112 C 271.408 157.040,271.341 156.180,271.342 154.200 C 271.343 152.220,271.412 151.460,271.495 152.512 C 271.577 153.564,271.576 155.184,271.492 156.112 M131.091 167.900 C 131.005 168.725,130.934 168.050,130.934 166.400 C 130.934 164.750,131.005 164.075,131.091 164.900 C 131.178 165.725,131.178 167.075,131.091 167.900 M275.600 166.925 C 275.600 166.994,275.015 167.579,274.300 168.225 L 273.000 169.400 274.175 168.100 C 275.270 166.888,275.600 166.616,275.600 166.925 M233.400 294.364 C 250.796 294.975,267.668 296.611,274.400 298.340 C 276.050 298.764,279.110 299.332,281.200 299.601 C 293.988 301.252,304.859 309.521,308.641 320.476 C 310.470 325.774,310.812 328.453,311.071 339.490 C 311.355 351.606,311.144 352.823,308.473 354.484 L 307.000 355.400 201.400 355.400 C 82.147 355.400,94.180 355.732,92.214 352.386 C 91.256 350.754,91.092 335.826,91.956 328.891 C 93.985 312.612,104.904 301.968,122.183 299.424 C 124.593 299.069,127.600 298.511,128.863 298.184 C 135.206 296.540,152.717 294.947,170.674 294.380 C 178.102 294.145,184.274 293.854,184.390 293.733 C 184.683 293.424,219.357 293.872,233.400 294.364 M94.000 298.113 C 94.000 298.174,92.875 299.299,91.500 300.613 L 89.000 303.000 91.387 300.500 C 93.605 298.178,94.000 297.817,94.000 298.113 M311.000 300.000 C 312.083 301.100,312.880 302.000,312.770 302.000 C 312.660 302.000,311.683 301.100,310.600 300.000 C 309.517 298.900,308.720 298.000,308.830 298.000 C 308.940 298.000,309.917 298.900,311.000 300.000 M324.287 333.895 C 324.195 334.503,324.117 334.100,324.114 333.000 C 324.111 331.900,324.187 331.403,324.282 331.895 C 324.377 332.386,324.379 333.286,324.287 333.895 M78.299 353.900 C 78.231 356.925,78.175 354.450,78.175 348.400 C 78.175 342.350,78.231 339.875,78.299 342.900 C 78.367 345.925,78.367 350.875,78.299 353.900 " stroke="none" fill="#474747" fill-rule="evenodd"></path><path id="path1" d="M149.021 55.598 C 136.063 57.944,127.264 73.884,131.967 86.492 C 134.602 93.555,137.993 97.275,145.031 100.824 C 152.359 104.519,152.270 103.982,150.208 132.200 C 149.887 136.600,149.426 146.950,149.185 155.200 C 148.944 163.450,148.493 173.800,148.184 178.200 C 147.875 182.600,147.426 189.440,147.186 193.400 C 146.554 203.856,146.539 203.941,145.004 205.476 C 143.602 206.878,142.467 207.107,140.526 206.376 C 138.443 205.593,93.163 159.668,91.584 156.738 C 89.356 152.602,89.352 147.138,91.574 138.305 C 92.484 134.685,93.241 130.734,93.255 129.525 C 93.395 117.817,72.634 115.300,62.209 125.762 C 49.764 138.252,55.329 157.937,73.104 164.296 C 79.535 166.597,79.961 167.104,84.136 177.400 C 85.563 180.920,89.737 191.000,93.411 199.800 C 100.256 216.196,105.853 229.635,110.984 242.000 C 113.998 249.263,115.498 252.867,123.892 273.000 C 130.282 288.326,129.120 287.111,136.528 286.207 C 139.208 285.881,144.923 285.433,149.228 285.213 C 153.534 284.992,158.394 284.637,160.028 284.422 C 164.771 283.800,180.314 283.200,191.705 283.199 C 203.553 283.198,211.732 282.708,215.686 281.763 C 222.172 280.212,239.183 270.187,245.717 264.064 C 247.303 262.578,249.410 260.756,250.400 260.015 C 253.126 257.974,257.450 253.688,259.495 251.000 C 260.500 249.680,262.269 247.610,263.426 246.400 C 266.510 243.177,278.576 227.919,280.983 224.200 C 282.121 222.440,284.321 219.290,285.872 217.200 C 288.687 213.404,293.249 206.321,300.169 195.000 C 305.961 185.524,307.665 182.618,311.307 176.000 C 313.183 172.590,315.467 168.450,316.382 166.800 C 319.075 161.940,323.484 158.138,330.764 154.399 C 337.453 150.963,340.344 147.647,341.999 141.515 C 348.310 118.127,313.994 109.976,302.989 132.249 C 299.928 138.443,300.104 143.962,303.589 151.130 C 307.411 158.992,307.289 159.343,296.946 170.257 C 292.796 174.636,285.710 182.172,281.200 187.003 C 261.383 208.231,261.742 207.928,258.416 206.209 C 256.376 205.153,255.142 198.185,254.199 182.400 C 254.061 180.090,253.700 175.320,253.396 171.800 C 253.093 168.280,252.734 163.240,252.600 160.600 C 252.222 153.212,251.973 150.834,248.754 124.000 C 245.986 100.925,246.719 95.614,253.909 86.677 C 261.320 77.463,264.400 71.748,264.400 67.206 C 264.400 54.735,241.923 50.668,230.438 61.060 C 219.461 70.994,219.440 85.285,230.387 96.600 C 235.876 102.274,235.964 101.383,227.573 125.000 C 226.713 127.420,223.309 137.171,220.009 146.668 C 216.709 156.165,213.454 165.525,212.777 167.468 C 212.100 169.411,210.404 174.350,209.009 178.445 C 204.996 190.223,203.429 192.295,199.828 190.587 C 197.792 189.620,196.397 187.085,193.656 179.368 C 192.322 175.610,190.850 171.650,190.386 170.568 C 189.922 169.485,188.198 165.024,186.555 160.653 C 184.912 156.282,183.104 151.602,182.536 150.253 C 181.969 148.904,180.197 144.650,178.600 140.800 C 174.715 131.440,171.632 124.373,168.986 118.766 C 167.784 116.218,166.800 114.018,166.800 113.877 C 166.800 113.737,165.899 111.523,164.799 108.958 C 160.074 97.946,160.547 90.302,166.514 81.261 C 173.562 70.582,174.429 65.533,170.046 60.682 C 166.102 56.316,157.090 54.137,149.021 55.598 M174.800 298.656 C 173.150 298.731,167.210 299.156,161.600 299.598 C 155.990 300.041,147.800 300.666,143.400 300.987 C 138.082 301.375,134.406 301.851,132.436 302.405 C 130.806 302.863,127.386 303.484,124.836 303.784 C 109.680 305.569,101.018 312.675,97.756 326.000 C 96.364 331.683,95.805 347.470,96.942 349.000 C 97.533 349.796,98.000 349.800,201.400 349.800 C 304.796 349.800,305.267 349.796,305.871 349.000 C 306.957 347.566,306.349 333.991,304.884 326.965 C 301.981 313.048,293.516 305.781,277.903 303.804 C 275.207 303.462,271.740 302.821,270.200 302.378 C 268.245 301.816,264.263 301.340,257.000 300.800 C 251.280 300.374,243.180 299.730,239.000 299.367 C 231.850 298.748,184.290 298.221,174.800 298.656 " stroke="none" fill="#fbfbfb" fill-rule="evenodd"></path><path id="path2" d="M148.800 52.398 C 124.227 58.462,119.827 91.882,142.113 103.194 C 147.986 106.175,148.147 106.576,147.587 116.800 C 147.376 120.650,146.933 130.100,146.603 137.800 C 146.273 145.500,145.647 158.730,145.212 167.200 C 144.776 175.670,144.246 186.393,144.034 191.029 C 143.337 206.240,144.534 206.695,121.094 182.314 C 96.265 156.489,97.915 158.941,101.088 152.600 C 110.292 134.204,93.959 112.248,73.978 116.157 C 46.824 121.469,45.086 158.920,71.600 167.406 C 77.536 169.305,75.796 166.020,93.412 208.600 C 95.232 213.000,97.888 219.390,99.314 222.800 C 102.541 230.516,109.627 247.542,114.880 260.200 C 129.086 294.435,126.443 291.062,137.961 289.650 C 151.246 288.021,164.547 287.317,191.600 286.811 C 202.710 286.604,214.140 286.329,217.000 286.201 C 219.860 286.072,225.890 286.151,230.400 286.375 C 246.932 287.197,259.513 288.028,264.187 288.607 C 274.844 289.927,274.464 290.192,279.404 278.000 C 282.728 269.794,288.069 256.955,289.401 253.967 C 290.145 252.298,292.099 247.618,293.743 243.567 C 295.388 239.515,297.396 234.670,298.205 232.800 C 299.014 230.930,300.174 228.140,300.782 226.600 C 301.391 225.060,304.454 217.680,307.590 210.200 C 310.726 202.720,314.629 193.298,316.264 189.262 C 324.155 169.783,325.034 168.300,329.360 167.170 C 345.642 162.916,353.685 144.888,346.118 129.605 C 331.455 99.988,286.720 122.283,300.380 152.400 C 303.130 158.462,303.059 158.799,297.863 164.345 C 290.810 171.874,274.628 189.057,268.710 195.300 C 259.198 205.335,259.291 205.421,258.011 185.400 C 257.560 178.360,257.020 169.900,256.809 166.600 C 255.791 150.633,254.363 123.047,254.138 115.000 C 253.885 105.967,253.907 105.912,259.034 103.079 C 283.614 89.497,276.348 53.792,248.585 51.732 C 223.671 49.883,209.590 79.708,226.836 97.800 C 232.155 103.380,232.615 100.452,221.399 132.400 C 219.275 138.450,215.761 148.530,213.591 154.800 C 202.827 185.899,203.374 184.465,201.996 185.202 C 199.713 186.424,199.993 187.033,189.800 158.600 C 187.749 152.880,185.430 146.490,184.645 144.400 C 182.005 137.368,172.211 109.276,171.134 105.645 C 170.406 103.192,170.990 101.894,174.568 98.011 C 193.239 77.752,175.230 45.876,148.800 52.398 M163.463 54.179 C 169.858 56.202,173.991 60.061,177.622 67.400 C 182.934 78.135,181.362 88.176,172.961 97.163 C 168.775 101.643,168.342 103.224,170.020 107.910 C 170.471 109.169,171.471 112.065,172.242 114.343 C 173.013 116.622,174.909 121.932,176.455 126.143 C 178.002 130.355,180.142 136.255,181.210 139.256 C 182.279 142.257,183.595 145.767,184.136 147.056 C 184.676 148.345,186.477 153.180,188.137 157.800 C 189.797 162.420,192.335 169.326,193.777 173.147 C 195.220 176.968,196.400 180.303,196.400 180.559 C 196.400 181.565,199.187 186.765,199.944 187.170 C 202.563 188.572,203.860 186.899,206.590 178.600 C 207.314 176.400,209.651 169.650,211.785 163.600 C 213.918 157.550,216.626 149.810,217.801 146.400 C 218.977 142.990,221.192 136.600,222.725 132.200 C 234.038 99.719,233.501 103.104,228.215 97.600 C 222.773 91.933,220.201 86.010,220.225 79.200 C 220.311 54.314,253.572 43.002,267.049 63.274 C 276.932 78.140,272.763 94.168,256.943 102.129 C 251.848 104.693,251.477 106.287,252.549 121.000 C 253.539 134.603,254.328 146.631,254.803 155.400 C 255.042 159.800,255.490 167.000,255.798 171.400 C 256.107 175.800,256.646 183.630,256.996 188.800 C 258.277 207.715,258.546 207.815,271.412 194.186 C 293.857 170.412,301.897 161.748,302.721 160.451 C 303.994 158.446,303.727 156.581,301.472 151.740 C 290.147 127.424,321.946 104.676,340.581 123.763 C 353.558 137.055,347.705 158.762,329.404 165.221 C 323.992 167.131,323.258 167.855,320.904 173.600 C 320.228 175.250,318.856 178.490,317.855 180.800 C 316.853 183.110,314.559 188.600,312.755 193.000 C 310.952 197.400,308.720 202.800,307.796 205.000 C 306.871 207.200,304.845 212.060,303.292 215.800 C 301.739 219.540,299.272 225.480,297.809 229.000 C 296.346 232.520,293.796 238.724,292.142 242.787 C 290.488 246.850,288.531 251.530,287.793 253.187 C 286.617 255.829,283.200 264.011,279.019 274.200 C 272.901 289.107,274.564 287.826,262.800 286.692 C 258.950 286.321,252.470 285.825,248.400 285.590 C 244.330 285.355,239.110 284.999,236.800 284.799 C 231.140 284.308,222.047 284.307,213.800 284.796 C 210.060 285.018,198.450 285.387,188.000 285.616 C 177.550 285.845,166.570 286.200,163.600 286.404 C 160.630 286.607,154.886 286.970,150.836 287.209 C 146.785 287.448,140.795 287.989,137.524 288.410 C 127.949 289.642,128.645 290.163,123.601 278.000 C 122.004 274.150,120.073 269.560,119.310 267.800 C 118.546 266.040,117.204 262.800,116.326 260.600 C 115.449 258.400,113.327 253.270,111.610 249.200 C 109.893 245.130,106.742 237.570,104.607 232.400 C 102.472 227.230,99.321 219.670,97.604 215.600 C 95.887 211.530,91.204 200.280,87.198 190.600 C 77.573 167.345,78.180 168.383,73.278 166.769 C 63.252 163.469,56.058 156.134,54.187 147.303 C 48.651 121.179,82.462 105.332,97.019 127.228 C 102.985 136.202,103.675 142.469,99.651 151.128 C 95.996 158.994,95.204 157.716,118.413 181.400 C 122.940 186.020,129.142 192.410,132.193 195.600 C 142.523 206.397,144.229 206.539,144.849 196.660 C 145.641 184.033,147.090 155.774,147.405 146.800 C 147.540 142.950,148.009 133.061,148.448 124.824 C 149.506 104.946,149.687 105.711,143.124 102.345 C 114.462 87.643,132.702 44.447,163.463 54.179 M169.561 296.020 C 155.767 296.538,135.557 298.414,130.757 299.622 C 129.083 300.043,125.699 300.669,123.237 301.012 C 103.139 303.816,94.300 314.386,93.153 336.986 C 92.515 349.566,93.052 352.298,96.336 353.183 C 99.757 354.104,306.566 353.534,307.613 352.600 C 311.398 349.225,309.908 326.362,305.307 317.200 C 301.241 309.107,290.815 302.424,280.310 301.179 C 278.269 300.937,274.890 300.316,272.800 299.798 C 266.901 298.336,248.407 296.625,231.800 296.004 C 220.044 295.565,181.428 295.575,169.561 296.020 M234.400 297.197 C 249.606 297.950,266.623 299.580,272.000 300.797 C 274.750 301.420,278.260 302.050,279.800 302.197 C 289.985 303.167,300.309 309.850,304.410 318.128 C 308.575 326.532,310.118 349.724,306.645 351.715 C 305.513 352.365,99.550 352.633,97.156 351.988 C 94.345 351.231,94.189 350.632,94.276 340.927 C 94.500 316.003,103.280 304.473,123.904 302.023 C 125.941 301.781,129.451 301.149,131.704 300.620 C 135.732 299.672,152.966 298.000,166.600 297.233 C 174.788 296.773,225.292 296.746,234.400 297.197 " stroke="none" fill="#a4a4a4" fill-rule="evenodd"></path><path id="path3" d="M149.500 37.882 C 149.995 37.978,150.805 37.978,151.300 37.882 C 151.795 37.787,151.390 37.709,150.400 37.709 C 149.410 37.709,149.005 37.787,149.500 37.882 M160.705 37.883 C 161.202 37.979,161.922 37.975,162.305 37.875 C 162.687 37.775,162.280 37.696,161.400 37.701 C 160.520 37.705,160.207 37.787,160.705 37.883 M240.705 37.883 C 241.202 37.979,241.922 37.975,242.305 37.875 C 242.687 37.775,242.280 37.696,241.400 37.701 C 240.520 37.705,240.207 37.787,240.705 37.883 M251.500 37.882 C 251.995 37.978,252.805 37.978,253.300 37.882 C 253.795 37.787,253.390 37.709,252.400 37.709 C 251.410 37.709,251.005 37.787,251.500 37.882 M124.175 50.100 L 123.000 51.400 124.300 50.225 C 125.512 49.130,125.784 48.800,125.475 48.800 C 125.406 48.800,124.821 49.385,124.175 50.100 M150.895 50.044 C 123.136 54.669,116.543 91.613,141.138 104.718 C 144.427 106.470,145.337 107.247,145.770 108.671 C 146.054 109.604,145.062 138.373,144.414 148.000 C 143.713 158.414,143.168 169.156,142.626 183.240 C 141.854 203.257,143.374 203.031,126.740 185.600 C 98.427 155.929,100.607 158.911,103.128 153.312 C 107.099 144.493,107.107 137.521,103.154 130.000 C 94.568 113.665,76.711 109.030,62.214 119.375 C 43.477 132.745,48.475 161.407,70.872 169.025 C 75.778 170.693,75.602 170.466,79.814 180.600 C 81.185 183.900,83.700 189.930,85.403 194.000 C 87.105 198.070,89.986 205.000,91.805 209.400 C 93.625 213.800,96.324 220.280,97.803 223.800 C 100.349 229.856,104.547 239.953,113.020 260.400 C 121.740 281.441,124.823 288.640,125.503 289.551 C 127.554 292.298,130.087 292.519,142.237 291.010 C 170.353 287.520,235.588 287.551,266.231 291.069 C 276.758 292.278,275.098 294.482,288.585 261.400 C 289.750 258.540,291.373 254.670,292.190 252.800 C 293.008 250.930,294.176 248.140,294.786 246.600 C 295.397 245.060,297.112 240.920,298.598 237.400 C 300.083 233.880,302.068 229.110,303.007 226.800 C 303.946 224.490,305.696 220.260,306.895 217.400 C 313.902 200.687,315.552 196.718,318.200 190.200 C 326.135 170.667,326.366 170.289,331.419 168.639 C 351.311 162.144,357.770 137.572,343.527 122.578 C 332.273 110.730,314.939 110.961,303.557 123.111 C 295.396 131.823,293.681 142.051,298.580 152.789 C 301.267 158.680,302.227 157.131,283.566 177.023 C 258.316 203.937,260.771 202.733,260.031 188.563 C 259.388 176.248,258.857 167.261,258.201 157.600 C 257.880 152.870,257.430 143.690,257.202 137.200 C 256.974 130.710,256.595 122.057,256.359 117.972 C 255.752 107.458,255.818 107.289,261.779 103.970 C 283.614 91.814,279.405 58.035,255.189 51.074 C 226.495 42.826,204.717 77.980,225.479 99.031 C 229.690 103.300,229.693 102.857,225.367 115.425 C 219.186 133.381,218.137 136.408,212.201 153.400 C 208.973 162.640,205.641 172.208,204.795 174.663 C 201.047 185.551,201.243 185.793,191.811 158.600 C 190.209 153.980,188.256 148.490,187.472 146.400 C 186.688 144.310,184.970 139.450,183.654 135.600 C 182.338 131.750,179.448 123.323,177.231 116.872 C 172.438 102.927,172.501 103.535,175.503 100.290 C 182.102 93.156,184.606 87.402,184.591 79.400 C 184.559 61.512,168.105 47.177,150.895 50.044 M161.575 52.415 C 182.150 57.347,189.211 82.123,174.568 98.011 C 170.990 101.894,170.406 103.192,171.134 105.645 C 172.211 109.276,182.005 137.368,184.645 144.400 C 185.430 146.490,187.749 152.880,189.800 158.600 C 199.993 187.033,199.713 186.424,201.996 185.202 C 203.374 184.465,202.827 185.899,213.591 154.800 C 215.761 148.530,219.275 138.450,221.399 132.400 C 232.615 100.452,232.155 103.380,226.836 97.800 C 211.492 81.703,219.837 56.667,242.047 52.167 C 263.582 47.803,280.809 70.690,271.251 90.968 C 268.744 96.288,265.495 99.510,259.034 103.079 C 253.907 105.912,253.885 105.967,254.138 115.000 C 254.363 123.047,255.791 150.633,256.809 166.600 C 259.492 208.678,258.438 206.136,268.710 195.300 C 274.628 189.057,290.810 171.874,297.863 164.345 C 303.059 158.799,303.130 158.462,300.380 152.400 C 288.739 126.733,321.406 103.050,341.217 122.793 C 355.661 137.188,349.023 162.033,329.360 167.170 C 325.034 168.300,324.155 169.783,316.264 189.262 C 314.629 193.298,310.726 202.720,307.590 210.200 C 304.454 217.680,301.391 225.060,300.782 226.600 C 300.174 228.140,299.014 230.930,298.205 232.800 C 297.396 234.670,295.388 239.515,293.743 243.567 C 292.099 247.618,290.145 252.298,289.401 253.967 C 288.069 256.955,282.728 269.794,279.404 278.000 C 274.464 290.192,274.844 289.927,264.187 288.607 C 259.513 288.028,246.932 287.197,230.400 286.375 C 225.890 286.151,219.860 286.072,217.000 286.201 C 214.140 286.329,202.710 286.604,191.600 286.811 C 164.547 287.317,151.246 288.021,137.961 289.650 C 127.836 290.891,127.655 290.792,123.941 281.952 C 121.315 275.703,120.816 274.504,114.880 260.200 C 109.627 247.542,102.541 230.516,99.314 222.800 C 97.888 219.390,95.232 213.000,93.412 208.600 C 75.796 166.020,77.536 169.305,71.600 167.406 C 45.086 158.920,46.824 121.469,73.978 116.157 C 93.959 112.248,110.292 134.204,101.088 152.600 C 97.915 158.941,96.265 156.489,121.094 182.314 C 144.534 206.695,143.337 206.240,144.034 191.029 C 144.246 186.393,144.776 175.670,145.212 167.200 C 145.647 158.730,146.273 145.500,146.603 137.800 C 146.933 130.100,147.376 120.650,147.587 116.800 C 148.147 106.576,147.986 106.175,142.113 103.194 C 113.849 88.847,130.653 45.002,161.575 52.415 M289.746 79.000 C 289.747 81.200,289.814 82.049,289.895 80.887 C 289.976 79.724,289.976 77.924,289.893 76.887 C 289.811 75.849,289.745 76.800,289.746 79.000 M72.705 101.883 C 73.202 101.979,73.922 101.975,74.305 101.875 C 74.687 101.775,74.280 101.696,73.400 101.701 C 72.520 101.705,72.207 101.787,72.705 101.883 M83.105 101.883 C 83.602 101.979,84.322 101.975,84.705 101.875 C 85.087 101.775,84.680 101.696,83.800 101.701 C 82.920 101.705,82.607 101.787,83.105 101.883 M318.305 101.883 C 318.802 101.979,319.522 101.975,319.905 101.875 C 320.287 101.775,319.880 101.696,319.000 101.701 C 318.120 101.705,317.807 101.787,318.305 101.883 M328.305 101.883 C 328.802 101.979,329.522 101.975,329.905 101.875 C 330.287 101.775,329.880 101.696,329.000 101.701 C 328.120 101.705,327.807 101.787,328.305 101.883 M296.000 112.200 C 295.028 113.190,294.323 114.000,294.433 114.000 C 294.543 114.000,295.428 113.190,296.400 112.200 C 297.372 111.210,298.077 110.400,297.967 110.400 C 297.857 110.400,296.972 111.210,296.000 112.200 M268.901 118.200 C 268.905 119.080,268.987 119.393,269.083 118.895 C 269.179 118.398,269.175 117.678,269.075 117.295 C 268.975 116.913,268.896 117.320,268.901 118.200 M131.724 135.000 C 131.726 136.320,131.801 136.812,131.890 136.093 C 131.979 135.374,131.977 134.294,131.886 133.693 C 131.795 133.092,131.722 133.680,131.724 135.000 M283.293 136.000 C 283.293 136.770,283.375 137.085,283.476 136.700 C 283.576 136.315,283.576 135.685,283.476 135.300 C 283.375 134.915,283.293 135.230,283.293 136.000 M119.301 138.200 C 119.305 139.080,119.387 139.393,119.483 138.895 C 119.579 138.398,119.575 137.678,119.475 137.295 C 119.375 136.913,119.296 137.320,119.301 138.200 M364.493 138.000 C 364.493 138.770,364.575 139.085,364.676 138.700 C 364.776 138.315,364.776 137.685,364.676 137.300 C 364.575 136.915,364.493 137.230,364.493 138.000 M270.920 140.400 C 270.920 141.610,270.995 142.105,271.087 141.500 C 271.178 140.895,271.178 139.905,271.087 139.300 C 270.995 138.695,270.920 139.190,270.920 140.400 M119.301 144.600 C 119.305 145.480,119.387 145.793,119.483 145.295 C 119.579 144.798,119.575 144.078,119.475 143.695 C 119.375 143.313,119.296 143.720,119.301 144.600 M131.344 148.800 C 131.344 150.890,131.412 151.745,131.494 150.700 C 131.576 149.655,131.576 147.945,131.494 146.900 C 131.412 145.855,131.344 146.710,131.344 148.800 M271.342 154.200 C 271.341 156.180,271.408 157.040,271.492 156.112 C 271.576 155.184,271.577 153.564,271.495 152.512 C 271.412 151.460,271.343 152.220,271.342 154.200 M130.934 166.400 C 130.934 168.050,131.005 168.725,131.091 167.900 C 131.178 167.075,131.178 165.725,131.091 164.900 C 131.005 164.075,130.934 164.750,130.934 166.400 M274.175 168.100 L 273.000 169.400 274.300 168.225 C 275.015 167.579,275.600 166.994,275.600 166.925 C 275.600 166.616,275.270 166.888,274.175 168.100 M184.390 293.733 C 184.274 293.854,178.102 294.145,170.674 294.380 C 152.717 294.947,135.206 296.540,128.863 298.184 C 127.600 298.511,124.593 299.069,122.183 299.424 C 104.904 301.968,93.985 312.612,91.956 328.891 C 91.092 335.826,91.256 350.754,92.214 352.386 C 94.180 355.732,82.147 355.400,201.400 355.400 L 307.000 355.400 308.473 354.484 C 311.144 352.823,311.355 351.606,311.071 339.490 C 310.812 328.453,310.470 325.774,308.641 320.476 C 304.859 309.521,293.988 301.252,281.200 299.601 C 279.110 299.332,276.050 298.764,274.400 298.340 C 271.096 297.492,258.827 295.891,250.400 295.209 C 239.290 294.309,184.996 293.095,184.390 293.733 M231.800 296.004 C 248.407 296.625,266.901 298.336,272.800 299.798 C 274.890 300.316,278.269 300.937,280.310 301.179 C 290.815 302.424,301.241 309.107,305.307 317.200 C 309.908 326.362,311.398 349.225,307.613 352.600 C 306.566 353.534,99.757 354.104,96.336 353.183 C 93.052 352.298,92.515 349.566,93.153 336.986 C 94.300 314.386,103.139 303.816,123.237 301.012 C 125.699 300.669,129.083 300.043,130.757 299.622 C 135.557 298.414,155.767 296.538,169.561 296.020 C 181.428 295.575,220.044 295.565,231.800 296.004 M91.387 300.500 L 89.000 303.000 91.500 300.613 C 92.875 299.299,94.000 298.174,94.000 298.113 C 94.000 297.817,93.605 298.178,91.387 300.500 M310.600 300.000 C 311.683 301.100,312.660 302.000,312.770 302.000 C 312.880 302.000,312.083 301.100,311.000 300.000 C 309.917 298.900,308.940 298.000,308.830 298.000 C 308.720 298.000,309.517 298.900,310.600 300.000 M324.114 333.000 C 324.117 334.100,324.195 334.503,324.287 333.895 C 324.379 333.286,324.377 332.386,324.282 331.895 C 324.187 331.403,324.111 331.900,324.114 333.000 M78.175 348.400 C 78.175 354.450,78.231 356.925,78.299 353.900 C 78.367 350.875,78.367 345.925,78.299 342.900 C 78.231 339.875,78.175 342.350,78.175 348.400 " stroke="none" fill="#949494" fill-rule="evenodd"></path><path id="path4" d="M149.400 53.415 C 125.406 58.605,121.236 91.117,143.124 102.345 C 149.687 105.711,149.506 104.946,148.448 124.824 C 148.009 133.061,147.540 142.950,147.405 146.800 C 147.090 155.774,145.641 184.033,144.849 196.660 C 144.229 206.539,142.523 206.397,132.193 195.600 C 129.142 192.410,122.940 186.020,118.413 181.400 C 95.204 157.716,95.996 158.994,99.651 151.128 C 103.675 142.469,102.985 136.202,97.019 127.228 C 82.462 105.332,48.651 121.179,54.187 147.303 C 56.058 156.134,63.252 163.469,73.278 166.769 C 78.180 168.383,77.573 167.345,87.198 190.600 C 91.204 200.280,95.887 211.530,97.604 215.600 C 99.321 219.670,102.472 227.230,104.607 232.400 C 106.742 237.570,109.893 245.130,111.610 249.200 C 113.327 253.270,115.449 258.400,116.326 260.600 C 117.204 262.800,118.546 266.040,119.310 267.800 C 120.073 269.560,122.004 274.150,123.601 278.000 C 128.645 290.163,127.949 289.642,137.524 288.410 C 140.795 287.989,146.785 287.448,150.836 287.209 C 154.886 286.970,160.630 286.607,163.600 286.404 C 166.570 286.200,177.550 285.845,188.000 285.616 C 198.450 285.387,210.060 285.018,213.800 284.796 C 222.047 284.307,231.140 284.308,236.800 284.799 C 239.110 284.999,244.330 285.355,248.400 285.590 C 252.470 285.825,258.950 286.321,262.800 286.692 C 274.564 287.826,272.901 289.107,279.019 274.200 C 283.200 264.011,286.617 255.829,287.793 253.187 C 288.531 251.530,290.488 246.850,292.142 242.787 C 293.796 238.724,296.346 232.520,297.809 229.000 C 299.272 225.480,301.739 219.540,303.292 215.800 C 304.845 212.060,306.871 207.200,307.796 205.000 C 308.720 202.800,310.952 197.400,312.755 193.000 C 314.559 188.600,316.853 183.110,317.855 180.800 C 318.856 178.490,320.228 175.250,320.904 173.600 C 323.258 167.855,323.992 167.131,329.404 165.221 C 347.705 158.762,353.558 137.055,340.581 123.763 C 321.946 104.676,290.147 127.424,301.472 151.740 C 303.727 156.581,303.994 158.446,302.721 160.451 C 301.897 161.748,293.857 170.412,271.412 194.186 C 258.546 207.815,258.277 207.715,256.996 188.800 C 256.646 183.630,256.107 175.800,255.798 171.400 C 255.490 167.000,255.042 159.800,254.803 155.400 C 254.328 146.631,253.539 134.603,252.549 121.000 C 251.477 106.287,251.848 104.693,256.943 102.129 C 272.763 94.168,276.932 78.140,267.049 63.274 C 258.478 50.381,239.684 49.190,228.002 60.800 C 217.479 71.258,217.568 86.513,228.215 97.600 C 233.501 103.104,234.038 99.719,222.725 132.200 C 221.192 136.600,218.977 142.990,217.801 146.400 C 216.626 149.810,213.918 157.550,211.785 163.600 C 209.651 169.650,207.314 176.400,206.590 178.600 C 203.860 186.899,202.563 188.572,199.944 187.170 C 199.187 186.765,196.400 181.565,196.400 180.559 C 196.400 180.303,195.220 176.968,193.777 173.147 C 192.335 169.326,189.797 162.420,188.137 157.800 C 186.477 153.180,184.676 148.345,184.136 147.056 C 183.595 145.767,182.279 142.257,181.210 139.256 C 180.142 136.255,178.002 130.355,176.455 126.143 C 174.909 121.932,173.013 116.622,172.242 114.343 C 171.471 112.065,170.471 109.169,170.020 107.910 C 168.342 103.224,168.775 101.643,172.961 97.163 C 182.922 86.506,183.182 72.640,173.640 60.946 C 168.455 54.590,158.403 51.468,149.400 53.415 M163.131 56.372 C 174.557 60.242,175.552 67.566,166.514 81.261 C 160.547 90.302,160.074 97.946,164.799 108.958 C 165.899 111.523,166.800 113.737,166.800 113.877 C 166.800 114.018,167.784 116.218,168.986 118.766 C 171.632 124.373,174.715 131.440,178.600 140.800 C 180.197 144.650,181.969 148.904,182.536 150.253 C 183.104 151.602,184.912 156.282,186.555 160.653 C 188.198 165.024,189.922 169.485,190.386 170.568 C 190.850 171.650,192.322 175.610,193.656 179.368 C 196.397 187.085,197.792 189.620,199.828 190.587 C 203.429 192.295,204.996 190.223,209.009 178.445 C 210.404 174.350,212.100 169.411,212.777 167.468 C 213.454 165.525,216.709 156.165,220.009 146.668 C 223.309 137.171,226.713 127.420,227.573 125.000 C 235.964 101.383,235.876 102.274,230.387 96.600 C 219.440 85.285,219.461 70.994,230.438 61.060 C 241.923 50.668,264.400 54.735,264.400 67.206 C 264.400 71.748,261.320 77.463,253.909 86.677 C 246.719 95.614,245.986 100.925,248.754 124.000 C 251.973 150.834,252.222 153.212,252.600 160.600 C 252.734 163.240,253.093 168.280,253.396 171.800 C 253.700 175.320,254.061 180.090,254.199 182.400 C 255.142 198.185,256.376 205.153,258.416 206.209 C 261.742 207.928,261.383 208.231,281.200 187.003 C 285.710 182.172,292.796 174.636,296.946 170.257 C 307.289 159.343,307.411 158.992,303.589 151.130 C 296.009 135.540,306.323 119.369,323.800 119.442 C 345.497 119.534,350.430 144.297,330.764 154.399 C 323.484 158.138,319.075 161.940,316.382 166.800 C 315.467 168.450,313.183 172.590,311.307 176.000 C 307.665 182.618,305.961 185.524,300.169 195.000 C 293.249 206.321,288.687 213.404,285.872 217.200 C 284.321 219.290,282.121 222.440,280.983 224.200 C 278.576 227.919,266.510 243.177,263.426 246.400 C 262.269 247.610,260.500 249.680,259.495 251.000 C 257.450 253.688,253.126 257.974,250.400 260.015 C 249.410 260.756,247.303 262.578,245.717 264.064 C 239.183 270.187,222.172 280.212,215.686 281.763 C 211.732 282.708,203.553 283.198,191.705 283.199 C 180.314 283.200,164.771 283.800,160.028 284.422 C 158.394 284.637,153.534 284.992,149.228 285.213 C 144.923 285.433,139.208 285.881,136.528 286.207 C 131.624 286.806,130.246 286.678,129.331 285.542 C 128.917 285.027,123.763 272.796,110.984 242.000 C 105.853 229.635,100.256 216.196,93.411 199.800 C 89.737 191.000,85.563 180.920,84.136 177.400 C 79.961 167.104,79.535 166.597,73.104 164.296 C 45.320 154.356,52.868 115.638,81.835 119.514 C 92.526 120.944,94.824 125.379,91.574 138.305 C 89.352 147.138,89.356 152.602,91.584 156.738 C 93.163 159.668,138.443 205.593,140.526 206.376 C 142.467 207.107,143.602 206.878,145.004 205.476 C 146.539 203.941,146.554 203.856,147.186 193.400 C 147.426 189.440,147.875 182.600,148.184 178.200 C 148.493 173.800,148.944 163.450,149.185 155.200 C 149.426 146.950,149.887 136.600,150.208 132.200 C 152.270 103.982,152.359 104.519,145.031 100.824 C 131.574 94.038,127.013 80.764,133.615 67.600 C 138.677 57.507,151.772 52.525,163.131 56.372 M166.600 297.233 C 152.966 298.000,135.732 299.672,131.704 300.620 C 129.451 301.149,125.941 301.781,123.904 302.023 C 103.280 304.473,94.500 316.003,94.276 340.927 C 94.189 350.632,94.345 351.231,97.156 351.988 C 99.550 352.633,305.513 352.365,306.645 351.715 C 310.118 349.724,308.575 326.532,304.410 318.128 C 300.309 309.850,289.985 303.167,279.800 302.197 C 278.260 302.050,274.750 301.420,272.000 300.797 C 257.895 297.603,196.775 295.537,166.600 297.233 M239.000 299.367 C 243.180 299.730,251.280 300.374,257.000 300.800 C 264.263 301.340,268.245 301.816,270.200 302.378 C 271.740 302.821,275.207 303.462,277.903 303.804 C 293.516 305.781,301.981 313.048,304.884 326.965 C 306.349 333.991,306.957 347.566,305.871 349.000 C 305.267 349.796,304.796 349.800,201.400 349.800 C 98.000 349.800,97.533 349.796,96.942 349.000 C 95.805 347.470,96.364 331.683,97.756 326.000 C 101.018 312.675,109.680 305.569,124.836 303.784 C 127.386 303.484,130.806 302.863,132.436 302.405 C 134.406 301.851,138.082 301.375,143.400 300.987 C 147.800 300.666,155.990 300.041,161.600 299.598 C 175.719 298.484,174.710 298.507,204.600 298.613 C 225.492 298.688,233.075 298.854,239.000 299.367 " stroke="none" fill="#d4d4d4" fill-rule="evenodd"></path></g></svg>