<svg id="svg" version="1.1" xmlns="http://www.w3.org/2000/svg" xmlns:xlink="http://www.w3.org/1999/xlink" width="400" height="400" viewBox="0, 0, 400,400"><g id="svgg"><path id="path0" d="M187.000 59.195 C 185.900 59.376,184.190 59.830,183.200 60.204 C 182.129 60.608,179.360 61.016,176.362 61.210 C 168.011 61.752,165.232 63.882,165.192 69.773 C 165.187 70.448,164.734 72.260,164.184 73.800 C 163.076 76.905,162.437 82.970,162.392 90.800 C 162.349 98.249,160.888 101.466,159.577 97.000 C 159.190 95.680,158.596 93.790,158.257 92.800 C 157.919 91.810,157.446 89.415,157.206 87.477 C 156.967 85.540,156.409 83.037,155.966 81.914 C 155.524 80.791,154.981 78.434,154.761 76.676 C 154.119 71.560,152.426 68.777,149.095 67.364 C 145.367 65.782,126.851 66.246,122.314 68.034 C 121.193 68.476,118.970 69.087,117.373 69.393 C 115.776 69.698,113.779 70.297,112.935 70.723 C 112.091 71.150,110.391 71.789,109.157 72.144 C 102.676 74.009,95.509 78.605,94.201 81.736 C 92.815 85.053,93.159 99.625,94.741 104.600 C 95.373 106.591,95.551 108.808,95.778 117.600 C 96.096 129.853,96.447 133.758,97.527 137.039 C 97.955 138.337,98.426 140.840,98.574 142.600 C 98.785 145.111,99.183 146.540,100.422 149.237 C 101.290 151.127,102.000 152.819,102.000 152.998 C 102.000 155.963,112.030 167.336,117.531 170.608 C 122.618 173.634,122.400 173.276,122.400 178.603 C 122.400 182.431,122.233 183.682,121.376 186.288 C 120.512 188.916,120.290 190.614,119.950 197.200 C 119.650 203.001,119.344 205.629,118.756 207.455 C 117.858 210.242,117.216 216.880,117.207 223.479 C 117.201 227.167,117.018 228.534,116.172 231.213 C 114.998 234.929,114.417 239.607,114.407 245.430 C 114.402 248.501,114.174 250.216,113.448 252.641 C 112.502 255.800,111.600 265.116,111.600 271.721 C 111.600 273.415,111.298 275.273,110.788 276.710 C 110.341 277.969,109.774 280.890,109.527 283.200 C 109.063 287.537,108.754 288.400,107.665 288.400 C 105.633 288.400,94.508 294.802,91.170 297.892 C 86.793 301.944,81.545 309.870,79.974 314.800 C 79.588 316.010,78.851 318.080,78.336 319.400 L 77.400 321.800 77.400 342.800 L 77.400 363.800 78.306 365.257 C 80.326 368.505,67.772 368.185,198.400 368.318 C 262.310 368.383,315.536 368.326,316.680 368.192 C 319.279 367.886,321.165 366.658,322.200 364.595 C 323.309 362.385,323.390 324.415,322.294 321.000 C 318.835 310.227,315.816 304.873,309.729 298.719 C 306.289 295.242,296.235 289.202,292.306 288.252 C 291.068 287.953,290.959 287.623,290.609 283.121 C 290.478 281.428,289.927 278.561,289.385 276.751 C 288.633 274.237,288.400 272.544,288.400 269.588 C 288.400 263.199,287.648 255.700,286.761 253.239 C 286.130 251.490,285.879 249.382,285.613 243.600 C 285.256 235.850,285.180 235.280,283.998 231.400 C 283.490 229.732,283.190 227.029,283.013 222.541 C 282.668 213.764,282.220 209.828,281.234 206.900 C 280.678 205.250,280.397 203.388,280.391 201.313 C 280.373 195.052,279.664 188.589,278.751 186.349 C 278.060 184.657,277.835 183.126,277.691 179.146 L 277.508 174.093 279.654 172.508 C 280.834 171.636,282.430 170.601,283.200 170.207 C 291.350 166.038,301.562 150.216,301.594 141.712 C 301.597 140.784,302.059 138.624,302.620 136.912 C 303.794 133.332,304.357 126.205,304.401 114.400 C 304.422 108.521,304.551 107.048,305.207 105.200 C 307.140 99.749,307.416 84.025,305.633 80.912 C 304.236 78.472,295.254 73.056,291.200 72.208 C 290.430 72.047,288.630 71.410,287.200 70.792 C 285.770 70.175,283.700 69.538,282.600 69.377 C 281.500 69.216,279.506 68.673,278.170 68.172 C 274.981 66.975,269.553 66.400,261.435 66.400 C 249.250 66.400,246.688 68.047,245.390 76.718 C 245.104 78.633,244.496 81.146,244.040 82.301 C 243.584 83.457,242.953 86.337,242.638 88.701 C 242.323 91.066,241.705 93.810,241.265 94.800 C 240.824 95.790,240.339 97.275,240.187 98.100 C 239.284 103.003,237.940 97.598,237.562 87.543 C 237.349 81.885,237.011 78.004,236.588 76.343 C 236.232 74.944,235.692 72.630,235.386 71.200 C 233.493 62.325,232.882 61.792,223.925 61.203 C 220.009 60.945,217.965 60.612,216.200 59.942 C 213.613 58.961,191.812 58.403,187.000 59.195 M193.700 59.882 C 193.205 59.978,192.395 59.978,191.900 59.882 C 191.405 59.787,191.810 59.709,192.800 59.709 C 193.790 59.709,194.195 59.787,193.700 59.882 M208.100 59.882 C 207.605 59.978,206.795 59.978,206.300 59.882 C 205.805 59.787,206.210 59.709,207.200 59.709 C 208.190 59.709,208.595 59.787,208.100 59.882 M180.305 61.875 C 179.922 61.975,179.202 61.979,178.705 61.883 C 178.207 61.787,178.520 61.705,179.400 61.701 C 180.280 61.696,180.687 61.775,180.305 61.875 M221.505 61.875 C 221.122 61.975,220.402 61.979,219.905 61.883 C 219.407 61.787,219.720 61.705,220.600 61.701 C 221.480 61.696,221.887 61.775,221.505 61.875 M268.300 67.476 C 267.915 67.576,267.285 67.576,266.900 67.476 C 266.515 67.375,266.830 67.293,267.600 67.293 C 268.370 67.293,268.685 67.375,268.300 67.476 M215.542 73.974 C 218.608 74.534,220.460 75.616,221.481 77.445 C 222.560 79.376,223.838 88.312,225.393 104.785 C 226.510 116.609,225.774 115.996,238.874 115.999 C 252.414 116.001,250.727 117.820,254.823 98.800 C 258.057 83.783,258.381 82.843,260.814 81.414 C 264.605 79.187,277.913 81.838,287.429 86.717 C 292.245 89.186,292.316 89.871,290.149 113.000 C 289.819 116.520,289.300 122.543,288.996 126.384 C 287.484 145.448,282.556 154.437,270.270 160.534 C 265.014 163.143,263.926 163.282,255.800 162.385 C 252.060 161.972,246.390 161.445,243.200 161.214 C 240.010 160.983,232.810 160.315,227.200 159.731 C 211.221 158.068,188.590 158.146,170.600 159.926 C 152.955 161.672,151.367 161.852,145.000 162.820 C 136.457 164.118,132.796 163.338,125.684 158.702 C 115.535 152.086,111.990 144.277,110.383 125.000 C 107.407 89.309,107.429 90.533,109.727 88.060 C 113.823 83.650,134.482 79.026,139.268 81.447 C 141.614 82.634,141.961 83.635,145.218 98.600 C 149.399 117.814,147.758 116.000,160.954 116.000 C 174.287 116.000,173.733 116.480,174.798 104.000 C 175.423 96.674,177.559 79.605,178.037 78.120 C 178.987 75.166,181.796 73.947,188.800 73.449 C 192.746 73.169,213.344 73.573,215.542 73.974 M163.876 81.500 C 163.775 81.885,163.693 81.570,163.693 80.800 C 163.693 80.030,163.775 79.715,163.876 80.100 C 163.976 80.485,163.976 81.115,163.876 81.500 M94.290 89.693 C 94.201 90.412,94.126 89.920,94.124 88.600 C 94.122 87.280,94.195 86.692,94.286 87.293 C 94.377 87.894,94.379 88.974,94.290 89.693 M237.092 93.891 C 237.005 94.721,236.933 94.140,236.931 92.600 C 236.929 91.060,237.000 90.381,237.089 91.091 C 237.177 91.801,237.179 93.061,237.092 93.891 M305.882 94.100 C 305.787 94.595,305.709 94.190,305.709 93.200 C 305.709 92.210,305.787 91.805,305.882 92.300 C 305.978 92.795,305.978 93.605,305.882 94.100 M163.087 95.500 C 162.995 96.105,162.920 95.610,162.920 94.400 C 162.920 93.190,162.995 92.695,163.087 93.300 C 163.178 93.905,163.178 94.895,163.087 95.500 M94.683 97.695 C 94.587 98.193,94.505 97.880,94.501 97.000 C 94.496 96.120,94.575 95.713,94.675 96.095 C 94.775 96.478,94.779 97.198,94.683 97.695 M303.887 109.500 C 303.795 110.105,303.720 109.610,303.720 108.400 C 303.720 107.190,303.795 106.695,303.887 107.300 C 303.978 107.905,303.978 108.895,303.887 109.500 M96.693 117.289 C 96.609 118.230,96.539 117.560,96.537 115.800 C 96.536 114.040,96.605 113.270,96.691 114.089 C 96.777 114.909,96.778 116.349,96.693 117.289 M303.487 120.295 C 303.395 120.903,303.317 120.500,303.314 119.400 C 303.311 118.300,303.387 117.803,303.482 118.295 C 303.577 118.786,303.579 119.686,303.487 120.295 M97.082 126.100 C 96.987 126.595,96.909 126.190,96.909 125.200 C 96.909 124.210,96.987 123.805,97.082 124.300 C 97.178 124.795,97.178 125.605,97.082 126.100 M303.076 128.300 C 302.975 128.685,302.893 128.370,302.893 127.600 C 302.893 126.830,302.975 126.515,303.076 126.900 C 303.176 127.285,303.176 127.915,303.076 128.300 M215.600 165.388 C 227.575 166.238,241.614 167.541,246.200 168.229 C 248.400 168.558,252.021 169.088,254.246 169.406 C 261.597 170.455,261.831 170.699,263.165 178.702 C 263.596 181.286,264.061 184.840,264.198 186.600 C 264.335 188.360,264.796 192.500,265.222 195.800 C 266.304 204.168,267.491 214.439,267.789 218.000 C 267.927 219.650,268.305 222.569,268.630 224.487 C 268.954 226.404,269.569 231.264,269.995 235.287 C 270.421 239.309,271.049 244.940,271.390 247.800 C 271.731 250.660,272.367 256.150,272.802 260.000 C 273.238 263.850,273.953 269.520,274.392 272.600 C 277.206 292.359,277.352 292.168,260.805 290.416 C 241.303 288.351,189.019 287.587,163.200 288.988 C 152.168 289.587,145.162 290.129,139.423 290.826 C 128.256 292.182,124.975 291.825,124.043 289.152 C 123.494 287.577,124.632 274.371,126.004 266.400 C 126.212 265.190,126.571 262.130,126.803 259.600 C 127.034 257.070,127.660 251.850,128.195 248.000 C 128.729 244.150,129.452 237.940,129.801 234.200 C 130.149 230.460,130.770 225.240,131.180 222.600 C 131.590 219.960,132.047 216.360,132.196 214.600 C 132.344 212.840,132.895 208.070,133.419 204.000 C 133.943 199.930,134.656 193.720,135.004 190.200 C 136.642 173.643,137.555 170.720,141.423 169.639 C 152.726 166.481,196.024 164.000,215.600 165.388 M123.487 177.100 C 123.395 177.705,123.320 177.210,123.320 176.000 C 123.320 174.790,123.395 174.295,123.487 174.900 C 123.578 175.505,123.578 176.495,123.487 177.100 M277.083 182.895 C 276.987 183.393,276.905 183.080,276.901 182.200 C 276.896 181.320,276.975 180.913,277.075 181.295 C 277.175 181.678,277.179 182.398,277.083 182.895 M279.076 193.500 C 278.975 193.885,278.893 193.570,278.893 192.800 C 278.893 192.030,278.975 191.715,279.076 192.100 C 279.176 192.485,279.176 193.115,279.076 193.500 M121.083 195.295 C 120.987 195.793,120.905 195.480,120.901 194.600 C 120.896 193.720,120.975 193.313,121.075 193.695 C 121.175 194.078,121.179 194.798,121.083 195.295 M120.676 201.900 C 120.575 202.285,120.493 201.970,120.493 201.200 C 120.493 200.430,120.575 200.115,120.676 200.500 C 120.776 200.885,120.776 201.515,120.676 201.900 M282.287 224.300 C 282.195 224.905,282.120 224.410,282.120 223.200 C 282.120 221.990,282.195 221.495,282.287 222.100 C 282.378 222.705,282.378 223.695,282.287 224.300 M117.889 227.700 C 117.801 228.415,117.728 227.830,117.728 226.400 C 117.728 224.970,117.801 224.385,117.889 225.100 C 117.978 225.815,117.978 226.985,117.889 227.700 M284.683 242.095 C 284.587 242.593,284.505 242.280,284.501 241.400 C 284.496 240.520,284.575 240.113,284.675 240.495 C 284.775 240.878,284.779 241.598,284.683 242.095 M115.482 244.100 C 115.387 244.595,115.309 244.190,115.309 243.200 C 115.309 242.210,115.387 241.805,115.482 242.300 C 115.578 242.795,115.578 243.605,115.482 244.100 M285.082 249.700 C 284.987 250.195,284.909 249.790,284.909 248.800 C 284.909 247.810,284.987 247.405,285.082 247.900 C 285.178 248.395,285.178 249.205,285.082 249.700 M112.676 268.700 C 112.575 269.085,112.493 268.770,112.493 268.000 C 112.493 267.230,112.575 266.915,112.676 267.300 C 112.776 267.685,112.776 268.315,112.676 268.700 M287.887 273.895 C 287.795 274.503,287.717 274.100,287.714 273.000 C 287.711 271.900,287.787 271.403,287.882 271.895 C 287.977 272.386,287.979 273.286,287.887 273.895 M224.800 294.407 C 238.257 294.887,254.500 295.870,257.899 296.410 C 259.164 296.611,262.869 297.041,266.132 297.365 C 269.394 297.689,274.164 298.425,276.732 299.001 C 279.299 299.576,282.544 300.304,283.942 300.618 C 294.557 303.002,303.796 311.105,307.209 321.026 C 309.703 328.276,310.900 349.654,308.958 352.267 C 306.712 355.290,318.254 355.000,200.200 355.000 C 81.516 355.000,92.931 355.314,91.011 352.000 C 89.245 348.952,90.278 330.314,92.673 322.000 C 95.909 310.771,105.550 302.675,118.867 300.006 C 121.073 299.564,123.921 298.931,125.197 298.601 C 126.472 298.270,129.380 297.817,131.658 297.593 C 133.936 297.369,138.770 296.841,142.400 296.418 C 159.773 294.396,198.208 293.458,224.800 294.407 M322.283 330.095 C 322.187 330.593,322.105 330.280,322.101 329.400 C 322.096 328.520,322.175 328.113,322.275 328.495 C 322.375 328.878,322.379 329.598,322.283 330.095 M77.899 352.700 C 77.834 356.825,77.781 353.450,77.781 345.200 C 77.781 336.950,77.834 333.575,77.899 337.700 C 77.964 341.825,77.964 348.575,77.899 352.700 " stroke="none" fill="#464646" fill-rule="evenodd"></path><path id="path1" d="M191.900 59.882 C 192.395 59.978,193.205 59.978,193.700 59.882 C 194.195 59.787,193.790 59.709,192.800 59.709 C 191.810 59.709,191.405 59.787,191.900 59.882 M206.300 59.882 C 206.795 59.978,207.605 59.978,208.100 59.882 C 208.595 59.787,208.190 59.709,207.200 59.709 C 206.210 59.709,205.805 59.787,206.300 59.882 M178.705 61.883 C 179.202 61.979,179.922 61.975,180.305 61.875 C 180.687 61.775,180.280 61.696,179.400 61.701 C 178.520 61.705,178.207 61.787,178.705 61.883 M219.905 61.883 C 220.402 61.979,221.122 61.975,221.505 61.875 C 221.887 61.775,221.480 61.696,220.600 61.701 C 219.720 61.705,219.407 61.787,219.905 61.883 M266.900 67.476 C 267.285 67.576,267.915 67.576,268.300 67.476 C 268.685 67.375,268.370 67.293,267.600 67.293 C 266.830 67.293,266.515 67.375,266.900 67.476 M188.800 73.449 C 181.796 73.947,178.987 75.166,178.037 78.120 C 177.559 79.605,175.423 96.674,174.798 104.000 C 173.733 116.480,174.287 116.000,160.954 116.000 C 147.758 116.000,149.399 117.814,145.218 98.600 C 141.961 83.635,141.614 82.634,139.268 81.447 C 134.482 79.026,113.823 83.650,109.727 88.060 C 107.429 90.533,107.407 89.309,110.383 125.000 C 111.990 144.277,115.535 152.086,125.684 158.702 C 132.796 163.338,136.457 164.118,145.000 162.820 C 151.367 161.852,152.955 161.672,170.600 159.926 C 188.590 158.146,211.221 158.068,227.200 159.731 C 232.810 160.315,240.010 160.983,243.200 161.214 C 246.390 161.445,252.060 161.972,255.800 162.385 C 263.926 163.282,265.014 163.143,270.270 160.534 C 282.556 154.437,287.484 145.448,288.996 126.384 C 289.300 122.543,289.819 116.520,290.149 113.000 C 292.316 89.871,292.245 89.186,287.429 86.717 C 277.913 81.838,264.605 79.187,260.814 81.414 C 258.381 82.843,258.057 83.783,254.823 98.800 C 250.727 117.820,252.414 116.001,238.874 115.999 C 225.774 115.996,226.510 116.609,225.393 104.785 C 223.137 80.884,222.260 76.722,219.142 75.116 C 216.479 73.745,198.526 72.759,188.800 73.449 M212.200 75.636 C 219.319 76.493,220.424 77.695,221.190 85.405 C 221.430 87.822,221.980 92.680,222.412 96.200 C 222.844 99.720,223.462 105.163,223.786 108.296 C 224.800 118.100,224.327 117.800,238.782 117.800 C 254.222 117.800,252.482 119.581,256.762 99.400 C 259.672 85.682,260.042 84.490,261.708 83.453 C 265.180 81.292,273.637 82.887,282.976 87.465 C 289.398 90.613,289.974 91.751,288.808 99.000 C 288.400 101.540,287.456 112.861,286.791 123.200 C 286.118 133.673,284.472 141.193,281.670 146.600 C 278.172 153.352,268.586 160.189,262.680 160.146 C 257.077 160.105,241.466 159.187,236.800 158.625 C 220.678 156.681,194.330 156.002,179.200 157.140 C 168.992 157.909,149.879 159.946,142.496 161.054 C 136.515 161.951,132.832 161.012,126.933 157.087 C 116.895 150.407,113.613 142.865,112.214 123.257 C 111.470 112.831,110.894 105.686,110.393 100.658 C 109.773 94.436,109.879 91.603,110.788 90.113 C 113.282 86.022,133.460 81.052,138.013 83.407 C 139.981 84.425,140.687 86.649,143.787 101.600 C 147.387 118.965,146.441 118.145,162.619 117.929 C 174.916 117.764,175.256 117.592,176.004 111.160 C 177.128 101.497,178.051 93.152,178.611 87.600 C 179.492 78.868,179.842 77.909,182.692 76.440 C 184.911 75.297,204.868 74.753,212.200 75.636 M163.693 80.800 C 163.693 81.570,163.775 81.885,163.876 81.500 C 163.976 81.115,163.976 80.485,163.876 80.100 C 163.775 79.715,163.693 80.030,163.693 80.800 M94.124 88.600 C 94.126 89.920,94.201 90.412,94.290 89.693 C 94.379 88.974,94.377 87.894,94.286 87.293 C 94.195 86.692,94.122 87.280,94.124 88.600 M236.931 92.600 C 236.933 94.140,237.005 94.721,237.092 93.891 C 237.179 93.061,237.177 91.801,237.089 91.091 C 237.000 90.381,236.929 91.060,236.931 92.600 M305.709 93.200 C 305.709 94.190,305.787 94.595,305.882 94.100 C 305.978 93.605,305.978 92.795,305.882 92.300 C 305.787 91.805,305.709 92.210,305.709 93.200 M162.920 94.400 C 162.920 95.610,162.995 96.105,163.087 95.500 C 163.178 94.895,163.178 93.905,163.087 93.300 C 162.995 92.695,162.920 93.190,162.920 94.400 M94.501 97.000 C 94.505 97.880,94.587 98.193,94.683 97.695 C 94.779 97.198,94.775 96.478,94.675 96.095 C 94.575 95.713,94.496 96.120,94.501 97.000 M303.720 108.400 C 303.720 109.610,303.795 110.105,303.887 109.500 C 303.978 108.895,303.978 107.905,303.887 107.300 C 303.795 106.695,303.720 107.190,303.720 108.400 M96.537 115.800 C 96.539 117.560,96.609 118.230,96.693 117.289 C 96.778 116.349,96.777 114.909,96.691 114.089 C 96.605 113.270,96.536 114.040,96.537 115.800 M303.314 119.400 C 303.317 120.500,303.395 120.903,303.487 120.295 C 303.579 119.686,303.577 118.786,303.482 118.295 C 303.387 117.803,303.311 118.300,303.314 119.400 M96.909 125.200 C 96.909 126.190,96.987 126.595,97.082 126.100 C 97.178 125.605,97.178 124.795,97.082 124.300 C 96.987 123.805,96.909 124.210,96.909 125.200 M302.893 127.600 C 302.893 128.370,302.975 128.685,303.076 128.300 C 303.176 127.915,303.176 127.285,303.076 126.900 C 302.975 126.515,302.893 126.830,302.893 127.600 M181.200 165.442 C 164.615 166.382,146.080 168.338,141.423 169.639 C 137.555 170.720,136.642 173.643,135.004 190.200 C 134.656 193.720,133.943 199.930,133.419 204.000 C 132.895 208.070,132.344 212.840,132.196 214.600 C 132.047 216.360,131.590 219.960,131.180 222.600 C 130.770 225.240,130.149 230.460,129.801 234.200 C 129.452 237.940,128.729 244.150,128.195 248.000 C 127.660 251.850,127.034 257.070,126.803 259.600 C 126.571 262.130,126.212 265.190,126.004 266.400 C 124.632 274.371,123.494 287.577,124.043 289.152 C 124.975 291.825,128.256 292.182,139.423 290.826 C 145.162 290.129,152.168 289.587,163.200 288.988 C 189.019 287.587,241.303 288.351,260.805 290.416 C 277.352 292.168,277.206 292.359,274.392 272.600 C 273.953 269.520,273.238 263.850,272.802 260.000 C 272.367 256.150,271.731 250.660,271.390 247.800 C 271.049 244.940,270.421 239.309,269.995 235.287 C 269.569 231.264,268.954 226.404,268.630 224.487 C 268.305 222.569,267.927 219.650,267.789 218.000 C 267.491 214.439,266.304 204.168,265.222 195.800 C 264.796 192.500,264.335 188.360,264.198 186.600 C 264.061 184.840,263.596 181.286,263.165 178.702 C 261.831 170.699,261.597 170.455,254.246 169.406 C 252.021 169.088,248.400 168.558,246.200 168.229 C 244.000 167.899,238.060 167.256,233.000 166.800 C 209.458 164.677,199.351 164.412,181.200 165.442 M214.442 167.989 C 217.169 168.204,223.482 168.658,228.470 169.000 C 233.459 169.341,241.199 170.156,245.670 170.810 C 250.141 171.465,254.390 172.000,255.112 172.000 C 259.144 172.000,259.799 173.045,260.816 181.091 C 262.273 192.634,263.175 200.172,263.414 202.800 C 263.543 204.230,263.998 207.830,264.424 210.800 C 264.850 213.770,265.367 218.000,265.573 220.200 C 265.778 222.400,266.405 227.710,266.966 232.000 C 267.528 236.290,268.267 242.770,268.609 246.400 C 268.951 250.030,269.489 254.620,269.804 256.600 C 270.119 258.580,270.645 262.902,270.973 266.204 C 271.301 269.506,271.936 274.456,272.385 277.204 C 274.234 288.536,273.729 289.374,265.790 288.144 C 262.702 287.665,258.613 287.447,252.000 287.407 C 246.830 287.377,238.010 287.107,232.400 286.808 C 219.831 286.138,180.664 286.103,168.000 286.749 C 153.702 287.479,141.791 288.328,136.600 288.985 C 125.423 290.402,124.843 289.772,126.580 278.097 C 126.899 275.954,127.623 270.060,128.190 265.000 C 128.757 259.940,129.484 254.090,129.807 252.000 C 130.130 249.910,130.667 245.415,131.000 242.011 C 131.555 236.345,132.763 226.145,134.789 210.000 C 135.217 206.590,136.036 199.572,136.608 194.404 C 139.363 169.532,137.864 171.815,152.621 170.014 C 158.110 169.345,163.500 168.681,164.600 168.538 C 170.532 167.771,206.607 167.374,214.442 167.989 M123.320 176.000 C 123.320 177.210,123.395 177.705,123.487 177.100 C 123.578 176.495,123.578 175.505,123.487 174.900 C 123.395 174.295,123.320 174.790,123.320 176.000 M276.901 182.200 C 276.905 183.080,276.987 183.393,277.083 182.895 C 277.179 182.398,277.175 181.678,277.075 181.295 C 276.975 180.913,276.896 181.320,276.901 182.200 M278.893 192.800 C 278.893 193.570,278.975 193.885,279.076 193.500 C 279.176 193.115,279.176 192.485,279.076 192.100 C 278.975 191.715,278.893 192.030,278.893 192.800 M120.901 194.600 C 120.905 195.480,120.987 195.793,121.083 195.295 C 121.179 194.798,121.175 194.078,121.075 193.695 C 120.975 193.313,120.896 193.720,120.901 194.600 M120.493 201.200 C 120.493 201.970,120.575 202.285,120.676 201.900 C 120.776 201.515,120.776 200.885,120.676 200.500 C 120.575 200.115,120.493 200.430,120.493 201.200 M282.120 223.200 C 282.120 224.410,282.195 224.905,282.287 224.300 C 282.378 223.695,282.378 222.705,282.287 222.100 C 282.195 221.495,282.120 221.990,282.120 223.200 M117.728 226.400 C 117.728 227.830,117.801 228.415,117.889 227.700 C 117.978 226.985,117.978 225.815,117.889 225.100 C 117.801 224.385,117.728 224.970,117.728 226.400 M284.501 241.400 C 284.505 242.280,284.587 242.593,284.683 242.095 C 284.779 241.598,284.775 240.878,284.675 240.495 C 284.575 240.113,284.496 240.520,284.501 241.400 M115.309 243.200 C 115.309 244.190,115.387 244.595,115.482 244.100 C 115.578 243.605,115.578 242.795,115.482 242.300 C 115.387 241.805,115.309 242.210,115.309 243.200 M284.909 248.800 C 284.909 249.790,284.987 250.195,285.082 249.700 C 285.178 249.205,285.178 248.395,285.082 247.900 C 284.987 247.405,284.909 247.810,284.909 248.800 M112.493 268.000 C 112.493 268.770,112.575 269.085,112.676 268.700 C 112.776 268.315,112.776 267.685,112.676 267.300 C 112.575 266.915,112.493 267.230,112.493 268.000 M287.714 273.000 C 287.717 274.100,287.795 274.503,287.887 273.895 C 287.979 273.286,287.977 272.386,287.882 271.895 C 287.787 271.403,287.711 271.900,287.714 273.000 M173.000 294.465 C 159.042 294.982,149.513 295.590,142.400 296.418 C 138.770 296.841,133.936 297.369,131.658 297.593 C 129.380 297.817,126.472 298.270,125.197 298.601 C 123.921 298.931,121.073 299.564,118.867 300.006 C 105.550 302.675,95.909 310.771,92.673 322.000 C 90.278 330.314,89.245 348.952,91.011 352.000 C 92.931 355.314,81.516 355.000,200.200 355.000 C 318.254 355.000,306.712 355.290,308.958 352.267 C 310.900 349.654,309.703 328.276,307.209 321.026 C 303.796 311.105,294.557 303.002,283.942 300.618 C 282.544 300.304,279.299 299.576,276.732 299.001 C 274.164 298.425,269.394 297.689,266.132 297.365 C 262.869 297.041,259.164 296.611,257.899 296.410 C 246.234 294.556,199.475 293.485,173.000 294.465 M227.478 296.406 C 257.866 297.517,280.433 300.553,289.347 304.730 C 303.036 311.145,307.490 320.224,307.727 342.200 C 307.810 349.934,307.523 351.166,305.398 352.174 C 304.198 352.744,293.988 352.795,199.444 352.702 L 94.818 352.600 93.709 351.489 L 92.600 350.378 92.623 341.689 C 92.688 316.703,100.390 305.400,119.810 301.793 C 121.784 301.426,124.840 300.793,126.600 300.387 C 131.768 299.195,156.616 296.972,170.600 296.450 C 183.605 295.965,214.750 295.941,227.478 296.406 M322.101 329.400 C 322.105 330.280,322.187 330.593,322.283 330.095 C 322.379 329.598,322.375 328.878,322.275 328.495 C 322.175 328.113,322.096 328.520,322.101 329.400 M77.781 345.200 C 77.781 353.450,77.834 356.825,77.899 352.700 C 77.964 348.575,77.964 341.825,77.899 337.700 C 77.834 333.575,77.781 336.950,77.781 345.200 " stroke="none" fill="#a4a4a4" fill-rule="evenodd"></path><path id="path2" d="M186.626 76.436 C 180.781 77.230,180.325 78.041,179.230 89.600 C 178.782 94.330,178.139 100.450,177.801 103.200 C 177.464 105.950,177.017 109.680,176.809 111.489 C 175.999 118.542,175.873 118.600,161.200 118.600 C 145.493 118.600,146.635 119.640,142.988 102.015 C 139.939 87.279,139.196 84.891,137.411 84.078 C 133.508 82.300,115.896 86.288,112.181 89.792 C 110.524 91.355,110.433 92.796,111.375 102.600 C 112.067 109.805,112.700 117.881,113.022 123.600 C 114.138 143.429,119.253 152.989,131.925 158.926 C 135.603 160.650,138.578 160.601,156.800 158.516 C 187.024 155.058,210.702 154.797,236.000 157.643 C 241.028 158.209,245.198 158.408,250.800 158.348 C 255.090 158.303,259.590 158.398,260.800 158.560 C 264.987 159.120,271.624 156.029,276.193 151.393 C 282.330 145.164,284.563 136.859,285.817 115.600 C 286.174 109.550,286.797 102.224,287.201 99.320 C 288.189 92.218,288.050 91.790,284.032 89.533 C 275.498 84.740,272.225 83.612,266.582 83.524 C 260.877 83.435,260.861 83.464,257.557 99.800 C 253.486 119.924,254.791 118.600,239.018 118.600 C 223.577 118.600,223.977 118.847,222.961 108.661 C 222.650 105.547,222.129 101.020,221.802 98.600 C 221.475 96.180,220.928 91.339,220.586 87.843 C 219.726 79.065,219.175 78.003,214.914 76.906 C 212.123 76.187,191.033 75.836,186.626 76.436 M211.523 78.381 C 218.155 79.548,217.802 78.820,219.190 94.200 C 219.429 96.840,219.884 100.440,220.202 102.200 C 220.520 103.960,220.968 107.646,221.198 110.391 C 222.044 120.489,222.236 120.600,238.800 120.600 C 255.976 120.600,255.882 120.682,258.828 103.128 C 259.265 100.522,259.775 97.988,259.961 97.495 C 260.147 97.003,260.613 94.710,260.997 92.400 C 262.252 84.848,265.025 83.451,272.906 86.399 C 278.408 88.458,278.932 91.318,275.987 103.200 C 275.578 104.850,274.864 108.438,274.400 111.174 C 273.936 113.910,273.484 116.264,273.396 116.406 C 273.308 116.548,272.868 118.351,272.418 120.413 C 269.155 135.365,264.327 144.871,256.695 151.372 C 250.543 156.614,247.965 157.174,237.200 155.615 C 220.427 153.186,177.447 153.410,159.966 156.018 C 157.015 156.458,151.720 157.093,148.200 157.428 C 144.680 157.763,140.700 158.142,139.355 158.269 C 135.117 158.670,129.623 156.201,124.781 151.718 C 117.396 144.881,115.583 138.235,114.002 112.200 C 113.775 108.460,113.290 102.700,112.924 99.400 C 111.889 90.068,112.642 89.337,126.101 86.612 C 137.924 84.218,136.902 83.129,140.992 102.486 C 144.936 121.152,144.303 120.532,159.630 120.730 C 177.022 120.953,177.997 120.465,178.817 111.118 C 179.036 108.633,179.564 104.350,179.992 101.600 C 180.420 98.850,180.942 93.360,181.151 89.400 C 181.674 79.493,181.941 79.026,187.579 78.118 C 191.212 77.533,207.741 77.715,211.523 78.381 M168.600 169.040 C 154.409 170.156,141.736 172.244,140.706 173.636 C 139.897 174.729,138.335 185.281,136.995 198.696 C 136.649 202.163,136.021 207.520,135.599 210.600 C 135.177 213.680,134.637 218.000,134.398 220.200 C 134.159 222.400,133.534 227.620,133.008 231.800 C 132.482 235.980,131.851 241.650,131.607 244.400 C 131.362 247.150,130.818 251.560,130.398 254.200 C 129.978 256.840,129.345 261.880,128.992 265.400 C 128.639 268.920,128.001 274.277,127.575 277.305 C 125.896 289.232,126.003 289.381,135.415 288.199 C 139.714 287.660,145.655 287.216,165.600 285.948 C 169.010 285.731,182.150 285.453,194.800 285.331 C 217.163 285.115,224.767 285.299,241.605 286.465 C 247.507 286.874,248.544 286.848,251.355 286.223 C 254.719 285.474,257.636 285.548,265.800 286.586 C 272.271 287.409,272.424 287.181,271.021 278.766 C 270.493 275.595,269.865 270.550,269.626 267.556 C 269.388 264.561,268.844 260.217,268.419 257.903 C 267.994 255.588,267.447 251.018,267.203 247.747 C 266.960 244.476,266.318 238.684,265.778 234.876 C 265.237 231.068,264.531 225.128,264.208 221.676 C 263.885 218.224,263.344 213.870,263.006 212.000 C 262.668 210.130,262.123 205.583,261.796 201.895 C 261.469 198.207,261.019 194.379,260.797 193.389 C 260.575 192.398,260.030 188.126,259.585 183.894 C 258.448 173.075,258.952 173.804,252.183 173.199 C 249.552 172.964,244.790 172.338,241.600 171.809 C 238.198 171.244,232.326 170.666,227.400 170.411 C 222.780 170.172,216.840 169.809,214.200 169.605 C 209.234 169.222,172.137 168.762,168.600 169.040 M184.335 171.576 C 191.950 172.697,205.153 178.212,211.000 182.714 C 218.023 188.121,225.825 196.274,228.252 200.743 C 229.046 202.204,230.514 204.840,231.515 206.600 C 233.227 209.611,234.125 211.728,238.050 222.000 C 240.951 229.592,246.083 250.827,247.572 261.400 C 249.325 273.847,249.580 275.900,249.838 279.657 L 250.103 283.514 249.033 284.215 C 247.888 284.965,247.651 284.961,236.800 284.010 C 227.872 283.228,200.720 282.811,184.200 283.203 C 169.272 283.558,164.439 283.819,154.800 284.794 C 152.710 285.005,149.740 285.179,148.200 285.180 C 146.660 285.181,141.833 285.491,137.473 285.870 C 127.712 286.718,128.020 286.973,129.408 279.200 C 129.742 277.330,130.281 272.740,130.607 269.000 C 130.933 265.260,131.641 259.500,132.182 256.200 C 132.723 252.900,133.353 247.680,133.583 244.600 C 133.812 241.520,134.270 237.470,134.600 235.600 C 134.930 233.730,135.555 228.510,135.989 224.000 C 136.424 219.490,137.041 214.360,137.362 212.600 C 138.081 208.653,138.297 206.800,138.804 200.218 C 139.024 197.368,139.466 193.498,139.786 191.618 C 140.107 189.738,140.651 185.590,140.996 182.400 C 141.801 174.956,141.811 174.916,143.106 174.260 C 143.709 173.954,146.804 173.493,150.000 173.232 C 153.190 172.972,157.870 172.417,160.400 171.998 C 162.930 171.580,165.720 171.156,166.600 171.057 C 168.998 170.785,181.436 171.149,184.335 171.576 M170.600 297.234 C 162.895 297.536,156.806 297.994,139.200 299.597 C 112.853 301.996,101.021 307.773,96.182 320.604 C 93.187 328.543,92.090 348.274,94.509 350.692 L 95.618 351.800 199.415 351.903 C 312.672 352.015,305.504 352.157,306.403 349.793 C 306.990 348.249,306.877 337.408,306.209 331.109 C 304.467 314.697,296.066 305.654,279.588 302.452 C 277.284 302.005,274.114 301.361,272.541 301.023 C 269.907 300.455,263.605 299.805,245.200 298.203 C 229.966 296.878,192.242 296.388,170.600 297.234 M227.181 298.809 C 231.922 299.034,237.730 299.399,240.090 299.619 C 242.449 299.840,249.199 300.375,255.090 300.808 C 287.010 303.156,297.707 308.230,302.747 323.410 C 304.709 329.318,305.600 346.923,304.035 348.856 L 303.271 349.800 201.192 349.904 C 131.467 349.975,98.624 349.876,97.569 349.592 C 95.413 349.011,95.049 347.481,95.384 340.421 C 96.309 320.902,98.998 314.342,108.344 308.802 C 111.304 307.047,119.400 304.007,121.125 304.002 C 121.634 304.001,124.154 303.568,126.725 303.039 C 132.488 301.855,136.688 301.347,145.200 300.805 C 148.830 300.574,153.600 300.189,155.800 299.951 C 168.591 298.564,208.547 297.925,227.181 298.809 " stroke="none" fill="#d4d4d4" fill-rule="evenodd"></path><path id="path3" d="M186.492 75.642 C 180.245 76.368,179.653 77.267,178.611 87.600 C 178.051 93.152,177.128 101.497,176.004 111.160 C 175.256 117.592,174.916 117.764,162.619 117.929 C 146.441 118.145,147.387 118.965,143.787 101.600 C 140.687 86.649,139.981 84.425,138.013 83.407 C 133.460 81.052,113.282 86.022,110.788 90.113 C 109.879 91.603,109.773 94.436,110.393 100.658 C 110.894 105.686,111.470 112.831,112.214 123.257 C 113.613 142.865,116.895 150.407,126.933 157.087 C 132.832 161.012,136.515 161.951,142.496 161.054 C 149.879 159.946,168.992 157.909,179.200 157.140 C 194.330 156.002,220.678 156.681,236.800 158.625 C 241.466 159.187,257.077 160.105,262.680 160.146 C 268.586 160.189,278.172 153.352,281.670 146.600 C 284.472 141.193,286.118 133.673,286.791 123.200 C 287.456 112.861,288.400 101.540,288.808 99.000 C 289.974 91.751,289.398 90.613,282.976 87.465 C 273.637 82.887,265.180 81.292,261.708 83.453 C 260.042 84.490,259.672 85.682,256.762 99.400 C 252.482 119.581,254.222 117.800,238.782 117.800 C 224.327 117.800,224.800 118.100,223.786 108.296 C 223.462 105.163,222.844 99.720,222.412 96.200 C 221.980 92.680,221.430 87.822,221.190 85.405 C 220.424 77.695,219.319 76.493,212.200 75.636 C 208.056 75.137,190.802 75.141,186.492 75.642 M214.914 76.906 C 219.175 78.003,219.726 79.065,220.586 87.843 C 220.928 91.339,221.475 96.180,221.802 98.600 C 222.129 101.020,222.650 105.547,222.961 108.661 C 223.977 118.847,223.577 118.600,239.018 118.600 C 254.791 118.600,253.486 119.924,257.557 99.800 C 260.861 83.464,260.877 83.435,266.582 83.524 C 272.225 83.612,275.498 84.740,284.032 89.533 C 288.050 91.790,288.189 92.218,287.201 99.320 C 286.797 102.224,286.174 109.550,285.817 115.600 C 284.563 136.859,282.330 145.164,276.193 151.393 C 271.624 156.029,264.987 159.120,260.800 158.560 C 259.590 158.398,255.090 158.303,250.800 158.348 C 245.198 158.408,241.028 158.209,236.000 157.643 C 210.702 154.797,187.024 155.058,156.800 158.516 C 138.578 160.601,135.603 160.650,131.925 158.926 C 119.253 152.989,114.138 143.429,113.022 123.600 C 112.700 117.881,112.067 109.805,111.375 102.600 C 110.433 92.796,110.524 91.355,112.181 89.792 C 115.896 86.288,133.508 82.300,137.411 84.078 C 139.196 84.891,139.939 87.279,142.988 102.015 C 146.635 119.640,145.493 118.600,161.200 118.600 C 175.873 118.600,175.999 118.542,176.809 111.489 C 177.017 109.680,177.464 105.950,177.801 103.200 C 178.139 100.450,178.782 94.330,179.230 89.600 C 180.325 78.041,180.781 77.230,186.626 76.436 C 191.033 75.836,212.123 76.187,214.914 76.906 M175.400 168.007 C 170.560 168.157,165.700 168.396,164.600 168.538 C 163.500 168.681,158.110 169.345,152.621 170.014 C 137.864 171.815,139.363 169.532,136.608 194.404 C 136.036 199.572,135.217 206.590,134.789 210.000 C 132.763 226.145,131.555 236.345,131.000 242.011 C 130.667 245.415,130.130 249.910,129.807 252.000 C 129.484 254.090,128.757 259.940,128.190 265.000 C 127.623 270.060,126.899 275.954,126.580 278.097 C 124.843 289.772,125.423 290.402,136.600 288.985 C 141.791 288.328,153.702 287.479,168.000 286.749 C 180.664 286.103,219.831 286.138,232.400 286.808 C 238.010 287.107,246.830 287.377,252.000 287.407 C 258.613 287.447,262.702 287.665,265.790 288.144 C 273.729 289.374,274.234 288.536,272.385 277.204 C 271.936 274.456,271.301 269.506,270.973 266.204 C 270.645 262.902,270.119 258.580,269.804 256.600 C 269.489 254.620,268.951 250.030,268.609 246.400 C 268.267 242.770,267.528 236.290,266.966 232.000 C 266.405 227.710,265.778 222.400,265.573 220.200 C 265.367 218.000,264.850 213.770,264.424 210.800 C 263.998 207.830,263.543 204.230,263.414 202.800 C 263.175 200.172,262.273 192.634,260.816 181.091 C 259.799 173.045,259.144 172.000,255.112 172.000 C 254.390 172.000,250.141 171.465,245.670 170.810 C 241.199 170.156,233.459 169.341,228.470 169.000 C 223.482 168.658,217.169 168.204,214.442 167.989 C 209.038 167.565,189.361 167.574,175.400 168.007 M214.200 169.605 C 216.840 169.809,222.780 170.172,227.400 170.411 C 232.326 170.666,238.198 171.244,241.600 171.809 C 244.790 172.338,249.552 172.964,252.183 173.199 C 258.952 173.804,258.448 173.075,259.585 183.894 C 260.030 188.126,260.575 192.398,260.797 193.389 C 261.019 194.379,261.469 198.207,261.796 201.895 C 262.123 205.583,262.668 210.130,263.006 212.000 C 263.344 213.870,263.885 218.224,264.208 221.676 C 264.531 225.128,265.237 231.068,265.778 234.876 C 266.318 238.684,266.960 244.476,267.203 247.747 C 267.447 251.018,267.994 255.588,268.419 257.903 C 268.844 260.217,269.388 264.561,269.626 267.556 C 269.865 270.550,270.493 275.595,271.021 278.766 C 272.424 287.181,272.271 287.409,265.800 286.586 C 257.636 285.548,254.719 285.474,251.355 286.223 C 248.544 286.848,247.507 286.874,241.605 286.465 C 224.767 285.299,217.163 285.115,194.800 285.331 C 182.150 285.453,169.010 285.731,165.600 285.948 C 145.655 287.216,139.714 287.660,135.415 288.199 C 126.003 289.381,125.896 289.232,127.575 277.305 C 128.001 274.277,128.639 268.920,128.992 265.400 C 129.345 261.880,129.978 256.840,130.398 254.200 C 130.818 251.560,131.362 247.150,131.607 244.400 C 131.851 241.650,132.482 235.980,133.008 231.800 C 133.534 227.620,134.159 222.400,134.398 220.200 C 134.637 218.000,135.177 213.680,135.599 210.600 C 136.021 207.520,136.649 202.163,136.995 198.696 C 138.335 185.281,139.897 174.729,140.706 173.636 C 141.736 172.244,154.409 170.156,168.600 169.040 C 172.137 168.762,209.234 169.222,214.200 169.605 M170.600 296.450 C 156.616 296.972,131.768 299.195,126.600 300.387 C 124.840 300.793,121.784 301.426,119.810 301.793 C 100.390 305.400,92.688 316.703,92.623 341.689 L 92.600 350.378 93.709 351.489 L 94.818 352.600 199.444 352.702 C 315.280 352.815,306.102 353.022,307.263 350.272 C 308.616 347.066,307.340 327.942,305.385 322.116 C 299.778 305.416,289.096 300.974,246.000 297.423 C 229.656 296.076,193.240 295.606,170.600 296.450 M227.800 297.197 C 233.520 297.416,241.350 297.868,245.200 298.203 C 263.605 299.805,269.907 300.455,272.541 301.023 C 274.114 301.361,277.284 302.005,279.588 302.452 C 296.066 305.654,304.467 314.697,306.209 331.109 C 306.877 337.408,306.990 348.249,306.403 349.793 C 305.504 352.157,312.672 352.015,199.415 351.903 L 95.618 351.800 94.509 350.692 C 92.090 348.274,93.187 328.543,96.182 320.604 C 101.021 307.773,112.853 301.996,139.200 299.597 C 156.806 297.994,162.895 297.536,170.600 297.234 C 182.547 296.767,215.957 296.745,227.800 297.197 " stroke="none" fill="#b4b4b4" fill-rule="evenodd"></path><path id="path4" d="M187.579 78.118 C 181.941 79.026,181.674 79.493,181.151 89.400 C 180.942 93.360,180.420 98.850,179.992 101.600 C 179.564 104.350,179.036 108.633,178.817 111.118 C 177.997 120.465,177.022 120.953,159.630 120.730 C 144.303 120.532,144.936 121.152,140.992 102.486 C 136.902 83.129,137.924 84.218,126.101 86.612 C 112.642 89.337,111.889 90.068,112.924 99.400 C 113.290 102.700,113.775 108.460,114.002 112.200 C 115.583 138.235,117.396 144.881,124.781 151.718 C 129.623 156.201,135.117 158.670,139.355 158.269 C 140.700 158.142,144.680 157.763,148.200 157.428 C 151.720 157.093,157.015 156.458,159.966 156.018 C 177.447 153.410,220.427 153.186,237.200 155.615 C 247.965 157.174,250.543 156.614,256.695 151.372 C 264.327 144.871,269.155 135.365,272.418 120.413 C 272.868 118.351,273.308 116.548,273.396 116.406 C 273.484 116.264,273.936 113.910,274.400 111.174 C 274.864 108.438,275.578 104.850,275.987 103.200 C 278.932 91.318,278.408 88.458,272.906 86.399 C 265.025 83.451,262.252 84.848,260.997 92.400 C 260.613 94.710,260.147 97.003,259.961 97.495 C 259.775 97.988,259.265 100.522,258.828 103.128 C 255.882 120.682,255.976 120.600,238.800 120.600 C 222.236 120.600,222.044 120.489,221.198 110.391 C 220.968 107.646,220.520 103.960,220.202 102.200 C 219.884 100.440,219.429 96.840,219.190 94.200 C 217.932 80.262,217.964 80.393,215.569 79.434 C 211.741 77.902,194.078 77.072,187.579 78.118 M166.600 171.057 C 165.720 171.156,162.930 171.580,160.400 171.998 C 157.870 172.417,153.190 172.972,150.000 173.232 C 146.804 173.493,143.709 173.954,143.106 174.260 C 141.811 174.916,141.801 174.956,140.996 182.400 C 140.651 185.590,140.107 189.738,139.786 191.618 C 139.466 193.498,139.024 197.368,138.804 200.218 C 138.297 206.800,138.081 208.653,137.362 212.600 C 137.041 214.360,136.424 219.490,135.989 224.000 C 135.555 228.510,134.930 233.730,134.600 235.600 C 134.270 237.470,133.812 241.520,133.583 244.600 C 133.353 247.680,132.723 252.900,132.182 256.200 C 131.641 259.500,130.933 265.260,130.607 269.000 C 130.281 272.740,129.742 277.330,129.408 279.200 C 128.020 286.973,127.712 286.718,137.473 285.870 C 141.833 285.491,146.660 285.181,148.200 285.180 C 149.740 285.179,152.710 285.005,154.800 284.794 C 164.439 283.819,169.272 283.558,184.200 283.203 C 200.720 282.811,227.872 283.228,236.800 284.010 C 247.651 284.961,247.888 284.965,249.033 284.215 L 250.103 283.514 249.838 279.657 C 249.580 275.900,249.325 273.847,247.572 261.400 C 246.083 250.827,240.951 229.592,238.050 222.000 C 234.125 211.728,233.227 209.611,231.515 206.600 C 230.514 204.840,229.046 202.204,228.252 200.743 C 226.557 197.622,221.508 191.837,216.765 187.581 C 202.975 175.207,184.287 169.051,166.600 171.057 M169.000 299.011 C 163.940 299.289,158.000 299.712,155.800 299.951 C 153.600 300.189,148.830 300.574,145.200 300.805 C 136.688 301.347,132.488 301.855,126.725 303.039 C 124.154 303.568,121.634 304.001,121.125 304.002 C 119.400 304.007,111.304 307.047,108.344 308.802 C 98.998 314.342,96.309 320.902,95.384 340.421 C 95.049 347.481,95.413 349.011,97.569 349.592 C 98.624 349.876,131.467 349.975,201.192 349.904 L 303.271 349.800 304.035 348.856 C 304.677 348.063,304.800 347.252,304.800 343.818 C 304.800 320.835,300.522 311.957,286.746 306.351 C 280.633 303.864,269.049 301.835,255.090 300.808 C 249.199 300.375,242.449 299.840,240.090 299.619 C 226.452 298.344,187.244 298.009,169.000 299.011 " stroke="none" fill="#fcfcfc" fill-rule="evenodd"></path></g></svg>