<?xml version="1.0" encoding="UTF-8" standalone="no"?>
<svg
   id="svg"
   version="1.1"
   width="400"
   height="420"
   viewBox="0, 0, 400,420"
   sodipodi:docname="bb.svg"
   inkscape:version="1.1.2 (0a00cf5339, 2022-02-04)"
   xmlns:inkscape="http://www.inkscape.org/namespaces/inkscape"
   xmlns:sodipodi="http://sodipodi.sourceforge.net/DTD/sodipodi-0.dtd"
   xmlns="http://www.w3.org/2000/svg"
   xmlns:svg="http://www.w3.org/2000/svg">
  <defs
     id="defs7404" />
  <sodipodi:namedview
     id="namedview7402"
     pagecolor="#ffffff"
     bordercolor="#cccccc"
     borderopacity="1"
     inkscape:pageshadow="0"
     inkscape:pageopacity="1"
     inkscape:pagecheckerboard="0"
     showgrid="false"
     inkscape:zoom="0.90595238"
     inkscape:cx="136.87254"
     inkscape:cy="232.35217"
     inkscape:window-width="1680"
     inkscape:window-height="1014"
     inkscape:window-x="1920"
     inkscape:window-y="0"
     inkscape:window-maximized="1"
     inkscape:current-layer="svg" />
  <path
     id="path0"
     d="m 192.905,29.418 c -6.319,1.18 -11.818,5.104 -14.53,10.369 -0.344,0.667 -0.828,1.573 -1.076,2.013 -0.249,0.44 -0.741,1.88 -1.095,3.2 -0.354,1.32 -0.83,2.94 -1.058,3.6 -0.228,0.66 -0.511,4.17 -0.628,7.8 -0.201,6.237 -0.033,8.677 1.135,16.4 1.151,7.617 0.86,15.112 -0.701,18.074 -0.312,0.591 -1.058,2.008 -1.659,3.15 -0.601,1.141 -1.664,2.455 -2.362,2.919 -0.698,0.465 -1.542,1.306 -1.874,1.869 -0.663,1.122 -5.435,5.988 -5.873,5.988 -0.15,0 -0.909,0.601 -1.688,1.335 -0.779,0.735 -1.958,1.68 -2.621,2.1 -0.662,0.421 -1.985,1.486 -2.94,2.366 -0.954,0.881 -2.501,2.1 -3.438,2.708 -0.937,0.609 -2.249,1.86 -2.916,2.781 -0.667,0.92 -1.971,2.522 -2.897,3.56 -3.498,3.918 -5.695,6.483 -6.011,7.019 -0.179,0.305 -1.114,1.366 -2.077,2.356 -0.963,0.991 -1.863,2.156 -2,2.588 -0.138,0.433 -0.39,0.787 -0.562,0.787 -0.62,0 -2.134,1.598 -2.975,3.142 -0.949,1.742 -1.562,2.618 -4.353,6.216 -1.041,1.343 -2.391,3.239 -3,4.212 -0.608,0.974 -1.668,2.414 -2.355,3.2 -0.687,0.787 -1.641,2.33 -2.119,3.43 -1.446,3.327 -3.297,6.786 -6.195,11.576 -0.79,1.308 -1.437,2.692 -1.437,3.077 0,0.385 -0.16,0.799 -0.356,0.92 -0.195,0.121 -0.47,0.678 -0.611,1.238 -0.141,0.56 -0.813,2.227 -1.494,3.704 -6.511,14.122 -8.342,53.371 -3.587,76.885 0.2,0.99 0.565,2.88 0.811,4.2 0.687,3.686 1.211,5.357 2.633,8.4 0.72,1.54 1.762,3.88 2.316,5.2 0.843,2.01 4.569,8.186 5.798,9.61 0.195,0.226 0.698,0.946 1.119,1.6 0.42,0.655 1.081,1.539 1.468,1.965 0.387,0.427 0.703,0.922 0.703,1.1 0,0.179 0.228,0.325 0.507,0.325 0.279,0 1.134,0.425 1.9,0.944 0.766,0.518 1.843,1.082 2.393,1.252 0.55,0.169 1.72,0.639 2.6,1.043 3.683,1.692 3.593,1.69 73.6,1.843 78.841,0.173 75.738,0.293 81.381,-3.15 3.417,-2.085 4.82,-3.403 6.045,-5.681 0.37,-0.688 1.056,-1.881 1.523,-2.651 1.104,-1.819 3.251,-6.23 3.251,-6.678 0,-0.191 1.054,-2.952 2.342,-6.135 2.568,-6.344 2.544,-6.265 3.704,-12.587 1.183,-6.45 1.335,-50.022 0.194,-55.4 -1.106,-5.21 -2.132,-8.965 -3.825,-14 -0.85,-2.53 -1.835,-5.86 -2.188,-7.4 -0.962,-4.198 -1.491,-5.753 -2.887,-8.484 -0.698,-1.366 -1.389,-3.029 -1.535,-3.695 -0.147,-0.667 -0.433,-1.315 -0.636,-1.44 -0.203,-0.126 -0.369,-0.462 -0.369,-0.747 0,-0.286 -0.9,-2.083 -2,-3.995 -1.1,-1.912 -2,-3.651 -2,-3.865 0,-0.215 -0.424,-1.061 -0.941,-1.882 -0.518,-0.821 -1.447,-2.572 -2.064,-3.892 -0.617,-1.32 -1.678,-3.107 -2.358,-3.972 -0.68,-0.864 -1.597,-2.244 -2.037,-3.066 -0.776,-1.451 -1.679,-2.662 -4.6,-6.174 -2.38,-2.861 -2.725,-3.302 -3.428,-4.375 -0.829,-1.265 -5.619,-6.091 -7.446,-7.503 -0.729,-0.563 -2.918,-2.573 -4.863,-4.467 -1.945,-1.894 -3.676,-3.443 -3.846,-3.443 -0.17,0 -0.918,-0.54 -1.663,-1.2 -0.745,-0.66 -2.074,-1.695 -2.954,-2.3 -0.88,-0.605 -1.829,-1.317 -2.11,-1.581 -0.28,-0.265 -1.352,-1.165 -2.382,-2 -1.03,-0.836 -2.537,-2.149 -3.348,-2.919 -0.811,-0.77 -2.079,-1.94 -2.817,-2.601 -1.892,-1.692 -3.684,-3.802 -4.964,-5.846 -0.604,-0.964 -1.231,-1.843 -1.394,-1.953 -2.626,-1.779 -2.439,-13.789 0.428,-27.4 1.123,-5.328 0.925,-10.331 -0.625,-15.8 -2.348,-8.288 -3.597,-11.102 -5.704,-12.855 -0.433,-0.36 -0.854,-0.821 -0.936,-1.025 -0.249,-0.621 -4.434,-3.511 -6.41,-4.426 -3.834,-1.775 -20.547,-2.688 -27.033,-1.476 m 22.975,122.775 c 4.893,1.25 5.334,2.753 5.668,19.3 l 0.252,12.493 1.307,1.307 1.307,1.307 10.893,0.2 c 13.056,0.24 13.756,0.437 16.027,4.514 l 1.066,1.914 v 10.356 c 0,18.171 0.13,18.025 -16.316,18.332 l -10.517,0.197 -1.78,1.359 c -2.313,1.766 -2.155,0.219 -2.319,22.728 -0.209,28.842 0.583,27.592 -17.491,27.572 -11.585,-0.013 -12.658,-0.243 -15.127,-3.237 -2.714,-3.294 -2.604,-2.372 -2.838,-23.735 -0.234,-21.313 -0.089,-20.105 -2.78,-23.193 l -1.214,-1.392 -12.309,-0.257 c -18.589,-0.387 -18.061,0.14 -18.091,-18.063 -0.01,-5.888 0.135,-11.018 0.321,-11.4 1.235,-2.527 1.809,-3.225 3.53,-4.295 l 1.931,-1.2 12.429,-0.2 c 13.802,-0.222 12.745,0.007 14.778,-3.209 l 1.133,-1.791 0.355,-11.8 c 0.438,-14.551 0.817,-15.708 5.753,-17.582 2.645,-1.005 20.334,-1.17 24.032,-0.225 M 135.6,326.066 c -2.911,0.83 -10,11.07 -10,14.446 0,2.19 -4.565,8.288 -6.205,8.288 -0.327,0 -0.595,0.18 -0.595,0.4 0,0.22 -0.175,0.4 -0.389,0.4 -0.214,0 -1.339,0.426 -2.5,0.946 -4.171,1.87 -5.489,1.924 -51.111,2.107 -50.71,0.203 -47.412,-0.077 -49.559,4.204 -0.595,1.187 -0.417,6.089 0.333,9.143 0.746,3.041 1.608,7.651 2.018,10.8 0.356,2.729 1.041,5.804 2.006,9 0.397,1.316 2.225,8.546 5.055,20 0.326,1.32 0.688,2.776 0.805,3.237 0.116,0.46 1.177,1.9 2.359,3.2 l 2.147,2.363 h 66.118 c 63.945,0 66.171,-0.025 67.718,-0.754 0.88,-0.415 2.933,-1.382 4.563,-2.148 1.63,-0.767 3.34,-1.723 3.8,-2.124 2.031,-1.771 5.59,-5.1 6.953,-6.503 0.816,-0.841 1.889,-1.909 2.384,-2.372 0.495,-0.464 0.9,-0.988 0.9,-1.165 0,-0.591 2.555,-4.527 3.283,-5.057 0.394,-0.287 0.717,-0.721 0.717,-0.963 0,-0.604 3.065,-4.614 4.789,-6.266 6.703,-6.421 6.743,-6.445 12.14,-7.209 2.891,-0.41 4.523,0.002 7.678,1.938 1.536,0.943 5.393,4.726 5.393,5.291 0,0.151 0.225,0.513 0.5,0.803 1.212,1.282 3.9,5.045 3.9,5.46 0,0.543 2.273,4.378 3.171,5.35 1.1,1.19 1.629,1.878 1.629,2.119 0,0.128 0.377,0.631 0.838,1.117 0.461,0.486 1.394,1.693 2.073,2.683 0.679,0.99 1.922,2.496 2.762,3.347 0.84,0.851 1.527,1.664 1.527,1.807 0,0.236 0.963,0.851 5.8,3.703 l 1.6,0.943 h 67.409 67.41 l 0.961,-0.895 c 0.529,-0.493 1.262,-0.991 1.63,-1.108 1.136,-0.361 3.703,-7.904 5.376,-15.797 0.35,-1.65 0.805,-3.63 1.013,-4.4 1.609,-5.97 2.114,-8.157 2.443,-10.6 0.444,-3.285 2.465,-12.727 3.34,-15.6 1.134,-3.723 0.852,-10.09 -0.504,-11.385 -2.016,-1.927 -2.914,-1.969 -47.478,-2.189 -46.359,-0.229 -45.57,-0.184 -50.87,-2.874 -4.898,-2.487 -6.424,-5.472 -7.543,-14.752 -0.547,-4.534 -1.821,-6.627 -5.187,-8.524 -1.422,-0.801 -139.83,-1.199 -142.6,-0.41"
     stroke="none"
     fill="#0d0d0d"
     fill-rule="evenodd" />
  <path
     id="path1"
     d="m 0,210 v 210 h 10.4 c 11.83,0 11.403,0.151 9.447,-3.353 -0.524,-0.938 -1.077,-2.323 -1.23,-3.077 -0.153,-0.753 -0.598,-2.09 -0.989,-2.97 -1.001,-2.253 -2.6,-9.899 -3.053,-14.6 -0.138,-1.43 -0.586,-3.59 -0.995,-4.8 -0.41,-1.21 -0.923,-2.92 -1.14,-3.8 -0.217,-0.88 -0.601,-2.32 -0.854,-3.2 -0.253,-0.88 -0.706,-2.77 -1.007,-4.2 -0.302,-1.43 -0.738,-3.41 -0.969,-4.4 -0.232,-0.99 -0.682,-3.24 -1,-5 C 8.291,368.84 7.833,366.32 7.592,365 5.245,352.16 6.001,348.364 11.428,345.745 l 2.372,-1.145 50,-0.2 50,-0.2 1.483,-1 c 0.816,-0.55 1.491,-1.152 1.5,-1.338 0.009,-0.186 0.353,-0.816 0.765,-1.4 0.411,-0.584 0.872,-1.512 1.025,-2.062 0.292,-1.053 0.882,-2.531 1.474,-3.695 0.194,-0.382 0.353,-0.994 0.353,-1.36 0,-0.366 0.428,-1.583 0.951,-2.705 0.523,-1.122 1.273,-2.935 1.667,-4.028 0.766,-2.127 0.932,-2.382 2.782,-4.27 4.351,-4.437 2.211,-4.322 80.2,-4.318 71.681,0.005 75.738,0.098 78.473,1.817 2.619,1.646 5.111,5.061 5.133,7.037 0.003,0.287 0.281,1.314 0.618,2.281 0.337,0.968 0.867,3.578 1.178,5.8 1.021,7.299 1.504,8.233 4.584,8.863 0.777,0.159 22.474,0.399 48.214,0.533 l 46.8,0.245 2.6,1.235 c 1.469,0.698 3.018,1.785 3.56,2.5 0.598,0.789 1.313,1.265 1.9,1.265 H 400 V 174.8 0 H 200 0 V 210 M 214.498,21.402 c 1.376,0.309 3.312,0.752 4.302,0.984 2.14,0.501 7.6,3.121 7.6,3.646 0,0.202 0.279,0.368 0.62,0.368 1.618,0 4.56,2.201 5.873,4.395 0.462,0.773 1.448,2.164 2.19,3.092 2.215,2.769 3.808,6.705 4.742,11.713 0.855,4.583 0.78,22.165 -0.118,27.83 -1.139,7.189 -0.848,15.656 0.598,17.39 1.927,2.311 7.012,6.893 8.971,8.085 0.707,0.429 2.184,1.662 3.284,2.738 1.099,1.076 2.15,1.957 2.336,1.957 0.355,0 1.213,0.644 2.023,1.519 0.265,0.286 0.736,0.736 1.048,1 0.312,0.265 1.437,1.336 2.501,2.381 1.064,1.045 2.08,1.9 2.258,1.9 0.315,0 2.66,2.048 7.22,6.304 1.24,1.158 2.524,2.345 2.854,2.64 0.965,0.86 4.127,4.581 4.547,5.35 0.212,0.388 1.256,1.555 2.319,2.594 1.064,1.038 1.934,2.094 1.934,2.346 0,0.252 0.604,1.022 1.341,1.712 1.578,1.474 3.564,4.55 5.461,8.454 0.748,1.54 1.664,3.16 2.035,3.6 0.915,1.084 3.163,5.383 3.163,6.049 0,0.294 0.608,1.485 1.35,2.646 1.953,3.053 4.342,8.361 5.628,12.505 0.614,1.98 1.44,4.32 1.835,5.2 1.449,3.224 2.734,8.755 3.392,14.6 0.136,1.21 0.765,3.732 1.398,5.606 4.657,13.795 4.635,49.713 -0.039,64.506 -0.61,1.931 -1.225,4.541 -1.366,5.8 -0.528,4.723 -1.783,9.019 -3.529,12.088 -0.313,0.55 -1.163,2.529 -1.889,4.399 -0.726,1.869 -1.583,3.662 -1.906,3.984 -0.322,0.322 -0.819,1.132 -1.104,1.801 -0.286,0.669 -1.296,2.055 -2.245,3.079 -0.949,1.025 -1.918,2.105 -2.153,2.4 -3.126,3.922 -8.461,6.178 -16.865,7.134 -2.764,0.314 -24.098,0.404 -72.907,0.308 l -69,-0.136 -3.2,-0.887 c -5.199,-1.442 -7.4,-2.224 -8.121,-2.885 -0.374,-0.342 -1.309,-1.01 -2.079,-1.485 -1.916,-1.18 -5.998,-5.413 -6,-6.221 0,-0.17 -0.712,-1.081 -1.582,-2.025 -0.871,-0.945 -1.956,-2.516 -2.412,-3.492 -0.456,-0.975 -1.633,-2.944 -2.616,-4.374 -0.982,-1.43 -1.787,-2.842 -1.788,-3.138 -0.001,-0.296 -0.333,-1.016 -0.738,-1.6 -0.73,-1.051 -3.264,-8.441 -3.264,-9.515 0,-0.307 -0.159,-0.87 -0.353,-1.252 -2.988,-5.874 -3.815,-17.003 -3.516,-47.295 0.223,-22.49 0.851,-28.929 3.175,-32.525 0.311,-0.481 0.688,-1.505 0.838,-2.275 0.984,-5.046 3.698,-11.824 6.255,-15.618 0.822,-1.219 1.634,-2.659 1.803,-3.2 0.603,-1.922 2.173,-5.064 2.785,-5.571 0.341,-0.284 1.29,-1.887 2.107,-3.563 1.878,-3.852 4.795,-8.486 5.778,-9.18 0.414,-0.292 1.107,-1.283 1.539,-2.202 0.432,-0.918 1.204,-2.122 1.716,-2.674 0.513,-0.553 1.279,-1.542 1.703,-2.198 1.188,-1.841 1.731,-2.475 5.173,-6.034 1.762,-1.822 3.742,-4.221 4.4,-5.331 0.658,-1.111 1.503,-2.121 1.877,-2.245 0.373,-0.124 0.792,-0.581 0.93,-1.016 0.33,-1.039 5.936,-6.633 6.979,-6.964 0.446,-0.142 0.811,-0.425 0.811,-0.63 0,-0.601 2.844,-3.574 3.42,-3.574 0.289,0 0.636,-0.315 0.77,-0.7 0.133,-0.385 0.948,-1.24 1.81,-1.9 0.862,-0.66 2.332,-1.875 3.268,-2.7 0.935,-0.825 1.85,-1.5 2.033,-1.5 0.183,0 0.595,-0.225 0.915,-0.5 2.319,-1.991 3.236,-2.794 3.584,-3.14 3.832,-3.812 6.168,-6.429 6.404,-7.173 0.162,-0.509 0.632,-1.288 1.045,-1.732 1.267,-1.36 1.014,-7.071 -0.464,-10.455 -0.193,-0.44 -0.61,-1.97 -0.928,-3.4 -0.317,-1.43 -0.817,-3.68 -1.111,-5 -0.732,-3.288 -0.731,-16.39 0.001,-19.6 0.694,-3.041 2.424,-7.8 2.837,-7.8 0.172,0 0.434,-0.754 0.582,-1.675 0.295,-1.848 1.881,-5.278 3.016,-6.525 3.009,-3.305 5.716,-5.738 6.642,-5.97 0.604,-0.152 1.835,-0.858 2.737,-1.57 1.866,-1.473 2.963,-2.032 5.239,-2.672 0.88,-0.247 2.23,-0.638 3,-0.868 3.882,-1.163 18.317,-1.235 23.298,-0.118 m -18.395,136.069 c -3.464,0.281 -3.665,1.087 -4.078,16.329 -0.242,8.917 -0.467,12.257 -0.875,13.001 -2.681,4.88 -3.643,5.138 -20.633,5.519 -15.456,0.347 -13.746,-1.07 -13.616,11.28 0.142,13.453 -1.138,12.37 15.099,12.779 7.71,0.194 11.359,0.435 12.2,0.806 0.66,0.29 1.92,0.845 2.8,1.232 4.845,2.13 4.736,1.585 5.046,25.183 0.273,20.862 0.384,22.568 1.495,23.005 1.198,0.47 11.405,1.072 14.459,0.853 8.872,-0.636 8.285,0.985 8.482,-23.438 0.119,-14.823 0.272,-19.285 0.692,-20.22 0.296,-0.66 0.811,-1.826 1.144,-2.59 0.701,-1.612 0.885,-1.804 3.248,-3.41 l 1.765,-1.2 9.235,-0.119 c 5.079,-0.065 9.594,-0.276 10.034,-0.469 0.44,-0.192 1.25,-0.452 1.8,-0.577 2.495,-0.568 2.986,-3.085 2.699,-13.835 -0.268,-10.05 0.922,-9.188 -12.699,-9.2 -12.692,-0.01 -13.883,-0.387 -16.267,-5.148 l -1.476,-2.948 -0.162,-10.852 c -0.177,-11.852 -0.777,-14.93 -3.05,-15.658 -1,-0.32 -14.321,-0.568 -17.342,-0.323 M 397.63,363.3 c -2.278,14.173 -2.618,15.997 -3.821,20.5 -0.352,1.32 -0.892,3.48 -1.199,4.8 -0.308,1.32 -0.735,3.03 -0.95,3.8 -1.449,5.195 -1.752,6.501 -2.084,9 -1.124,8.448 -2.069,11.993 -4.007,15.035 -2.285,3.587 -2.327,3.565 6.631,3.565 h 7.8 v -29.8 -29.8 h -0.952 c -0.872,0 -0.99,0.243 -1.418,2.9 m -193.247,23.295 c -1,0.223 -2.696,0.99 -3.769,1.705 -1.073,0.715 -2.096,1.3 -2.272,1.3 -0.177,0 -0.621,0.585 -0.987,1.3 -0.366,0.715 -1.192,1.904 -1.835,2.642 -0.644,0.739 -2.151,2.809 -3.349,4.6 -3.032,4.532 -3.98,5.789 -5.366,7.114 -0.663,0.633 -1.205,1.328 -1.205,1.545 0,0.705 -9.089,9.463 -10.667,10.279 -1.105,0.571 -1.568,1.09 -1.66,1.856 L 173.147,420 h 28.826 28.827 v -0.944 c 0,-0.569 -0.426,-1.244 -1.071,-1.7 -1.776,-1.253 -4.754,-4.494 -6.346,-6.906 -0.636,-0.963 -1.638,-2.267 -2.228,-2.898 -1.203,-1.288 -2.755,-4.077 -2.755,-4.95 0,-0.316 -0.338,-0.755 -0.75,-0.975 -0.413,-0.221 -1.352,-1.353 -2.087,-2.514 -0.735,-1.162 -1.448,-2.203 -1.584,-2.313 -0.546,-0.441 -3.176,-4.845 -3.4,-5.693 -0.131,-0.499 -0.804,-1.267 -1.494,-1.707 -0.69,-0.44 -1.622,-1.342 -2.07,-2.005 -0.791,-1.168 -0.869,-1.192 -2.632,-0.8"
     stroke="none"
     fill="#f3f3f3"
     fill-rule="evenodd"
     style="fill:none" />
  <path
     id="path2"
     d="m 197.2,24.404 c -3.887,0.287 -8.749,1.652 -13.292,3.729 -1.974,0.903 -7.508,5.773 -7.508,6.607 0,0.17 -0.368,0.704 -0.818,1.187 -0.449,0.482 -1.243,1.731 -1.763,2.775 -0.842,1.69 -1.296,3.27 -2.623,9.119 -1.047,4.616 -0.845,15.988 0.438,24.579 1.226,8.211 0.863,16.063 -0.876,18.953 -0.771,1.282 -8.276,9.047 -8.744,9.047 -0.163,0 -0.745,0.405 -1.292,0.9 -2.225,2.011 -3.416,3.001 -4.023,3.341 -1.98,1.11 -12.126,10.896 -15.699,15.142 -1.1,1.307 -2.63,3.117 -3.4,4.021 -0.77,0.904 -1.76,2.137 -2.2,2.741 -0.44,0.604 -1.52,1.869 -2.4,2.81 -2.88,3.082 -6.573,7.945 -10.358,13.641 -1.318,1.982 -2.498,3.694 -2.623,3.804 -0.125,0.11 -0.585,0.92 -1.023,1.8 -0.438,0.88 -0.887,1.69 -0.999,1.8 -0.112,0.11 -0.726,1.19 -1.366,2.4 -0.64,1.21 -1.763,3.148 -2.497,4.308 -0.734,1.159 -1.334,2.204 -1.334,2.322 0,0.319 -1.445,3.516 -3.422,7.57 -3.255,6.674 -6.114,16.48 -7.813,26.8 -2.129,12.929 -0.956,46.145 2.048,58 0.39,1.54 0.837,3.61 0.994,4.6 0.156,0.99 0.414,1.98 0.573,2.2 0.159,0.22 0.599,1.48 0.978,2.8 0.379,1.32 0.858,2.713 1.065,3.095 0.208,0.382 0.377,0.885 0.377,1.119 0,0.233 0.63,1.409 1.4,2.613 0.77,1.204 1.4,2.297 1.4,2.43 0,1.161 4.245,8.356 5.986,10.146 0.338,0.348 0.974,1.141 1.414,1.763 2.57,3.633 7.972,7.205 12.865,8.507 4.299,1.143 147.466,1.128 151.085,-0.016 4.711,-1.489 8.891,-4.588 11.139,-8.257 0.472,-0.77 1.353,-1.978 1.958,-2.684 0.605,-0.706 1.403,-1.966 1.774,-2.8 0.371,-0.834 1.103,-2.434 1.627,-3.556 0.523,-1.122 0.952,-2.175 0.952,-2.34 0,-0.165 0.688,-1.767 1.529,-3.56 2.635,-5.619 2.893,-6.653 3.907,-15.66 0.559,-4.966 0.817,-7.881 1.734,-19.6 0.513,-6.559 0.518,-22.243 0.008,-26.2 -0.212,-1.65 -0.559,-4.44 -0.771,-6.2 -1.803,-14.985 -2.097,-16.588 -4.189,-22.8 -0.962,-2.86 -1.876,-5.83 -2.03,-6.6 -0.154,-0.77 -0.407,-1.58 -0.561,-1.8 -0.154,-0.22 -0.626,-1.48 -1.047,-2.8 -0.422,-1.32 -1.593,-4.02 -2.603,-6 -1.009,-1.98 -2.356,-4.95 -2.992,-6.6 -0.637,-1.65 -1.896,-4.17 -2.798,-5.6 -0.902,-1.43 -1.91,-3.14 -2.24,-3.8 -1.355,-2.711 -3.761,-6.694 -5.34,-8.84 -0.664,-0.902 -1.477,-2.059 -1.807,-2.57 -0.33,-0.511 -1.05,-1.429 -1.6,-2.039 -0.55,-0.61 -1.629,-1.884 -2.398,-2.83 -2.48,-3.053 -13.734,-14.115 -16.002,-15.728 -1.21,-0.861 -3.1,-2.432 -4.2,-3.49 -1.1,-1.059 -3.53,-3.135 -5.4,-4.614 -1.87,-1.479 -3.606,-2.869 -3.858,-3.089 -0.252,-0.22 -1.036,-0.85 -1.742,-1.4 -8.246,-6.425 -11.548,-15.216 -8.81,-23.452 1.394,-4.195 2.055,-21.891 1.039,-27.808 -0.743,-4.326 -1.118,-5.452 -3.169,-9.528 -3.789,-7.53 -5.756,-9.3 -13.06,-11.755 -5.925,-1.991 -7.487,-2.303 -13.333,-2.663 -3.337,-0.205 -6.157,-0.35 -6.267,-0.322 -0.11,0.028 -1.91,0.177 -4,0.332 m 10.4,1.2 c 7.088,0.597 14.793,2.498 17.708,4.371 9.471,6.083 13.669,23.113 10.309,41.825 -2.951,16.437 -1.355,21.206 9.983,29.829 0.99,0.753 2.184,1.729 2.652,2.17 0.469,0.441 1.369,1.201 2,1.689 0.632,0.489 1.868,1.448 2.748,2.132 0.88,0.684 2.14,1.794 2.8,2.468 0.66,0.674 1.88,1.655 2.712,2.181 2.101,1.329 12.58,11.346 14.744,14.094 0.658,0.836 4.194,4.944 5.344,6.209 0.984,1.083 5.095,7.471 6.325,9.828 0.745,1.43 2.316,4.22 3.491,6.2 1.174,1.98 2.47,4.5 2.878,5.6 0.409,1.1 1.568,3.71 2.574,5.8 1.007,2.09 1.988,4.205 2.181,4.7 0.193,0.495 0.515,1.305 0.716,1.8 0.602,1.487 2.835,8.762 2.835,9.238 0,0.369 0.935,3.042 2.402,6.862 1.62,4.222 3.161,18.753 3.478,32.8 0.231,10.239 -0.594,27.405 -1.893,39.4 -0.52,4.799 -0.761,5.655 -2.924,10.4 -2.12,4.651 -3.063,6.834 -3.072,7.112 -0.005,0.158 -0.541,1.368 -1.191,2.688 -0.65,1.32 -1.186,2.61 -1.191,2.867 -0.005,0.256 -0.144,0.526 -0.309,0.6 -0.374,0.166 -2.5,2.992 -2.5,3.323 0,0.267 -0.473,0.881 -2.007,2.603 -1.086,1.219 -6.512,4.695 -8.793,5.632 -1.2,0.493 -11.933,0.575 -75.2,0.575 h -73.8 l -2.4,-0.959 c -3.735,-1.492 -5.156,-2.168 -5.729,-2.726 -0.29,-0.283 -0.742,-0.515 -1.003,-0.515 -1.551,0 -8.801,-9.11 -11.115,-13.967 -0.899,-1.888 -2.012,-4.052 -2.473,-4.808 -1.479,-2.427 -4.221,-10.891 -5.127,-15.825 -0.201,-1.1 -0.532,-2.72 -0.733,-3.6 -3.136,-13.692 -3.452,-44.465 -0.595,-58 0.325,-1.54 0.775,-3.79 1,-5 0.225,-1.21 0.563,-2.65 0.751,-3.2 0.188,-0.55 0.648,-2.08 1.022,-3.4 1.055,-3.718 2.606,-8.316 3.105,-9.2 0.962,-1.708 3.097,-6.147 3.097,-6.442 0,-0.608 2.543,-5.358 2.868,-5.358 0.183,0 0.332,-0.255 0.332,-0.567 0,-0.311 0.135,-0.626 0.3,-0.7 0.165,-0.073 1.04,-1.573 1.945,-3.333 2.305,-4.484 3.118,-5.968 3.394,-6.2 0.132,-0.11 1.467,-2 2.968,-4.2 1.501,-2.2 2.839,-4.09 2.974,-4.2 0.135,-0.11 0.952,-1.19 1.815,-2.4 1.315,-1.844 5.473,-6.919 6.225,-7.6 0.122,-0.11 0.752,-0.91 1.4,-1.779 0.649,-0.868 1.809,-2.235 2.579,-3.039 0.77,-0.803 1.836,-1.983 2.369,-2.621 5.113,-6.123 6.342,-7.419 9.841,-10.374 1.535,-1.295 2.991,-2.542 3.237,-2.771 0.741,-0.69 2.282,-1.963 3.553,-2.937 3.4,-2.603 11.369,-10.153 12.8,-12.127 2.269,-3.13 2.71,-8.719 1.542,-19.552 -2.109,-19.57 -0.47,-32.313 4.868,-37.851 0.239,-0.248 1.235,-1.39 2.213,-2.537 4.708,-5.527 15.356,-8.27 27.977,-7.208 m -14.2,128.774 c -4.407,1.804 -4.929,3.641 -4.971,17.502 -0.038,12.79 -0.397,14.38 -3.573,15.839 -1.727,0.793 -2.706,0.868 -14.074,1.067 -12.976,0.227 -12.737,0.191 -14.992,2.268 -2.13,1.961 -2.19,2.289 -2.19,11.95 0,16.857 0.116,16.991 14.75,17.003 21.226,0.017 20.048,-1.43 20.053,24.646 0.005,23.024 -0.121,22.284 4.264,25.128 l 1.666,1.081 9.934,-0.144 c 16.473,-0.24 15.227,1.736 15.459,-24.518 0.211,-23.963 0.358,-24.951 3.798,-25.597 0.809,-0.152 6.271,-0.411 12.138,-0.576 9.14,-0.257 10.763,-0.395 11.332,-0.964 0.365,-0.364 0.796,-0.663 0.958,-0.663 0.363,0 1.439,-2.455 2.014,-4.6 0.559,-2.081 0.589,-20.2 0.034,-20.2 -0.22,0 -0.4,-0.188 -0.4,-0.417 0,-3.172 -4.405,-4.379 -16.033,-4.393 -8.718,-0.01 -10.83,-0.275 -12.071,-1.516 -1.233,-1.233 -1.877,-7.575 -1.887,-18.566 -0.012,-12.552 -0.305,-13.255 -5.964,-14.307 -2.557,-0.476 -19.093,-0.494 -20.245,-0.023 m 22.674,1.793 c 2.904,1.494 2.744,0.656 3.103,16.239 l 0.299,13.01 1.019,1.614 c 1.439,2.279 2.732,2.566 11.551,2.565 16.991,-10e-4 17.562,0.432 17.54,13.281 -0.018,9.93 -1.011,14.862 -3.172,15.754 -0.338,0.139 -5.635,0.417 -11.773,0.619 -16.753,0.548 -15.125,-2.168 -15.428,25.747 -0.251,23.216 -0.065,21.888 -3.29,23.52 l -2.134,1.08 h -9.931 -9.93 l -1.535,-1.1 c -3.119,-2.236 -2.965,-1.114 -3.224,-23.5 -0.239,-20.654 -0.348,-21.976 -1.94,-23.459 -1.856,-1.729 -4.027,-2.029 -16.829,-2.329 -13.85,-0.323 -13.204,-0.193 -14.642,-2.948 -1.068,-2.047 -1.079,-2.148 -1.26,-12.069 l -0.184,-10.005 1.343,-1.67 c 2.033,-2.528 2.447,-2.605 14.943,-2.787 19.013,-0.277 18.384,0.353 18.743,-18.772 0.223,-11.894 0.425,-12.881 3.036,-14.823 l 1.821,-1.354 9.8,0.108 9.8,0.108 2.274,1.171 M 136.6,321.562 c -5.839,0.613 -10.678,4.673 -12.203,10.238 -0.241,0.88 -0.783,2.871 -1.203,4.424 -1.225,4.522 -2.405,6.298 -6.237,9.386 -0.973,0.785 -2.738,1.452 -4.757,1.798 -0.88,0.151 -22.66,0.423 -48.4,0.605 -25.74,0.182 -47.497,0.455 -48.35,0.608 -4.968,0.891 -6.716,8.547 -4.197,18.379 0.226,0.88 0.562,2.23 0.747,3 0.186,0.77 0.726,2.84 1.202,4.6 0.807,2.988 1.47,6.097 2.43,11.4 0.22,1.21 0.659,3.64 0.978,5.4 0.318,1.76 0.751,3.92 0.962,4.8 0.21,0.88 0.592,2.5 0.847,3.6 2.765,11.907 5.096,16.967 8.281,17.97 0.609,0.192 0.9,0.599 0.9,1.257 V 420 h 68 68 v -0.992 c 0,-0.76 0.258,-1.047 1.1,-1.225 0.605,-0.127 1.376,-0.378 1.713,-0.556 0.337,-0.179 1.237,-0.457 2,-0.619 1.49,-0.315 7.261,-4.257 9.641,-6.586 0.8,-0.782 2.15,-2.089 3,-2.903 1.937,-1.856 2.091,-2.047 3.807,-4.724 0.773,-1.207 1.695,-2.432 2.047,-2.723 0.352,-0.29 1.834,-2.303 3.293,-4.473 3.311,-4.926 8.347,-10.192 10.119,-10.581 0.699,-0.154 1.374,-0.446 1.499,-0.649 0.126,-0.203 1.267,-0.369 2.536,-0.369 3.504,0 6.888,2.645 10.239,8 0.619,0.99 1.247,1.89 1.396,2 0.149,0.11 0.611,0.785 1.026,1.5 0.416,0.715 0.88,1.3 1.031,1.3 0.151,0 0.465,0.495 0.697,1.1 0.586,1.528 2.892,5.468 3.856,6.587 0.44,0.511 1.337,1.645 1.993,2.521 2.079,2.773 2.364,3.106 4.426,5.171 3.366,3.369 4.874,4.58 6.055,4.862 0.619,0.148 1.306,0.404 1.526,0.568 0.22,0.164 0.985,0.424 1.7,0.577 1.032,0.22 1.3,0.477 1.3,1.246 V 420 h 69 69 v -0.973 c 0,-0.605 0.288,-1.064 0.76,-1.214 0.925,-0.294 4.44,-3.513 4.44,-4.066 0,-0.218 0.36,-1.142 0.8,-2.053 0.44,-0.91 0.8,-1.821 0.8,-2.023 0,-0.202 0.369,-1.515 0.821,-2.919 1.255,-3.899 1.969,-7.367 3.37,-16.352 0.681,-4.369 0.952,-5.581 2.419,-10.8 0.588,-2.09 1.318,-5.15 1.623,-6.8 0.305,-1.65 0.663,-3.54 0.796,-4.2 1.155,-5.742 1.371,-7.476 1.371,-11.003 0,-5.315 -0.78,-6.909 -4.213,-8.609 -1.54,-0.763 -2.944,-0.794 -47.187,-1.048 -52.247,-0.299 -49.288,-0.076 -53.041,-3.983 -1.534,-1.596 -2.259,-4.399 -2.993,-11.557 -0.485,-4.733 -3.266,-9.224 -6.085,-9.825 -0.595,-0.127 -1.531,-0.443 -2.081,-0.703 -1.08,-0.51 -137.858,-0.808 -142.6,-0.31 m 142.8,1.66 c 5.065,1.891 5.924,3.532 7.628,14.578 0.778,5.041 1.853,7.076 4.7,8.892 3.441,2.196 2.814,2.166 51.472,2.459 49.452,0.298 46.813,0.151 48.728,2.701 0.475,0.631 1.056,1.377 1.292,1.657 1.383,1.643 -0.5,15.37 -3.743,27.291 -0.673,2.472 -1.385,6.432 -2.664,14.8 -0.252,1.65 -0.801,3.99 -1.22,5.2 -0.419,1.21 -0.883,2.969 -1.03,3.909 -0.148,0.94 -0.424,1.805 -0.616,1.923 -0.191,0.119 -0.347,0.516 -0.347,0.883 0,3.216 -3.808,8.719 -6.516,9.416 -3.557,0.915 -11.061,1.028 -68.484,1.024 -58.815,-0.004 -64.918,-0.102 -69.528,-1.117 -4.038,-0.889 -8.877,-4.546 -12.487,-9.438 -0.649,-0.88 -1.272,-1.69 -1.384,-1.8 -0.793,-0.78 -3.718,-4.955 -4.625,-6.6 -1.671,-3.032 -4.31,-7.183 -4.663,-7.333 -0.172,-0.074 -0.313,-0.312 -0.313,-0.529 0,-0.217 -0.225,-0.655 -0.5,-0.973 -0.275,-0.317 -1.22,-1.446 -2.1,-2.507 -6.781,-8.18 -14.59,-6.27 -22.794,5.576 -0.978,1.411 -1.919,2.746 -2.092,2.966 -1.123,1.431 -3.737,5.083 -4.724,6.6 -2.142,3.292 -10.686,10.678 -14.19,12.266 -6.395,2.899 -1.961,2.734 -73.6,2.734 -72.863,0 -68.229,0.193 -70.814,-2.944 -1.745,-2.117 -7.253,-21.379 -8.193,-28.656 -0.359,-2.776 -1.666,-9.131 -3.372,-16.4 -0.465,-1.98 -1.036,-4.454 -1.269,-5.497 -0.741,-3.315 -0.567,-9.999 0.296,-11.345 2.368,-3.697 -1.174,-3.433 50.552,-3.765 48.91,-0.313 49.884,-0.348 53.2,-1.891 2.272,-1.057 6.08,-4.524 6.496,-5.913 0.13,-0.434 0.596,-1.732 1.035,-2.886 0.438,-1.153 0.926,-2.856 1.083,-3.784 0.157,-0.929 0.428,-1.965 0.602,-2.304 0.175,-0.338 0.517,-1.155 0.762,-1.815 0.756,-2.039 4.085,-5.691 5.522,-6.057 0.495,-0.127 0.9,-0.361 0.9,-0.522 0,-0.404 2.664,-1.19 4.6,-1.358 6.014,-0.521 140.925,0.008 142.4,0.559"
     stroke="none"
     fill="#7c7c7c"
     fill-rule="evenodd" />
  <path
     id="path3"
     d="m 195.4,20.787 c -1.54,0.173 -3.43,0.502 -4.2,0.733 -0.77,0.23 -2.12,0.621 -3,0.868 -2.276,0.64 -3.373,1.199 -5.239,2.672 -0.902,0.712 -2.133,1.418 -2.737,1.57 -0.926,0.232 -3.633,2.665 -6.642,5.97 -1.135,1.247 -2.721,4.677 -3.016,6.525 -0.148,0.921 -0.41,1.675 -0.582,1.675 -0.413,0 -2.143,4.759 -2.837,7.8 -0.732,3.21 -0.733,16.312 -0.001,19.6 0.294,1.32 0.794,3.57 1.111,5 0.318,1.43 0.735,2.96 0.928,3.4 1.478,3.384 1.731,9.095 0.464,10.455 -0.413,0.444 -0.883,1.223 -1.045,1.732 -0.236,0.744 -2.572,3.361 -6.404,7.173 -0.348,0.346 -1.265,1.149 -3.584,3.14 -0.32,0.275 -0.732,0.5 -0.915,0.5 -0.183,0 -1.098,0.675 -2.033,1.5 -0.936,0.825 -2.406,2.04 -3.268,2.7 -0.862,0.66 -1.677,1.515 -1.81,1.9 -0.134,0.385 -0.481,0.7 -0.77,0.7 -0.576,0 -3.42,2.973 -3.42,3.574 0,0.205 -0.365,0.488 -0.811,0.63 -1.043,0.331 -6.649,5.925 -6.979,6.964 -0.138,0.435 -0.557,0.892 -0.93,1.016 -0.374,0.124 -1.219,1.134 -1.877,2.245 -0.658,1.11 -2.638,3.509 -4.4,5.331 -3.442,3.559 -3.985,4.193 -5.173,6.034 -0.424,0.656 -1.19,1.645 -1.703,2.198 -0.512,0.552 -1.284,1.756 -1.716,2.674 -0.432,0.919 -1.125,1.91 -1.539,2.202 -0.983,0.694 -3.9,5.328 -5.778,9.18 -0.817,1.676 -1.766,3.279 -2.107,3.563 -0.612,0.507 -2.182,3.649 -2.785,5.571 -0.169,0.541 -0.981,1.981 -1.803,3.2 -2.557,3.794 -5.271,10.572 -6.255,15.618 -0.15,0.77 -0.527,1.794 -0.838,2.275 -2.324,3.596 -2.952,10.035 -3.175,32.525 -0.299,30.292 0.528,41.421 3.516,47.295 0.194,0.382 0.353,0.945 0.353,1.252 0,1.074 2.534,8.464 3.264,9.515 0.405,0.584 0.737,1.304 0.738,1.6 0.001,0.296 0.806,1.708 1.788,3.138 0.983,1.43 2.16,3.399 2.616,4.374 0.456,0.976 1.541,2.547 2.412,3.492 0.87,0.944 1.582,1.855 1.582,2.025 0.002,0.808 4.084,5.041 6,6.221 0.77,0.475 1.705,1.143 2.079,1.485 0.721,0.661 2.922,1.443 8.121,2.885 l 3.2,0.887 69,0.136 c 48.809,0.096 70.143,0.006 72.907,-0.308 8.404,-0.956 13.739,-3.212 16.865,-7.134 0.235,-0.295 1.204,-1.375 2.153,-2.4 0.949,-1.024 1.959,-2.41 2.245,-3.079 0.285,-0.669 0.782,-1.479 1.104,-1.801 0.323,-0.322 1.18,-2.115 1.906,-3.984 0.726,-1.87 1.576,-3.849 1.889,-4.399 1.746,-3.069 3.001,-7.365 3.529,-12.088 0.141,-1.259 0.756,-3.869 1.366,-5.8 4.674,-14.793 4.696,-50.711 0.039,-64.506 -0.633,-1.874 -1.262,-4.396 -1.398,-5.606 -0.658,-5.845 -1.943,-11.376 -3.392,-14.6 -0.395,-0.88 -1.221,-3.22 -1.835,-5.2 -1.286,-4.144 -3.675,-9.452 -5.628,-12.505 -0.742,-1.161 -1.35,-2.352 -1.35,-2.646 0,-0.666 -2.248,-4.965 -3.163,-6.049 -0.371,-0.44 -1.287,-2.06 -2.035,-3.6 -1.897,-3.904 -3.883,-6.98 -5.461,-8.454 -0.737,-0.69 -1.341,-1.46 -1.341,-1.712 0,-0.252 -0.87,-1.308 -1.934,-2.346 -1.063,-1.039 -2.107,-2.206 -2.319,-2.594 -0.42,-0.769 -3.582,-4.49 -4.547,-5.35 -0.33,-0.295 -1.614,-1.482 -2.854,-2.64 -4.56,-4.256 -6.905,-6.304 -7.22,-6.304 -0.178,0 -1.194,-0.855 -2.258,-1.9 -1.064,-1.045 -2.189,-2.116 -2.501,-2.381 -0.312,-0.264 -0.783,-0.714 -1.048,-1 -0.81,-0.875 -1.668,-1.519 -2.023,-1.519 -0.186,0 -1.237,-0.881 -2.336,-1.957 -1.1,-1.076 -2.577,-2.309 -3.284,-2.738 -1.959,-1.192 -7.044,-5.774 -8.971,-8.085 -1.446,-1.734 -1.737,-10.201 -0.598,-17.39 0.898,-5.665 0.973,-23.247 0.118,-27.83 -0.934,-5.008 -2.527,-8.944 -4.742,-11.713 -0.742,-0.928 -1.728,-2.319 -2.19,-3.092 -1.313,-2.194 -4.255,-4.395 -5.873,-4.395 -0.341,0 -0.62,-0.166 -0.62,-0.368 0,-0.525 -5.46,-3.145 -7.6,-3.646 -0.99,-0.232 -2.926,-0.675 -4.302,-0.984 -2.975,-0.667 -15.133,-1.059 -19.098,-0.615 m 12.067,3.607 c 4.126,0.254 6.941,0.643 8.8,1.216 11.844,3.65 13.358,4.786 17.593,13.202 2.051,4.076 2.426,5.202 3.169,9.528 1.016,5.917 0.355,23.613 -1.039,27.808 -2.738,8.236 0.564,17.027 8.81,23.452 0.706,0.55 1.49,1.18 1.742,1.4 0.252,0.22 1.988,1.61 3.858,3.089 1.87,1.479 4.3,3.555 5.4,4.614 1.1,1.058 2.99,2.629 4.2,3.49 2.268,1.613 13.522,12.675 16.002,15.728 0.769,0.946 1.848,2.22 2.398,2.83 0.55,0.61 1.27,1.528 1.6,2.039 0.33,0.511 1.143,1.668 1.807,2.57 1.579,2.146 3.985,6.129 5.34,8.84 0.33,0.66 1.338,2.37 2.24,3.8 0.902,1.43 2.161,3.95 2.798,5.6 0.636,1.65 1.983,4.62 2.992,6.6 1.01,1.98 2.181,4.68 2.603,6 0.421,1.32 0.893,2.58 1.047,2.8 0.154,0.22 0.407,1.03 0.561,1.8 0.154,0.77 1.068,3.74 2.03,6.6 2.092,6.212 2.386,7.815 4.189,22.8 0.212,1.76 0.559,4.55 0.771,6.2 0.51,3.957 0.505,19.641 -0.008,26.2 -2.055,26.252 -2.385,28.318 -5.641,35.26 -0.841,1.793 -1.529,3.395 -1.529,3.56 0,0.165 -0.429,1.218 -0.952,2.34 -0.524,1.122 -1.256,2.722 -1.627,3.556 -0.371,0.834 -1.169,2.094 -1.774,2.8 -0.605,0.706 -1.486,1.914 -1.958,2.684 -2.248,3.669 -6.428,6.768 -11.139,8.257 -3.619,1.144 -146.786,1.159 -151.085,0.016 -4.893,-1.302 -10.295,-4.874 -12.865,-8.507 -0.44,-0.622 -1.076,-1.415 -1.414,-1.763 -1.741,-1.79 -5.986,-8.985 -5.986,-10.146 0,-0.133 -0.63,-1.226 -1.4,-2.43 -0.77,-1.204 -1.4,-2.38 -1.4,-2.613 0,-0.234 -0.169,-0.737 -0.377,-1.119 -0.207,-0.382 -0.686,-1.775 -1.065,-3.095 -0.379,-1.32 -0.819,-2.58 -0.978,-2.8 -0.159,-0.22 -0.417,-1.21 -0.573,-2.2 -0.157,-0.99 -0.604,-3.06 -0.994,-4.6 -3.004,-11.855 -4.177,-45.071 -2.048,-58 1.699,-10.32 4.558,-20.126 7.813,-26.8 1.977,-4.054 3.422,-7.251 3.422,-7.57 0,-0.118 0.6,-1.163 1.334,-2.322 0.734,-1.16 1.857,-3.098 2.497,-4.308 0.64,-1.21 1.254,-2.29 1.366,-2.4 0.112,-0.11 0.561,-0.92 0.999,-1.8 0.438,-0.88 0.898,-1.69 1.023,-1.8 0.125,-0.11 1.305,-1.822 2.623,-3.804 3.785,-5.696 7.478,-10.559 10.358,-13.641 0.88,-0.941 1.96,-2.206 2.4,-2.81 0.44,-0.604 1.43,-1.837 2.2,-2.741 0.77,-0.904 2.3,-2.714 3.4,-4.021 3.573,-4.246 13.719,-14.032 15.699,-15.142 0.607,-0.34 1.798,-1.33 4.023,-3.341 0.547,-0.495 1.129,-0.9 1.292,-0.9 0.468,0 7.973,-7.765 8.744,-9.047 1.739,-2.89 2.102,-10.742 0.876,-18.953 -1.283,-8.591 -1.485,-19.963 -0.438,-24.579 1.327,-5.849 1.781,-7.429 2.623,-9.119 0.52,-1.044 1.314,-2.293 1.763,-2.775 0.45,-0.483 0.818,-1.017 0.818,-1.187 0,-0.834 5.534,-5.704 7.508,-6.607 4.543,-2.077 9.405,-3.442 13.292,-3.729 2.09,-0.155 3.89,-0.304 4,-0.332 0.11,-0.028 2.93,0.117 6.267,0.322 m -15.088,131.744 c -2.611,1.942 -2.813,2.929 -3.036,14.823 -0.359,19.125 0.27,18.495 -18.743,18.772 -12.496,0.182 -12.91,0.259 -14.943,2.787 l -1.343,1.67 0.184,10.005 c 0.181,9.921 0.192,10.022 1.26,12.069 1.438,2.755 0.792,2.625 14.642,2.948 12.802,0.3 14.973,0.6 16.829,2.329 1.592,1.483 1.701,2.805 1.94,23.459 0.259,22.386 0.105,21.264 3.224,23.5 l 1.535,1.1 h 9.93 9.931 l 2.134,-1.08 c 3.225,-1.632 3.039,-0.304 3.29,-23.52 0.303,-27.915 -1.325,-25.199 15.428,-25.747 6.138,-0.202 11.435,-0.48 11.773,-0.619 2.161,-0.892 3.154,-5.824 3.172,-15.754 0.022,-12.849 -0.549,-13.282 -17.54,-13.281 -8.819,0.001 -10.112,-0.286 -11.551,-2.565 l -1.019,-1.614 -0.299,-13.01 c -0.359,-15.583 -0.199,-14.745 -3.103,-16.239 L 213.8,155 l -9.8,-0.108 -9.8,-0.108 -1.821,1.354 m 21.066,1.656 c 2.273,0.728 2.873,3.806 3.05,15.658 l 0.162,10.852 1.476,2.948 c 2.384,4.761 3.575,5.138 16.267,5.148 13.621,0.012 12.431,-0.85 12.699,9.2 0.287,10.75 -0.204,13.267 -2.699,13.835 -0.55,0.125 -1.36,0.385 -1.8,0.577 -0.44,0.193 -4.955,0.404 -10.034,0.469 l -9.235,0.119 -1.765,1.2 c -2.363,1.606 -2.547,1.798 -3.248,3.41 -0.333,0.764 -0.848,1.93 -1.144,2.59 -0.42,0.935 -0.573,5.397 -0.692,20.22 -0.197,24.423 0.39,22.802 -8.482,23.438 -3.054,0.219 -13.261,-0.383 -14.459,-0.853 -1.111,-0.437 -1.222,-2.143 -1.495,-23.005 -0.31,-23.598 -0.201,-23.053 -5.046,-25.183 -0.88,-0.387 -2.14,-0.942 -2.8,-1.232 -0.841,-0.371 -4.49,-0.612 -12.2,-0.806 -16.237,-0.409 -14.957,0.674 -15.099,-12.779 -0.13,-12.35 -1.84,-10.933 13.616,-11.28 16.99,-0.381 17.952,-0.639 20.633,-5.519 0.408,-0.744 0.633,-4.084 0.875,-13.001 0.413,-15.242 0.614,-16.048 4.078,-16.329 3.021,-0.245 16.342,0.003 17.342,0.323 M 135.36,318.423 c -4.766,0.463 -8.455,2.332 -11.193,5.672 -0.238,0.29 -0.755,1.423 -1.149,2.517 -0.394,1.093 -1.144,2.906 -1.667,4.028 -0.523,1.122 -0.951,2.339 -0.951,2.705 0,0.366 -0.159,0.978 -0.353,1.36 -0.592,1.164 -1.182,2.642 -1.474,3.695 -0.153,0.55 -0.614,1.478 -1.025,2.062 -0.412,0.584 -0.756,1.214 -0.765,1.4 -0.009,0.186 -0.684,0.788 -1.5,1.338 l -1.483,1 -50,0.2 -50,0.2 -2.372,1.145 C 6.001,348.364 5.245,352.16 7.592,365 c 0.241,1.32 0.699,3.84 1.018,5.6 0.318,1.76 0.768,4.01 1,5 0.231,0.99 0.667,2.97 0.969,4.4 0.301,1.43 0.754,3.32 1.007,4.2 0.253,0.88 0.637,2.32 0.854,3.2 0.217,0.88 0.73,2.59 1.14,3.8 0.409,1.21 0.857,3.37 0.995,4.8 0.453,4.701 2.052,12.347 3.053,14.6 0.391,0.88 0.836,2.217 0.989,2.97 0.153,0.754 0.706,2.139 1.23,3.077 0.524,0.939 0.953,2.077 0.953,2.53 0,0.766 0.235,0.823 3.4,0.823 3.335,0 3.4,-0.019 3.4,-0.973 0,-0.658 -0.291,-1.065 -0.9,-1.257 -3.185,-1.003 -5.516,-6.063 -8.281,-17.97 -0.255,-1.1 -0.637,-2.72 -0.847,-3.6 -0.211,-0.88 -0.644,-3.04 -0.962,-4.8 -0.319,-1.76 -0.758,-4.19 -0.978,-5.4 -0.96,-5.303 -1.623,-8.412 -2.43,-11.4 -0.476,-1.76 -1.016,-3.83 -1.202,-4.6 -0.185,-0.77 -0.521,-2.12 -0.747,-3 -2.519,-9.832 -0.771,-17.488 4.197,-18.379 0.853,-0.153 22.61,-0.426 48.35,-0.608 25.74,-0.182 47.52,-0.454 48.4,-0.605 2.019,-0.346 3.784,-1.013 4.757,-1.798 3.832,-3.088 5.012,-4.864 6.237,-9.386 0.42,-1.553 0.962,-3.544 1.203,-4.424 1.127,-4.114 3.805,-7.186 7.986,-9.163 L 135,321.4 h 71.4 c 53.52,0 71.7,0.117 72.6,0.467 0.66,0.258 1.686,0.574 2.281,0.703 2.825,0.615 5.6,5.099 6.085,9.83 0.734,7.158 1.459,9.961 2.993,11.557 3.753,3.907 0.794,3.684 53.041,3.983 44.243,0.254 45.647,0.285 47.187,1.048 3.433,1.7 4.213,3.294 4.213,8.609 0,3.527 -0.216,5.261 -1.371,11.003 -0.133,0.66 -0.491,2.55 -0.796,4.2 -0.305,1.65 -1.035,4.71 -1.623,6.8 -1.467,5.219 -1.738,6.431 -2.419,10.8 -1.401,8.985 -2.115,12.453 -3.37,16.352 -0.452,1.404 -0.821,2.717 -0.821,2.919 0,0.202 -0.36,1.113 -0.8,2.023 -0.44,0.911 -0.8,1.835 -0.8,2.053 0,0.553 -3.515,3.772 -4.44,4.066 -0.472,0.15 -0.76,0.609 -0.76,1.214 0,0.954 0.065,0.973 3.4,0.973 3.218,0 3.4,-0.046 3.4,-0.865 0,-0.476 0.526,-1.691 1.169,-2.7 1.938,-3.042 2.883,-6.587 4.007,-15.035 0.332,-2.499 0.635,-3.805 2.084,-9 0.215,-0.77 0.642,-2.48 0.95,-3.8 0.307,-1.32 0.847,-3.48 1.199,-4.8 1.203,-4.503 1.543,-6.327 3.821,-20.5 0.428,-2.657 0.546,-2.9 1.418,-2.9 H 400 v -5.4 -5.4 h -0.94 c -0.587,0 -1.302,-0.476 -1.9,-1.265 -0.542,-0.715 -2.091,-1.802 -3.56,-2.5 L 391,344.6 344.2,344.355 c -25.74,-0.134 -47.437,-0.374 -48.214,-0.533 -3.08,-0.63 -3.563,-1.564 -4.584,-8.863 -0.311,-2.222 -0.841,-4.832 -1.178,-5.8 -0.337,-0.967 -0.615,-1.994 -0.618,-2.281 -0.052,-4.603 -4.888,-7.986 -12.133,-8.486 -6.396,-0.441 -137.538,-0.413 -142.113,0.031 m 66.459,65.546 c -0.125,0.203 -0.8,0.495 -1.499,0.649 -1.772,0.389 -6.808,5.655 -10.119,10.581 -1.459,2.17 -2.941,4.183 -3.293,4.473 -0.352,0.291 -1.274,1.516 -2.047,2.723 -1.716,2.677 -1.87,2.868 -3.807,4.724 -0.85,0.814 -2.2,2.121 -3,2.903 -2.38,2.329 -8.151,6.271 -9.641,6.586 -0.763,0.162 -1.663,0.44 -2,0.619 -0.337,0.178 -1.108,0.429 -1.713,0.556 -0.842,0.178 -1.1,0.465 -1.1,1.225 V 420 h 4.773 4.774 l 0.126,-1.064 c 0.092,-0.766 0.555,-1.285 1.66,-1.856 1.578,-0.816 10.667,-9.574 10.667,-10.279 0,-0.217 0.542,-0.912 1.205,-1.545 1.386,-1.325 2.334,-2.582 5.366,-7.114 1.198,-1.791 2.705,-3.861 3.349,-4.6 0.643,-0.738 1.469,-1.927 1.835,-2.642 0.366,-0.715 0.81,-1.3 0.987,-1.3 0.176,0 1.199,-0.585 2.272,-1.3 3.145,-2.096 5.382,-2.412 6.401,-0.905 0.448,0.663 1.38,1.565 2.07,2.005 0.69,0.44 1.363,1.208 1.494,1.707 0.224,0.848 2.854,5.252 3.4,5.693 0.136,0.11 0.849,1.151 1.584,2.313 0.735,1.161 1.674,2.293 2.087,2.514 0.412,0.22 0.75,0.659 0.75,0.975 0,0.873 1.552,3.662 2.755,4.95 0.59,0.631 1.592,1.935 2.228,2.898 1.592,2.412 4.57,5.653 6.346,6.906 0.645,0.456 1.071,1.131 1.071,1.7 0,0.935 0.043,0.944 4.4,0.944 4.388,0 4.4,-0.003 4.4,-0.968 0,-0.769 -0.268,-1.026 -1.3,-1.246 -0.715,-0.153 -1.48,-0.413 -1.7,-0.577 -0.22,-0.164 -0.907,-0.42 -1.526,-0.568 -1.181,-0.282 -2.689,-1.493 -6.055,-4.862 -2.062,-2.065 -2.347,-2.398 -4.426,-5.171 -0.656,-0.876 -1.553,-2.01 -1.993,-2.521 -0.964,-1.119 -3.27,-5.059 -3.856,-6.587 -0.232,-0.605 -0.546,-1.1 -0.697,-1.1 -0.151,0 -0.615,-0.585 -1.031,-1.3 -0.415,-0.715 -0.877,-1.39 -1.026,-1.5 -0.149,-0.11 -0.777,-1.01 -1.396,-2 -3.351,-5.355 -6.735,-8 -10.239,-8 -1.269,0 -2.41,0.166 -2.536,0.369"
     stroke="none"
     fill="#9e9e9e"
     fill-rule="evenodd" />
  <path
     id="path4"
     d="m 197.8,25.465 c -7.505,0.612 -15.032,3.655 -18.177,7.347 -0.978,1.147 -1.974,2.289 -2.213,2.537 -5.338,5.538 -6.977,18.281 -4.868,37.851 1.168,10.833 0.727,16.422 -1.542,19.552 -1.431,1.974 -9.4,9.524 -12.8,12.127 -1.271,0.974 -2.812,2.247 -3.553,2.937 -0.246,0.229 -1.702,1.476 -3.237,2.771 -3.499,2.955 -4.728,4.251 -9.841,10.374 -0.533,0.638 -1.599,1.818 -2.369,2.621 -0.77,0.804 -1.93,2.171 -2.579,3.039 -0.648,0.869 -1.278,1.669 -1.4,1.779 -0.752,0.681 -4.91,5.756 -6.225,7.6 -0.863,1.21 -1.68,2.29 -1.815,2.4 -0.135,0.11 -1.473,2 -2.974,4.2 -1.501,2.2 -2.836,4.09 -2.968,4.2 -0.276,0.232 -1.089,1.716 -3.394,6.2 -0.905,1.76 -1.78,3.26 -1.945,3.333 -0.165,0.074 -0.3,0.389 -0.3,0.7 0,0.312 -0.149,0.567 -0.332,0.567 -0.325,0 -2.868,4.75 -2.868,5.358 0,0.295 -2.135,4.734 -3.097,6.442 -0.499,0.884 -2.05,5.482 -3.105,9.2 -0.374,1.32 -0.834,2.85 -1.022,3.4 -0.188,0.55 -0.526,1.99 -0.751,3.2 -0.225,1.21 -0.675,3.46 -1,5 -2.857,13.535 -2.541,44.308 0.595,58 0.201,0.88 0.532,2.5 0.733,3.6 0.906,4.934 3.648,13.398 5.127,15.825 0.461,0.756 1.574,2.92 2.473,4.808 2.314,4.857 9.564,13.967 11.115,13.967 0.261,0 0.713,0.232 1.003,0.515 0.573,0.558 1.994,1.234 5.729,2.726 l 2.4,0.959 h 73.8 c 63.267,0 74,-0.082 75.2,-0.575 2.281,-0.937 7.707,-4.413 8.793,-5.632 1.534,-1.722 2.007,-2.336 2.007,-2.603 0,-0.331 2.126,-3.157 2.5,-3.323 0.165,-0.074 0.304,-0.344 0.309,-0.6 0.005,-0.257 0.541,-1.547 1.191,-2.867 0.65,-1.32 1.186,-2.53 1.191,-2.688 0.009,-0.278 0.952,-2.461 3.072,-7.112 1.438,-3.155 1.633,-3.639 2.097,-5.2 0.724,-2.441 1.365,-9.554 2.467,-27.4 1.029,-16.65 -0.698,-43.415 -3.225,-50 -1.467,-3.82 -2.402,-6.493 -2.402,-6.862 0,-0.476 -2.233,-7.751 -2.835,-9.238 -0.201,-0.495 -0.523,-1.305 -0.716,-1.8 -0.193,-0.495 -1.174,-2.61 -2.181,-4.7 -1.006,-2.09 -2.165,-4.7 -2.574,-5.8 -0.408,-1.1 -1.704,-3.62 -2.878,-5.6 -1.175,-1.98 -2.746,-4.77 -3.491,-6.2 -1.23,-2.357 -5.341,-8.745 -6.325,-9.828 -1.15,-1.265 -4.686,-5.373 -5.344,-6.209 -2.164,-2.748 -12.643,-12.765 -14.744,-14.094 -0.832,-0.526 -2.052,-1.507 -2.712,-2.181 -0.66,-0.674 -1.92,-1.784 -2.8,-2.468 -0.88,-0.684 -2.116,-1.643 -2.748,-2.132 -0.631,-0.488 -1.531,-1.248 -2,-1.689 -0.468,-0.441 -1.662,-1.417 -2.652,-2.17 -11.338,-8.623 -12.934,-13.392 -9.983,-29.829 3.36,-18.712 -0.838,-35.742 -10.309,-41.825 -4.644,-2.984 -18.459,-5.248 -27.508,-4.51 m 17.138,4.095 c 4.097,0.616 10.681,3.94 11.41,5.76 0.082,0.204 0.503,0.665 0.936,1.025 2.107,1.753 3.356,4.567 5.704,12.855 1.55,5.469 1.748,10.472 0.625,15.8 -2.867,13.611 -3.054,25.621 -0.428,27.4 0.163,0.11 0.79,0.989 1.394,1.953 1.28,2.044 3.072,4.154 4.964,5.846 0.738,0.661 2.006,1.831 2.817,2.601 0.811,0.77 2.318,2.083 3.348,2.919 1.03,0.835 2.102,1.735 2.382,2 0.281,0.264 1.23,0.976 2.11,1.581 0.88,0.605 2.209,1.64 2.954,2.3 0.745,0.66 1.493,1.2 1.663,1.2 0.17,0 1.901,1.549 3.846,3.443 1.945,1.894 4.134,3.904 4.863,4.467 1.827,1.412 6.617,6.238 7.446,7.503 0.703,1.073 1.048,1.514 3.428,4.375 2.921,3.512 3.824,4.723 4.6,6.174 0.44,0.822 1.357,2.202 2.037,3.066 0.68,0.865 1.741,2.652 2.358,3.972 0.617,1.32 1.546,3.071 2.064,3.892 0.517,0.821 0.941,1.667 0.941,1.882 0,0.214 0.9,1.953 2,3.865 1.1,1.912 2,3.709 2,3.995 0,0.285 0.166,0.621 0.369,0.747 0.203,0.125 0.489,0.773 0.636,1.44 0.146,0.666 0.837,2.329 1.535,3.695 1.396,2.731 1.925,4.286 2.887,8.484 0.353,1.54 1.338,4.87 2.188,7.4 1.693,5.035 2.719,8.79 3.825,14 1.141,5.378 0.989,48.95 -0.194,55.4 -1.16,6.322 -1.136,6.243 -3.704,12.587 -1.288,3.183 -2.342,5.944 -2.342,6.135 0,0.448 -2.147,4.859 -3.251,6.678 -0.467,0.77 -1.153,1.963 -1.523,2.651 -1.225,2.278 -2.628,3.596 -6.045,5.681 -5.643,3.443 -2.54,3.323 -81.381,3.15 -70.007,-0.153 -69.917,-0.151 -73.6,-1.843 -0.88,-0.404 -2.05,-0.874 -2.6,-1.043 -0.55,-0.17 -1.627,-0.734 -2.393,-1.252 -0.766,-0.519 -1.621,-0.944 -1.9,-0.944 -0.279,0 -0.507,-0.146 -0.507,-0.325 0,-0.178 -0.316,-0.673 -0.703,-1.1 -0.387,-0.426 -1.048,-1.31 -1.468,-1.965 -0.421,-0.654 -0.924,-1.374 -1.119,-1.6 -1.229,-1.424 -4.955,-7.6 -5.798,-9.61 -0.554,-1.32 -1.596,-3.66 -2.316,-5.2 -1.422,-3.043 -1.946,-4.714 -2.633,-8.4 -0.246,-1.32 -0.611,-3.21 -0.811,-4.2 -4.755,-23.514 -2.924,-62.763 3.587,-76.885 0.681,-1.477 1.353,-3.144 1.494,-3.704 0.141,-0.56 0.416,-1.117 0.611,-1.238 0.196,-0.121 0.356,-0.535 0.356,-0.92 0,-0.385 0.647,-1.769 1.437,-3.077 2.898,-4.79 4.749,-8.249 6.195,-11.576 0.478,-1.1 1.432,-2.643 2.119,-3.43 0.687,-0.786 1.747,-2.226 2.355,-3.2 0.609,-0.973 1.959,-2.869 3,-4.212 2.791,-3.598 3.404,-4.474 4.353,-6.216 0.841,-1.544 2.355,-3.142 2.975,-3.142 0.172,0 0.424,-0.354 0.562,-0.787 0.137,-0.432 1.037,-1.597 2,-2.588 0.963,-0.99 1.898,-2.051 2.077,-2.356 0.316,-0.536 2.513,-3.101 6.011,-7.019 0.926,-1.038 2.23,-2.64 2.897,-3.56 0.667,-0.921 1.979,-2.172 2.916,-2.781 0.937,-0.608 2.484,-1.827 3.438,-2.708 0.955,-0.88 2.278,-1.945 2.94,-2.366 0.663,-0.42 1.842,-1.365 2.621,-2.1 0.779,-0.734 1.538,-1.335 1.688,-1.335 0.438,0 5.21,-4.866 5.873,-5.988 0.332,-0.563 1.176,-1.404 1.874,-1.869 0.698,-0.464 1.761,-1.778 2.362,-2.919 0.601,-1.142 1.347,-2.559 1.659,-3.15 1.561,-2.962 1.852,-10.457 0.701,-18.074 -1.168,-7.723 -1.336,-10.163 -1.135,-16.4 0.117,-3.63 0.4,-7.14 0.628,-7.8 0.228,-0.66 0.704,-2.28 1.058,-3.6 0.354,-1.32 0.846,-2.76 1.095,-3.2 0.248,-0.44 0.732,-1.346 1.076,-2.013 2.712,-5.265 8.211,-9.189 14.53,-10.369 3.504,-0.655 17.324,-0.565 22.033,0.142 m -23.09,122.858 c -4.936,1.874 -5.315,3.031 -5.753,17.582 l -0.355,11.8 -1.133,1.791 c -2.033,3.216 -0.976,2.987 -14.778,3.209 l -12.429,0.2 -1.931,1.2 c -1.721,1.07 -2.295,1.768 -3.53,4.295 -0.186,0.382 -0.331,5.512 -0.321,11.4 0.03,18.203 -0.498,17.676 18.091,18.063 l 12.309,0.257 1.214,1.392 c 2.691,3.088 2.546,1.88 2.78,23.193 0.234,21.363 0.124,20.441 2.838,23.735 2.469,2.994 3.542,3.224 15.127,3.237 18.074,0.02 17.282,1.27 17.491,-27.572 0.164,-22.509 0.006,-20.962 2.319,-22.728 l 1.78,-1.359 10.517,-0.197 c 16.446,-0.307 16.316,-0.161 16.316,-18.332 v -10.356 l -1.066,-1.914 c -2.271,-4.077 -2.971,-4.274 -16.027,-4.514 l -10.893,-0.2 -1.307,-1.307 -1.307,-1.307 -0.252,-12.493 c -0.41,-20.325 -0.049,-19.924 -17.868,-19.855 -8.591,0.033 -10.135,0.135 -11.832,0.78 m 21.797,1.983 c 5.659,1.052 5.952,1.755 5.964,14.307 0.01,10.991 0.654,17.333 1.887,18.566 1.241,1.241 3.353,1.506 12.071,1.516 11.628,0.014 16.033,1.221 16.033,4.393 0,0.229 0.18,0.417 0.4,0.417 0.555,0 0.525,18.119 -0.034,20.2 -0.575,2.145 -1.651,4.6 -2.014,4.6 -0.162,0 -0.593,0.299 -0.958,0.663 -0.569,0.569 -2.192,0.707 -11.332,0.964 -5.867,0.165 -11.329,0.424 -12.138,0.576 -3.44,0.646 -3.587,1.634 -3.798,25.597 -0.232,26.254 1.014,24.278 -15.459,24.518 l -9.934,0.144 -1.666,-1.081 c -4.385,-2.844 -4.259,-2.104 -4.264,-25.128 -0.005,-26.076 1.173,-24.629 -20.053,-24.646 -14.634,-0.012 -14.75,-0.146 -14.75,-17.003 0,-9.661 0.06,-9.989 2.19,-11.95 2.255,-2.077 2.016,-2.041 14.992,-2.268 11.368,-0.199 12.347,-0.274 14.074,-1.067 3.176,-1.459 3.535,-3.049 3.573,-15.839 0.042,-13.861 0.564,-15.698 4.971,-17.502 1.152,-0.471 17.688,-0.453 20.245,0.023 M 137,322.663 c -1.936,0.168 -4.6,0.954 -4.6,1.358 0,0.161 -0.405,0.395 -0.9,0.522 -1.437,0.366 -4.766,4.018 -5.522,6.057 -0.245,0.66 -0.587,1.477 -0.762,1.815 -0.174,0.339 -0.445,1.375 -0.602,2.304 -0.157,0.928 -0.645,2.631 -1.083,3.784 -0.439,1.154 -0.905,2.452 -1.035,2.886 -0.416,1.389 -4.224,4.856 -6.496,5.913 -3.316,1.543 -4.29,1.578 -53.2,1.891 -51.726,0.332 -48.184,0.068 -50.552,3.765 -0.863,1.346 -1.037,8.03 -0.296,11.345 0.233,1.043 0.804,3.517 1.269,5.497 1.706,7.269 3.013,13.624 3.372,16.4 0.94,7.277 6.448,26.539 8.193,28.656 2.585,3.137 -2.049,2.944 70.814,2.944 71.639,0 67.205,0.165 73.6,-2.734 3.504,-1.588 12.048,-8.974 14.19,-12.266 0.987,-1.517 3.601,-5.169 4.724,-6.6 0.173,-0.22 1.114,-1.555 2.092,-2.966 8.204,-11.846 16.013,-13.756 22.794,-5.576 0.88,1.061 1.825,2.19 2.1,2.507 0.275,0.318 0.5,0.756 0.5,0.973 0,0.217 0.141,0.455 0.313,0.529 0.353,0.15 2.992,4.301 4.663,7.333 0.907,1.645 3.832,5.82 4.625,6.6 0.112,0.11 0.735,0.92 1.384,1.8 3.61,4.892 8.449,8.549 12.487,9.438 4.61,1.015 10.713,1.113 69.528,1.117 57.423,0.004 64.927,-0.109 68.484,-1.024 2.708,-0.697 6.516,-6.2 6.516,-9.416 0,-0.367 0.156,-0.764 0.347,-0.883 0.192,-0.118 0.468,-0.983 0.616,-1.923 0.147,-0.94 0.611,-2.699 1.03,-3.909 0.419,-1.21 0.968,-3.55 1.22,-5.2 1.279,-8.368 1.991,-12.328 2.664,-14.8 3.243,-11.921 5.126,-25.648 3.743,-27.291 -0.236,-0.28 -0.817,-1.026 -1.292,-1.657 -1.915,-2.55 0.724,-2.403 -48.728,-2.701 -48.658,-0.293 -48.031,-0.263 -51.472,-2.459 -2.847,-1.816 -3.922,-3.851 -4.7,-8.892 -1.704,-11.046 -2.563,-12.687 -7.628,-14.578 -1.475,-0.551 -136.386,-1.08 -142.4,-0.559 m 141.2,3.813 c 3.366,1.897 4.64,3.99 5.187,8.524 1.119,9.28 2.645,12.265 7.543,14.752 5.3,2.69 4.511,2.645 50.87,2.874 44.564,0.22 45.462,0.262 47.478,2.189 1.356,1.295 1.638,7.662 0.504,11.385 -0.875,2.873 -2.896,12.315 -3.34,15.6 -0.329,2.443 -0.834,4.63 -2.443,10.6 -0.208,0.77 -0.663,2.75 -1.013,4.4 -1.673,7.893 -4.24,15.436 -5.376,15.797 -0.368,0.117 -1.101,0.615 -1.63,1.108 l -0.961,0.895 H 307.609 240.2 l -1.6,-0.943 c -4.837,-2.852 -5.8,-3.467 -5.8,-3.703 0,-0.143 -0.687,-0.956 -1.527,-1.807 -0.84,-0.851 -2.083,-2.357 -2.762,-3.347 -0.679,-0.99 -1.612,-2.197 -2.073,-2.683 -0.461,-0.486 -0.838,-0.989 -0.838,-1.117 0,-0.241 -0.529,-0.929 -1.629,-2.119 -0.898,-0.972 -3.171,-4.807 -3.171,-5.35 0,-0.415 -2.688,-4.178 -3.9,-5.46 -0.275,-0.29 -0.5,-0.652 -0.5,-0.803 0,-0.565 -3.857,-4.348 -5.393,-5.291 -3.155,-1.936 -4.787,-2.348 -7.678,-1.938 -5.397,0.764 -5.437,0.788 -12.14,7.209 -1.724,1.652 -4.789,5.662 -4.789,6.266 0,0.242 -0.323,0.676 -0.717,0.963 -0.728,0.53 -3.283,4.466 -3.283,5.057 0,0.177 -0.405,0.701 -0.9,1.165 -0.495,0.463 -1.568,1.531 -2.384,2.372 -1.363,1.403 -4.922,4.732 -6.953,6.503 -0.46,0.401 -2.17,1.357 -3.8,2.124 -1.63,0.766 -3.683,1.733 -4.563,2.148 -1.547,0.729 -3.773,0.754 -67.718,0.754 H 29.964 l -2.147,-2.363 c -1.182,-1.3 -2.243,-2.74 -2.359,-3.2 -0.117,-0.461 -0.479,-1.917 -0.805,-3.237 -2.83,-11.454 -4.658,-18.684 -5.055,-20 -0.965,-3.196 -1.65,-6.271 -2.006,-9 -0.41,-3.149 -1.272,-7.759 -2.018,-10.8 -1.816,-7.395 -0.433,-11.894 3.912,-12.73 1.573,-0.303 16.077,-0.5 45.314,-0.617 45.622,-0.183 46.94,-0.237 51.111,-2.107 1.161,-0.52 2.286,-0.946 2.5,-0.946 0.214,0 0.389,-0.18 0.389,-0.4 0,-0.22 0.268,-0.4 0.595,-0.4 1.64,0 6.205,-6.098 6.205,-8.288 0,-3.376 7.089,-13.616 10,-14.446 2.77,-0.789 141.178,-0.391 142.6,0.41"
     stroke="none"
     fill="#747474"
     fill-rule="evenodd" />
</svg>
