<?xml version="1.0" encoding="UTF-8" standalone="no"?>
<svg
   id="svg"
   version="1.1"
   width="400"
   height="391.919191919192"
   viewBox="0, 0, 400,391.919191919192"
   sodipodi:docname="bk.svg"
   inkscape:version="1.1.2 (0a00cf5339, 2022-02-04)"
   xmlns:inkscape="http://www.inkscape.org/namespaces/inkscape"
   xmlns:sodipodi="http://sodipodi.sourceforge.net/DTD/sodipodi-0.dtd"
   xmlns="http://www.w3.org/2000/svg"
   xmlns:svg="http://www.w3.org/2000/svg">
  <defs
     id="defs7562" />
  <sodipodi:namedview
     id="namedview7560"
     pagecolor="#ffffff"
     bordercolor="#cccccc"
     borderopacity="1"
     inkscape:pageshadow="0"
     inkscape:pageopacity="1"
     inkscape:pagecheckerboard="0"
     showgrid="false"
     inkscape:zoom="0.97086341"
     inkscape:cx="134.93144"
     inkscape:cy="269.34788"
     inkscape:window-width="1680"
     inkscape:window-height="1014"
     inkscape:window-x="1920"
     inkscape:window-y="0"
     inkscape:window-maximized="1"
     inkscape:current-layer="svg" />
  <path
     id="path0"
     d="m 192.157,17.09 c -3.146,0.362 -5.673,1.089 -8.153,2.346 -1.447,0.734 -2.863,1.337 -3.147,1.341 -0.284,0.004 -1.49,1.022 -2.681,2.262 -1.865,1.943 -2.851,3.587 -4.409,7.353 -0.179,0.432 -0.601,1.425 -0.938,2.207 -2.589,6.005 -1.759,17.034 2.479,32.937 0.208,0.78 0.378,1.737 0.378,2.127 0,0.391 0.593,1.958 1.317,3.484 1.892,3.985 2.117,4.611 2.429,6.743 0.153,1.053 0.589,2.532 0.967,3.286 0.379,0.755 1.346,3.314 2.149,5.687 0.804,2.372 1.777,4.931 2.163,5.686 1.233,2.407 2.348,5.073 2.348,5.611 0,1.133 1.196,4.459 1.865,5.187 0.39,0.424 1.021,1.477 1.402,2.339 0.381,0.863 0.86,1.875 1.066,2.25 0.205,0.374 0.379,0.904 0.388,1.176 0.042,1.413 4.277,3.34 5.19,2.362 2.151,-2.304 3.338,-4.039 3.824,-5.592 0.304,-0.97 0.778,-2.206 1.054,-2.745 0.275,-0.539 0.501,-1.167 0.503,-1.396 0.001,-0.229 0.388,-0.831 0.86,-1.338 0.782,-0.839 1.313,-2.302 2.307,-6.349 0.194,-0.79 0.89,-2.466 1.547,-3.725 0.657,-1.259 1.47,-3.26 1.808,-4.447 0.988,-3.472 1.685,-5.474 2.652,-7.607 0.499,-1.1 1.019,-2.72 1.155,-3.6 0.259,-1.666 1.268,-4.436 2.859,-7.851 0.512,-1.1 0.932,-2.283 0.932,-2.628 0,-0.346 0.281,-1.652 0.626,-2.902 0.344,-1.251 0.768,-2.892 0.941,-3.647 0.173,-0.755 0.692,-2.696 1.152,-4.314 1.315,-4.615 1.682,-8 1.51,-13.921 -0.167,-5.721 -0.299,-6.252 -2.699,-10.838 -0.41,-0.784 -0.746,-1.711 -0.746,-2.059 0,-0.348 -0.177,-0.633 -0.392,-0.633 -0.216,0 -0.392,-0.25 -0.392,-0.557 0,-0.771 -4.174,-4.421 -5.411,-4.731 -0.557,-0.14 -1.464,-0.557 -2.016,-0.928 -1.116,-0.749 -2.287,-1.281 -4.338,-1.971 -1.403,-0.472 -10.073,-0.889 -12.549,-0.605 M 87.843,94.526 c -1.186,0.164 -3.314,0.316 -4.729,0.337 -2.221,0.034 -2.89,0.231 -4.902,1.448 -1.281,0.774 -3.601,2.014 -5.156,2.754 -1.554,0.741 -2.918,1.496 -3.031,1.68 -0.114,0.183 -1.136,0.778 -2.273,1.322 -1.136,0.545 -2.428,1.317 -2.87,1.717 -0.917,0.827 -1.993,1.497 -4.433,2.758 -1.567,0.81 -3.194,2.256 -3.194,2.837 0,0.132 -0.708,0.677 -1.572,1.212 -0.865,0.534 -1.666,1.264 -1.779,1.622 -0.203,0.64 -2.356,3.089 -5.853,6.659 -0.977,0.997 -1.776,2.02 -1.776,2.273 0,0.252 -0.42,0.879 -0.932,1.391 -1.651,1.651 -3.774,4.898 -3.774,5.772 0,0.206 -0.499,1.112 -1.109,2.013 -1.123,1.661 -3.205,5.68 -3.205,6.188 0,0.152 -0.717,1.792 -1.593,3.644 -0.875,1.851 -2.028,5.177 -2.561,7.391 -0.533,2.214 -1.143,4.674 -1.356,5.468 -1.074,4.001 -1.475,16.697 -0.773,24.478 0.445,4.935 2.985,15.505 3.902,16.235 0.135,0.108 0.576,0.947 0.981,1.863 0.404,0.917 0.855,1.667 1.001,1.667 0.147,0 0.513,0.485 0.814,1.078 0.301,0.593 0.979,1.785 1.506,2.647 1.735,2.842 3.069,5.474 3.329,6.569 0.14,0.593 0.515,1.078 0.833,1.078 0.468,0 2.647,1.891 5.878,5.101 0.215,0.214 1.242,1.228 2.281,2.252 1.039,1.025 2.32,2.525 2.848,3.334 0.527,0.809 1.215,1.47 1.529,1.47 0.313,0 1.069,0.486 1.679,1.079 0.611,0.593 3.027,2.666 5.371,4.608 3.857,3.195 6.1,5.11 9.456,8.073 2.544,2.247 6.048,7.467 6.053,9.018 10e-4,0.306 0.541,1.35 1.201,2.32 4.173,6.142 4.298,22.657 0.245,32.353 -1.283,3.068 -1.684,10.836 -0.689,13.327 1.016,2.542 5.32,5.756 9.045,6.754 3.754,1.006 15.411,0.169 20.589,-1.478 1.765,-0.561 11.952,-1.451 24.705,-2.156 6.255,-0.346 13.226,-0.779 15.491,-0.962 11.071,-0.895 31.857,-1.264 58.396,-1.037 26.807,0.23 29.552,0.335 47.486,1.826 2.696,0.224 7.108,0.58 9.804,0.79 4.54,0.355 7.869,0.842 13.333,1.95 8.581,1.739 21.023,2.634 25.098,1.805 2.049,-0.417 6.275,-2.578 6.275,-3.209 0,-0.303 0.149,-0.551 0.332,-0.551 1.511,0 1.983,-5.416 0.888,-10.196 -0.222,-0.971 -0.58,-2.735 -0.795,-3.922 -0.402,-2.21 -0.73,-3.957 -1.85,-9.833 -0.681,-3.568 -0.479,-5.919 1.188,-13.892 1.025,-4.904 1.285,-5.615 3.01,-8.235 0.568,-0.863 1.342,-2.275 1.72,-3.138 1.383,-3.161 2.315,-4.923 2.826,-5.347 0.288,-0.239 0.526,-0.634 0.528,-0.877 0.004,-0.408 1.571,-2.611 4.506,-6.334 0.647,-0.821 2.059,-2.41 3.137,-3.531 1.078,-1.12 3.108,-3.379 4.51,-5.019 1.402,-1.64 2.954,-3.198 3.449,-3.463 0.495,-0.265 1.509,-1.33 2.254,-2.367 0.745,-1.037 1.535,-1.885 1.756,-1.885 0.221,0 0.883,-0.758 1.471,-1.685 0.588,-0.927 1.82,-2.42 2.736,-3.318 0.917,-0.898 1.667,-1.776 1.667,-1.951 0,-0.175 0.63,-0.658 1.399,-1.072 0.776,-0.418 1.625,-1.288 1.906,-1.952 0.279,-0.659 1.149,-1.894 1.932,-2.743 0.784,-0.85 1.888,-2.438 2.453,-3.53 0.566,-1.091 1.626,-2.72 2.356,-3.619 0.729,-0.899 1.327,-1.739 1.327,-1.867 0,-0.129 0.779,-1.422 1.732,-2.876 1.507,-2.298 2.509,-4.794 4.525,-11.269 2.568,-8.251 1.767,-28.402 -1.56,-39.216 -0.199,-0.647 -0.647,-2.147 -0.996,-3.333 -0.348,-1.187 -1.043,-3.04 -1.543,-4.118 -0.5,-1.079 -1.313,-2.931 -1.807,-4.118 -0.494,-1.186 -0.996,-2.245 -1.115,-2.353 -0.208,-0.188 -0.798,-1.192 -1.554,-2.647 -0.676,-1.3 -1.996,-4.909 -1.996,-5.457 0,-0.302 -0.591,-0.898 -1.313,-1.324 -0.722,-0.426 -1.644,-1.391 -2.05,-2.144 -0.405,-0.753 -0.867,-1.369 -1.027,-1.369 -0.411,0 -3.061,-2.7 -3.061,-3.118 0,-0.191 -0.624,-0.733 -1.386,-1.204 -0.762,-0.471 -1.794,-1.457 -2.293,-2.192 -0.5,-0.735 -1.685,-1.745 -2.634,-2.245 -0.95,-0.5 -4.02,-2.307 -6.824,-4.017 -2.804,-1.709 -5.54,-3.312 -6.079,-3.562 -0.539,-0.249 -2.657,-1.242 -4.706,-2.206 -3.493,-1.643 -4.042,-1.78 -8.823,-2.195 -10.211,-0.887 -39.202,-0.33 -42.353,0.814 -1.276,0.463 -5.073,2.127 -6.171,2.704 -0.375,0.197 -0.856,0.358 -1.069,0.358 -0.377,0 -3.463,1.35 -7.858,3.437 -1.186,0.564 -3.039,1.574 -4.118,2.246 -1.078,0.672 -3.143,1.733 -4.588,2.358 -1.446,0.625 -3.122,1.592 -3.726,2.148 -0.604,0.556 -1.662,1.28 -2.352,1.608 -3.167,1.509 -12.777,11.124 -14.274,14.282 -0.409,0.863 -1.185,2.081 -1.725,2.708 -0.54,0.627 -0.982,1.244 -0.983,1.372 0,0.129 -0.529,0.851 -1.175,1.606 -0.646,0.755 -1.175,1.593 -1.176,1.863 0,0.269 -0.177,0.49 -0.393,0.49 -0.216,0 -0.392,0.265 -0.392,0.588 0,0.324 -0.16,0.588 -0.356,0.588 -0.195,0 -0.667,0.991 -1.048,2.203 -0.381,1.211 -1.456,3.364 -2.39,4.785 -0.933,1.421 -1.696,2.815 -1.696,3.097 0,0.283 -0.156,0.821 -0.347,1.195 -0.19,0.375 -0.582,1.211 -0.87,1.858 -0.944,2.117 -3.174,5.466 -4.44,6.666 -2.172,2.06 -3.971,3.592 -5.037,4.291 -1.32,0.865 -8.446,1.552 -10.007,0.965 -3.555,-1.336 -9.151,-6.025 -10.433,-8.742 -0.396,-0.839 -1.344,-2.339 -2.108,-3.333 -0.763,-0.994 -1.738,-2.602 -2.168,-3.573 -0.429,-0.97 -0.888,-1.853 -1.02,-1.961 -0.519,-0.424 -2.796,-4.413 -3.013,-5.278 -0.127,-0.505 -0.569,-1.282 -0.982,-1.725 -0.414,-0.444 -0.752,-0.991 -0.752,-1.215 0,-0.225 -0.176,-0.409 -0.392,-0.409 -0.216,0 -0.392,-0.18 -0.392,-0.401 0,-0.655 -2.005,-3.584 -3.808,-5.563 -0.925,-1.015 -1.682,-2.092 -1.682,-2.394 0,-0.301 -0.502,-0.97 -1.115,-1.487 -0.613,-0.517 -1.438,-1.469 -1.834,-2.116 -0.396,-0.647 -1.355,-1.794 -2.13,-2.549 -0.776,-0.755 -1.742,-1.902 -2.147,-2.549 -0.406,-0.647 -1.172,-1.529 -1.704,-1.961 -0.531,-0.431 -1.519,-1.266 -2.194,-1.856 -0.676,-0.59 -1.431,-1.075 -1.677,-1.079 -0.246,-0.003 -1.331,-0.8 -2.411,-1.77 -1.079,-0.971 -2.077,-1.765 -2.217,-1.765 -0.139,0 -1.613,-0.92 -3.275,-2.044 -2.663,-1.8 -5.647,-3.484 -10.277,-5.798 -0.755,-0.377 -2.078,-0.922 -2.941,-1.212 -0.863,-0.289 -2.02,-0.829 -2.573,-1.2 -0.552,-0.371 -1.523,-0.799 -2.157,-0.951 -0.634,-0.152 -1.329,-0.41 -1.544,-0.575 -1.207,-0.92 -30.647,-1.531 -36.275,-0.753 m 45.156,79.761 c 2.733,0.83 4.266,1.73 6.023,3.538 2.606,2.681 3.26,3.687 3.917,6.026 0.344,1.225 1.061,3.05 1.594,4.056 0.533,1.006 1.492,3.416 2.131,5.356 0.64,1.94 1.494,4.117 1.9,4.838 0.405,0.721 1.219,3.34 1.81,5.821 0.802,3.373 1.313,4.738 2.026,5.417 1.005,0.957 2.114,3.147 2.914,5.759 0.265,0.863 0.816,2.046 1.226,2.63 3.682,5.251 4.539,23.411 1.329,28.188 -3.118,4.639 -5.286,5.927 -9.16,5.441 -6.51,-0.818 -8.339,-3.055 -8.881,-10.865 -0.301,-4.34 -0.888,-8.124 -1.408,-9.068 -0.194,-0.352 -0.688,-1.346 -1.1,-2.208 -1.385,-2.907 -2.177,-4.31 -2.823,-5.005 -0.353,-0.38 -1.202,-1.792 -1.886,-3.137 -1.275,-2.506 -3.217,-5.003 -6.336,-8.147 -0.971,-0.978 -2.469,-2.831 -3.329,-4.117 -0.859,-1.287 -1.684,-2.429 -1.831,-2.539 -0.148,-0.11 -0.398,-0.716 -0.556,-1.347 -0.358,-1.424 -0.862,-2.39 -2.163,-4.143 -3.116,-4.2 -3.018,-15.17 0.166,-18.503 0.612,-0.64 1.378,-1.811 1.705,-2.603 1.171,-2.843 3.968,-4.963 7.279,-5.514 2.982,-0.497 3.434,-0.487 5.453,0.126 m 129.718,-0.083 c 4.919,1.679 8.786,6.286 9.638,11.482 0.141,0.863 0.618,2.692 1.058,4.065 l 0.802,2.496 -0.833,1.561 c -0.458,0.858 -0.833,1.953 -0.833,2.432 0,2.909 -3.183,8.948 -6.192,11.748 -0.726,0.675 -1.592,1.747 -1.926,2.381 -0.334,0.634 -1.641,2.177 -2.904,3.429 -1.263,1.251 -2.697,2.872 -3.186,3.601 -2.2,3.276 -4.213,6.021 -5.158,7.033 -0.564,0.604 -1.026,1.283 -1.026,1.508 0,0.225 -0.322,0.878 -0.716,1.45 -0.394,0.573 -0.952,1.659 -1.241,2.414 -0.289,0.755 -0.741,1.637 -1.005,1.961 -0.264,0.323 -0.699,2.794 -0.966,5.49 -1.091,11.014 -3.291,14.108 -10.033,14.115 -3.997,0.005 -6.17,-1.399 -7.432,-4.8 -1.653,-4.457 -0.944,-26.14 0.991,-30.295 0.201,-0.432 0.906,-2.008 1.568,-3.503 0.661,-1.495 1.614,-3.259 2.117,-3.921 0.503,-0.662 1.2,-2.332 1.549,-3.71 0.657,-2.6 2.327,-6.224 3.182,-6.906 0.271,-0.215 0.718,-1.362 0.993,-2.549 0.276,-1.186 0.645,-2.598 0.821,-3.137 0.175,-0.539 0.437,-1.598 0.581,-2.353 0.509,-2.665 2.965,-7.195 4.936,-9.105 1.051,-1.018 1.91,-2.079 1.91,-2.357 0,-0.279 0.452,-0.995 1.005,-1.591 0.898,-0.968 1.715,-1.425 5.269,-2.945 1.349,-0.577 5.334,-0.574 7.031,0.006 m -71.344,159.91 c -1.187,0.186 -3.216,0.539 -4.51,0.785 -4.507,0.857 -7.897,1.18 -16.275,1.554 -13.342,0.595 -20.388,1.162 -22.232,1.788 -4.128,1.401 -6.608,1.678 -26.395,2.946 -3.343,0.214 -6.785,0.576 -7.647,0.804 -6.634,1.752 -10.025,2.191 -24.118,3.118 -6.524,0.429 -8.612,0.828 -11.791,2.251 -0.956,0.428 -2.532,1.126 -3.503,1.551 -2.403,1.052 -8.627,7.644 -8.627,9.137 0,0.215 -0.325,1.14 -0.723,2.054 -3.003,6.914 -4.074,10.542 -5.118,17.349 -0.231,1.51 -0.6,3.907 -0.82,5.326 -0.219,1.42 -0.398,4.111 -0.398,5.981 v 3.399 H 194.51 329.804 l -0.024,-7.353 c -0.024,-7.324 -0.324,-11.252 -1.115,-14.608 -0.229,-0.971 -0.656,-2.823 -0.95,-4.118 -0.93,-4.1 -1.918,-7.816 -2.293,-8.627 -0.835,-1.806 -1.682,-3.221 -2.735,-4.566 -0.615,-0.786 -1.118,-1.549 -1.118,-1.695 0,-0.482 -1.164,-1.441 -2.85,-2.349 -0.913,-0.492 -2.631,-1.427 -3.817,-2.08 -1.246,-0.685 -3.068,-1.295 -4.314,-1.447 -3.418,-0.414 -6.619,-1.04 -13.137,-2.57 -1.941,-0.456 -3.882,-0.911 -4.314,-1.01 -1.417,-0.328 -22.143,-1.881 -33.529,-2.513 -3.775,-0.209 -7.745,-0.559 -8.824,-0.777 -1.89,-0.381 -4.929,-0.721 -14.117,-1.577 -2.373,-0.221 -8.02,-0.582 -12.549,-0.803 -8.256,-0.401 -13.149,-0.891 -16.079,-1.608 -2.118,-0.519 -13.98,-0.762 -16.666,-0.342"
     stroke="none"
     fill="#080808"
     fill-rule="evenodd" />
  <path
     id="path1"
     d="m 192.353,11 c -1.51,0.17 -3.407,0.5 -4.216,0.733 -0.809,0.233 -2.044,0.579 -2.745,0.768 -4.871,1.315 -10.514,5.507 -13.716,10.187 -0.686,1.002 -1.504,2.084 -1.819,2.404 -3.974,4.038 -5.17,20.961 -2.329,32.947 0.529,2.233 1.465,5.45 1.882,6.471 0.856,2.094 1.811,4.809 3.583,10.196 1.065,3.235 2.102,6.235 2.305,6.667 0.345,0.736 2.211,6.401 3.663,11.123 0.356,1.157 0.647,2.324 0.647,2.593 0,0.269 0.706,1.861 1.568,3.538 0.863,1.678 1.569,3.213 1.569,3.413 0,0.2 0.441,1.328 0.98,2.507 0.54,1.178 0.981,2.21 0.981,2.292 0,0.185 2.356,5.343 4.131,9.043 0.724,1.51 1.511,3.275 1.749,3.922 1.085,2.95 1.292,3.201 3.017,3.662 1.954,0.523 3.259,0.587 3.261,0.161 0,-0.161 0.79,-0.823 1.756,-1.47 0.965,-0.647 1.759,-1.392 1.764,-1.655 0.004,-0.263 0.361,-1.107 0.792,-1.875 0.432,-0.768 0.785,-1.611 0.786,-1.874 0,-0.263 0.754,-1.978 1.674,-3.812 0.921,-1.833 1.993,-4.216 2.383,-5.294 0.39,-1.078 0.895,-2.402 1.123,-2.941 0.228,-0.539 0.546,-1.333 0.708,-1.765 1.32,-3.524 2.596,-6.443 3.197,-7.315 0.395,-0.573 0.718,-1.287 0.718,-1.588 0,-0.302 0.148,-0.715 0.33,-0.92 0.181,-0.205 0.639,-1.608 1.017,-3.118 0.831,-3.318 2.148,-7.944 2.568,-9.02 1.311,-3.362 3.533,-9.862 5.284,-15.462 0.367,-1.17 1.023,-2.935 1.459,-3.921 1.376,-3.114 1.447,-3.312 2.036,-5.715 2.632,-10.729 2.723,-21.234 0.239,-27.451 -0.172,-0.431 -0.399,-1.059 -0.504,-1.395 -0.617,-1.979 -6.838,-9.022 -9.684,-10.963 -0.755,-0.514 -1.508,-1.155 -1.674,-1.423 -0.278,-0.45 -5.837,-2.332 -9.503,-3.216 -2.342,-0.566 -7.871,-0.784 -10.98,-0.434 m 10.447,2.695 c 2.87,0.37 9.421,3.268 11.034,4.88 0.502,0.502 1.394,1.228 1.983,1.614 0.589,0.386 1.877,1.762 2.862,3.057 6.226,8.187 7.365,17.795 3.647,30.774 -0.201,0.701 -0.517,1.848 -0.702,2.549 -0.185,0.701 -0.821,2.598 -1.413,4.215 -0.592,1.618 -1.167,3.429 -1.277,4.025 -0.111,0.595 -0.357,1.179 -0.548,1.297 -0.191,0.118 -0.347,0.589 -0.347,1.046 0,1.021 -0.543,2.763 -2.021,6.487 -1.02,2.568 -1.464,3.859 -2.663,7.734 -0.2,0.647 -0.484,2.058 -0.631,3.137 -0.147,1.078 -1.041,3.545 -1.986,5.483 -0.945,1.937 -1.718,3.755 -1.718,4.041 0,0.285 -0.508,1.524 -1.129,2.752 -1.51,2.991 -1.831,3.787 -2.631,6.547 -0.376,1.294 -1.175,3.324 -1.777,4.51 -1.684,3.321 -3.091,6.628 -3.091,7.267 0,0.317 -0.153,0.576 -0.341,0.576 -0.188,0 -1.026,0.706 -1.863,1.569 -1.693,1.745 -2.35,1.871 -4.69,0.904 -1.329,-0.55 -1.69,-0.941 -2.084,-2.255 -0.557,-1.86 -1.396,-3.648 -2.86,-6.1 -0.579,-0.971 -1.338,-2.647 -1.686,-3.726 -0.725,-2.246 -0.863,-2.584 -2.516,-6.151 -0.668,-1.443 -1.215,-2.828 -1.215,-3.078 0,-0.25 -0.781,-2.07 -1.736,-4.044 -0.955,-1.974 -1.854,-4.295 -1.998,-5.158 -0.38,-2.28 -0.81,-3.643 -3.648,-11.569 -0.425,-1.186 -1.602,-4.803 -2.616,-8.039 -1.014,-3.235 -1.935,-6.147 -2.047,-6.47 -1.741,-5.063 -3.222,-13.882 -3.237,-19.282 -0.015,-5.567 0.624,-8.652 2.666,-12.875 0.47,-0.971 0.853,-1.889 0.853,-2.04 -0.003,-0.542 3.699,-5.623 4.656,-6.392 0.537,-0.431 1.625,-1.356 2.418,-2.054 1.197,-1.055 5.405,-3.367 8.807,-4.84 1.618,-0.7 11.267,-0.943 15.545,-0.391 M 91.765,89.044 c -1.618,0.164 -4,0.482 -5.294,0.708 -1.295,0.225 -3.059,0.52 -3.922,0.655 -0.863,0.136 -2.01,0.39 -2.549,0.566 -0.539,0.175 -2.039,0.618 -3.333,0.984 -1.294,0.366 -3.059,0.975 -3.922,1.353 -0.863,0.378 -2.142,0.934 -2.843,1.235 -0.701,0.302 -1.275,0.668 -1.275,0.814 0,0.146 -0.529,0.381 -1.176,0.523 -0.647,0.142 -1.176,0.378 -1.176,0.524 0,0.146 -0.574,0.511 -1.275,0.811 -2.728,1.169 -6.439,4.024 -12.997,9.998 -5.681,5.176 -10.582,10.819 -12.294,14.158 -0.845,1.646 -4.472,7.314 -5.191,8.111 -0.328,0.364 -1.02,1.775 -1.537,3.138 -0.517,1.362 -1.68,4.153 -2.584,6.202 -1.771,4.012 -2.32,5.829 -2.966,9.803 -0.227,1.402 -0.582,3.52 -0.787,4.706 -1.173,6.779 -1.407,23.322 -0.395,28.004 0.191,0.882 0.555,2.839 0.809,4.349 0.84,4.993 1.646,7.727 3.051,10.35 0.763,1.425 2.11,3.945 2.992,5.598 0.883,1.654 2.078,3.595 2.657,4.314 0.579,0.719 1.737,2.23 2.575,3.357 3.116,4.196 7,8.313 13.605,14.42 2.566,2.373 4.983,4.651 5.371,5.062 0.388,0.411 1.408,1.211 2.265,1.779 4.63,3.065 12.316,10.881 14.676,14.924 3.089,5.291 4.188,14.712 2.722,23.334 -1.415,8.326 -1.758,10.497 -2.133,13.529 -1.225,9.889 1.161,16.787 6.926,20.024 2.72,1.528 14.324,1.508 27.843,-0.048 1.941,-0.223 5.294,-0.563 7.451,-0.756 2.157,-0.192 5.863,-0.54 8.235,-0.774 2.373,-0.233 7.314,-0.695 10.981,-1.025 3.666,-0.331 7.901,-0.766 9.411,-0.967 10.995,-1.463 92.099,-1.486 102.549,-0.029 1.402,0.196 4.843,0.634 7.647,0.975 2.804,0.34 6.245,0.804 7.647,1.03 4.906,0.793 11.817,1.57 20.589,2.316 2.804,0.239 6.801,0.627 8.882,0.863 10.854,1.233 19.603,-0.399 21.175,-3.949 0.289,-0.654 0.631,-1.189 0.76,-1.189 1.51,0 1.821,-12.451 0.45,-18.04 -2.915,-11.885 -2.974,-15.467 -0.418,-25.294 1.066,-4.094 4.357,-10.345 6.882,-13.069 0.504,-0.544 1.303,-1.62 1.776,-2.391 0.473,-0.772 1.187,-1.755 1.587,-2.187 0.4,-0.431 1.067,-1.225 1.481,-1.765 2.285,-2.971 3.561,-4.457 5.928,-6.901 7.263,-7.501 13.541,-14.21 14.242,-15.222 0.431,-0.623 1.54,-1.944 2.464,-2.936 0.925,-0.992 2.767,-3.392 4.095,-5.333 1.327,-1.941 2.645,-3.763 2.929,-4.049 0.765,-0.772 2.605,-3.553 3.678,-5.559 0.519,-0.97 1.315,-2.294 1.767,-2.941 0.453,-0.647 1.046,-1.794 1.318,-2.549 0.272,-0.755 0.637,-1.725 0.811,-2.157 0.694,-1.718 2.121,-9.01 2.725,-13.921 0.686,-5.584 0.394,-13.968 -0.8,-22.941 -0.758,-5.703 -2.262,-13.132 -2.773,-13.706 -0.183,-0.205 -0.332,-0.597 -0.332,-0.871 0,-0.274 -0.441,-1.463 -0.98,-2.642 -0.54,-1.178 -0.981,-2.244 -0.981,-2.368 0,-0.408 -3.646,-8.579 -3.947,-8.845 -0.523,-0.462 -2.719,-3.901 -2.719,-4.258 0,-0.215 -0.226,-0.625 -0.503,-0.91 -0.276,-0.285 -0.871,-1.151 -1.321,-1.925 -1.559,-2.676 -8.396,-9.859 -11.706,-12.298 -0.863,-0.635 -1.657,-1.262 -1.764,-1.391 -0.108,-0.13 -0.814,-0.652 -1.569,-1.16 -0.755,-0.509 -1.549,-1.124 -1.765,-1.368 -0.76,-0.861 -2.874,-2.18 -3.492,-2.18 -0.344,0 -0.625,-0.133 -0.625,-0.296 0,-0.163 -0.574,-0.538 -1.275,-0.832 -0.701,-0.295 -1.892,-0.922 -2.647,-1.395 -3.4,-2.128 -10.337,-4.111 -20.196,-5.772 -3.958,-0.667 -22.567,-0.658 -28.431,0.013 -4.87,0.558 -9.004,1.155 -11.177,1.616 -0.863,0.183 -2.98,0.628 -4.706,0.99 -4.783,1.003 -11.082,3.402 -15.98,6.084 -1.99,1.09 -2.468,1.377 -2.647,1.585 -0.108,0.126 -1.343,0.895 -2.745,1.71 -1.402,0.815 -2.638,1.612 -2.745,1.772 -0.108,0.16 -0.814,0.586 -1.569,0.947 -0.755,0.36 -2.017,1.225 -2.803,1.921 -0.787,0.696 -1.901,1.607 -2.476,2.025 -0.575,0.418 -1.414,1.079 -1.865,1.47 -0.45,0.391 -0.962,0.711 -1.136,0.711 -0.346,0 -4.697,4.476 -6.48,6.667 -0.615,0.755 -1.312,1.549 -1.549,1.764 -0.238,0.216 -0.852,1.01 -1.365,1.765 -0.513,0.755 -1.265,1.726 -1.671,2.157 -1.605,1.703 -5.999,9.661 -9.529,17.255 -1.225,2.636 -3.633,6.597 -4.133,6.797 -0.179,0.072 -0.326,0.305 -0.326,0.518 0,0.442 -1.911,3.278 -2.998,4.45 -1.769,1.906 -7.994,2.838 -9.954,1.49 -1.717,-1.18 -5.012,-4.476 -6.143,-6.144 -0.605,-0.891 -1.199,-1.709 -1.322,-1.817 -0.3,-0.265 -5.074,-8.223 -5.074,-8.458 0,-0.799 -3.362,-6.957 -4.48,-8.204 -0.771,-0.861 -1.402,-1.672 -1.402,-1.802 0,-0.131 -0.441,-0.75 -0.98,-1.377 -0.539,-0.627 -0.98,-1.345 -0.98,-1.597 -0.001,-0.252 -0.136,-0.516 -0.302,-0.588 -0.166,-0.072 -1.446,-1.613 -2.843,-3.425 -3.046,-3.946 -6.31,-7.645 -8.167,-9.255 -0.747,-0.647 -1.843,-1.617 -2.436,-2.157 -0.592,-0.539 -1.565,-1.333 -2.161,-1.764 -0.596,-0.432 -1.275,-0.973 -1.509,-1.203 -0.234,-0.23 -0.955,-0.755 -1.602,-1.166 -1.187,-0.755 -6.891,-4.906 -7.255,-5.28 -0.354,-0.363 -8.387,-4.377 -10.392,-5.193 -2.164,-0.879 -5.328,-1.766 -8.04,-2.253 -0.97,-0.174 -2.823,-0.523 -4.117,-0.774 -8.564,-1.666 -22.038,-2.365 -30,-1.558 m 21.176,2.74 c 14.059,1.419 15.852,1.803 21.821,4.669 2.342,1.124 4.699,2.243 5.238,2.486 1.093,0.492 4.489,2.83 5.662,3.898 0.418,0.381 0.876,0.692 1.018,0.692 0.141,0 0.77,0.442 1.396,0.981 0.627,0.54 1.669,1.239 2.316,1.553 0.647,0.314 1.651,0.988 2.232,1.496 0.58,0.508 1.544,1.265 2.141,1.682 1.801,1.258 9.941,9.779 9.941,10.406 0,0.385 0.762,1.374 2.646,3.435 0.701,0.767 1.38,1.729 1.511,2.139 0.13,0.41 0.475,1.035 0.768,1.39 0.293,0.354 1.067,1.35 1.72,2.213 0.654,0.862 1.343,1.756 1.532,1.985 0.19,0.229 0.568,0.836 0.842,1.348 0.275,0.512 0.835,1.291 1.245,1.732 0.411,0.441 0.853,1.246 0.984,1.789 1.082,4.507 8.123,14.91 12.085,17.857 0.863,0.641 1.657,1.256 1.765,1.365 1.108,1.12 7.449,1.74 8.039,0.786 0.133,-0.215 0.696,-0.392 1.251,-0.392 0.948,0 6.396,-5.031 6.396,-5.907 0,-0.171 0.221,-0.545 0.49,-0.83 0.528,-0.558 3.04,-4.575 3.04,-4.861 0,-0.232 4.112,-8.728 4.826,-9.971 0.31,-0.539 1.105,-2.134 1.766,-3.544 0.661,-1.41 1.571,-2.898 2.023,-3.307 0.452,-0.409 1.207,-1.373 1.679,-2.142 2.967,-4.84 10.316,-12.988 12.991,-14.403 0.62,-0.328 1.736,-1.154 2.479,-1.835 1.27,-1.165 2.049,-1.666 6.372,-4.096 3.465,-1.948 5.711,-3.317 5.903,-3.599 0.309,-0.455 3.569,-2.133 5.294,-2.726 0.863,-0.297 2.716,-1.092 4.118,-1.768 11.223,-5.406 47.657,-6.701 63.137,-2.243 0.755,0.217 1.814,0.524 2.353,0.681 0.539,0.157 1.068,0.404 1.176,0.547 0.201,0.268 1.185,0.801 5.294,2.868 3.516,1.769 10.749,7.067 14.425,10.567 1.076,1.025 2.185,1.863 2.465,1.863 0.28,0 0.62,0.35 0.755,0.778 0.136,0.428 1.03,1.561 1.988,2.518 0.957,0.957 1.74,1.855 1.74,1.995 0,0.14 0.491,0.992 1.09,1.893 0.6,0.902 1.35,2.169 1.666,2.816 0.317,0.647 0.683,1.265 0.813,1.373 0.13,0.108 0.56,0.902 0.955,1.764 0.395,0.863 1.226,2.323 1.847,3.245 0.968,1.436 2.762,5.728 3.806,9.108 0.166,0.54 0.655,1.863 1.086,2.942 1.196,2.995 1.566,4.429 2.022,7.843 2.024,15.143 1.641,30.486 -1.009,40.392 -0.421,1.572 -4.767,9.648 -5.593,10.392 -0.851,0.767 -5.595,7.642 -6.495,9.412 -0.383,0.755 -1.036,1.611 -1.449,1.903 -0.414,0.292 -1.138,0.967 -1.609,1.5 -0.47,0.532 -1.473,1.652 -2.228,2.488 -0.755,0.835 -2.343,2.604 -3.53,3.93 -1.186,1.325 -3.215,3.514 -4.509,4.863 -4.14,4.315 -9.53,10.175 -10.662,11.59 -0.604,0.755 -1.32,1.607 -1.592,1.892 -0.272,0.286 -1.059,1.345 -1.749,2.353 -0.69,1.009 -1.439,2.035 -1.665,2.281 -0.226,0.245 -0.764,0.936 -1.195,1.535 -0.431,0.599 -0.961,1.287 -1.177,1.529 -1.283,1.442 -3.706,6.292 -5.12,10.25 -2.102,5.883 -2.527,8.25 -2.527,14.101 0,5.298 0.201,6.71 1.672,11.746 3.667,12.557 1.627,21.169 -5.397,22.776 -4.243,0.97 -22.551,0.161 -29.804,-1.317 -6.3,-1.285 -11.295,-2.014 -19.412,-2.833 -2.264,-0.229 -5.176,-0.592 -6.47,-0.806 -6.439,-1.067 -13.171,-1.267 -48.432,-1.442 -36.142,-0.179 -50.409,0.097 -57.843,1.116 -3.343,0.459 -9.413,0.998 -17.255,1.532 -10.842,0.739 -16.695,1.475 -21.764,2.739 -2.728,0.68 -12.3,1.249 -16.724,0.994 -4.234,-0.245 -5.495,-0.666 -8.169,-2.732 -2.474,-1.911 -2.522,-1.974 -4.17,-5.465 -0.658,-1.393 -0.697,-11.652 -0.056,-14.562 0.237,-1.079 0.621,-3.02 0.852,-4.314 0.231,-1.294 0.701,-3.765 1.045,-5.49 1.347,-6.764 1.187,-12.56 -0.525,-19.02 -0.674,-2.541 -2.882,-6.846 -4.729,-9.216 -3.289,-4.22 -9.103,-9.671 -12.643,-11.854 -0.766,-0.472 -2.179,-1.704 -3.139,-2.737 -0.96,-1.034 -2.672,-2.673 -3.803,-3.644 -4.418,-3.791 -12.923,-12.518 -14.121,-14.489 -0.335,-0.551 -1.287,-2 -2.115,-3.22 -0.829,-1.221 -1.507,-2.331 -1.507,-2.468 0,-0.136 -0.359,-0.633 -0.798,-1.104 -0.438,-0.471 -1.704,-2.713 -2.813,-4.983 -1.108,-2.271 -2.134,-4.216 -2.279,-4.324 -0.145,-0.108 -0.395,-0.902 -0.555,-1.765 -0.16,-0.863 -0.444,-2.363 -0.632,-3.333 -2.726,-14.067 -1.621,-37.256 2.158,-45.294 0.71,-1.51 1.512,-3.451 1.782,-4.314 0.654,-2.09 2.116,-5.009 3.83,-7.647 2.35,-3.615 2.63,-4.075 3.23,-5.294 1.098,-2.231 3.077,-5.101 4.282,-6.211 0.665,-0.612 1.314,-1.532 1.443,-2.045 0.128,-0.512 0.525,-1.031 0.881,-1.151 0.356,-0.121 1.088,-0.765 1.627,-1.43 1.128,-1.393 2.075,-2.381 3.958,-4.13 0.735,-0.683 1.536,-1.477 1.779,-1.765 0.243,-0.288 0.936,-0.876 1.541,-1.307 0.604,-0.432 1.478,-1.159 1.941,-1.617 0.463,-0.458 1.243,-1.047 1.733,-1.309 0.49,-0.263 2.33,-1.492 4.088,-2.732 1.757,-1.24 3.813,-2.494 4.568,-2.786 0.755,-0.292 1.461,-0.639 1.569,-0.77 0.108,-0.132 0.902,-0.565 1.765,-0.963 0.862,-0.398 1.656,-0.83 1.764,-0.96 0.825,-0.993 5.678,-2.181 12.121,-2.967 2.675,-0.327 4.955,-0.684 5.065,-0.794 0.375,-0.375 18.289,-0.206 22.422,0.211 m 144.884,84.448 c -3.766,0.744 -6.162,2.53 -8.694,6.479 -0.748,1.168 -1.584,2.347 -1.857,2.62 -0.274,0.274 -1.068,1.966 -1.766,3.76 -0.698,1.794 -1.418,3.615 -1.599,4.046 -0.182,0.432 -0.785,2.196 -1.34,3.922 -0.555,1.725 -1.655,4.461 -2.445,6.078 -0.789,1.618 -1.581,3.248 -1.76,3.622 -0.179,0.375 -0.325,1.026 -0.325,1.448 0,0.421 -0.176,0.875 -0.392,1.009 -0.216,0.133 -0.392,0.506 -0.392,0.829 0,0.323 -0.783,2.21 -1.739,4.193 -3.497,7.248 -4.237,10.656 -4.263,19.637 -0.027,9.349 0.343,10.938 3.214,13.813 1.343,1.346 6.317,2.085 6.317,0.939 0,-0.215 0.232,-0.392 0.514,-0.392 2.084,0 4.497,-4.626 5.012,-9.608 0.679,-6.578 1.425,-10.128 2.331,-11.1 0.373,-0.4 1.408,-2.058 2.3,-3.683 0.892,-1.626 1.987,-3.376 2.433,-3.89 0.446,-0.514 1.281,-1.528 1.856,-2.253 1.575,-1.988 2.285,-2.795 4.539,-5.152 1.135,-1.186 2.729,-3.163 3.543,-4.394 0.814,-1.23 2.18,-2.994 3.035,-3.92 7.204,-7.804 6.511,-20.156 -1.471,-26.196 -0.983,-0.744 -4.082,-2.365 -4.423,-2.314 -0.141,0.021 -1.324,0.249 -2.628,0.507 m -131.742,0.752 c -2.229,1.336 -4.875,4.632 -5.903,7.352 -0.362,0.958 -0.912,2.316 -1.222,3.017 -1.368,3.095 -1.083,6.524 0.911,10.955 0.503,1.119 0.919,2.266 0.924,2.549 0.005,0.284 0.354,0.957 0.776,1.496 0.421,0.539 0.77,1.201 0.775,1.471 0.005,0.269 0.153,0.49 0.329,0.49 0.176,0 0.694,0.661 1.151,1.47 0.457,0.809 1.449,2.143 2.205,2.965 0.756,0.822 1.694,1.992 2.085,2.601 0.39,0.608 1.554,2.029 2.585,3.158 1.032,1.128 2.159,2.605 2.506,3.282 0.346,0.676 0.748,1.318 0.893,1.426 0.145,0.108 1.508,2.137 3.031,4.509 3.042,4.743 3.281,5.525 4.075,13.334 0.727,7.156 1.38,8.837 4.108,10.583 3.171,2.028 6.132,2.07 8.048,0.114 3.337,-3.408 5.127,-15.025 3.321,-21.56 -2.691,-9.737 -3.653,-12.52 -4.51,-13.05 -0.483,-0.299 -2.23,-4.001 -2.686,-5.695 -0.501,-1.86 -3.362,-9.064 -4.75,-11.961 -1.271,-2.651 -1.817,-4.337 -2.194,-6.768 -1.273,-8.227 -10.882,-15.08 -16.458,-11.738 m 11.032,4.881 c 1.127,0.973 2.255,2.319 2.507,2.991 0.251,0.673 0.604,1.575 0.783,2.007 0.332,0.799 1.222,4.16 2.128,8.039 0.277,1.186 1.232,3.676 2.123,5.533 0.89,1.856 1.619,3.655 1.619,3.996 0,0.341 0.176,0.73 0.392,0.863 0.215,0.133 0.392,0.492 0.392,0.798 0,0.489 0.588,1.885 3.053,7.241 0.347,0.755 0.755,1.461 0.907,1.569 3.192,2.272 5.282,21.193 3.089,27.979 -1.228,3.801 -1.825,4.333 -4.493,4 -4.25,-0.531 -6.319,-3.733 -6.896,-10.677 -0.576,-6.935 -2.275,-12.158 -4.975,-15.3 -0.507,-0.59 -1.306,-1.697 -1.776,-2.459 -0.911,-1.477 -1.399,-2.107 -3.154,-4.069 -0.609,-0.682 -2.306,-2.827 -3.771,-4.768 -1.465,-1.941 -3.002,-3.909 -3.415,-4.373 -6.347,-7.131 -6.72,-18.445 -0.808,-24.526 1.725,-1.773 2.195,-1.982 5.376,-2.387 1.349,-0.172 4.462,1.422 6.919,3.543 m 125.571,-2.882 c 8.717,5.502 9.259,15.689 1.336,25.135 -0.181,0.215 -0.929,1.267 -1.663,2.338 -0.734,1.07 -1.809,2.442 -2.389,3.049 -0.581,0.607 -2.09,2.28 -3.356,3.717 -1.265,1.437 -2.767,3.128 -3.337,3.757 -0.57,0.628 -1.628,2.197 -2.353,3.486 -0.724,1.289 -1.689,2.815 -2.145,3.39 -1.933,2.442 -3.034,5.537 -3.511,9.87 -1.03,9.363 -2.713,12.551 -6.932,13.127 -1.996,0.273 -3.071,-0.413 -4.08,-2.603 -2.157,-4.681 -1.79,-18.402 0.634,-23.661 1.498,-3.251 3.03,-7.181 4.05,-10.392 0.24,-0.755 1.106,-2.683 1.924,-4.285 0.819,-1.601 1.489,-3.075 1.489,-3.274 0,-0.199 0.283,-1.006 0.628,-1.793 0.346,-0.788 0.81,-1.873 1.033,-2.413 0.223,-0.539 0.551,-1.333 0.731,-1.764 0.179,-0.432 0.698,-1.922 1.153,-3.311 0.456,-1.39 1.235,-3.257 1.733,-4.149 1.522,-2.725 1.698,-3.081 2.224,-4.501 1.781,-4.805 9.109,-8.073 12.831,-5.723 m -70.529,149.669 c -4.771,0.337 -10.409,0.996 -12.941,1.512 -1.981,0.404 -6.507,0.991 -12.353,1.603 -4.478,0.469 -9.254,0.997 -14.216,1.572 -5.034,0.583 -11.712,1.171 -17.941,1.58 -13.183,0.866 -18.619,1.433 -33.922,3.543 -1.402,0.193 -4.313,0.526 -6.47,0.739 -15.406,1.521 -16.805,1.752 -19.073,3.147 -1.055,0.65 -2.093,1.181 -2.306,1.181 -0.212,0 -0.386,0.134 -0.386,0.297 0,0.163 -0.485,0.516 -1.078,0.785 -0.594,0.269 -1.696,1.037 -2.451,1.708 -0.755,0.67 -1.814,1.596 -2.354,2.058 -3.26,2.788 -8.388,12.622 -9.435,18.094 -0.248,1.294 -0.606,3.147 -0.795,4.117 -0.19,0.971 -0.532,3.265 -0.761,5.098 -0.38,3.037 -0.559,4.778 -1.401,13.628 l -0.27,2.843 h 1.188 c 1.387,0 1.355,0.183 2.089,-11.765 0.233,-3.774 0.585,-7.48 0.784,-8.235 0.199,-0.755 0.363,-1.86 0.364,-2.456 10e-4,-0.597 0.162,-1.391 0.358,-1.765 0.714,-1.37 2.389,-5.496 2.389,-5.886 0,-0.349 1.266,-2.913 2.658,-5.383 0.243,-0.432 0.733,-1.442 1.089,-2.246 2.116,-4.775 10.425,-10.303 17.794,-11.84 3.457,-0.721 8.618,-1.265 17.087,-1.802 3.451,-0.219 7.333,-0.565 8.627,-0.77 1.294,-0.205 3.589,-0.562 5.098,-0.793 1.51,-0.232 3.804,-0.586 5.098,-0.787 2.291,-0.357 6.99,-0.758 18.628,-1.588 3.127,-0.224 7.363,-0.584 9.412,-0.802 2.049,-0.217 5.225,-0.554 7.058,-0.749 1.834,-0.195 5.099,-0.541 7.255,-0.77 2.157,-0.228 6.304,-0.59 9.216,-0.803 5.588,-0.41 9.645,-0.867 13.529,-1.525 7.221,-1.223 9.181,-1.407 14.902,-1.405 3.451,0.002 7.863,0.235 9.804,0.519 5.201,0.761 9.531,1.212 15.687,1.634 5.222,0.358 11.225,1.035 17.255,1.947 4.805,0.727 11.51,1.18 20.588,1.393 8.233,0.192 14.713,0.582 22.745,1.368 4.028,0.394 8.952,1.196 16.667,2.714 1.078,0.213 2.931,0.488 4.117,0.613 11.34,1.191 19.05,6.316 22.134,14.711 0.594,1.618 1.416,3.69 1.826,4.604 0.41,0.914 0.746,1.982 0.746,2.372 0,0.391 0.157,0.878 0.349,1.083 0.191,0.205 0.552,1.431 0.801,2.726 0.25,1.294 0.619,3.147 0.822,4.117 1.119,5.367 1.557,9.686 1.557,15.358 v 6.211 h 1.041 1.04 l -0.27,-8.53 c -0.149,-4.691 -0.443,-9.676 -0.654,-11.078 -0.212,-1.402 -0.569,-3.784 -0.794,-5.294 -0.225,-1.51 -0.558,-3.098 -0.74,-3.53 -0.182,-0.431 -0.726,-1.843 -1.21,-3.137 -2.896,-7.741 -5.443,-12.177 -8.529,-14.853 -0.28,-0.242 -0.934,-0.838 -1.452,-1.322 -2.54,-2.375 -5.545,-3.523 -13.137,-5.021 -1.834,-0.362 -4.04,-0.814 -4.902,-1.006 -5.194,-1.156 -12.692,-2.189 -22.549,-3.106 -2.481,-0.231 -6.022,-0.587 -7.87,-0.791 -1.848,-0.204 -6.789,-0.383 -10.98,-0.396 -10.313,-0.034 -15.191,-0.423 -24.288,-1.933 -1.402,-0.233 -3.607,-0.597 -4.902,-0.811 -5.16,-0.85 -15.026,-1.779 -28.823,-2.716 -5.883,-0.399 -6.656,-0.398 -12.549,0.019"
     stroke="none"
     fill="#585858"
     fill-rule="evenodd" />
  <path
     id="path2"
     d="m 0,196.078 v 196.079 h 24.902 24.902 l -0.003,-2.059 c -0.001,-1.132 0.17,-3.382 0.381,-5 0.21,-1.618 0.571,-4.794 0.802,-7.059 0.695,-6.828 2.612,-14.503 3.624,-14.508 0.162,-0.001 0.294,-0.38 0.294,-0.842 0,-2.271 3.113,-10.532 3.968,-10.532 0.19,0 0.346,-0.182 0.346,-0.405 0,-1.595 4.357,-6.763 7.922,-9.396 1.143,-0.844 2.254,-1.684 2.47,-1.866 0.498,-0.42 3.558,-1.67 5.098,-2.082 10.558,-2.824 13.149,-3.248 27.451,-4.5 3.667,-0.32 8.255,-0.761 10.196,-0.978 4.144,-0.463 10.837,-1.039 18.235,-1.568 13.495,-0.966 23.9,-1.891 24.343,-2.164 0.261,-0.162 2.691,-0.566 8.206,-1.368 2.751,-0.399 8.384,-0.915 19.216,-1.759 3.774,-0.294 8.539,-0.821 10.588,-1.172 3.828,-0.655 7.897,-0.59 12.745,0.203 3.547,0.581 11.584,1.133 16.788,1.154 7.223,0.029 14.09,0.877 20.898,2.58 3.129,0.783 5.248,0.946 17.255,1.331 7.527,0.242 15.363,0.614 17.412,0.827 2.049,0.214 5.49,0.567 7.647,0.786 7.87,0.798 11.414,1.213 13.334,1.563 1.078,0.197 3.107,0.466 4.509,0.599 1.402,0.133 3.079,0.383 3.726,0.556 0.647,0.173 2.235,0.543 3.529,0.823 1.294,0.28 3.147,0.847 4.118,1.26 0.971,0.413 2.765,1.074 3.988,1.47 3.733,1.208 4.833,1.923 8.496,5.517 0.791,0.776 1.765,1.814 2.165,2.308 1.38,1.699 5.741,10.869 6.177,12.984 0.818,3.974 1.118,5.649 1.362,7.611 0.134,1.078 0.574,2.931 0.978,4.117 1.069,3.136 1.925,10.404 1.929,16.373 l 0.003,5.196 h 30 30 V 196.078 0 H 200 0 V 196.078 M 205.098,7.048 c 0.755,0.238 1.99,0.624 2.745,0.858 2.021,0.625 9.002,4.488 10.588,5.859 2.73,2.357 4.133,3.734 4.902,4.81 0.432,0.603 1.116,1.479 1.522,1.947 1.088,1.257 2.987,5.408 2.989,6.537 0.001,0.539 0.318,1.51 0.703,2.157 0.386,0.647 0.935,1.97 1.221,2.941 0.286,0.97 0.675,2.276 0.866,2.902 0.525,1.721 0.414,7.928 -0.197,11.019 -0.572,2.9 -0.761,3.529 -1.685,5.612 -0.317,0.715 -0.746,2.479 -0.955,3.922 -0.514,3.566 -1.921,9.11 -2.561,10.099 -0.532,0.821 -1.308,3.077 -2.891,8.407 -1.97,6.629 -3.662,11.312 -4.927,13.641 -0.737,1.355 -1.34,2.754 -1.34,3.109 0,0.355 -0.171,1.187 -0.38,1.849 -0.209,0.663 -0.748,2.44 -1.197,3.95 -0.449,1.509 -1.16,3.492 -1.58,4.406 -0.42,0.914 -1.221,2.855 -1.78,4.314 -0.559,1.459 -1.166,3.005 -1.348,3.437 -0.183,0.431 -0.456,1.225 -0.607,1.764 -0.151,0.539 -0.672,1.863 -1.157,2.941 -0.485,1.079 -1.277,2.844 -1.76,3.922 -0.483,1.078 -1.187,2.402 -1.566,2.941 -0.379,0.539 -0.969,1.81 -1.312,2.823 -2.18,6.446 -4.562,8.428 -9.469,7.877 -2.576,-0.288 -2.746,-0.456 -4.897,-4.816 -1.011,-2.05 -2.396,-4.76 -3.078,-6.022 -0.683,-1.262 -1.241,-2.448 -1.241,-2.635 0,-0.188 -0.441,-1.305 -0.981,-2.484 -0.539,-1.179 -0.98,-2.334 -0.98,-2.566 0,-0.233 -0.156,-0.729 -0.346,-1.104 -0.191,-0.374 -0.53,-1.122 -0.753,-1.661 -0.224,-0.539 -1.011,-2.304 -1.75,-3.922 -1.81,-3.965 -2.057,-4.702 -3.471,-10.392 -0.268,-1.078 -1.061,-3.019 -1.761,-4.314 -1.079,-1.994 -3.801,-9.835 -6.329,-18.235 -0.357,-1.186 -0.868,-2.51 -1.134,-2.941 -1.039,-1.68 -2.326,-6.763 -2.731,-10.784 -0.141,-1.402 -0.745,-4.073 -1.342,-5.936 -2.356,-7.354 -2.406,-15.909 -0.122,-20.995 0.501,-1.116 1.109,-2.952 1.351,-4.081 0.601,-2.8 1.255,-4.261 2.842,-6.339 0.741,-0.972 1.531,-2.108 1.754,-2.525 0.431,-0.804 3.561,-3.942 5.102,-5.113 0.504,-0.384 1.387,-1.073 1.961,-1.532 2.049,-1.639 7.974,-4.739 10.199,-5.336 4.038,-1.085 15.817,-1.279 18.883,-0.311 m -89.595,78.055 c 1.503,0.247 3.615,0.718 4.693,1.047 2.768,0.845 4.167,1.186 8.628,2.107 4.809,0.993 5.996,1.354 9.127,2.78 1.353,0.616 2.593,1.12 2.756,1.12 0.162,0 1.218,0.694 2.347,1.542 1.128,0.848 2.977,1.98 4.107,2.515 1.13,0.536 2.496,1.447 3.035,2.026 0.539,0.579 1.624,1.382 2.41,1.785 0.786,0.404 1.669,0.966 1.961,1.251 0.292,0.284 1.214,1.033 2.048,1.663 4.538,3.429 13.018,12.609 17.203,18.624 1.728,2.484 3.296,4.574 3.485,4.646 0.189,0.072 0.344,0.381 0.344,0.686 0,0.306 0.148,0.556 0.329,0.556 0.18,0 0.654,0.959 1.052,2.131 0.399,1.171 1.221,2.662 1.829,3.312 0.607,0.649 1.104,1.284 1.104,1.409 0,0.125 0.935,1.779 2.078,3.675 1.143,1.897 2.378,4.08 2.745,4.852 0.366,0.773 1.24,2.013 1.941,2.757 0.701,0.744 1.691,1.82 2.199,2.392 1.804,2.033 9.435,0.588 9.477,-1.794 0.005,-0.274 0.354,-0.94 0.775,-1.479 0.422,-0.539 0.771,-1.263 0.776,-1.608 0.005,-0.345 0.524,-1.339 1.155,-2.209 0.63,-0.871 1.527,-2.529 1.994,-3.687 1.989,-4.936 4.747,-9.952 6.022,-10.956 0.531,-0.417 1.366,-1.596 1.856,-2.62 2.404,-5.022 8.322,-11.964 13.396,-15.712 1.208,-0.892 2.429,-1.935 2.715,-2.317 0.285,-0.382 1.4,-1.395 2.479,-2.25 1.078,-0.856 2.049,-1.67 2.156,-1.81 0.108,-0.141 0.902,-0.615 1.765,-1.054 0.863,-0.44 2.066,-1.23 2.674,-1.755 1.199,-1.037 4.729,-3.042 5.355,-3.042 0.212,0 1.266,-0.661 2.34,-1.47 1.075,-0.809 2.799,-1.798 3.832,-2.199 1.033,-0.4 2.493,-1.001 3.244,-1.336 1.593,-0.71 3.088,-1.117 6.869,-1.873 3.666,-0.733 9.044,-1.977 10.98,-2.54 6.181,-1.798 30.85,-2.567 37.843,-1.18 2.623,0.52 5.157,1.232 5.687,1.599 0.215,0.149 1.362,0.492 2.549,0.762 1.186,0.27 2.598,0.635 3.137,0.81 0.539,0.176 1.598,0.435 2.353,0.576 1.76,0.328 4.561,1.251 5.854,1.927 0.555,0.29 1.836,0.937 2.847,1.438 1.012,0.501 2.482,1.466 3.267,2.145 0.786,0.678 2.164,1.604 3.063,2.058 0.9,0.453 2.077,1.227 2.616,1.72 0.539,0.493 1.686,1.42 2.549,2.059 0.863,0.639 2.67,2.316 4.015,3.726 1.346,1.409 2.786,2.916 3.2,3.347 0.414,0.431 1.268,1.225 1.898,1.765 0.63,0.539 1.48,1.509 1.889,2.156 0.41,0.648 0.861,1.265 1.002,1.373 0.274,0.208 1.647,2.55 2.645,4.51 0.329,0.647 0.785,1.377 1.014,1.623 1.508,1.62 2.964,4.224 2.964,5.3 0,0.292 0.6,1.373 1.332,2.403 0.733,1.031 1.72,2.883 2.195,4.117 0.475,1.234 1.005,2.596 1.178,3.027 0.601,1.499 1.105,3.149 1.56,5.098 0.251,1.079 0.623,2.667 0.827,3.53 0.203,0.863 0.551,2.804 0.773,4.314 0.221,1.509 0.555,3.539 0.742,4.509 1.357,7.06 1.576,9.275 1.583,15.951 0.003,3.92 -0.181,8.067 -0.411,9.216 -0.403,2.015 -0.546,2.599 -1.47,6.01 -0.233,0.863 -0.719,2.98 -1.08,4.706 -0.751,3.593 -3.551,9.737 -5.63,12.353 -0.771,0.97 -1.721,2.393 -2.111,3.162 -0.39,0.768 -1.449,2.194 -2.353,3.167 -0.904,0.973 -1.909,2.286 -2.232,2.916 -0.323,0.631 -0.677,1.235 -0.786,1.343 -0.11,0.108 -0.72,0.902 -1.357,1.765 -0.636,0.862 -1.881,2.274 -2.767,3.137 -0.885,0.863 -2.036,2.186 -2.557,2.941 -0.522,0.755 -1.305,1.736 -1.741,2.18 -0.436,0.444 -1.402,1.591 -2.147,2.549 -0.745,0.958 -2.378,2.624 -3.629,3.702 -3.875,3.341 -7.888,7.811 -10.658,11.871 -0.623,0.912 -1.246,1.659 -1.386,1.659 -0.14,0 -0.584,0.573 -0.987,1.274 -0.403,0.701 -1.39,1.893 -2.194,2.647 -0.804,0.755 -1.593,1.801 -1.754,2.325 -0.16,0.523 -0.925,1.637 -1.7,2.474 -2.278,2.462 -3.414,5.634 -4.599,12.848 -0.886,5.385 -0.762,7.629 0.886,16.079 1.138,5.834 1.325,7.335 1.551,12.469 0.361,8.18 -1.412,12.927 -5.653,15.135 -0.589,0.306 -1.564,0.983 -2.166,1.503 -2.568,2.218 -8.586,3.109 -15.572,2.305 -11.154,-1.284 -10.823,-1.231 -17.451,-2.783 -1.726,-0.404 -5.343,-0.838 -8.039,-0.965 -6.166,-0.291 -12.61,-0.8 -20.393,-1.61 -17.417,-1.814 -87.931,-1.816 -108.627,-0.003 -3.775,0.33 -10.657,0.79 -15.294,1.021 -13.356,0.666 -18.887,1.073 -20.784,1.528 -11.452,2.75 -23.995,2.764 -25.686,0.029 -0.134,-0.218 -1.019,-0.749 -1.966,-1.18 -4.226,-1.925 -6.638,-6.181 -7.723,-13.623 -0.464,-3.186 -0.344,-4.588 1.48,-17.356 0.293,-2.049 0.722,-5.578 0.953,-7.843 0.232,-2.264 0.493,-4.326 0.58,-4.581 0.963,-2.8 -1.559,-12.68 -3.9,-15.28 -0.223,-0.248 -1.007,-1.218 -1.743,-2.157 -0.736,-0.939 -2.293,-2.501 -3.461,-3.472 -1.168,-0.97 -3.566,-3.142 -5.329,-4.826 -1.763,-1.684 -3.823,-3.534 -4.578,-4.11 -2.05,-1.567 -10.588,-9.196 -10.588,-9.462 0,-0.126 -1.437,-1.73 -3.192,-3.563 -1.756,-1.833 -3.912,-4.304 -4.792,-5.49 -0.879,-1.186 -2.046,-2.705 -2.592,-3.375 -0.546,-0.67 -1.262,-1.553 -1.591,-1.961 -0.329,-0.408 -0.837,-1.318 -1.128,-2.022 -0.292,-0.703 -1.125,-1.929 -1.853,-2.723 -0.728,-0.795 -1.323,-1.613 -1.323,-1.819 0,-0.206 -0.46,-1.363 -1.021,-2.571 -2.18,-4.684 -2.039,-4.174 -4.537,-16.509 -2.188,-10.809 -1.911,-18.311 1.218,-32.941 0.208,-0.971 0.486,-2.559 0.618,-3.53 0.132,-0.97 0.382,-2.206 0.554,-2.745 0.173,-0.539 0.526,-1.686 0.786,-2.549 0.26,-0.863 0.662,-2.01 0.892,-2.549 0.23,-0.539 0.56,-1.333 0.732,-1.765 0.754,-1.889 1.717,-3.937 1.935,-4.117 0.452,-0.374 1.872,-2.946 2.165,-3.922 0.298,-0.99 2.194,-3.953 3.309,-5.169 0.332,-0.363 0.951,-1.334 1.376,-2.157 1.396,-2.711 3.857,-6.174 5.675,-7.987 0.984,-0.981 2.128,-2.268 2.543,-2.861 0.416,-0.593 1.254,-1.373 1.863,-1.733 0.609,-0.36 1.108,-0.831 1.108,-1.047 0,-0.482 6.214,-6.497 6.713,-6.497 0.196,0 1.168,-0.787 2.158,-1.75 0.99,-0.962 2.532,-2.109 3.425,-2.549 0.894,-0.439 2.243,-1.347 2.998,-2.017 0.755,-0.671 2.167,-1.57 3.137,-1.999 0.971,-0.429 2.383,-1.09 3.137,-1.467 1.253,-0.627 3.424,-1.318 7.648,-2.435 0.862,-0.228 3.156,-0.906 5.098,-1.508 3.868,-1.198 7.173,-1.885 10.196,-2.119 3.782,-0.293 21.23,0.112 23.934,0.555 m 143.124,97.122 c -2.29,0.286 -2.842,0.52 -4.21,1.788 -1.244,1.153 -3.044,4.188 -3.044,5.131 0,0.203 -0.77,1.979 -1.712,3.946 -0.941,1.967 -2.204,5.165 -2.807,7.106 -1.102,3.55 -1.976,5.779 -3.36,8.567 -0.412,0.829 -0.749,1.724 -0.749,1.989 0,0.266 -0.618,1.351 -1.372,2.413 -0.755,1.062 -1.373,2.183 -1.373,2.492 0,0.309 -0.169,1.104 -0.375,1.766 -0.206,0.663 -0.664,2.171 -1.017,3.353 -0.354,1.182 -0.942,2.594 -1.307,3.138 -2.096,3.124 -2.518,17.59 -0.508,17.419 0.254,-0.021 1.236,-0.065 2.182,-0.098 1.61,-0.055 1.737,-0.14 1.976,-1.333 0.409,-2.037 0.954,-5.714 1.388,-9.363 0.53,-4.455 2.062,-7.612 5.625,-11.595 0.735,-0.821 1.636,-2.135 2.004,-2.921 0.368,-0.785 1.017,-1.755 1.442,-2.156 0.935,-0.881 1.51,-1.519 4.167,-4.617 1.127,-1.313 2.676,-3.118 3.444,-4.012 0.767,-0.893 2.064,-2.658 2.88,-3.922 0.817,-1.264 1.919,-2.765 2.448,-3.336 3.878,-4.185 0.654,-16.641 -4.132,-15.96 -0.227,0.032 -0.942,0.124 -1.59,0.205 m -130.588,0.41 c -0.891,0.217 -2.157,1.241 -2.157,1.744 0,0.184 -0.397,1.172 -0.882,2.194 -2.396,5.046 -0.132,13.235 5.278,19.089 0.386,0.418 0.702,0.978 0.702,1.245 0,0.266 1.244,1.743 2.764,3.281 1.521,1.538 3.404,3.802 4.185,5.03 0.781,1.228 1.707,2.498 2.057,2.821 0.939,0.867 2.244,3.254 2.556,4.676 0.151,0.684 0.945,2.514 1.765,4.068 1.199,2.27 1.655,3.786 2.322,7.72 0.914,5.39 1.322,6.123 3.707,6.661 1.904,0.429 1.997,0.042 2.008,-8.419 l 0.009,-6.667 -1.244,-2.549 c -1.831,-3.749 -3.266,-7.029 -3.266,-7.462 0,-0.209 -0.133,-0.381 -0.296,-0.381 -0.365,0 -0.971,-1.378 -2.068,-4.706 -0.463,-1.402 -1.632,-4.151 -2.598,-6.11 -1.705,-3.455 -2.134,-4.694 -2.908,-8.399 -0.469,-2.245 -1.382,-4.59 -3.788,-9.735 -1.66,-3.548 -4.515,-4.985 -8.146,-4.101"
     stroke="none"
     fill="#f0f0f0"
     fill-rule="evenodd"
     style="fill:none" />
  <path
     id="path3"
     d="m 189.804,6.654 c -4.495,0.667 -10.186,3.16 -13.788,6.041 -0.574,0.459 -1.457,1.148 -1.961,1.532 -1.541,1.171 -4.671,4.309 -5.102,5.113 -0.223,0.417 -1.013,1.553 -1.754,2.525 -1.587,2.078 -2.241,3.539 -2.842,6.339 -0.242,1.129 -0.85,2.965 -1.351,4.081 -2.284,5.086 -2.234,13.641 0.122,20.995 0.597,1.863 1.201,4.534 1.342,5.936 0.405,4.021 1.692,9.104 2.731,10.784 0.266,0.431 0.777,1.755 1.134,2.941 2.528,8.4 5.25,16.241 6.329,18.235 0.7,1.295 1.493,3.236 1.761,4.314 1.414,5.69 1.661,6.427 3.471,10.392 0.739,1.618 1.526,3.383 1.75,3.922 0.223,0.539 0.562,1.287 0.753,1.661 0.19,0.375 0.346,0.871 0.346,1.104 0,0.232 0.441,1.387 0.98,2.566 0.54,1.179 0.981,2.296 0.981,2.484 0,0.187 0.558,1.373 1.241,2.635 0.682,1.262 2.067,3.972 3.078,6.022 2.151,4.36 2.321,4.528 4.897,4.816 4.907,0.551 7.289,-1.431 9.469,-7.877 0.343,-1.013 0.933,-2.284 1.312,-2.823 0.379,-0.539 1.083,-1.863 1.566,-2.941 0.483,-1.078 1.275,-2.843 1.76,-3.922 0.485,-1.078 1.006,-2.402 1.157,-2.941 0.151,-0.539 0.424,-1.333 0.607,-1.764 0.182,-0.432 0.789,-1.978 1.348,-3.437 0.559,-1.459 1.36,-3.4 1.78,-4.314 0.42,-0.914 1.131,-2.897 1.58,-4.406 0.449,-1.51 0.988,-3.287 1.197,-3.95 0.209,-0.662 0.38,-1.494 0.38,-1.849 0,-0.355 0.603,-1.754 1.34,-3.109 1.265,-2.329 2.957,-7.012 4.927,-13.641 1.583,-5.33 2.359,-7.586 2.891,-8.407 0.64,-0.989 2.047,-6.533 2.561,-10.099 0.209,-1.443 0.638,-3.207 0.955,-3.922 0.924,-2.083 1.113,-2.712 1.685,-5.612 0.611,-3.091 0.722,-9.298 0.197,-11.019 -0.191,-0.626 -0.58,-1.932 -0.866,-2.902 -0.286,-0.971 -0.835,-2.294 -1.221,-2.941 -0.385,-0.647 -0.702,-1.618 -0.703,-2.157 -0.002,-1.129 -1.901,-5.28 -2.989,-6.537 -0.406,-0.468 -1.09,-1.344 -1.522,-1.947 -0.769,-1.076 -2.172,-2.453 -4.902,-4.81 -1.586,-1.371 -8.567,-5.234 -10.588,-5.859 -0.755,-0.234 -1.99,-0.62 -2.745,-0.858 C 203.37,6.503 192.68,6.228 189.804,6.654 m 13.529,4.78 c 3.666,0.884 9.225,2.766 9.503,3.216 0.166,0.268 0.919,0.909 1.674,1.423 2.846,1.941 9.067,8.984 9.684,10.963 0.105,0.336 0.332,0.964 0.504,1.395 2.484,6.217 2.393,16.722 -0.239,27.451 -0.589,2.403 -0.66,2.601 -2.036,5.715 -0.436,0.986 -1.092,2.751 -1.459,3.921 -1.751,5.6 -3.973,12.1 -5.284,15.462 -0.42,1.076 -1.737,5.702 -2.568,9.02 -0.378,1.51 -0.836,2.913 -1.017,3.118 -0.182,0.205 -0.33,0.618 -0.33,0.92 0,0.301 -0.323,1.015 -0.718,1.588 -0.601,0.872 -1.877,3.791 -3.197,7.315 -0.162,0.432 -0.48,1.226 -0.708,1.765 -0.228,0.539 -0.733,1.863 -1.123,2.941 -0.39,1.078 -1.462,3.461 -2.383,5.294 -0.92,1.834 -1.674,3.549 -1.674,3.812 -10e-4,0.263 -0.354,1.106 -0.786,1.874 -0.431,0.768 -0.788,1.612 -0.792,1.875 -0.005,0.263 -0.799,1.008 -1.764,1.655 -0.966,0.647 -1.756,1.309 -1.756,1.47 -0.002,0.426 -1.307,0.362 -3.261,-0.161 -1.725,-0.461 -1.932,-0.712 -3.017,-3.662 -0.238,-0.647 -1.025,-2.412 -1.749,-3.922 -1.775,-3.7 -4.131,-8.858 -4.131,-9.043 0,-0.082 -0.441,-1.114 -0.981,-2.292 -0.539,-1.179 -0.98,-2.307 -0.98,-2.507 0,-0.2 -0.706,-1.735 -1.569,-3.413 -0.862,-1.677 -1.568,-3.269 -1.568,-3.538 0,-0.269 -0.291,-1.436 -0.647,-2.593 -1.452,-4.722 -3.318,-10.387 -3.663,-11.123 -0.203,-0.432 -1.24,-3.432 -2.305,-6.667 -1.772,-5.387 -2.727,-8.102 -3.583,-10.196 -4.089,-10.006 -4.633,-28.991 -1.054,-36.808 0.511,-1.116 1.186,-2.29 1.501,-2.61 0.315,-0.32 1.133,-1.402 1.819,-2.404 3.202,-4.68 8.845,-8.872 13.716,-10.187 0.701,-0.189 1.936,-0.535 2.745,-0.768 3.663,-1.055 11.431,-1.208 15.196,-0.299 M 91.569,84.548 c -3.023,0.234 -6.328,0.921 -10.196,2.119 -1.942,0.602 -4.236,1.28 -5.098,1.508 -4.224,1.117 -6.395,1.808 -7.648,2.435 -0.754,0.377 -2.166,1.038 -3.137,1.467 -0.97,0.429 -2.382,1.328 -3.137,1.999 -0.755,0.67 -2.104,1.578 -2.998,2.017 -0.893,0.44 -2.435,1.587 -3.425,2.549 -0.99,0.963 -1.962,1.75 -2.158,1.75 -0.499,0 -6.713,6.015 -6.713,6.497 0,0.216 -0.499,0.687 -1.108,1.047 -0.609,0.36 -1.447,1.14 -1.863,1.733 -0.415,0.593 -1.559,1.88 -2.543,2.861 -1.818,1.813 -4.279,5.276 -5.675,7.987 -0.425,0.823 -1.044,1.794 -1.376,2.157 -1.115,1.216 -3.011,4.179 -3.309,5.169 -0.293,0.976 -1.713,3.548 -2.165,3.922 -0.218,0.18 -1.181,2.228 -1.935,4.117 -0.172,0.432 -0.502,1.226 -0.732,1.765 -0.23,0.539 -0.632,1.686 -0.892,2.549 -0.26,0.863 -0.613,2.01 -0.786,2.549 -0.172,0.539 -0.422,1.775 -0.554,2.745 -0.132,0.971 -0.41,2.559 -0.618,3.53 -3.129,14.63 -3.406,22.132 -1.218,32.941 2.498,12.335 2.357,11.825 4.537,16.509 0.561,1.208 1.021,2.365 1.021,2.571 0,0.206 0.595,1.024 1.323,1.819 0.728,0.794 1.561,2.02 1.853,2.723 0.291,0.704 0.799,1.614 1.128,2.022 0.329,0.408 1.045,1.291 1.591,1.961 0.546,0.67 1.713,2.189 2.592,3.375 0.88,1.186 3.036,3.657 4.792,5.49 1.755,1.833 3.192,3.437 3.192,3.563 0,0.266 8.538,7.895 10.588,9.462 0.755,0.576 2.815,2.426 4.578,4.11 1.763,1.684 4.161,3.856 5.329,4.826 1.168,0.971 2.725,2.533 3.461,3.472 0.736,0.939 1.52,1.909 1.743,2.157 2.341,2.6 4.863,12.48 3.9,15.28 -0.087,0.255 -0.348,2.317 -0.58,4.581 -0.231,2.265 -0.66,5.794 -0.953,7.843 -1.824,12.768 -1.944,14.17 -1.48,17.356 1.085,7.442 3.497,11.698 7.723,13.623 0.947,0.431 1.832,0.962 1.966,1.18 1.691,2.735 14.234,2.721 25.686,-0.029 1.897,-0.455 7.428,-0.862 20.784,-1.528 4.637,-0.231 11.519,-0.691 15.294,-1.021 20.696,-1.813 91.21,-1.811 108.627,0.003 7.783,0.81 14.227,1.319 20.393,1.61 2.696,0.127 6.313,0.561 8.039,0.965 6.628,1.552 6.297,1.499 17.451,2.783 6.986,0.804 13.004,-0.087 15.572,-2.305 0.602,-0.52 1.577,-1.197 2.166,-1.503 4.241,-2.208 6.014,-6.955 5.653,-15.135 -0.226,-5.134 -0.413,-6.635 -1.551,-12.469 -1.648,-8.45 -1.772,-10.694 -0.886,-16.079 1.185,-7.214 2.321,-10.386 4.599,-12.848 0.775,-0.837 1.54,-1.951 1.7,-2.474 0.161,-0.524 0.95,-1.57 1.754,-2.325 0.804,-0.754 1.791,-1.946 2.194,-2.647 0.403,-0.701 0.847,-1.274 0.987,-1.274 0.14,0 0.763,-0.747 1.386,-1.659 2.77,-4.06 6.783,-8.53 10.658,-11.871 1.251,-1.078 2.884,-2.744 3.629,-3.702 0.745,-0.958 1.711,-2.105 2.147,-2.549 0.436,-0.444 1.219,-1.425 1.741,-2.18 0.521,-0.755 1.672,-2.078 2.557,-2.941 0.886,-0.863 2.131,-2.275 2.767,-3.137 0.637,-0.863 1.247,-1.657 1.357,-1.765 0.109,-0.108 0.463,-0.712 0.786,-1.343 0.323,-0.63 1.328,-1.943 2.232,-2.916 0.904,-0.973 1.963,-2.399 2.353,-3.167 0.39,-0.769 1.34,-2.192 2.111,-3.162 2.079,-2.616 4.879,-8.76 5.63,-12.353 0.361,-1.726 0.847,-3.843 1.08,-4.706 0.924,-3.411 1.067,-3.995 1.47,-6.01 0.23,-1.149 0.414,-5.296 0.411,-9.216 -0.007,-6.676 -0.226,-8.891 -1.583,-15.951 -0.187,-0.97 -0.521,-3 -0.742,-4.509 -0.222,-1.51 -0.57,-3.451 -0.773,-4.314 -0.204,-0.863 -0.576,-2.451 -0.827,-3.53 -0.455,-1.949 -0.959,-3.599 -1.56,-5.098 -0.173,-0.431 -0.703,-1.793 -1.178,-3.027 -0.475,-1.234 -1.462,-3.086 -2.195,-4.117 -0.732,-1.03 -1.332,-2.111 -1.332,-2.403 0,-1.076 -1.456,-3.68 -2.964,-5.3 -0.229,-0.246 -0.685,-0.976 -1.014,-1.623 -0.998,-1.96 -2.371,-4.302 -2.645,-4.51 -0.141,-0.108 -0.592,-0.725 -1.002,-1.373 -0.409,-0.647 -1.259,-1.617 -1.889,-2.156 -0.63,-0.54 -1.484,-1.334 -1.898,-1.765 -0.414,-0.431 -1.854,-1.938 -3.2,-3.347 -1.345,-1.41 -3.152,-3.087 -4.015,-3.726 -0.863,-0.639 -2.01,-1.566 -2.549,-2.059 -0.539,-0.493 -1.716,-1.267 -2.616,-1.72 -0.899,-0.454 -2.277,-1.38 -3.063,-2.058 -0.785,-0.679 -2.255,-1.644 -3.267,-2.145 -1.011,-0.501 -2.292,-1.148 -2.847,-1.438 -1.293,-0.676 -4.094,-1.599 -5.854,-1.927 -0.755,-0.141 -1.814,-0.4 -2.353,-0.576 -0.539,-0.175 -1.951,-0.54 -3.137,-0.81 -1.187,-0.27 -2.334,-0.613 -2.549,-0.762 -0.53,-0.367 -3.064,-1.079 -5.687,-1.599 -6.993,-1.387 -31.662,-0.618 -37.843,1.18 -1.936,0.563 -7.314,1.807 -10.98,2.54 -3.781,0.756 -5.276,1.163 -6.869,1.873 -0.751,0.335 -2.211,0.936 -3.244,1.336 -1.033,0.401 -2.757,1.39 -3.832,2.199 -1.074,0.809 -2.128,1.47 -2.34,1.47 -0.626,0 -4.156,2.005 -5.355,3.042 -0.608,0.525 -1.811,1.315 -2.674,1.755 -0.863,0.439 -1.657,0.913 -1.765,1.054 -0.107,0.14 -1.078,0.954 -2.156,1.81 -1.079,0.855 -2.194,1.868 -2.479,2.25 -0.286,0.382 -1.507,1.425 -2.715,2.317 -5.074,3.748 -10.992,10.69 -13.396,15.712 -0.49,1.024 -1.325,2.203 -1.856,2.62 -1.275,1.004 -4.033,6.02 -6.022,10.956 -0.467,1.158 -1.364,2.816 -1.994,3.687 -0.631,0.87 -1.15,1.864 -1.155,2.209 -0.005,0.345 -0.354,1.069 -0.776,1.608 -0.421,0.539 -0.77,1.205 -0.775,1.479 -0.042,2.382 -7.673,3.827 -9.477,1.794 -0.508,-0.572 -1.498,-1.648 -2.199,-2.392 -0.701,-0.744 -1.575,-1.984 -1.941,-2.757 -0.367,-0.772 -1.602,-2.955 -2.745,-4.852 -1.143,-1.896 -2.078,-3.55 -2.078,-3.675 0,-0.125 -0.497,-0.76 -1.104,-1.409 -0.608,-0.65 -1.43,-2.141 -1.829,-3.312 -0.398,-1.172 -0.872,-2.131 -1.052,-2.131 -0.181,0 -0.329,-0.25 -0.329,-0.556 0,-0.305 -0.155,-0.614 -0.344,-0.686 -0.189,-0.072 -1.757,-2.162 -3.485,-4.646 -4.185,-6.015 -12.665,-15.195 -17.203,-18.624 -0.834,-0.63 -1.756,-1.379 -2.048,-1.663 -0.292,-0.285 -1.175,-0.847 -1.961,-1.251 -0.786,-0.403 -1.871,-1.206 -2.41,-1.785 -0.539,-0.579 -1.905,-1.49 -3.035,-2.026 -1.13,-0.535 -2.979,-1.667 -4.107,-2.515 -1.129,-0.848 -2.185,-1.542 -2.347,-1.542 -0.163,0 -1.403,-0.504 -2.756,-1.12 -3.131,-1.426 -4.318,-1.787 -9.127,-2.78 -4.461,-0.921 -5.86,-1.262 -8.628,-2.107 -4.335,-1.322 -20.537,-2.229 -28.627,-1.602 m 17.255,4.483 c 5.515,0.399 9.246,0.852 12.941,1.571 1.294,0.251 3.147,0.6 4.117,0.774 2.712,0.487 5.876,1.374 8.04,2.253 2.005,0.816 10.038,4.83 10.392,5.193 0.364,0.374 6.068,4.525 7.255,5.28 0.647,0.411 1.368,0.936 1.602,1.166 0.234,0.23 0.913,0.771 1.509,1.203 0.596,0.431 1.569,1.225 2.161,1.764 0.593,0.54 1.689,1.51 2.436,2.157 1.857,1.61 5.121,5.309 8.167,9.255 1.397,1.812 2.677,3.353 2.843,3.425 0.166,0.072 0.301,0.336 0.302,0.588 0,0.252 0.441,0.97 0.98,1.597 0.539,0.627 0.98,1.246 0.98,1.377 0,0.13 0.631,0.941 1.402,1.802 1.118,1.247 4.48,7.405 4.48,8.204 0,0.235 4.774,8.193 5.074,8.458 0.123,0.108 0.717,0.926 1.322,1.817 1.131,1.668 4.426,4.964 6.143,6.144 1.96,1.348 8.185,0.416 9.954,-1.49 1.087,-1.172 2.998,-4.008 2.998,-4.45 0,-0.213 0.147,-0.446 0.326,-0.518 0.5,-0.2 2.908,-4.161 4.133,-6.797 3.53,-7.594 7.924,-15.552 9.529,-17.255 0.406,-0.431 1.158,-1.402 1.671,-2.157 0.513,-0.755 1.127,-1.549 1.365,-1.765 0.237,-0.215 0.934,-1.009 1.549,-1.764 1.783,-2.191 6.134,-6.667 6.48,-6.667 0.174,0 0.686,-0.32 1.136,-0.711 0.451,-0.391 1.29,-1.052 1.865,-1.47 0.575,-0.418 1.689,-1.329 2.476,-2.025 0.786,-0.696 2.048,-1.561 2.803,-1.921 0.755,-0.361 1.461,-0.787 1.569,-0.947 0.107,-0.16 1.343,-0.957 2.745,-1.772 1.402,-0.815 2.637,-1.584 2.745,-1.71 0.179,-0.208 0.657,-0.495 2.647,-1.585 4.898,-2.682 11.197,-5.081 15.98,-6.084 1.726,-0.362 3.843,-0.807 4.706,-0.99 2.173,-0.461 6.307,-1.058 11.177,-1.616 5.864,-0.671 24.473,-0.68 28.431,-0.013 9.859,1.661 16.796,3.644 20.196,5.772 0.755,0.473 1.946,1.1 2.647,1.395 0.701,0.294 1.275,0.669 1.275,0.832 0,0.163 0.281,0.296 0.625,0.296 0.618,0 2.732,1.319 3.492,2.18 0.216,0.244 1.01,0.859 1.765,1.368 0.755,0.508 1.461,1.03 1.569,1.16 0.107,0.129 0.901,0.756 1.764,1.391 3.31,2.439 10.147,9.622 11.706,12.298 0.45,0.774 1.045,1.64 1.321,1.925 0.277,0.285 0.503,0.695 0.503,0.91 0,0.357 2.196,3.796 2.719,4.258 0.301,0.266 3.947,8.437 3.947,8.845 0,0.124 0.441,1.19 0.981,2.368 0.539,1.179 0.98,2.368 0.98,2.642 0,0.274 0.149,0.666 0.332,0.871 0.511,0.574 2.015,8.003 2.773,13.706 1.194,8.973 1.486,17.357 0.8,22.941 -0.604,4.911 -2.031,12.203 -2.725,13.921 -0.174,0.432 -0.539,1.402 -0.811,2.157 -0.272,0.755 -0.865,1.902 -1.318,2.549 -0.452,0.647 -1.248,1.971 -1.767,2.941 -1.073,2.006 -2.913,4.787 -3.678,5.559 -0.284,0.286 -1.602,2.108 -2.929,4.049 -1.328,1.941 -3.17,4.341 -4.095,5.333 -0.924,0.992 -2.033,2.313 -2.464,2.936 -0.701,1.012 -6.979,7.721 -14.242,15.222 -2.367,2.444 -3.643,3.93 -5.928,6.901 -0.414,0.54 -1.081,1.334 -1.481,1.765 -0.4,0.432 -1.114,1.415 -1.587,2.187 -0.473,0.771 -1.272,1.847 -1.776,2.391 -2.525,2.724 -5.816,8.975 -6.882,13.069 -2.556,9.827 -2.497,13.409 0.418,25.294 1.371,5.589 1.06,18.04 -0.45,18.04 -0.129,0 -0.471,0.535 -0.76,1.189 -1.572,3.55 -10.321,5.182 -21.175,3.949 -2.081,-0.236 -6.078,-0.624 -8.882,-0.863 -8.772,-0.746 -15.683,-1.523 -20.589,-2.316 -1.402,-0.226 -4.843,-0.69 -7.647,-1.03 -2.804,-0.341 -6.245,-0.779 -7.647,-0.975 -10.45,-1.457 -91.554,-1.434 -102.549,0.029 -1.51,0.201 -5.745,0.636 -9.411,0.967 -3.667,0.33 -8.608,0.792 -10.981,1.025 -2.372,0.234 -6.078,0.582 -8.235,0.774 -2.157,0.193 -5.51,0.533 -7.451,0.756 -13.519,1.556 -25.123,1.576 -27.843,0.048 -5.765,-3.237 -8.151,-10.135 -6.926,-20.024 0.375,-3.032 0.718,-5.203 2.133,-13.529 1.466,-8.622 0.367,-18.043 -2.722,-23.334 -2.36,-4.043 -10.046,-11.859 -14.676,-14.924 -0.857,-0.568 -1.877,-1.368 -2.265,-1.779 -0.388,-0.411 -2.805,-2.689 -5.371,-5.062 -6.605,-6.107 -10.489,-10.224 -13.605,-14.42 -0.838,-1.127 -1.996,-2.638 -2.575,-3.357 -0.579,-0.719 -1.774,-2.66 -2.657,-4.314 -0.882,-1.653 -2.229,-4.173 -2.992,-5.598 -1.405,-2.623 -2.211,-5.357 -3.051,-10.35 -0.254,-1.51 -0.618,-3.467 -0.809,-4.349 -1.012,-4.682 -0.778,-21.225 0.395,-28.004 0.205,-1.186 0.56,-3.304 0.787,-4.706 0.646,-3.974 1.195,-5.791 2.966,-9.803 0.904,-2.049 2.067,-4.84 2.584,-6.202 0.517,-1.363 1.209,-2.774 1.537,-3.138 0.719,-0.797 4.346,-6.465 5.191,-8.111 1.712,-3.339 6.613,-8.982 12.294,-14.158 6.558,-5.974 10.269,-8.829 12.997,-9.998 0.701,-0.3 1.275,-0.665 1.275,-0.811 0,-0.146 0.529,-0.382 1.176,-0.524 0.647,-0.142 1.176,-0.377 1.176,-0.523 0,-0.146 0.574,-0.512 1.275,-0.814 0.701,-0.301 1.98,-0.857 2.843,-1.235 0.863,-0.378 2.628,-0.987 3.922,-1.353 1.294,-0.366 2.794,-0.809 3.333,-0.984 0.539,-0.176 1.686,-0.43 2.549,-0.566 0.863,-0.135 2.627,-0.43 3.922,-0.655 6.211,-1.081 13.94,-1.331 22.353,-0.721 m 21.372,89.291 c -3.181,0.405 -3.651,0.614 -5.376,2.387 -5.912,6.081 -5.539,17.395 0.808,24.526 0.413,0.464 1.95,2.432 3.415,4.373 1.465,1.941 3.162,4.086 3.771,4.768 1.755,1.962 2.243,2.592 3.154,4.069 0.47,0.762 1.269,1.869 1.776,2.459 2.7,3.142 4.399,8.365 4.975,15.3 0.577,6.944 2.646,10.146 6.896,10.677 2.668,0.333 3.265,-0.199 4.493,-4 2.193,-6.786 0.103,-25.707 -3.089,-27.979 -0.152,-0.108 -0.56,-0.814 -0.907,-1.569 -2.465,-5.356 -3.053,-6.752 -3.053,-7.241 0,-0.306 -0.177,-0.665 -0.392,-0.798 -0.216,-0.133 -0.392,-0.522 -0.392,-0.863 0,-0.341 -0.729,-2.14 -1.619,-3.996 -0.891,-1.857 -1.846,-4.347 -2.123,-5.533 -0.906,-3.879 -1.796,-7.24 -2.128,-8.039 -0.179,-0.432 -0.532,-1.334 -0.783,-2.007 -0.925,-2.47 -7.198,-6.818 -9.426,-6.534 m 125.627,0.665 c -2.447,1.14 -5.275,3.849 -5.968,5.719 -0.526,1.42 -0.702,1.776 -2.224,4.501 -0.498,0.892 -1.277,2.759 -1.733,4.149 -0.455,1.389 -0.974,2.879 -1.153,3.311 -0.18,0.431 -0.508,1.225 -0.731,1.764 -0.223,0.54 -0.687,1.625 -1.033,2.413 -0.345,0.787 -0.628,1.594 -0.628,1.793 0,0.199 -0.67,1.673 -1.489,3.274 -0.818,1.602 -1.684,3.53 -1.924,4.285 -1.02,3.211 -2.552,7.141 -4.05,10.392 -1.823,3.955 -2.767,17.377 -1.502,21.345 1.309,4.108 2.467,5.258 4.948,4.919 4.219,-0.576 5.902,-3.764 6.932,-13.127 0.477,-4.333 1.578,-7.428 3.511,-9.87 0.456,-0.575 1.421,-2.101 2.145,-3.39 0.725,-1.289 1.783,-2.858 2.353,-3.486 0.57,-0.629 2.072,-2.32 3.337,-3.757 1.266,-1.437 2.775,-3.11 3.356,-3.717 0.58,-0.607 1.655,-1.979 2.389,-3.049 0.734,-1.071 1.482,-2.123 1.663,-2.338 1.487,-1.773 3.595,-4.928 4.172,-6.244 4.627,-10.552 -3.529,-23.004 -12.371,-18.887 m 6.578,4.096 c 4.006,2.541 5.167,11.423 1.948,14.897 -0.529,0.571 -1.631,2.072 -2.448,3.336 -0.816,1.264 -2.113,3.029 -2.88,3.922 -0.768,0.894 -2.317,2.699 -3.444,4.012 -2.657,3.098 -3.232,3.736 -4.167,4.617 -0.425,0.401 -1.074,1.371 -1.442,2.156 -0.368,0.786 -1.269,2.1 -2.004,2.921 -3.563,3.983 -5.095,7.14 -5.625,11.595 -0.434,3.649 -0.979,7.326 -1.388,9.363 -0.239,1.193 -0.366,1.278 -1.976,1.333 -0.946,0.033 -1.928,0.077 -2.182,0.098 -2.01,0.171 -1.588,-14.295 0.508,-17.419 0.365,-0.544 0.953,-1.956 1.307,-3.138 0.353,-1.182 0.811,-2.69 1.017,-3.353 0.206,-0.662 0.375,-1.457 0.375,-1.766 0,-0.309 0.618,-1.43 1.373,-2.492 0.754,-1.062 1.372,-2.147 1.372,-2.413 0,-0.265 0.337,-1.16 0.749,-1.989 1.384,-2.788 2.258,-5.017 3.36,-8.567 0.603,-1.941 1.866,-5.139 2.807,-7.106 0.942,-1.967 1.712,-3.743 1.712,-3.946 0,-0.943 1.8,-3.978 3.044,-5.131 1.368,-1.268 1.92,-1.502 4.21,-1.788 0.648,-0.081 1.363,-0.173 1.59,-0.205 0.228,-0.033 1.21,0.446 2.184,1.063 m -128.777,0.418 c 1.49,1.079 2.123,2.103 4.14,6.695 1.237,2.815 1.85,4.559 2.209,6.275 0.774,3.705 1.203,4.944 2.908,8.399 0.966,1.959 2.135,4.708 2.598,6.11 1.097,3.328 1.703,4.706 2.068,4.706 0.163,0 0.296,0.172 0.296,0.381 0,0.433 1.435,3.713 3.266,7.462 l 1.244,2.549 -0.009,6.667 c -0.011,8.461 -0.104,8.848 -2.008,8.419 -2.385,-0.538 -2.793,-1.271 -3.707,-6.661 -0.667,-3.934 -1.123,-5.45 -2.322,-7.72 -0.82,-1.554 -1.614,-3.384 -1.765,-4.068 -0.312,-1.422 -1.617,-3.809 -2.556,-4.676 -0.35,-0.323 -1.276,-1.593 -2.057,-2.821 -0.781,-1.228 -2.664,-3.492 -4.185,-5.03 -1.52,-1.538 -2.764,-3.015 -2.764,-3.281 0,-0.267 -0.316,-0.827 -0.702,-1.245 -5.41,-5.854 -7.674,-14.043 -5.278,-19.089 0.485,-1.022 0.882,-2.01 0.882,-2.194 0,-2.073 5.267,-2.671 7.742,-0.878 m 58.729,141.472 c -1.726,0.302 -6.226,0.793 -10,1.091 -11.132,0.879 -16.505,1.373 -19.216,1.766 -5.515,0.802 -7.945,1.206 -8.206,1.368 -0.443,0.273 -10.848,1.198 -24.343,2.164 -7.398,0.529 -14.091,1.105 -18.235,1.568 -1.941,0.217 -6.529,0.658 -10.196,0.978 -14.302,1.252 -16.893,1.676 -27.451,4.5 -1.54,0.412 -4.6,1.662 -5.098,2.082 -0.216,0.182 -1.327,1.022 -2.47,1.866 -3.565,2.633 -7.922,7.801 -7.922,9.396 0,0.223 -0.156,0.405 -0.346,0.405 -0.855,0 -3.968,8.261 -3.968,10.532 0,0.462 -0.132,0.841 -0.294,0.842 -1.012,0.005 -2.929,7.68 -3.624,14.508 -0.231,2.265 -0.592,5.441 -0.802,7.059 -0.211,1.618 -0.382,3.868 -0.381,5 l 0.003,2.059 h 2.1 2.1 l 0.27,-2.843 c 0.842,-8.85 1.021,-10.591 1.401,-13.628 0.229,-1.833 0.571,-4.127 0.761,-5.098 0.189,-0.97 0.547,-2.823 0.795,-4.117 1.047,-5.472 6.175,-15.306 9.435,-18.094 0.54,-0.462 1.599,-1.388 2.354,-2.058 0.755,-0.671 1.857,-1.439 2.451,-1.708 0.593,-0.269 1.078,-0.622 1.078,-0.785 0,-0.163 0.174,-0.297 0.386,-0.297 0.213,0 1.251,-0.531 2.306,-1.181 2.268,-1.395 3.667,-1.626 19.073,-3.147 2.157,-0.213 5.068,-0.546 6.47,-0.739 15.301,-2.109 20.359,-2.638 34.118,-3.563 5.571,-0.375 13.959,-1.148 20.98,-1.935 1.942,-0.218 5.294,-0.585 7.451,-0.817 10.674,-1.147 10.31,-1.101 18.236,-2.295 12.161,-1.833 16.01,-1.862 35.686,-0.271 9.852,0.797 12.596,1.132 21.372,2.607 8.726,1.467 13.839,1.871 24.092,1.905 4.191,0.013 9.132,0.192 10.98,0.396 1.848,0.204 5.389,0.56 7.87,0.791 9.857,0.917 17.355,1.95 22.549,3.106 0.862,0.192 3.068,0.644 4.902,1.006 7.592,1.498 10.597,2.646 13.137,5.021 0.518,0.484 1.172,1.08 1.452,1.322 3.086,2.676 5.633,7.112 8.529,14.853 0.484,1.294 1.028,2.706 1.21,3.137 0.182,0.432 0.515,2.02 0.74,3.53 0.225,1.51 0.582,3.892 0.794,5.294 0.211,1.402 0.505,6.387 0.654,11.078 l 0.27,8.53 h 2.097 2.097 l -0.003,-5.196 c -0.004,-5.969 -0.86,-13.237 -1.929,-16.373 -0.404,-1.186 -0.844,-3.039 -0.978,-4.117 -0.244,-1.962 -0.544,-3.637 -1.362,-7.611 -0.436,-2.115 -4.797,-11.285 -6.177,-12.984 -0.4,-0.494 -1.374,-1.532 -2.165,-2.308 -3.663,-3.594 -4.763,-4.309 -8.496,-5.517 -1.223,-0.396 -3.017,-1.057 -3.988,-1.47 -0.971,-0.413 -2.824,-0.98 -4.118,-1.26 -1.294,-0.28 -2.882,-0.65 -3.529,-0.823 -0.647,-0.173 -2.324,-0.423 -3.726,-0.556 -1.402,-0.133 -3.431,-0.402 -4.509,-0.599 -1.844,-0.336 -4.139,-0.606 -13.138,-1.549 -9.989,-1.046 -12.898,-1.232 -25.294,-1.617 -11.774,-0.365 -13.792,-0.522 -17.255,-1.345 -8.081,-1.92 -12.497,-2.396 -25.49,-2.75 -4.314,-0.117 -8.725,-0.376 -9.804,-0.575 -7.328,-1.354 -10.411,-1.459 -15.686,-0.534"
     stroke="none"
     fill="#8c8c8c"
     fill-rule="evenodd" />
  <path
     id="path4"
     d="m 189.608,13.606 c -1.765,0.158 -1.875,0.2 -6.428,2.434 -1.809,0.888 -3.939,2.187 -4.732,2.886 -0.793,0.698 -1.881,1.623 -2.418,2.054 -0.957,0.769 -4.659,5.85 -4.656,6.392 0,0.151 -0.383,1.069 -0.853,2.04 -2.042,4.223 -2.681,7.308 -2.666,12.875 0.015,5.4 1.496,14.219 3.237,19.282 0.112,0.323 1.033,3.235 2.047,6.47 1.014,3.236 2.191,6.853 2.616,8.039 2.838,7.926 3.268,9.289 3.648,11.569 0.144,0.863 1.043,3.184 1.998,5.158 0.955,1.974 1.736,3.794 1.736,4.044 0,0.25 0.547,1.635 1.215,3.078 1.653,3.567 1.791,3.905 2.516,6.151 0.348,1.079 1.107,2.755 1.686,3.726 1.464,2.452 2.303,4.24 2.86,6.1 0.394,1.314 0.755,1.705 2.084,2.255 2.34,0.967 2.997,0.841 4.69,-0.904 0.837,-0.863 1.675,-1.569 1.863,-1.569 0.188,0 0.341,-0.259 0.341,-0.576 0,-0.639 1.407,-3.946 3.091,-7.267 0.602,-1.186 1.401,-3.216 1.777,-4.51 0.8,-2.76 1.121,-3.556 2.631,-6.547 0.621,-1.228 1.129,-2.467 1.129,-2.752 0,-0.286 0.773,-2.104 1.718,-4.041 0.945,-1.938 1.839,-4.405 1.986,-5.483 0.147,-1.079 0.431,-2.49 0.631,-3.137 1.199,-3.875 1.643,-5.166 2.663,-7.734 1.478,-3.724 2.021,-5.466 2.021,-6.487 0,-0.457 0.156,-0.928 0.347,-1.046 0.191,-0.118 0.437,-0.702 0.548,-1.297 0.11,-0.596 0.685,-2.407 1.277,-4.025 0.592,-1.617 1.228,-3.514 1.413,-4.215 0.185,-0.701 0.501,-1.848 0.702,-2.549 2.192,-7.653 2.779,-16.755 1.352,-20.967 -1.813,-5.351 -5.431,-11.272 -7.861,-12.864 -0.589,-0.386 -1.481,-1.112 -1.983,-1.614 -4.008,-4.007 -13.421,-5.938 -24.226,-4.969 m 15.098,4.089 c 2.051,0.69 3.222,1.222 4.338,1.971 0.552,0.371 1.459,0.788 2.016,0.928 1.237,0.31 5.411,3.96 5.411,4.731 0,0.307 0.176,0.557 0.392,0.557 0.215,0 0.392,0.285 0.392,0.633 0,0.348 0.336,1.275 0.746,2.059 2.4,4.586 2.532,5.117 2.699,10.838 0.172,5.921 -0.195,9.306 -1.51,13.921 -0.46,1.618 -0.979,3.559 -1.152,4.314 -0.173,0.755 -0.597,2.396 -0.941,3.647 -0.345,1.25 -0.626,2.556 -0.626,2.902 0,0.345 -0.42,1.528 -0.932,2.628 -1.591,3.415 -2.6,6.185 -2.859,7.851 -0.136,0.88 -0.656,2.5 -1.155,3.6 -0.967,2.133 -1.664,4.135 -2.652,7.607 -0.338,1.187 -1.151,3.188 -1.808,4.447 -0.657,1.259 -1.353,2.935 -1.547,3.725 -0.994,4.047 -1.525,5.51 -2.307,6.349 -0.472,0.507 -0.859,1.109 -0.86,1.338 -0.002,0.229 -0.228,0.857 -0.503,1.396 -0.276,0.539 -0.75,1.775 -1.054,2.745 -0.486,1.553 -1.673,3.288 -3.824,5.592 -0.913,0.978 -5.148,-0.949 -5.19,-2.362 -0.009,-0.272 -0.183,-0.802 -0.388,-1.176 -0.206,-0.375 -0.685,-1.387 -1.066,-2.25 -0.381,-0.862 -1.012,-1.915 -1.402,-2.339 -0.669,-0.728 -1.865,-4.054 -1.865,-5.187 0,-0.538 -1.115,-3.204 -2.348,-5.611 -0.386,-0.755 -1.359,-3.314 -2.163,-5.686 -0.803,-2.373 -1.77,-4.932 -2.149,-5.687 -0.378,-0.754 -0.814,-2.233 -0.967,-3.286 -0.312,-2.132 -0.537,-2.758 -2.429,-6.743 -0.724,-1.526 -1.317,-3.093 -1.317,-3.484 0,-0.39 -0.17,-1.347 -0.378,-2.127 -4.238,-15.903 -5.068,-26.932 -2.479,-32.937 0.337,-0.782 0.759,-1.775 0.938,-2.207 1.558,-3.766 2.544,-5.41 4.409,-7.353 1.191,-1.24 2.397,-2.258 2.681,-2.262 0.284,-0.004 1.7,-0.607 3.147,-1.341 4.78,-2.422 15.895,-3.357 20.702,-1.741 M 90.519,91.573 c -0.11,0.11 -2.39,0.467 -5.065,0.794 -6.443,0.786 -11.296,1.974 -12.121,2.967 -0.108,0.13 -0.902,0.562 -1.764,0.96 -0.863,0.398 -1.657,0.831 -1.765,0.963 -0.108,0.131 -0.814,0.478 -1.569,0.77 -0.755,0.292 -2.811,1.546 -4.568,2.786 -1.758,1.24 -3.598,2.469 -4.088,2.732 -0.49,0.262 -1.27,0.851 -1.733,1.309 -0.463,0.458 -1.337,1.185 -1.941,1.617 -0.605,0.431 -1.298,1.019 -1.541,1.307 -0.243,0.288 -1.044,1.082 -1.779,1.765 -1.883,1.749 -2.83,2.737 -3.958,4.13 -0.539,0.665 -1.271,1.309 -1.627,1.43 -0.356,0.12 -0.753,0.639 -0.881,1.151 -0.129,0.513 -0.778,1.433 -1.443,2.045 -1.205,1.11 -3.184,3.98 -4.282,6.211 -0.6,1.219 -0.88,1.679 -3.23,5.294 -1.714,2.638 -3.176,5.557 -3.83,7.647 -0.27,0.863 -1.072,2.804 -1.782,4.314 -3.779,8.038 -4.884,31.227 -2.158,45.294 0.188,0.97 0.472,2.47 0.632,3.333 0.16,0.863 0.41,1.657 0.555,1.765 0.145,0.108 1.171,2.053 2.279,4.324 1.109,2.27 2.375,4.512 2.813,4.983 0.439,0.471 0.798,0.968 0.798,1.104 0,0.137 0.678,1.247 1.507,2.468 0.828,1.22 1.78,2.669 2.115,3.22 1.198,1.971 9.703,10.698 14.121,14.489 1.131,0.971 2.843,2.61 3.803,3.644 0.96,1.033 2.373,2.265 3.139,2.737 3.54,2.183 9.354,7.634 12.643,11.854 5.542,7.112 7.435,17.285 5.254,28.236 -0.344,1.725 -0.814,4.196 -1.045,5.49 -0.231,1.294 -0.615,3.235 -0.852,4.314 -0.641,2.91 -0.602,13.169 0.056,14.562 1.648,3.491 1.696,3.554 4.17,5.465 2.674,2.066 3.935,2.487 8.169,2.732 4.424,0.255 13.996,-0.314 16.724,-0.994 5.069,-1.264 10.922,-2 21.764,-2.739 7.842,-0.534 13.912,-1.073 17.255,-1.532 7.434,-1.019 21.701,-1.295 57.843,-1.116 35.261,0.175 41.993,0.375 48.432,1.442 1.294,0.214 4.206,0.577 6.47,0.806 8.117,0.819 13.112,1.548 19.412,2.833 7.253,1.478 25.561,2.287 29.804,1.317 7.024,-1.607 9.064,-10.219 5.397,-22.776 -2.657,-9.1 -2.405,-16.724 0.855,-25.847 1.414,-3.958 3.837,-8.808 5.12,-10.25 0.216,-0.242 0.746,-0.93 1.177,-1.529 0.431,-0.599 0.969,-1.29 1.195,-1.535 0.226,-0.246 0.975,-1.272 1.665,-2.281 0.69,-1.008 1.477,-2.067 1.749,-2.353 0.272,-0.285 0.988,-1.137 1.592,-1.892 1.132,-1.415 6.522,-7.275 10.662,-11.59 1.294,-1.349 3.323,-3.538 4.509,-4.863 1.187,-1.326 2.775,-3.095 3.53,-3.93 0.755,-0.836 1.758,-1.956 2.228,-2.488 0.471,-0.533 1.195,-1.208 1.609,-1.5 0.413,-0.292 1.066,-1.148 1.449,-1.903 0.9,-1.77 5.644,-8.645 6.495,-9.412 0.826,-0.744 5.172,-8.82 5.593,-10.392 2.65,-9.906 3.033,-25.249 1.009,-40.392 -0.456,-3.414 -0.826,-4.848 -2.022,-7.843 -0.431,-1.079 -0.92,-2.402 -1.086,-2.942 -1.044,-3.38 -2.838,-7.672 -3.806,-9.108 -0.621,-0.922 -1.452,-2.382 -1.847,-3.245 -0.395,-0.862 -0.825,-1.656 -0.955,-1.764 -0.13,-0.108 -0.496,-0.726 -0.813,-1.373 -0.316,-0.647 -1.066,-1.914 -1.666,-2.816 -0.599,-0.901 -1.09,-1.753 -1.09,-1.893 0,-0.14 -0.783,-1.038 -1.74,-1.995 -0.958,-0.957 -1.852,-2.09 -1.988,-2.518 -0.135,-0.428 -0.475,-0.778 -0.755,-0.778 -0.28,0 -1.389,-0.838 -2.465,-1.863 -3.676,-3.5 -10.909,-8.798 -14.425,-10.567 -4.109,-2.067 -5.093,-2.6 -5.294,-2.868 -0.108,-0.143 -0.637,-0.39 -1.176,-0.547 -2.996,-0.874 -3.887,-1.112 -5.49,-1.464 -5.942,-1.303 -10.701,-1.662 -22.353,-1.686 -20.359,-0.042 -30.384,1.213 -37.647,4.712 -1.402,0.676 -3.255,1.471 -4.118,1.768 -1.725,0.593 -4.985,2.271 -5.294,2.726 -0.192,0.282 -2.438,1.651 -5.903,3.599 -4.323,2.43 -5.102,2.931 -6.372,4.096 -0.743,0.681 -1.859,1.507 -2.479,1.835 -2.675,1.415 -10.024,9.563 -12.991,14.403 -0.472,0.769 -1.227,1.733 -1.679,2.142 -0.452,0.409 -1.362,1.897 -2.023,3.307 -0.661,1.41 -1.456,3.005 -1.766,3.544 -0.714,1.243 -4.826,9.739 -4.826,9.971 0,0.286 -2.512,4.303 -3.04,4.861 -0.269,0.285 -0.49,0.659 -0.49,0.83 0,0.876 -5.448,5.907 -6.396,5.907 -0.555,0 -1.118,0.177 -1.251,0.392 -0.59,0.954 -6.931,0.334 -8.039,-0.786 -0.108,-0.109 -0.902,-0.724 -1.765,-1.365 -3.962,-2.947 -11.003,-13.35 -12.085,-17.857 -0.131,-0.543 -0.573,-1.348 -0.984,-1.789 -0.41,-0.441 -0.97,-1.22 -1.245,-1.732 -0.274,-0.512 -0.652,-1.119 -0.842,-1.348 -0.189,-0.229 -0.878,-1.123 -1.532,-1.985 -0.653,-0.863 -1.427,-1.859 -1.72,-2.213 -0.293,-0.355 -0.638,-0.98 -0.768,-1.39 -0.131,-0.41 -0.81,-1.372 -1.511,-2.139 -1.884,-2.061 -2.646,-3.05 -2.646,-3.435 0,-0.627 -8.14,-9.148 -9.941,-10.406 -0.597,-0.417 -1.561,-1.174 -2.141,-1.682 -0.581,-0.508 -1.585,-1.182 -2.232,-1.496 -0.647,-0.314 -1.689,-1.013 -2.316,-1.553 -0.626,-0.539 -1.255,-0.981 -1.396,-0.981 -0.142,0 -0.6,-0.311 -1.018,-0.692 -1.173,-1.068 -4.569,-3.406 -5.662,-3.898 -0.539,-0.243 -2.896,-1.362 -5.238,-2.486 C 128.793,93.587 127,93.203 112.941,91.784 108.808,91.367 90.894,91.198 90.519,91.573 M 117,94.549 c 3.699,0.237 6.902,0.566 7.118,0.73 0.215,0.165 0.91,0.423 1.544,0.575 0.634,0.152 1.605,0.58 2.157,0.951 0.553,0.371 1.71,0.911 2.573,1.2 0.863,0.29 2.186,0.835 2.941,1.212 4.63,2.314 7.614,3.998 10.277,5.798 1.662,1.124 3.136,2.044 3.275,2.044 0.14,0 1.138,0.794 2.217,1.765 1.08,0.97 2.165,1.767 2.411,1.77 0.246,0.004 1.001,0.489 1.677,1.079 0.675,0.59 1.663,1.425 2.194,1.856 0.532,0.432 1.298,1.314 1.704,1.961 0.405,0.647 1.371,1.794 2.147,2.549 0.775,0.755 1.734,1.902 2.13,2.549 0.396,0.647 1.221,1.599 1.834,2.116 0.613,0.517 1.115,1.186 1.115,1.487 0,0.302 0.757,1.379 1.682,2.394 1.803,1.979 3.808,4.908 3.808,5.563 0,0.221 0.176,0.401 0.392,0.401 0.216,0 0.392,0.184 0.392,0.409 0,0.224 0.338,0.771 0.752,1.215 0.413,0.443 0.855,1.22 0.982,1.725 0.217,0.865 2.494,4.854 3.013,5.278 0.132,0.108 0.591,0.991 1.02,1.961 0.43,0.971 1.405,2.579 2.168,3.573 0.764,0.994 1.712,2.494 2.108,3.333 1.282,2.717 6.878,7.406 10.433,8.742 1.561,0.587 8.687,-0.1 10.007,-0.965 1.066,-0.699 2.865,-2.231 5.037,-4.291 1.266,-1.2 3.496,-4.549 4.44,-6.666 0.288,-0.647 0.68,-1.483 0.87,-1.858 0.191,-0.374 0.347,-0.912 0.347,-1.195 0,-0.282 0.763,-1.676 1.696,-3.097 0.934,-1.421 2.009,-3.574 2.39,-4.785 0.381,-1.212 0.853,-2.203 1.048,-2.203 0.196,0 0.356,-0.264 0.356,-0.588 0,-0.323 0.176,-0.588 0.392,-0.588 0.216,0 0.393,-0.221 0.393,-0.49 0.001,-0.27 0.53,-1.108 1.176,-1.863 0.646,-0.755 1.175,-1.477 1.175,-1.606 0.001,-0.128 0.443,-0.745 0.983,-1.372 0.54,-0.627 1.316,-1.845 1.725,-2.708 1.497,-3.158 11.107,-12.773 14.274,-14.282 0.69,-0.328 1.748,-1.052 2.352,-1.608 0.604,-0.556 2.28,-1.523 3.726,-2.148 1.445,-0.625 3.51,-1.686 4.588,-2.358 1.079,-0.672 2.932,-1.682 4.118,-2.246 4.395,-2.087 7.481,-3.437 7.858,-3.437 0.213,0 0.694,-0.161 1.069,-0.358 1.098,-0.577 4.895,-2.241 6.171,-2.704 3.151,-1.144 32.142,-1.701 42.353,-0.814 4.781,0.415 5.33,0.552 8.823,2.195 2.049,0.964 4.167,1.957 4.706,2.206 0.539,0.25 3.275,1.853 6.079,3.562 2.804,1.71 5.874,3.517 6.824,4.017 0.949,0.5 2.134,1.51 2.634,2.245 0.499,0.735 1.531,1.721 2.293,2.192 0.762,0.471 1.386,1.013 1.386,1.204 0,0.418 2.65,3.118 3.061,3.118 0.16,0 0.622,0.616 1.027,1.369 0.406,0.753 1.328,1.718 2.05,2.144 0.722,0.426 1.313,1.022 1.313,1.324 0,0.548 1.32,4.157 1.996,5.457 0.756,1.455 1.346,2.459 1.554,2.647 0.119,0.108 0.621,1.167 1.115,2.353 0.494,1.187 1.307,3.039 1.807,4.118 0.5,1.078 1.195,2.931 1.543,4.118 0.349,1.186 0.797,2.686 0.996,3.333 3.327,10.814 4.128,30.965 1.56,39.216 -2.016,6.475 -3.018,8.971 -4.525,11.269 -0.953,1.454 -1.732,2.747 -1.732,2.876 0,0.128 -0.598,0.968 -1.327,1.867 -0.73,0.899 -1.79,2.528 -2.356,3.619 -0.565,1.092 -1.669,2.68 -2.453,3.53 -0.783,0.849 -1.653,2.084 -1.932,2.743 -0.281,0.664 -1.13,1.534 -1.906,1.952 -0.769,0.414 -1.399,0.897 -1.399,1.072 0,0.175 -0.75,1.053 -1.667,1.951 -0.916,0.898 -2.148,2.391 -2.736,3.318 -0.588,0.927 -1.25,1.685 -1.471,1.685 -0.221,0 -1.011,0.848 -1.756,1.885 -0.745,1.037 -1.759,2.102 -2.254,2.367 -0.495,0.265 -2.047,1.823 -3.449,3.463 -1.402,1.64 -3.432,3.899 -4.51,5.019 -1.078,1.121 -2.49,2.71 -3.137,3.531 -2.935,3.723 -4.502,5.926 -4.506,6.334 -0.002,0.243 -0.24,0.638 -0.528,0.877 -0.511,0.424 -1.443,2.186 -2.826,5.347 -0.378,0.863 -1.152,2.275 -1.72,3.138 -1.725,2.62 -1.985,3.331 -3.01,8.235 -1.667,7.973 -1.869,10.324 -1.188,13.892 1.12,5.876 1.448,7.623 1.85,9.833 0.215,1.187 0.573,2.951 0.795,3.922 1.095,4.78 0.623,10.196 -0.888,10.196 -0.183,0 -0.332,0.248 -0.332,0.551 0,0.631 -4.226,2.792 -6.275,3.209 -4.075,0.829 -16.517,-0.066 -25.098,-1.805 -5.464,-1.108 -8.793,-1.595 -13.333,-1.95 -2.696,-0.21 -7.108,-0.566 -9.804,-0.79 -17.934,-1.491 -20.679,-1.596 -47.486,-1.826 -26.539,-0.227 -47.325,0.142 -58.396,1.037 -2.265,0.183 -9.236,0.616 -15.491,0.962 -12.753,0.705 -22.94,1.595 -24.705,2.156 -5.178,1.647 -16.835,2.484 -20.589,1.478 -3.725,-0.998 -8.029,-4.212 -9.045,-6.754 -0.995,-2.491 -0.594,-10.259 0.689,-13.327 4.053,-9.696 3.928,-26.211 -0.245,-32.353 -0.66,-0.97 -1.2,-2.014 -1.201,-2.32 -0.005,-1.551 -3.509,-6.771 -6.053,-9.018 -3.356,-2.963 -5.599,-4.878 -9.456,-8.073 -2.344,-1.942 -4.76,-4.015 -5.371,-4.608 -0.61,-0.593 -1.366,-1.079 -1.679,-1.079 -0.314,0 -1.002,-0.661 -1.529,-1.47 -0.528,-0.809 -1.809,-2.309 -2.848,-3.334 -1.039,-1.024 -2.066,-2.038 -2.281,-2.252 -3.231,-3.21 -5.41,-5.101 -5.878,-5.101 -0.318,0 -0.693,-0.485 -0.833,-1.078 -0.26,-1.095 -1.594,-3.727 -3.329,-6.569 -0.527,-0.862 -1.205,-2.054 -1.506,-2.647 -0.301,-0.593 -0.667,-1.078 -0.814,-1.078 -0.146,0 -0.597,-0.75 -1.001,-1.667 -0.405,-0.916 -0.846,-1.755 -0.981,-1.863 -0.917,-0.73 -3.457,-11.3 -3.902,-16.235 -0.702,-7.781 -0.301,-20.477 0.773,-24.478 0.213,-0.794 0.823,-3.254 1.356,-5.468 0.533,-2.214 1.686,-5.54 2.561,-7.391 0.876,-1.852 1.593,-3.492 1.593,-3.644 0,-0.508 2.082,-4.527 3.205,-6.188 0.61,-0.901 1.109,-1.807 1.109,-2.013 0,-0.874 2.123,-4.121 3.774,-5.772 0.512,-0.512 0.932,-1.139 0.932,-1.391 0,-0.253 0.799,-1.276 1.776,-2.273 3.497,-3.57 5.65,-6.019 5.853,-6.659 0.113,-0.358 0.914,-1.088 1.779,-1.622 0.864,-0.535 1.572,-1.08 1.572,-1.212 0,-0.581 1.627,-2.027 3.194,-2.837 2.44,-1.261 3.516,-1.931 4.433,-2.758 0.442,-0.4 1.734,-1.172 2.87,-1.717 1.137,-0.544 2.159,-1.139 2.273,-1.322 0.113,-0.184 1.477,-0.939 3.031,-1.68 1.555,-0.74 3.875,-1.98 5.156,-2.754 2.012,-1.217 2.681,-1.414 4.902,-1.448 1.415,-0.021 3.543,-0.173 4.729,-0.337 3.385,-0.468 21.73,-0.453 29.157,0.023 m 10.546,79.612 c -3.311,0.551 -6.108,2.671 -7.279,5.514 -0.327,0.792 -1.093,1.963 -1.705,2.603 -3.184,3.333 -3.282,14.303 -0.166,18.503 1.301,1.753 1.805,2.719 2.163,4.143 0.158,0.631 0.408,1.237 0.556,1.347 0.147,0.11 0.972,1.252 1.831,2.539 0.86,1.286 2.358,3.139 3.329,4.117 3.119,3.144 5.061,5.641 6.336,8.147 0.684,1.345 1.533,2.757 1.886,3.137 0.646,0.695 1.438,2.098 2.823,5.005 0.412,0.862 0.906,1.856 1.1,2.208 0.52,0.944 1.107,4.728 1.408,9.068 0.542,7.81 2.371,10.047 8.881,10.865 3.874,0.486 6.042,-0.802 9.16,-5.441 3.21,-4.777 2.353,-22.937 -1.329,-28.188 -0.41,-0.584 -0.961,-1.767 -1.226,-2.63 -0.8,-2.612 -1.909,-4.802 -2.914,-5.759 -0.713,-0.679 -1.224,-2.044 -2.026,-5.417 -0.591,-2.481 -1.405,-5.1 -1.81,-5.821 -0.406,-0.721 -1.26,-2.898 -1.9,-4.838 -0.639,-1.94 -1.598,-4.35 -2.131,-5.356 -0.533,-1.006 -1.25,-2.831 -1.594,-4.056 -1.214,-4.322 -5.151,-8.11 -9.94,-9.564 -2.019,-0.613 -2.471,-0.623 -5.453,-0.126 m 128.14,0.037 c -3.554,1.52 -4.371,1.977 -5.269,2.945 -0.553,0.596 -1.005,1.312 -1.005,1.591 0,0.278 -0.859,1.339 -1.91,2.357 -1.971,1.91 -4.427,6.44 -4.936,9.105 -0.144,0.755 -0.406,1.814 -0.581,2.353 -0.176,0.539 -0.545,1.951 -0.821,3.137 -0.275,1.187 -0.722,2.334 -0.993,2.549 -0.855,0.682 -2.525,4.306 -3.182,6.906 -0.349,1.378 -1.046,3.048 -1.549,3.71 -0.503,0.662 -1.456,2.426 -2.117,3.921 -0.662,1.495 -1.367,3.071 -1.568,3.503 -1.935,4.155 -2.644,25.838 -0.991,30.295 1.262,3.401 3.435,4.805 7.432,4.8 6.742,-0.007 8.942,-3.101 10.033,-14.115 0.267,-2.696 0.702,-5.167 0.966,-5.49 0.264,-0.324 0.716,-1.206 1.005,-1.961 0.289,-0.755 0.847,-1.841 1.241,-2.414 0.394,-0.572 0.716,-1.225 0.716,-1.45 0,-0.225 0.462,-0.904 1.026,-1.508 0.945,-1.012 2.958,-3.757 5.158,-7.033 0.489,-0.729 1.923,-2.35 3.186,-3.601 1.263,-1.252 2.57,-2.795 2.904,-3.429 0.334,-0.634 1.2,-1.706 1.926,-2.381 3.009,-2.8 6.192,-8.839 6.192,-11.748 0,-0.479 0.375,-1.574 0.833,-2.432 l 0.833,-1.561 -0.802,-2.496 c -0.44,-1.373 -0.917,-3.202 -1.058,-4.065 -1.318,-8.038 -10.285,-14.219 -16.669,-11.488 m 6.718,2.371 c 10.109,5.265 12.05,18.885 3.943,27.666 -0.855,0.926 -2.221,2.69 -3.035,3.92 -0.814,1.231 -2.408,3.208 -3.543,4.394 -2.254,2.357 -2.964,3.164 -4.539,5.152 -0.575,0.725 -1.41,1.739 -1.856,2.253 -0.446,0.514 -1.541,2.264 -2.433,3.89 -0.892,1.625 -1.927,3.283 -2.3,3.683 -0.906,0.972 -1.652,4.522 -2.331,11.1 -0.515,4.982 -2.928,9.608 -5.012,9.608 -0.282,0 -0.514,0.177 -0.514,0.392 0,1.146 -4.974,0.407 -6.317,-0.939 -2.871,-2.875 -3.241,-4.464 -3.214,-13.813 0.026,-8.981 0.766,-12.389 4.263,-19.637 0.956,-1.983 1.739,-3.87 1.739,-4.193 0,-0.323 0.176,-0.696 0.392,-0.829 0.216,-0.134 0.392,-0.588 0.392,-1.009 0,-0.422 0.146,-1.073 0.325,-1.448 0.179,-0.374 0.971,-2.004 1.76,-3.622 0.79,-1.617 1.89,-4.353 2.445,-6.078 0.555,-1.726 1.158,-3.49 1.34,-3.922 0.181,-0.431 0.901,-2.252 1.599,-4.046 0.698,-1.794 1.492,-3.486 1.766,-3.76 0.273,-0.273 1.109,-1.452 1.857,-2.62 2.936,-4.58 5.4,-6.101 11.322,-6.986 0.142,-0.021 1.02,0.358 1.951,0.844 m -127.698,1.047 c 4.337,2.518 7.116,6.457 7.835,11.106 0.377,2.431 0.923,4.117 2.194,6.768 1.388,2.897 4.249,10.101 4.75,11.961 0.456,1.694 2.203,5.396 2.686,5.695 0.857,0.53 1.819,3.313 4.51,13.05 2.754,9.967 -1.29,23.157 -7.015,22.876 -5.595,-0.275 -7.552,-3.053 -8.462,-12.013 -0.794,-7.809 -1.033,-8.591 -4.075,-13.334 -1.523,-2.372 -2.886,-4.401 -3.031,-4.509 -0.145,-0.108 -0.547,-0.75 -0.893,-1.426 -0.347,-0.677 -1.474,-2.154 -2.506,-3.282 -1.031,-1.129 -2.195,-2.55 -2.585,-3.158 -0.391,-0.609 -1.329,-1.779 -2.085,-2.601 -0.756,-0.822 -1.748,-2.156 -2.205,-2.965 -0.457,-0.809 -0.975,-1.47 -1.151,-1.47 -0.176,0 -0.324,-0.221 -0.329,-0.49 -0.005,-0.27 -0.354,-0.932 -0.775,-1.471 -0.422,-0.539 -0.771,-1.212 -0.776,-1.496 -0.005,-0.283 -0.421,-1.43 -0.924,-2.549 -1.994,-4.431 -2.279,-7.86 -0.911,-10.955 0.31,-0.701 0.86,-2.059 1.222,-3.017 2.626,-6.951 9.027,-9.912 14.526,-6.72 m 56.078,153.396 c -1.078,0.203 -3.108,0.55 -4.509,0.772 -1.402,0.221 -3.52,0.562 -4.706,0.757 -2.824,0.465 -8.715,1.078 -15.294,1.591 -6.099,0.476 -10.793,0.926 -16.079,1.54 -4.986,0.579 -11.307,1.087 -19.608,1.575 -6.301,0.37 -8.297,0.587 -14.51,1.576 -1.186,0.189 -3.48,0.542 -5.098,0.785 -1.617,0.243 -3.911,0.599 -5.098,0.79 -1.186,0.192 -4.804,0.457 -8.039,0.59 -18.088,0.742 -29.329,5.329 -32.92,13.433 -0.356,0.804 -0.846,1.814 -1.089,2.246 -1.392,2.47 -2.658,5.034 -2.658,5.383 0,0.39 -1.675,4.516 -2.389,5.886 -0.196,0.374 -0.357,1.168 -0.358,1.765 -0.001,0.596 -0.165,1.701 -0.364,2.456 -0.199,0.755 -0.551,4.461 -0.784,8.235 -0.232,3.775 -0.53,7.966 -0.662,9.314 l -0.24,2.451 h 1.418 1.419 v -3.399 c 0,-1.87 0.179,-4.561 0.398,-5.981 0.22,-1.419 0.589,-3.816 0.82,-5.326 1.044,-6.807 2.115,-10.435 5.118,-17.349 0.398,-0.914 0.723,-1.839 0.723,-2.054 0,-1.493 6.224,-8.085 8.627,-9.137 0.971,-0.425 2.547,-1.123 3.503,-1.551 3.179,-1.423 5.267,-1.822 11.791,-2.251 14.093,-0.927 17.484,-1.366 24.118,-3.118 0.862,-0.228 4.304,-0.59 7.647,-0.804 19.787,-1.268 22.267,-1.545 26.395,-2.946 1.85,-0.629 9.075,-1.209 22.036,-1.77 7.863,-0.34 12.16,-0.749 16.471,-1.568 6.772,-1.286 16.47,-1.503 20.98,-0.469 3.293,0.756 8.018,1.229 16.275,1.63 4.529,0.221 10.176,0.582 12.549,0.803 9.188,0.856 12.227,1.196 14.117,1.577 1.079,0.218 5.049,0.568 8.824,0.777 11.386,0.632 32.112,2.185 33.529,2.513 0.432,0.099 2.373,0.554 4.314,1.01 6.518,1.53 9.719,2.156 13.137,2.57 1.246,0.152 3.068,0.762 4.314,1.447 1.186,0.653 2.904,1.588 3.817,2.08 1.686,0.908 2.85,1.867 2.85,2.349 0,0.146 0.503,0.909 1.118,1.695 1.053,1.345 1.9,2.76 2.735,4.566 0.375,0.811 1.363,4.527 2.293,8.627 0.294,1.295 0.721,3.147 0.95,4.118 0.791,3.356 1.091,7.284 1.115,14.608 l 0.024,7.353 h 1.961 1.96 v -6.211 c 0,-5.672 -0.438,-9.991 -1.557,-15.358 -0.203,-0.97 -0.572,-2.823 -0.822,-4.117 -0.249,-1.295 -0.61,-2.521 -0.801,-2.726 -0.192,-0.205 -0.349,-0.692 -0.349,-1.083 0,-0.39 -0.336,-1.458 -0.746,-2.372 -0.41,-0.914 -1.232,-2.986 -1.826,-4.604 -3.084,-8.395 -10.794,-13.52 -22.134,-14.711 -1.186,-0.125 -3.039,-0.4 -4.117,-0.613 -7.715,-1.518 -12.639,-2.32 -16.667,-2.714 -8.032,-0.786 -14.512,-1.176 -22.745,-1.368 -9.078,-0.213 -15.783,-0.666 -20.588,-1.393 -6.04,-0.914 -12.035,-1.589 -17.255,-1.946 -5.833,-0.398 -10.811,-0.916 -15.294,-1.59 -3.768,-0.567 -15.642,-0.79 -18.04,-0.339"
     stroke="none"
     fill="#3c3c3c"
     fill-rule="evenodd" />
</svg>
