<?xml version="1.0" encoding="UTF-8" standalone="no"?>
<svg
   id="svg"
   version="1.1"
   width="400"
   height="463.82978723404256"
   viewBox="0, 0, 400,463.82978723404256"
   sodipodi:docname="bn.svg"
   inkscape:version="1.1.2 (0a00cf5339, 2022-02-04)"
   xmlns:inkscape="http://www.inkscape.org/namespaces/inkscape"
   xmlns:sodipodi="http://sodipodi.sourceforge.net/DTD/sodipodi-0.dtd"
   xmlns="http://www.w3.org/2000/svg"
   xmlns:svg="http://www.w3.org/2000/svg">
  <defs
     id="defs6795" />
  <sodipodi:namedview
     id="namedview6793"
     pagecolor="#ffffff"
     bordercolor="#cccccc"
     borderopacity="1"
     inkscape:pageshadow="0"
     inkscape:pageopacity="1"
     inkscape:pagecheckerboard="0"
     showgrid="false"
     inkscape:zoom="0.89285551"
     inkscape:cx="206.08038"
     inkscape:cy="279.44051"
     inkscape:window-width="1680"
     inkscape:window-height="1014"
     inkscape:window-x="1920"
     inkscape:window-y="0"
     inkscape:window-maximized="1"
     inkscape:current-layer="svg" />
  <path
     id="path0"
     d="m 141.589,52.871 c -1.434,1.343 -3.447,4.645 -4.103,6.729 -0.312,0.99 -0.952,3.06 -1.422,4.6 -0.471,1.54 -1.218,3.955 -1.66,5.366 -0.442,1.411 -0.804,2.818 -0.804,3.126 0,0.563 -2.153,5.27 -3.434,7.508 -1.018,1.779 -1.366,2.542 -1.366,2.999 0,1.608 -4.462,8.884 -7.011,11.434 -0.984,0.983 -1.789,1.974 -1.789,2.201 0,0.315 -8.322,8.779 -11.174,11.366 -0.243,0.22 -1.203,1.213 -2.134,2.207 -0.93,0.994 -3.132,3.158 -4.892,4.809 -4.468,4.192 -5.638,5.579 -7.141,8.465 -0.721,1.386 -1.798,3.352 -2.392,4.369 -0.892,1.528 -1.184,2.781 -1.68,7.2 -1.49,13.285 -1.635,14.179 -2.981,18.35 -0.39,1.21 -1.014,3.221 -1.385,4.469 -0.372,1.248 -1.294,3.295 -2.049,4.549 -0.754,1.253 -1.372,2.432 -1.372,2.618 0,0.571 -1.598,3.255 -3.193,5.364 -0.832,1.1 -1.832,2.63 -2.222,3.4 -0.646,1.277 -2.09,3.508 -2.587,4 -0.112,0.11 -0.709,0.879 -1.328,1.709 -0.618,0.83 -1.521,1.91 -2.005,2.4 -0.485,0.49 -1.73,2 -2.769,3.355 -1.038,1.356 -4.098,4.72 -6.8,7.477 -2.701,2.757 -5.347,5.608 -5.879,6.336 -0.532,0.728 -1.278,1.547 -1.658,1.822 -0.38,0.274 -1.671,1.894 -2.869,3.6 -1.766,2.513 -4.201,5.833 -6.979,9.513 -0.171,0.227 -0.651,1.037 -1.068,1.8 -0.416,0.763 -1.212,1.881 -1.77,2.483 -0.558,0.603 -1.848,2.763 -2.867,4.8 -1.019,2.038 -2.981,5.685 -4.36,8.105 -2.239,3.931 -2.933,5.663 -4.028,10.053 -0.172,0.689 -0.422,1.431 -0.557,1.648 -0.134,0.217 -0.532,1.454 -0.883,2.747 -3.97,14.616 -2.512,25.417 4.222,31.278 1.43,1.244 2.69,2.355 2.8,2.468 1.37,1.41 4.877,3.811 7.6,5.203 1.87,0.956 3.862,1.974 4.427,2.263 3.101,1.587 10.21,2.116 14.728,1.096 3.333,-0.753 7.206,-3.976 9.115,-7.585 0.574,-1.084 1.16,-2.061 1.302,-2.171 0.143,-0.11 1.332,-1.788 2.644,-3.729 4.165,-6.165 4.789,-6.988 7.241,-9.556 4.266,-4.468 5.982,-5.694 9.343,-6.68 2.568,-0.753 4.026,-1.253 5.4,-1.852 0.66,-0.287 3.18,-1.183 5.6,-1.991 2.42,-0.807 4.58,-1.597 4.8,-1.756 0.711,-0.511 7.176,-2.368 11.4,-3.275 1.21,-0.259 3.177,-0.926 4.372,-1.481 2.02,-0.939 5.934,-2.152 9.228,-2.862 0.77,-0.165 3.091,-1.137 5.157,-2.16 2.067,-1.022 3.904,-1.858 4.082,-1.858 0.179,0 1.548,-0.56 3.043,-1.243 1.495,-0.684 3.078,-1.385 3.518,-1.557 0.44,-0.173 1.769,-0.693 2.953,-1.157 1.185,-0.464 2.389,-0.843 2.678,-0.843 0.288,0 0.759,-0.336 1.046,-0.746 0.288,-0.41 1.423,-1.308 2.523,-1.995 3.592,-2.245 14.286,-12.411 16.505,-15.69 7.017,-10.371 19.783,-5.892 22.894,8.031 0.27,1.21 0.869,3.37 1.331,4.8 1.173,3.631 1.265,17.646 0.142,21.4 -0.396,1.32 -1.047,3.66 -1.447,5.2 -0.963,3.7 -1.916,6.036 -3.294,8.072 -0.622,0.92 -1.131,1.785 -1.131,1.922 0,1.181 -10.433,12.99 -11.497,13.012 -0.33,0.007 -2.051,1.47 -4.974,4.228 -1.029,0.971 -2.039,1.766 -2.244,1.766 -0.205,0 -1.163,0.692 -2.129,1.538 -0.966,0.846 -2.492,2 -3.392,2.565 -0.9,0.564 -1.913,1.304 -2.252,1.642 -0.339,0.339 -1.943,1.29 -3.564,2.114 -1.621,0.824 -3.534,1.998 -4.249,2.608 -0.716,0.611 -2.329,1.581 -3.586,2.156 -1.256,0.574 -2.741,1.367 -3.299,1.762 -1.792,1.267 -10.406,5.56 -12.95,6.455 -1.355,0.476 -3.945,1.562 -5.756,2.413 -1.81,0.851 -3.555,1.547 -3.876,1.547 -0.322,0 -0.696,0.18 -0.832,0.4 -0.136,0.22 -0.57,0.4 -0.964,0.4 -0.394,0 -1.599,0.472 -2.676,1.049 -1.078,0.577 -3.4,1.774 -5.16,2.661 -1.76,0.887 -3.29,1.74 -3.4,1.895 -0.11,0.156 -1.524,0.965 -3.143,1.799 -1.662,0.857 -3.837,2.419 -5,3.59 -1.131,1.14 -2.259,2.148 -2.505,2.24 -0.57,0.211 -3.142,4.245 -3.549,5.566 -0.169,0.55 -0.664,1.505 -1.099,2.123 -0.435,0.618 -0.727,1.178 -0.648,1.245 2.002,1.705 4.108,2.241 7.277,1.853 1.797,-0.22 4.257,-0.501 5.467,-0.626 1.21,-0.124 16.78,-0.388 34.6,-0.586 31.743,-0.352 45.193,-0.767 51.6,-1.594 1.76,-0.227 4.46,-0.576 6,-0.776 12.942,-1.678 13.326,-1.694 36.41,-1.501 12.315,0.103 23.65,0.369 25.19,0.589 1.54,0.221 4.24,0.608 6,0.861 6.37,0.913 10.165,1.226 19.4,1.602 9.277,0.377 16.944,0.921 22.8,1.618 9.586,1.14 13.125,0.963 17.205,-0.859 3.981,-1.777 5.456,-14.347 3.773,-32.149 -1.528,-16.162 -1.754,-20.487 -1.766,-33.782 -0.014,-16.482 -0.536,-23.18 -2.845,-36.518 -0.649,-3.754 -1.027,-5.6 -2.308,-11.3 -0.643,-2.86 -1.383,-6.28 -1.644,-7.6 -0.887,-4.487 -1.544,-6.655 -3.028,-10.005 -0.489,-1.102 -1.293,-3.262 -1.788,-4.8 -1.159,-3.607 -2.062,-5.8 -2.614,-6.354 -0.242,-0.242 -1.22,-1.881 -2.172,-3.641 -0.953,-1.76 -2.028,-3.65 -2.39,-4.2 -0.362,-0.55 -1.097,-1.9 -1.632,-3 -0.536,-1.1 -1.458,-2.63 -2.049,-3.4 -1.266,-1.649 -2.742,-4.251 -2.742,-4.836 0,-0.444 -2.406,-3.678 -2.9,-3.897 -0.165,-0.074 -0.301,-0.344 -0.302,-0.6 -10e-4,-0.257 -0.504,-1.007 -1.118,-1.667 -1.29,-1.385 -3.245,-4.261 -4.081,-6 -0.318,-0.66 -1.257,-1.889 -2.088,-2.731 -0.831,-0.842 -1.511,-1.772 -1.511,-2.066 0,-0.295 -0.135,-0.596 -0.3,-0.67 -0.591,-0.262 -4.085,-4.391 -6.88,-8.13 -0.98,-1.31 -2.06,-2.715 -2.4,-3.123 -2.257,-2.698 -10.024,-10.142 -12.397,-11.88 -1.684,-1.233 -3.755,-2.901 -4.023,-3.24 -0.11,-0.139 -1.01,-0.661 -2,-1.16 -0.99,-0.499 -1.89,-1.03 -2,-1.18 -0.11,-0.15 -1.01,-0.853 -2,-1.561 -0.99,-0.709 -2.7,-2.001 -3.8,-2.872 -1.1,-0.87 -2.225,-1.584 -2.5,-1.585 -0.275,-0.001 -0.5,-0.138 -0.5,-0.304 0,-0.167 -0.495,-0.522 -1.1,-0.79 -0.605,-0.268 -1.66,-0.987 -2.345,-1.598 -0.685,-0.61 -2.395,-1.673 -3.8,-2.36 -4.881,-2.389 -7.907,-3.75 -8.335,-3.75 -0.237,0 -0.743,-0.164 -1.125,-0.364 -4.404,-2.305 -7.381,-3.311 -14.495,-4.899 -1.87,-0.418 -4.48,-1.028 -5.8,-1.357 -4.247,-1.059 -7.504,-1.652 -11.8,-2.147 -6.56,-0.757 -9.134,-1.49 -14.6,-4.161 -2.2,-1.075 -4.1,-2.114 -4.221,-2.309 -0.122,-0.196 -1.292,-0.88 -2.6,-1.522 -3.79,-1.859 -11.083,-8.326 -13.579,-12.042 -0.66,-0.983 -2.613,-3.229 -4.34,-4.993 -2.993,-3.055 -8.108,-9.462 -9.165,-11.478 C 160.51,65.611 152.73,57.88 151,56.697 c -0.66,-0.452 -1.92,-1.492 -2.8,-2.311 -0.88,-0.819 -2.117,-1.607 -2.75,-1.75 -0.633,-0.144 -1.537,-0.359 -2.01,-0.478 -0.567,-0.143 -1.198,0.1 -1.851,0.713 M 203.2,371.603 c -2.09,0.169 -6.178,0.328 -9.084,0.352 -5.622,0.048 -9.167,0.423 -19.316,2.047 -5.54,0.886 -11.453,1.22 -28.2,1.589 -12.552,0.277 -18.787,0.567 -20.6,0.957 -13.935,2.999 -16.849,3.452 -22.192,3.452 -14.893,0 -23.935,3.472 -27.673,10.625 -0.624,1.195 -1.27,2.174 -1.435,2.174 -0.165,0.001 -0.3,0.246 -0.3,0.546 0,0.501 -1.346,3.729 -3.192,7.655 -0.87,1.853 -1.008,2.591 -1.785,9.6 -2.406,21.695 -1.319,28.448 4.868,30.245 2.811,0.817 271.381,0.833 274.109,0.016 2.401,-0.718 2.87,-0.978 3.373,-1.871 0.235,-0.416 0.645,-0.995 0.912,-1.287 2.636,-2.883 2.701,-16.678 0.156,-33.103 -1.726,-11.133 -8.775,-21.512 -15.695,-23.107 -0.52,-0.12 -2.026,-0.517 -3.346,-0.883 -2.249,-0.623 -3.104,-0.843 -6.9,-1.78 -1.464,-0.361 -3.42,-0.735 -8.3,-1.587 -1.32,-0.23 -4.92,-0.619 -8,-0.864 -5.004,-0.397 -7.886,-0.775 -15.4,-2.018 -6.5,-1.075 -8.721,-1.263 -19,-1.609 -6.16,-0.208 -13.9,-0.552 -17.2,-0.765 -7.646,-0.494 -50.77,-0.79 -55.8,-0.384"
     stroke="none"
     fill="#0c0c0c"
     fill-rule="evenodd" />
  <path
     id="path1"
     d="M 0,231.8 V 463.6 H 200 400 V 231.8 0 H 200 0 V 231.8 M 146.515,42.992 c 2.77,1.161 14.505,12.116 18.218,17.008 0.584,0.77 1.165,1.49 1.291,1.6 0.126,0.11 0.837,1.093 1.58,2.185 0.743,1.091 1.856,2.513 2.474,3.159 0.617,0.646 1.122,1.403 1.122,1.682 0,0.28 1.374,1.918 3.053,3.641 1.679,1.723 3.736,4.139 4.57,5.368 0.835,1.229 2.026,2.562 2.648,2.963 0.621,0.401 1.578,1.262 2.127,1.913 0.549,0.652 1.809,1.737 2.8,2.412 0.991,0.675 2.072,1.517 2.402,1.871 0.33,0.354 1.23,1.081 2,1.616 0.77,0.535 1.81,1.379 2.312,1.875 0.998,0.987 4.932,2.915 5.949,2.915 0.351,0 2.484,0.618 4.741,1.373 2.256,0.755 4.709,1.464 5.45,1.576 2.083,0.314 6.994,0.981 10.748,1.46 4.014,0.512 6.717,1.094 13.8,2.97 3.506,0.929 7.97,2.715 8.6,3.441 0.11,0.126 1.28,0.565 2.6,0.974 2.14,0.663 6.474,2.752 7,3.374 0.11,0.13 1.28,0.786 2.6,1.458 6.617,3.367 9.105,4.821 10.663,6.231 0.938,0.849 1.937,1.543 2.221,1.543 0.284,0 0.516,0.168 0.516,0.373 0,0.205 0.344,0.482 0.763,0.615 0.42,0.134 1.365,0.782 2.1,1.44 0.736,0.659 1.832,1.501 2.437,1.871 0.605,0.371 1.1,0.815 1.1,0.987 0,0.173 0.27,0.314 0.6,0.314 0.33,0 0.6,0.168 0.6,0.373 0,0.205 0.354,0.486 0.787,0.623 0.433,0.137 2.188,1.589 3.9,3.226 1.712,1.637 3.226,2.977 3.365,2.977 0.138,0.001 0.948,0.712 1.8,1.581 1.941,1.981 1.829,1.871 4.969,4.895 1.442,1.389 3.194,3.363 3.894,4.388 0.7,1.025 1.77,2.384 2.379,3.021 0.608,0.637 1.466,1.683 1.906,2.325 0.44,0.641 1.566,1.964 2.502,2.939 0.937,0.975 2.237,2.601 2.89,3.612 0.653,1.012 1.359,2.044 1.569,2.292 0.21,0.249 0.857,1.363 1.439,2.475 0.582,1.113 1.334,2.252 1.671,2.532 0.823,0.683 3.553,4.737 3.871,5.75 0.14,0.444 0.75,1.367 1.356,2.049 0.606,0.683 1.373,1.579 1.705,1.992 0.692,0.86 4.318,6.958 5.204,8.75 0.326,0.66 0.879,1.518 1.229,1.907 0.628,0.698 1.292,1.946 2.071,3.893 0.22,0.55 0.545,1.36 0.721,1.8 0.177,0.44 0.434,1.201 0.571,1.692 0.138,0.491 0.824,1.846 1.525,3.012 0.702,1.165 1.613,2.924 2.025,3.907 0.411,0.984 1.074,2.509 1.472,3.389 0.747,1.65 1.896,5.049 2.772,8.2 0.275,0.99 0.827,2.7 1.225,3.8 1.756,4.846 2.415,7.88 3.605,16.6 0.256,1.87 0.618,3.85 0.805,4.4 2.199,6.468 3.096,16.935 3.598,42 0.204,10.23 0.548,20.22 0.764,22.2 0.216,1.98 0.509,9.167 0.651,15.971 0.463,22.174 -0.744,26.568 -8.438,30.717 l -2.403,1.296 -6.4,-0.036 c -3.52,-0.02 -8.02,-0.236 -10,-0.481 -4.168,-0.515 -10.143,-1.074 -17.8,-1.666 -14.119,-1.091 -21.452,-1.973 -27.6,-3.319 -3.106,-0.68 -60.617,-0.688 -63.2,-0.009 -3.161,0.831 -9.99,1.916 -15.8,2.51 -2.2,0.225 -5.89,0.606 -8.2,0.846 -2.312,0.24 -18.495,0.583 -36,0.763 -30.206,0.31 -33.19,0.43 -40,1.604 -19.772,3.411 -24.124,-6.443 -9.418,-21.323 5.104,-5.164 6.971,-6.784 10.087,-8.753 1.062,-0.671 2.024,-1.365 2.137,-1.542 0.245,-0.383 4.731,-2.778 5.201,-2.778 0.524,0 3.655,-1.514 5.393,-2.607 0.88,-0.554 1.96,-1.165 2.4,-1.359 0.44,-0.194 2.15,-0.979 3.8,-1.745 1.65,-0.766 3.9,-1.693 5,-2.062 1.1,-0.368 3.71,-1.489 5.8,-2.491 3.883,-1.861 4.364,-2.071 6.8,-2.974 0.77,-0.285 2.03,-1.011 2.8,-1.614 1.355,-1.062 3.963,-2.515 9.8,-5.464 1.54,-0.777 3.43,-1.931 4.2,-2.563 0.77,-0.632 1.596,-1.303 1.836,-1.491 0.241,-0.189 1.311,-0.808 2.38,-1.377 1.068,-0.569 2.312,-1.455 2.763,-1.969 0.452,-0.514 1.631,-1.501 2.621,-2.193 0.99,-0.693 2.52,-1.914 3.4,-2.713 0.88,-0.799 2.919,-2.642 4.531,-4.096 1.612,-1.453 3.199,-3.16 3.527,-3.794 0.327,-0.633 1.08,-1.658 1.672,-2.278 0.593,-0.62 1.506,-1.911 2.031,-2.868 2.131,-3.892 4.039,-7.913 4.039,-8.514 0,-0.351 0.162,-0.951 0.361,-1.333 0.199,-0.382 0.579,-1.505 0.846,-2.495 0.267,-0.99 0.688,-2.34 0.936,-3 1.02,-2.717 0.39,-13.978 -0.963,-17.2 -0.184,-0.44 -0.854,-2.347 -1.489,-4.238 -1.203,-3.586 -4.087,-7.896 -5.312,-7.94 -2.249,-0.08 -5.567,2.602 -8.379,6.775 -1.471,2.182 -2.414,3.206 -6.27,6.803 -5.021,4.684 -7.318,6.658 -8.403,7.217 -0.62,0.32 -1.217,0.674 -1.327,0.788 -0.22,0.227 -2.232,1.216 -6.8,3.344 -1.65,0.769 -3.45,1.665 -4,1.992 -0.55,0.327 -2.08,0.978 -3.4,1.447 -1.32,0.468 -3.12,1.227 -4,1.686 -3.425,1.785 -4.49,2.254 -7,3.084 -4.668,1.543 -5.797,1.864 -16.4,4.658 -0.55,0.145 -1.608,0.535 -2.35,0.866 -1.985,0.886 -5.894,1.95 -9.911,2.698 -2.064,0.384 -4.956,1.305 -6.939,2.21 -5.231,2.387 -7.161,3.21 -7.526,3.21 -0.505,0 -5.68,4.938 -5.677,5.417 0.002,0.229 -0.815,1.309 -1.814,2.4 -0.999,1.091 -2.31,2.978 -2.911,4.195 -7.61,15.385 -17.528,21.555 -28.906,17.982 -1.411,-0.443 -3.286,-1.007 -4.166,-1.253 -6.383,-1.787 -12.711,-4.89 -14.6,-7.161 -0.11,-0.132 -1.28,-0.976 -2.6,-1.875 -1.32,-0.899 -2.76,-2.192 -3.2,-2.872 -0.44,-0.681 -1.089,-1.33 -1.441,-1.444 -2.078,-0.667 -5.982,-7.074 -7.185,-11.789 -0.942,-3.696 -0.399,-15.58 1.015,-22.2 1,-4.683 1.437,-6.143 2.658,-8.896 0.414,-0.932 0.753,-1.866 0.753,-2.075 0,-0.325 1.564,-3.502 3.066,-6.229 0.583,-1.058 1.168,-2.466 1.788,-4.301 0.279,-0.825 1.19,-2.402 2.024,-3.504 0.834,-1.102 2.146,-3.217 2.915,-4.699 1.91,-3.681 3.341,-6.087 4.03,-6.776 0.317,-0.317 0.579,-0.699 0.58,-0.849 0.002,-0.149 0.587,-0.904 1.3,-1.677 0.714,-0.773 1.637,-2.033 2.052,-2.8 0.415,-0.767 1.332,-2.024 2.037,-2.794 0.706,-0.77 1.707,-2.03 2.226,-2.8 0.519,-0.77 1.051,-1.49 1.182,-1.6 0.131,-0.11 0.673,-0.821 1.204,-1.581 1.02,-1.458 3.395,-4.049 8.496,-9.269 1.705,-1.745 3.105,-3.303 3.111,-3.461 0.006,-0.159 1.316,-1.671 2.91,-3.36 1.595,-1.69 3.332,-3.85 3.859,-4.8 0.528,-0.951 1.076,-1.819 1.217,-1.929 0.971,-0.757 7.203,-10.256 7.203,-10.979 0,-0.13 0.679,-1.357 1.508,-2.728 1.371,-2.265 2.004,-3.841 2.688,-6.693 0.587,-2.441 1.442,-5.466 1.754,-6.2 0.186,-0.44 0.645,-1.505 1.02,-2.366 0.663,-1.526 1.094,-4.271 1.829,-11.634 1.214,-12.159 5.717,-19.44 17.455,-28.221 1.13,-0.845 2.447,-2.041 2.927,-2.658 0.479,-0.617 3.611,-3.911 6.959,-7.321 3.348,-3.41 6.401,-6.868 6.785,-7.684 0.383,-0.816 1.278,-2.256 1.988,-3.2 1.347,-1.792 2.667,-4.336 3.486,-6.716 0.265,-0.77 0.633,-1.76 0.817,-2.2 0.402,-0.961 1.682,-5.092 2.603,-8.4 0.367,-1.32 1.095,-3.519 1.617,-4.887 0.523,-1.368 1.062,-3.258 1.198,-4.2 1.696,-11.737 8.658,-18.116 16.281,-14.921 M 252.2,364.765 c 11.346,1.076 14.927,1.287 28,1.644 7.7,0.211 14.72,0.479 15.6,0.596 0.88,0.116 2.86,0.384 4.4,0.595 3.427,0.469 8.235,1.029 13.8,1.609 5.178,0.539 7.962,1.028 12.6,2.214 1.98,0.507 4.5,1.036 5.6,1.176 6.242,0.798 11.215,2.359 12.909,4.053 0.301,0.301 0.742,0.548 0.98,0.548 0.47,0 6.311,5.967 6.311,6.448 0,0.162 0.248,0.543 0.552,0.847 0.859,0.859 3.619,6.304 4.209,8.305 0.293,0.99 0.674,2.25 0.847,2.8 0.174,0.55 0.533,1.9 0.799,3 0.266,1.1 0.801,2.99 1.189,4.2 1.881,5.875 2.406,11.214 2.394,24.364 -0.016,17.991 -1.07,19.954 -11.39,21.206 -7.418,0.9 -279.728,0.431 -282.8,-0.487 -7.208,-2.153 -9.002,-7.787 -7.792,-24.462 0.781,-10.774 1.51,-16.033 2.856,-20.621 0.793,-2.7 0.912,-3.02 2.232,-6 0.439,-0.99 1.191,-3.06 1.671,-4.6 1.115,-3.571 1.58,-4.523 2.931,-6 0.604,-0.66 1.099,-1.343 1.1,-1.517 0.006,-0.993 5.164,-6.069 7.202,-7.088 0.99,-0.495 2.25,-1.215 2.8,-1.6 3.024,-2.118 8.704,-3.075 20,-3.369 10.393,-0.271 10.042,-0.224 20.2,-2.747 2.2,-0.547 4.99,-1.206 6.2,-1.465 1.397,-0.299 10.053,-0.599 23.705,-0.822 11.827,-0.193 21.653,-0.442 21.834,-0.554 0.525,-0.325 11.505,-1.136 30.261,-2.236 4.4,-0.258 8.09,-0.56 8.2,-0.671 0.352,-0.356 36.033,0.201 40.6,0.634"
     stroke="none"
     fill="#f2f2f2"
     fill-rule="evenodd"
     style="fill:none" />
  <path
     id="path2"
     d="m 140.595,47.191 c -2.161,1.2 -4.425,4 -5.991,7.409 -0.967,2.106 -1.376,3.579 -2.445,8.8 -1.367,6.676 -1.287,6.4 -2.775,9.6 -0.512,1.1 -1.312,2.975 -1.778,4.168 -0.466,1.192 -1.173,2.902 -1.57,3.8 -0.397,0.897 -0.972,2.217 -1.277,2.932 -0.305,0.715 -0.69,1.3 -0.857,1.3 -0.166,0 -0.302,0.209 -0.302,0.464 0,0.255 -0.691,1.38 -1.535,2.5 -0.844,1.12 -1.764,2.467 -2.045,2.994 -0.82,1.539 -16.943,17.873 -20.42,20.688 -2.039,1.65 -6,5.661 -6,6.075 0,0.195 -0.461,0.878 -1.025,1.517 -2.843,3.223 -4.247,7.607 -5.368,16.762 -1.111,9.07 -1.348,10.23 -3.096,15.2 -0.541,1.54 -1.435,4.15 -1.985,5.8 -0.867,2.602 -1.537,4.108 -3.87,8.697 -0.251,0.493 -0.591,0.898 -0.756,0.9 -0.165,0.002 -0.3,0.186 -0.3,0.409 0,0.369 -2.696,4.72 -3.218,5.194 -0.121,0.11 -0.653,0.83 -1.182,1.6 -0.529,0.77 -1.069,1.49 -1.2,1.6 -0.131,0.11 -0.674,0.83 -1.206,1.6 -0.532,0.77 -1.199,1.638 -1.481,1.929 -0.282,0.29 -0.513,0.7 -0.513,0.91 0,0.445 -3.324,4.186 -8.519,9.588 -5.269,5.479 -7.619,8.078 -8.698,9.621 -0.519,0.744 -1.044,1.442 -1.166,1.552 -0.122,0.11 -0.713,0.859 -1.313,1.665 -0.601,0.806 -1.323,1.706 -1.605,2 -1.003,1.045 -4.374,5.72 -4.988,6.918 -0.342,0.669 -0.744,1.307 -0.893,1.417 -0.522,0.385 -2.818,3.948 -2.818,4.372 0,0.235 -0.18,0.428 -0.4,0.428 -0.22,0 -0.4,0.181 -0.4,0.403 0,0.222 -1.286,2.517 -2.858,5.1 -3.42,5.622 -3.974,6.712 -5.124,10.097 -0.485,1.43 -1.325,3.565 -1.866,4.745 -2.255,4.916 -3.521,10.413 -4.572,19.855 -0.81,7.271 1.006,15.352 4.22,18.785 0.88,0.939 2.322,2.497 3.205,3.462 1.999,2.185 3.554,3.418 7.504,5.953 5.524,3.546 7.75,4.476 15.291,6.389 8.951,2.272 17.978,-2.076 22.401,-10.789 0.391,-0.77 0.832,-1.49 0.981,-1.6 0.522,-0.385 2.818,-3.948 2.818,-4.372 0,-0.235 0.136,-0.428 0.302,-0.428 0.167,0 0.527,-0.506 0.801,-1.125 0.273,-0.619 0.812,-1.474 1.197,-1.9 0.385,-0.427 1.235,-1.491 1.89,-2.366 3.209,-4.291 9.135,-8.621 13.01,-9.506 1.187,-0.272 5.25,-1.294 8.6,-2.163 1.32,-0.343 3.3,-1.023 4.4,-1.511 1.679,-0.745 6.074,-2.187 11.6,-3.807 7.594,-2.225 11.343,-3.4 12.8,-4.009 0.44,-0.184 1.88,-0.727 3.2,-1.206 1.32,-0.479 2.713,-1.037 3.095,-1.239 0.382,-0.202 0.886,-0.368 1.121,-0.368 0.422,0 4.44,-1.873 13.784,-6.425 2.64,-1.286 5.34,-2.816 6,-3.401 0.66,-0.585 1.826,-1.538 2.592,-2.119 3.708,-2.811 8.629,-7.737 10.608,-10.621 6.335,-9.229 12.554,-9.865 17.378,-1.779 5.218,8.749 6.029,28.094 1.552,37.022 -1.804,3.599 -3.71,7.122 -3.961,7.323 -0.137,0.11 -0.47,0.619 -0.74,1.132 -1.867,3.543 -13.053,14.068 -19.629,18.468 -1.43,0.957 -2.69,1.858 -2.8,2.002 -0.26,0.341 -6.305,4.398 -6.553,4.398 -0.103,0 -1.686,0.927 -3.518,2.059 -1.831,1.132 -4.859,2.765 -6.729,3.627 -5.08,2.343 -5.383,2.492 -5.6,2.756 -0.35,0.425 -7.678,3.871 -11,5.171 -1.76,0.69 -4.37,1.848 -5.8,2.574 -1.43,0.727 -4.13,1.912 -6,2.634 -1.87,0.723 -4.3,1.883 -5.4,2.58 -1.1,0.697 -3.35,2.103 -5,3.125 -3.005,1.861 -10.104,8.388 -12.116,11.139 -0.59,0.806 -1.327,1.721 -1.639,2.032 -2.698,2.699 -3.25,8.504 -0.941,9.908 2.433,1.48 5.906,1.468 18.696,-0.065 1.65,-0.198 16.05,-0.525 32,-0.729 15.95,-0.203 30.62,-0.543 32.6,-0.755 1.98,-0.212 6.12,-0.576 9.2,-0.81 3.08,-0.233 8.03,-0.62 11,-0.86 2.97,-0.24 7.65,-0.614 10.4,-0.832 2.75,-0.217 14,-0.489 25,-0.604 20.234,-0.212 20.376,-0.207 45.4,1.466 2.75,0.183 7.97,0.521 11.6,0.75 6.758,0.426 11.651,0.909 16.6,1.638 9.249,1.364 19.771,1.966 22.135,1.268 0.806,-0.238 1.965,-0.536 2.576,-0.663 2.013,-0.417 5.479,-4.586 6.195,-7.45 1.437,-5.758 1.484,-28.836 0.073,-36.895 -0.198,-1.135 -0.548,-9.354 -0.777,-18.264 -0.229,-8.91 -0.596,-18.54 -0.817,-21.4 -0.758,-9.831 -1.238,-15.206 -1.627,-18.2 -1.341,-10.326 -1.897,-13.667 -2.662,-16 -0.626,-1.908 -0.665,-2.047 -2.24,-8.062 -1.557,-5.948 -3.458,-11.37 -5.721,-16.317 -0.552,-1.207 -1.278,-3.01 -1.614,-4.007 -0.336,-0.998 -0.95,-2.523 -1.366,-3.389 -0.415,-0.866 -0.755,-1.73 -0.755,-1.918 0,-0.189 -0.9,-1.677 -2,-3.307 -1.1,-1.63 -2,-3.048 -2,-3.15 0,-0.297 -4.451,-7.528 -5.471,-8.888 -0.511,-0.681 -0.929,-1.431 -0.929,-1.666 0,-0.236 -0.135,-0.489 -0.3,-0.563 -0.165,-0.073 -0.735,-0.943 -1.267,-1.933 -0.531,-0.99 -1.479,-2.394 -2.106,-3.121 -0.626,-0.726 -2.57,-3.426 -4.319,-6 -4.223,-6.215 -7.639,-10.679 -10.477,-13.693 -0.732,-0.778 -1.981,-2.218 -2.776,-3.2 -0.795,-0.982 -2.64,-3.041 -4.1,-4.574 -1.46,-1.534 -2.655,-2.91 -2.655,-3.059 0,-0.148 -0.877,-0.833 -1.95,-1.521 -1.072,-0.688 -2.377,-1.631 -2.9,-2.095 -1.537,-1.366 -7.998,-6.474 -9.95,-7.867 -3.667,-2.618 -10.005,-6.887 -11.381,-7.666 -3.462,-1.961 -4.208,-2.367 -7.419,-4.036 -1.87,-0.971 -3.49,-1.875 -3.6,-2.007 -0.591,-0.712 -9.718,-3.961 -11.126,-3.961 -0.393,0 -0.885,-0.149 -1.094,-0.33 -0.349,-0.304 -2.122,-0.884 -5.18,-1.697 -4.071,-1.082 -6.971,-1.674 -11.502,-2.351 -10.087,-1.507 -11.61,-1.803 -14.898,-2.893 -1.32,-0.437 -3.3,-1.211 -4.4,-1.719 -2.088,-0.965 -3.903,-1.758 -6.1,-2.667 -0.715,-0.296 -1.3,-0.674 -1.3,-0.841 0,-0.166 -0.236,-0.302 -0.525,-0.302 -0.288,0 -0.873,-0.317 -1.3,-0.704 -0.426,-0.387 -1.583,-1.332 -2.571,-2.1 -2.428,-1.888 -9.514,-9.003 -11.027,-11.072 -0.673,-0.92 -2.338,-2.857 -3.7,-4.306 -1.362,-1.448 -2.477,-2.801 -2.477,-3.007 0,-0.206 -0.412,-0.788 -0.916,-1.293 -0.503,-0.505 -1.892,-2.178 -3.086,-3.718 -4.672,-6.027 -7.615,-9.205 -12.411,-13.4 -1.383,-1.21 -2.891,-2.536 -3.351,-2.947 -3.539,-3.163 -6.392,-4.022 -8.841,-2.662 m 3.286,0.459 c 2.565,1.031 3.212,1.404 5.105,2.939 4.449,3.61 7.362,6.369 10.82,10.248 3.25,3.647 3.958,4.491 4.998,5.963 0.545,0.77 1.576,2.023 2.293,2.783 0.717,0.761 1.303,1.499 1.303,1.639 0,0.598 6.065,7.428 12,13.513 5.621,5.764 8.139,7.753 12.2,9.638 1.54,0.715 3.88,1.815 5.2,2.446 4.04,1.928 8.072,3.011 14.8,3.974 7.438,1.064 14.073,2.339 16.6,3.189 0.55,0.185 2.08,0.639 3.4,1.01 5.477,1.537 11.238,3.472 12.182,4.09 0.555,0.364 2.631,1.51 4.614,2.546 1.982,1.037 4.414,2.309 5.404,2.828 0.99,0.519 1.86,1.079 1.933,1.244 0.074,0.165 0.292,0.3 0.485,0.3 0.48,0 8.728,5.517 9.972,6.671 0.551,0.511 1.126,0.929 1.277,0.929 0.152,0 0.514,0.231 0.804,0.513 0.291,0.282 1.159,0.955 1.929,1.494 0.77,0.54 1.67,1.198 2,1.463 1.694,1.358 4.294,3.477 5.009,4.082 0.444,0.376 1.614,1.247 2.6,1.935 0.985,0.688 2.402,1.94 3.148,2.782 0.747,0.842 2.277,2.524 3.4,3.737 1.124,1.214 2.943,3.272 4.043,4.574 1.1,1.302 2.57,3.009 3.267,3.794 2.022,2.277 4.655,5.833 8.559,11.563 2.001,2.935 4.118,5.84 4.706,6.455 0.587,0.615 1.666,2.233 2.397,3.596 0.731,1.362 2.201,3.812 3.267,5.444 1.065,1.632 2.176,3.508 2.468,4.168 0.292,0.66 0.667,1.2 0.834,1.2 0.166,0 0.302,0.19 0.302,0.422 0,0.232 0.72,1.482 1.6,2.778 0.88,1.296 1.6,2.546 1.6,2.778 0,0.232 0.159,0.422 0.354,0.422 0.194,0 0.752,1.035 1.239,2.3 0.487,1.265 1.031,2.66 1.209,3.1 0.178,0.44 0.606,1.557 0.951,2.483 0.345,0.926 0.971,2.456 1.392,3.4 2.28,5.118 4.305,11.148 5.817,17.317 0.539,2.2 1.359,5.35 1.822,7 2.416,8.605 3.711,22.42 4.386,46.8 0.415,15.009 0.611,18.365 1.821,31.2 0.754,8.005 0.768,23.056 0.025,27.6 -0.868,5.304 -0.89,5.353 -4.101,9.101 -2.514,2.933 -12.777,3.282 -26.915,0.916 -3.315,-0.555 -9.823,-1.111 -19.2,-1.64 -4.07,-0.23 -9.65,-0.576 -12.4,-0.769 -15.708,-1.103 -22.864,-1.281 -43.6,-1.086 -11.99,0.113 -23.42,0.392 -25.4,0.621 -1.98,0.229 -6.57,0.609 -10.2,0.845 -12.158,0.791 -18.175,1.245 -21.627,1.63 -1.885,0.21 -13.314,0.382 -25.398,0.382 -21.251,0 -35.446,0.439 -38.788,1.2 -3.748,0.854 -11.055,0.947 -13.655,0.175 l -2.467,-0.733 -0.163,-2.221 c -0.157,-2.155 0.571,-4.821 1.317,-4.821 0.18,0 0.441,-0.359 0.58,-0.798 0.139,-0.438 0.469,-1.023 0.733,-1.3 0.264,-0.276 1.107,-1.311 1.874,-2.3 2.111,-2.723 7.798,-8.022 10.338,-9.633 6.088,-3.862 10.583,-6.332 11.565,-6.356 0.279,-0.007 1.989,-0.707 3.8,-1.556 5.04,-2.363 6.684,-3.086 9.291,-4.086 2.092,-0.802 4.983,-2.212 11.2,-5.463 0.88,-0.46 3.22,-1.602 5.2,-2.539 1.98,-0.937 3.69,-1.817 3.8,-1.955 0.11,-0.139 1.1,-0.779 2.2,-1.423 1.1,-0.644 2.54,-1.495 3.2,-1.892 0.66,-0.396 1.515,-0.827 1.9,-0.957 0.385,-0.129 0.7,-0.382 0.7,-0.562 0,-0.179 0.338,-0.433 0.751,-0.564 0.413,-0.132 1.268,-0.695 1.9,-1.252 0.632,-0.557 2.679,-2.076 4.549,-3.376 1.87,-1.299 3.94,-2.83 4.6,-3.401 0.66,-0.571 2.28,-1.972 3.6,-3.112 2.839,-2.453 9.4,-9.099 9.4,-9.522 0,-0.163 0.231,-0.534 0.513,-0.824 1.399,-1.441 5.628,-9.212 6.601,-12.129 2.6,-7.795 1.931,-27.465 -1.113,-32.773 -2.925,-5.098 -4.318,-7.027 -5.076,-7.027 -0.289,0 -0.525,-0.138 -0.525,-0.306 0,-0.168 -0.743,-0.627 -1.651,-1.021 -3.415,-1.479 -7.148,0.814 -13.121,8.063 -2.611,3.167 -8.028,8.625 -9.628,9.698 -0.77,0.517 -1.641,1.173 -1.935,1.459 -1.766,1.715 -5.473,3.842 -10.265,5.89 -0.88,0.376 -3.49,1.582 -5.8,2.68 -2.31,1.097 -4.56,2.149 -5,2.338 -2.297,0.983 -15.485,5.335 -19.6,6.467 -4.533,1.247 -9.877,2.966 -11.8,3.795 -0.77,0.332 -1.988,0.857 -2.707,1.167 -0.718,0.31 -2.608,0.849 -4.2,1.198 -8.454,1.855 -12.497,3.792 -16.494,7.903 -2.747,2.825 -5.799,6.723 -5.799,7.406 0,0.255 -0.136,0.463 -0.302,0.463 -0.167,0 -0.524,0.495 -0.795,1.1 -0.271,0.605 -1.025,1.72 -1.677,2.479 -0.651,0.758 -1.675,2.288 -2.274,3.4 -0.599,1.111 -1.202,2.111 -1.34,2.221 -0.138,0.11 -0.684,0.83 -1.213,1.6 -7.835,11.394 -27.284,8.985 -41.48,-5.138 -7.958,-7.918 -9.001,-13.492 -5.96,-31.862 0.598,-3.614 0.654,-3.798 2.527,-8.2 0.421,-0.99 1.199,-3.15 1.728,-4.8 1.112,-3.465 2.008,-5.23 5.934,-11.697 1.569,-2.583 2.852,-4.804 2.852,-4.936 0,-0.239 3.201,-4.986 3.619,-5.367 0.121,-0.11 0.706,-1.042 1.3,-2.072 0.595,-1.029 1.309,-2.109 1.587,-2.4 0.278,-0.29 1.128,-1.338 1.889,-2.328 0.762,-0.99 1.488,-1.89 1.614,-2 0.126,-0.11 0.662,-0.83 1.191,-1.6 0.529,-0.77 1.069,-1.49 1.2,-1.6 0.131,-0.11 0.677,-0.83 1.214,-1.6 0.982,-1.41 1.419,-1.883 8.125,-8.8 5.437,-5.609 8.194,-8.78 9.093,-10.46 0.272,-0.508 0.739,-1.168 1.037,-1.466 0.299,-0.299 1.035,-1.203 1.637,-2.009 0.602,-0.806 1.319,-1.703 1.594,-1.994 0.275,-0.29 0.5,-0.682 0.5,-0.871 0,-0.189 0.225,-0.581 0.5,-0.871 0.834,-0.882 3.5,-5.089 3.5,-5.523 0,-0.223 0.143,-0.406 0.319,-0.406 0.483,0 3.151,-5.467 4.056,-8.314 0.44,-1.382 1.061,-3.092 1.38,-3.8 2.08,-4.619 3.142,-9.562 4.272,-19.886 0.739,-6.749 3.059,-13.143 5.743,-15.827 0.346,-0.347 0.63,-0.778 0.63,-0.959 0,-0.464 1.768,-2.247 4.772,-4.815 4.891,-4.182 21.628,-21.178 21.628,-21.964 0,-0.208 0.234,-0.616 0.519,-0.906 1.731,-1.763 4.046,-6.127 7.285,-13.729 0.282,-0.66 0.916,-2.1 1.41,-3.2 1.321,-2.942 1.448,-3.413 3.127,-11.641 1.731,-8.484 7.12,-15.564 10.74,-14.109 M 204.6,368.022 c -7.338,0.402 -18.818,1.153 -24,1.571 -14.599,1.177 -23.36,1.581 -34.6,1.593 -12.587,0.014 -14.11,0.138 -20.6,1.678 -7.751,1.839 -13.577,2.506 -25.6,2.932 -4.18,0.148 -8.23,0.46 -9,0.693 -1.887,0.57 -3.632,1.131 -4.6,1.48 -1.185,0.426 -6.368,2.956 -6.6,3.221 -0.11,0.126 -0.688,0.539 -1.285,0.919 -0.898,0.571 -2.862,2.756 -5.652,6.291 -1.944,2.463 -3.505,6.578 -5.233,13.8 -0.579,2.42 -1.214,5.03 -1.411,5.8 -0.354,1.389 -0.803,4.907 -1.608,12.6 -0.91,8.699 -0.409,17.771 1.134,20.537 0.897,1.607 5.124,3.274 9.337,3.682 4.484,0.433 268.201,0.457 273.131,0.024 5.163,-0.453 9.627,-2.881 10.219,-5.557 0.132,-0.597 0.44,-1.716 0.686,-2.486 0.613,-1.926 0.583,-16.555 -0.043,-20.8 -1.158,-7.851 -2.718,-14.693 -4.722,-20.702 -1.655,-4.961 -2.585,-6.656 -6.553,-11.945 -1.153,-1.536 -7.221,-5.306 -10.278,-6.385 -3.324,-1.173 -8.841,-2.111 -19.722,-3.353 -6.71,-0.767 -10.232,-1.234 -12.2,-1.62 -9.047,-1.772 -11.273,-1.976 -26,-2.389 -7.48,-0.209 -16.03,-0.562 -19,-0.785 -2.97,-0.223 -7.83,-0.581 -10.8,-0.796 -6.062,-0.438 -37.007,-0.441 -45,-0.003 m 39.246,0.383 c 4.595,0.223 10.064,0.583 12.154,0.799 2.09,0.217 10.82,0.574 19.4,0.794 8.58,0.22 17.04,0.593 18.8,0.829 3.365,0.451 10.831,1.76 13.677,2.397 0.923,0.207 2.353,0.376 3.179,0.376 1.399,0 3.355,0.21 11.544,1.242 9.468,1.193 12.875,2.044 17.6,4.392 4.744,2.358 7.799,4.97 9.066,7.751 0.254,0.558 0.595,1.015 0.756,1.015 0.598,0 3.435,6.592 4.391,10.2 1.548,5.844 1.972,7.753 2.755,12.4 1.671,9.924 1.87,22.642 0.422,27 -1.216,3.66 -1.643,4.04 -6.79,6.053 -2.117,0.828 -275.539,0.816 -278.8,-0.012 -3.506,-0.89 -6.241,-2.841 -6.597,-4.705 -0.548,-2.868 -0.679,-13.517 -0.224,-18.136 0.706,-7.149 1.269,-11.689 1.614,-13 0.173,-0.66 0.543,-2.28 0.821,-3.6 0.449,-2.132 0.866,-3.823 1.973,-8 0.56,-2.111 2.588,-5.996 4.013,-7.69 0.33,-0.392 1.229,-1.522 1.998,-2.511 4.782,-6.156 12.308,-8.978 25.602,-9.604 8.602,-0.405 14.441,-0.926 18.2,-1.626 1.941,-0.362 5.022,-0.97 10.8,-2.134 1.949,-0.392 7.48,-0.642 18.2,-0.821 14.945,-0.25 20.403,-0.508 30,-1.417 4.728,-0.448 10.725,-0.805 26.4,-1.573 4.95,-0.243 9.72,-0.496 10.6,-0.563 4.045,-0.307 20.904,-0.222 28.446,0.144"
     stroke="none"
     fill="#747474"
     fill-rule="evenodd" />
  <path
     id="path3"
     d="m 140.372,48.499 c -3.148,2.148 -6.05,7.469 -7.231,13.26 -1.679,8.228 -1.806,8.699 -3.127,11.641 -0.494,1.1 -1.128,2.54 -1.41,3.2 -3.239,7.602 -5.554,11.966 -7.285,13.729 -0.285,0.29 -0.519,0.698 -0.519,0.906 0,0.786 -16.737,17.782 -21.628,21.964 -3.004,2.568 -4.772,4.351 -4.772,4.815 0,0.181 -0.284,0.612 -0.63,0.959 -2.684,2.684 -5.004,9.078 -5.743,15.827 -1.13,10.324 -2.192,15.267 -4.272,19.886 -0.319,0.708 -0.94,2.418 -1.38,3.8 -0.905,2.847 -3.573,8.314 -4.056,8.314 -0.176,0 -0.319,0.183 -0.319,0.406 0,0.434 -2.666,4.641 -3.5,5.523 -0.275,0.29 -0.5,0.682 -0.5,0.871 0,0.189 -0.225,0.581 -0.5,0.871 -0.275,0.291 -0.992,1.188 -1.594,1.994 -0.602,0.806 -1.338,1.71 -1.637,2.009 -0.298,0.298 -0.765,0.958 -1.037,1.466 -0.899,1.68 -3.656,4.851 -9.093,10.46 -6.706,6.917 -7.143,7.39 -8.125,8.8 -0.537,0.77 -1.083,1.49 -1.214,1.6 -0.131,0.11 -0.671,0.83 -1.2,1.6 -0.529,0.77 -1.065,1.49 -1.191,1.6 -0.126,0.11 -0.852,1.01 -1.614,2 -0.761,0.99 -1.611,2.038 -1.889,2.328 -0.278,0.291 -0.992,1.371 -1.587,2.4 -0.594,1.03 -1.179,1.962 -1.3,2.072 -0.418,0.381 -3.619,5.128 -3.619,5.367 0,0.132 -1.283,2.353 -2.852,4.936 -3.926,6.467 -4.822,8.232 -5.934,11.697 -0.529,1.65 -1.307,3.81 -1.728,4.8 -1.873,4.402 -1.929,4.586 -2.527,8.2 -1.966,11.876 -2.021,17.02 -0.244,23 1.94,6.532 12.725,15.934 21.765,18.974 12.446,4.187 20.711,2.6 25.919,-4.974 0.529,-0.77 1.075,-1.49 1.213,-1.6 0.138,-0.11 0.741,-1.11 1.34,-2.221 0.599,-1.112 1.623,-2.642 2.274,-3.4 0.652,-0.759 1.406,-1.874 1.677,-2.479 0.271,-0.605 0.628,-1.1 0.795,-1.1 0.166,0 0.302,-0.208 0.302,-0.463 0,-0.683 3.052,-4.581 5.799,-7.406 3.997,-4.111 8.04,-6.048 16.494,-7.903 1.592,-0.349 3.482,-0.888 4.2,-1.198 0.719,-0.31 1.937,-0.835 2.707,-1.167 1.923,-0.829 7.267,-2.548 11.8,-3.795 4.115,-1.132 17.303,-5.484 19.6,-6.467 0.44,-0.189 2.69,-1.241 5,-2.338 2.31,-1.098 4.92,-2.304 5.8,-2.68 4.792,-2.048 8.499,-4.175 10.265,-5.89 0.294,-0.286 1.165,-0.942 1.935,-1.459 1.6,-1.073 7.017,-6.531 9.628,-9.698 5.973,-7.249 9.706,-9.542 13.121,-8.063 0.908,0.394 1.651,0.853 1.651,1.021 0,0.168 0.236,0.306 0.525,0.306 0.758,0 2.151,1.929 5.076,7.027 3.044,5.308 3.713,24.978 1.113,32.773 -0.973,2.917 -5.202,10.688 -6.601,12.129 -0.282,0.29 -0.513,0.661 -0.513,0.824 0,0.423 -6.561,7.069 -9.4,9.522 -1.32,1.14 -2.94,2.541 -3.6,3.112 -0.66,0.571 -2.73,2.102 -4.6,3.401 -1.87,1.3 -3.917,2.819 -4.549,3.376 -0.632,0.557 -1.487,1.12 -1.9,1.252 -0.413,0.131 -0.751,0.385 -0.751,0.564 0,0.18 -0.315,0.433 -0.7,0.562 -0.385,0.13 -1.24,0.561 -1.9,0.957 -0.66,0.397 -2.1,1.248 -3.2,1.892 -1.1,0.644 -2.09,1.284 -2.2,1.423 -0.11,0.138 -1.82,1.018 -3.8,1.955 -1.98,0.937 -4.32,2.079 -5.2,2.539 -6.217,3.251 -9.108,4.661 -11.2,5.463 -2.607,1 -4.251,1.723 -9.291,4.086 -1.811,0.849 -3.521,1.549 -3.8,1.556 -0.982,0.024 -5.477,2.494 -11.565,6.356 -2.54,1.611 -8.227,6.91 -10.338,9.633 -0.767,0.989 -1.61,2.024 -1.874,2.3 -0.264,0.277 -0.594,0.862 -0.733,1.3 -0.139,0.439 -0.4,0.798 -0.58,0.798 -0.746,0 -1.474,2.666 -1.317,4.821 l 0.163,2.221 2.467,0.733 c 2.6,0.772 9.907,0.679 13.655,-0.175 3.342,-0.761 17.537,-1.2 38.788,-1.2 12.084,0 23.513,-0.172 25.398,-0.382 3.452,-0.385 9.469,-0.839 21.627,-1.63 3.63,-0.236 8.22,-0.616 10.2,-0.845 1.98,-0.229 13.41,-0.508 25.4,-0.621 20.736,-0.195 27.892,-0.017 43.6,1.086 2.75,0.193 8.33,0.539 12.4,0.769 9.377,0.529 15.885,1.085 19.2,1.64 14.138,2.366 24.401,2.017 26.915,-0.916 3.211,-3.748 3.233,-3.797 4.101,-9.101 0.743,-4.544 0.729,-19.595 -0.025,-27.6 -1.21,-12.835 -1.406,-16.191 -1.821,-31.2 -0.675,-24.38 -1.97,-38.195 -4.386,-46.8 -0.463,-1.65 -1.283,-4.8 -1.822,-7 -1.512,-6.169 -3.537,-12.199 -5.817,-17.317 -0.421,-0.944 -1.047,-2.474 -1.392,-3.4 -0.345,-0.926 -0.773,-2.043 -0.951,-2.483 -0.178,-0.44 -0.722,-1.835 -1.209,-3.1 -0.487,-1.265 -1.045,-2.3 -1.239,-2.3 -0.195,0 -0.354,-0.19 -0.354,-0.422 0,-0.232 -0.72,-1.482 -1.6,-2.778 -0.88,-1.296 -1.6,-2.546 -1.6,-2.778 0,-0.232 -0.136,-0.422 -0.302,-0.422 -0.167,0 -0.542,-0.54 -0.834,-1.2 -0.292,-0.66 -1.403,-2.536 -2.468,-4.168 -1.066,-1.632 -2.536,-4.082 -3.267,-5.444 -0.731,-1.363 -1.81,-2.981 -2.397,-3.596 -0.588,-0.615 -2.705,-3.52 -4.706,-6.455 -3.904,-5.73 -6.537,-9.286 -8.559,-11.563 -0.697,-0.785 -2.167,-2.492 -3.267,-3.794 -1.1,-1.302 -2.919,-3.36 -4.043,-4.574 -1.123,-1.213 -2.653,-2.895 -3.4,-3.737 -0.746,-0.842 -2.163,-2.094 -3.148,-2.782 -0.986,-0.688 -2.156,-1.559 -2.6,-1.935 -0.715,-0.605 -3.315,-2.724 -5.009,-4.082 -0.33,-0.265 -1.23,-0.923 -2,-1.463 -0.77,-0.539 -1.638,-1.212 -1.929,-1.494 -0.29,-0.282 -0.652,-0.513 -0.804,-0.513 -0.151,0 -0.726,-0.418 -1.277,-0.929 -1.244,-1.154 -9.492,-6.671 -9.972,-6.671 -0.193,0 -0.411,-0.135 -0.485,-0.3 -0.073,-0.165 -0.943,-0.725 -1.933,-1.244 -0.99,-0.519 -3.422,-1.791 -5.404,-2.828 -1.983,-1.036 -4.059,-2.182 -4.614,-2.546 -0.944,-0.618 -6.705,-2.553 -12.182,-4.09 -1.32,-0.371 -2.85,-0.825 -3.4,-1.01 -2.527,-0.85 -9.162,-2.125 -16.6,-3.189 -6.728,-0.963 -10.76,-2.046 -14.8,-3.974 -1.32,-0.631 -3.66,-1.731 -5.2,-2.446 -4.061,-1.885 -6.579,-3.874 -12.2,-9.638 -5.935,-6.085 -12,-12.915 -12,-13.513 0,-0.14 -0.586,-0.878 -1.303,-1.639 -0.717,-0.76 -1.748,-2.013 -2.293,-2.783 -4.133,-5.846 -15.36,-16.749 -18.804,-18.261 -3.678,-1.616 -3.324,-1.613 -5.628,-0.04 m 5.078,4.137 c 0.633,0.143 1.87,0.931 2.75,1.75 0.88,0.819 2.14,1.859 2.8,2.311 1.73,1.183 9.51,8.914 10.095,10.031 1.057,2.016 6.172,8.423 9.165,11.478 1.727,1.764 3.68,4.01 4.34,4.993 2.496,3.716 9.789,10.183 13.579,12.042 1.308,0.642 2.478,1.326 2.6,1.522 1.27,2.038 11.808,5.661 18.821,6.47 4.296,0.495 7.553,1.088 11.8,2.147 1.32,0.329 3.93,0.939 5.8,1.357 7.114,1.588 10.091,2.594 14.495,4.899 0.382,0.2 0.888,0.364 1.125,0.364 0.428,0 3.454,1.361 8.335,3.75 1.405,0.687 3.115,1.75 3.8,2.36 0.685,0.611 1.74,1.33 2.345,1.598 0.605,0.268 1.1,0.623 1.1,0.79 0,0.166 0.225,0.303 0.5,0.304 0.275,10e-4 1.4,0.715 2.5,1.585 1.1,0.871 2.81,2.163 3.8,2.872 0.99,0.708 1.89,1.411 2,1.561 0.11,0.15 1.01,0.681 2,1.18 0.99,0.499 1.89,1.021 2,1.16 0.268,0.339 2.339,2.007 4.023,3.24 2.373,1.738 10.14,9.182 12.397,11.88 0.34,0.408 1.42,1.813 2.4,3.123 2.795,3.739 6.289,7.868 6.88,8.13 0.165,0.074 0.3,0.375 0.3,0.67 0,0.294 0.68,1.224 1.511,2.066 0.831,0.842 1.77,2.071 2.088,2.731 0.836,1.739 2.791,4.615 4.081,6 0.614,0.66 1.117,1.41 1.118,1.667 0.001,0.256 0.137,0.526 0.302,0.6 0.494,0.219 2.9,3.453 2.9,3.897 0,0.585 1.476,3.187 2.742,4.836 0.591,0.77 1.513,2.3 2.049,3.4 0.535,1.1 1.27,2.45 1.632,3 0.362,0.55 1.437,2.44 2.39,4.2 0.952,1.76 1.93,3.399 2.172,3.641 0.552,0.554 1.455,2.747 2.614,6.354 0.495,1.538 1.299,3.698 1.788,4.8 1.484,3.35 2.141,5.518 3.028,10.005 0.261,1.32 1.001,4.74 1.644,7.6 1.281,5.7 1.659,7.546 2.308,11.3 2.309,13.338 2.831,20.036 2.845,36.518 0.012,13.295 0.238,17.62 1.766,33.782 1.683,17.802 0.208,30.372 -3.773,32.149 -4.08,1.822 -7.619,1.999 -17.205,0.859 -5.856,-0.697 -13.523,-1.241 -22.8,-1.618 -9.235,-0.376 -13.03,-0.689 -19.4,-1.602 -1.76,-0.253 -4.46,-0.64 -6,-0.861 -1.54,-0.22 -12.875,-0.486 -25.19,-0.589 -23.084,-0.193 -23.468,-0.177 -36.41,1.501 -1.54,0.2 -4.24,0.549 -6,0.776 -6.407,0.827 -19.857,1.242 -51.6,1.594 -17.82,0.198 -33.39,0.462 -34.6,0.586 -1.21,0.125 -3.67,0.406 -5.467,0.626 -3.169,0.388 -5.275,-0.148 -7.277,-1.853 -0.079,-0.067 0.213,-0.627 0.648,-1.245 0.435,-0.618 0.93,-1.573 1.099,-2.123 0.407,-1.321 2.979,-5.355 3.549,-5.566 0.246,-0.092 1.374,-1.1 2.505,-2.24 1.163,-1.171 3.338,-2.733 5,-3.59 1.619,-0.834 3.033,-1.643 3.143,-1.799 0.11,-0.155 1.64,-1.008 3.4,-1.895 1.76,-0.887 4.082,-2.084 5.16,-2.661 1.077,-0.577 2.282,-1.049 2.676,-1.049 0.394,0 0.828,-0.18 0.964,-0.4 0.136,-0.22 0.51,-0.4 0.832,-0.4 0.321,0 2.066,-0.696 3.876,-1.547 1.811,-0.851 4.401,-1.937 5.756,-2.413 2.544,-0.895 11.158,-5.188 12.95,-6.455 0.558,-0.395 2.043,-1.188 3.299,-1.762 1.257,-0.575 2.87,-1.545 3.586,-2.156 0.715,-0.61 2.628,-1.784 4.249,-2.608 1.621,-0.824 3.225,-1.775 3.564,-2.114 0.339,-0.338 1.352,-1.078 2.252,-1.642 0.9,-0.565 2.426,-1.719 3.392,-2.565 0.966,-0.846 1.924,-1.538 2.129,-1.538 0.205,0 1.215,-0.795 2.244,-1.766 2.923,-2.758 4.644,-4.221 4.974,-4.228 1.064,-0.022 11.497,-11.831 11.497,-13.012 0,-0.137 0.509,-1.002 1.131,-1.922 1.378,-2.036 2.331,-4.372 3.294,-8.072 0.4,-1.54 1.051,-3.88 1.447,-5.2 1.123,-3.754 1.031,-17.769 -0.142,-21.4 -0.462,-1.43 -1.061,-3.59 -1.331,-4.8 -3.111,-13.923 -15.877,-18.402 -22.894,-8.031 -2.219,3.279 -12.913,13.445 -16.505,15.69 -1.1,0.687 -2.235,1.585 -2.523,1.995 -0.287,0.41 -0.758,0.746 -1.046,0.746 -0.289,0 -1.493,0.379 -2.678,0.843 -1.184,0.464 -2.513,0.984 -2.953,1.157 -0.44,0.172 -2.023,0.873 -3.518,1.557 -1.495,0.683 -2.864,1.243 -3.043,1.243 -0.178,0 -2.015,0.836 -4.082,1.858 -2.066,1.023 -4.387,1.995 -5.157,2.16 -3.294,0.71 -7.208,1.923 -9.228,2.862 -1.195,0.555 -3.162,1.222 -4.372,1.481 -4.224,0.907 -10.689,2.764 -11.4,3.275 -0.22,0.159 -2.38,0.949 -4.8,1.756 -2.42,0.808 -4.94,1.704 -5.6,1.991 -1.374,0.599 -2.832,1.099 -5.4,1.852 -3.361,0.986 -5.077,2.212 -9.343,6.68 -2.452,2.568 -3.076,3.391 -7.241,9.556 -1.312,1.941 -2.501,3.619 -2.644,3.729 -0.142,0.11 -0.728,1.087 -1.302,2.171 -1.909,3.609 -5.782,6.832 -9.115,7.585 -4.518,1.02 -11.627,0.491 -14.728,-1.096 -0.565,-0.289 -2.557,-1.307 -4.427,-2.263 -2.723,-1.392 -6.23,-3.793 -7.6,-5.203 -0.11,-0.113 -1.37,-1.224 -2.8,-2.468 -6.734,-5.861 -8.192,-16.662 -4.222,-31.278 0.351,-1.293 0.749,-2.53 0.883,-2.747 0.135,-0.217 0.385,-0.959 0.557,-1.648 1.095,-4.39 1.789,-6.122 4.028,-10.053 1.379,-2.42 3.341,-6.067 4.36,-8.105 1.019,-2.037 2.309,-4.197 2.867,-4.8 0.558,-0.602 1.354,-1.72 1.77,-2.483 0.417,-0.763 0.897,-1.573 1.068,-1.8 2.778,-3.68 5.213,-7 6.979,-9.513 1.198,-1.706 2.489,-3.326 2.869,-3.6 0.38,-0.275 1.126,-1.094 1.658,-1.822 0.532,-0.728 3.178,-3.579 5.879,-6.336 2.702,-2.757 5.762,-6.121 6.8,-7.477 1.039,-1.355 2.284,-2.865 2.769,-3.355 0.484,-0.49 1.387,-1.57 2.005,-2.4 0.619,-0.83 1.216,-1.599 1.328,-1.709 0.497,-0.492 1.941,-2.723 2.587,-4 0.39,-0.77 1.39,-2.3 2.222,-3.4 1.595,-2.109 3.193,-4.793 3.193,-5.364 0,-0.186 0.618,-1.365 1.372,-2.618 0.755,-1.254 1.677,-3.301 2.049,-4.549 0.371,-1.248 0.995,-3.259 1.385,-4.469 1.346,-4.171 1.491,-5.065 2.981,-18.35 0.496,-4.419 0.788,-5.672 1.68,-7.2 0.594,-1.017 1.671,-2.983 2.392,-4.369 1.503,-2.886 2.673,-4.273 7.141,-8.465 1.76,-1.651 3.962,-3.815 4.892,-4.809 0.931,-0.994 1.891,-1.987 2.134,-2.207 C 111.678,105.613 120,97.149 120,96.834 c 0,-0.227 0.805,-1.218 1.789,-2.201 2.549,-2.55 7.011,-9.826 7.011,-11.434 0,-0.457 0.348,-1.22 1.366,-2.999 1.281,-2.238 3.434,-6.945 3.434,-7.508 0,-0.308 0.362,-1.715 0.804,-3.126 0.442,-1.411 1.189,-3.826 1.66,-5.366 0.47,-1.54 1.11,-3.61 1.422,-4.6 1.192,-3.787 4.425,-7.828 5.954,-7.442 0.473,0.119 1.377,0.334 2.01,0.478 m 69.95,315.625 c -0.88,0.067 -5.65,0.32 -10.6,0.563 -15.675,0.768 -21.672,1.125 -26.4,1.573 -9.597,0.909 -15.055,1.167 -30,1.417 -10.72,0.179 -16.251,0.429 -18.2,0.821 -5.778,1.164 -8.859,1.772 -10.8,2.134 -3.759,0.7 -9.598,1.221 -18.2,1.626 -13.294,0.626 -20.82,3.448 -25.602,9.604 -0.769,0.989 -1.668,2.119 -1.998,2.511 -1.425,1.694 -3.453,5.579 -4.013,7.69 -1.107,4.177 -1.524,5.868 -1.973,8 -0.278,1.32 -0.648,2.94 -0.821,3.6 -0.345,1.311 -0.908,5.851 -1.614,13 -0.455,4.619 -0.324,15.268 0.224,18.136 0.356,1.864 3.091,3.815 6.597,4.705 3.261,0.828 276.683,0.84 278.8,0.012 5.147,-2.013 5.574,-2.393 6.79,-6.053 1.448,-4.358 1.249,-17.076 -0.422,-27 -0.783,-4.647 -1.207,-6.556 -2.755,-12.4 -0.956,-3.608 -3.793,-10.2 -4.391,-10.2 -0.161,0 -0.502,-0.457 -0.756,-1.015 -1.267,-2.781 -4.322,-5.393 -9.066,-7.751 -4.725,-2.348 -8.132,-3.199 -17.6,-4.392 -8.189,-1.032 -10.145,-1.242 -11.544,-1.242 -0.826,0 -2.256,-0.169 -3.179,-0.376 -2.846,-0.637 -10.312,-1.946 -13.677,-2.397 -1.76,-0.236 -10.22,-0.609 -18.8,-0.829 -8.58,-0.22 -17.31,-0.577 -19.4,-0.794 -9.1,-0.943 -33.225,-1.503 -40.6,-0.943 m 43.6,3.726 c 3.3,0.213 11.04,0.557 17.2,0.765 10.279,0.346 12.5,0.534 19,1.609 7.514,1.243 10.396,1.621 15.4,2.018 3.08,0.245 6.68,0.634 8,0.864 4.88,0.852 6.836,1.226 8.3,1.587 3.796,0.937 4.651,1.157 6.9,1.78 1.32,0.366 2.826,0.763 3.346,0.883 5.574,1.285 13.024,10.661 14.865,18.707 3.195,13.961 3.561,34.346 0.674,37.503 -0.267,0.292 -0.677,0.871 -0.912,1.287 -0.503,0.893 -0.972,1.153 -3.373,1.871 -2.728,0.817 -271.298,0.801 -274.109,-0.016 -6.187,-1.797 -7.274,-8.55 -4.868,-30.245 0.777,-7.009 0.915,-7.747 1.785,-9.6 1.846,-3.926 3.192,-7.154 3.192,-7.655 0,-0.3 0.135,-0.545 0.3,-0.546 0.165,0 0.811,-0.979 1.435,-2.174 3.738,-7.153 12.78,-10.625 27.673,-10.625 5.343,0 8.257,-0.453 22.192,-3.452 1.813,-0.39 8.048,-0.68 20.6,-0.957 16.747,-0.369 22.66,-0.703 28.2,-1.589 10.149,-1.624 13.694,-1.999 19.316,-2.047 2.906,-0.024 6.994,-0.183 9.084,-0.352 5.03,-0.406 48.154,-0.11 55.8,0.384"
     stroke="none"
     fill="#6c6c6c"
     fill-rule="evenodd" />
  <path
     id="path4"
     d="m 140.6,42.376 c -5.344,1.44 -9.154,7.149 -10.366,15.537 -0.136,0.942 -0.675,2.832 -1.198,4.2 -0.522,1.368 -1.25,3.567 -1.617,4.887 -0.921,3.308 -2.201,7.439 -2.603,8.4 -0.184,0.44 -0.552,1.43 -0.817,2.2 -0.819,2.38 -2.139,4.924 -3.486,6.716 -0.71,0.944 -1.605,2.384 -1.988,3.2 -0.384,0.816 -3.437,4.274 -6.785,7.684 -3.348,3.41 -6.48,6.704 -6.959,7.321 -0.48,0.617 -1.797,1.813 -2.927,2.658 -11.738,8.781 -16.241,16.062 -17.455,28.221 -0.735,7.363 -1.166,10.108 -1.829,11.634 -0.375,0.861 -0.834,1.926 -1.02,2.366 -0.312,0.734 -1.167,3.759 -1.754,6.2 -0.684,2.852 -1.317,4.428 -2.688,6.693 -0.829,1.371 -1.508,2.598 -1.508,2.728 0,0.723 -6.232,10.222 -7.203,10.979 -0.141,0.11 -0.689,0.978 -1.217,1.929 -0.527,0.95 -2.264,3.11 -3.859,4.8 -1.594,1.689 -2.904,3.201 -2.91,3.36 -0.006,0.158 -1.406,1.716 -3.111,3.461 -5.101,5.22 -7.476,7.811 -8.496,9.269 -0.531,0.76 -1.073,1.471 -1.204,1.581 -0.131,0.11 -0.663,0.83 -1.182,1.6 -0.519,0.77 -1.52,2.03 -2.226,2.8 -0.705,0.77 -1.622,2.027 -2.037,2.794 -0.415,0.767 -1.338,2.027 -2.052,2.8 -0.713,0.773 -1.298,1.528 -1.3,1.677 -10e-4,0.15 -0.263,0.532 -0.58,0.849 -0.689,0.689 -2.12,3.095 -4.03,6.776 -0.769,1.482 -2.081,3.597 -2.915,4.699 -0.834,1.102 -1.745,2.679 -2.024,3.504 -0.62,1.835 -1.205,3.243 -1.788,4.301 -1.502,2.727 -3.066,5.904 -3.066,6.229 0,0.209 -0.339,1.143 -0.753,2.075 -1.221,2.753 -1.658,4.213 -2.658,8.896 -1.414,6.62 -1.957,18.504 -1.015,22.2 0.711,2.786 1.769,5.151 3.401,7.6 1.58,2.371 2.992,3.935 3.784,4.189 0.352,0.114 1.001,0.763 1.441,1.444 0.44,0.68 1.88,1.973 3.2,2.872 1.32,0.899 2.49,1.743 2.6,1.875 1.889,2.271 8.217,5.374 14.6,7.161 0.88,0.246 2.755,0.81 4.166,1.253 11.378,3.573 21.296,-2.597 28.906,-17.982 0.601,-1.217 1.912,-3.104 2.911,-4.195 0.999,-1.091 1.816,-2.171 1.814,-2.4 -0.003,-0.479 5.172,-5.417 5.677,-5.417 0.365,0 2.295,-0.823 7.526,-3.21 1.983,-0.905 4.875,-1.826 6.939,-2.21 4.017,-0.748 7.926,-1.812 9.911,-2.698 0.742,-0.331 1.8,-0.721 2.35,-0.866 10.603,-2.794 11.732,-3.115 16.4,-4.658 2.51,-0.83 3.575,-1.299 7,-3.084 0.88,-0.459 2.68,-1.218 4,-1.686 1.32,-0.469 2.85,-1.12 3.4,-1.447 0.55,-0.327 2.35,-1.223 4,-1.992 4.568,-2.128 6.58,-3.117 6.8,-3.344 0.11,-0.114 0.707,-0.468 1.327,-0.788 1.085,-0.559 3.382,-2.533 8.403,-7.217 3.856,-3.597 4.799,-4.621 6.27,-6.803 2.812,-4.173 6.13,-6.855 8.379,-6.775 1.225,0.044 4.109,4.354 5.312,7.94 0.635,1.891 1.305,3.798 1.489,4.238 1.353,3.222 1.983,14.483 0.963,17.2 -0.248,0.66 -0.669,2.01 -0.936,3 -0.267,0.99 -0.647,2.113 -0.846,2.495 -0.199,0.382 -0.361,0.982 -0.361,1.333 0,0.601 -1.908,4.622 -4.039,8.514 -0.525,0.957 -1.438,2.248 -2.031,2.868 -0.592,0.62 -1.345,1.645 -1.672,2.278 -0.328,0.634 -1.915,2.341 -3.527,3.794 -1.612,1.454 -3.651,3.297 -4.531,4.096 -0.88,0.799 -2.41,2.02 -3.4,2.713 -0.99,0.692 -2.169,1.679 -2.621,2.193 -0.451,0.514 -1.695,1.4 -2.763,1.969 -1.069,0.569 -2.139,1.188 -2.38,1.377 -0.24,0.188 -1.066,0.859 -1.836,1.491 -0.77,0.632 -2.66,1.786 -4.2,2.563 -5.837,2.949 -8.445,4.402 -9.8,5.464 -0.77,0.603 -2.03,1.329 -2.8,1.614 -2.436,0.903 -2.917,1.113 -6.8,2.974 -2.09,1.002 -4.7,2.123 -5.8,2.491 -1.1,0.369 -3.35,1.296 -5,2.062 -1.65,0.766 -3.36,1.551 -3.8,1.745 -0.44,0.194 -1.52,0.805 -2.4,1.359 -1.738,1.093 -4.869,2.607 -5.393,2.607 -0.47,0 -4.956,2.395 -5.201,2.778 -0.113,0.177 -1.075,0.871 -2.137,1.542 -11.958,7.555 -21.272,21.34 -17.88,26.464 2.947,4.451 7.188,5.341 17.211,3.612 6.81,-1.174 9.794,-1.294 40,-1.604 17.505,-0.18 33.688,-0.523 36,-0.763 2.31,-0.24 6,-0.621 8.2,-0.846 5.81,-0.594 12.639,-1.679 15.8,-2.51 2.583,-0.679 60.094,-0.671 63.2,0.009 6.148,1.346 13.481,2.228 27.6,3.319 7.657,0.592 13.632,1.151 17.8,1.666 1.98,0.245 6.48,0.461 10,0.481 l 6.4,0.036 2.403,-1.296 c 7.694,-4.149 8.901,-8.543 8.438,-30.717 -0.142,-6.804 -0.435,-13.991 -0.651,-15.971 -0.216,-1.98 -0.56,-11.97 -0.764,-22.2 -0.502,-25.065 -1.399,-35.532 -3.598,-42 -0.187,-0.55 -0.549,-2.53 -0.805,-4.4 -1.19,-8.72 -1.849,-11.754 -3.605,-16.6 -0.398,-1.1 -0.95,-2.81 -1.225,-3.8 -0.876,-3.151 -2.025,-6.55 -2.772,-8.2 -0.398,-0.88 -1.061,-2.405 -1.472,-3.389 -0.412,-0.983 -1.323,-2.742 -2.025,-3.907 -0.701,-1.166 -1.387,-2.521 -1.525,-3.012 -0.137,-0.491 -0.394,-1.252 -0.571,-1.692 -0.176,-0.44 -0.501,-1.25 -0.721,-1.8 -0.779,-1.947 -1.443,-3.195 -2.071,-3.893 -0.35,-0.389 -0.903,-1.247 -1.229,-1.907 -0.886,-1.792 -4.512,-7.89 -5.204,-8.75 -0.332,-0.413 -1.099,-1.309 -1.705,-1.992 -0.606,-0.682 -1.216,-1.605 -1.356,-2.049 -0.318,-1.013 -3.048,-5.067 -3.871,-5.75 -0.337,-0.28 -1.089,-1.419 -1.671,-2.532 -0.582,-1.112 -1.229,-2.226 -1.439,-2.475 -0.21,-0.248 -0.916,-1.28 -1.569,-2.292 -0.653,-1.011 -1.953,-2.637 -2.89,-3.612 -0.936,-0.975 -2.062,-2.298 -2.502,-2.939 -0.44,-0.642 -1.298,-1.688 -1.906,-2.325 -0.609,-0.637 -1.679,-1.996 -2.379,-3.021 -0.7,-1.025 -2.452,-2.999 -3.894,-4.388 -3.14,-3.024 -3.028,-2.914 -4.969,-4.895 -0.852,-0.869 -1.662,-1.58 -1.8,-1.581 -0.139,0 -1.653,-1.34 -3.365,-2.977 -1.712,-1.637 -3.467,-3.089 -3.9,-3.226 -0.433,-0.137 -0.787,-0.418 -0.787,-0.623 0,-0.205 -0.27,-0.373 -0.6,-0.373 -0.33,0 -0.6,-0.141 -0.6,-0.314 0,-0.172 -0.495,-0.616 -1.1,-0.987 -0.605,-0.37 -1.701,-1.212 -2.437,-1.871 -0.735,-0.658 -1.68,-1.306 -2.1,-1.44 -0.419,-0.133 -0.763,-0.41 -0.763,-0.615 0,-0.205 -0.232,-0.373 -0.516,-0.373 -0.284,0 -1.283,-0.694 -2.221,-1.543 -1.558,-1.41 -4.046,-2.864 -10.663,-6.231 -1.32,-0.672 -2.49,-1.328 -2.6,-1.458 -0.526,-0.622 -4.86,-2.711 -7,-3.374 -1.32,-0.409 -2.49,-0.848 -2.6,-0.974 -0.63,-0.726 -5.094,-2.512 -8.6,-3.441 -7.083,-1.876 -9.786,-2.458 -13.8,-2.97 -3.754,-0.479 -8.665,-1.146 -10.748,-1.46 -0.741,-0.112 -3.194,-0.821 -5.45,-1.576 -2.257,-0.755 -4.39,-1.373 -4.741,-1.373 -1.017,0 -4.951,-1.928 -5.949,-2.915 -0.502,-0.496 -1.542,-1.34 -2.312,-1.875 -0.77,-0.535 -1.67,-1.262 -2,-1.616 -0.33,-0.354 -1.411,-1.196 -2.402,-1.871 -0.991,-0.675 -2.251,-1.76 -2.8,-2.412 -0.549,-0.651 -1.506,-1.512 -2.127,-1.913 -0.622,-0.401 -1.813,-1.734 -2.648,-2.963 -0.834,-1.229 -2.891,-3.645 -4.57,-5.368 -1.679,-1.723 -3.053,-3.361 -3.053,-3.641 0,-0.279 -0.505,-1.036 -1.122,-1.682 -0.618,-0.646 -1.731,-2.068 -2.474,-3.159 -0.743,-1.092 -1.454,-2.075 -1.58,-2.185 -0.126,-0.11 -0.707,-0.83 -1.291,-1.6 -1.737,-2.287 -12.77,-13.349 -14.933,-14.97 -3.247,-2.434 -6.516,-3.378 -9.2,-2.654 m 6.6,5.849 c 0.77,0.484 1.776,1.217 2.236,1.628 0.46,0.411 1.968,1.737 3.351,2.947 3.304,2.89 4.258,3.817 6.413,6.224 2.777,3.104 3.656,4.155 5.998,7.176 1.194,1.54 2.583,3.213 3.086,3.718 0.504,0.505 0.916,1.087 0.916,1.293 0,0.206 1.115,1.559 2.477,3.007 1.362,1.449 3.027,3.386 3.7,4.306 1.513,2.069 8.599,9.184 11.027,11.072 0.988,0.768 2.145,1.713 2.571,2.1 0.427,0.387 1.012,0.704 1.3,0.704 0.289,0 0.525,0.136 0.525,0.302 0,0.167 0.585,0.545 1.3,0.841 2.197,0.909 4.012,1.702 6.1,2.667 1.1,0.508 3.08,1.282 4.4,1.719 3.288,1.09 4.811,1.386 14.898,2.893 4.531,0.677 7.431,1.269 11.502,2.351 3.058,0.813 4.831,1.393 5.18,1.697 0.209,0.181 0.701,0.33 1.094,0.33 1.408,0 10.535,3.249 11.126,3.961 0.11,0.132 1.73,1.036 3.6,2.007 3.211,1.669 3.957,2.075 7.419,4.036 1.376,0.779 7.714,5.048 11.381,7.666 1.952,1.393 8.413,6.501 9.95,7.867 0.523,0.464 1.828,1.407 2.9,2.095 1.073,0.688 1.95,1.373 1.95,1.521 0,0.149 1.195,1.525 2.655,3.059 1.46,1.533 3.305,3.592 4.1,4.574 0.795,0.982 2.044,2.422 2.776,3.2 2.838,3.014 6.254,7.478 10.477,13.693 1.749,2.574 3.693,5.274 4.319,6 0.627,0.727 1.575,2.131 2.106,3.121 0.532,0.99 1.102,1.86 1.267,1.933 0.165,0.074 0.3,0.327 0.3,0.563 0,0.235 0.418,0.985 0.929,1.666 1.02,1.36 5.471,8.591 5.471,8.888 0,0.102 0.9,1.52 2,3.15 1.1,1.63 2,3.118 2,3.307 0,0.188 0.34,1.052 0.755,1.918 0.416,0.866 1.03,2.391 1.366,3.389 0.336,0.997 1.062,2.8 1.614,4.007 2.263,4.947 4.164,10.369 5.721,16.317 1.575,6.015 1.614,6.154 2.24,8.062 0.765,2.333 1.321,5.674 2.662,16 0.389,2.994 0.869,8.369 1.627,18.2 0.221,2.86 0.588,12.49 0.817,21.4 0.229,8.91 0.579,17.129 0.777,18.264 1.411,8.059 1.364,31.137 -0.073,36.895 -0.716,2.864 -4.182,7.033 -6.195,7.45 -0.611,0.127 -1.77,0.425 -2.576,0.663 -2.364,0.698 -12.886,0.096 -22.135,-1.268 -4.949,-0.729 -9.842,-1.212 -16.6,-1.638 -3.63,-0.229 -8.85,-0.567 -11.6,-0.75 -25.024,-1.673 -25.166,-1.678 -45.4,-1.466 -11,0.115 -22.25,0.387 -25,0.604 -2.75,0.218 -7.43,0.592 -10.4,0.832 -2.97,0.24 -7.92,0.627 -11,0.86 -3.08,0.234 -7.22,0.598 -9.2,0.81 -1.98,0.212 -16.65,0.552 -32.6,0.755 -15.95,0.204 -30.35,0.531 -32,0.729 -12.79,1.533 -16.263,1.545 -18.696,0.065 -2.309,-1.404 -1.757,-7.209 0.941,-9.908 0.312,-0.311 1.049,-1.226 1.639,-2.032 2.012,-2.751 9.111,-9.278 12.116,-11.139 1.65,-1.022 3.9,-2.428 5,-3.125 1.1,-0.697 3.53,-1.857 5.4,-2.58 1.87,-0.722 4.57,-1.907 6,-2.634 1.43,-0.726 4.04,-1.884 5.8,-2.574 3.322,-1.3 10.65,-4.746 11,-5.171 0.217,-0.264 0.52,-0.413 5.6,-2.756 1.87,-0.862 4.898,-2.495 6.729,-3.627 1.832,-1.132 3.415,-2.059 3.518,-2.059 0.248,0 6.293,-4.057 6.553,-4.398 0.11,-0.144 1.37,-1.045 2.8,-2.002 6.576,-4.4 17.762,-14.925 19.629,-18.468 0.27,-0.513 0.603,-1.022 0.74,-1.132 0.251,-0.201 2.157,-3.724 3.961,-7.323 4.477,-8.928 3.666,-28.273 -1.552,-37.022 -4.824,-8.086 -11.043,-7.45 -17.378,1.779 -1.979,2.884 -6.9,7.81 -10.608,10.621 -0.766,0.581 -1.932,1.534 -2.592,2.119 -0.66,0.585 -3.36,2.115 -6,3.401 -9.344,4.552 -13.362,6.425 -13.784,6.425 -0.235,0 -0.739,0.166 -1.121,0.368 -0.382,0.202 -1.775,0.76 -3.095,1.239 -1.32,0.479 -2.76,1.022 -3.2,1.206 -1.457,0.609 -5.206,1.784 -12.8,4.009 -5.526,1.62 -9.921,3.062 -11.6,3.807 -1.1,0.488 -3.08,1.168 -4.4,1.511 -3.35,0.869 -7.413,1.891 -8.6,2.163 -3.875,0.885 -9.801,5.215 -13.01,9.506 -0.655,0.875 -1.505,1.939 -1.89,2.366 -0.385,0.426 -0.924,1.281 -1.197,1.9 -0.274,0.619 -0.634,1.125 -0.801,1.125 -0.166,0 -0.302,0.193 -0.302,0.428 0,0.424 -2.296,3.987 -2.818,4.372 -0.149,0.11 -0.59,0.83 -0.981,1.6 -4.423,8.713 -13.45,13.061 -22.401,10.789 -7.541,-1.913 -9.767,-2.843 -15.291,-6.389 -3.95,-2.535 -5.505,-3.768 -7.504,-5.953 -0.883,-0.965 -2.325,-2.523 -3.205,-3.462 -3.214,-3.433 -5.03,-11.514 -4.22,-18.785 1.051,-9.442 2.317,-14.939 4.572,-19.855 0.541,-1.18 1.381,-3.315 1.866,-4.745 1.15,-3.385 1.704,-4.475 5.124,-10.097 1.572,-2.583 2.858,-4.878 2.858,-5.1 0,-0.222 0.18,-0.403 0.4,-0.403 0.22,0 0.4,-0.193 0.4,-0.428 0,-0.424 2.296,-3.987 2.818,-4.372 0.149,-0.11 0.551,-0.748 0.893,-1.417 0.614,-1.198 3.985,-5.873 4.988,-6.918 0.282,-0.294 1.004,-1.194 1.605,-2 0.6,-0.806 1.191,-1.555 1.313,-1.665 0.122,-0.11 0.647,-0.808 1.166,-1.552 1.079,-1.543 3.429,-4.142 8.698,-9.621 5.195,-5.402 8.519,-9.143 8.519,-9.588 0,-0.21 0.231,-0.62 0.513,-0.91 0.282,-0.291 0.949,-1.159 1.481,-1.929 0.532,-0.77 1.075,-1.49 1.206,-1.6 0.131,-0.11 0.671,-0.83 1.2,-1.6 0.529,-0.77 1.061,-1.49 1.182,-1.6 0.522,-0.474 3.218,-4.825 3.218,-5.194 0,-0.223 0.135,-0.407 0.3,-0.409 0.165,-0.002 0.505,-0.407 0.756,-0.9 2.333,-4.589 3.003,-6.095 3.87,-8.697 0.55,-1.65 1.444,-4.26 1.985,-5.8 1.748,-4.97 1.985,-6.13 3.096,-15.2 1.121,-9.155 2.525,-13.539 5.368,-16.762 0.564,-0.639 1.025,-1.322 1.025,-1.517 0,-0.414 3.961,-4.425 6,-6.075 3.477,-2.815 19.6,-19.149 20.42,-20.688 0.281,-0.527 1.201,-1.874 2.045,-2.994 0.844,-1.12 1.535,-2.245 1.535,-2.5 0,-0.255 0.136,-0.464 0.302,-0.464 0.167,0 0.552,-0.585 0.857,-1.3 0.305,-0.715 0.88,-2.035 1.277,-2.932 0.397,-0.898 1.104,-2.608 1.57,-3.8 0.466,-1.193 1.266,-3.068 1.778,-4.168 1.488,-3.2 1.408,-2.924 2.775,-9.6 1.466,-7.164 2.258,-9.255 4.902,-12.951 3.141,-4.389 5.778,-4.968 10.139,-2.224 m 64.4,315.906 c -0.11,0.111 -3.8,0.413 -8.2,0.671 -18.756,1.1 -29.736,1.911 -30.261,2.236 -0.181,0.112 -10.007,0.361 -21.834,0.554 -13.652,0.223 -22.308,0.523 -23.705,0.822 -1.21,0.259 -4,0.918 -6.2,1.465 -10.158,2.523 -9.807,2.476 -20.2,2.747 -11.296,0.294 -16.976,1.251 -20,3.369 -0.55,0.385 -1.81,1.105 -2.8,1.6 -2.038,1.019 -7.196,6.095 -7.202,7.088 -10e-4,0.174 -0.496,0.857 -1.1,1.517 -1.351,1.477 -1.816,2.429 -2.931,6 -0.48,1.54 -1.232,3.61 -1.671,4.6 -1.32,2.98 -1.439,3.3 -2.232,6 -1.346,4.588 -2.075,9.847 -2.856,20.621 -1.21,16.675 0.584,22.309 7.792,24.462 3.072,0.918 275.382,1.387 282.8,0.487 10.32,-1.252 11.374,-3.215 11.39,-21.206 0.012,-13.15 -0.513,-18.489 -2.394,-24.364 -0.388,-1.21 -0.923,-3.1 -1.189,-4.2 -0.266,-1.1 -0.625,-2.45 -0.799,-3 -0.173,-0.55 -0.554,-1.81 -0.847,-2.8 -0.59,-2.001 -3.35,-7.446 -4.209,-8.305 -0.304,-0.304 -0.552,-0.685 -0.552,-0.847 0,-0.481 -5.841,-6.448 -6.311,-6.448 -0.238,0 -0.679,-0.247 -0.98,-0.548 -1.694,-1.694 -6.667,-3.255 -12.909,-4.053 -1.1,-0.14 -3.62,-0.669 -5.6,-1.176 -4.638,-1.186 -7.422,-1.675 -12.6,-2.214 -5.565,-0.58 -10.373,-1.14 -13.8,-1.609 -1.54,-0.211 -3.52,-0.479 -4.4,-0.595 -0.88,-0.117 -7.9,-0.385 -15.6,-0.596 -13.073,-0.357 -16.654,-0.568 -28,-1.644 -4.567,-0.433 -40.248,-0.99 -40.6,-0.634 m 38,3.894 c 2.97,0.215 7.83,0.573 10.8,0.796 2.97,0.223 11.52,0.576 19,0.785 14.727,0.413 16.953,0.617 26,2.389 1.968,0.386 5.49,0.853 12.2,1.62 7.983,0.911 10.388,1.262 16,2.332 4.502,0.858 12.105,4.881 14,7.406 3.968,5.289 4.898,6.984 6.553,11.945 2.004,6.009 3.564,12.851 4.722,20.702 0.626,4.245 0.656,18.874 0.043,20.8 -0.246,0.77 -0.554,1.889 -0.686,2.486 -0.592,2.676 -5.056,5.104 -10.219,5.557 -4.93,0.433 -268.647,0.409 -273.131,-0.024 -4.213,-0.408 -8.44,-2.075 -9.337,-3.682 -1.543,-2.766 -2.044,-11.838 -1.134,-20.537 0.805,-7.693 1.254,-11.211 1.608,-12.6 0.197,-0.77 0.832,-3.38 1.411,-5.8 1.728,-7.222 3.289,-11.337 5.233,-13.8 2.79,-3.535 4.754,-5.72 5.652,-6.291 0.597,-0.38 1.175,-0.793 1.285,-0.919 0.232,-0.265 5.415,-2.795 6.6,-3.221 0.968,-0.349 2.713,-0.91 4.6,-1.48 0.77,-0.233 4.82,-0.545 9,-0.693 12.023,-0.426 17.849,-1.093 25.6,-2.932 6.49,-1.54 8.013,-1.664 20.6,-1.678 11.24,-0.012 20.001,-0.416 34.6,-1.593 5.182,-0.418 16.662,-1.169 24,-1.571 7.993,-0.438 38.938,-0.435 45,0.003"
     stroke="none"
     fill="#848484"
     fill-rule="evenodd" />
</svg>
