<?xml version="1.0" encoding="UTF-8" standalone="no"?>
<svg
   id="svg"
   version="1.1"
   width="400"
   height="485.7142857142857"
   viewBox="0, 0, 400,485.7142857142857"
   sodipodi:docname="bp.svg"
   inkscape:version="1.1.2 (0a00cf5339, 2022-02-04)"
   xmlns:inkscape="http://www.inkscape.org/namespaces/inkscape"
   xmlns:sodipodi="http://sodipodi.sourceforge.net/DTD/sodipodi-0.dtd"
   xmlns="http://www.w3.org/2000/svg"
   xmlns:svg="http://www.w3.org/2000/svg">
  <defs
     id="defs7782" />
  <sodipodi:namedview
     id="namedview7780"
     pagecolor="#ffffff"
     bordercolor="#cccccc"
     borderopacity="1"
     inkscape:pageshadow="0"
     inkscape:pageopacity="1"
     inkscape:pagecheckerboard="0"
     showgrid="false"
     inkscape:zoom="1.1078699"
     inkscape:cx="172.40291"
     inkscape:cy="275.75439"
     inkscape:window-width="1680"
     inkscape:window-height="1014"
     inkscape:window-x="1920"
     inkscape:window-y="0"
     inkscape:window-maximized="1"
     inkscape:current-layer="svg" />
  <path
     id="path0"
     d="m 181.4,69.014 c -6.943,0.923 -12.901,2.554 -15.58,4.265 -1.308,0.837 -2.593,1.521 -2.854,1.521 -0.261,0 -1.553,0.72 -2.871,1.6 -1.318,0.88 -2.535,1.6 -2.704,1.6 -0.169,0 -1.174,0.81 -2.232,1.8 -1.059,0.99 -2.146,1.8 -2.417,1.8 -0.766,0 -7.942,7.52 -7.942,8.323 0,0.393 -0.277,1.066 -0.616,1.496 -2.277,2.89 -5.446,7.715 -5.625,8.566 -0.117,0.558 -0.632,2.275 -1.145,3.815 -4.477,13.452 -4.944,29.279 -1.219,41.4 0.574,1.87 1.394,4.564 1.821,5.986 0.903,3.006 2.244,6.041 2.922,6.614 1.113,0.941 3.862,4.76 3.862,5.366 0,0.741 7.072,8.034 7.79,8.034 0.577,0 2.61,2.091 2.61,2.684 0,0.356 3.546,2.412 6.4,3.711 0.33,0.15 2.13,1.024 4,1.942 1.87,0.918 3.7,1.668 4.067,1.666 0.367,-0.002 1.504,0.356 2.528,0.795 8.966,3.843 28.145,3.655 38.758,-0.38 0.604,-0.23 1.492,-0.419 1.973,-0.419 0.481,-0.001 1.954,-0.72 3.274,-1.599 1.32,-0.879 2.594,-1.598 2.831,-1.599 0.238,0 1.228,-0.52 2.2,-1.154 0.973,-0.634 2.463,-1.397 3.311,-1.695 0.886,-0.312 2.054,-1.19 2.746,-2.063 0.662,-0.835 1.858,-1.854 2.658,-2.263 1.595,-0.816 3.081,-2.34 4.577,-4.695 0.535,-0.842 1.378,-1.891 1.873,-2.331 0.495,-0.44 1.482,-1.7 2.193,-2.8 0.712,-1.1 1.68,-2.343 2.153,-2.762 0.472,-0.419 0.858,-0.931 0.858,-1.138 0,-0.207 0.33,-0.854 0.734,-1.438 0.973,-1.409 2.113,-4.282 2.483,-6.262 0.321,-1.715 2.089,-6.724 2.801,-7.934 3.145,-5.349 1.203,-32.779 -2.589,-36.57 -0.126,-0.126 -0.229,-0.592 -0.229,-1.036 0,-1.398 -1.687,-5.637 -2.459,-6.183 -0.408,-0.287 -0.741,-0.765 -0.741,-1.062 0,-0.297 -0.643,-1.309 -1.429,-2.249 -0.785,-0.941 -1.789,-2.418 -2.23,-3.282 -0.441,-0.864 -1.373,-2.167 -2.071,-2.895 -0.699,-0.728 -1.72,-1.994 -2.27,-2.814 -1.477,-2.203 -3.052,-3.775 -3.782,-3.775 -0.354,0 -1.851,-0.81 -3.326,-1.8 -1.476,-0.99 -2.876,-1.8 -3.112,-1.8 -0.236,0 -0.778,-0.325 -1.205,-0.722 -0.426,-0.398 -1.945,-1.404 -3.375,-2.236 -1.43,-0.832 -3.05,-1.925 -3.6,-2.427 -0.55,-0.503 -1.72,-1.015 -2.6,-1.139 -0.88,-0.123 -2.945,-0.517 -4.589,-0.874 C 197.51,68.32 189.997,67.871 181.4,69.014 m 3.2,148.97 c -6.645,0.483 -9.965,1.499 -17,5.204 -0.77,0.406 -2.21,0.948 -3.2,1.204 -1.881,0.487 -6,2.747 -6,3.293 0,0.173 -0.242,0.315 -0.539,0.315 -0.296,0 -1.167,0.61 -1.935,1.356 -0.768,0.746 -1.96,1.648 -2.649,2.004 -0.689,0.357 -1.444,1.005 -1.677,1.44 -0.233,0.435 -0.986,1.083 -1.674,1.438 -0.688,0.356 -1.614,0.986 -2.059,1.4 -0.444,0.414 -1.138,0.858 -1.542,0.986 -0.404,0.128 -1.027,0.805 -1.385,1.504 -0.358,0.7 -1.865,2.442 -3.349,3.872 -1.484,1.43 -2.98,3.275 -3.324,4.1 -0.345,0.825 -0.791,1.5 -0.992,1.5 -0.201,0 -0.886,0.755 -1.521,1.677 -0.635,0.922 -1.668,2.227 -2.297,2.9 -0.629,0.673 -1.736,2.131 -2.46,3.24 -0.724,1.11 -1.604,2.257 -1.956,2.549 -0.353,0.293 -0.641,0.796 -0.641,1.118 0,0.648 -1.938,4.709 -3.317,6.952 -2.754,4.478 -3.476,5.847 -3.479,6.594 -0.002,0.456 -0.711,3.696 -1.576,7.2 -1.765,7.158 -2.595,13.339 -3.244,24.17 -0.524,8.73 -1.622,13.727 -3.794,17.26 -0.765,1.243 -1.39,2.354 -1.39,2.468 0,0.58 -3.19,3.652 -4.474,4.308 -0.81,0.414 -1.711,1.092 -2.001,1.507 -1.138,1.625 -6.974,5.44 -11.525,7.535 -4.139,1.904 -5.062,2.372 -5.703,2.886 -0.386,0.311 -1.031,0.761 -1.433,1 -0.402,0.24 -1.743,1.111 -2.978,1.936 -1.236,0.825 -2.443,1.5 -2.683,1.5 -0.886,0 -3.451,1.58 -5.003,3.082 -0.88,0.851 -2.427,2.116 -3.438,2.809 -1.011,0.694 -2.383,1.883 -3.05,2.643 -0.667,0.759 -1.566,1.493 -1.997,1.63 -2.283,0.724 -15.715,14.017 -15.715,15.552 0,0.182 -0.765,1.146 -1.7,2.143 -0.935,0.996 -2.05,2.381 -2.478,3.076 -0.428,0.696 -1.238,1.843 -1.8,2.55 -2.349,2.955 -2.775,3.657 -3.996,6.591 -0.704,1.691 -1.411,3.131 -1.57,3.2 -1.034,0.444 -5.256,8.618 -5.256,10.176 0,0.313 -0.711,2.769 -1.579,5.458 -4.349,13.468 -6.251,34.535 -3.796,42.052 1.01,3.091 2.353,5.438 3.113,5.438 0.214,0 1.305,0.692 2.425,1.537 1.726,1.303 2.526,1.609 5.237,2.003 4.975,0.723 298.778,0.643 303.241,-0.083 3.537,-0.575 7.618,-2.659 8.83,-4.509 3.452,-5.269 3.157,-25.536 -0.631,-43.348 -0.21,-0.99 -1.022,-3.06 -1.804,-4.6 -0.782,-1.54 -1.424,-3.121 -1.429,-3.513 -0.004,-0.393 -0.434,-1.563 -0.955,-2.6 -0.522,-1.038 -1.078,-2.304 -1.235,-2.813 -0.158,-0.51 -1.058,-2.051 -1.999,-3.426 -0.941,-1.375 -2.341,-3.749 -3.11,-5.274 -0.769,-1.526 -2.032,-3.963 -2.808,-5.416 -0.775,-1.453 -1.537,-3.046 -1.694,-3.54 -0.157,-0.493 -0.627,-1.239 -1.045,-1.657 -0.419,-0.419 -0.761,-1.001 -0.761,-1.293 0,-0.293 -0.41,-0.752 -0.91,-1.02 -0.501,-0.268 -1.896,-1.583 -3.1,-2.923 -1.866,-2.074 -5.62,-5.85 -8.59,-8.638 -0.44,-0.413 -1.093,-1.096 -1.45,-1.519 -1.296,-1.531 -3.127,-2.999 -4.424,-3.548 -0.729,-0.308 -2.046,-1.308 -2.926,-2.223 -0.88,-0.915 -2.05,-1.9 -2.6,-2.19 -0.55,-0.289 -2.162,-1.456 -3.582,-2.592 -1.421,-1.136 -3.838,-2.695 -5.373,-3.465 -1.534,-0.77 -3.311,-1.839 -3.948,-2.375 -0.637,-0.536 -1.291,-0.975 -1.452,-0.975 -0.162,0 -0.643,-0.323 -1.07,-0.718 -0.426,-0.396 -1.675,-1.125 -2.775,-1.622 -3.41,-1.539 -10.055,-5.521 -11.573,-6.936 -0.428,-0.398 -0.993,-0.724 -1.255,-0.724 -0.262,0 -0.948,-0.618 -1.524,-1.373 -0.576,-0.755 -1.453,-1.494 -1.948,-1.643 -4.437,-1.33 -7.488,-8.363 -8.498,-19.584 -0.866,-9.633 -1.655,-15.449 -2.402,-17.722 -0.34,-1.033 -1.257,-3.768 -2.038,-6.078 -0.782,-2.31 -1.581,-5.158 -1.775,-6.328 -0.329,-1.979 -2.063,-6.375 -2.705,-6.86 -0.294,-0.222 -0.889,-1.262 -3.207,-5.612 -0.762,-1.43 -1.991,-3.531 -2.73,-4.668 -0.74,-1.137 -1.345,-2.352 -1.345,-2.7 0,-0.348 -0.16,-0.632 -0.357,-0.632 -0.196,0 -0.636,-0.7 -0.979,-1.556 -0.342,-0.856 -1.712,-2.666 -3.043,-4.023 -1.332,-1.356 -2.421,-2.656 -2.421,-2.888 0,-0.573 -2.709,-3.832 -6.586,-7.925 -5.62,-5.931 -6.857,-7.091 -11.814,-11.071 -0.77,-0.618 -1.49,-1.237 -1.6,-1.375 -0.11,-0.138 -0.78,-0.547 -1.488,-0.91 -0.709,-0.363 -1.473,-1.005 -1.699,-1.427 -0.225,-0.421 -1.445,-1.153 -2.711,-1.626 -1.266,-0.473 -3.098,-1.386 -4.071,-2.029 -0.972,-0.644 -1.965,-1.17 -2.206,-1.17 -0.24,0 -1.117,-0.365 -1.949,-0.811 -4.465,-2.393 -15.458,-3.575 -26.076,-2.805"
     stroke="none"
     fill="#0e0e0e"
     fill-rule="evenodd" />
  <path
     id="path1"
     d="M 0,242.8 V 485.6 H 200 400 V 242.8 0 H 200 0 V 242.8 M 202.2,58.979 c 1.76,0.318 4.73,1.034 6.6,1.591 1.87,0.557 3.641,1.017 3.935,1.022 0.661,0.01 4.904,2.057 7.065,3.409 0.88,0.55 2.95,1.649 4.6,2.442 1.65,0.793 3.72,2.104 4.6,2.915 0.88,0.811 2.904,2.317 4.497,3.348 3.298,2.133 7.099,5.571 7.943,7.185 0.315,0.601 1.537,2.174 2.717,3.496 1.962,2.199 4.24,6.13 4.245,7.324 0.001,0.269 0.596,1.136 1.323,1.928 1.309,1.424 5.075,8.362 5.075,9.348 0,0.281 0.358,1.32 0.795,2.308 4.202,9.5 4.21,32.816 0.015,43.086 -0.409,1 -1.052,2.67 -1.428,3.711 -0.376,1.04 -1.111,2.47 -1.633,3.177 -0.522,0.708 -0.949,1.439 -0.949,1.626 0,0.186 -0.678,1.276 -1.507,2.422 -0.829,1.146 -1.756,2.803 -2.06,3.683 -0.603,1.743 -2.349,4.72 -2.893,4.933 -0.187,0.074 -0.34,0.33 -0.34,0.57 0,0.858 -10.282,10.602 -13.212,12.52 -1.643,1.075 -3.226,2.185 -3.516,2.466 -0.29,0.28 -1.01,0.627 -1.6,0.77 -0.972,0.235 -3.671,2.033 -4.672,3.11 -0.22,0.237 -1.03,0.676 -1.8,0.976 -5.074,1.974 -6.761,2.522 -8.754,2.844 -1.235,0.2 -3.506,0.801 -5.046,1.335 -8.388,2.911 -26.767,2.499 -33.03,-0.74 -0.622,-0.321 -1.535,-0.584 -2.029,-0.584 -2.534,0 -11.22,-3.324 -12.541,-4.8 -0.44,-0.491 -1.79,-1.331 -3,-1.865 -1.21,-0.535 -2.864,-1.504 -3.677,-2.154 -0.812,-0.649 -1.608,-1.181 -1.77,-1.181 -0.385,0 -2.887,-2.358 -5.922,-5.581 -1.337,-1.419 -3.683,-3.848 -5.214,-5.396 -2.628,-2.659 -7.417,-9.287 -7.417,-10.265 0,-0.248 -0.648,-1.825 -1.44,-3.504 -5.285,-11.21 -5.531,-12.524 -5.536,-29.654 -0.005,-15.58 0.347,-18.546 2.833,-23.882 0.739,-1.584 1.343,-2.975 1.343,-3.089 0,-0.114 0.63,-1.502 1.4,-3.085 0.77,-1.582 1.4,-3.091 1.4,-3.353 0,-0.262 0.603,-1.267 1.34,-2.233 0.737,-0.967 1.634,-2.328 1.993,-3.026 0.36,-0.697 1.659,-2.227 2.887,-3.4 1.228,-1.172 2.705,-2.942 3.283,-3.932 1.116,-1.913 5.174,-5.984 5.974,-5.994 0.263,-0.003 0.713,-0.328 1,-0.722 0.288,-0.394 1.063,-1.095 1.723,-1.557 0.66,-0.463 1.843,-1.446 2.628,-2.184 0.785,-0.739 1.865,-1.554 2.4,-1.811 0.535,-0.257 2.142,-1.023 3.572,-1.702 1.43,-0.679 3.95,-1.978 5.6,-2.886 2.833,-1.559 4.254,-2.074 11,-3.985 5.762,-1.633 20.623,-2.168 27.2,-0.98 m -2.931,148.655 c 8.998,1.834 19.467,5.608 22.675,8.174 0.361,0.289 1.646,1.344 2.856,2.346 1.21,1.002 3.19,2.295 4.4,2.874 1.21,0.578 2.29,1.188 2.4,1.354 0.11,0.166 0.696,0.559 1.303,0.873 3.126,1.618 13.235,12.217 15.396,16.142 0.274,0.498 1.129,1.387 1.9,1.975 0.77,0.588 1.401,1.272 1.401,1.52 0,0.248 0.585,1.014 1.3,1.702 1.924,1.852 4.871,5.755 5.893,7.806 0.494,0.99 1.262,2.198 1.708,2.685 1.482,1.619 3.736,6.225 4.557,9.315 0.321,1.21 1.015,2.65 1.542,3.2 0.527,0.55 1.249,1.697 1.604,2.549 0.356,0.851 1.06,2.202 1.564,3.001 0.889,1.408 2.66,6.257 3.996,10.942 0.993,3.481 2.01,11.662 2.626,21.108 0.468,7.187 1.273,9.749 4.049,12.898 0.631,0.716 1.151,1.49 1.155,1.721 0.013,0.903 3.168,3.365 6.33,4.939 1.829,0.911 3.539,1.836 3.8,2.055 1,0.837 3.62,2.446 5.607,3.442 1.138,0.571 3.102,1.737 4.364,2.591 1.263,0.855 2.398,1.554 2.522,1.554 0.41,0 5.964,4.27 6.953,5.345 0.533,0.58 1.267,1.055 1.631,1.055 0.364,0 2.684,1.62 5.155,3.6 2.471,1.98 4.662,3.6 4.868,3.6 0.205,0 1.071,0.63 1.923,1.4 0.853,0.77 1.708,1.401 1.901,1.403 0.194,0.002 1.146,0.812 2.117,1.8 0.971,0.988 1.911,1.797 2.09,1.797 0.178,0 0.601,0.535 0.939,1.188 0.338,0.654 1.963,2.511 3.61,4.127 1.648,1.616 2.996,3.068 2.996,3.227 0,0.159 0.72,1.038 1.6,1.954 0.88,0.916 1.6,1.884 1.6,2.151 0,0.268 0.135,0.546 0.3,0.62 0.538,0.239 2.768,3.753 3.021,4.759 0.135,0.54 0.909,1.7 1.72,2.578 0.81,0.878 2.523,3.756 3.806,6.396 1.283,2.64 2.787,5.323 3.343,5.962 0.555,0.639 1.014,1.449 1.019,1.8 0.008,0.541 1.11,2.772 3.082,6.238 0.839,1.474 3.326,9.9 3.709,12.565 0.209,1.449 0.913,4.795 1.566,7.435 2.264,9.157 2.859,30.012 1.027,36 -2.192,7.163 -4.301,9.575 -10.193,11.662 l -2.6,0.921 -158.88,0.009 c -113.342,0.006 -159.488,-0.117 -161,-0.429 -9.032,-1.862 -10.798,-5.336 -11.367,-22.363 -0.699,-20.899 1.682,-38.589 6.475,-48.124 0.975,-1.938 1.772,-3.842 1.772,-4.229 0,-0.779 2.234,-5.097 2.826,-5.463 0.206,-0.127 0.374,-0.568 0.374,-0.979 0,-0.411 0.232,-0.986 0.515,-1.276 0.283,-0.291 0.956,-1.249 1.494,-2.129 0.539,-0.88 1.837,-2.547 2.885,-3.704 1.048,-1.158 1.906,-2.435 1.906,-2.839 0,-0.788 0.636,-1.628 3.375,-4.457 0.959,-0.99 2.469,-2.79 3.357,-4 2.696,-3.676 3.015,-4.081 4.54,-5.77 2.195,-2.431 3.683,-3.955 4.551,-4.663 0.427,-0.348 1.243,-1.158 1.813,-1.8 1.132,-1.276 4.187,-3.884 4.809,-4.106 0.214,-0.077 1.159,-0.84 2.1,-1.696 2.444,-2.224 6.093,-4.711 7.366,-5.02 0.599,-0.145 1.899,-1.1 2.889,-2.122 2.138,-2.208 8.994,-6.858 13.2,-8.954 1.65,-0.823 4.26,-2.207 5.8,-3.076 1.54,-0.87 3.25,-1.782 3.8,-2.026 2.998,-1.333 3.764,-1.883 5.041,-3.623 0.77,-1.049 1.931,-2.354 2.58,-2.9 0.648,-0.546 1.179,-1.174 1.179,-1.395 0,-0.222 0.366,-1.023 0.812,-1.78 1.033,-1.751 1.575,-6.363 1.605,-13.669 0.045,-10.574 0.955,-17.808 2.798,-22.23 0.68,-1.634 1.563,-4.05 1.961,-5.37 1.88,-6.235 3.842,-11.144 5.034,-12.6 0.27,-0.33 0.73,-1.275 1.021,-2.101 0.292,-0.825 1.214,-2.404 2.05,-3.508 0.835,-1.104 1.519,-2.156 1.519,-2.337 0,-0.182 0.383,-0.673 0.851,-1.092 0.468,-0.419 1.392,-1.889 2.053,-3.267 0.661,-1.378 1.795,-3.026 2.52,-3.663 0.726,-0.636 1.757,-1.852 2.293,-2.701 0.536,-0.848 1.269,-1.787 1.629,-2.086 0.36,-0.299 0.654,-0.761 0.654,-1.027 0,-0.266 0.72,-1.063 1.6,-1.77 0.88,-0.707 1.606,-1.502 1.613,-1.767 0.007,-0.264 1.027,-1.381 2.267,-2.481 1.239,-1.1 3.888,-3.575 5.886,-5.5 1.999,-1.925 3.831,-3.5 4.072,-3.5 0.241,0 0.781,-0.387 1.2,-0.859 0.419,-0.473 2.022,-1.441 3.562,-2.153 1.54,-0.711 3.236,-1.765 3.77,-2.341 0.533,-0.576 1.195,-1.047 1.471,-1.047 0.276,0 0.74,-0.229 1.03,-0.508 0.804,-0.773 4.546,-3.092 4.99,-3.092 0.215,0 1.808,-0.72 3.539,-1.6 1.731,-0.88 3.404,-1.6 3.718,-1.6 0.314,0 2.665,-0.663 5.226,-1.473 7.111,-2.25 18.17,-3.225 23.725,-2.093"
     stroke="none"
     fill="#f2f2f2"
     fill-rule="evenodd"
     style="fill:none" />
  <path
     id="path2"
     d="m 181.2,64.354 c -6.576,0.882 -20.959,5.713 -22.8,7.657 -0.11,0.116 -1.64,1.277 -3.4,2.579 -1.76,1.302 -3.344,2.602 -3.52,2.889 -0.176,0.286 -0.551,0.521 -0.833,0.521 -0.283,0 -1.129,0.598 -1.88,1.33 -0.752,0.731 -1.952,1.733 -2.667,2.227 -0.715,0.494 -1.3,1.121 -1.3,1.395 0,0.273 -0.317,0.846 -0.704,1.273 -0.878,0.967 -5.505,7.529 -7.041,9.987 -1.659,2.652 -5.058,10.665 -5.647,13.315 -0.279,1.25 -1.004,4.073 -1.612,6.273 -2.234,8.085 -1.919,19.484 0.794,28.8 0.513,1.76 1.241,4.28 1.619,5.6 0.378,1.32 1.09,3.21 1.582,4.2 0.492,0.99 1.003,2.254 1.136,2.808 0.482,2.007 8.267,13.333 10.578,15.387 0.498,0.443 1.782,1.615 2.853,2.605 2.863,2.645 5.185,4.579 5.709,4.755 0.254,0.085 1.378,0.849 2.497,1.698 1.12,0.849 2.255,1.544 2.523,1.545 0.267,0.001 1.6,0.722 2.962,1.602 1.361,0.88 2.762,1.602 3.113,1.605 0.351,0.002 1.358,0.411 2.238,0.908 8.557,4.831 42.724,4.702 47.964,-0.18 0.433,-0.403 0.981,-0.733 1.219,-0.733 0.237,0 1.058,-0.423 1.824,-0.939 0.766,-0.516 2.473,-1.533 3.793,-2.26 1.32,-0.726 2.49,-1.451 2.6,-1.611 0.11,-0.159 0.92,-0.673 1.8,-1.141 1.849,-0.984 8.2,-5.944 8.2,-6.404 0,-0.17 0.81,-0.891 1.8,-1.602 0.99,-0.711 1.8,-1.537 1.8,-1.835 0,-0.298 0.159,-0.601 0.353,-0.675 0.63,-0.238 4.629,-5.353 5.286,-6.763 0.352,-0.753 1.45,-3.08 2.441,-5.17 3.705,-7.813 4.359,-9.342 4.769,-11.148 0.231,-1.019 0.586,-2.408 0.789,-3.088 1.789,-6.011 2.01,-20.564 0.425,-27.964 -1.599,-7.463 -1.757,-7.999 -2.91,-9.906 -0.634,-1.048 -1.153,-2.076 -1.153,-2.284 0,-0.207 -0.81,-1.993 -1.8,-3.967 -0.99,-1.975 -1.801,-3.827 -1.801,-4.117 -0.005,-2.151 -9.792,-13.287 -14.11,-16.055 -1.149,-0.736 -2.336,-1.638 -2.638,-2.005 -0.302,-0.366 -0.773,-0.666 -1.048,-0.666 -0.274,0 -1.377,-0.693 -2.451,-1.539 C 222.508,71.649 215.55,68 214.522,68 c -0.329,0 -2.466,-0.638 -4.75,-1.419 -8.197,-2.801 -18.379,-3.594 -28.572,-2.227 m 19.411,4.826 c 2.425,0.425 5.755,1.064 7.4,1.422 1.644,0.357 3.709,0.751 4.589,0.874 0.88,0.124 2.05,0.636 2.6,1.139 0.55,0.502 2.17,1.595 3.6,2.427 1.43,0.832 2.949,1.838 3.375,2.236 0.427,0.397 0.969,0.722 1.205,0.722 0.236,0 1.636,0.81 3.112,1.8 1.475,0.99 2.972,1.8 3.326,1.8 0.73,0 2.305,1.572 3.782,3.775 0.55,0.82 1.571,2.086 2.27,2.814 0.698,0.728 1.63,2.031 2.071,2.895 0.441,0.864 1.445,2.341 2.23,3.282 0.786,0.94 1.429,1.952 1.429,2.249 0,0.297 0.333,0.775 0.741,1.062 0.772,0.546 2.459,4.785 2.459,6.183 0,0.444 0.103,0.91 0.229,1.036 3.792,3.791 5.734,31.221 2.589,36.57 -0.712,1.21 -2.48,6.219 -2.801,7.934 -0.37,1.98 -1.51,4.853 -2.483,6.262 -0.404,0.584 -0.734,1.231 -0.734,1.438 0,0.207 -0.386,0.719 -0.858,1.138 -0.473,0.419 -1.441,1.662 -2.153,2.762 -0.711,1.1 -1.698,2.36 -2.193,2.8 -0.495,0.44 -1.338,1.489 -1.873,2.331 -1.496,2.355 -2.982,3.879 -4.577,4.695 -0.8,0.409 -1.996,1.428 -2.658,2.263 -0.692,0.873 -1.86,1.751 -2.746,2.063 -0.848,0.298 -2.338,1.061 -3.311,1.695 -0.972,0.634 -1.962,1.154 -2.2,1.154 -0.237,0.001 -1.511,0.72 -2.831,1.599 -1.32,0.879 -2.793,1.598 -3.274,1.599 -0.481,0 -1.369,0.189 -1.973,0.419 -10.613,4.035 -29.792,4.223 -38.758,0.38 -1.024,-0.439 -2.161,-0.797 -2.528,-0.795 -0.367,0.002 -2.197,-0.748 -4.067,-1.666 -1.87,-0.918 -3.67,-1.792 -4,-1.942 -2.854,-1.299 -6.4,-3.355 -6.4,-3.711 0,-0.593 -2.033,-2.684 -2.61,-2.684 -0.718,0 -7.79,-7.293 -7.79,-8.034 0,-0.606 -2.749,-4.425 -3.862,-5.366 -0.678,-0.573 -2.019,-3.608 -2.922,-6.614 -0.427,-1.422 -1.247,-4.116 -1.821,-5.986 -3.725,-12.121 -3.258,-27.948 1.219,-41.4 0.513,-1.54 1.028,-3.257 1.145,-3.815 0.179,-0.851 3.348,-5.676 5.625,-8.566 0.339,-0.43 0.616,-1.103 0.616,-1.496 0,-0.803 7.176,-8.323 7.942,-8.323 0.271,0 1.358,-0.81 2.417,-1.8 1.058,-0.99 2.063,-1.8 2.232,-1.8 0.169,0 1.386,-0.72 2.704,-1.6 1.318,-0.88 2.61,-1.6 2.871,-1.6 0.261,0 1.546,-0.684 2.854,-1.521 6.126,-3.914 23.888,-6.007 34.791,-4.099 M 187.6,212.789 c -6.25,0.633 -12.168,1.95 -15.394,3.425 -1.133,0.518 -3.079,1.324 -4.325,1.79 -1.246,0.466 -2.371,1.018 -2.499,1.226 -0.129,0.208 -2.787,1.606 -5.908,3.108 -3.214,1.546 -6.541,3.469 -7.674,4.434 -1.1,0.938 -2.682,2.273 -3.516,2.966 -2.461,2.049 -13.484,13.194 -13.484,13.634 0,0.146 -1.417,1.932 -3.149,3.968 -1.732,2.036 -4.012,5.223 -5.066,7.081 -1.055,1.859 -2.383,4.161 -2.951,5.117 -2.287,3.846 -4.858,9.041 -5.261,10.63 -0.172,0.677 -1.046,3.356 -1.943,5.951 -0.896,2.596 -1.632,5.116 -1.635,5.6 -0.003,0.485 -0.376,2.051 -0.829,3.481 -1.428,4.512 -1.982,8.735 -2.358,18 -0.373,9.19 -0.822,12.036 -2.435,15.426 -0.425,0.895 -0.773,1.813 -0.773,2.04 0,0.733 -2.386,3.734 -2.969,3.734 -0.31,0 -0.624,0.135 -0.698,0.3 -0.178,0.401 -3.472,2.58 -4.757,3.146 -0.563,0.248 -1.528,0.919 -2.145,1.49 -0.616,0.571 -1.505,1.159 -1.976,1.307 -0.47,0.147 -1.755,0.842 -2.855,1.542 -1.1,0.701 -2.99,1.77 -4.2,2.376 -1.21,0.606 -2.773,1.538 -3.473,2.071 -0.701,0.532 -1.511,0.968 -1.8,0.969 -0.29,0 -1.157,0.551 -1.927,1.224 -0.77,0.673 -2.21,1.645 -3.2,2.159 -0.99,0.514 -2.5,1.493 -3.355,2.176 -0.855,0.682 -1.8,1.24 -2.099,1.24 -0.299,0 -1.219,0.608 -2.045,1.352 -2.648,2.385 -11.024,9.048 -11.374,9.048 -0.186,0 -0.651,0.508 -1.033,1.13 -0.382,0.621 -1.79,2.106 -3.129,3.3 -1.339,1.193 -3.665,3.79 -5.17,5.77 -1.504,1.98 -4.053,5.087 -5.665,6.905 -1.611,1.818 -2.93,3.549 -2.93,3.846 0,0.298 -0.344,0.978 -0.764,1.513 -0.42,0.534 -1.331,2.086 -2.023,3.448 -0.692,1.362 -1.539,2.757 -1.882,3.1 -0.678,0.678 -4.66,8.316 -5.521,10.588 -0.291,0.77 -1.088,2.724 -1.77,4.341 -0.682,1.618 -1.24,3.298 -1.24,3.733 0,0.436 -0.443,2.082 -0.984,3.659 -2.33,6.786 -3.411,16.445 -3.388,30.267 0.026,16.113 1.292,18.691 11.172,22.736 l 2.6,1.064 h 153.8 153.8 l 2.954,-0.95 c 2.775,-0.892 6.446,-2.944 6.446,-3.603 0,-0.163 0.325,-0.645 0.721,-1.072 5.259,-5.652 5.407,-31.693 0.277,-48.575 -0.368,-1.21 -0.804,-2.962 -0.969,-3.892 -0.301,-1.7 -2.369,-6.21 -4.527,-9.873 -0.637,-1.08 -1.586,-3.104 -2.11,-4.496 -0.935,-2.483 -3.758,-7.495 -5.64,-10.012 -0.524,-0.701 -0.952,-1.542 -0.952,-1.87 0,-0.327 -0.421,-1.104 -0.936,-1.726 -0.515,-0.622 -1.571,-2.121 -2.345,-3.331 -0.775,-1.21 -2.598,-3.46 -4.052,-5 -1.453,-1.54 -2.648,-2.933 -2.655,-3.095 -0.006,-0.162 -1.227,-1.478 -2.712,-2.925 -4.375,-4.263 -5.279,-5.092 -6.05,-5.548 -1.276,-0.754 -5.262,-3.934 -8.692,-6.932 -1.824,-1.595 -3.531,-2.9 -3.792,-2.9 -0.262,0 -1.705,-0.81 -3.208,-1.8 -1.503,-0.99 -2.876,-1.8 -3.052,-1.8 -0.177,0 -1.192,-0.72 -2.257,-1.6 -1.065,-0.88 -2.084,-1.6 -2.264,-1.6 -0.181,0 -1.412,-0.72 -2.737,-1.6 -1.325,-0.88 -2.536,-1.6 -2.691,-1.6 -0.363,0 -5.595,-3.352 -8.273,-5.3 -1.134,-0.825 -2.248,-1.5 -2.474,-1.5 -1.589,0 -8.61,-6.611 -8.61,-8.108 0,-0.282 -0.243,-0.869 -0.539,-1.303 -1.543,-2.256 -2.335,-5.988 -2.671,-12.589 -0.582,-11.418 -2.585,-21.364 -5.6,-27.8 -1.625,-3.47 -3.976,-9.226 -4.558,-11.16 -0.276,-0.917 -1.071,-2.453 -1.767,-3.413 -0.696,-0.961 -1.265,-1.922 -1.265,-2.136 0,-0.214 -0.81,-1.525 -1.8,-2.912 -0.99,-1.387 -1.8,-2.79 -1.8,-3.117 0,-0.328 -0.143,-0.655 -0.319,-0.729 -0.175,-0.073 -1.443,-1.618 -2.818,-3.433 -1.374,-1.815 -2.671,-3.3 -2.881,-3.3 -0.21,0 -0.387,-0.225 -0.393,-0.5 -0.007,-0.275 -0.727,-1.304 -1.601,-2.286 -0.874,-0.982 -1.687,-2.096 -1.807,-2.475 -0.121,-0.38 -1.223,-1.736 -2.449,-3.014 -5.45,-5.683 -8.067,-8.285 -9.901,-9.848 -1.083,-0.922 -2.784,-2.442 -3.779,-3.377 -0.996,-0.935 -2.09,-1.702 -2.431,-1.704 -0.342,-0.002 -1.701,-0.685 -3.021,-1.517 -1.32,-0.833 -2.985,-1.753 -3.7,-2.045 -0.715,-0.292 -1.3,-0.671 -1.3,-0.843 0,-0.447 -2.282,-1.731 -4.606,-2.591 -1.097,-0.406 -2.174,-0.856 -2.394,-1 -3.302,-2.165 -17.225,-4.277 -23.8,-3.611 m 17.482,6.201 c 2.245,0.544 4.762,1.354 5.594,1.799 0.832,0.446 1.709,0.811 1.949,0.811 0.241,0 1.234,0.526 2.206,1.17 0.973,0.643 2.805,1.556 4.071,2.029 1.266,0.473 2.486,1.205 2.711,1.626 0.226,0.422 0.99,1.064 1.699,1.427 0.708,0.363 1.378,0.772 1.488,0.91 0.11,0.138 0.83,0.757 1.6,1.375 4.957,3.98 6.194,5.14 11.814,11.071 3.877,4.093 6.586,7.352 6.586,7.925 0,0.232 1.089,1.532 2.421,2.888 1.331,1.357 2.701,3.167 3.043,4.023 0.343,0.856 0.783,1.556 0.979,1.556 0.197,0 0.357,0.284 0.357,0.632 0,0.348 0.605,1.563 1.345,2.7 0.739,1.137 1.968,3.238 2.73,4.668 2.318,4.35 2.913,5.39 3.207,5.612 0.642,0.485 2.376,4.881 2.705,6.86 0.194,1.17 0.993,4.018 1.775,6.328 0.781,2.31 1.698,5.045 2.038,6.078 0.747,2.273 1.536,8.089 2.402,17.722 1.01,11.221 4.061,18.254 8.498,19.584 0.495,0.149 1.372,0.888 1.948,1.643 0.576,0.755 1.262,1.373 1.524,1.373 0.262,0 0.827,0.326 1.255,0.724 1.518,1.415 8.163,5.397 11.573,6.936 1.1,0.497 2.349,1.226 2.775,1.622 0.427,0.395 0.908,0.718 1.07,0.718 0.161,0 0.815,0.439 1.452,0.975 0.637,0.536 2.414,1.605 3.948,2.375 1.535,0.77 3.952,2.329 5.373,3.465 1.42,1.136 3.032,2.303 3.582,2.592 0.55,0.29 1.72,1.275 2.6,2.19 0.88,0.915 2.197,1.915 2.926,2.223 1.297,0.549 3.128,2.017 4.424,3.548 0.357,0.423 1.01,1.106 1.45,1.519 2.97,2.788 6.724,6.564 8.59,8.638 1.204,1.34 2.599,2.655 3.1,2.923 0.5,0.268 0.91,0.727 0.91,1.02 0,0.292 0.342,0.874 0.761,1.293 0.418,0.418 0.888,1.164 1.045,1.657 0.157,0.494 0.919,2.087 1.694,3.54 0.776,1.453 2.039,3.89 2.808,5.416 0.769,1.525 2.169,3.899 3.11,5.274 0.941,1.375 1.841,2.916 1.999,3.426 0.157,0.509 0.713,1.775 1.235,2.813 0.521,1.037 0.951,2.207 0.955,2.6 0.005,0.392 0.647,1.973 1.429,3.513 0.782,1.54 1.594,3.61 1.804,4.6 3.788,17.812 4.083,38.079 0.631,43.348 -1.212,1.85 -5.293,3.934 -8.83,4.509 -4.463,0.726 -298.266,0.806 -303.241,0.083 -2.711,-0.394 -3.511,-0.7 -5.237,-2.003 -1.12,-0.845 -2.211,-1.537 -2.425,-1.537 -0.76,0 -2.103,-2.347 -3.113,-5.438 -2.455,-7.517 -0.553,-28.584 3.796,-42.052 0.868,-2.689 1.579,-5.145 1.579,-5.458 0,-1.558 4.222,-9.732 5.256,-10.176 0.159,-0.069 0.866,-1.509 1.57,-3.2 1.221,-2.934 1.647,-3.636 3.996,-6.591 0.562,-0.707 1.372,-1.854 1.8,-2.55 0.428,-0.695 1.543,-2.08 2.478,-3.076 0.935,-0.997 1.7,-1.961 1.7,-2.143 0,-1.535 13.432,-14.828 15.715,-15.552 0.431,-0.137 1.33,-0.871 1.997,-1.63 0.667,-0.76 2.039,-1.949 3.05,-2.643 1.011,-0.693 2.558,-1.958 3.438,-2.809 1.552,-1.502 4.117,-3.082 5.003,-3.082 0.24,0 1.447,-0.675 2.683,-1.5 1.235,-0.825 2.576,-1.696 2.978,-1.936 0.402,-0.239 1.047,-0.689 1.433,-1 0.641,-0.514 1.564,-0.982 5.703,-2.886 4.551,-2.095 10.387,-5.91 11.525,-7.535 0.29,-0.415 1.191,-1.093 2.001,-1.507 1.284,-0.656 4.474,-3.728 4.474,-4.308 0,-0.114 0.625,-1.225 1.39,-2.468 2.172,-3.533 3.27,-8.53 3.794,-17.26 0.649,-10.831 1.479,-17.012 3.244,-24.17 0.865,-3.504 1.574,-6.744 1.576,-7.2 0.003,-0.747 0.725,-2.116 3.479,-6.594 1.379,-2.243 3.317,-6.304 3.317,-6.952 0,-0.322 0.288,-0.825 0.641,-1.118 0.352,-0.292 1.232,-1.439 1.956,-2.549 0.724,-1.109 1.831,-2.567 2.46,-3.24 0.629,-0.673 1.662,-1.978 2.297,-2.9 0.635,-0.922 1.32,-1.677 1.521,-1.677 0.201,0 0.647,-0.675 0.992,-1.5 0.344,-0.825 1.84,-2.67 3.324,-4.1 1.484,-1.43 2.991,-3.172 3.349,-3.872 0.358,-0.699 0.981,-1.376 1.385,-1.504 0.404,-0.128 1.098,-0.572 1.542,-0.986 0.445,-0.414 1.371,-1.044 2.059,-1.4 0.688,-0.355 1.441,-1.003 1.674,-1.438 0.233,-0.435 0.988,-1.083 1.677,-1.44 0.689,-0.356 1.881,-1.258 2.649,-2.004 0.768,-0.746 1.639,-1.356 1.935,-1.356 0.297,0 0.539,-0.142 0.539,-0.315 0,-0.546 4.119,-2.806 6,-3.293 0.99,-0.256 2.43,-0.798 3.2,-1.204 4.187,-2.205 7.299,-3.528 9.8,-4.168 6.546,-1.674 20.827,-1.69 27.682,-0.03"
     stroke="none"
     fill="#747474"
     fill-rule="evenodd" />
  <path
     id="path3"
     d="m 180,58.832 c -2.085,0.316 -4.464,0.931 -10.4,2.69 -1.43,0.424 -3.95,1.514 -5.6,2.422 -1.65,0.908 -4.17,2.207 -5.6,2.886 -1.43,0.679 -3.037,1.445 -3.572,1.702 -0.535,0.257 -1.615,1.072 -2.4,1.811 -0.785,0.738 -1.968,1.721 -2.628,2.184 -0.66,0.462 -1.435,1.163 -1.723,1.557 -0.287,0.394 -0.737,0.719 -1,0.722 -0.8,0.01 -4.858,4.081 -5.974,5.994 -0.578,0.99 -2.055,2.76 -3.283,3.932 -1.228,1.173 -2.527,2.703 -2.887,3.4 -0.359,0.698 -1.256,2.059 -1.993,3.026 -0.737,0.966 -1.34,1.971 -1.34,2.233 0,0.262 -0.63,1.771 -1.4,3.353 -0.77,1.583 -1.4,2.971 -1.4,3.085 0,0.114 -0.604,1.505 -1.343,3.089 -2.486,5.336 -2.838,8.302 -2.833,23.882 0.005,17.13 0.251,18.444 5.536,29.654 0.792,1.679 1.44,3.256 1.44,3.504 0,0.978 4.789,7.606 7.417,10.265 1.531,1.548 3.877,3.977 5.214,5.396 3.035,3.223 5.537,5.581 5.922,5.581 0.162,0 0.958,0.532 1.77,1.181 0.813,0.65 2.467,1.619 3.677,2.154 1.21,0.534 2.56,1.374 3,1.865 1.321,1.476 10.007,4.8 12.541,4.8 0.494,0 1.407,0.263 2.029,0.584 6.263,3.239 24.642,3.651 33.03,0.74 1.54,-0.534 3.811,-1.135 5.046,-1.335 1.993,-0.322 3.68,-0.87 8.754,-2.844 0.77,-0.3 1.58,-0.739 1.8,-0.976 1.001,-1.077 3.7,-2.875 4.672,-3.11 0.59,-0.143 1.31,-0.49 1.6,-0.77 0.29,-0.281 1.873,-1.391 3.516,-2.466 2.93,-1.918 13.212,-11.662 13.212,-12.52 0,-0.24 0.153,-0.496 0.34,-0.57 0.544,-0.213 2.29,-3.19 2.893,-4.933 0.304,-0.88 1.231,-2.537 2.06,-3.683 0.829,-1.146 1.507,-2.236 1.507,-2.422 0,-0.187 0.427,-0.918 0.949,-1.626 0.522,-0.707 1.257,-2.137 1.633,-3.177 0.376,-1.041 1.019,-2.711 1.428,-3.711 4.195,-10.27 4.187,-33.586 -0.015,-43.086 -0.437,-0.988 -0.795,-2.027 -0.795,-2.308 0,-0.986 -3.766,-7.924 -5.075,-9.348 -0.727,-0.792 -1.322,-1.659 -1.323,-1.928 -0.005,-1.194 -2.283,-5.125 -4.245,-7.324 -1.18,-1.322 -2.402,-2.895 -2.717,-3.496 -0.844,-1.614 -4.645,-5.052 -7.943,-7.185 -1.593,-1.031 -3.617,-2.537 -4.497,-3.348 -0.88,-0.811 -2.95,-2.122 -4.6,-2.915 -1.65,-0.793 -3.72,-1.892 -4.6,-2.442 -2.161,-1.352 -6.404,-3.399 -7.065,-3.409 -0.294,-0.005 -2.065,-0.465 -3.935,-1.022 -7.001,-2.086 -20.96,-2.929 -28.8,-1.738 m 21.8,5.233 c 2.64,0.455 6.741,1.527 9.114,2.381 2.373,0.855 4.538,1.554 4.811,1.554 0.441,0 3.856,1.633 7.275,3.479 0.66,0.356 1.907,1.249 2.772,1.984 0.865,0.736 1.81,1.337 2.1,1.337 0.29,0 0.528,0.138 0.528,0.306 0,0.168 0.72,0.75 1.6,1.294 0.88,0.544 1.6,1.126 1.6,1.294 0,0.168 0.225,0.307 0.5,0.307 1.237,0.003 10.162,9.829 11.715,12.899 3.748,7.406 4.585,9.215 4.585,9.908 0,0.435 0.135,0.792 0.3,0.793 0.586,0.002 2.569,4.365 3.119,6.863 2.373,10.765 2.317,10.333 2.331,17.736 0.014,7.479 -0.462,11.799 -1.779,16.142 -0.424,1.398 -0.771,2.897 -0.771,3.33 0,0.433 -1.335,3.519 -2.967,6.857 -1.632,3.339 -3.506,7.274 -4.163,8.744 -0.658,1.471 -1.572,2.909 -2.033,3.197 -0.46,0.287 -0.837,0.737 -0.837,0.998 0,0.531 -6.803,7.447 -9.769,9.932 -2.188,1.833 -6.573,4.702 -8.631,5.647 -0.77,0.354 -1.49,0.759 -1.6,0.902 -0.271,0.35 -3.528,2.451 -3.8,2.451 -0.119,0 -0.891,0.446 -1.714,0.991 -1.896,1.255 -4.714,2.134 -8.286,2.587 -1.54,0.195 -4.87,0.659 -7.4,1.031 -10.318,1.516 -26.818,-0.137 -33.8,-3.387 -1.32,-0.615 -2.985,-1.343 -3.7,-1.618 -0.715,-0.276 -1.3,-0.625 -1.3,-0.776 0,-0.151 -1.164,-0.853 -2.587,-1.561 -1.422,-0.709 -3.173,-1.823 -3.889,-2.477 -0.716,-0.655 -1.496,-1.19 -1.733,-1.19 -0.406,0 -1.938,-1.302 -5.591,-4.751 -0.88,-0.831 -1.873,-1.677 -2.206,-1.88 -0.827,-0.504 -3.994,-4.382 -3.994,-4.891 0,-0.226 -0.72,-1.183 -1.6,-2.127 -0.88,-0.943 -1.6,-1.842 -1.6,-1.996 0,-0.154 -0.81,-1.512 -1.799,-3.018 -0.99,-1.505 -1.8,-2.93 -1.8,-3.166 -10e-4,-0.236 -0.548,-1.558 -1.216,-2.937 -0.668,-1.379 -1.456,-3.436 -1.752,-4.57 -0.296,-1.135 -1.121,-3.774 -1.835,-5.864 -2.422,-7.096 -2.591,-22.768 -0.332,-30.8 2.326,-8.268 2.709,-9.433 3.913,-11.906 0.672,-1.379 1.221,-2.627 1.221,-2.774 0,-0.533 4.5,-7.688 5.635,-8.959 0.641,-0.718 1.165,-1.433 1.165,-1.589 0,-0.157 0.72,-1.156 1.6,-2.221 0.88,-1.065 1.6,-2.15 1.6,-2.41 0,-0.261 0.172,-0.534 0.383,-0.608 0.368,-0.128 2.831,-2.065 6.655,-5.233 0.996,-0.825 1.942,-1.5 2.102,-1.5 0.161,0 1.088,-0.72 2.06,-1.6 0.972,-0.88 1.902,-1.6 2.066,-1.6 0.165,0 1.162,-0.507 2.216,-1.127 1.055,-0.62 2.908,-1.452 4.118,-1.849 1.21,-0.397 3.64,-1.256 5.4,-1.908 4.933,-1.829 4.962,-1.837 9,-2.53 8.677,-1.49 14.869,-1.522 23,-0.121 m -18,143.716 c -1.98,0.26 -5.695,1.136 -8.256,1.946 -2.561,0.81 -4.912,1.473 -5.226,1.473 -0.314,0 -1.987,0.72 -3.718,1.6 -1.731,0.88 -3.324,1.6 -3.539,1.6 -0.444,0 -4.186,2.319 -4.99,3.092 -0.29,0.279 -0.754,0.508 -1.03,0.508 -0.276,0 -0.938,0.471 -1.471,1.047 -0.534,0.576 -2.23,1.63 -3.77,2.341 -1.54,0.712 -3.143,1.68 -3.562,2.153 -0.419,0.472 -0.959,0.859 -1.2,0.859 -0.241,0 -2.073,1.575 -4.072,3.5 -1.998,1.925 -4.647,4.4 -5.886,5.5 -1.24,1.1 -2.26,2.217 -2.267,2.481 -0.007,0.265 -0.733,1.06 -1.613,1.767 -0.88,0.707 -1.6,1.504 -1.6,1.77 0,0.266 -0.294,0.728 -0.654,1.027 -0.36,0.299 -1.093,1.238 -1.629,2.086 -0.536,0.849 -1.567,2.065 -2.293,2.701 -0.725,0.637 -1.859,2.285 -2.52,3.663 -0.661,1.378 -1.585,2.848 -2.053,3.267 -0.468,0.419 -0.851,0.91 -0.851,1.092 0,0.181 -0.684,1.233 -1.519,2.337 -0.836,1.104 -1.758,2.683 -2.05,3.508 -0.291,0.826 -0.751,1.771 -1.021,2.101 -1.192,1.456 -3.154,6.365 -5.034,12.6 -0.398,1.32 -1.281,3.736 -1.961,5.37 -1.843,4.422 -2.753,11.656 -2.798,22.23 -0.03,7.306 -0.572,11.918 -1.605,13.669 -0.446,0.757 -0.812,1.558 -0.812,1.78 0,0.221 -0.531,0.849 -1.179,1.395 -0.649,0.546 -1.81,1.851 -2.58,2.9 -1.277,1.74 -2.043,2.29 -5.041,3.623 -0.55,0.244 -2.26,1.156 -3.8,2.026 -1.54,0.869 -4.15,2.253 -5.8,3.076 -4.206,2.096 -11.062,6.746 -13.2,8.954 -0.99,1.022 -2.29,1.977 -2.889,2.122 -1.273,0.309 -4.922,2.796 -7.366,5.02 -0.941,0.856 -1.886,1.619 -2.1,1.696 -0.622,0.222 -3.677,2.83 -4.809,4.106 -0.57,0.642 -1.386,1.452 -1.813,1.8 -0.868,0.708 -2.356,2.232 -4.551,4.663 -1.525,1.689 -1.844,2.094 -4.54,5.77 -0.888,1.21 -2.398,3.01 -3.357,4 -2.739,2.829 -3.375,3.669 -3.375,4.457 0,0.404 -0.858,1.681 -1.906,2.839 -1.048,1.157 -2.346,2.824 -2.885,3.704 -0.538,0.88 -1.211,1.838 -1.494,2.129 -0.283,0.29 -0.515,0.865 -0.515,1.276 0,0.411 -0.168,0.852 -0.374,0.979 -0.592,0.366 -2.826,4.684 -2.826,5.463 0,0.387 -0.797,2.291 -1.772,4.229 -4.793,9.535 -7.174,27.225 -6.475,48.124 0.569,17.027 2.335,20.501 11.367,22.363 1.512,0.312 47.658,0.435 161,0.429 l 158.88,-0.009 2.6,-0.921 c 5.892,-2.087 8.001,-4.499 10.193,-11.662 1.832,-5.988 1.237,-26.843 -1.027,-36 -0.653,-2.64 -1.357,-5.986 -1.566,-7.435 -0.383,-2.665 -2.87,-11.091 -3.709,-12.565 -1.972,-3.466 -3.074,-5.697 -3.082,-6.238 -0.005,-0.351 -0.464,-1.161 -1.019,-1.8 -0.556,-0.639 -2.06,-3.322 -3.343,-5.962 -1.283,-2.64 -2.996,-5.518 -3.806,-6.396 -0.811,-0.878 -1.585,-2.038 -1.72,-2.578 -0.253,-1.006 -2.483,-4.52 -3.021,-4.759 -0.165,-0.074 -0.3,-0.352 -0.3,-0.62 0,-0.267 -0.72,-1.235 -1.6,-2.151 -0.88,-0.916 -1.6,-1.795 -1.6,-1.954 0,-0.159 -1.348,-1.611 -2.996,-3.227 -1.647,-1.616 -3.272,-3.473 -3.61,-4.127 -0.338,-0.653 -0.761,-1.188 -0.939,-1.188 -0.179,0 -1.119,-0.809 -2.09,-1.797 -0.971,-0.988 -1.923,-1.798 -2.117,-1.8 -0.193,-0.002 -1.048,-0.633 -1.901,-1.403 -0.852,-0.77 -1.718,-1.4 -1.923,-1.4 -0.206,0 -2.397,-1.62 -4.868,-3.6 -2.471,-1.98 -4.791,-3.6 -5.155,-3.6 -0.364,0 -1.098,-0.475 -1.631,-1.055 -0.989,-1.075 -6.543,-5.345 -6.953,-5.345 -0.124,0 -1.259,-0.699 -2.522,-1.554 -1.262,-0.854 -3.226,-2.02 -4.364,-2.591 -1.987,-0.996 -4.607,-2.605 -5.607,-3.442 -0.261,-0.219 -1.971,-1.144 -3.8,-2.055 -3.162,-1.574 -6.317,-4.036 -6.33,-4.939 -0.004,-0.231 -0.524,-1.005 -1.155,-1.721 -2.776,-3.149 -3.581,-5.711 -4.049,-12.898 -0.616,-9.446 -1.633,-17.627 -2.626,-21.108 -1.336,-4.685 -3.107,-9.534 -3.996,-10.942 -0.504,-0.799 -1.208,-2.15 -1.564,-3.001 -0.355,-0.852 -1.077,-1.999 -1.604,-2.549 -0.527,-0.55 -1.221,-1.99 -1.542,-3.2 -0.821,-3.09 -3.075,-7.696 -4.557,-9.315 -0.446,-0.487 -1.214,-1.695 -1.708,-2.685 -1.022,-2.051 -3.969,-5.954 -5.893,-7.806 -0.715,-0.688 -1.3,-1.454 -1.3,-1.702 0,-0.248 -0.631,-0.932 -1.401,-1.52 -0.771,-0.588 -1.626,-1.477 -1.9,-1.975 -2.161,-3.925 -12.27,-14.524 -15.396,-16.142 -0.607,-0.314 -1.193,-0.707 -1.303,-0.873 -0.11,-0.166 -1.19,-0.776 -2.4,-1.354 -1.21,-0.579 -3.19,-1.872 -4.4,-2.874 -1.21,-1.002 -2.495,-2.057 -2.856,-2.346 -3.208,-2.566 -13.677,-6.34 -22.675,-8.174 -2.688,-0.548 -10.759,-0.471 -15.469,0.147 m 19.4,5.561 c 6.881,1.723 13.757,4.455 15.649,6.218 0.708,0.66 1.303,1.006 6.659,3.871 4.697,2.514 16.433,13.581 20.052,18.91 0.856,1.26 1.845,2.531 2.198,2.824 0.353,0.293 0.642,0.777 0.642,1.075 0,0.298 0.447,0.834 0.993,1.192 0.546,0.358 1.383,1.282 1.86,2.053 0.476,0.772 1.308,1.878 1.847,2.459 0.539,0.581 1.258,1.596 1.597,2.256 0.338,0.66 1.31,2.174 2.159,3.365 0.849,1.191 1.544,2.317 1.544,2.504 0,0.186 0.515,1.049 1.145,1.918 0.629,0.869 1.366,2.173 1.638,2.897 0.904,2.414 1.748,4.496 2.687,6.628 0.512,1.161 0.93,2.265 0.93,2.452 0,0.187 0.751,1.821 1.67,3.631 0.918,1.811 1.805,4.037 1.969,4.948 0.165,0.911 0.672,2.991 1.128,4.621 1.204,4.31 2.03,9.43 2.036,12.636 0.012,5.308 1.074,13.033 2.169,15.776 0.565,1.417 1.028,2.787 1.028,3.045 0,0.258 0.495,1.096 1.1,1.862 0.605,0.766 1.532,1.961 2.06,2.655 0.528,0.694 1.16,1.262 1.404,1.262 0.244,0 0.892,0.415 1.44,0.923 0.548,0.508 2.083,1.503 3.412,2.211 1.328,0.708 2.896,1.733 3.482,2.277 0.587,0.544 1.257,0.989 1.489,0.989 0.232,0 1.455,0.694 2.718,1.542 1.262,0.849 3.24,2.047 4.395,2.664 1.155,0.617 2.1,1.251 2.1,1.409 0,0.158 0.585,0.522 1.3,0.809 0.715,0.287 1.86,1.001 2.544,1.587 0.684,0.586 2.304,1.667 3.6,2.401 1.296,0.734 2.446,1.458 2.556,1.608 0.11,0.15 1.01,0.68 2,1.177 0.99,0.498 2.62,1.647 3.622,2.554 3.188,2.886 4.846,4.249 5.169,4.249 0.173,0 1.191,0.808 2.262,1.796 1.071,0.987 2.084,1.797 2.252,1.8 0.535,0.007 7.891,7.062 7.898,7.575 0.002,0.126 1.442,1.759 3.2,3.629 1.757,1.87 3.305,3.805 3.44,4.3 0.134,0.495 0.362,0.9 0.506,0.9 0.144,0 0.707,0.72 1.251,1.6 0.544,0.88 1.126,1.6 1.294,1.6 0.168,0 0.306,0.333 0.306,0.74 0,0.407 0.552,1.502 1.227,2.434 0.675,0.932 1.53,2.202 1.9,2.824 2.188,3.674 3.207,5.624 3.868,7.402 0.409,1.1 1.87,4.07 3.248,6.6 1.378,2.53 2.625,5.14 2.773,5.8 0.147,0.66 0.718,2.64 1.268,4.4 1.552,4.962 2.101,7.334 2.5,10.8 0.202,1.76 0.643,5.36 0.979,8 2.727,21.398 -0.745,33.84 -10.308,36.935 C 347.153,460.55 335.44,460.6 192,460.6 H 37 l -2.6,-0.971 c -1.43,-0.534 -3.029,-1.299 -3.554,-1.7 -0.525,-0.401 -1.155,-0.73 -1.4,-0.731 -4.99,-0.024 -7.252,-17.227 -5.074,-38.598 0.797,-7.83 3.378,-17.598 6.175,-23.375 0.579,-1.196 1.053,-2.327 1.053,-2.512 0,-0.186 0.72,-1.608 1.6,-3.161 0.88,-1.553 1.6,-3.007 1.6,-3.231 0,-0.224 0.855,-1.726 1.9,-3.336 2.877,-4.435 3.976,-6.266 4.556,-7.585 0.29,-0.66 0.625,-1.29 0.744,-1.4 0.118,-0.11 1.382,-1.548 2.808,-3.196 1.425,-1.648 2.796,-3.178 3.046,-3.4 0.25,-0.222 0.52,-0.613 0.6,-0.869 0.582,-1.85 11.215,-12.443 17.197,-17.133 1.402,-1.098 3.079,-2.482 3.727,-3.074 0.648,-0.592 1.638,-1.308 2.2,-1.591 0.562,-0.283 2.125,-1.285 3.473,-2.226 1.348,-0.941 2.57,-1.711 2.717,-1.711 0.146,0 1.241,-0.72 2.432,-1.6 1.191,-0.88 2.276,-1.6 2.411,-1.6 0.135,0 0.997,-0.516 1.917,-1.147 0.92,-0.631 2.842,-1.734 4.272,-2.451 1.43,-0.718 2.69,-1.438 2.8,-1.6 0.11,-0.162 1.01,-0.7 2,-1.196 0.99,-0.496 2.655,-1.51 3.701,-2.254 1.045,-0.744 2.136,-1.352 2.425,-1.352 0.288,0 0.875,-0.328 1.305,-0.728 0.43,-0.401 1.66,-1.243 2.735,-1.873 2.03,-1.19 4.235,-3.872 4.707,-5.726 0.151,-0.59 0.657,-2.153 1.125,-3.473 1.02,-2.879 1.455,-6.839 1.979,-18 0.362,-7.705 0.499,-8.731 1.655,-12.4 0.693,-2.2 1.403,-4.81 1.578,-5.8 0.467,-2.646 3.378,-10.536 5.203,-14.101 0.873,-1.705 1.587,-3.355 1.587,-3.666 0,-0.312 0.135,-0.626 0.3,-0.7 0.484,-0.215 2.9,-3.911 2.9,-4.437 0,-0.482 2.712,-5.121 3.213,-5.496 0.147,-0.11 0.339,-0.408 0.427,-0.663 0.149,-0.43 1.033,-1.504 4.86,-5.902 0.825,-0.949 1.5,-1.844 1.5,-1.99 0,-0.146 1.395,-1.676 3.1,-3.4 1.705,-1.724 4.09,-4.187 5.3,-5.472 1.21,-1.286 3.55,-3.42 5.2,-4.744 1.65,-1.324 3.142,-2.633 3.315,-2.909 0.173,-0.277 1.523,-1.11 3,-1.853 1.477,-0.743 3.315,-1.736 4.085,-2.207 0.77,-0.471 1.618,-0.858 1.884,-0.859 0.266,0 1.616,-0.719 3,-1.597 1.384,-0.878 2.791,-1.598 3.127,-1.6 0.336,-0.002 0.966,-0.24 1.4,-0.528 1.482,-0.986 6.594,-3.076 7.521,-3.076 0.509,0 1.724,-0.272 2.7,-0.605 5.914,-2.015 17.673,-2.23 24.768,-0.453"
     stroke="none"
     fill="#848484"
     fill-rule="evenodd" />
  <path
     id="path4"
     d="m 186.534,63.215 c -4.24,0.348 -9.474,1.178 -9.195,1.458 0.106,0.105 2.384,-0.093 5.063,-0.441 6.091,-0.79 11.936,-0.803 16.598,-0.037 4.92,0.808 6.373,0.686 2.2,-0.184 -4.234,-0.884 -9.877,-1.19 -14.666,-0.796 m -12.644,1.829 c -0.134,0.134 -1.739,0.846 -3.567,1.583 -4.567,1.841 -3.406,1.715 1.909,-0.207 3.116,-1.127 4.014,-1.585 3.135,-1.6 -0.679,-0.011 -1.343,0.09 -1.477,0.224 M 209.2,66.4 c 5.952,2.033 7.003,2.021 1.645,-0.019 -2.285,-0.869 -4.625,-1.574 -5.2,-1.566 -0.575,0.008 1.025,0.721 3.555,1.585 m -45.4,2.35 c -2.462,1.027 -5.099,2.484 -4.885,2.699 0.107,0.106 1.249,-0.331 2.539,-0.971 1.29,-0.64 2.976,-1.448 3.746,-1.796 1.867,-0.841 0.639,-0.782 -1.4,0.068 m 54.621,0.936 c 1.859,0.928 3.539,1.761 3.735,1.852 0.195,0.091 0.219,-0.055 0.052,-0.324 C 221.845,70.626 216.472,68 215.632,68 c -0.324,0 0.931,0.759 2.789,1.686 M 156,73.2 c -0.972,0.88 -1.899,1.6 -2.06,1.6 -0.16,0 -1.106,0.675 -2.102,1.5 -3.824,3.168 -6.287,5.105 -6.655,5.233 -0.211,0.074 -0.383,0.311 -0.383,0.528 0,0.503 2.196,-1.009 3.967,-2.731 0.751,-0.732 1.561,-1.333 1.8,-1.337 0.238,-0.004 0.82,-0.409 1.293,-0.9 0.473,-0.491 2.131,-1.793 3.684,-2.893 2.605,-1.844 3.343,-2.6 2.54,-2.6 -0.174,0 -1.112,0.72 -2.084,1.6 m 67.8,-0.558 c 1.716,1.449 2.999,2.293 3.192,2.1 0.242,-0.243 -3.42,-3.145 -3.947,-3.128 -0.245,0.008 0.095,0.471 0.755,1.028 m 4.506,3.058 c 1.019,1.084 3.294,2.477 3.294,2.017 0,-0.18 -0.72,-0.773 -1.6,-1.317 -0.88,-0.544 -1.6,-1.126 -1.6,-1.294 0,-0.168 -0.211,-0.306 -0.47,-0.306 -0.258,0 -0.089,0.405 0.376,0.9 m 6.531,5.216 c 3.597,3.54 6.46,6.874 8.462,9.853 1.695,2.523 1.973,2.544 0.551,0.041 -1.755,-3.09 -10.564,-12.806 -11.613,-12.809 -0.2,0 0.97,1.311 2.6,2.915 m -91.472,3.391 c -0.679,0.821 -1.448,1.892 -1.707,2.38 -0.26,0.488 -0.894,1.342 -1.409,1.898 -0.913,0.986 -5.449,8.232 -5.449,8.706 0,0.131 -0.617,1.559 -1.371,3.173 -0.754,1.615 -1.477,3.476 -1.608,4.136 -0.293,1.482 -0.127,1.163 2.362,-4.541 0.994,-2.277 2.305,-4.937 2.912,-5.91 1.496,-2.395 6.13,-8.965 7.001,-9.924 0.602,-0.663 0.933,-1.442 0.604,-1.418 -0.055,0.004 -0.656,0.679 -1.335,1.5 M 244.8,93.742 c 0,0.6 3.387,7.097 3.509,6.731 0.072,-0.215 -0.606,-1.797 -1.505,-3.515 -1.651,-3.152 -2.004,-3.719 -2.004,-3.216 m 3.6,8.066 c 0,0.114 0.469,0.951 1.043,1.86 0.573,0.908 1.275,2.389 1.56,3.292 0.386,1.222 0.528,1.396 0.557,0.681 0.042,-1.02 -2.327,-6.041 -2.851,-6.041 -0.17,0 -0.309,0.094 -0.309,0.208 M 131.116,106.8 c -0.135,0.55 -0.796,2.89 -1.469,5.2 -0.673,2.31 -1.208,5.01 -1.189,6 0.019,0.99 0.108,1.44 0.198,1 0.641,-3.137 1.534,-6.801 2.212,-9.081 0.439,-1.474 0.729,-3.004 0.645,-3.4 -0.12,-0.563 -0.206,-0.503 -0.397,0.281 m 120.518,2.619 c -0.019,0.45 0.367,2.52 0.857,4.6 1.183,5.018 1.278,19.41 0.163,24.581 -1.084,5.025 -1.195,6.38 -0.301,3.688 2.04,-6.143 2.504,-19.891 0.921,-27.288 -1.045,-4.884 -1.591,-6.742 -1.64,-5.581 M 128.144,126 c 0,2.09 0.068,2.945 0.15,1.9 0.082,-1.045 0.082,-2.755 0,-3.8 -0.082,-1.045 -0.15,-0.19 -0.15,1.9 m 0.388,10.411 c 0.122,2.264 2.702,10.887 2.995,10.008 0.089,-0.268 -0.247,-1.777 -0.747,-3.353 -0.5,-1.577 -1.237,-4.216 -1.638,-5.866 l -0.728,-3 0.118,2.211 m 122.551,9.285 c -0.163,0.602 -0.858,2.272 -1.545,3.711 -0.687,1.438 -1.154,2.711 -1.036,2.828 0.367,0.367 3.145,-5.907 3.008,-6.793 -0.114,-0.733 -0.169,-0.701 -0.427,0.254 m -119.454,1.954 c -0.058,1.299 2.79,8.078 3.059,7.28 0.087,-0.259 -0.237,-1.247 -0.721,-2.195 -0.484,-0.949 -1.202,-2.628 -1.595,-3.73 -0.392,-1.103 -0.727,-1.713 -0.743,-1.355 m 114.796,8.3 c -0.894,1.778 -1.621,3.461 -1.616,3.741 0.005,0.28 0.814,-1.097 1.798,-3.06 0.983,-1.963 1.71,-3.647 1.616,-3.742 -0.095,-0.094 -0.904,1.283 -1.798,3.061 M 134.807,156 c -0.003,0.33 0.804,1.832 1.794,3.337 0.989,1.506 1.799,2.864 1.799,3.018 0,0.154 0.72,1.053 1.6,1.996 0.88,0.944 1.6,1.901 1.6,2.127 0,0.509 3.167,4.387 3.994,4.891 0.333,0.203 1.326,1.049 2.206,1.88 3.603,3.403 5.182,4.751 5.563,4.751 0.221,0 -0.4,-0.704 -1.381,-1.564 -0.98,-0.86 -2.592,-2.305 -3.582,-3.211 -0.99,-0.905 -2.25,-2.056 -2.8,-2.557 -1.249,-1.139 -2.528,-2.668 -3.456,-4.137 -0.393,-0.622 -1.281,-1.851 -1.973,-2.731 -0.691,-0.88 -1.778,-2.463 -2.414,-3.517 -0.636,-1.055 -1.559,-2.585 -2.05,-3.4 -0.492,-0.816 -0.896,-1.213 -0.9,-0.883 m 108.996,5.712 c -0.843,1.438 -4.479,5.935 -5.149,6.366 -0.237,0.153 -0.32,0.389 -0.185,0.524 0.304,0.304 3.131,-2.556 3.131,-3.167 0,-0.243 0.356,-0.665 0.791,-0.936 0.763,-0.477 2.619,-3.622 2.316,-3.925 -0.082,-0.082 -0.489,0.43 -0.904,1.138 m -7.003,8.61 c -0.77,0.605 -2.084,1.767 -2.92,2.581 -1.98,1.929 -5.685,4.715 -7.58,5.699 -0.825,0.429 -1.5,0.89 -1.5,1.025 0,0.134 -0.473,0.46 -1.052,0.724 -0.578,0.263 -0.946,0.585 -0.816,0.714 0.129,0.129 1.187,-0.384 2.351,-1.141 1.164,-0.757 2.682,-1.724 3.373,-2.15 1.49,-0.917 4.097,-3.107 7.472,-6.274 2.647,-2.484 2.901,-2.929 0.672,-1.178 m -82,8.556 c 1.221,1.217 3.159,2.496 3.406,2.249 0.174,-0.174 -3.179,-2.757 -4.006,-3.086 -0.22,-0.088 0.05,0.289 0.6,0.837 m 4,2.512 c 0,0.104 0.585,0.489 1.3,0.856 0.715,0.366 1.39,0.794 1.5,0.95 0.298,0.424 1.877,1.204 2.436,1.204 0.268,0 -0.626,-0.72 -1.987,-1.6 -2.281,-1.474 -3.249,-1.894 -3.249,-1.41 m 60.6,1.424 c -1.32,0.863 -2.591,1.574 -2.825,1.578 -0.233,0.004 -0.773,0.332 -1.2,0.727 -0.426,0.396 -2.485,1.192 -4.575,1.769 -2.09,0.577 -3.349,1.063 -2.799,1.08 1.624,0.052 6.409,-1.468 8.057,-2.559 0.839,-0.555 1.623,-1.009 1.742,-1.009 0.295,0 3.471,-2.077 4.129,-2.699 1.008,-0.956 -0.141,-0.45 -2.529,1.113 m -54.6,1.791 c 0,0.561 7.514,3.435 8.771,3.355 0.346,-0.022 -0.541,-0.434 -1.971,-0.916 -1.43,-0.483 -3.358,-1.275 -4.284,-1.76 -1.639,-0.86 -2.516,-1.097 -2.516,-0.679 m 13.8,4.002 c 5.609,1.001 16.074,1.199 21.8,0.413 5.028,-0.69 7.302,-1.323 3.2,-0.891 -10.778,1.137 -12.116,1.19 -17.919,0.714 -10.596,-0.871 -10.643,-0.872 -7.081,-0.236 m 5.363,24.017 c -2.111,0.316 -4.541,0.848 -5.4,1.182 l -1.563,0.608 1.4,-0.187 c 0.77,-0.104 3.02,-0.488 5,-0.854 5.339,-0.988 12.624,-0.905 17.697,0.202 5.265,1.149 6.294,0.842 1.303,-0.389 -4.741,-1.169 -12.745,-1.413 -18.437,-0.562 m -12.163,3.104 c -3.473,1.587 -4.916,2.452 -3.4,2.036 0.55,-0.151 1.982,-0.722 3.183,-1.269 1.2,-0.547 2.82,-1.229 3.6,-1.516 1.214,-0.448 1.274,-0.523 0.417,-0.527 -0.55,-0.002 -2.26,0.572 -3.8,1.276 m 36.6,-0.517 c 1.21,0.43 2.56,0.955 3,1.167 1.193,0.576 3.863,1.622 4.138,1.622 0.132,0 -0.115,-0.241 -0.549,-0.535 -1.355,-0.919 -6.888,-3.066 -7.861,-3.051 -0.561,0.009 -0.059,0.324 1.272,0.797 m -44.521,4.245 c -1.277,0.789 -2.239,1.517 -2.138,1.619 0.226,0.225 2.129,-0.74 4.104,-2.08 2.26,-1.533 0.651,-1.157 -1.966,0.461 m 52.686,-0.932 c 0.421,0.262 1.082,0.777 1.47,1.146 0.911,0.866 2.379,1.649 2.627,1.401 0.106,-0.106 -0.359,-0.519 -1.034,-0.918 -0.676,-0.399 -1.228,-0.838 -1.228,-0.975 0,-0.269 -1.856,-1.193 -2.319,-1.154 -0.154,0.012 0.063,0.237 0.484,0.5 m -58.661,4.018 c -2.831,1.624 -3.438,2.181 -1.304,1.196 2.684,-1.238 4.834,-2.529 4.2,-2.521 -0.33,0.004 -1.633,0.6 -2.896,1.325 m 63.296,-1.171 c 0,0.322 4.704,3.029 5.252,3.022 0.302,-0.004 -0.68,-0.724 -2.181,-1.6 -2.714,-1.584 -3.071,-1.749 -3.071,-1.422 m -68.256,3.798 c -0.69,0.421 -1.32,0.917 -1.4,1.101 -0.079,0.185 -1.494,1.423 -3.144,2.751 -1.65,1.328 -3.99,3.466 -5.2,4.752 -1.21,1.285 -3.612,3.765 -5.339,5.51 -1.726,1.745 -3.053,3.258 -2.949,3.362 0.104,0.104 1.554,-1.213 3.222,-2.928 5.349,-5.497 8.596,-8.685 10.15,-9.967 0.834,-0.688 2.236,-1.871 3.116,-2.629 0.88,-0.759 2.045,-1.681 2.589,-2.05 1.365,-0.926 0.501,-0.845 -1.045,0.098 m 75.908,0.931 c 0.995,0.935 2.696,2.455 3.779,3.377 2.02,1.721 6.144,5.839 9.72,9.705 1.11,1.2 2.117,2.083 2.239,1.961 0.336,-0.336 -9.508,-10.398 -13.472,-13.769 -3.801,-3.233 -5.175,-4.005 -2.266,-1.274 m 15.969,15.711 c -0.039,0.773 3.134,4.767 3.499,4.403 0.102,-0.103 -0.332,-0.782 -0.967,-1.51 -0.634,-0.728 -1.459,-1.769 -1.832,-2.313 -0.373,-0.545 -0.688,-0.806 -0.7,-0.58 m -111.764,3.078 c -0.801,0.941 -1.681,1.997 -1.956,2.347 -0.276,0.35 -1.028,1.203 -1.672,1.896 -0.644,0.693 -1.07,1.361 -0.946,1.484 0.123,0.123 1.611,-1.419 3.305,-3.428 1.695,-2.008 3.001,-3.732 2.903,-3.83 -0.098,-0.099 -0.834,0.591 -1.634,1.531 m 115.343,2.259 c 0,0.202 0.24,0.459 0.534,0.571 0.294,0.113 1.599,1.656 2.9,3.43 1.301,1.774 2.507,3.231 2.68,3.238 0.444,0.018 -0.261,-1.198 -1.415,-2.443 -0.539,-0.581 -1.37,-1.687 -1.846,-2.459 -0.867,-1.402 -2.853,-3.029 -2.853,-2.337 m -122.1,6.586 c -0.825,1.386 -1.498,2.778 -1.495,3.093 0.002,0.315 0.467,-0.237 1.031,-1.227 0.565,-0.99 1.387,-2.385 1.828,-3.1 0.441,-0.715 0.652,-1.297 0.469,-1.293 -0.183,0.004 -1.008,1.141 -1.833,2.527 m 128.5,1.434 c 0,0.439 2.124,3.695 3.269,5.012 1.063,1.221 0.066,-0.8 -1.469,-2.98 -0.99,-1.406 -1.8,-2.32 -1.8,-2.032 M 123.306,259.3 c -0.608,0.935 -1.241,1.76 -1.406,1.833 -0.165,0.074 -0.3,0.424 -0.3,0.778 0,0.692 1.623,-1.281 2.64,-3.211 0.887,-1.681 0.307,-1.309 -0.934,0.6 m 135.094,1.816 c 0,0.2 0.551,1.124 1.224,2.053 0.673,0.929 1.381,2.081 1.574,2.56 0.206,0.51 0.36,0.622 0.373,0.271 0.012,-0.33 -0.513,-1.532 -1.166,-2.671 -1.155,-2.014 -2.005,-2.952 -2.005,-2.213 m -138.506,4.414 c -0.822,1.521 -1.489,3.014 -1.483,3.318 0.005,0.304 0.726,-0.797 1.601,-2.445 0.874,-1.648 1.542,-3.141 1.483,-3.318 -0.059,-0.177 -0.779,0.923 -1.601,2.445 M 261.62,267 c -0.053,0.664 2.929,7.552 3.077,7.109 0.121,-0.363 -0.749,-2.57 -2.488,-6.309 -0.307,-0.66 -0.572,-1.02 -0.589,-0.8 m -145.155,7.3 c -0.928,2.585 -1.674,5.06 -1.657,5.5 0.028,0.725 2.97,-7.15 3.474,-9.3 0.501,-2.133 -0.249,-0.566 -1.817,3.8 m 148.336,0.846 c 0,0.3 0.36,1.2 0.8,2 0.441,0.799 1.243,2.534 1.783,3.854 0.547,1.337 0.99,2.023 0.999,1.55 0.019,-0.938 -1.448,-4.453 -2.747,-6.584 -0.458,-0.751 -0.834,-1.121 -0.835,-0.82 M 114.027,282.8 c -0.282,0.99 -0.862,2.88 -1.289,4.2 -0.502,1.547 -0.83,3.893 -0.925,6.6 -0.081,2.31 -0.073,3.57 0.017,2.8 0.544,-4.626 1.139,-7.79 2.019,-10.733 0.548,-1.833 0.928,-3.633 0.843,-4 -0.086,-0.372 -0.38,0.129 -0.665,1.133 m 154.385,1.874 c -0.007,0.481 0.17,1.352 0.392,1.937 0.614,1.615 1.642,6.745 2.202,10.989 0.444,3.362 0.507,3.547 0.547,1.6 0.025,-1.21 -0.215,-3.685 -0.535,-5.5 -1.08,-6.135 -2.574,-11.311 -2.606,-9.026 M 111.197,303.7 c -0.004,4.688 -0.617,9.312 -1.604,12.1 -1.232,3.48 -1.436,4.738 -0.453,2.8 1.675,-3.303 3.569,-18.2 2.314,-18.2 -0.14,0 -0.255,1.485 -0.257,3.3 m 160.579,4.3 c 0.142,4.164 1.126,8.202 2.485,10.189 0.831,1.216 0.643,0.222 -0.494,-2.613 -0.654,-1.631 -1.235,-4.264 -1.583,-7.176 l -0.55,-4.6 0.142,4.2 m 3.024,11.548 c 0,1.449 7.061,8.052 8.61,8.052 0.226,0 1.377,0.725 2.556,1.611 1.18,0.887 2.235,1.521 2.346,1.41 0.316,-0.315 -1.487,-1.666 -4.112,-3.081 -1.32,-0.711 -2.848,-1.709 -3.396,-2.217 -0.548,-0.508 -1.196,-0.923 -1.44,-0.923 -0.244,0 -0.876,-0.568 -1.404,-1.262 -2.387,-3.138 -3.16,-4.016 -3.16,-3.59 m -168.127,2.909 c -0.824,1.11 -1.268,1.942 -0.986,1.849 0.609,-0.201 2.94,-3.413 2.672,-3.681 -0.103,-0.102 -0.861,0.723 -1.686,1.832 m -3.484,2.858 c -1.561,0.976 -3.085,2.285 -2.661,2.285 0.153,0 1.009,-0.529 1.901,-1.175 0.893,-0.647 1.836,-1.252 2.097,-1.346 0.261,-0.093 0.379,-0.274 0.263,-0.401 -0.115,-0.128 -0.835,0.159 -1.6,0.637 m -5.789,3.55 c -0.88,0.665 -2.5,1.667 -3.6,2.225 -1.1,0.558 -2.09,1.148 -2.2,1.311 -0.11,0.163 -1.358,0.878 -2.773,1.59 -3.354,1.687 -5.834,3.34 -5.286,3.523 0.239,0.079 1.026,-0.304 1.747,-0.853 0.722,-0.549 2.302,-1.494 3.512,-2.1 1.21,-0.606 3.1,-1.675 4.2,-2.376 1.1,-0.7 2.385,-1.395 2.855,-1.542 0.471,-0.148 1.325,-0.703 1.898,-1.235 0.574,-0.531 1.359,-1.15 1.745,-1.375 0.54,-0.315 0.564,-0.405 0.102,-0.393 -0.33,0.008 -1.32,0.559 -2.2,1.225 m 191.44,2.108 c 0.502,0.502 5.007,3.425 5.279,3.426 0.176,10e-4 1.404,0.721 2.729,1.601 1.325,0.88 2.556,1.6 2.737,1.6 0.18,0 1.199,0.72 2.264,1.6 1.065,0.88 2.08,1.6 2.257,1.6 0.176,0 1.549,0.81 3.052,1.8 1.503,0.99 2.982,1.793 3.287,1.784 0.305,-0.009 0.015,-0.305 -0.645,-0.658 -0.66,-0.353 -1.29,-0.763 -1.4,-0.911 -0.11,-0.147 -1.26,-0.869 -2.556,-1.603 -1.296,-0.734 -2.916,-1.815 -3.6,-2.401 -0.684,-0.586 -1.829,-1.3 -2.544,-1.587 -0.715,-0.287 -1.3,-0.651 -1.3,-0.809 0,-0.158 -0.945,-0.792 -2.1,-1.409 -1.155,-0.617 -3.133,-1.815 -4.395,-2.664 -1.857,-1.247 -3.821,-2.124 -3.065,-1.369 M 80.2,339.2 c -1.1,0.855 -2.151,1.565 -2.336,1.578 -0.369,0.024 -5.064,3.251 -5.064,3.48 0,0.425 0.867,0.001 2.245,-1.098 0.855,-0.683 2.365,-1.662 3.355,-2.176 1.868,-0.97 4.902,-3.398 4.2,-3.361 -0.22,0.012 -1.3,0.722 -2.4,1.577 m -9.034,5.713 c -0.349,0.268 -1.429,1.146 -2.4,1.951 -0.971,0.805 -2.576,2.112 -3.566,2.905 -1.647,1.319 -3.336,2.733 -6,5.02 l -1,0.858 1.2,-0.721 c 2.38,-1.43 13.381,-10.543 12.691,-10.513 -0.16,0.007 -0.576,0.232 -0.925,0.5 M 311.2,344.585 c 0,0.398 6.93,6.219 7.146,6.002 0.126,-0.126 -0.395,-0.715 -1.157,-1.308 -0.763,-0.594 -2.335,-1.934 -3.492,-2.979 -1.992,-1.798 -2.497,-2.144 -2.497,-1.715 m 9.411,7.997 c 1.094,0.98 2.169,1.788 2.389,1.796 0.22,0.007 -0.476,-0.795 -1.547,-1.782 -1.071,-0.988 -2.146,-1.796 -2.389,-1.796 -0.243,0 0.453,0.802 1.547,1.782 m 3.852,3.018 c 0.488,0.66 1.022,1.2 1.187,1.2 0.387,0 5.292,4.796 5.779,5.65 0.204,0.357 1.58,1.977 3.058,3.6 1.478,1.622 2.958,3.31 3.288,3.75 0.33,0.44 0.605,0.577 0.612,0.304 0.012,-0.471 -2.539,-3.5 -5.448,-6.471 -0.737,-0.751 -1.339,-1.485 -1.339,-1.629 0,-0.475 -7.32,-7.604 -7.807,-7.604 -0.119,0 0.182,0.54 0.67,1.2 m -269.71,3.747 c -3.516,3.509 -6.052,6.404 -6.299,7.188 -0.08,0.256 -0.35,0.647 -0.6,0.869 -0.25,0.222 -1.621,1.752 -3.046,3.4 -1.426,1.648 -2.69,3.086 -2.808,3.196 -0.119,0.11 -0.454,0.74 -0.744,1.4 -0.58,1.319 -1.679,3.15 -4.556,7.585 -1.045,1.61 -1.899,3.173 -1.899,3.472 10e-4,0.299 0.375,-0.068 0.83,-0.815 0.455,-0.747 1.074,-1.604 1.376,-1.906 0.301,-0.301 1.114,-1.662 1.806,-3.024 0.692,-1.362 1.603,-2.914 2.023,-3.448 0.42,-0.535 0.764,-1.215 0.764,-1.513 0,-0.297 1.319,-2.028 2.93,-3.846 1.612,-1.818 4.161,-4.925 5.665,-6.905 1.505,-1.98 3.831,-4.573 5.17,-5.762 2.202,-1.955 3.355,-3.238 2.907,-3.238 -0.092,0 -1.676,1.506 -3.519,3.347 M 338.748,371.5 c 0.843,1.569 2.852,3.791 2.852,3.155 0,-0.36 -0.138,-0.655 -0.306,-0.655 -0.168,0 -0.75,-0.72 -1.294,-1.6 -0.96,-1.553 -2.008,-2.307 -1.252,-0.9 m 2.852,4.467 c 0,0.267 0.428,1.059 0.952,1.76 1.924,2.574 4.714,7.554 5.702,10.177 0.558,1.483 1.176,2.891 1.373,3.128 0.197,0.238 1.464,2.578 2.814,5.2 1.35,2.623 2.332,4.228 2.181,3.568 -0.151,-0.66 -1.401,-3.27 -2.779,-5.8 -1.378,-2.53 -2.839,-5.5 -3.248,-6.6 -0.661,-1.778 -1.68,-3.728 -3.868,-7.402 -1.254,-2.106 -3.127,-4.521 -3.127,-4.031 M 33.047,389.794 c -0.796,1.449 -1.443,2.852 -1.437,3.12 0.005,0.267 0.744,-0.829 1.643,-2.437 0.899,-1.608 1.546,-3.012 1.438,-3.12 -0.108,-0.107 -0.848,0.989 -1.644,2.437 m -2.723,5.847 c -1.277,2.789 -2.064,5.152 -1.804,5.413 0.11,0.11 0.423,-0.487 0.695,-1.327 0.272,-0.84 0.93,-2.396 1.462,-3.459 0.533,-1.062 0.9,-2.137 0.816,-2.389 -0.084,-0.252 -0.61,0.541 -1.169,1.762 m -3.282,9.387 c -1.532,4.722 -2.219,7.662 -2.19,9.372 0.017,1.046 0.156,0.743 0.548,-1.2 0.288,-1.43 1.09,-4.294 1.782,-6.364 0.691,-2.071 1.203,-4.128 1.137,-4.572 -0.065,-0.445 -0.64,0.799 -1.277,2.764 M 354.971,402.6 c 0.084,0.66 0.455,2.19 0.824,3.4 0.369,1.21 1.091,4 1.604,6.2 0.551,2.363 0.946,3.478 0.967,2.725 0.019,-0.701 -0.309,-2.681 -0.728,-4.4 -0.921,-3.779 -2.882,-9.604 -2.667,-7.925 M 24.139,421.473 c -0.502,5.809 -0.377,25.201 0.174,27.127 l 0.459,1.6 -0.182,-1.8 c -0.55,-5.459 -0.649,-17.073 -0.2,-23.423 0.274,-3.863 0.405,-7.115 0.293,-7.227 -0.112,-0.113 -0.357,1.563 -0.544,3.723 M 358.568,420.4 c 1.202,12.947 1.309,19.133 0.43,24.965 -0.681,4.519 -0.711,5.074 -0.228,4.235 1.299,-2.253 1.663,-17.705 0.625,-26.574 -0.65,-5.558 -1.288,-7.582 -0.827,-2.626 m -1.377,31.617 c -0.476,0.933 -1.208,2.064 -1.628,2.515 -0.42,0.45 -0.763,0.952 -0.763,1.115 0,0.659 -3.671,2.711 -6.446,3.603 L 345.4,460.2 H 191.6 37.8 l -2.6,-1.064 c -5.41,-2.215 -8.252,-4.304 -9.645,-7.09 -0.849,-1.697 -1.008,-1.01 -0.202,0.867 0.56,1.302 3.455,4.287 4.157,4.287 0.21,0 0.811,0.328 1.336,0.729 0.525,0.401 2.124,1.166 3.554,1.7 L 37,460.6 h 155 c 143.44,0 155.153,-0.05 157.055,-0.665 3.432,-1.111 7.753,-4.909 8.928,-7.848 0.785,-1.963 0.2,-2.015 -0.792,-0.07"
     stroke="none"
     fill="#7c7c7c"
     fill-rule="evenodd" />
</svg>
