<?xml version="1.0" encoding="UTF-8" standalone="no"?>
<svg
   id="svg"
   version="1.1"
   width="400"
   height="403.921568627451"
   viewBox="0, 0, 400,403.921568627451"
   sodipodi:docname="bq.svg"
   inkscape:version="1.1.2 (0a00cf5339, 2022-02-04)"
   xmlns:inkscape="http://www.inkscape.org/namespaces/inkscape"
   xmlns:sodipodi="http://sodipodi.sourceforge.net/DTD/sodipodi-0.dtd"
   xmlns="http://www.w3.org/2000/svg"
   xmlns:svg="http://www.w3.org/2000/svg">
  <defs
     id="defs8002" />
  <sodipodi:namedview
     id="namedview8000"
     pagecolor="#ffffff"
     bordercolor="#cccccc"
     borderopacity="1"
     inkscape:pageshadow="0"
     inkscape:pageopacity="1"
     inkscape:pagecheckerboard="0"
     showgrid="false"
     inkscape:zoom="1.3322098"
     inkscape:cx="172.64548"
     inkscape:cy="224.81445"
     inkscape:window-width="1680"
     inkscape:window-height="1014"
     inkscape:window-x="1920"
     inkscape:window-y="0"
     inkscape:window-maximized="1"
     inkscape:current-layer="svg" />
  <path
     id="path0"
     d="m 251.4,37.473 c -2.572,0.302 -7.82,1.835 -10.86,3.173 -0.694,0.304 -1.444,0.554 -1.667,0.554 -0.224,0 -0.466,0.135 -0.54,0.3 -0.073,0.165 -1.202,1.11 -2.508,2.1 -4.14,3.138 -9.025,8.754 -9.025,10.375 0,0.198 -0.428,1.229 -0.95,2.292 -3.045,6.195 -3.353,18.291 -0.63,24.733 0.186,0.44 0.887,2.007 1.559,3.483 0.671,1.476 1.221,2.799 1.221,2.939 0,0.14 0.89,1.518 1.977,3.061 1.095,1.555 2.267,3.811 2.628,5.061 0.358,1.241 0.843,2.92 1.079,3.732 0.244,0.843 0.303,2.214 0.137,3.2 -0.161,0.948 -0.433,2.714 -0.606,3.924 -0.635,4.444 -1.31,7.06 -2.477,9.6 -1.708,3.719 -1.855,4.087 -2.078,5.2 -0.728,3.645 -1.538,6.688 -2.461,9.249 -0.585,1.623 -1.254,3.671 -1.487,4.551 -0.232,0.88 -0.578,1.771 -0.767,1.98 -0.19,0.209 -0.345,0.626 -0.345,0.926 0,0.3 -0.461,1.553 -1.024,2.784 -0.563,1.232 -1.182,2.975 -1.375,3.875 -0.942,4.396 -1.99,7.439 -2.975,8.635 -0.272,0.33 -0.716,1.68 -0.988,3 -0.272,1.32 -0.647,3.03 -0.833,3.8 -0.186,0.77 -0.465,2.203 -0.621,3.185 -0.156,0.981 -0.416,2.061 -0.578,2.4 -0.162,0.338 -0.876,2.415 -1.585,4.615 -1.169,3.621 -1.758,5.202 -2.834,7.6 -0.197,0.44 -0.886,2.372 -1.53,4.294 -2.115,6.305 -5.484,10.935 -8.884,12.207 l -2.187,0.818 -0.995,-0.859 c -3.895,-3.366 -9.991,-14.377 -9.991,-18.05 0,-0.519 -1.485,-4.191 -2.351,-5.81 -0.36,-0.675 -1.345,-3.99 -2.079,-7 -0.454,-1.86 -1.551,-4.783 -2.333,-6.213 -0.184,-0.337 -0.471,-1.231 -0.637,-1.987 -0.166,-0.756 -0.438,-1.65 -0.604,-1.987 -0.594,-1.203 -1.134,-2.644 -1.778,-4.741 -0.644,-2.1 -0.848,-2.956 -1.925,-8.072 -0.301,-1.43 -1.182,-3.95 -1.959,-5.6 -0.777,-1.65 -1.632,-3.81 -1.901,-4.8 -0.785,-2.892 -1.745,-5.723 -2.306,-6.8 -0.287,-0.55 -0.523,-1.304 -0.525,-1.676 -0.001,-0.372 -0.16,-0.774 -0.353,-0.894 -0.193,-0.119 -0.566,-1.074 -0.83,-2.123 -0.263,-1.049 -0.714,-2.447 -1.002,-3.107 -1.627,-3.732 -2.878,-13.55 -2.116,-16.6 0.73,-2.92 3.366,-7.248 5.725,-9.4 0.483,-0.44 1.355,-1.571 1.939,-2.514 0.584,-0.942 1.407,-2.058 1.828,-2.479 0.748,-0.748 0.936,-1.313 2.057,-6.207 1.692,-7.383 0.101,-23.867 -2.481,-25.7 -0.387,-0.275 -1.115,-1.175 -1.618,-2 -0.503,-0.825 -1.283,-1.762 -1.733,-2.082 -0.45,-0.32 -1.656,-1.4 -2.68,-2.4 -3.044,-2.974 -5.099,-4.818 -5.366,-4.818 -0.138,0 -0.818,-0.251 -1.512,-0.558 -0.693,-0.307 -2.61,-0.958 -4.26,-1.446 -1.65,-0.489 -3.413,-1.048 -3.919,-1.242 -1.573,-0.606 -6.617,-0.389 -9.717,0.417 -3.808,0.99 -9.289,2.801 -9.557,3.157 -0.114,0.152 -1.287,1.074 -2.607,2.048 -12.775,9.428 -16.643,26.466 -9.313,41.024 2.049,4.07 8.046,10.804 10.738,12.057 6.463,3.01 10.6,10.511 9.191,16.666 -0.211,0.922 -0.821,3.567 -1.356,5.877 -0.534,2.31 -1.09,5.19 -1.234,6.4 -0.44,3.698 -1.45,8.474 -2.327,11 -1.022,2.944 -1.355,4.479 -2.085,9.6 -0.773,5.419 -1.283,8.315 -2.01,11.4 -0.593,2.521 -1.301,6.01 -2.395,11.8 -0.29,1.54 -0.807,3.61 -1.147,4.6 -0.704,2.045 -1.677,6.74 -2.073,10 -0.974,8.018 -4.954,16.362 -8.64,18.114 l -2.061,0.979 -2.244,-1.246 c -1.234,-0.686 -2.767,-1.517 -3.407,-1.847 -1.072,-0.553 -3.965,-3.245 -6.804,-6.332 -0.641,-0.697 -1.288,-1.268 -1.437,-1.268 -0.148,0 -0.61,-0.631 -1.025,-1.402 -0.416,-0.772 -1.09,-1.509 -1.499,-1.639 -1.058,-0.335 -4.53,-3.988 -6.121,-6.439 -0.742,-1.144 -1.576,-2.224 -1.853,-2.4 -0.276,-0.176 -1.012,-1.003 -1.634,-1.838 -0.622,-0.834 -1.803,-2.184 -2.624,-3 -0.821,-0.815 -2.107,-2.28 -2.859,-3.256 -0.751,-0.976 -1.729,-2.167 -2.173,-2.646 -0.445,-0.48 -1.798,-1.988 -3.008,-3.353 -1.21,-1.364 -3.01,-3.361 -4,-4.438 -3.912,-4.255 -4.588,-5.086 -6.27,-7.704 -3.449,-5.37 -3.846,-9.247 -1.49,-14.545 0.308,-0.694 0.56,-1.549 0.56,-1.9 0,-0.352 0.156,-0.64 0.346,-0.64 0.961,0 1.854,-5.878 1.854,-12.2 0,-7.226 -0.429,-9.235 -2.82,-13.205 -0.767,-1.275 -1.494,-2.708 -1.613,-3.185 -0.12,-0.477 -0.792,-1.206 -1.492,-1.619 -0.701,-0.413 -1.635,-1.088 -2.075,-1.5 -0.44,-0.412 -1.313,-1.141 -1.939,-1.62 -0.627,-0.479 -1.617,-1.246 -2.2,-1.705 -2.508,-1.971 -4.146,-2.45 -11.599,-3.392 -6.006,-0.76 -15.858,1.23 -17.662,3.567 -0.11,0.142 -1.1,0.976 -2.2,1.853 -1.1,0.877 -2.347,1.91 -2.771,2.295 -0.423,0.386 -1.098,0.806 -1.5,0.933 -0.401,0.128 -0.729,0.366 -0.729,0.531 0,0.164 -0.824,1.527 -1.831,3.028 -7.419,11.063 -4.532,31.124 5.385,37.419 0.52,0.33 1.774,1.275 2.788,2.1 1.014,0.825 2.027,1.502 2.251,1.505 0.354,0.004 3.15,1.344 5.607,2.687 0.44,0.24 1.7,0.748 2.8,1.127 2.369,0.817 5.989,4.308 6.397,6.169 0.146,0.661 0.427,1.303 0.627,1.427 0.453,0.28 5.176,9.883 5.176,10.524 0,0.26 0.163,0.784 0.363,1.166 0.482,0.922 1.637,4.838 1.637,5.549 0,0.309 0.43,1.242 0.954,2.074 0.525,0.831 1.528,3.213 2.228,5.292 0.7,2.079 1.676,4.68 2.169,5.78 0.492,1.1 1.226,3.08 1.631,4.4 0.405,1.32 1.147,3.48 1.65,4.8 0.502,1.32 1.206,3.48 1.563,4.8 0.357,1.32 0.819,2.953 1.027,3.628 0.208,0.676 0.378,1.556 0.378,1.957 0,0.678 0.933,2.943 2.27,5.511 0.314,0.604 0.932,2.224 1.374,3.6 1.037,3.234 2.351,6.561 3.247,8.216 0.39,0.722 0.709,1.497 0.709,1.722 0,0.225 0.344,1.165 0.764,2.088 0.419,0.923 1.25,3.208 1.846,5.078 0.595,1.87 1.242,3.713 1.436,4.095 0.195,0.382 0.354,0.944 0.354,1.249 0,0.305 0.372,1.432 0.826,2.505 0.454,1.073 0.976,2.311 1.16,2.751 0.356,0.853 1.212,3.953 1.972,7.145 0.255,1.07 0.79,2.69 1.189,3.6 0.4,0.91 0.964,2.285 1.254,3.055 0.29,0.77 0.678,1.571 0.863,1.78 0.185,0.209 0.336,0.662 0.336,1.006 0,0.344 0.326,1.253 0.723,2.02 0.398,0.767 0.971,2.204 1.272,3.194 0.302,0.99 0.673,1.98 0.825,2.2 0.152,0.22 0.405,1.12 0.564,2 0.159,0.88 0.705,2.5 1.214,3.6 1.721,3.721 3.402,7.732 3.402,8.118 0,0.894 4.178,3.888 6.152,4.409 2.477,0.654 9.8,0.425 16.648,-0.52 10.013,-1.382 14.531,-1.828 22.4,-2.213 8.982,-0.439 21.36,-1.364 27,-2.017 5.071,-0.587 80.679,-0.295 82.6,0.319 1.474,0.471 10.937,1.146 24,1.713 7.854,0.341 14.104,0.895 17.8,1.578 2.055,0.38 6.367,0.605 9.2,0.48 1.077,-0.048 2.342,-0.55 3.867,-1.535 2.45,-1.581 2.454,-1.585 4.327,-6.332 0.694,-1.76 1.52,-3.767 1.834,-4.46 0.315,-0.694 0.572,-1.363 0.572,-1.489 0,-0.21 0.925,-2.349 2.836,-6.56 0.427,-0.939 0.968,-2.649 1.203,-3.8 0.456,-2.232 1.703,-6.121 2.597,-8.091 0.299,-0.66 1.159,-3.09 1.912,-5.4 2.322,-7.126 4.009,-11.389 5.917,-14.946 0.22,-0.411 0.809,-2.031 1.309,-3.6 0.5,-1.57 1.464,-4.037 2.142,-5.483 0.678,-1.446 1.343,-3.156 1.478,-3.8 0.622,-2.967 3.234,-11.194 3.801,-11.971 0.161,-0.22 0.405,-0.993 0.542,-1.717 0.138,-0.725 0.994,-2.975 1.903,-5 0.91,-2.026 1.794,-4.043 1.964,-4.483 0.171,-0.44 0.889,-2.24 1.594,-4 1.387,-3.457 2.214,-5.882 2.866,-8.4 0.228,-0.88 0.576,-1.913 0.775,-2.295 0.199,-0.382 0.361,-0.907 0.361,-1.168 0,-0.261 0.516,-1.568 1.146,-2.905 1.913,-4.061 2.454,-5.334 2.454,-5.771 0,-0.23 0.45,-1.265 1,-2.299 0.55,-1.035 1,-2.118 1,-2.408 0,-2.332 4.986,-12.496 7.403,-15.092 1.378,-1.48 3.114,-2.568 5.597,-3.51 1.866,-0.708 12.506,-7.565 13.882,-8.947 1.342,-1.348 5.591,-9.926 6.004,-12.121 0.791,-4.209 1.112,-7.591 0.901,-9.484 -0.276,-2.476 -1.397,-7.068 -1.85,-7.58 -0.185,-0.209 -0.337,-0.704 -0.337,-1.1 0,-0.396 -0.162,-0.72 -0.361,-0.72 -0.198,0 -0.555,-0.495 -0.793,-1.1 -1.062,-2.706 -2.977,-5.597 -4.437,-6.7 -0.873,-0.66 -3.234,-2.37 -5.246,-3.8 -2.011,-1.43 -3.888,-2.82 -4.17,-3.088 C 361.471,98.3 347.43,98.2 343.2,100.365 c -4.002,2.048 -7.464,4.38 -8.903,5.996 -0.607,0.682 -1.239,1.239 -1.406,1.239 -0.166,0 -0.747,0.72 -1.291,1.6 -0.544,0.88 -1.097,1.6 -1.23,1.6 -0.133,0 -0.585,0.718 -1.006,1.595 -0.42,0.878 -0.885,1.598 -1.032,1.6 -0.851,0.015 -2.732,8.474 -2.732,12.284 0,4.329 1.301,11.65 2.617,14.721 1.961,4.578 1.926,6.684 -0.184,11.083 -0.898,1.873 -1.633,3.548 -1.633,3.721 0,0.173 -0.607,0.904 -1.348,1.625 -0.742,0.72 -1.766,1.984 -2.276,2.81 -0.51,0.825 -2.227,2.864 -3.815,4.531 -1.588,1.666 -3.746,4.2 -4.796,5.63 -1.05,1.43 -2.147,2.838 -2.437,3.129 -0.29,0.29 -0.528,0.673 -0.528,0.849 0,0.393 -3.267,4.151 -8.017,9.222 -1.958,2.09 -4.42,4.758 -5.472,5.929 -10.83,12.063 -15.837,14.923 -19.278,11.014 -0.898,-1.021 -1.633,-2.15 -1.633,-2.51 0,-0.36 -0.241,-1.01 -0.536,-1.444 -1.922,-2.83 -5.419,-16.788 -6.262,-24.989 -0.6,-5.839 -1.16,-9.699 -1.566,-10.8 -0.356,-0.964 -1.144,-4.607 -1.992,-9.2 -0.223,-1.21 -0.516,-3.64 -0.651,-5.4 -0.244,-3.196 -0.685,-6.003 -1.477,-9.4 -0.837,-3.59 -1.115,-5.074 -1.725,-9.2 -0.754,-5.099 -1.588,-10.177 -2.201,-13.4 -0.875,-4.6 -0.105,-9.935 1.81,-12.545 0.985,-1.343 6.203,-6.241 9.049,-8.493 0.946,-0.749 2.41,-2.037 3.252,-2.862 0.842,-0.825 1.66,-1.5 1.818,-1.5 0.157,0 0.53,-0.552 0.829,-1.228 0.299,-0.675 0.936,-1.62 1.416,-2.1 4.004,-4.004 5.25,-25.943 1.716,-30.215 -0.247,-0.298 -0.636,-0.851 -0.864,-1.228 -2.871,-4.736 -2.777,-4.619 -5.863,-7.3 -6.592,-5.727 -6.416,-5.626 -13.753,-7.859 -4.167,-1.269 -6.37,-1.635 -8.4,-1.397 m -97.823,287.483 c -0.099,0.1 -2.52,0.381 -5.379,0.626 -8.249,0.704 -15.733,1.571 -19.198,2.221 -5.829,1.095 -7.705,1.302 -23.8,2.625 -7.564,0.622 -9.638,0.938 -14.2,2.161 -2.2,0.59 -4.763,1.233 -5.695,1.429 -5.081,1.068 -11.664,8.574 -13.139,14.982 -0.152,0.66 -0.406,1.38 -0.564,1.6 -2.349,3.269 -3.7,12.036 -3.531,22.92 0.177,11.398 0.995,12.968 7.611,14.613 3.935,0.978 239.408,1.032 244.51,0.056 7.399,-1.416 8.208,-2.735 8.208,-13.386 0,-9.769 -0.808,-16.712 -2.399,-20.603 -0.971,-2.377 -1.601,-4.29 -1.601,-4.862 0,-0.848 -3.204,-7.338 -3.623,-7.338 -0.178,0 -0.425,-0.315 -0.549,-0.7 -0.124,-0.385 -0.812,-1.343 -1.527,-2.129 -0.716,-0.785 -1.727,-1.993 -2.248,-2.682 -0.666,-0.883 -1.791,-1.565 -3.8,-2.304 -1.569,-0.577 -3.213,-1.199 -3.653,-1.381 -3.883,-1.612 -7.032,-2.073 -24.6,-3.598 -2.75,-0.239 -5.54,-0.597 -6.2,-0.795 -0.66,-0.199 -2.531,-0.558 -4.159,-0.799 -1.627,-0.241 -3.133,-0.545 -3.345,-0.676 -0.213,-0.132 -6.261,-0.398 -13.441,-0.593 -7.18,-0.194 -15.485,-0.552 -18.455,-0.795 -5.231,-0.428 -84.834,-0.981 -85.223,-0.592"
     stroke="none"
     fill="#0f0f0f"
     fill-rule="evenodd" />
  <path
     id="path1"
     d="M 0,201.8 V 403.6 H 200 400 V 201.8 0 H 200 0 V 201.8 M 154.2,30.812 c 6.056,0.682 10.728,2.699 14.508,6.264 0.756,0.713 1.717,1.405 2.136,1.538 2.141,0.68 8.082,7.771 9.538,11.386 0.488,1.21 1.051,2.513 1.252,2.895 0.201,0.382 0.366,1.013 0.366,1.403 0,0.389 0.431,1.518 0.957,2.507 2.794,5.248 2.988,19.233 0.335,24.06 -0.404,0.734 -1.061,2.235 -1.461,3.335 -0.97,2.672 -2.314,5.476 -2.94,6.138 -0.28,0.296 -0.766,1.034 -1.08,1.641 -0.314,0.606 -1.196,1.652 -1.962,2.324 -0.766,0.672 -1.843,1.937 -2.394,2.81 -0.551,0.873 -1.464,1.951 -2.029,2.395 -1.065,0.838 -1.492,3.834 -0.671,4.712 0.524,0.56 2.285,5.933 3.074,9.38 0.379,1.65 1.367,4.44 2.197,6.2 0.829,1.76 1.719,4.01 1.977,5 0.258,0.99 0.709,2.34 1.003,3 0.294,0.66 0.735,2.1 0.98,3.2 0.433,1.944 1.097,4.656 1.975,8.069 0.236,0.917 0.78,2.267 1.209,3 0.908,1.548 1.803,4.101 2.432,6.931 0.244,1.1 0.777,2.72 1.184,3.6 1.534,3.314 2.014,4.539 2.014,5.137 0,0.339 0.164,0.717 0.365,0.841 0.201,0.125 0.491,0.99 0.645,1.924 0.154,0.934 0.41,1.878 0.568,2.098 0.394,0.548 1.041,2.377 1.767,5 1.54,5.561 2.06,7.095 2.844,8.4 0.463,0.77 1.265,2.75 1.784,4.4 1.188,3.785 1.299,3.895 2.571,2.528 2.172,-2.337 2.937,-3.607 3.807,-6.328 0.493,-1.54 1.332,-3.7 1.865,-4.8 0.532,-1.1 1.318,-3.35 1.747,-5 1.297,-4.996 1.694,-6.153 2.507,-7.296 0.428,-0.603 0.882,-1.732 1.008,-2.51 0.127,-0.777 0.386,-1.51 0.576,-1.627 0.19,-0.118 0.348,-0.699 0.351,-1.291 0.012,-2.705 3.676,-14.886 5.424,-18.03 0.536,-0.965 1.346,-3.305 1.8,-5.2 1.11,-4.637 1.86,-6.847 2.737,-8.062 0.699,-0.968 0.971,-1.875 2.218,-7.384 0.298,-1.32 0.815,-3.3 1.148,-4.4 1.944,-6.429 2.268,-7.762 2.268,-9.338 0,-1.501 -0.889,-4.237 -1.579,-4.862 -0.335,-0.303 -1.099,-1.583 -2.27,-3.8 -0.581,-1.1 -1.185,-2.09 -1.344,-2.2 C 220.585,90.089 218,84.383 218,82.836 c 0,-0.228 -0.436,-1.364 -0.969,-2.525 -2.665,-5.804 -2.812,-16.664 -0.296,-21.872 0.447,-0.925 1.21,-3.019 1.695,-4.654 0.537,-1.808 1.38,-3.563 2.15,-4.479 0.697,-0.828 1.688,-2.226 2.204,-3.106 1.159,-1.979 4.417,-5.413 6.827,-7.197 0.995,-0.737 2.502,-1.992 3.348,-2.79 6.757,-6.372 25.044,-7.86 35.441,-2.883 1.43,0.684 2.69,1.348 2.8,1.475 0.11,0.126 1.694,1.333 3.52,2.682 1.825,1.349 3.865,3.141 4.532,3.983 0.667,0.841 2.008,2.372 2.98,3.401 0.973,1.029 1.768,1.999 1.768,2.156 0,0.156 0.525,1.137 1.166,2.18 0.642,1.042 1.477,2.862 1.857,4.044 0.379,1.182 0.844,2.462 1.033,2.844 0.189,0.382 0.345,0.922 0.346,1.2 0.002,0.278 0.277,1.03 0.611,1.672 1.732,3.32 1.888,17.913 0.214,20.018 -0.181,0.228 -0.723,1.675 -1.204,3.215 -1.332,4.27 -3.521,8.274 -5.938,10.862 -1.201,1.286 -2.627,2.915 -3.168,3.62 -0.541,0.704 -1.734,1.732 -2.65,2.282 -1.516,0.911 -2.949,2.106 -6.509,5.432 -2.406,2.247 -2.698,9.178 -0.743,17.604 0.332,1.43 0.885,3.86 1.23,5.4 0.344,1.54 0.788,3.52 0.985,4.4 0.197,0.88 0.648,3.4 1.002,5.6 0.354,2.2 0.897,5.53 1.205,7.4 0.99,6.002 1.354,8.498 1.954,13.4 0.778,6.36 1.263,9.345 1.754,10.8 0.846,2.503 2.111,11.021 2.688,18.093 0.301,3.69 0.543,4.133 2.643,4.843 1.487,0.502 5.924,-1.28 5.924,-2.381 0,-0.331 4.354,-5.111 6.1,-6.697 0.385,-0.35 0.7,-0.83 0.7,-1.066 0,-0.237 0.682,-1.142 1.516,-2.011 0.834,-0.87 2.381,-2.661 3.437,-3.981 2.309,-2.886 4.716,-5.659 6.747,-7.775 0.825,-0.859 1.5,-1.665 1.5,-1.791 0,-0.322 1.597,-2.174 2.9,-3.363 0.605,-0.552 1.1,-1.209 1.1,-1.46 0,-0.505 1.312,-2.178 3.9,-4.973 0.935,-1.01 1.7,-1.979 1.7,-2.154 0,-0.291 0.19,-0.56 1.413,-1.998 0.228,-0.267 0.926,-1.54 1.551,-2.829 1.313,-2.707 1.335,-2.559 -1.482,-10.057 l -1.654,-4.4 -0.014,-8.2 c -0.014,-8.457 0.1,-9.245 1.954,-13.4 0.294,-0.66 0.602,-1.418 0.683,-1.685 0.864,-2.822 11.812,-14.646 14.008,-15.128 0.627,-0.138 1.141,-0.386 1.141,-0.551 0,-0.622 3.504,-2.751 6.2,-3.767 8.858,-3.339 22.931,-1.829 27.859,2.988 0.643,0.629 1.392,1.143 1.666,1.143 1.103,0 10.675,8.577 10.675,9.565 0,0.171 0.461,0.834 1.024,1.473 1.087,1.232 2.576,3.856 2.576,4.537 0,0.224 0.649,1.794 1.443,3.489 2.927,6.252 2.794,19.346 -0.239,23.536 -0.159,0.22 -0.796,1.744 -1.414,3.386 -0.619,1.642 -1.538,3.399 -2.043,3.903 -0.504,0.505 -1.384,1.714 -1.955,2.688 -1.326,2.263 -8.786,8.623 -10.114,8.623 -0.457,0 -2.962,1.258 -3.278,1.646 -0.11,0.135 -1.28,0.843 -2.6,1.573 -1.32,0.73 -3.152,1.835 -4.072,2.454 -0.92,0.62 -1.82,1.129 -2,1.132 -0.478,0.007 -1.951,2.412 -2.274,3.711 -0.153,0.614 -0.88,2.414 -1.617,4 -0.736,1.586 -1.476,3.334 -1.644,3.884 -0.167,0.55 -0.909,1.948 -1.649,3.108 -0.739,1.159 -1.346,2.419 -1.349,2.8 -0.011,1.623 -1.646,7.181 -2.787,9.477 -0.681,1.368 -1.784,4.451 -2.452,6.851 -0.668,2.4 -1.32,4.724 -1.448,5.164 -0.128,0.44 -0.474,1.155 -0.77,1.589 -0.296,0.434 -0.538,1.111 -0.538,1.505 0,0.394 -0.169,1.029 -0.376,1.411 -1.526,2.822 -3.632,7.765 -3.862,9.067 -0.343,1.938 -1.959,6.129 -2.697,6.991 -0.473,0.552 -2.287,6.454 -3.516,11.437 -0.217,0.88 -0.565,1.771 -0.772,1.98 -0.207,0.209 -0.377,0.624 -0.377,0.922 0,0.791 -2.35,6.11 -2.875,6.506 -0.151,0.115 -0.72,1.735 -1.264,3.6 -1.388,4.759 -2.231,7.138 -3.106,8.771 -0.415,0.775 -0.755,1.716 -0.755,2.091 0,0.376 -0.18,0.794 -0.4,0.93 -0.22,0.136 -0.4,0.59 -0.4,1.01 0,1.013 -1.023,4.092 -2.226,6.701 -0.536,1.161 -0.975,2.241 -0.976,2.4 -0.002,0.159 -0.244,0.751 -0.539,1.316 -0.294,0.564 -0.665,1.543 -0.824,2.175 -0.158,0.632 -0.626,1.623 -1.039,2.203 -0.412,0.58 -1.148,2.751 -1.634,4.824 -0.538,2.296 -1.721,5.51 -3.023,8.216 -1.176,2.444 -2.14,4.604 -2.141,4.8 -0.004,0.915 -3.542,4.096 -5.276,4.745 -2.713,1.014 -22.103,0.243 -33.922,-1.35 -12.295,-1.657 -15.811,-2.055 -21.393,-2.421 -8.259,-0.541 -81.542,-0.553 -91.407,-0.014 -7.168,0.391 -9.37,0.622 -17,1.786 -7.777,1.186 -15.039,1.837 -29.2,2.616 -4.18,0.23 -8.586,0.591 -9.792,0.803 -1.963,0.346 -6.061,0.071 -9.95,-0.668 -1.031,-0.195 -5.658,-4.748 -5.658,-5.567 0,-0.279 -0.14,-0.568 -0.311,-0.642 -0.278,-0.119 -1.732,-3.215 -3.069,-6.533 -0.791,-1.965 -1.82,-5.268 -1.822,-5.854 -0.002,-0.3 -0.288,-1.086 -0.636,-1.746 -1.156,-2.193 -2.511,-5.965 -3.16,-8.8 -0.352,-1.54 -1.077,-3.79 -1.609,-5 -0.533,-1.21 -1.795,-4.36 -2.805,-7 -1.01,-2.64 -1.983,-5.076 -2.162,-5.413 -0.178,-0.337 -0.451,-1.237 -0.606,-2 -0.351,-1.732 -1.268,-4.384 -2.414,-6.987 -0.485,-1.1 -1.199,-3.08 -1.587,-4.4 -1.341,-4.56 -1.853,-5.925 -2.635,-7.022 -0.431,-0.606 -0.785,-1.344 -0.786,-1.64 -0.002,-0.296 -0.255,-1.021 -0.563,-1.611 -0.308,-0.59 -0.689,-1.664 -0.848,-2.387 -0.159,-0.723 -0.438,-1.59 -0.622,-1.927 -0.469,-0.865 -2.365,-6.801 -2.365,-7.406 0,-0.745 -1.551,-5.465 -1.962,-5.97 -0.492,-0.606 -2.837,-7.35 -2.841,-8.169 -0.001,-0.367 -0.72,-2.108 -1.597,-3.868 -0.877,-1.76 -1.596,-3.479 -1.597,-3.82 -0.002,-0.341 -0.145,-0.791 -0.319,-1 -0.174,-0.209 -0.92,-2.27 -1.658,-4.58 -0.737,-2.31 -1.467,-4.56 -1.62,-5 -0.153,-0.44 -0.696,-2.06 -1.207,-3.6 -0.511,-1.54 -1.174,-3.181 -1.474,-3.646 -0.649,-1.006 -1.946,-5.586 -2.337,-8.252 -0.352,-2.404 -5.83,-7.502 -8.06,-7.502 -0.361,0 -5.505,-2.545 -5.728,-2.833 -0.11,-0.143 -0.65,-0.4 -1.2,-0.572 -1.164,-0.363 -3.706,-1.919 -4.753,-2.909 -0.4,-0.377 -1.159,-1.034 -1.687,-1.459 -5.159,-4.15 -7.661,-7.457 -9.557,-12.627 -0.525,-1.43 -1.278,-3.187 -1.674,-3.904 -2.556,-4.629 -2.541,-17.246 0.026,-22.317 1.237,-2.442 2.445,-5.422 2.445,-6.03 0,-0.302 0.16,-0.549 0.357,-0.549 0.196,0 0.463,-0.405 0.594,-0.9 0.257,-0.974 2.277,-3.583 3.785,-4.889 0.515,-0.446 1.819,-1.621 2.897,-2.611 2.535,-2.326 2.515,-2.311 5.567,-4.37 1.43,-0.964 2.69,-1.871 2.8,-2.014 2.597,-3.375 19.884,-4.567 27.2,-1.875 4.14,1.524 4.533,1.716 5.8,2.842 0.66,0.586 1.868,1.415 2.684,1.841 0.816,0.427 2.368,1.631 3.449,2.676 1.08,1.045 2.484,2.35 3.119,2.9 2.282,1.975 4.491,5.514 6.242,10 0.215,0.55 0.641,1.54 0.948,2.2 1.761,3.791 2.649,15.387 1.362,17.793 -0.222,0.415 -0.404,1.062 -0.404,1.437 0,0.375 -0.384,1.512 -0.854,2.526 -3.757,8.107 -3.826,12.136 -0.276,16.102 0.512,0.571 1.29,1.545 1.73,2.164 1.227,1.728 2.271,2.918 5.419,6.178 1.594,1.65 3.366,3.715 3.939,4.59 0.573,0.874 1.627,2.108 2.342,2.741 0.715,0.634 1.3,1.33 1.3,1.548 0,0.217 1.305,1.698 2.9,3.289 1.595,1.592 3.17,3.421 3.499,4.063 0.602,1.174 3.115,4.101 5.458,6.358 3.697,3.562 6.072,5.942 7.162,7.178 0.828,0.938 1.822,1.533 3.1,1.854 1.035,0.261 1.889,0.678 1.898,0.926 0.03,0.815 1.893,-4.038 2.386,-6.218 1.262,-5.576 1.663,-7.509 2.016,-9.729 0.467,-2.941 1.366,-6.631 2.582,-10.6 0.92,-3.004 1.188,-4.395 2.421,-12.6 0.364,-2.42 1.024,-5.66 1.468,-7.2 0.916,-3.181 1.531,-6.239 2.696,-13.4 0.447,-2.75 0.922,-5.54 1.057,-6.2 0.834,-4.093 1.432,-7.215 1.953,-10.2 0.327,-1.87 0.758,-4.12 0.958,-5 1.015,-4.467 1.037,-4.101 -0.317,-5.366 -0.694,-0.648 -2.55,-2.027 -4.125,-3.065 -1.575,-1.037 -3.325,-2.376 -3.888,-2.974 -0.563,-0.599 -1.564,-1.425 -2.224,-1.837 -1.64,-1.024 -4.058,-3.751 -5.749,-6.484 -0.774,-1.251 -1.528,-2.364 -1.676,-2.474 -0.574,-0.426 -2.286,-4.688 -2.572,-6.4 -0.165,-0.99 -0.773,-3.06 -1.352,-4.6 -1.511,-4.024 -1.579,-15.509 -0.113,-18.993 0.508,-1.206 1.097,-3.186 1.31,-4.4 0.56,-3.195 1.013,-4.179 3.876,-8.407 2.731,-4.033 6.041,-7.497 8.343,-8.729 0.449,-0.24 1.607,-1.076 2.575,-1.857 0.967,-0.781 1.938,-1.558 2.158,-1.727 4.61,-3.54 14.752,-5.207 24.8,-4.075 m 75.4,286.403 c 4.64,0.367 8.427,0.815 13.2,1.559 1.43,0.223 8.54,0.588 15.8,0.811 7.26,0.223 15.27,0.596 17.8,0.829 15.151,1.396 19.499,1.898 20.8,2.403 0.976,0.379 3.726,0.811 10.2,1.604 6.483,0.794 11.034,2.791 14.762,6.476 2.239,2.214 5.41,6.506 5.454,7.384 0.009,0.175 0.549,0.942 1.2,1.704 0.651,0.762 1.184,1.596 1.184,1.854 0,0.258 0.269,0.985 0.598,1.615 0.328,0.63 0.598,1.425 0.6,1.766 0.001,0.341 0.154,0.791 0.339,1 0.81,0.914 2.231,7.957 4.258,21.106 1.194,7.745 0.506,20.362 -1.29,23.674 -0.924,1.704 -3.204,3.742 -5.305,4.743 l -1.8,0.857 H 198.8 c -125.392,0 -128.662,-0.019 -131.1,-0.763 -3.138,-0.958 -5.649,-3.21 -6.733,-6.037 -1.144,-2.982 -1.16,-27.618 -0.022,-32.2 0.904,-3.637 2.639,-8.925 3.02,-9.2 0.357,-0.258 1.499,-3.426 1.833,-5.087 0.574,-2.844 5.476,-9.369 9.551,-12.714 1.072,-0.879 2.315,-1.914 2.762,-2.299 0.446,-0.385 1.039,-0.7 1.317,-0.7 0.278,0 0.565,-0.167 0.639,-0.371 0.073,-0.205 1.573,-0.761 3.333,-1.237 2.911,-0.788 5.356,-1.119 17.525,-2.372 2.159,-0.222 4.099,-0.511 4.31,-0.642 0.847,-0.523 10.776,-1.574 25.965,-2.749 4.29,-0.332 9.33,-0.89 11.2,-1.241 4.111,-0.771 7.983,-1.339 12,-1.761 4.22,-0.443 69.617,-0.454 75.2,-0.012"
     stroke="none"
     fill="#f1f1f1"
     fill-rule="evenodd"
     style="fill:none" />
  <path
     id="path2"
     d="m 141.8,34.219 c -3.984,0.869 -5.92,1.477 -7.6,2.388 -0.88,0.478 -2.23,1.212 -3,1.631 -0.77,0.419 -1.49,0.873 -1.6,1.008 -0.11,0.135 -0.617,0.377 -1.128,0.536 -2.554,0.797 -11.342,11.362 -12.851,15.449 -3.197,8.659 -2.217,27.863 1.591,31.169 0.127,0.11 0.656,0.92 1.177,1.8 2.8,4.733 6.344,8.461 11.026,11.598 1.312,0.879 2.578,1.779 2.814,2 0.236,0.221 1.055,0.831 1.821,1.356 2.516,1.723 3.354,3.443 3.239,6.646 -0.087,2.422 -1.855,12.259 -2.353,13.093 -0.096,0.162 -0.417,1.602 -0.712,3.2 -0.926,5.008 -2.234,11.64 -2.625,13.307 -0.207,0.88 -0.745,3.67 -1.196,6.2 -0.769,4.313 -1.163,6.084 -2.003,9 -0.752,2.613 -1.592,6.538 -1.97,9.2 -0.555,3.909 -1.541,9.66 -2.024,11.8 -0.223,0.99 -0.663,2.97 -0.979,4.4 -1.533,6.946 -3.461,14.049 -3.998,14.729 -0.236,0.299 -1.131,1.245 -1.989,2.103 l -1.561,1.559 -1.323,-0.818 c -0.728,-0.45 -1.878,-1.095 -2.556,-1.433 -1.426,-0.712 -13.133,-12.481 -15.656,-15.74 -0.937,-1.21 -2.343,-2.924 -3.124,-3.81 -0.781,-0.885 -2.046,-2.415 -2.812,-3.4 -0.766,-0.984 -2.476,-2.913 -3.8,-4.285 -1.324,-1.372 -2.666,-2.812 -2.982,-3.2 -0.316,-0.388 -1.306,-1.515 -2.2,-2.506 -0.894,-0.99 -2.076,-2.416 -2.626,-3.168 -0.55,-0.752 -1.903,-2.372 -3.007,-3.599 -2.222,-2.472 -4.593,-5.75 -4.593,-6.352 0,-0.214 -0.262,-0.893 -0.582,-1.51 -0.381,-0.735 -0.508,-1.751 -0.367,-2.946 0.242,-2.053 0.272,-2.152 2.501,-8.224 3.585,-9.769 3.642,-13.873 0.323,-23 C 70.306,106.789 60.54,96.825 55.821,96.798 55.59,96.796 54.872,96.52 54.226,96.183 47.089,92.461 35.13,93.692 26.6,99.027 c -5.114,3.198 -9.606,7.929 -11.749,12.375 -0.743,1.539 -1.505,3.107 -1.695,3.484 -0.19,0.378 -0.528,1.413 -0.751,2.3 -0.223,0.888 -0.601,2.379 -0.841,3.314 -1.265,4.928 -0.226,13.879 2.235,19.261 0.551,1.203 1.001,2.298 1.001,2.433 0,1.25 7.626,10.206 8.69,10.206 0.175,0 0.779,0.427 1.342,0.95 1.631,1.511 3.992,2.854 6.368,3.62 7.745,2.497 10.692,5.088 12.843,11.291 0.622,1.794 1.576,4.224 2.121,5.4 1.507,3.255 2.931,6.949 3.246,8.419 0.155,0.726 0.421,1.5 0.59,1.72 0.169,0.22 0.441,1.024 0.605,1.787 0.163,0.763 0.438,1.663 0.612,2 1.011,1.97 2.37,5.399 3.175,8.013 1.745,5.665 2.495,7.802 3.051,8.686 0.306,0.487 0.558,1.117 0.559,1.4 0.002,0.283 0.235,0.964 0.519,1.514 0.284,0.55 0.837,2.08 1.23,3.4 0.392,1.32 0.865,2.85 1.051,3.4 0.186,0.55 0.738,2.35 1.226,4 0.768,2.596 1.75,5.118 3.192,8.2 0.206,0.44 0.983,2.69 1.728,5 0.745,2.31 1.805,5.19 2.355,6.4 0.55,1.21 1.487,3.64 2.082,5.4 0.594,1.76 1.228,3.56 1.407,4 0.18,0.44 0.723,2.06 1.208,3.6 0.485,1.54 1.206,3.366 1.602,4.057 0.818,1.428 1.845,4.538 3.416,10.343 0.595,2.2 1.509,4.889 2.032,5.975 0.522,1.086 0.95,2.133 0.95,2.325 0,0.193 0.438,1.309 0.973,2.479 0.535,1.17 1.096,2.78 1.245,3.578 0.15,0.799 0.432,1.55 0.627,1.671 0.195,0.121 0.355,0.496 0.355,0.835 0,0.857 0.895,2.837 4.227,9.349 0.51,0.997 1.288,2.229 1.729,2.737 0.441,0.509 0.861,1.101 0.933,1.317 0.849,2.549 13.055,2.434 32.111,-0.302 5.591,-0.803 10.066,-1.285 18.4,-1.982 3.96,-0.332 8.73,-0.791 10.6,-1.021 6.287,-0.772 88.062,-0.915 96.8,-0.169 4.07,0.348 10.64,0.893 14.6,1.211 8.234,0.662 12.558,1.123 18.8,2.003 15.198,2.142 19.373,1.781 22.273,-1.924 2.347,-2.999 5.974,-10.904 7.746,-16.882 1.515,-5.112 3.72,-11.227 4.98,-13.813 0.165,-0.337 0.433,-1.237 0.596,-2 0.164,-0.763 0.432,-1.567 0.596,-1.787 0.164,-0.22 0.422,-0.915 0.573,-1.544 0.15,-0.629 0.612,-1.889 1.027,-2.8 1.672,-3.675 3.132,-7.395 3.409,-8.688 0.161,-0.752 0.42,-1.548 0.576,-1.768 0.156,-0.22 0.501,-1.158 0.766,-2.085 0.265,-0.927 1.196,-3.218 2.07,-5.092 0.873,-1.873 1.588,-3.583 1.588,-3.8 0,-0.217 0.25,-1.166 0.556,-2.109 0.306,-0.943 0.876,-2.794 1.266,-4.114 0.852,-2.882 2.781,-8.013 3.534,-9.4 0.539,-0.992 1.525,-3.771 2.838,-8 0.376,-1.21 1.386,-3.674 2.245,-5.476 0.858,-1.802 1.558,-3.422 1.555,-3.6 -0.014,-0.793 2.061,-7.063 2.853,-8.619 0.194,-0.382 0.353,-0.897 0.353,-1.146 0,-0.248 0.63,-1.797 1.4,-3.441 0.77,-1.644 1.4,-3.156 1.4,-3.359 0,-0.203 0.162,-0.682 0.361,-1.064 0.199,-0.382 0.548,-1.415 0.776,-2.295 1.243,-4.79 2.475,-7.853 6.004,-14.921 1.396,-2.798 7.004,-7.679 8.822,-7.679 0.935,0 6.308,-3.041 9.133,-5.17 5.845,-4.405 10.343,-11.034 11.726,-17.284 1.685,-7.614 0.112,-20.742 -2.82,-23.546 -0.115,-0.11 -0.685,-0.92 -1.266,-1.8 -1.801,-2.726 -5.621,-6.995 -6.268,-7.003 -0.147,-0.002 -0.898,-0.594 -1.668,-1.316 -5.635,-5.281 -16.379,-8.518 -23.699,-7.141 -3.171,0.597 -11.861,4.12 -12.234,4.96 -0.074,0.165 -0.344,0.302 -0.6,0.303 -1.517,0.012 -10.317,9.972 -11.456,12.967 -0.178,0.47 -0.69,1.66 -1.136,2.643 -2.771,6.104 -2.91,14.667 -0.359,22.187 0.448,1.32 0.94,2.58 1.093,2.8 2.855,4.101 1.264,11.511 -3.562,16.586 -1.664,1.75 -4.807,5.596 -6.327,7.742 -0.925,1.305 -2.55,3.295 -3.613,4.422 -1.063,1.128 -2.342,2.59 -2.843,3.25 -0.5,0.66 -1.755,2.161 -2.787,3.335 -4.849,5.516 -6.027,6.867 -8.077,9.26 -1.21,1.412 -2.83,3.217 -3.6,4.011 -0.77,0.794 -2.242,2.356 -3.272,3.471 -2.733,2.962 -5.167,4.474 -7.677,4.769 l -2.112,0.248 -0.894,-2.078 c -0.492,-1.143 -1.156,-3.639 -1.477,-5.547 -0.55,-3.27 -0.923,-5.089 -2.372,-11.569 -1.016,-4.545 -1.936,-9.731 -3.244,-18.3 -0.336,-2.2 -0.758,-4.81 -0.937,-5.8 -0.179,-0.99 -0.616,-3.6 -0.97,-5.8 -0.355,-2.2 -0.917,-5.35 -1.25,-7 -1.013,-5.013 -1.901,-10.92 -2.979,-19.8 -0.24,-1.98 -0.704,-5.04 -1.032,-6.8 -1.561,-8.383 0.146,-12.25 7.597,-17.214 3.123,-2.08 5.443,-4.394 7.805,-7.786 0.537,-0.77 1.102,-1.49 1.256,-1.6 0.446,-0.318 2.758,-4.924 2.758,-5.494 0,-0.284 0.173,-0.829 0.384,-1.211 0.427,-0.774 1.063,-3.465 1.675,-7.095 1.084,-6.424 -1.004,-18.24 -4.067,-23.012 -0.663,-1.034 -1.653,-2.399 -2.199,-3.034 -0.545,-0.635 -0.992,-1.261 -0.993,-1.393 0,-0.321 -1.252,-1.793 -3.307,-3.888 -1.561,-1.591 -7.058,-5.273 -7.874,-5.273 -0.194,0 -0.412,-0.143 -0.486,-0.318 -0.195,-0.464 -4.145,-2.082 -5.084,-2.082 -0.441,0 -0.901,-0.161 -1.023,-0.358 -1.473,-2.384 -16.935,-1.096 -22.226,1.852 -0.99,0.551 -2.79,1.541 -4,2.2 -4.213,2.295 -11.978,11.409 -13.893,16.306 -2.683,6.865 -2.874,18.866 -0.429,27 0.264,0.88 2.389,4.75 4.721,8.6 4.742,7.828 5.201,8.745 5.201,10.394 0,1.266 -1.023,6.131 -1.558,7.406 -0.184,0.44 -0.523,1.25 -0.753,1.8 -0.23,0.55 -0.995,2.89 -1.7,5.2 -0.704,2.31 -1.411,4.56 -1.571,5 -0.16,0.44 -0.696,2.06 -1.192,3.6 -0.497,1.54 -1.137,3.34 -1.424,4 -0.622,1.43 -1.92,5.47 -2.829,8.8 -0.36,1.32 -1.097,3.66 -1.638,5.2 -1.647,4.687 -3.612,10.9 -5.377,17 -0.923,3.19 -1.831,5.971 -2.018,6.18 -0.187,0.209 -0.34,0.632 -0.34,0.94 0,0.307 -0.263,1.126 -0.584,1.82 -0.522,1.127 -0.997,2.675 -2.801,9.118 -0.287,1.023 -0.787,2.373 -1.113,3 -0.326,0.628 -1.202,2.373 -1.947,3.879 -1.266,2.556 -2.198,3.569 -4.808,5.225 -1.053,0.668 -1.054,0.668 -2.042,-1.047 -2.319,-4.024 -5.505,-10.679 -5.505,-11.498 0,-0.236 -0.177,-0.74 -0.394,-1.122 -0.217,-0.382 -0.773,-1.865 -1.235,-3.295 -0.463,-1.43 -1.625,-4.67 -2.581,-7.2 -0.957,-2.53 -1.856,-5.14 -1.997,-5.8 -0.142,-0.66 -0.409,-1.65 -0.594,-2.2 -0.184,-0.55 -0.648,-2.08 -1.03,-3.4 -0.382,-1.32 -0.846,-2.571 -1.032,-2.78 -0.185,-0.209 -0.338,-0.659 -0.339,-1 -0.002,-0.341 -0.25,-1.094 -0.553,-1.674 -0.303,-0.58 -0.948,-2.38 -1.435,-4 -0.486,-1.62 -1.202,-3.936 -1.589,-5.146 -0.388,-1.21 -1.108,-3.55 -1.6,-5.2 -1.012,-3.397 -1.489,-4.793 -2.322,-6.8 -0.925,-2.231 -1.149,-2.868 -1.824,-5.2 -1.235,-4.267 -2.244,-7.444 -3.668,-11.555 -1.955,-5.641 -2.299,-9.734 -1,-11.907 1.317,-2.2 3.969,-5.731 6.416,-8.538 6.798,-7.8 8.322,-22.829 3.658,-36.072 C 176.64,48.704 171.151,42.457 165.283,38.909 159.7,35.534 159.378,35.401 153.494,34.041 151,33.464 144.83,33.558 141.8,34.219 m 15.2,1.969 c 1.32,0.39 2.58,0.848 2.8,1.018 0.352,0.272 3.239,1.878 6.2,3.45 1.738,0.923 9.051,8.908 10.145,11.078 2.869,5.692 4.796,20.684 3.196,24.866 -0.252,0.66 -0.76,2.28 -1.128,3.6 -0.722,2.589 -2.85,7.267 -3.701,8.135 -0.288,0.294 -1.016,1.194 -1.618,2 -0.602,0.806 -1.598,2.005 -2.215,2.665 -5.147,5.511 -5.403,12.281 -0.864,22.8 0.285,0.66 0.902,2.46 1.37,4 0.781,2.566 1.549,4.907 4.593,14 0.59,1.76 1.222,3.74 1.404,4.4 0.976,3.522 2.919,9.69 3.244,10.295 0.206,0.382 0.375,0.922 0.376,1.2 0.002,0.278 0.251,0.981 0.555,1.562 0.832,1.596 2.201,5.707 3.279,9.849 0.53,2.038 1.129,4.018 1.331,4.4 0.735,1.394 1.633,3.626 1.633,4.06 0,0.245 0.16,0.757 0.356,1.139 0.196,0.382 0.765,2.045 1.265,3.695 0.821,2.708 1.569,4.605 3.463,8.775 0.344,0.756 0.96,1.735 1.37,2.176 0.41,0.44 0.746,0.967 0.746,1.172 0,0.83 2.901,5.077 3.467,5.077 1.822,0 4.708,-2.576 6.19,-5.524 0.519,-1.032 1.042,-1.966 1.164,-2.076 0.42,-0.38 1.579,-3.123 1.579,-3.737 0,-0.339 0.18,-0.727 0.4,-0.863 0.22,-0.136 0.401,-0.552 0.402,-0.924 0.003,-0.758 2.185,-7.835 2.798,-9.076 0.61,-1.234 3.234,-9.336 3.821,-11.8 0.919,-3.855 1.438,-5.778 1.781,-6.6 1.197,-2.868 3.998,-11.255 3.998,-11.97 0,-0.312 0.526,-2.067 1.169,-3.899 0.643,-1.832 1.88,-5.363 2.749,-7.846 0.868,-2.483 1.692,-4.628 1.83,-4.767 0.139,-0.138 0.252,-0.579 0.252,-0.979 0,-0.689 2.025,-7.227 2.768,-8.939 3.629,-8.357 3.303,-13.747 -1.25,-20.62 -6.1,-9.209 -7.518,-13.519 -7.518,-22.854 0,-6.103 0.663,-10.113 2.213,-13.391 0.543,-1.147 0.987,-2.194 0.987,-2.327 0,-0.133 0.177,-0.459 0.394,-0.725 1.823,-2.235 2.406,-3.048 2.406,-3.352 0,-0.194 0.315,-0.659 0.7,-1.032 0.385,-0.373 1.96,-2.107 3.5,-3.853 1.54,-1.745 3.16,-3.304 3.6,-3.464 0.44,-0.159 0.89,-0.401 1,-0.536 0.11,-0.135 0.92,-0.595 1.8,-1.021 0.88,-0.426 2.23,-1.143 3,-1.594 5.367,-3.145 20.717,-3.531 24.6,-0.618 0.22,0.165 1.956,1.104 3.858,2.087 1.902,0.983 3.974,2.307 4.604,2.943 0.631,0.637 1.685,1.61 2.342,2.163 0.658,0.553 1.726,1.723 2.375,2.6 0.648,0.877 1.278,1.684 1.4,1.794 7.238,6.546 7.912,31.917 1.036,39.029 -0.228,0.236 -0.955,1.136 -1.615,2 -1.718,2.249 -5.233,5.539 -7.865,7.361 -7.427,5.143 -9.045,9.217 -7.149,18.01 0.941,4.368 1.687,8.972 2.234,13.8 0.589,5.202 0.778,6.466 1.974,13.2 1.047,5.897 1.772,10.174 2.408,14.2 0.33,2.09 0.772,4.79 0.983,6 0.21,1.21 0.659,3.91 0.997,6 1.285,7.944 1.811,10.717 2.74,14.441 0.527,2.113 1.084,4.045 1.238,4.294 0.154,0.249 0.45,1.401 0.658,2.559 0.855,4.771 1.202,5.954 2.221,7.59 0.588,0.944 1.113,1.77 1.168,1.836 0.381,0.459 4.27,-0.561 5.206,-1.365 0.611,-0.525 1.256,-0.955 1.433,-0.955 0.509,0 8.536,-8.26 11.474,-11.807 2.024,-2.443 4.894,-5.699 6.819,-7.736 1.458,-1.543 3.157,-3.581 4.551,-5.457 0.163,-0.22 1.113,-1.325 2.111,-2.455 0.998,-1.131 2.276,-2.751 2.84,-3.6 0.565,-0.85 1.506,-2.021 2.093,-2.602 0.586,-0.582 1.606,-1.729 2.266,-2.549 0.66,-0.82 1.875,-2.234 2.7,-3.142 0.825,-0.908 1.5,-1.774 1.5,-1.923 0,-0.15 0.248,-0.52 0.552,-0.824 3.454,-3.453 3.538,-12.035 0.18,-18.419 -1.873,-3.562 -1.787,-16.762 0.123,-18.866 0.19,-0.209 0.345,-0.625 0.345,-0.924 0,-4.624 12.567,-18.096 16.88,-18.096 0.308,0 0.731,-0.165 0.94,-0.366 2.277,-2.194 12.795,-3.171 17.672,-1.642 4.149,1.3 8.331,3.263 9.813,4.606 0.492,0.446 1.705,1.435 2.695,2.198 1.796,1.385 5.2,4.67 5.2,5.018 0,0.101 0.612,1.04 1.361,2.085 4.548,6.353 6.119,15.07 4.342,24.101 -0.314,1.593 -3.501,8.68 -4.138,9.2 -0.135,0.11 -0.718,0.954 -1.295,1.876 -1.632,2.606 -4.526,5.23 -8.033,7.282 -0.9,0.527 -2.009,1.292 -2.463,1.7 -0.454,0.408 -0.959,0.742 -1.122,0.742 -0.365,0 -3.762,1.461 -4.852,2.088 -0.44,0.252 -1.297,0.71 -1.904,1.017 -1.029,0.52 -3.987,3.271 -4.896,4.553 -0.453,0.638 -1.064,1.881 -3.315,6.742 -1.497,3.233 -1.826,4.161 -3.476,9.8 -0.386,1.32 -1.416,3.93 -2.287,5.8 -2.271,4.873 -2.296,4.94 -4.755,12.8 -0.723,2.31 -1.643,4.759 -2.045,5.441 -0.403,0.683 -1.364,3.203 -2.138,5.6 -0.773,2.398 -1.874,5.349 -2.446,6.559 -0.573,1.21 -1.197,2.56 -1.388,3 -0.626,1.449 -3.15,9.435 -3.15,9.97 0,0.581 -1.265,3.939 -2.439,6.474 -0.418,0.904 -0.761,1.815 -0.761,2.025 0,0.209 -0.348,1.102 -0.774,1.983 -0.426,0.881 -0.89,2.13 -1.031,2.775 -0.142,0.645 -0.413,1.533 -0.604,1.973 -0.191,0.44 -0.717,1.645 -1.169,2.678 -0.452,1.033 -0.822,1.973 -0.822,2.088 0,0.116 -0.45,1.194 -1,2.397 -0.55,1.202 -1,2.431 -1,2.731 0,0.3 -0.16,0.717 -0.356,0.926 -0.195,0.209 -0.754,1.64 -1.242,3.18 -1.044,3.3 -2.237,6.545 -3.264,8.878 -0.406,0.923 -0.738,1.916 -0.738,2.206 0,0.29 -0.335,1.444 -0.745,2.565 -0.41,1.121 -0.869,2.702 -1.022,3.514 -0.152,0.811 -0.818,2.681 -1.48,4.156 -0.662,1.475 -1.363,3.041 -1.557,3.481 -5.414,12.27 -8.218,13.73 -21.996,11.455 -5.369,-0.887 -11.421,-1.496 -24.6,-2.475 -3.08,-0.229 -8.66,-0.675 -12.4,-0.99 -15.63,-1.32 -83.053,-1.164 -97.2,0.225 -2.2,0.216 -7.6,0.656 -12,0.979 -10.064,0.738 -15.787,1.283 -18.6,1.773 -20.036,3.487 -28.88,3.031 -31.373,-1.618 -3.889,-7.254 -4.841,-9.383 -5.879,-13.149 -0.212,-0.77 -0.552,-1.76 -0.755,-2.2 -0.203,-0.44 -0.925,-2.24 -1.605,-4 -0.681,-1.76 -1.592,-3.944 -2.025,-4.853 -0.434,-0.909 -1.222,-3.339 -1.752,-5.4 -1.383,-5.383 -1.396,-5.424 -2.873,-9.032 -0.739,-1.806 -1.804,-4.776 -2.366,-6.6 -0.563,-1.823 -1.191,-3.628 -1.397,-4.01 -0.206,-0.382 -0.375,-0.888 -0.375,-1.125 0,-0.237 -0.45,-1.415 -1,-2.617 -0.55,-1.203 -1,-2.281 -1,-2.397 0,-0.115 -0.37,-1.055 -0.822,-2.088 -1.398,-3.195 -1.469,-3.385 -2.575,-6.878 -1.025,-3.237 -2.182,-6.191 -3.012,-7.686 -0.39,-0.703 -1.759,-5.256 -2.44,-8.114 -0.404,-1.693 -1.315,-4.406 -2.152,-6.4 -0.276,-0.66 -0.955,-2.28 -1.508,-3.6 -0.553,-1.32 -1.491,-4.02 -2.085,-6 -0.593,-1.98 -1.233,-3.96 -1.421,-4.4 -0.188,-0.44 -0.695,-1.61 -1.128,-2.6 -0.432,-0.99 -1.527,-4.05 -2.434,-6.8 -0.907,-2.75 -1.811,-5.36 -2.01,-5.8 -0.2,-0.44 -1.184,-2.57 -2.188,-4.732 -1.004,-2.163 -1.825,-4.093 -1.825,-4.289 0,-2.72 -5.966,-9.579 -8.332,-9.579 -0.207,0 -0.892,-0.269 -1.522,-0.598 -0.63,-0.328 -1.45,-0.598 -1.822,-0.6 -0.372,-10e-4 -0.773,-0.158 -0.891,-0.348 -0.117,-0.19 -0.844,-0.449 -1.615,-0.574 -0.771,-0.125 -1.846,-0.644 -2.39,-1.154 -1.219,-1.141 -1.657,-1.489 -3.428,-2.723 C 14.357,144.325 9.784,129.297 14.148,116.6 c 2.283,-6.642 4.057,-9.077 10.639,-14.6 3.587,-3.01 5.197,-3.785 11.708,-5.635 3.371,-0.957 9.789,-1.033 13.043,-0.154 4.178,1.128 8.862,2.752 8.862,3.072 0,0.174 0.255,0.317 0.566,0.317 0.311,0 1.346,0.715 2.3,1.589 0.954,0.874 1.863,1.594 2.02,1.6 0.786,0.03 5.257,5.274 6.462,7.58 3.131,5.992 4.323,11.326 3.852,17.231 -0.295,3.699 -0.629,4.964 -3.159,11.96 -2.678,7.405 -1.628,11.742 4.249,17.553 1.176,1.162 2.446,2.619 2.824,3.238 0.859,1.409 4.296,5.38 7.636,8.821 1.403,1.446 3.224,3.528 4.047,4.628 0.823,1.1 1.896,2.357 2.384,2.793 0.488,0.436 1.546,1.696 2.352,2.8 2.267,3.105 2.725,3.62 8.13,9.119 2.784,2.834 5.502,5.633 6.04,6.22 0.538,0.587 1.387,1.338 1.887,1.668 0.499,0.33 1.111,0.78 1.359,1 1.474,1.309 4.489,2.524 5.252,2.117 2.354,-1.255 4.125,-3.777 5.138,-7.317 0.378,-1.32 0.85,-2.94 1.05,-3.6 0.199,-0.66 0.487,-1.92 0.639,-2.8 0.152,-0.88 0.404,-1.78 0.561,-2 0.156,-0.22 0.601,-2.2 0.989,-4.4 0.388,-2.2 0.853,-4.63 1.032,-5.4 0.179,-0.77 0.444,-2.39 0.588,-3.6 0.389,-3.268 1.364,-8.163 2.39,-12 1.147,-4.286 1.575,-6.268 2.595,-12 0.45,-2.53 1.185,-6.22 1.633,-8.2 0.449,-1.98 1.254,-5.76 1.789,-8.4 0.535,-2.64 1.312,-6.42 1.726,-8.4 1.446,-6.914 1.669,-8.47 1.662,-11.624 -0.008,-3.829 -0.862,-5.65 -3.595,-7.662 -0.989,-0.728 -2.061,-1.544 -2.382,-1.813 -0.321,-0.269 -1.683,-1.211 -3.028,-2.095 -3.47,-2.279 -10.588,-10.388 -10.588,-12.061 0,-0.3 -0.145,-0.545 -0.323,-0.545 -0.178,0 -0.643,-0.765 -1.034,-1.7 -0.39,-0.935 -0.947,-2.24 -1.237,-2.9 -1.468,-3.339 -1.918,-14.252 -0.824,-19.969 2.285,-11.945 14.294,-23.32 27.018,-25.591 2.477,-0.442 12.268,0.059 14.6,0.748 m -5,285.026 c -12.929,0.795 -21.776,1.66 -26.6,2.601 -1.54,0.301 -4.42,0.748 -6.4,0.993 -1.98,0.246 -4.86,0.616 -6.4,0.823 -1.54,0.207 -5.32,0.641 -8.4,0.965 -15.607,1.642 -22.28,3.08 -24.529,5.286 -0.29,0.285 -0.655,0.518 -0.81,0.518 -0.764,0 -5.343,4.992 -7.338,8 -2.813,4.241 -3.56,6.106 -5.769,14.4 -2.246,8.432 -2.26,8.543 -2.276,18.8 -0.026,16.019 0.945,17.88 9.794,18.788 11.16,1.145 253.936,0.436 254.714,-0.744 0.118,-0.179 0.636,-0.546 1.151,-0.818 4.398,-2.317 4.385,-29.116 -0.02,-41.026 -3.078,-8.323 -6.151,-13.361 -10.171,-16.677 -5.148,-4.246 -7.233,-4.809 -27.946,-7.54 -4.217,-0.557 -10.549,-1.51 -12.8,-1.927 -5.732,-1.063 -10.127,-1.372 -24.2,-1.699 -8.47,-0.197 -18.28,-0.524 -21.8,-0.726 -7.386,-0.425 -73.331,-0.439 -80.2,-0.017 m 82.2,1.222 c 3.74,0.216 13.28,0.526 21.2,0.69 7.92,0.164 14.602,0.424 14.849,0.578 0.246,0.154 2.136,0.551 4.2,0.883 2.063,0.332 4.561,0.783 5.551,1.002 0.99,0.219 4.23,0.671 7.2,1.004 20.733,2.326 25.248,3.364 30,6.9 2.119,1.577 7.047,7.442 7.385,8.791 0.13,0.515 0.691,1.968 1.248,3.227 0.557,1.259 1.169,2.649 1.361,3.089 4.606,10.568 5.365,35.685 1.229,40.64 -1.843,2.208 4.18,2.101 -127.023,2.259 -133.581,0.16 -133.4,0.163 -133.4,-2.247 0,-0.18 -0.436,-0.835 -0.969,-1.455 -2.294,-2.67 -3.062,-18.544 -1.306,-26.997 1.306,-6.285 2.37,-10.166 3.675,-13.4 2.44,-6.046 9.564,-14.949 12,-14.997 0.22,-0.004 0.928,-0.283 1.574,-0.62 1.114,-0.581 2.38,-0.961 6.026,-1.807 2.12,-0.492 9.857,-1.5 16.8,-2.188 8.543,-0.846 16.18,-1.756 18.4,-2.191 1.1,-0.216 3.65,-0.644 5.667,-0.951 2.016,-0.306 3.822,-0.654 4.013,-0.772 0.41,-0.254 9.514,-1.07 16.32,-1.463 7.496,-0.433 76.403,-0.412 84,0.025"
     stroke="none"
     fill="#6e6e6e"
     fill-rule="evenodd" />
  <path
     id="path3"
     d="m 141.112,30.833 c -3.969,0.42 -9.45,2.318 -11.712,4.054 -0.22,0.169 -1.191,0.946 -2.158,1.727 -0.968,0.781 -2.126,1.617 -2.575,1.857 -2.302,1.232 -5.612,4.696 -8.343,8.729 -2.863,4.228 -3.316,5.212 -3.876,8.407 -0.213,1.214 -0.802,3.194 -1.31,4.4 -1.466,3.484 -1.398,14.969 0.113,18.993 0.579,1.54 1.187,3.61 1.352,4.6 0.286,1.712 1.998,5.974 2.572,6.4 0.148,0.11 0.902,1.223 1.676,2.474 1.691,2.733 4.109,5.46 5.749,6.484 0.66,0.412 1.661,1.238 2.224,1.837 0.563,0.598 2.313,1.937 3.888,2.974 1.575,1.038 3.431,2.417 4.125,3.065 1.354,1.265 1.332,0.899 0.317,5.366 -0.2,0.88 -0.631,3.13 -0.958,5 -0.521,2.985 -1.119,6.107 -1.953,10.2 -0.135,0.66 -0.61,3.45 -1.057,6.2 -1.165,7.161 -1.78,10.219 -2.696,13.4 -0.444,1.54 -1.104,4.78 -1.468,7.2 -1.233,8.205 -1.501,9.596 -2.421,12.6 -1.216,3.969 -2.115,7.659 -2.582,10.6 -0.353,2.22 -0.754,4.153 -2.016,9.729 -0.493,2.18 -2.356,7.033 -2.386,6.218 -0.009,-0.248 -0.863,-0.665 -1.898,-0.926 -1.278,-0.321 -2.272,-0.916 -3.1,-1.854 -1.09,-1.236 -3.465,-3.616 -7.162,-7.178 -2.343,-2.257 -4.856,-5.184 -5.458,-6.358 -0.329,-0.642 -1.904,-2.471 -3.499,-4.063 -1.595,-1.591 -2.9,-3.072 -2.9,-3.289 0,-0.218 -0.585,-0.914 -1.3,-1.548 -0.715,-0.633 -1.769,-1.867 -2.342,-2.741 -0.573,-0.875 -2.345,-2.94 -3.939,-4.59 -3.148,-3.26 -4.192,-4.45 -5.419,-6.178 -0.44,-0.619 -1.218,-1.593 -1.73,-2.164 -3.55,-3.966 -3.481,-7.995 0.276,-16.102 0.47,-1.014 0.854,-2.151 0.854,-2.526 0,-0.375 0.182,-1.022 0.404,-1.437 1.287,-2.406 0.399,-14.002 -1.362,-17.793 -0.307,-0.66 -0.733,-1.65 -0.948,-2.2 -1.751,-4.486 -3.96,-8.025 -6.242,-10 -0.635,-0.55 -2.039,-1.855 -3.119,-2.9 C 65.652,98.455 64.1,97.251 63.284,96.824 62.468,96.398 61.26,95.569 60.6,94.983 c -1.267,-1.126 -1.66,-1.318 -5.8,-2.842 -7.316,-2.692 -24.603,-1.5 -27.2,1.875 -0.11,0.143 -1.37,1.05 -2.8,2.014 -3.052,2.059 -3.032,2.044 -5.567,4.37 -1.078,0.99 -2.382,2.165 -2.897,2.611 -1.508,1.306 -3.528,3.915 -3.785,4.889 -0.131,0.495 -0.398,0.9 -0.594,0.9 -0.197,0 -0.357,0.247 -0.357,0.549 0,0.608 -1.208,3.588 -2.445,6.03 -2.567,5.071 -2.582,17.688 -0.026,22.317 0.396,0.717 1.149,2.474 1.674,3.904 1.896,5.17 4.398,8.477 9.557,12.627 0.528,0.425 1.287,1.082 1.687,1.459 1.047,0.99 3.589,2.546 4.753,2.909 0.55,0.172 1.09,0.429 1.2,0.572 0.223,0.288 5.367,2.833 5.728,2.833 2.23,0 7.708,5.098 8.06,7.502 0.391,2.666 1.688,7.246 2.337,8.252 0.3,0.465 0.963,2.106 1.474,3.646 0.511,1.54 1.054,3.16 1.207,3.6 0.153,0.44 0.883,2.69 1.62,5 0.738,2.31 1.484,4.371 1.658,4.58 0.174,0.209 0.317,0.659 0.319,1 0.001,0.341 0.72,2.06 1.597,3.82 0.877,1.76 1.596,3.501 1.597,3.868 0.004,0.819 2.349,7.563 2.841,8.169 0.411,0.505 1.962,5.225 1.962,5.97 0,0.605 1.896,6.541 2.365,7.406 0.184,0.337 0.463,1.204 0.622,1.927 0.159,0.723 0.54,1.797 0.848,2.387 0.308,0.59 0.561,1.315 0.563,1.611 10e-4,0.296 0.355,1.034 0.786,1.64 0.782,1.097 1.294,2.462 2.635,7.022 0.388,1.32 1.102,3.3 1.587,4.4 1.146,2.603 2.063,5.255 2.414,6.987 0.155,0.763 0.428,1.663 0.606,2 0.179,0.337 1.152,2.773 2.162,5.413 1.01,2.64 2.272,5.79 2.805,7 0.532,1.21 1.257,3.46 1.609,5 0.649,2.835 2.004,6.607 3.16,8.8 0.348,0.66 0.634,1.446 0.636,1.746 0.002,0.586 1.031,3.889 1.822,5.854 1.337,3.318 2.791,6.414 3.069,6.533 0.171,0.074 0.311,0.363 0.311,0.642 0,0.819 4.627,5.372 5.658,5.567 3.889,0.739 7.987,1.014 9.95,0.668 1.206,-0.212 5.612,-0.573 9.792,-0.803 14.161,-0.779 21.423,-1.43 29.2,-2.616 7.63,-1.164 9.832,-1.395 17,-1.786 9.865,-0.539 83.148,-0.527 91.407,0.014 5.582,0.366 9.098,0.764 21.393,2.421 11.819,1.593 31.209,2.364 33.922,1.35 1.734,-0.649 5.272,-3.83 5.276,-4.745 0.001,-0.196 0.965,-2.356 2.141,-4.8 1.302,-2.706 2.485,-5.92 3.023,-8.216 0.486,-2.073 1.222,-4.244 1.634,-4.824 0.413,-0.58 0.881,-1.571 1.039,-2.203 0.159,-0.632 0.53,-1.611 0.824,-2.175 0.295,-0.565 0.537,-1.157 0.539,-1.316 0.001,-0.159 0.44,-1.239 0.976,-2.4 1.203,-2.609 2.226,-5.688 2.226,-6.701 0,-0.42 0.18,-0.874 0.4,-1.01 0.22,-0.136 0.4,-0.554 0.4,-0.93 0,-0.375 0.34,-1.316 0.755,-2.091 0.875,-1.633 1.718,-4.012 3.106,-8.771 0.544,-1.865 1.113,-3.485 1.264,-3.6 0.525,-0.396 2.875,-5.715 2.875,-6.506 0,-0.298 0.17,-0.713 0.377,-0.922 0.207,-0.209 0.555,-1.1 0.772,-1.98 1.229,-4.983 3.043,-10.885 3.516,-11.437 0.738,-0.862 2.354,-5.053 2.697,-6.991 0.23,-1.302 2.336,-6.245 3.862,-9.067 0.207,-0.382 0.376,-1.017 0.376,-1.411 0,-0.394 0.242,-1.071 0.538,-1.505 0.296,-0.434 0.642,-1.149 0.77,-1.589 0.128,-0.44 0.78,-2.764 1.448,-5.164 0.668,-2.4 1.771,-5.483 2.452,-6.851 1.141,-2.296 2.776,-7.854 2.787,-9.477 0.003,-0.381 0.61,-1.641 1.349,-2.8 0.74,-1.16 1.482,-2.558 1.649,-3.108 0.168,-0.55 0.908,-2.298 1.644,-3.884 0.737,-1.586 1.464,-3.386 1.617,-4 0.323,-1.299 1.796,-3.704 2.274,-3.711 0.18,-0.003 1.08,-0.512 2,-1.132 0.92,-0.619 2.752,-1.724 4.072,-2.454 1.32,-0.73 2.49,-1.438 2.6,-1.573 0.316,-0.388 2.821,-1.646 3.278,-1.646 1.328,0 8.788,-6.36 10.114,-8.623 0.571,-0.974 1.451,-2.183 1.955,-2.688 0.505,-0.504 1.424,-2.261 2.043,-3.903 0.618,-1.642 1.255,-3.166 1.414,-3.386 3.033,-4.19 3.166,-17.284 0.239,-23.536 -0.794,-1.695 -1.443,-3.265 -1.443,-3.489 0,-0.681 -1.489,-3.305 -2.576,-4.537 -0.563,-0.639 -1.024,-1.302 -1.024,-1.473 0,-0.988 -9.572,-9.565 -10.675,-9.565 -0.274,0 -1.023,-0.514 -1.666,-1.143 -4.928,-4.817 -19.001,-6.327 -27.859,-2.988 -2.696,1.016 -6.2,3.145 -6.2,3.767 0,0.165 -0.514,0.413 -1.141,0.551 -2.196,0.482 -13.144,12.306 -14.008,15.128 -0.081,0.267 -0.389,1.025 -0.683,1.685 -1.854,4.155 -1.968,4.943 -1.954,13.4 l 0.014,8.2 1.654,4.4 c 2.817,7.498 2.795,7.35 1.482,10.057 -0.625,1.289 -1.323,2.562 -1.551,2.829 -1.223,1.438 -1.413,1.707 -1.413,1.998 0,0.175 -0.765,1.144 -1.7,2.154 -2.588,2.795 -3.9,4.468 -3.9,4.973 0,0.251 -0.495,0.908 -1.1,1.46 -1.303,1.189 -2.9,3.041 -2.9,3.363 0,0.126 -0.675,0.932 -1.5,1.791 -2.031,2.116 -4.438,4.889 -6.747,7.775 -1.056,1.32 -2.603,3.111 -3.437,3.981 -0.834,0.869 -1.516,1.774 -1.516,2.011 0,0.236 -0.315,0.716 -0.7,1.066 -1.746,1.586 -6.1,6.366 -6.1,6.697 0,1.101 -4.437,2.883 -5.924,2.381 -2.1,-0.71 -2.342,-1.153 -2.643,-4.843 -0.577,-7.072 -1.842,-15.59 -2.688,-18.093 -0.491,-1.455 -0.976,-4.44 -1.754,-10.8 -0.6,-4.902 -0.964,-7.398 -1.954,-13.4 -0.308,-1.87 -0.851,-5.2 -1.205,-7.4 -0.354,-2.2 -0.805,-4.72 -1.002,-5.6 -0.197,-0.88 -0.641,-2.86 -0.985,-4.4 -0.345,-1.54 -0.898,-3.97 -1.23,-5.4 -1.955,-8.426 -1.663,-15.357 0.743,-17.604 3.56,-3.326 4.993,-4.521 6.509,-5.432 0.916,-0.55 2.109,-1.578 2.65,-2.282 0.541,-0.705 1.967,-2.334 3.168,-3.62 2.417,-2.588 4.606,-6.592 5.938,-10.862 0.481,-1.54 1.023,-2.987 1.204,-3.215 1.674,-2.105 1.518,-16.698 -0.214,-20.018 -0.334,-0.642 -0.609,-1.394 -0.611,-1.672 -10e-4,-0.278 -0.157,-0.818 -0.346,-1.2 -0.189,-0.382 -0.654,-1.662 -1.033,-2.844 -0.38,-1.182 -1.215,-3.002 -1.857,-4.044 -0.641,-1.043 -1.166,-2.024 -1.166,-2.18 0,-0.157 -0.795,-1.127 -1.768,-2.156 -0.972,-1.029 -2.313,-2.56 -2.98,-3.401 -0.667,-0.842 -2.707,-2.634 -4.532,-3.983 -1.826,-1.349 -3.41,-2.556 -3.52,-2.682 -0.11,-0.127 -1.37,-0.791 -2.8,-1.475 -10.397,-4.977 -28.684,-3.489 -35.441,2.883 -0.846,0.798 -2.353,2.053 -3.348,2.79 -2.41,1.784 -5.668,5.218 -6.827,7.197 -0.516,0.88 -1.507,2.278 -2.204,3.106 -0.77,0.916 -1.613,2.671 -2.15,4.479 -0.485,1.635 -1.248,3.729 -1.695,4.654 -2.516,5.208 -2.369,16.068 0.296,21.872 0.533,1.161 0.969,2.297 0.969,2.525 0,1.547 2.585,7.253 3.607,7.964 0.159,0.11 0.763,1.1 1.344,2.2 1.171,2.217 1.935,3.497 2.27,3.8 0.69,0.625 1.579,3.361 1.579,4.862 0,1.576 -0.324,2.909 -2.268,9.338 -0.333,1.1 -0.85,3.08 -1.148,4.4 -1.247,5.509 -1.519,6.416 -2.218,7.384 -0.877,1.215 -1.627,3.425 -2.737,8.062 -0.454,1.895 -1.264,4.235 -1.8,5.2 -1.748,3.144 -5.412,15.325 -5.424,18.03 -0.003,0.592 -0.161,1.173 -0.351,1.291 -0.19,0.117 -0.449,0.85 -0.576,1.627 -0.126,0.778 -0.58,1.907 -1.008,2.51 -0.813,1.143 -1.21,2.3 -2.507,7.296 -0.429,1.65 -1.215,3.9 -1.747,5 -0.533,1.1 -1.372,3.26 -1.865,4.8 -0.87,2.721 -1.635,3.991 -3.807,6.328 -1.272,1.367 -1.383,1.257 -2.571,-2.528 -0.519,-1.65 -1.321,-3.63 -1.784,-4.4 -0.784,-1.305 -1.304,-2.839 -2.844,-8.4 -0.726,-2.623 -1.373,-4.452 -1.767,-5 -0.158,-0.22 -0.414,-1.164 -0.568,-2.098 -0.154,-0.934 -0.444,-1.799 -0.645,-1.924 -0.201,-0.124 -0.365,-0.502 -0.365,-0.841 0,-0.598 -0.48,-1.823 -2.014,-5.137 -0.407,-0.88 -0.94,-2.5 -1.184,-3.6 -0.629,-2.83 -1.524,-5.383 -2.432,-6.931 -0.429,-0.733 -0.973,-2.083 -1.209,-3 -0.878,-3.413 -1.542,-6.125 -1.975,-8.069 -0.245,-1.1 -0.686,-2.54 -0.98,-3.2 -0.294,-0.66 -0.745,-2.01 -1.003,-3 -0.258,-0.99 -1.148,-3.24 -1.977,-5 -0.83,-1.76 -1.818,-4.55 -2.197,-6.2 -0.789,-3.447 -2.55,-8.82 -3.074,-9.38 -0.821,-0.878 -0.394,-3.874 0.671,-4.712 0.565,-0.444 1.478,-1.522 2.029,-2.395 0.551,-0.873 1.628,-2.138 2.394,-2.81 0.766,-0.672 1.648,-1.718 1.962,-2.324 0.314,-0.607 0.8,-1.345 1.08,-1.641 0.626,-0.662 1.97,-3.466 2.94,-6.138 0.4,-1.1 1.057,-2.601 1.461,-3.335 2.653,-4.827 2.459,-18.812 -0.335,-24.06 C 182.431,55.816 182,54.687 182,54.298 c 0,-0.39 -0.165,-1.021 -0.366,-1.403 -0.201,-0.382 -0.764,-1.685 -1.252,-2.895 -1.456,-3.615 -7.397,-10.706 -9.538,-11.386 -0.419,-0.133 -1.38,-0.825 -2.136,-1.538 -5.898,-5.562 -14.863,-7.59 -27.596,-6.243 m 12.382,3.208 c 5.884,1.36 6.206,1.493 11.789,4.868 5.868,3.548 11.357,9.795 13.198,15.019 4.664,13.243 3.14,28.272 -3.658,36.072 -2.447,2.807 -5.099,6.338 -6.416,8.538 -1.299,2.173 -0.955,6.266 1,11.907 1.424,4.111 2.433,7.288 3.668,11.555 0.675,2.332 0.899,2.969 1.824,5.2 0.833,2.007 1.31,3.403 2.322,6.8 0.492,1.65 1.212,3.99 1.6,5.2 0.387,1.21 1.103,3.526 1.589,5.146 0.487,1.62 1.132,3.42 1.435,4 0.303,0.58 0.551,1.333 0.553,1.674 0.001,0.341 0.154,0.791 0.339,1 0.186,0.209 0.65,1.46 1.032,2.78 0.382,1.32 0.846,2.85 1.03,3.4 0.185,0.55 0.452,1.54 0.594,2.2 0.141,0.66 1.04,3.27 1.997,5.8 0.956,2.53 2.118,5.77 2.581,7.2 0.462,1.43 1.018,2.913 1.235,3.295 0.217,0.382 0.394,0.886 0.394,1.122 0,0.819 3.186,7.474 5.505,11.498 0.988,1.715 0.989,1.715 2.042,1.047 2.61,-1.656 3.542,-2.669 4.808,-5.225 0.745,-1.506 1.621,-3.251 1.947,-3.879 0.326,-0.627 0.826,-1.977 1.113,-3 1.804,-6.443 2.279,-7.991 2.801,-9.118 0.321,-0.694 0.584,-1.513 0.584,-1.82 0,-0.308 0.153,-0.731 0.34,-0.94 0.187,-0.209 1.095,-2.99 2.018,-6.18 1.765,-6.1 3.73,-12.313 5.377,-17 0.541,-1.54 1.278,-3.88 1.638,-5.2 0.909,-3.33 2.207,-7.37 2.829,-8.8 0.287,-0.66 0.927,-2.46 1.424,-4 0.496,-1.54 1.032,-3.16 1.192,-3.6 0.16,-0.44 0.867,-2.69 1.571,-5 0.705,-2.31 1.47,-4.65 1.7,-5.2 0.23,-0.55 0.569,-1.36 0.753,-1.8 0.535,-1.275 1.558,-6.14 1.558,-7.406 0,-1.649 -0.459,-2.566 -5.201,-10.394 -2.332,-3.85 -4.457,-7.72 -4.721,-8.6 -2.445,-8.134 -2.254,-20.135 0.429,-27 1.915,-4.897 9.68,-14.011 13.893,-16.306 1.21,-0.659 3.01,-1.649 4,-2.2 5.291,-2.948 20.753,-4.236 22.226,-1.852 0.122,0.197 0.582,0.358 1.023,0.358 0.939,0 4.889,1.618 5.084,2.082 0.074,0.175 0.292,0.318 0.486,0.318 0.816,0 6.313,3.682 7.874,5.273 2.055,2.095 3.307,3.567 3.307,3.888 0.001,0.132 0.448,0.758 0.993,1.393 0.546,0.635 1.536,2 2.199,3.034 3.063,4.772 5.151,16.588 4.067,23.012 -0.612,3.63 -1.248,6.321 -1.675,7.095 -0.211,0.382 -0.384,0.927 -0.384,1.211 0,0.57 -2.312,5.176 -2.758,5.494 -0.154,0.11 -0.719,0.83 -1.256,1.6 -2.362,3.392 -4.682,5.706 -7.805,7.786 -7.451,4.964 -9.158,8.831 -7.597,17.214 0.328,1.76 0.792,4.82 1.032,6.8 1.078,8.88 1.966,14.787 2.979,19.8 0.333,1.65 0.895,4.8 1.25,7 0.354,2.2 0.791,4.81 0.97,5.8 0.179,0.99 0.601,3.6 0.937,5.8 1.308,8.569 2.228,13.755 3.244,18.3 1.449,6.48 1.822,8.299 2.372,11.569 0.321,1.908 0.985,4.404 1.477,5.547 l 0.894,2.078 2.112,-0.248 c 2.51,-0.295 4.944,-1.807 7.677,-4.769 1.03,-1.115 2.502,-2.677 3.272,-3.471 0.77,-0.794 2.39,-2.599 3.6,-4.011 2.05,-2.393 3.228,-3.744 8.077,-9.26 1.032,-1.174 2.287,-2.675 2.787,-3.335 0.501,-0.66 1.78,-2.122 2.843,-3.25 1.063,-1.127 2.688,-3.117 3.613,-4.422 1.52,-2.146 4.663,-5.992 6.327,-7.742 4.826,-5.075 6.417,-12.485 3.562,-16.586 -0.153,-0.22 -0.645,-1.48 -1.093,-2.8 -2.551,-7.52 -2.412,-16.083 0.359,-22.187 0.446,-0.983 0.958,-2.173 1.136,-2.643 1.139,-2.995 9.939,-12.955 11.456,-12.967 0.256,-10e-4 0.526,-0.138 0.6,-0.303 0.373,-0.84 9.063,-4.363 12.234,-4.96 7.32,-1.377 18.064,1.86 23.699,7.141 0.77,0.722 1.521,1.314 1.668,1.316 0.647,0.008 4.467,4.277 6.268,7.003 0.581,0.88 1.151,1.69 1.266,1.8 2.932,2.804 4.505,15.932 2.82,23.546 -1.383,6.25 -5.881,12.879 -11.726,17.284 -2.825,2.129 -8.198,5.17 -9.133,5.17 -1.818,0 -7.426,4.881 -8.822,7.679 -3.529,7.068 -4.761,10.131 -6.004,14.921 -0.228,0.88 -0.577,1.913 -0.776,2.295 -0.199,0.382 -0.361,0.861 -0.361,1.064 0,0.203 -0.63,1.715 -1.4,3.359 -0.77,1.644 -1.4,3.193 -1.4,3.441 0,0.249 -0.159,0.764 -0.353,1.146 -0.792,1.556 -2.867,7.826 -2.853,8.619 0.003,0.178 -0.697,1.798 -1.555,3.6 -0.859,1.802 -1.869,4.266 -2.245,5.476 -1.313,4.229 -2.299,7.008 -2.838,8 -0.753,1.387 -2.682,6.518 -3.534,9.4 -0.39,1.32 -0.96,3.171 -1.266,4.114 -0.306,0.943 -0.556,1.892 -0.556,2.109 0,0.217 -0.715,1.927 -1.588,3.8 -0.874,1.874 -1.805,4.165 -2.07,5.092 -0.265,0.927 -0.61,1.865 -0.766,2.085 -0.156,0.22 -0.415,1.016 -0.576,1.768 -0.277,1.293 -1.737,5.013 -3.409,8.688 -0.415,0.911 -0.877,2.171 -1.027,2.8 -0.151,0.629 -0.409,1.324 -0.573,1.544 -0.164,0.22 -0.432,1.024 -0.596,1.787 -0.163,0.763 -0.431,1.663 -0.596,2 -1.26,2.586 -3.465,8.701 -4.98,13.813 -1.772,5.978 -5.399,13.883 -7.746,16.882 -2.9,3.705 -7.075,4.066 -22.273,1.924 -6.242,-0.88 -10.566,-1.341 -18.8,-2.003 -3.96,-0.318 -10.53,-0.863 -14.6,-1.211 -8.738,-0.746 -90.513,-0.603 -96.8,0.169 -1.87,0.23 -6.64,0.689 -10.6,1.021 -8.334,0.697 -12.809,1.179 -18.4,1.982 -19.056,2.736 -31.262,2.851 -32.111,0.302 -0.072,-0.216 -0.492,-0.808 -0.933,-1.317 -0.441,-0.508 -1.219,-1.74 -1.729,-2.737 -3.332,-6.512 -4.227,-8.492 -4.227,-9.349 0,-0.339 -0.16,-0.714 -0.355,-0.835 -0.195,-0.121 -0.477,-0.872 -0.627,-1.671 -0.149,-0.798 -0.71,-2.408 -1.245,-3.578 C 82.438,274.609 82,273.493 82,273.3 82,273.108 81.572,272.061 81.05,270.975 80.527,269.889 79.613,267.2 79.018,265 77.447,259.195 76.42,256.085 75.602,254.657 75.206,253.966 74.485,252.14 74,250.6 c -0.485,-1.54 -1.028,-3.16 -1.208,-3.6 -0.179,-0.44 -0.813,-2.24 -1.407,-4 -0.595,-1.76 -1.532,-4.19 -2.082,-5.4 -0.55,-1.21 -1.61,-4.09 -2.355,-6.4 -0.745,-2.31 -1.522,-4.56 -1.728,-5 -1.442,-3.082 -2.424,-5.604 -3.192,-8.2 -0.488,-1.65 -1.04,-3.45 -1.226,-4 -0.186,-0.55 -0.659,-2.08 -1.051,-3.4 -0.393,-1.32 -0.946,-2.85 -1.23,-3.4 -0.284,-0.55 -0.517,-1.231 -0.519,-1.514 -0.001,-0.283 -0.253,-0.913 -0.559,-1.4 -0.556,-0.884 -1.306,-3.021 -3.051,-8.686 -0.805,-2.614 -2.164,-6.043 -3.175,-8.013 -0.174,-0.337 -0.449,-1.237 -0.612,-2 -0.164,-0.763 -0.436,-1.567 -0.605,-1.787 -0.169,-0.22 -0.435,-0.994 -0.59,-1.72 -0.315,-1.47 -1.739,-5.164 -3.246,-8.419 -0.545,-1.176 -1.499,-3.606 -2.121,-5.4 -2.151,-6.203 -5.098,-8.794 -12.843,-11.291 -2.376,-0.766 -4.737,-2.109 -6.368,-3.62 -0.563,-0.523 -1.167,-0.95 -1.342,-0.95 -1.064,0 -8.69,-8.956 -8.69,-10.206 0,-0.135 -0.45,-1.23 -1.001,-2.433 -2.461,-5.382 -3.5,-14.333 -2.235,-19.261 0.24,-0.935 0.618,-2.426 0.841,-3.314 0.223,-0.887 0.561,-1.922 0.751,-2.3 0.19,-0.377 0.952,-1.945 1.695,-3.484 3.537,-7.336 11.872,-13.872 20.915,-16.401 5.53,-1.547 14.305,-0.985 18.46,1.182 0.646,0.337 1.364,0.613 1.595,0.615 4.719,0.027 14.485,9.991 17.254,17.602 3.319,9.127 3.262,13.231 -0.323,23 -2.229,6.072 -2.259,6.171 -2.501,8.224 -0.141,1.195 -0.014,2.211 0.367,2.946 0.32,0.617 0.582,1.296 0.582,1.51 0,0.602 2.371,3.88 4.593,6.352 1.104,1.227 2.457,2.847 3.007,3.599 0.55,0.752 1.732,2.178 2.626,3.168 0.894,0.991 1.884,2.118 2.2,2.506 0.316,0.388 1.658,1.828 2.982,3.2 1.324,1.372 3.034,3.301 3.8,4.285 0.766,0.985 2.031,2.515 2.812,3.4 0.781,0.886 2.187,2.6 3.124,3.81 2.523,3.259 14.23,15.028 15.656,15.74 0.678,0.338 1.828,0.983 2.556,1.433 l 1.323,0.818 1.561,-1.559 c 0.858,-0.858 1.753,-1.804 1.989,-2.103 0.537,-0.68 2.465,-7.783 3.998,-14.729 0.316,-1.43 0.756,-3.41 0.979,-4.4 0.483,-2.14 1.469,-7.891 2.024,-11.8 0.378,-2.662 1.218,-6.587 1.97,-9.2 0.84,-2.916 1.234,-4.687 2.003,-9 0.451,-2.53 0.989,-5.32 1.196,-6.2 0.391,-1.667 1.699,-8.299 2.625,-13.307 0.295,-1.598 0.616,-3.038 0.712,-3.2 0.498,-0.834 2.266,-10.671 2.353,-13.093 0.115,-3.203 -0.723,-4.923 -3.239,-6.646 -0.766,-0.525 -1.585,-1.135 -1.821,-1.356 -0.236,-0.221 -1.502,-1.121 -2.814,-2 -4.002,-2.682 -5.074,-3.663 -7.867,-7.198 -1.217,-1.54 -2.639,-3.52 -3.159,-4.4 -0.521,-0.88 -1.05,-1.69 -1.177,-1.8 -3.808,-3.306 -4.788,-22.51 -1.591,-31.169 1.509,-4.087 10.297,-14.652 12.851,-15.449 0.511,-0.159 1.018,-0.401 1.128,-0.536 0.11,-0.135 0.83,-0.589 1.6,-1.008 0.77,-0.419 2.12,-1.153 3,-1.631 4.451,-2.414 14.289,-3.723 19.294,-2.566 m 0.906,283.186 c -4.017,0.422 -7.889,0.99 -12,1.761 -1.87,0.351 -6.91,0.909 -11.2,1.241 -15.189,1.175 -25.118,2.226 -25.965,2.749 -0.211,0.131 -2.151,0.42 -4.31,0.642 -12.169,1.253 -14.614,1.584 -17.525,2.372 -1.76,0.476 -3.26,1.032 -3.333,1.237 -0.074,0.204 -0.361,0.371 -0.639,0.371 -0.278,0 -0.871,0.315 -1.317,0.7 -0.447,0.385 -1.69,1.42 -2.762,2.299 -4.075,3.345 -8.977,9.87 -9.551,12.714 -0.334,1.661 -1.476,4.829 -1.833,5.087 -0.381,0.275 -2.116,5.563 -3.02,9.2 -1.138,4.582 -1.122,29.218 0.022,32.2 1.084,2.827 3.595,5.079 6.733,6.037 2.438,0.744 5.708,0.763 131.1,0.763 h 128.6 l 1.8,-0.857 c 2.101,-1.001 4.381,-3.039 5.305,-4.743 1.796,-3.312 2.484,-15.929 1.29,-23.674 -2.027,-13.149 -3.448,-20.192 -4.258,-21.106 -0.185,-0.209 -0.338,-0.659 -0.339,-1 -0.002,-0.341 -0.272,-1.136 -0.6,-1.766 -0.329,-0.63 -0.598,-1.357 -0.598,-1.615 0,-0.258 -0.533,-1.092 -1.184,-1.854 -0.651,-0.762 -1.191,-1.529 -1.2,-1.704 -0.044,-0.878 -3.215,-5.17 -5.454,-7.384 -3.728,-3.685 -8.279,-5.682 -14.762,-6.476 -6.474,-0.793 -9.224,-1.225 -10.2,-1.604 -1.301,-0.505 -5.649,-1.007 -20.8,-2.403 -2.53,-0.233 -10.54,-0.606 -17.8,-0.829 -7.26,-0.223 -14.37,-0.588 -15.8,-0.811 -4.773,-0.744 -8.56,-1.192 -13.2,-1.559 -5.583,-0.442 -70.98,-0.431 -75.2,0.012 m 77.8,4.004 c 3.52,0.202 13.33,0.529 21.8,0.726 14.073,0.327 18.468,0.636 24.2,1.699 2.251,0.417 8.583,1.37 12.8,1.927 20.713,2.731 22.798,3.294 27.946,7.54 4.02,3.316 7.093,8.354 10.171,16.677 4.405,11.91 4.418,38.709 0.02,41.026 -0.515,0.272 -1.033,0.639 -1.151,0.818 -0.778,1.18 -243.554,1.889 -254.714,0.744 -8.849,-0.908 -9.82,-2.769 -9.794,-18.788 0.016,-10.257 0.03,-10.368 2.276,-18.8 2.209,-8.294 2.956,-10.159 5.769,-14.4 1.995,-3.008 6.574,-8 7.338,-8 0.155,0 0.52,-0.233 0.81,-0.518 2.249,-2.206 8.922,-3.644 24.529,-5.286 3.08,-0.324 6.86,-0.758 8.4,-0.965 1.54,-0.207 4.42,-0.577 6.4,-0.823 1.98,-0.245 4.86,-0.692 6.4,-0.993 4.824,-0.941 13.671,-1.806 26.6,-2.601 6.869,-0.422 72.814,-0.408 80.2,0.017"
     stroke="none"
     fill="#989898"
     fill-rule="evenodd" />
  <path
     id="path4"
     d="m 142.4,35.44 c -12.724,2.271 -24.733,13.646 -27.018,25.591 -1.094,5.717 -0.644,16.63 0.824,19.969 0.29,0.66 0.847,1.965 1.237,2.9 0.391,0.935 0.856,1.7 1.034,1.7 0.178,0 0.323,0.245 0.323,0.545 0,1.673 7.118,9.782 10.588,12.061 1.345,0.884 2.707,1.826 3.028,2.095 0.321,0.269 1.393,1.085 2.382,1.813 2.733,2.012 3.587,3.833 3.595,7.662 0.007,3.154 -0.216,4.71 -1.662,11.624 -0.414,1.98 -1.191,5.76 -1.726,8.4 -0.535,2.64 -1.34,6.42 -1.789,8.4 -0.448,1.98 -1.183,5.67 -1.633,8.2 -1.02,5.732 -1.448,7.714 -2.595,12 -1.026,3.837 -2.001,8.732 -2.39,12 -0.144,1.21 -0.409,2.83 -0.588,3.6 -0.179,0.77 -0.644,3.2 -1.032,5.4 -0.388,2.2 -0.833,4.18 -0.989,4.4 -0.157,0.22 -0.409,1.12 -0.561,2 -0.152,0.88 -0.44,2.14 -0.639,2.8 -0.2,0.66 -0.672,2.28 -1.05,3.6 -1.013,3.54 -2.784,6.062 -5.138,7.317 -0.763,0.407 -3.778,-0.808 -5.252,-2.117 -0.248,-0.22 -0.86,-0.67 -1.359,-1 -0.5,-0.33 -1.349,-1.081 -1.887,-1.668 -0.538,-0.587 -3.256,-3.386 -6.04,-6.22 -5.405,-5.499 -5.863,-6.014 -8.13,-9.119 -0.806,-1.104 -1.864,-2.364 -2.352,-2.8 -0.488,-0.436 -1.561,-1.693 -2.384,-2.793 -0.823,-1.1 -2.644,-3.182 -4.047,-4.628 -3.34,-3.441 -6.777,-7.412 -7.636,-8.821 -0.378,-0.619 -1.648,-2.076 -2.824,-3.238 -5.877,-5.811 -6.927,-10.148 -4.249,-17.553 2.53,-6.996 2.864,-8.261 3.159,-11.96 0.471,-5.905 -0.721,-11.239 -3.852,-17.231 -1.205,-2.306 -5.676,-7.55 -6.462,-7.58 -0.157,-0.006 -1.066,-0.726 -2.02,-1.6 -0.954,-0.874 -1.989,-1.589 -2.3,-1.589 -0.311,0 -0.566,-0.143 -0.566,-0.317 0,-0.32 -4.684,-1.944 -8.862,-3.072 -3.254,-0.879 -9.672,-0.803 -13.043,0.154 -6.511,1.85 -8.121,2.625 -11.708,5.635 -6.582,5.523 -8.356,7.958 -10.639,14.6 -4.364,12.697 0.209,27.725 10.652,35.003 1.771,1.234 2.209,1.582 3.428,2.723 0.544,0.51 1.619,1.029 2.39,1.154 0.771,0.125 1.498,0.384 1.615,0.574 0.118,0.19 0.519,0.347 0.891,0.348 0.372,0.002 1.192,0.272 1.822,0.6 0.63,0.329 1.315,0.598 1.522,0.598 2.366,0 8.332,6.859 8.332,9.579 0,0.196 0.821,2.126 1.825,4.289 1.004,2.162 1.988,4.292 2.188,4.732 0.199,0.44 1.103,3.05 2.01,5.8 0.907,2.75 2.002,5.81 2.434,6.8 0.433,0.99 0.94,2.16 1.128,2.6 0.188,0.44 0.828,2.42 1.421,4.4 0.594,1.98 1.532,4.68 2.085,6 0.553,1.32 1.232,2.94 1.508,3.6 0.837,1.994 1.748,4.707 2.152,6.4 0.681,2.858 2.05,7.411 2.44,8.114 0.83,1.495 1.987,4.449 3.012,7.686 1.106,3.493 1.177,3.683 2.575,6.878 0.452,1.033 0.822,1.973 0.822,2.088 0,0.116 0.45,1.194 1,2.397 0.55,1.202 1,2.38 1,2.617 0,0.237 0.169,0.743 0.375,1.125 0.206,0.382 0.834,2.187 1.397,4.01 0.562,1.824 1.627,4.794 2.366,6.6 1.477,3.608 1.49,3.649 2.873,9.032 0.53,2.061 1.318,4.491 1.752,5.4 0.433,0.909 1.344,3.093 2.025,4.853 0.68,1.76 1.402,3.56 1.605,4 0.203,0.44 0.543,1.43 0.755,2.2 1.038,3.766 1.99,5.895 5.879,13.149 2.493,4.649 11.337,5.105 31.373,1.618 2.813,-0.49 8.536,-1.035 18.6,-1.773 4.4,-0.323 9.8,-0.763 12,-0.979 14.147,-1.389 81.57,-1.545 97.2,-0.225 3.74,0.315 9.32,0.761 12.4,0.99 13.179,0.979 19.231,1.588 24.6,2.475 13.778,2.275 16.582,0.815 21.996,-11.455 0.194,-0.44 0.895,-2.006 1.557,-3.481 0.662,-1.475 1.328,-3.345 1.48,-4.156 0.153,-0.812 0.612,-2.393 1.022,-3.514 0.41,-1.121 0.745,-2.275 0.745,-2.565 0,-0.29 0.332,-1.283 0.738,-2.206 1.027,-2.333 2.22,-5.578 3.264,-8.878 0.488,-1.54 1.047,-2.971 1.242,-3.18 0.196,-0.209 0.356,-0.626 0.356,-0.926 0,-0.3 0.45,-1.529 1,-2.731 0.55,-1.203 1,-2.281 1,-2.397 0,-0.115 0.37,-1.055 0.822,-2.088 0.452,-1.033 0.978,-2.238 1.169,-2.678 0.191,-0.44 0.462,-1.328 0.604,-1.973 0.141,-0.645 0.605,-1.894 1.031,-2.775 0.426,-0.881 0.774,-1.774 0.774,-1.983 0,-0.21 0.343,-1.121 0.761,-2.025 1.174,-2.535 2.439,-5.893 2.439,-6.474 0,-0.535 2.524,-8.521 3.15,-9.97 0.191,-0.44 0.815,-1.79 1.388,-3 0.572,-1.21 1.673,-4.161 2.446,-6.559 0.774,-2.397 1.735,-4.917 2.138,-5.6 0.402,-0.682 1.322,-3.131 2.045,-5.441 2.459,-7.86 2.484,-7.927 4.755,-12.8 0.871,-1.87 1.901,-4.48 2.287,-5.8 1.65,-5.639 1.979,-6.567 3.476,-9.8 2.251,-4.861 2.862,-6.104 3.315,-6.742 0.909,-1.282 3.867,-4.033 4.896,-4.553 0.607,-0.307 1.464,-0.765 1.904,-1.017 1.09,-0.627 4.487,-2.088 4.852,-2.088 0.163,0 0.668,-0.334 1.122,-0.742 0.454,-0.408 1.563,-1.173 2.463,-1.7 3.507,-2.052 6.401,-4.676 8.033,-7.282 0.577,-0.922 1.16,-1.766 1.295,-1.876 0.637,-0.52 3.824,-7.607 4.138,-9.2 1.777,-9.031 0.206,-17.748 -4.342,-24.101 -0.749,-1.045 -1.361,-1.984 -1.361,-2.085 0,-0.348 -3.404,-3.633 -5.2,-5.018 -0.99,-0.763 -2.203,-1.752 -2.695,-2.198 -1.482,-1.343 -5.664,-3.306 -9.813,-4.606 -4.877,-1.529 -15.395,-0.552 -17.672,1.642 -0.209,0.201 -0.632,0.366 -0.94,0.366 -4.313,0 -16.88,13.472 -16.88,18.096 0,0.299 -0.155,0.715 -0.345,0.924 -1.91,2.104 -1.996,15.304 -0.123,18.866 3.358,6.384 3.274,14.966 -0.18,18.419 -0.304,0.304 -0.552,0.674 -0.552,0.824 0,0.149 -0.675,1.015 -1.5,1.923 -0.825,0.908 -2.04,2.322 -2.7,3.142 -0.66,0.82 -1.68,1.967 -2.266,2.549 -0.587,0.581 -1.528,1.752 -2.093,2.602 -0.564,0.849 -1.842,2.469 -2.84,3.6 -0.998,1.13 -1.948,2.235 -2.111,2.455 -1.394,1.876 -3.093,3.914 -4.551,5.457 -1.925,2.037 -4.795,5.293 -6.819,7.736 -2.938,3.547 -10.965,11.807 -11.474,11.807 -0.177,0 -0.822,0.43 -1.433,0.955 -0.936,0.804 -4.825,1.824 -5.206,1.365 -0.055,-0.066 -0.58,-0.892 -1.168,-1.836 -1.019,-1.636 -1.366,-2.819 -2.221,-7.59 -0.208,-1.158 -0.504,-2.31 -0.658,-2.559 -0.154,-0.249 -0.711,-2.181 -1.238,-4.294 -0.929,-3.724 -1.455,-6.497 -2.74,-14.441 -0.338,-2.09 -0.787,-4.79 -0.997,-6 -0.211,-1.21 -0.653,-3.91 -0.983,-6 -0.636,-4.026 -1.361,-8.303 -2.408,-14.2 -1.196,-6.734 -1.385,-7.998 -1.974,-13.2 -0.547,-4.828 -1.293,-9.432 -2.234,-13.8 -1.896,-8.793 -0.278,-12.867 7.149,-18.01 2.632,-1.822 6.147,-5.112 7.865,-7.361 0.66,-0.864 1.387,-1.764 1.615,-2 6.876,-7.112 6.202,-32.483 -1.036,-39.029 -0.122,-0.11 -0.752,-0.917 -1.4,-1.794 -0.649,-0.877 -1.717,-2.047 -2.375,-2.6 -0.657,-0.553 -1.711,-1.526 -2.342,-2.163 -0.63,-0.636 -2.702,-1.96 -4.604,-2.943 -1.902,-0.983 -3.638,-1.922 -3.858,-2.087 -3.883,-2.913 -19.233,-2.527 -24.6,0.618 -0.77,0.451 -2.12,1.168 -3,1.594 -0.88,0.426 -1.69,0.886 -1.8,1.021 -0.11,0.135 -0.56,0.377 -1,0.536 -0.44,0.16 -2.06,1.719 -3.6,3.464 -1.54,1.746 -3.115,3.48 -3.5,3.853 -0.385,0.373 -0.7,0.838 -0.7,1.032 0,0.304 -0.583,1.117 -2.406,3.352 -0.217,0.266 -0.394,0.592 -0.394,0.725 0,0.133 -0.444,1.18 -0.987,2.327 -1.55,3.278 -2.213,7.288 -2.213,13.391 0,9.335 1.418,13.645 7.518,22.854 4.553,6.873 4.879,12.263 1.25,20.62 -0.743,1.712 -2.768,8.25 -2.768,8.939 0,0.4 -0.113,0.841 -0.252,0.979 -0.138,0.139 -0.962,2.284 -1.83,4.767 -0.869,2.483 -2.106,6.014 -2.749,7.846 -0.643,1.832 -1.169,3.587 -1.169,3.899 0,0.715 -2.801,9.102 -3.998,11.97 -0.343,0.822 -0.862,2.745 -1.781,6.6 -0.587,2.464 -3.211,10.566 -3.821,11.8 -0.613,1.241 -2.795,8.318 -2.798,9.076 -0.001,0.372 -0.182,0.788 -0.402,0.924 -0.22,0.136 -0.4,0.524 -0.4,0.863 0,0.614 -1.159,3.357 -1.579,3.737 -0.122,0.11 -0.645,1.044 -1.164,2.076 -1.482,2.948 -4.368,5.524 -6.19,5.524 -0.566,0 -3.467,-4.247 -3.467,-5.077 0,-0.205 -0.336,-0.732 -0.746,-1.172 -0.41,-0.441 -1.026,-1.42 -1.37,-2.176 -1.894,-4.17 -2.642,-6.067 -3.463,-8.775 -0.5,-1.65 -1.069,-3.313 -1.265,-3.695 -0.196,-0.382 -0.356,-0.894 -0.356,-1.139 0,-0.434 -0.898,-2.666 -1.633,-4.06 -0.202,-0.382 -0.801,-2.362 -1.331,-4.4 -1.078,-4.142 -2.447,-8.253 -3.279,-9.849 -0.304,-0.581 -0.553,-1.284 -0.555,-1.562 -0.001,-0.278 -0.17,-0.818 -0.376,-1.2 -0.325,-0.605 -2.268,-6.773 -3.244,-10.295 -0.182,-0.66 -0.814,-2.64 -1.404,-4.4 -3.044,-9.093 -3.812,-11.434 -4.593,-14 -0.468,-1.54 -1.085,-3.34 -1.37,-4 -4.539,-10.519 -4.283,-17.289 0.864,-22.8 0.617,-0.66 1.613,-1.859 2.215,-2.665 0.602,-0.806 1.33,-1.706 1.618,-2 0.851,-0.868 2.979,-5.546 3.701,-8.135 0.368,-1.32 0.876,-2.94 1.128,-3.6 1.6,-4.182 -0.327,-19.174 -3.196,-24.866 -1.094,-2.17 -8.407,-10.155 -10.145,-11.078 -2.961,-1.572 -5.848,-3.178 -6.2,-3.45 -1.728,-1.335 -13.258,-2.506 -17.4,-1.766 m 117.4,3.43 c 7.337,2.233 7.161,2.132 13.753,7.859 3.086,2.681 2.992,2.564 5.863,7.3 0.228,0.377 0.617,0.93 0.864,1.228 3.534,4.272 2.288,26.211 -1.716,30.215 -0.48,0.48 -1.117,1.425 -1.416,2.1 -0.299,0.676 -0.672,1.228 -0.829,1.228 -0.158,0 -0.976,0.675 -1.818,1.5 -0.842,0.825 -2.306,2.113 -3.252,2.862 -10.179,8.057 -12.48,12.514 -10.859,21.038 0.613,3.223 1.447,8.301 2.201,13.4 0.61,4.126 0.888,5.61 1.725,9.2 0.792,3.397 1.233,6.204 1.477,9.4 0.135,1.76 0.428,4.19 0.651,5.4 0.848,4.593 1.636,8.236 1.992,9.2 0.406,1.101 0.966,4.961 1.566,10.8 0.843,8.201 4.34,22.159 6.262,24.989 0.295,0.434 0.536,1.084 0.536,1.444 0,0.36 0.735,1.489 1.633,2.51 1.884,2.14 3.207,2.222 6.865,0.424 2.56,-1.257 6.688,-5.061 12.413,-11.438 1.052,-1.171 3.514,-3.839 5.472,-5.929 4.75,-5.071 8.017,-8.829 8.017,-9.222 0,-0.176 0.238,-0.559 0.528,-0.849 0.29,-0.291 1.387,-1.699 2.437,-3.129 1.05,-1.43 3.208,-3.964 4.796,-5.63 1.588,-1.667 3.305,-3.706 3.815,-4.531 0.51,-0.826 1.534,-2.09 2.276,-2.81 0.741,-0.721 1.348,-1.452 1.348,-1.625 0,-0.173 0.735,-1.848 1.633,-3.721 2.11,-4.399 2.145,-6.505 0.184,-11.083 -1.316,-3.071 -2.617,-10.392 -2.617,-14.721 0,-3.81 1.881,-12.269 2.732,-12.284 0.147,-0.002 0.612,-0.722 1.032,-1.6 0.421,-0.877 0.873,-1.595 1.006,-1.595 0.133,0 0.686,-0.72 1.23,-1.6 0.544,-0.88 1.125,-1.6 1.291,-1.6 0.167,0 0.799,-0.557 1.406,-1.239 1.439,-1.616 4.901,-3.948 8.903,-5.996 4.23,-2.165 18.271,-2.065 20.593,0.147 0.282,0.268 2.159,1.658 4.17,3.088 2.012,1.43 4.373,3.14 5.246,3.8 1.46,1.103 3.375,3.994 4.437,6.7 0.238,0.605 0.595,1.1 0.793,1.1 0.199,0 0.361,0.324 0.361,0.72 0,0.396 0.152,0.891 0.337,1.1 0.453,0.512 1.574,5.104 1.85,7.58 0.211,1.893 -0.11,5.275 -0.901,9.484 -0.413,2.195 -4.662,10.773 -6.004,12.121 -1.376,1.382 -12.016,8.239 -13.882,8.947 -2.483,0.942 -4.219,2.03 -5.597,3.51 -2.417,2.596 -7.403,12.76 -7.403,15.092 0,0.29 -0.45,1.373 -1,2.408 -0.55,1.034 -1,2.069 -1,2.299 0,0.437 -0.541,1.71 -2.454,5.771 -0.63,1.337 -1.146,2.644 -1.146,2.905 0,0.261 -0.162,0.786 -0.361,1.168 -0.199,0.382 -0.547,1.415 -0.775,2.295 -0.652,2.518 -1.479,4.943 -2.866,8.4 -0.705,1.76 -1.423,3.56 -1.594,4 -0.17,0.44 -1.054,2.457 -1.964,4.483 -0.909,2.025 -1.765,4.275 -1.903,5 -0.137,0.724 -0.381,1.497 -0.542,1.717 -0.567,0.777 -3.179,9.004 -3.801,11.971 -0.135,0.644 -0.8,2.354 -1.478,3.8 -0.678,1.446 -1.642,3.913 -2.142,5.483 -0.5,1.569 -1.089,3.189 -1.309,3.6 -1.908,3.557 -3.595,7.82 -5.917,14.946 -0.753,2.31 -1.613,4.74 -1.912,5.4 -0.894,1.97 -2.141,5.859 -2.597,8.091 -0.235,1.151 -0.776,2.861 -1.203,3.8 -1.911,4.211 -2.836,6.35 -2.836,6.56 0,0.126 -0.257,0.795 -0.572,1.489 -0.314,0.693 -1.14,2.7 -1.834,4.46 -1.873,4.747 -1.877,4.751 -4.327,6.332 -1.525,0.985 -2.79,1.487 -3.867,1.535 -2.833,0.125 -7.145,-0.1 -9.2,-0.48 -3.696,-0.683 -9.946,-1.237 -17.8,-1.578 -13.063,-0.567 -22.526,-1.242 -24,-1.713 -1.921,-0.614 -77.529,-0.906 -82.6,-0.319 -5.64,0.653 -18.018,1.578 -27,2.017 -7.869,0.385 -12.387,0.831 -22.4,2.213 -6.848,0.945 -14.171,1.174 -16.648,0.52 C 96.178,291.806 92,288.812 92,287.918 c 0,-0.386 -1.681,-4.397 -3.402,-8.118 -0.509,-1.1 -1.055,-2.72 -1.214,-3.6 -0.159,-0.88 -0.412,-1.78 -0.564,-2 -0.152,-0.22 -0.523,-1.21 -0.825,-2.2 -0.301,-0.99 -0.874,-2.427 -1.272,-3.194 C 84.326,268.039 84,267.13 84,266.786 c 0,-0.344 -0.151,-0.797 -0.336,-1.006 -0.185,-0.209 -0.573,-1.01 -0.863,-1.78 -0.29,-0.77 -0.854,-2.145 -1.254,-3.055 -0.399,-0.91 -0.934,-2.53 -1.189,-3.6 -0.76,-3.192 -1.616,-6.292 -1.972,-7.145 -0.184,-0.44 -0.706,-1.678 -1.16,-2.751 -0.454,-1.073 -0.826,-2.2 -0.826,-2.505 0,-0.305 -0.159,-0.867 -0.354,-1.249 -0.194,-0.382 -0.841,-2.225 -1.436,-4.095 -0.596,-1.87 -1.427,-4.155 -1.846,-5.078 -0.42,-0.923 -0.764,-1.863 -0.764,-2.088 0,-0.225 -0.319,-1 -0.709,-1.722 -0.896,-1.655 -2.21,-4.982 -3.247,-8.216 -0.442,-1.376 -1.06,-2.996 -1.374,-3.6 -1.337,-2.568 -2.27,-4.833 -2.27,-5.511 0,-0.401 -0.17,-1.281 -0.378,-1.957 -0.208,-0.675 -0.67,-2.308 -1.027,-3.628 -0.357,-1.32 -1.061,-3.48 -1.563,-4.8 -0.503,-1.32 -1.245,-3.48 -1.65,-4.8 -0.405,-1.32 -1.139,-3.3 -1.631,-4.4 -0.493,-1.1 -1.469,-3.701 -2.169,-5.78 -0.7,-2.079 -1.703,-4.461 -2.228,-5.292 -0.524,-0.832 -0.954,-1.765 -0.954,-2.074 0,-0.711 -1.155,-4.627 -1.637,-5.549 -0.2,-0.382 -0.363,-0.906 -0.363,-1.166 0,-0.641 -4.723,-10.244 -5.176,-10.524 -0.2,-0.124 -0.481,-0.766 -0.627,-1.427 -0.408,-1.861 -4.028,-5.352 -6.397,-6.169 -1.1,-0.379 -2.36,-0.887 -2.8,-1.127 -2.457,-1.343 -5.253,-2.683 -5.607,-2.687 -0.224,-0.003 -1.237,-0.68 -2.251,-1.505 -1.014,-0.825 -2.268,-1.77 -2.788,-2.1 -9.917,-6.295 -12.804,-26.356 -5.385,-37.419 1.007,-1.501 1.831,-2.864 1.831,-3.028 0,-0.165 0.328,-0.403 0.729,-0.531 0.402,-0.127 1.077,-0.547 1.5,-0.933 0.424,-0.385 1.671,-1.418 2.771,-2.295 1.1,-0.877 2.09,-1.711 2.2,-1.853 1.804,-2.337 11.656,-4.327 17.662,-3.567 7.453,0.942 9.091,1.421 11.599,3.392 0.583,0.459 1.573,1.226 2.2,1.705 0.626,0.479 1.499,1.208 1.939,1.62 0.44,0.412 1.374,1.087 2.075,1.5 0.7,0.413 1.372,1.142 1.492,1.619 0.119,0.477 0.846,1.91 1.613,3.185 2.391,3.97 2.82,5.979 2.82,13.205 0,6.322 -0.893,12.2 -1.854,12.2 -0.19,0 -0.346,0.288 -0.346,0.64 0,0.351 -0.252,1.206 -0.56,1.9 -2.356,5.298 -1.959,9.175 1.49,14.545 1.682,2.618 2.358,3.449 6.27,7.704 0.99,1.077 2.79,3.074 4,4.438 1.21,1.365 2.563,2.873 3.008,3.353 0.444,0.479 1.422,1.67 2.173,2.646 0.752,0.976 2.038,2.441 2.859,3.256 0.821,0.816 2.002,2.166 2.624,3 0.622,0.835 1.358,1.662 1.634,1.838 0.277,0.176 1.111,1.256 1.853,2.4 1.591,2.451 5.063,6.104 6.121,6.439 0.409,0.13 1.083,0.867 1.499,1.639 0.415,0.771 0.877,1.402 1.025,1.402 0.149,0 0.796,0.571 1.437,1.268 2.839,3.087 5.732,5.779 6.804,6.332 0.64,0.33 2.173,1.161 3.407,1.847 l 2.244,1.246 2.061,-0.979 c 3.686,-1.752 7.666,-10.096 8.64,-18.114 0.396,-3.26 1.369,-7.955 2.073,-10 0.34,-0.99 0.857,-3.06 1.147,-4.6 1.094,-5.79 1.802,-9.279 2.395,-11.8 0.727,-3.085 1.237,-5.981 2.01,-11.4 0.73,-5.121 1.063,-6.656 2.085,-9.6 0.877,-2.526 1.887,-7.302 2.327,-11 0.144,-1.21 0.7,-4.09 1.234,-6.4 0.535,-2.31 1.145,-4.955 1.356,-5.877 1.409,-6.155 -2.728,-13.656 -9.191,-16.666 -2.692,-1.253 -8.689,-7.987 -10.738,-12.057 -7.33,-14.558 -3.462,-31.596 9.313,-41.024 1.32,-0.974 2.493,-1.896 2.607,-2.048 0.268,-0.356 5.749,-2.167 9.557,-3.157 3.1,-0.806 8.144,-1.023 9.717,-0.417 0.506,0.194 2.269,0.753 3.919,1.242 1.65,0.488 3.567,1.139 4.26,1.446 0.694,0.307 1.374,0.558 1.512,0.558 0.267,0 2.322,1.844 5.366,4.818 1.024,1 2.23,2.08 2.68,2.4 0.45,0.32 1.23,1.257 1.733,2.082 0.503,0.825 1.231,1.725 1.618,2 2.582,1.833 4.173,18.317 2.481,25.7 -1.121,4.894 -1.309,5.459 -2.057,6.207 -0.421,0.421 -1.244,1.537 -1.828,2.479 -0.584,0.943 -1.456,2.074 -1.939,2.514 -2.359,2.152 -4.995,6.48 -5.725,9.4 -0.762,3.05 0.489,12.868 2.116,16.6 0.288,0.66 0.739,2.058 1.002,3.107 0.264,1.049 0.637,2.004 0.83,2.123 0.193,0.12 0.352,0.522 0.353,0.894 0.002,0.372 0.238,1.126 0.525,1.676 0.561,1.077 1.521,3.908 2.306,6.8 0.269,0.99 1.124,3.15 1.901,4.8 0.777,1.65 1.658,4.17 1.959,5.6 1.077,5.116 1.281,5.972 1.925,8.072 0.644,2.097 1.184,3.538 1.778,4.741 0.166,0.337 0.438,1.231 0.604,1.987 0.166,0.756 0.453,1.65 0.637,1.987 0.782,1.43 1.879,4.353 2.333,6.213 0.734,3.01 1.719,6.325 2.079,7 0.866,1.619 2.351,5.291 2.351,5.81 0,3.673 6.096,14.684 9.991,18.05 l 0.995,0.859 2.187,-0.818 c 3.4,-1.272 6.769,-5.902 8.884,-12.207 0.644,-1.922 1.333,-3.854 1.53,-4.294 1.076,-2.398 1.665,-3.979 2.834,-7.6 0.709,-2.2 1.423,-4.277 1.585,-4.615 0.162,-0.339 0.422,-1.419 0.578,-2.4 0.156,-0.982 0.435,-2.415 0.621,-3.185 0.186,-0.77 0.561,-2.48 0.833,-3.8 0.272,-1.32 0.716,-2.67 0.988,-3 0.985,-1.196 2.033,-4.239 2.975,-8.635 0.193,-0.9 0.812,-2.643 1.375,-3.875 0.563,-1.231 1.024,-2.484 1.024,-2.784 0,-0.3 0.155,-0.717 0.345,-0.926 0.189,-0.209 0.535,-1.1 0.767,-1.98 0.233,-0.88 0.902,-2.928 1.487,-4.551 0.923,-2.561 1.733,-5.604 2.461,-9.249 0.223,-1.113 0.37,-1.481 2.078,-5.2 1.167,-2.54 1.842,-5.156 2.477,-9.6 0.173,-1.21 0.445,-2.976 0.606,-3.924 0.166,-0.986 0.107,-2.357 -0.137,-3.2 -0.236,-0.812 -0.721,-2.491 -1.079,-3.732 -0.361,-1.25 -1.533,-3.506 -2.628,-5.061 C 228.89,88.94 228,87.562 228,87.422 c 0,-0.14 -0.55,-1.463 -1.221,-2.939 -0.672,-1.476 -1.373,-3.043 -1.559,-3.483 -2.723,-6.442 -2.415,-18.538 0.63,-24.733 0.522,-1.063 0.95,-2.094 0.95,-2.292 0,-1.621 4.885,-7.237 9.025,-10.375 1.306,-0.99 2.435,-1.935 2.508,-2.1 0.074,-0.165 0.316,-0.3 0.54,-0.3 0.223,0 0.973,-0.25 1.667,-0.554 1.801,-0.793 5.756,-2.102 7.86,-2.603 4.14,-0.986 5.855,-0.861 11.4,0.827 M 150.2,322.411 c -6.806,0.393 -15.91,1.209 -16.32,1.463 -0.191,0.118 -1.997,0.466 -4.013,0.772 -2.017,0.307 -4.567,0.735 -5.667,0.951 -2.22,0.435 -9.857,1.345 -18.4,2.191 -6.943,0.688 -14.68,1.696 -16.8,2.188 -3.646,0.846 -4.912,1.226 -6.026,1.807 -0.646,0.337 -1.354,0.616 -1.574,0.62 -2.436,0.048 -9.56,8.951 -12,14.997 -1.029,2.55 -1.478,4.039 -2.656,8.8 -2.777,11.227 -2.623,28.211 0.287,31.597 0.533,0.62 0.969,1.275 0.969,1.455 0,0.779 2.597,1.542 6.644,1.952 6.114,0.62 248.381,0.337 250.953,-0.292 5.502,-1.347 6.984,-11.7 4.424,-30.912 -0.497,-3.733 -1.833,-9.119 -2.827,-11.4 -0.192,-0.44 -0.804,-1.83 -1.361,-3.089 -0.557,-1.259 -1.118,-2.712 -1.248,-3.227 -0.338,-1.349 -5.266,-7.214 -7.385,-8.791 -4.752,-3.536 -9.267,-4.574 -30,-6.9 -2.97,-0.333 -6.21,-0.785 -7.2,-1.004 -0.99,-0.219 -3.488,-0.67 -5.551,-1.002 -2.064,-0.332 -3.954,-0.729 -4.2,-0.883 -0.247,-0.154 -6.929,-0.414 -14.849,-0.578 -7.92,-0.164 -17.46,-0.474 -21.2,-0.69 -7.597,-0.437 -76.504,-0.458 -84,-0.025 m 88.6,3.137 c 2.97,0.243 11.275,0.601 18.455,0.795 7.18,0.195 13.228,0.461 13.441,0.593 0.212,0.131 1.718,0.435 3.345,0.676 1.628,0.241 3.499,0.6 4.159,0.799 0.66,0.198 3.45,0.556 6.2,0.795 17.568,1.525 20.717,1.986 24.6,3.598 0.44,0.182 2.084,0.804 3.653,1.381 2.009,0.739 3.134,1.421 3.8,2.304 0.521,0.689 1.532,1.897 2.248,2.682 0.715,0.786 1.403,1.744 1.527,2.129 0.124,0.385 0.371,0.7 0.549,0.7 0.419,0 3.623,6.49 3.623,7.338 0,0.572 0.63,2.485 1.601,4.862 1.591,3.891 2.399,10.834 2.399,20.603 0,10.651 -0.809,11.97 -8.208,13.386 -5.102,0.976 -240.575,0.922 -244.51,-0.056 -6.616,-1.645 -7.434,-3.215 -7.611,-14.613 -0.169,-10.884 1.182,-19.651 3.531,-22.92 0.158,-0.22 0.412,-0.94 0.564,-1.6 1.475,-6.408 8.058,-13.914 13.139,-14.982 0.932,-0.196 3.495,-0.839 5.695,-1.429 4.562,-1.223 6.636,-1.539 14.2,-2.161 16.095,-1.323 17.971,-1.53 23.8,-2.625 3.465,-0.65 10.949,-1.517 19.198,-2.221 2.859,-0.245 5.28,-0.526 5.379,-0.626 0.389,-0.389 79.992,0.164 85.223,0.592"
     stroke="none"
     fill="#646464"
     fill-rule="evenodd" />
</svg>
