<?xml version="1.0" encoding="UTF-8" standalone="no"?>
<svg
   id="svg"
   version="1.1"
   width="400"
   height="501.2658227848101"
   viewBox="0, 0, 400,501.2658227848101"
   sodipodi:docname="br.svg"
   inkscape:version="1.1.2 (0a00cf5339, 2022-02-04)"
   xmlns:inkscape="http://www.inkscape.org/namespaces/inkscape"
   xmlns:sodipodi="http://sodipodi.sourceforge.net/DTD/sodipodi-0.dtd"
   xmlns="http://www.w3.org/2000/svg"
   xmlns:svg="http://www.w3.org/2000/svg">
  <defs
     id="defs2569" />
  <sodipodi:namedview
     id="namedview2567"
     pagecolor="#ffffff"
     bordercolor="#cccccc"
     borderopacity="1"
     inkscape:pageshadow="0"
     inkscape:pageopacity="1"
     inkscape:pagecheckerboard="0"
     showgrid="false"
     inkscape:zoom="1.0734988"
     inkscape:cx="205.86888"
     inkscape:cy="322.77632"
     inkscape:window-width="1680"
     inkscape:window-height="1014"
     inkscape:window-x="1920"
     inkscape:window-y="0"
     inkscape:window-maximized="1"
     inkscape:current-layer="svg" />
  <path
     id="path0"
     d="m 188.4,42.983 c -6.774,0.853 -14.8,5.623 -14.8,8.796 0,0.341 -0.158,0.621 -0.351,0.621 -0.194,0 -0.572,0.585 -0.84,1.3 -0.268,0.715 -0.932,2.226 -1.474,3.357 -1.137,2.371 -2.102,7.266 -2.118,10.743 -0.026,5.889 -2.148,21.18 -3.64,26.228 -0.427,1.446 -0.777,3.017 -0.777,3.492 0,1.217 -1.962,6.952 -2.638,7.711 -0.309,0.348 -0.562,0.843 -0.562,1.1 0,0.258 -0.143,0.469 -0.318,0.469 -0.175,0 -0.97,0.855 -1.767,1.9 -3.716,4.872 -13.176,6.245 -28.715,4.167 -4.476,-0.599 -9.272,-4.423 -11.872,-9.467 -1.747,-3.387 -4.139,-10.146 -4.132,-11.671 0.002,-0.48 -0.226,-1.11 -0.508,-1.4 -1.108,-1.144 -2.967,-5.589 -4.319,-10.329 -0.282,-0.99 -0.627,-1.98 -0.766,-2.2 -0.14,-0.22 -1.021,-2.2 -1.959,-4.4 C 104.152,67.083 101.532,62.02 99.49,59.185 98.572,57.911 87.664,57.77 84.4,58.99 c -0.99,0.37 -2.43,0.811 -3.2,0.98 -1.882,0.413 -4.732,1.421 -6.2,2.194 -0.66,0.347 -1.581,0.632 -2.046,0.634 -0.465,10e-4 -1.304,0.362 -1.863,0.802 -0.56,0.44 -1.27,0.8 -1.579,0.8 -0.308,0 -0.911,0.315 -1.339,0.7 -0.428,0.385 -1.586,1.132 -2.575,1.661 -3.111,1.663 -2.917,0.972 -2.702,9.629 0.117,4.667 0.387,8.288 0.673,8.999 0.92,2.285 2.049,10.066 2.44,16.811 0.217,3.74 0.58,8.96 0.806,11.6 0.226,2.64 0.582,7.02 0.791,9.732 0.494,6.409 0.744,7.349 3.782,14.268 1.023,2.331 2.212,5.622 2.212,6.124 0,0.28 0.36,0.896 0.8,1.368 0.44,0.472 0.802,1.14 0.805,1.483 0.003,0.344 0.633,2.063 1.4,3.821 0.767,1.758 1.395,3.345 1.395,3.527 0,0.182 0.811,1.354 1.803,2.604 0.992,1.25 1.946,2.453 2.12,2.673 0.175,0.22 0.438,0.715 0.585,1.1 0.147,0.385 0.44,0.7 0.652,0.7 0.213,0 0.5,0.36 0.64,0.8 0.14,0.44 0.431,0.8 0.647,0.8 0.216,0 1.041,0.63 1.834,1.4 0.793,0.77 2.629,1.96 4.08,2.645 1.452,0.684 2.729,1.368 2.839,1.519 0.47,0.646 5.423,1.636 8.183,1.636 2.857,0 4.312,-0.226 13.017,-2.018 4.792,-0.987 12.393,-1.875 18.6,-2.174 5.116,-0.246 13.939,-1.327 19.2,-2.352 5.007,-0.976 11.106,-1.727 24.8,-3.053 4.62,-0.447 9.84,-1.02 11.6,-1.272 3.893,-0.559 10.668,-0.541 15.34,0.04 7.266,0.904 16.545,1.692 23.879,2.027 8.463,0.387 15.936,1.258 20.781,2.421 5.244,1.259 11.52,2.015 20,2.41 11.72,0.545 24.72,2.209 26.669,3.413 3.529,2.181 19.616,1.106 22.557,-1.508 0.454,-0.404 1.017,-0.734 1.251,-0.734 0.234,0 0.649,-0.27 0.923,-0.6 0.274,-0.33 0.791,-0.607 1.149,-0.616 0.358,-0.009 1.461,-1.082 2.451,-2.384 0.99,-1.302 1.951,-2.375 2.136,-2.384 0.477,-0.023 1.773,-1.605 2.47,-3.016 0.607,-1.229 0.828,-1.577 3.599,-5.644 0.883,-1.296 2.225,-3.571 2.982,-5.056 0.757,-1.485 1.512,-2.7 1.677,-2.7 0.165,0 0.415,-0.675 0.556,-1.5 0.227,-1.33 1.142,-4.227 2.854,-9.037 0.301,-0.846 0.895,-2.219 1.32,-3.052 2.503,-4.905 3.573,-15.797 3.579,-36.411 0.005,-20.879 -1.146,-28.8 -4.186,-28.8 -0.255,0 -0.789,-0.36 -1.187,-0.8 -0.398,-0.44 -0.972,-0.8 -1.275,-0.8 -0.302,0 -0.649,-0.259 -0.771,-0.576 -0.121,-0.316 -0.791,-0.698 -1.487,-0.849 -0.697,-0.151 -1.987,-0.595 -2.867,-0.988 -0.88,-0.392 -2.05,-0.802 -2.6,-0.91 -0.55,-0.108 -1.54,-0.382 -2.2,-0.609 -6.713,-2.311 -15.211,-2.885 -17.2,-1.162 -0.44,0.382 -1.687,1.279 -2.77,1.994 -1.555,1.026 -2.095,1.68 -2.563,3.1 -0.326,0.99 -0.925,2.563 -1.33,3.496 -0.405,0.932 -0.737,1.887 -0.737,2.122 0,0.369 -0.714,2.14 -2.008,4.982 -0.2,0.44 -0.744,1.97 -1.209,3.4 -0.751,2.314 -1.546,4.339 -3.42,8.714 -0.31,0.722 -0.563,1.573 -0.563,1.891 0,1.431 -2.219,7.64 -3.715,10.395 -1.174,2.161 -2.592,5.316 -2.832,6.3 -0.148,0.605 -0.445,1.1 -0.661,1.1 -0.215,0 -0.392,0.227 -0.392,0.504 0,0.278 -0.559,0.953 -1.242,1.5 -0.683,0.548 -1.455,1.196 -1.715,1.44 -2.32,2.175 -10.206,3.723 -19.043,3.739 -8.364,0.015 -15.525,-1.569 -18.031,-3.988 -3.042,-2.937 -5.879,-11.86 -7.564,-23.795 -0.248,-1.76 -0.6,-3.74 -0.782,-4.4 -1.184,-4.299 -2.58,-13.972 -3.213,-22.271 -0.536,-7.025 -1.283,-9.49 -3.52,-11.629 -0.978,-0.935 -2.068,-2.015 -2.423,-2.4 -0.355,-0.385 -0.83,-0.701 -1.056,-0.702 -0.226,-0.002 -0.951,-0.297 -1.611,-0.657 -3.102,-1.692 -29.848,-2.462 -40.2,-1.158 m -30.8,165.829 c -2.09,0.155 -6.95,0.483 -10.8,0.731 -3.85,0.248 -8.17,0.711 -9.6,1.028 -2.623,0.582 -6.86,1.466 -14.2,2.962 -2.2,0.448 -5.35,1.027 -7,1.287 -5.842,0.919 -6.909,1.153 -7.551,1.664 -0.357,0.284 -1.549,0.963 -2.649,1.51 -1.1,0.546 -2.225,1.266 -2.501,1.6 -2.468,2.988 -5.7,14.211 -5.699,19.792 0,0.888 -0.262,3.054 -0.583,4.814 -0.321,1.76 -0.971,5.45 -1.445,8.2 -0.473,2.75 -1.111,5.812 -1.417,6.804 -0.305,0.992 -0.734,3.602 -0.953,5.8 -0.218,2.198 -0.667,5.616 -0.998,7.596 -0.33,1.98 -0.6,4.32 -0.599,5.2 0.003,1.621 -1.194,8.175 -2.228,12.2 -1.523,5.932 -3.087,14.565 -3.767,20.8 -0.156,1.43 -0.583,3.95 -0.947,5.6 -3.18,14.377 -3.073,26.904 0.244,28.679 3.582,1.917 7.65,1.956 14.493,0.14 5.059,-1.342 11.073,-2.092 19.6,-2.444 14.145,-0.583 22.668,-1.193 25.6,-1.83 1.54,-0.334 4.06,-0.762 5.6,-0.95 1.54,-0.187 4.51,-0.578 6.6,-0.868 2.969,-0.412 14.209,-0.527 51.4,-0.527 51.27,0 53.539,0.078 64.4,2.215 4.392,0.864 9.161,1.401 17.4,1.959 6.501,0.44 10.488,1.252 18.913,3.851 3.105,0.958 14.763,1.092 16.457,0.189 3.354,-1.789 3.514,-12.604 0.448,-30.414 -2.711,-15.749 -3.422,-20.744 -3.843,-27 -0.193,-2.86 -0.626,-6.55 -0.962,-8.2 -0.337,-1.65 -0.612,-3.598 -0.613,-4.329 0,-0.731 -0.338,-2.801 -0.752,-4.6 -1.06,-4.614 -1.735,-8.116 -2.057,-10.671 -0.152,-1.21 -0.583,-4 -0.958,-6.2 -0.835,-4.909 -2.042,-12.847 -2.645,-17.4 -1.889,-14.27 -2.184,-15.472 -4.317,-17.567 -1.527,-1.5 -4.377,-3.231 -5.325,-3.235 -0.301,-0.002 -1.056,-0.269 -1.68,-0.595 -1.364,-0.711 -6.279,-1.845 -13.066,-3.016 -2.75,-0.474 -6.44,-1.193 -8.2,-1.599 -7.033,-1.62 -9.907,-2.023 -17.095,-2.395 -4.122,-0.214 -9.522,-0.568 -12,-0.787 -5.083,-0.45 -88.597,-0.444 -94.705,0.006 m 46.8,180.381 c -2.31,0.169 -8.7,0.512 -14.2,0.76 -5.5,0.249 -13.24,0.638 -17.2,0.865 -3.96,0.226 -10.26,0.582 -14,0.789 -6.463,0.359 -12.49,1.113 -16,2.003 -0.88,0.223 -3.58,0.577 -6,0.786 -2.42,0.209 -7.37,0.653 -11,0.987 -3.63,0.334 -8.04,0.608 -9.8,0.609 -3.071,0.002 -11.779,0.978 -19.8,2.219 -6.002,0.929 -16.273,1.801 -25.4,2.157 -7.163,0.28 -10.188,0.615 -16.8,1.863 -0.44,0.083 -1.446,0.74 -2.236,1.46 -0.79,0.72 -2.05,1.66 -2.8,2.089 -0.75,0.43 -1.724,1.215 -2.164,1.746 -0.44,0.531 -1.52,1.755 -2.4,2.72 -2.225,2.441 -2.344,2.591 -3.206,4.054 -0.422,0.715 -0.908,1.3 -1.08,1.3 -0.173,0 -0.314,0.261 -0.314,0.58 0,0.319 -0.247,0.724 -0.548,0.9 -0.614,0.359 -2.252,3.411 -2.252,4.196 0,0.523 -1.264,3.996 -2.229,6.124 -0.641,1.413 -1.681,4.305 -2.157,6 -1.423,5.064 -1.282,29.68 0.183,32 1.534,2.429 2.861,3.279 6.16,3.943 3.911,0.788 318.561,1 322.043,0.217 0.99,-0.222 2.349,-0.529 3.019,-0.682 6.906,-1.574 8.375,-16.165 3.956,-39.287 -0.316,-1.655 -0.575,-3.398 -0.575,-3.873 0,-0.475 -0.72,-2.306 -1.6,-4.07 -0.88,-1.763 -1.6,-3.486 -1.6,-3.827 0,-0.342 -0.156,-0.621 -0.347,-0.621 -0.19,0 -0.73,-0.855 -1.198,-1.9 -0.468,-1.045 -1.202,-2.44 -1.631,-3.1 -0.428,-0.66 -1.284,-2.164 -1.901,-3.343 -0.656,-1.252 -1.954,-2.82 -3.123,-3.773 -1.1,-0.897 -2.22,-1.895 -2.489,-2.219 -0.269,-0.324 -1.259,-0.716 -2.2,-0.872 -0.941,-0.156 -3.241,-0.576 -5.111,-0.934 -1.87,-0.357 -5.65,-1.023 -8.4,-1.479 -2.75,-0.456 -6.35,-1.072 -8,-1.37 -9.069,-1.636 -26.018,-3.278 -41.4,-4.01 -6.16,-0.294 -12.37,-0.718 -13.8,-0.943 -1.43,-0.225 -5.39,-0.696 -8.8,-1.047 -3.41,-0.352 -8.99,-0.989 -12.4,-1.416 -12.847,-1.609 -37.959,-2.426 -49.2,-1.601"
     stroke="none"
     fill="#0a0a0a"
     fill-rule="evenodd"
     style="fill:#0a0a0a;fill-opacity:1" />
  <path
     id="path1"
     d="m 189,37.16 c -1.54,0.155 -3.7,0.582 -4.8,0.949 -1.1,0.368 -3.08,1.019 -4.4,1.449 -3.143,1.023 -5.389,2.054 -6.63,3.042 -1.502,1.195 -4.37,4.974 -4.37,5.756 0,0.376 -0.164,0.855 -0.364,1.064 -0.492,0.513 -2.436,8.728 -2.436,10.293 0,1.842 -2.659,17.664 -4.049,24.087 -0.428,1.98 -1.069,4.95 -1.424,6.6 -0.355,1.65 -0.979,4.189 -1.386,5.643 -0.408,1.454 -0.741,2.998 -0.741,3.432 0,1.094 -1.629,4.948 -2.618,6.194 -4.044,5.094 -23.285,5.565 -28.658,0.702 -1.058,-0.958 -1.924,-1.939 -1.924,-2.181 0,-0.241 -0.319,-0.788 -0.708,-1.215 -1.621,-1.774 -5.529,-10.607 -6.891,-15.575 -0.668,-2.436 -2.213,-6.463 -4.032,-10.511 -0.423,-0.941 -0.769,-1.971 -0.769,-2.289 0,-0.318 -0.342,-1.348 -0.76,-2.289 -0.418,-0.941 -1.238,-3.241 -1.822,-5.111 -0.584,-1.87 -1.401,-4.03 -1.814,-4.8 -0.414,-0.77 -1.161,-2.21 -1.659,-3.2 -3.856,-7.661 -10.349,-8.961 -23.723,-4.749 -1.307,0.412 -2.735,0.749 -3.171,0.749 -0.76,0 -3.14,0.648 -9.251,2.518 -1.54,0.472 -3.278,1.178 -3.862,1.57 C 66.154,59.679 65.422,60 65.11,60 c -0.914,0 -3.652,2.59 -4.399,4.162 -0.379,0.797 -1.007,2.103 -1.394,2.902 -0.905,1.863 -0.901,7.775 0.011,16.736 0.73,7.178 1.365,15.986 1.86,25.8 0.377,7.473 1.375,15.935 2.264,19.2 0.329,1.21 0.687,2.65 0.794,3.2 0.239,1.229 1.633,5.862 2.621,8.715 0.403,1.163 0.733,2.387 0.733,2.719 0,0.512 2.442,5.755 3.896,8.366 0.245,0.44 0.545,1.07 0.666,1.4 0.122,0.33 0.676,1.32 1.232,2.2 0.556,0.88 1.283,2.14 1.615,2.8 0.914,1.819 1.475,2.609 2.814,3.963 0.673,0.68 2.113,2.369 3.2,3.753 2.348,2.987 7.342,6.581 12.135,8.734 3.076,1.381 13.475,1.046 20.442,-0.658 7.3,-1.785 13.853,-3.036 17.8,-3.396 1.32,-0.121 5.775,-0.574 9.9,-1.008 25.114,-2.639 23.039,-2.386 35.7,-4.348 14.179,-2.197 22.073,-2.206 38.8,-0.045 6.564,0.848 13.375,1.503 20.8,2.001 5.19,0.348 12.173,1.178 20.4,2.426 2.86,0.434 5.92,0.783 6.8,0.777 2.292,-0.016 15.485,1.552 18.8,2.235 1.54,0.317 3.266,0.574 3.836,0.571 0.57,-0.003 1.92,0.267 3,0.598 9.918,3.048 26.256,3.121 30.118,0.135 0.525,-0.406 1.133,-0.738 1.353,-0.738 0.63,0 8.069,-7.659 10.365,-10.671 1.144,-1.501 2.225,-2.789 2.404,-2.862 0.178,-0.074 0.324,-0.309 0.324,-0.524 0,-0.429 2.42,-3.663 2.9,-3.876 0.165,-0.074 0.3,-0.406 0.3,-0.739 0,-0.332 0.321,-1.082 0.714,-1.666 0.393,-0.584 1.053,-2.142 1.468,-3.462 0.414,-1.32 1.058,-3.03 1.431,-3.8 3.301,-6.818 5.581,-13.876 7.56,-23.4 0.969,-4.663 1.286,-46.763 0.389,-51.627 -1.17,-6.343 -8.438,-13.781 -13.458,-13.772 -0.387,10e-4 -1.964,-0.343 -3.504,-0.764 -5.707,-1.56 -15.605,-3.249 -18.877,-3.22 -6.584,0.058 -8.536,1.93 -12.918,12.383 -1.209,2.886 -1.993,4.665 -2.996,6.8 -0.515,1.096 -1.723,4.933 -3.023,9.6 -1.385,4.978 -2.013,6.869 -3.251,9.8 -0.65,1.54 -1.328,3.16 -1.506,3.6 -2.873,7.089 -3.207,7.724 -5.229,9.925 -1.785,1.944 -3.189,2.802 -6.287,3.841 -5.496,1.843 -21.849,0.88 -23.74,-1.398 -0.259,-0.312 -0.689,-0.568 -0.955,-0.568 -2.139,0 -5.399,-7.711 -5.425,-12.832 -0.004,-0.753 -0.273,-2.988 -0.598,-4.968 -0.326,-1.98 -0.593,-4.404 -0.593,-5.387 -10e-4,-0.983 -0.342,-3.233 -0.757,-5 -2.171,-9.232 -4.045,-19.172 -4.045,-21.449 0,-0.759 -0.36,-2.679 -0.8,-4.267 -0.44,-1.588 -0.8,-3.329 -0.8,-3.868 0,-0.54 -0.16,-1.081 -0.356,-1.202 -0.195,-0.121 -0.475,-0.716 -0.622,-1.323 -0.387,-1.602 -1.17,-3.304 -1.52,-3.304 -0.166,0 -0.302,-0.236 -0.302,-0.525 0,-0.627 -1.984,-2.16 -4.2,-3.246 -0.88,-0.432 -1.694,-0.919 -1.81,-1.084 C 230.382,37.189 197.788,36.274 189,37.16 m 35,5.792 c 1.87,0.294 3.94,0.829 4.6,1.189 0.66,0.36 1.385,0.655 1.611,0.657 0.226,10e-4 0.701,0.317 1.056,0.702 0.355,0.385 1.445,1.465 2.423,2.4 2.237,2.139 2.984,4.604 3.52,11.629 0.633,8.299 2.029,17.972 3.213,22.271 0.182,0.66 0.534,2.64 0.782,4.4 1.685,11.935 4.522,20.858 7.564,23.795 4.631,4.47 26.182,5.468 34.616,1.602 1.091,-0.5 2.198,-1.109 2.458,-1.353 0.26,-0.244 1.032,-0.892 1.715,-1.44 0.683,-0.547 1.242,-1.222 1.242,-1.5 0,-0.277 0.177,-0.504 0.392,-0.504 0.216,0 0.513,-0.495 0.661,-1.1 0.24,-0.984 1.658,-4.139 2.832,-6.3 1.496,-2.755 3.715,-8.964 3.715,-10.395 0,-0.318 0.253,-1.169 0.563,-1.891 1.874,-4.375 2.669,-6.4 3.42,-8.714 0.465,-1.43 1.009,-2.96 1.209,-3.4 1.294,-2.842 2.008,-4.613 2.008,-4.982 0,-0.235 0.332,-1.19 0.737,-2.122 0.405,-0.933 1.004,-2.506 1.33,-3.496 0.468,-1.42 1.008,-2.074 2.563,-3.1 1.083,-0.715 2.33,-1.612 2.77,-1.994 1.989,-1.723 10.487,-1.149 17.2,1.162 0.66,0.227 1.65,0.501 2.2,0.609 0.55,0.108 1.72,0.518 2.6,0.91 0.88,0.393 2.17,0.837 2.867,0.988 0.696,0.151 1.366,0.533 1.487,0.849 0.122,0.317 0.469,0.576 0.771,0.576 0.303,0 0.877,0.36 1.275,0.8 0.398,0.44 0.932,0.8 1.187,0.8 3.04,0 4.191,7.921 4.186,28.8 -0.006,20.614 -1.076,31.506 -3.579,36.411 -0.425,0.833 -1.019,2.206 -1.32,3.052 -1.712,4.81 -2.627,7.707 -2.854,9.037 -0.141,0.825 -0.391,1.5 -0.556,1.5 -0.165,0 -0.92,1.215 -1.677,2.7 -0.757,1.485 -2.099,3.76 -2.982,5.056 -2.771,4.067 -2.992,4.415 -3.599,5.644 -0.697,1.411 -1.993,2.993 -2.47,3.016 -0.185,0.009 -1.146,1.082 -2.136,2.384 -0.99,1.302 -2.093,2.375 -2.451,2.384 -0.358,0.009 -0.875,0.286 -1.149,0.616 -0.274,0.33 -0.689,0.6 -0.923,0.6 -0.234,0 -0.797,0.33 -1.251,0.734 -2.941,2.614 -19.028,3.689 -22.557,1.508 -1.949,-1.204 -14.949,-2.868 -26.669,-3.413 -8.48,-0.395 -14.756,-1.151 -20,-2.41 -4.845,-1.163 -12.318,-2.034 -20.781,-2.421 -7.334,-0.335 -16.613,-1.123 -23.879,-2.027 -4.672,-0.581 -11.447,-0.599 -15.34,-0.04 -1.76,0.252 -6.98,0.825 -11.6,1.272 -13.694,1.326 -19.793,2.077 -24.8,3.053 -5.261,1.025 -14.084,2.106 -19.2,2.352 -6.207,0.299 -13.808,1.187 -18.6,2.174 -8.705,1.792 -10.16,2.018 -13.017,2.018 -2.76,0 -7.713,-0.99 -8.183,-1.636 -0.11,-0.151 -1.387,-0.835 -2.839,-1.519 -1.451,-0.685 -3.287,-1.875 -4.08,-2.645 -0.793,-0.77 -1.618,-1.4 -1.834,-1.4 -0.216,0 -0.507,-0.36 -0.647,-0.8 -0.14,-0.44 -0.427,-0.8 -0.64,-0.8 -0.212,0 -0.505,-0.315 -0.652,-0.7 -0.147,-0.385 -0.41,-0.88 -0.585,-1.1 -0.174,-0.22 -1.128,-1.423 -2.12,-2.673 -0.992,-1.25 -1.803,-2.422 -1.803,-2.604 0,-0.182 -0.628,-1.769 -1.395,-3.527 -0.767,-1.758 -1.397,-3.477 -1.4,-3.821 -0.003,-0.343 -0.365,-1.011 -0.805,-1.483 -0.44,-0.472 -0.8,-1.088 -0.8,-1.368 0,-0.502 -1.189,-3.793 -2.212,-6.124 -3.038,-6.919 -3.288,-7.859 -3.782,-14.268 -0.209,-2.712 -0.565,-7.092 -0.791,-9.732 -0.226,-2.64 -0.589,-7.86 -0.806,-11.6 -0.391,-6.745 -1.52,-14.526 -2.44,-16.811 -0.286,-0.711 -0.556,-4.332 -0.673,-8.999 -0.215,-8.657 -0.409,-7.966 2.702,-9.629 0.989,-0.529 2.147,-1.276 2.575,-1.661 0.428,-0.385 1.031,-0.7 1.339,-0.7 0.309,0 1.019,-0.36 1.579,-0.8 0.559,-0.44 1.398,-0.801 1.863,-0.802 0.465,-0.002 1.386,-0.287 2.046,-0.634 1.468,-0.773 4.318,-1.781 6.2,-2.194 0.77,-0.169 2.21,-0.61 3.2,-0.98 3.264,-1.22 14.172,-1.079 15.09,0.195 2.042,2.835 4.662,7.898 7.354,14.215 0.938,2.2 1.819,4.18 1.959,4.4 0.139,0.22 0.484,1.21 0.766,2.2 1.352,4.74 3.211,9.185 4.319,10.329 0.282,0.29 0.51,0.92 0.508,1.4 -0.007,1.525 2.385,8.284 4.132,11.671 2.6,5.044 7.396,8.868 11.872,9.467 15.539,2.078 24.999,0.705 28.715,-4.167 0.797,-1.045 1.592,-1.9 1.767,-1.9 0.175,0 0.318,-0.211 0.318,-0.469 0,-0.257 0.253,-0.752 0.562,-1.1 0.676,-0.759 2.638,-6.494 2.638,-7.711 0,-0.475 0.35,-2.046 0.777,-3.492 1.492,-5.048 3.614,-20.339 3.64,-26.228 0.016,-3.477 0.981,-8.372 2.118,-10.743 0.542,-1.131 1.206,-2.642 1.474,-3.357 0.268,-0.715 0.646,-1.3 0.84,-1.3 0.193,0 0.351,-0.28 0.351,-0.621 0,-3.173 8.026,-7.943 14.8,-8.796 5.52,-0.695 31.233,-0.718 35.6,-0.031 m -66.2,160.323 c -5.253,0.326 -7.265,0.611 -19.037,2.702 -2.551,0.452 -5.157,0.823 -5.793,0.823 -0.635,0 -3.408,0.349 -6.162,0.776 -4.897,0.758 -12.015,1.773 -15.608,2.224 -2.887,0.363 -6.806,1.866 -9.324,3.574 -0.831,0.564 -1.644,1.026 -1.805,1.026 -0.804,0 -3.671,4.974 -3.671,6.37 0,0.388 -0.36,1.751 -0.8,3.03 -0.44,1.279 -0.8,2.763 -0.8,3.297 0,0.535 -0.346,2.262 -0.769,3.838 -0.903,3.367 -2.755,14.418 -3.664,21.865 -1.021,8.368 -1.698,12.934 -2.399,16.2 -0.426,1.98 -0.771,3.96 -0.769,4.4 0.007,0.982 -1.372,7.734 -2.409,11.8 -1.29,5.059 -2.39,11.054 -2.398,13.077 -0.004,1.058 -0.183,3.137 -0.398,4.621 -0.215,1.483 -0.563,4.665 -0.774,7.07 -0.4,4.566 -1.11,9.086 -2.485,15.832 -1.386,6.803 -1.508,7.495 -1.978,11.192 -0.523,4.117 -0.201,9.804 0.589,10.408 0.288,0.22 0.605,0.644 0.703,0.942 0.099,0.298 0.893,0.809 1.765,1.136 4.826,1.808 10.982,1.635 32.386,-0.906 3.08,-0.365 7.4,-0.812 9.6,-0.992 2.2,-0.18 5.966,-0.609 8.37,-0.954 2.403,-0.344 5.3,-0.626 6.438,-0.626 1.138,0 4.841,-0.404 8.23,-0.898 6.159,-0.897 6.185,-0.898 63.362,-0.9 l 57.2,-0.002 6.8,0.918 c 3.74,0.505 8.78,1.259 11.2,1.674 16.844,2.891 33.178,4.836 40.456,4.816 3.081,-0.009 8.544,-2.164 8.544,-3.371 0,-0.303 0.27,-0.655 0.6,-0.782 1.141,-0.437 0.588,-10.03 -1.223,-21.225 -0.317,-1.964 -0.58,-4.304 -0.584,-5.2 -0.004,-0.897 -0.275,-3.34 -0.603,-5.43 -0.327,-2.09 -0.758,-5.439 -0.957,-7.443 -0.395,-3.974 -1.243,-9.142 -2.424,-14.757 -0.416,-1.98 -1.03,-5.58 -1.363,-8 -1.362,-9.872 -2.26,-17.279 -2.256,-18.6 0.003,-0.77 -0.353,-3.47 -0.79,-6 -0.437,-2.53 -0.796,-5.358 -0.797,-6.285 -0.002,-0.927 -0.348,-3.177 -0.769,-5 -0.717,-3.104 -1.474,-7.322 -3.036,-16.915 -2.308,-14.18 -3.879,-17.504 -9.525,-20.153 -2.773,-1.301 -7.655,-2.866 -8.873,-2.844 -0.44,0.008 -2.6,-0.254 -4.8,-0.581 -2.2,-0.328 -6.79,-0.977 -10.2,-1.442 -3.41,-0.466 -8.27,-1.182 -10.8,-1.592 -18.711,-3.033 -21.924,-3.175 -70.2,-3.113 -22.22,0.029 -42.92,0.209 -46,0.4 m 94.505,5.531 c 2.478,0.219 7.878,0.573 12,0.787 7.188,0.372 10.062,0.775 17.095,2.395 1.76,0.406 5.45,1.125 8.2,1.599 6.787,1.171 11.702,2.305 13.066,3.016 0.624,0.326 1.379,0.593 1.68,0.595 0.948,0.004 3.798,1.735 5.325,3.235 2.133,2.095 2.428,3.297 4.317,17.567 0.603,4.553 1.81,12.491 2.645,17.4 0.375,2.2 0.806,4.99 0.958,6.2 0.322,2.555 0.997,6.057 2.057,10.671 0.414,1.799 0.752,3.869 0.752,4.6 0.001,0.731 0.276,2.679 0.613,4.329 0.336,1.65 0.769,5.34 0.962,8.2 0.421,6.256 1.132,11.251 3.843,27 3.066,17.81 2.906,28.625 -0.448,30.414 -1.694,0.903 -13.352,0.769 -16.457,-0.189 -8.425,-2.599 -12.412,-3.411 -18.913,-3.851 -8.239,-0.558 -13.008,-1.095 -17.4,-1.959 -10.861,-2.137 -13.13,-2.215 -64.4,-2.215 -37.191,0 -48.431,0.115 -51.4,0.527 -2.09,0.29 -5.06,0.681 -6.6,0.868 -1.54,0.188 -4.06,0.616 -5.6,0.95 -2.932,0.637 -11.455,1.247 -25.6,1.83 -8.527,0.352 -14.541,1.102 -19.6,2.444 -6.843,1.816 -10.911,1.777 -14.493,-0.14 -3.317,-1.775 -3.424,-14.302 -0.244,-28.679 0.364,-1.65 0.791,-4.17 0.947,-5.6 0.68,-6.235 2.244,-14.868 3.767,-20.8 1.034,-4.025 2.231,-10.579 2.228,-12.2 -0.001,-0.88 0.269,-3.22 0.599,-5.2 0.331,-1.98 0.78,-5.398 0.998,-7.596 0.219,-2.198 0.648,-4.808 0.953,-5.8 0.306,-0.992 0.944,-4.054 1.417,-6.804 0.474,-2.75 1.124,-6.44 1.445,-8.2 0.321,-1.76 0.583,-3.926 0.583,-4.814 -10e-4,-5.581 3.231,-16.804 5.699,-19.792 0.276,-0.334 1.401,-1.054 2.501,-1.6 1.1,-0.547 2.292,-1.226 2.649,-1.51 0.642,-0.511 1.709,-0.745 7.551,-1.664 1.65,-0.26 4.8,-0.839 7,-1.287 7.34,-1.496 11.577,-2.38 14.2,-2.962 1.43,-0.317 5.75,-0.78 9.6,-1.028 3.85,-0.248 8.71,-0.576 10.8,-0.731 6.108,-0.45 89.622,-0.456 94.705,-0.006 M 190.8,384.435 c -2.31,0.187 -8.16,0.515 -13,0.727 -9.865,0.434 -19.657,1.294 -28,2.459 -9.304,1.301 -16.409,2 -24.341,2.396 -4.148,0.207 -9.548,0.569 -12,0.805 -2.453,0.236 -6.439,0.585 -8.859,0.776 -2.42,0.191 -5.75,0.547 -7.4,0.791 -13.893,2.056 -27.191,3.625 -30.6,3.61 -5.35,-0.022 -19.055,3.489 -20.2,5.175 -0.11,0.162 -0.523,0.47 -0.917,0.686 -0.395,0.215 -2.219,1.874 -4.053,3.687 -3.322,3.283 -3.963,4.295 -7.469,11.794 -0.427,0.913 -1.196,2.469 -1.71,3.459 -1.516,2.922 -2.633,6.255 -3.887,11.6 -1.57,6.696 -2.801,26.639 -2.018,32.704 0.643,4.982 4.436,9.301 8.654,9.854 1.1,0.144 3.26,0.429 4.8,0.634 1.688,0.225 65.609,0.38 160.927,0.39 170.915,0.019 164.469,0.096 168.611,-2.003 0.846,-0.428 1.725,-0.779 1.954,-0.779 0.586,0 2.308,-1.93 2.308,-2.587 0,-0.301 0.183,-0.607 0.406,-0.682 2.747,-0.915 2.866,-23.694 0.197,-37.531 -0.319,-1.65 -0.653,-3.45 -0.743,-4 -0.091,-0.55 -0.473,-1.9 -0.849,-3 -0.377,-1.1 -0.865,-2.54 -1.086,-3.2 -1.268,-3.797 -2.537,-7.055 -3.373,-8.662 -0.303,-0.584 -0.552,-1.334 -0.552,-1.666 0,-0.333 -0.142,-0.665 -0.316,-0.739 -0.302,-0.127 -2.884,-3.815 -2.884,-4.119 0,-0.158 -1.369,-1.832 -2.5,-3.056 -0.385,-0.417 -0.7,-0.898 -0.7,-1.069 0,-0.677 -4.635,-4.088 -5.56,-4.091 -0.352,-0.002 -1.156,-0.272 -1.786,-0.6 -0.63,-0.329 -1.41,-0.598 -1.734,-0.598 -0.324,0 -1.879,-0.341 -3.455,-0.757 -2.68,-0.708 -4.537,-1.142 -13.665,-3.195 -5.871,-1.321 -7.817,-1.648 -12.013,-2.02 -2.193,-0.194 -6.687,-0.633 -9.987,-0.975 -14.581,-1.513 -19.776,-1.891 -28.6,-2.081 -8.952,-0.193 -14.332,-0.577 -19.2,-1.373 -1.21,-0.198 -4.27,-0.716 -6.8,-1.152 -2.53,-0.436 -5.95,-1.015 -7.6,-1.287 -3.599,-0.595 -53.371,-0.864 -60,-0.325 m 51,5.138 c 3.08,0.244 8.39,0.794 11.8,1.221 3.41,0.427 8.99,1.064 12.4,1.416 3.41,0.351 7.37,0.822 8.8,1.047 1.43,0.225 7.64,0.649 13.8,0.943 15.382,0.732 32.331,2.374 41.4,4.01 1.65,0.298 5.25,0.914 8,1.37 2.75,0.456 6.53,1.122 8.4,1.479 1.87,0.358 4.17,0.778 5.111,0.934 0.941,0.156 1.931,0.548 2.2,0.872 0.269,0.324 1.389,1.322 2.489,2.219 1.169,0.953 2.467,2.521 3.123,3.773 0.617,1.179 1.473,2.683 1.901,3.343 0.429,0.66 1.163,2.055 1.631,3.1 0.468,1.045 1.008,1.9 1.198,1.9 0.191,0 0.347,0.279 0.347,0.621 0,0.341 0.72,2.064 1.6,3.827 0.88,1.764 1.6,3.595 1.6,4.07 0,0.475 0.259,2.218 0.575,3.873 4.419,23.122 2.95,37.713 -3.956,39.287 -0.67,0.153 -2.029,0.46 -3.019,0.682 -3.482,0.783 -318.132,0.571 -322.043,-0.217 -7.08,-1.426 -8.037,-4.585 -7.177,-23.697 0.273,-6.075 0.648,-11.586 0.834,-12.246 0.476,-1.695 1.516,-4.587 2.157,-6 0.965,-2.128 2.229,-5.601 2.229,-6.124 0,-0.785 1.638,-3.837 2.252,-4.196 0.301,-0.176 0.548,-0.581 0.548,-0.9 0,-0.319 0.141,-0.58 0.314,-0.58 0.172,0 0.658,-0.585 1.08,-1.3 0.862,-1.463 0.981,-1.613 3.206,-4.054 0.88,-0.965 1.96,-2.189 2.4,-2.72 0.44,-0.531 1.414,-1.316 2.164,-1.746 0.75,-0.429 2.01,-1.369 2.8,-2.089 0.79,-0.72 1.796,-1.377 2.236,-1.46 6.612,-1.248 9.637,-1.583 16.8,-1.863 9.127,-0.356 19.398,-1.228 25.4,-2.157 8.021,-1.241 16.729,-2.217 19.8,-2.219 1.76,-0.001 6.17,-0.275 9.8,-0.609 3.63,-0.334 8.58,-0.778 11,-0.987 2.42,-0.209 5.12,-0.563 6,-0.786 3.51,-0.89 9.537,-1.644 16,-2.003 3.74,-0.207 10.04,-0.563 14,-0.789 3.96,-0.227 11.7,-0.616 17.2,-0.865 5.5,-0.248 11.89,-0.591 14.2,-0.76 5.714,-0.42 30.498,-0.168 37.4,0.38"
     stroke="none"
     fill="#5c5c5c"
     fill-rule="evenodd" />
  <path
     id="path2"
     d="M 0,250.6 V 501.2 H 200 400 V 250.6 0 H 200 0 V 250.6 M 233,32.278 c 1.32,0.458 3.079,1.126 3.909,1.486 1.52,0.659 4.691,3.509 4.691,4.216 0,0.209 0.245,0.524 0.545,0.7 0.926,0.544 2.276,4.158 2.884,7.72 0.319,1.87 0.738,3.76 0.931,4.2 1.115,2.539 2.83,11.443 3.275,17 0.745,9.326 1.922,19.102 2.502,20.8 0.339,0.99 0.918,2.97 1.287,4.4 2.748,10.638 4.71,12.189 15.08,11.925 7.62,-0.195 7.793,-0.243 10.493,-2.943 0.98,-0.98 1.942,-1.782 2.138,-1.782 0.367,0 0.903,-1.362 2.438,-6.2 0.891,-2.806 1.854,-5.313 3.27,-8.511 0.416,-0.941 0.757,-2.074 0.757,-2.519 0,-0.445 0.36,-1.554 0.8,-2.464 0.44,-0.911 0.8,-1.878 0.8,-2.148 0,-0.661 1.926,-4.465 2.413,-4.766 0.213,-0.132 0.386,-0.724 0.386,-1.316 C 291.596,69.88 294.905,60 295.643,60 c 0.145,0 0.656,-1.035 1.136,-2.3 3.902,-10.299 8.89,-12.617 23.058,-10.716 7.928,1.064 18.514,3.875 18.896,5.018 0.074,0.219 0.367,0.398 0.651,0.398 0.285,0 0.742,0.27 1.016,0.6 0.274,0.33 0.904,0.6 1.401,0.6 3.642,0 11.799,6.886 11.799,9.962 0,0.185 0.401,1.214 0.892,2.287 l 0.892,1.951 -0.012,26.4 -0.013,26.4 -1.044,3.8 c -0.575,2.09 -1.309,4.43 -1.632,5.2 -0.323,0.77 -0.902,2.84 -1.287,4.6 -0.384,1.76 -1.036,4.236 -1.447,5.502 -0.412,1.265 -0.749,2.48 -0.749,2.699 0,0.449 -4.901,10.583 -5.689,11.764 -0.281,0.421 -0.826,1.096 -1.211,1.5 -0.385,0.404 -0.7,0.97 -0.7,1.256 0,1.084 -2.198,4.949 -3.812,6.703 -0.923,1.004 -1.981,2.463 -2.351,3.242 -0.817,1.72 -5.546,6.776 -7.321,7.826 -0.707,0.418 -1.649,1.223 -2.094,1.789 -1.049,1.334 -4.478,3.119 -5.991,3.119 -0.651,0 -1.281,0.158 -1.401,0.351 -0.5,0.809 -7.111,2.505 -8.776,2.252 -3.456,-0.526 -9.598,-1.852 -10.285,-2.22 -0.394,-0.211 -1.583,-0.383 -2.643,-0.384 -1.059,-10e-4 -5.256,-0.358 -9.326,-0.794 -4.07,-0.436 -8.626,-0.795 -10.125,-0.799 -3.373,-0.008 -13.648,-1.351 -18.475,-2.414 -4.576,-1.009 -13.202,-1.96 -21.736,-2.397 -10.775,-0.551 -18.258,-1.173 -24.781,-2.06 -8.738,-1.187 -24.363,-1.192 -32.083,-0.01 -7.897,1.209 -14.855,1.956 -27,2.898 -6.397,0.496 -12.11,1.151 -14.013,1.607 -1.767,0.424 -3.747,0.768 -4.4,0.766 -0.653,-0.002 -3.437,0.35 -6.187,0.783 -5.872,0.925 -15.199,1.98 -21.4,2.422 -2.42,0.172 -5.029,0.513 -5.797,0.756 -4.793,1.519 -15.467,-1.538 -19.833,-5.678 -6.138,-5.821 -8.17,-7.872 -8.17,-8.243 0,-0.24 -0.135,-0.441 -0.3,-0.447 -0.165,-0.006 -0.741,-0.726 -1.28,-1.6 -0.54,-0.874 -1.125,-1.589 -1.3,-1.589 -0.176,0 -0.324,-0.315 -0.329,-0.7 -0.005,-0.385 -0.361,-1.15 -0.791,-1.7 -0.43,-0.55 -0.786,-1.147 -0.791,-1.327 -0.005,-0.179 -0.464,-0.923 -1.02,-1.652 -1.445,-1.894 -3.225,-5.749 -3.519,-7.621 -0.138,-0.88 -1.132,-3.4 -2.209,-5.6 C 57.424,134.72 55.928,125.782 55.168,103 54.97,97.06 54.621,90.04 54.392,87.4 52.946,70.673 53.473,62.627 56.258,58.911 c 1.748,-2.333 7.333,-5.311 9.96,-5.311 0.521,0 1.81,-0.506 2.864,-1.125 1.993,-1.168 4.771,-2.252 7.518,-2.934 0.88,-0.218 2.77,-0.743 4.2,-1.165 7.966,-2.354 18.081,-3.102 21.97,-1.624 2.454,0.932 5.596,2.894 5.615,3.505 0.008,0.252 0.256,0.55 0.552,0.663 0.77,0.296 3.365,4.327 3.675,5.71 0.299,1.33 1.686,5.192 2.273,6.325 0.214,0.415 0.704,1.315 1.088,2 0.884,1.576 2.406,5.615 2.806,7.445 0.168,0.77 0.582,1.94 0.92,2.6 0.767,1.5 1.898,4.754 2.293,6.6 0.791,3.696 1.74,7.095 2.235,8 0.3,0.55 0.938,1.81 1.417,2.8 0.479,0.99 1.205,2.455 1.614,3.254 0.408,0.8 0.742,1.941 0.742,2.535 0,1.226 3.73,5.176 5.536,5.863 4.165,1.583 14.823,0.568 16.35,-1.558 0.393,-0.547 1.088,-1.467 1.546,-2.044 2.028,-2.559 3.365,-6.219 3.758,-10.289 0.21,-2.179 0.655,-5.491 0.989,-7.361 0.333,-1.87 0.61,-3.891 0.614,-4.492 0.008,-1.28 1.342,-5.774 2.439,-8.219 0.423,-0.941 0.774,-2.291 0.782,-3 0.008,-0.709 0.271,-2.459 0.586,-3.889 0.315,-1.43 0.578,-3.5 0.586,-4.6 0.009,-1.1 0.295,-3.53 0.636,-5.4 0.342,-1.87 0.774,-4.408 0.961,-5.64 0.316,-2.088 1.481,-4.933 2.554,-6.235 0.959,-1.165 2.467,-2.525 2.8,-2.525 0.19,0 1.197,-0.765 2.237,-1.701 2.956,-2.657 5.847,-3.791 13.026,-5.107 6.375,-1.169 46.064,-0.94 49.6,0.286 m 26.6,165.709 c 7.617,0.62 12.764,1.223 17.4,2.04 2.42,0.427 4.94,0.775 5.6,0.774 2.266,-0.003 15.531,2.762 17.752,3.701 0.576,0.244 2.308,0.65 3.848,0.902 12.095,1.98 14.191,3.579 16.767,12.796 0.369,1.32 1.104,3.84 1.634,5.6 1.714,5.7 3.786,20.93 3.809,28 0.005,1.54 0.365,4.138 0.799,5.773 0.435,1.635 0.791,3.519 0.791,4.187 0,0.668 0.344,2.66 0.765,4.427 1.304,5.476 2.44,11.167 2.437,12.213 -10e-4,0.55 0.256,2.44 0.573,4.2 1.337,7.443 2.203,13.416 2.405,16.6 0.119,1.87 0.486,4.93 0.817,6.8 0.331,1.87 0.602,4.161 0.602,5.091 0.001,2.052 1.33,10.642 2.369,15.309 2.881,12.946 2.811,23.986 -0.176,27.618 -1.908,2.32 -7.377,3.44 -13.598,2.784 -4.509,-0.475 -32.673,-2.972 -38.594,-3.421 -1.43,-0.109 -4.13,-0.452 -6,-0.764 -14.081,-2.346 -9.992,-2.216 -70.402,-2.223 -52.845,-0.005 -55.721,0.031 -62.398,0.795 -15.141,1.733 -22.327,2.422 -25.2,2.417 -1.65,-0.003 -6.6,0.274 -11,0.616 -4.4,0.341 -10.34,0.775 -13.2,0.965 -2.86,0.189 -8.044,0.572 -11.52,0.851 -13.949,1.117 -17.57,-4.306 -14.847,-22.238 0.334,-2.2 0.766,-5.275 0.96,-6.833 0.194,-1.559 0.623,-3.989 0.952,-5.4 0.329,-1.412 0.957,-4.277 1.395,-6.367 1.799,-8.583 2.195,-10.299 2.866,-12.4 1.541,-4.824 2.387,-10.693 2.402,-16.668 0.014,-5.381 2.191,-18.795 3.783,-23.308 0.335,-0.948 0.607,-2.377 0.604,-3.174 -0.004,-1.38 0.661,-6.627 2.417,-19.05 0.436,-3.08 0.791,-6.196 0.79,-6.925 -0.001,-0.728 0.366,-3.068 0.816,-5.2 2.354,-11.154 2.607,-11.895 5.318,-15.588 0.805,-1.097 1.464,-2.129 1.464,-2.295 0,-0.922 4.492,-3.792 5.935,-3.792 0.454,0 1.853,-0.268 3.109,-0.595 1.256,-0.327 3.199,-0.701 4.319,-0.831 1.121,-0.131 2.937,-0.559 4.037,-0.952 3.392,-1.211 15.346,-3.622 17.958,-3.622 0.598,0 2.833,-0.341 4.965,-0.757 2.132,-0.417 6.667,-1.061 10.077,-1.433 3.41,-0.371 6.47,-0.73 6.8,-0.796 1.583,-0.319 103.569,-0.155 107.6,0.173 M 240,378 c 8.171,0.45 13.229,0.966 19.6,2.002 7.88,1.282 12.521,1.645 28,2.192 14.139,0.5 19.814,0.994 27.872,2.425 1.799,0.319 3.767,0.581 4.373,0.581 0.605,0 2.463,0.344 4.128,0.765 4.335,1.095 6.838,1.529 11.827,2.049 7.054,0.735 15.696,2.882 17.6,4.372 0.22,0.173 0.94,0.405 1.6,0.517 1.63,0.278 5.77,1.828 6.456,2.418 0.306,0.263 1.441,1.199 2.521,2.079 1.081,0.88 1.978,1.761 1.994,1.959 0.03,0.377 2.676,3.755 3.479,4.441 0.616,0.527 2.55,4.25 2.55,4.909 0,0.284 0.241,0.608 0.535,0.721 1.836,0.705 5.959,12.169 7.686,21.37 2.224,11.856 2.304,38.832 0.127,43.101 -0.411,0.808 -0.749,1.655 -0.75,1.884 -0.008,1.917 -4.81,4.754 -9.598,5.671 -4.401,0.844 -305.735,1.382 -326.8,0.584 -18.13,-0.687 -21.605,-2.502 -23.055,-12.04 -1.428,-9.397 0.414,-36.193 2.683,-39.02 0.185,-0.231 0.452,-1.221 0.594,-2.2 0.568,-3.942 3.689,-12.668 5.451,-15.242 0.4,-0.584 0.727,-1.307 0.727,-1.607 0,-0.299 0.775,-1.442 1.722,-2.538 0.947,-1.096 2.051,-2.713 2.452,-3.593 2.943,-6.444 10.631,-11.601 19.426,-13.03 0.99,-0.161 3.647,-0.85 5.904,-1.531 2.257,-0.682 4.687,-1.24 5.4,-1.242 0.713,-0.001 3.971,-0.361 7.239,-0.8 3.269,-0.438 7.558,-0.797 9.532,-0.797 6.978,0 14.012,-0.761 22.325,-2.415 4.843,-0.964 12.811,-1.995 15.4,-1.994 1.1,0.001 4.25,-0.256 7,-0.571 2.75,-0.315 6.89,-0.679 9.2,-0.809 2.31,-0.13 7.26,-0.589 11,-1.019 9.76,-1.122 25.795,-2.403 30,-2.396 1.98,0.003 8.19,-0.265 13.8,-0.596 14.444,-0.853 13.98,-0.839 29.2,-0.915 7.59,-0.038 16.95,0.104 20.8,0.315"
     stroke="none"
     fill="#f1f1f1"
     fill-rule="evenodd"
     style="fill:none" />
  <path
     id="path3"
     d="m 193.4,34.378 c -5.634,0.36 -10.866,1.266 -13.651,2.363 -2.524,0.995 -7.486,3.318 -7.749,3.628 -0.11,0.129 -0.876,0.739 -1.701,1.355 -2.39,1.781 -4.505,6.757 -5.558,13.076 -0.238,1.43 -0.772,4.426 -1.187,6.658 -0.415,2.232 -0.754,4.57 -0.754,5.196 0,1.19 -1.323,7.966 -3.544,18.146 -1.469,6.734 -2.46,11.78 -2.475,12.6 -0.018,0.989 -1.768,6.152 -2.238,6.604 -4.523,4.346 -25.106,4.658 -26.73,0.404 -0.128,-0.334 -0.663,-1.328 -1.19,-2.208 -2.413,-4.032 -5.382,-10.746 -6.196,-14.009 -0.166,-0.666 -0.504,-1.587 -0.751,-2.049 -0.247,-0.461 -0.619,-1.537 -0.827,-2.39 -0.598,-2.451 -2.177,-6.727 -3.675,-9.952 -1.346,-2.895 -2.374,-5.493 -2.374,-5.998 0,-0.272 -0.336,-1.374 -0.747,-2.449 -0.411,-1.074 -1.067,-2.943 -1.459,-4.153 -2.387,-7.385 -8.653,-12.404 -14.783,-11.84 -4.307,0.396 -9.71,1.438 -12.811,2.469 -1.54,0.513 -3.34,1.112 -4,1.333 -0.66,0.22 -2.73,0.782 -4.6,1.249 -11.152,2.783 -13.655,4.253 -16.494,9.688 L 56.6,66.6 l 0.099,7.915 c 0.054,4.353 0.378,10.383 0.72,13.4 0.342,3.017 0.778,9.085 0.97,13.485 0.79,18.135 2.096,28.276 4.432,34.4 0.839,2.2 2.07,5.71 2.735,7.8 1.68,5.282 2.086,6.316 3.378,8.6 0.622,1.1 1.385,2.54 1.696,3.2 0.311,0.66 1.02,1.92 1.576,2.8 0.556,0.88 1.119,1.831 1.25,2.114 0.27,0.578 1.421,1.974 4.344,5.267 1.1,1.239 2.716,3.107 3.591,4.151 0.875,1.045 2.348,2.342 3.272,2.884 0.924,0.541 1.921,1.209 2.216,1.484 3.448,3.217 11.375,4.34 20.691,2.931 2.294,-0.347 4.814,-0.632 5.6,-0.634 0.787,-0.001 2.87,-0.337 4.63,-0.745 9.563,-2.22 13.053,-2.71 31.8,-4.465 8.527,-0.799 13.522,-1.412 26,-3.189 9.496,-1.353 14.449,-1.779 20.8,-1.788 5.991,-0.01 8.581,0.213 21.347,1.835 3.27,0.415 6.96,0.752 8.2,0.749 2.479,-0.007 14.67,1.172 24.653,2.383 3.52,0.427 8.92,1.064 12,1.415 9.485,1.081 17.843,2.198 21.358,2.854 1.846,0.345 4.906,0.785 6.8,0.977 1.893,0.193 5.152,0.624 7.242,0.957 5.515,0.881 16.846,0.898 19.2,0.029 0.99,-0.365 2.368,-0.809 3.063,-0.986 0.694,-0.177 1.551,-0.57 1.904,-0.872 1.317,-1.13 9.033,-8.832 9.033,-9.016 0,-0.106 0.225,-0.443 0.5,-0.75 1.662,-1.853 6.779,-8.719 6.984,-9.371 0.106,-0.338 0.433,-1.154 0.726,-1.814 1.78,-4.01 2.19,-5.049 2.19,-5.547 0,-0.305 0.252,-0.764 0.561,-1.02 0.936,-0.777 3.564,-6.683 4.731,-10.633 4.822,-16.314 4.909,-17.071 4.902,-42.6 -0.005,-22.352 -0.246,-25.87 -2.038,-29.783 -1.35,-2.949 -6.515,-8.217 -8.057,-8.217 -0.296,0 -1.091,-0.286 -1.767,-0.635 -1.259,-0.651 -3.504,-1.334 -7.732,-2.353 -1.32,-0.319 -4.232,-1.108 -6.47,-1.754 -8.179,-2.362 -18.453,-2.227 -21.151,0.277 -2.329,2.161 -6.979,10.233 -6.979,12.114 0,0.235 -0.249,0.905 -0.552,1.489 -1.346,2.587 -3.031,7.374 -4.211,11.962 -1.035,4.025 -1.394,5.19 -2.063,6.7 -0.39,0.88 -1.026,2.41 -1.413,3.4 -0.386,0.99 -1.031,2.555 -1.432,3.478 -0.401,0.923 -0.73,1.913 -0.73,2.2 -0.001,0.287 -0.34,1.077 -0.754,1.755 -0.414,0.679 -0.879,1.759 -1.034,2.4 -0.367,1.518 -3.436,6.603 -4.211,6.977 -0.33,0.16 -1.32,0.657 -2.2,1.106 -4.519,2.305 -18.134,2.228 -23.206,-0.131 -1.671,-0.777 -3.375,-2.147 -3.387,-2.723 -0.004,-0.186 -0.339,-0.816 -0.746,-1.4 -0.958,-1.378 -2.096,-5.867 -2.45,-9.662 -0.816,-8.757 -2.305,-19.382 -3.615,-25.8 -1.431,-7.007 -2.397,-12.413 -2.395,-13.4 0.002,-1.38 -1.488,-6.659 -2.428,-8.6 -0.427,-0.88 -0.775,-1.806 -0.774,-2.057 0.001,-0.252 -0.269,-0.561 -0.599,-0.688 -0.33,-0.126 -0.604,-0.461 -0.609,-0.742 -0.006,-0.282 -0.726,-1.043 -1.6,-1.69 -0.875,-0.647 -1.591,-1.322 -1.591,-1.5 0,-0.178 -0.287,-0.323 -0.638,-0.323 -0.351,0 -1.13,-0.35 -1.731,-0.778 -2.569,-1.83 -25.095,-2.985 -39.831,-2.044 m 35.79,3.198 c 0.985,0.258 1.885,0.604 2,0.769 0.116,0.165 0.93,0.652 1.81,1.084 2.216,1.086 4.2,2.619 4.2,3.246 0,0.289 0.136,0.525 0.302,0.525 0.35,0 1.133,1.702 1.52,3.304 0.147,0.607 0.427,1.202 0.622,1.323 0.196,0.121 0.356,0.662 0.356,1.202 0,0.539 0.36,2.28 0.8,3.868 0.44,1.588 0.8,3.508 0.8,4.267 0,2.277 1.874,12.217 4.045,21.449 0.415,1.767 0.756,4.017 0.757,5 0,0.983 0.267,3.407 0.593,5.387 0.325,1.98 0.594,4.215 0.598,4.968 0.026,5.121 3.286,12.832 5.425,12.832 0.266,0 0.696,0.256 0.955,0.568 1.891,2.278 18.244,3.241 23.74,1.398 3.098,-1.039 4.502,-1.897 6.287,-3.841 2.022,-2.201 2.356,-2.836 5.229,-9.925 0.178,-0.44 0.856,-2.06 1.506,-3.6 1.238,-2.931 1.866,-4.822 3.251,-9.8 1.3,-4.667 2.508,-8.504 3.023,-9.6 1.003,-2.135 1.787,-3.914 2.996,-6.8 4.382,-10.453 6.334,-12.325 12.918,-12.383 3.272,-0.029 13.17,1.66 18.877,3.22 1.54,0.421 3.117,0.765 3.504,0.764 5.02,-0.009 12.288,7.429 13.458,13.772 0.897,4.864 0.58,46.964 -0.389,51.627 -1.979,9.524 -4.259,16.582 -7.56,23.4 -0.373,0.77 -1.017,2.48 -1.431,3.8 -0.415,1.32 -1.075,2.878 -1.468,3.462 -0.393,0.584 -0.714,1.334 -0.714,1.666 0,0.333 -0.135,0.665 -0.3,0.739 -0.48,0.213 -2.9,3.447 -2.9,3.876 0,0.215 -0.146,0.45 -0.324,0.524 -0.179,0.073 -1.26,1.361 -2.404,2.862 -2.296,3.012 -9.735,10.671 -10.365,10.671 -0.22,0 -0.828,0.332 -1.353,0.738 -3.862,2.986 -20.2,2.913 -30.118,-0.135 -1.08,-0.331 -2.43,-0.601 -3,-0.598 -0.57,0.003 -2.296,-0.254 -3.836,-0.571 -3.315,-0.683 -16.508,-2.251 -18.8,-2.235 -0.88,0.006 -3.94,-0.343 -6.8,-0.777 -8.227,-1.248 -15.21,-2.078 -20.4,-2.426 -7.425,-0.498 -14.236,-1.153 -20.8,-2.001 -16.727,-2.161 -24.621,-2.152 -38.8,0.045 -10.489,1.625 -12.951,1.955 -20.5,2.75 -19.852,2.089 -22.857,2.401 -25.1,2.606 -3.947,0.36 -10.5,1.611 -17.8,3.396 -6.967,1.704 -17.366,2.039 -20.442,0.658 -4.793,-2.153 -9.787,-5.747 -12.135,-8.734 -1.087,-1.384 -2.527,-3.073 -3.2,-3.753 -1.339,-1.354 -1.9,-2.144 -2.814,-3.963 -0.332,-0.66 -1.059,-1.92 -1.615,-2.8 -0.556,-0.88 -1.11,-1.87 -1.232,-2.2 -0.121,-0.33 -0.421,-0.96 -0.666,-1.4 -1.454,-2.611 -3.896,-7.854 -3.896,-8.366 0,-0.332 -0.33,-1.556 -0.733,-2.719 -0.988,-2.853 -2.382,-7.486 -2.621,-8.715 -0.107,-0.55 -0.465,-1.99 -0.794,-3.2 -0.889,-3.265 -1.887,-11.727 -2.264,-19.2 -0.495,-9.814 -1.13,-18.622 -1.86,-25.8 -0.912,-8.961 -0.916,-14.873 -0.011,-16.736 0.387,-0.799 1.015,-2.105 1.394,-2.902 C 61.458,62.59 64.196,60 65.11,60 c 0.312,0 1.044,-0.321 1.628,-0.712 0.584,-0.392 2.322,-1.098 3.862,-1.57 6.111,-1.87 8.491,-2.518 9.251,-2.518 0.436,0 1.864,-0.337 3.171,-0.749 13.374,-4.212 19.867,-2.912 23.723,4.749 0.498,0.99 1.245,2.43 1.659,3.2 0.413,0.77 1.23,2.93 1.814,4.8 0.584,1.87 1.404,4.17 1.822,5.111 0.418,0.941 0.76,1.971 0.76,2.289 0,0.318 0.346,1.348 0.769,2.289 1.819,4.048 3.364,8.075 4.032,10.511 1.362,4.968 5.27,13.801 6.891,15.575 0.389,0.427 0.708,0.974 0.708,1.215 0,0.242 0.866,1.223 1.924,2.181 5.373,4.863 24.614,4.392 28.658,-0.702 0.989,-1.246 2.618,-5.1 2.618,-6.194 0,-0.434 0.333,-1.978 0.741,-3.432 0.407,-1.454 1.031,-3.993 1.386,-5.643 0.355,-1.65 0.996,-4.62 1.424,-6.6 1.39,-6.423 4.049,-22.245 4.049,-24.087 0,-1.565 1.944,-9.78 2.436,-10.293 0.2,-0.209 0.364,-0.688 0.364,-1.064 0,-0.782 2.868,-4.561 4.37,-5.756 1.241,-0.988 3.487,-2.019 6.63,-3.042 1.32,-0.43 3.3,-1.081 4.4,-1.449 3.908,-1.304 40.391,-1.736 44.99,-0.533 M 150.8,201.474 c -5.763,0.651 -13.02,1.811 -18.2,2.911 -5.301,1.126 -13.135,2.415 -14.665,2.414 -3.985,-0.004 -14.829,2.426 -17.428,3.906 -2.431,1.383 -4.996,5.061 -5.925,8.495 -0.149,0.55 -0.5,1.54 -0.78,2.2 -0.761,1.792 -1.779,5.375 -2.166,7.616 -1.011,5.864 -1.672,10.075 -2.257,14.384 -0.359,2.64 -0.996,6.987 -1.416,9.66 -0.419,2.673 -0.762,5.373 -0.761,6 0.002,1.194 -1.042,7.16 -2.44,13.94 -2.044,9.918 -2.324,11.397 -2.765,14.6 -0.257,1.87 -0.628,5.242 -0.823,7.493 -0.195,2.251 -0.629,5.927 -0.964,8.17 -0.336,2.243 -0.61,4.721 -0.61,5.508 0,1.259 -0.27,2.7 -1.578,8.429 -0.176,0.77 -0.597,2.48 -0.937,3.8 -2.777,10.801 -3.855,24.613 -2.13,27.308 2.988,4.671 6.988,5.581 19.006,4.323 9.738,-1.02 24.527,-2.374 37.614,-3.444 4.098,-0.336 6.408,-0.659 14.025,-1.965 6.853,-1.175 12.393,-1.271 66,-1.138 59.469,0.148 54.585,-0.027 65.4,2.341 1.98,0.433 4.118,0.785 4.75,0.781 0.633,-0.003 2.793,0.247 4.8,0.557 2.008,0.309 6.71,0.934 10.45,1.387 3.74,0.453 9.14,1.114 12,1.469 11.997,1.488 19.718,1.471 22.66,-0.05 5.128,-2.652 5.661,-6.081 3.289,-21.169 -0.346,-2.2 -0.771,-5.53 -0.944,-7.4 -0.306,-3.289 -1.015,-8.498 -2.232,-16.4 -0.322,-2.09 -0.582,-4.43 -0.578,-5.2 0.008,-1.447 -1.076,-8.164 -2.388,-14.8 -0.413,-2.09 -0.941,-4.79 -1.172,-6 -0.231,-1.21 -0.595,-2.92 -0.808,-3.8 -0.397,-1.637 -0.951,-6.299 -2.426,-20.4 -0.816,-7.799 -1.585,-13.028 -3.235,-22 -4.831,-26.255 -3.83,-25.351 -32.566,-29.417 -3.3,-0.467 -7.35,-1.177 -9,-1.577 -4.381,-1.064 -10.803,-2.063 -15.6,-2.427 -2.31,-0.175 -5.82,-0.511 -7.8,-0.746 -5.841,-0.692 -99.016,-0.479 -105.4,0.241 m 101.6,1.907 c 7.881,0.537 11.59,0.984 21.6,2.607 2.53,0.41 7.39,1.126 10.8,1.592 3.41,0.465 8,1.114 10.2,1.442 2.2,0.327 4.36,0.589 4.8,0.581 1.218,-0.022 6.1,1.543 8.873,2.844 5.646,2.649 7.217,5.973 9.525,20.153 1.562,9.593 2.319,13.811 3.036,16.915 0.421,1.823 0.767,4.073 0.769,5 0.001,0.927 0.36,3.755 0.797,6.285 0.437,2.53 0.793,5.23 0.79,6 -0.004,1.321 0.894,8.728 2.256,18.6 0.333,2.42 0.947,6.02 1.363,8 1.181,5.615 2.029,10.783 2.424,14.757 0.199,2.004 0.63,5.353 0.957,7.443 0.328,2.09 0.599,4.533 0.603,5.43 0.004,0.896 0.267,3.236 0.584,5.2 1.811,11.195 2.364,20.788 1.223,21.225 -0.33,0.127 -0.6,0.479 -0.6,0.782 0,1.207 -5.463,3.362 -8.544,3.371 -7.278,0.02 -23.612,-1.925 -40.456,-4.816 -2.42,-0.415 -7.46,-1.169 -11.2,-1.674 l -6.8,-0.918 -57.2,0.002 c -57.177,0.002 -57.203,0.003 -63.362,0.9 -3.389,0.494 -7.092,0.898 -8.23,0.898 -1.138,0 -4.035,0.282 -6.438,0.626 -2.404,0.345 -6.17,0.774 -8.37,0.954 -2.2,0.18 -6.52,0.627 -9.6,0.992 -21.404,2.541 -27.56,2.714 -32.386,0.906 -0.872,-0.327 -1.666,-0.838 -1.765,-1.136 -0.098,-0.298 -0.415,-0.722 -0.703,-0.942 -0.79,-0.604 -1.112,-6.291 -0.589,-10.408 0.47,-3.697 0.592,-4.389 1.978,-11.192 1.375,-6.746 2.085,-11.266 2.485,-15.832 0.211,-2.405 0.559,-5.587 0.774,-7.07 0.215,-1.484 0.394,-3.563 0.398,-4.621 0.008,-2.023 1.108,-8.018 2.398,-13.077 1.037,-4.066 2.416,-10.818 2.409,-11.8 -0.002,-0.44 0.343,-2.42 0.769,-4.4 0.701,-3.266 1.378,-7.832 2.399,-16.2 0.909,-7.447 2.761,-18.498 3.664,-21.865 0.423,-1.576 0.769,-3.303 0.769,-3.838 0,-0.534 0.36,-2.018 0.8,-3.297 0.44,-1.279 0.8,-2.642 0.8,-3.03 0,-1.396 2.867,-6.37 3.671,-6.37 0.161,0 0.974,-0.462 1.805,-1.026 2.518,-1.708 6.437,-3.211 9.324,-3.574 3.593,-0.451 10.711,-1.466 15.608,-2.224 2.754,-0.427 5.527,-0.776 6.162,-0.776 0.636,0 3.242,-0.371 5.793,-0.823 11.772,-2.091 13.784,-2.376 19.037,-2.702 9.93,-0.616 85.234,-0.531 94.6,0.106 m -55.8,178.237 c -1.76,0.185 -7.445,0.529 -12.634,0.766 -5.189,0.237 -12.389,0.694 -16,1.015 -3.611,0.322 -7.556,0.587 -8.766,0.59 -2.252,0.006 -7.885,0.642 -17.8,2.007 -3.08,0.424 -6.68,0.866 -8,0.982 -1.32,0.117 -3.93,0.397 -5.8,0.623 -1.87,0.226 -6.549,0.58 -10.399,0.786 -3.849,0.206 -9.339,0.644 -12.2,0.974 -2.86,0.329 -8.801,0.975 -13.201,1.435 -4.4,0.461 -10.07,1.092 -12.6,1.403 -2.53,0.31 -7.84,0.949 -11.8,1.42 -11.56,1.372 -15.306,2.231 -20.6,4.722 -4.627,2.178 -9.38,7.058 -12.175,12.502 -5.413,10.544 -6.618,13.004 -6.621,13.516 -0.002,0.307 -0.348,1.567 -0.769,2.8 -2.131,6.241 -3.702,19.549 -3.779,32.008 l -0.056,9.033 1.2,2.371 c 2.188,4.323 4.839,6.231 10.2,7.344 4.569,0.948 320.975,1.229 329.209,0.292 7.337,-0.835 8.694,-1.403 11.527,-4.828 4.42,-5.344 4.308,-28.726 -0.227,-47.373 -1.08,-4.444 -1.092,-4.478 -2.44,-7.085 -0.478,-0.924 -0.869,-1.871 -0.869,-2.105 0,-0.444 -0.89,-2.531 -2.843,-6.665 -1.161,-2.459 -3.692,-5.936 -6.857,-9.423 -2.805,-3.09 -7.398,-5.051 -16.7,-7.129 -2.09,-0.467 -4.7,-1.104 -5.8,-1.416 -2.883,-0.817 -10.331,-2.184 -11.879,-2.18 -1.294,0.004 -10.392,-1.008 -20.321,-2.259 -9.161,-1.154 -10.92,-1.292 -24.4,-1.916 -13.054,-0.605 -17.956,-1.083 -27,-2.63 -2.42,-0.414 -6.29,-0.969 -8.6,-1.233 -5.004,-0.574 -46.174,-0.853 -51,-0.347 m 54.2,3.142 c 1.65,0.272 5.07,0.851 7.6,1.287 2.53,0.436 5.59,0.954 6.8,1.152 4.868,0.796 10.248,1.18 19.2,1.373 8.824,0.19 14.019,0.568 28.6,2.081 3.3,0.342 7.794,0.781 9.987,0.975 4.196,0.372 6.142,0.699 12.013,2.02 9.128,2.053 10.985,2.487 13.665,3.195 1.576,0.416 3.131,0.757 3.455,0.757 0.324,0 1.104,0.269 1.734,0.598 0.63,0.328 1.434,0.598 1.786,0.6 0.925,0.003 5.56,3.414 5.56,4.091 0,0.171 0.315,0.652 0.7,1.069 1.131,1.224 2.5,2.898 2.5,3.056 0,0.304 2.582,3.992 2.884,4.119 0.174,0.074 0.316,0.406 0.316,0.739 0,0.332 0.249,1.082 0.552,1.666 0.836,1.607 2.105,4.865 3.373,8.662 0.221,0.66 0.709,2.1 1.086,3.2 0.376,1.1 0.758,2.45 0.849,3 0.09,0.55 0.424,2.35 0.743,4 2.669,13.837 2.55,36.616 -0.197,37.531 -0.223,0.075 -0.406,0.381 -0.406,0.682 0,0.657 -1.722,2.587 -2.308,2.587 -0.229,0 -1.108,0.351 -1.954,0.779 -4.142,2.099 2.304,2.022 -168.611,2.003 -95.318,-0.01 -159.239,-0.165 -160.927,-0.39 -1.54,-0.205 -3.7,-0.49 -4.8,-0.634 -4.218,-0.553 -8.011,-4.872 -8.654,-9.854 -0.783,-6.065 0.448,-26.008 2.018,-32.704 1.254,-5.345 2.371,-8.678 3.887,-11.6 0.514,-0.99 1.283,-2.546 1.71,-3.459 3.506,-7.499 4.147,-8.511 7.469,-11.794 1.834,-1.813 3.658,-3.472 4.053,-3.687 0.394,-0.216 0.807,-0.524 0.917,-0.686 1.145,-1.686 14.85,-5.197 20.2,-5.175 3.409,0.015 16.707,-1.554 30.6,-3.61 1.65,-0.244 4.98,-0.6 7.4,-0.791 2.42,-0.191 6.406,-0.54 8.859,-0.776 2.452,-0.236 7.852,-0.598 12,-0.805 7.932,-0.396 15.037,-1.095 24.341,-2.396 8.343,-1.165 18.135,-2.025 28,-2.459 4.84,-0.212 10.69,-0.54 13,-0.727 6.629,-0.539 56.401,-0.27 60,0.325"
     stroke="none"
     fill="#929292"
     fill-rule="evenodd" />
  <path
     id="path4"
     d="m 183.4,31.992 c -7.179,1.316 -10.07,2.45 -13.026,5.107 -1.04,0.936 -2.047,1.701 -2.237,1.701 -0.333,0 -1.841,1.36 -2.8,2.525 -1.073,1.302 -2.238,4.147 -2.554,6.235 -0.187,1.232 -0.619,3.77 -0.961,5.64 -0.341,1.87 -0.627,4.3 -0.636,5.4 -0.008,1.1 -0.271,3.17 -0.586,4.6 -0.315,1.43 -0.578,3.18 -0.586,3.889 -0.008,0.709 -0.359,2.059 -0.782,3 -1.097,2.445 -2.431,6.939 -2.439,8.219 -0.004,0.601 -0.281,2.622 -0.614,4.492 -0.334,1.87 -0.779,5.182 -0.989,7.361 -0.393,4.07 -1.73,7.73 -3.758,10.289 -0.458,0.577 -1.153,1.497 -1.546,2.044 -1.527,2.126 -12.185,3.141 -16.35,1.558 C 131.73,103.365 128,99.415 128,98.189 c 0,-0.594 -0.334,-1.735 -0.742,-2.535 -0.409,-0.799 -1.135,-2.264 -1.614,-3.254 -0.479,-0.99 -1.117,-2.25 -1.417,-2.8 -0.495,-0.905 -1.444,-4.304 -2.235,-8 -0.395,-1.846 -1.526,-5.1 -2.293,-6.6 -0.338,-0.66 -0.752,-1.83 -0.92,-2.6 -0.4,-1.83 -1.922,-5.869 -2.806,-7.445 -0.384,-0.685 -0.874,-1.585 -1.088,-2 -0.587,-1.133 -1.974,-4.995 -2.273,-6.325 -0.31,-1.383 -2.905,-5.414 -3.675,-5.71 -0.296,-0.113 -0.544,-0.411 -0.552,-0.663 -0.019,-0.611 -3.161,-2.573 -5.615,-3.505 -3.889,-1.478 -14.004,-0.73 -21.97,1.624 -1.43,0.422 -3.32,0.947 -4.2,1.165 -2.747,0.682 -5.525,1.766 -7.518,2.934 -1.054,0.619 -2.343,1.125 -2.864,1.125 -2.627,0 -8.212,2.978 -9.96,5.311 -2.785,3.716 -3.312,11.762 -1.866,28.489 0.229,2.64 0.578,9.66 0.776,15.6 0.76,22.782 2.256,31.72 6.893,41.2 1.077,2.2 2.071,4.72 2.209,5.6 0.294,1.872 2.074,5.727 3.519,7.621 0.556,0.729 1.015,1.473 1.02,1.652 0.005,0.18 0.361,0.777 0.791,1.327 0.43,0.55 0.786,1.315 0.791,1.7 0.005,0.385 0.153,0.7 0.329,0.7 0.175,0 0.76,0.715 1.3,1.589 0.539,0.874 1.115,1.594 1.28,1.6 0.165,0.006 0.3,0.207 0.3,0.447 0,0.371 2.032,2.422 8.17,8.243 4.366,4.14 15.04,7.197 19.833,5.678 0.768,-0.243 3.377,-0.584 5.797,-0.756 6.201,-0.442 15.528,-1.497 21.4,-2.422 2.75,-0.433 5.534,-0.785 6.187,-0.783 0.653,0.002 2.633,-0.342 4.4,-0.766 1.903,-0.456 7.616,-1.111 14.013,-1.607 12.145,-0.942 19.103,-1.689 27,-2.898 7.72,-1.182 23.345,-1.177 32.083,0.01 6.523,0.887 14.006,1.509 24.781,2.06 8.534,0.437 17.16,1.388 21.736,2.397 4.827,1.063 15.102,2.406 18.475,2.414 1.499,0.004 6.055,0.363 10.125,0.799 4.07,0.436 8.267,0.793 9.326,0.794 1.06,0.001 2.249,0.173 2.643,0.384 0.687,0.368 6.829,1.694 10.285,2.22 1.665,0.253 8.276,-1.443 8.776,-2.252 0.12,-0.193 0.75,-0.351 1.401,-0.351 1.513,0 4.942,-1.785 5.991,-3.119 0.445,-0.566 1.387,-1.371 2.094,-1.789 1.775,-1.05 6.504,-6.106 7.321,-7.826 0.37,-0.779 1.428,-2.238 2.351,-3.242 1.614,-1.754 3.812,-5.619 3.812,-6.703 0,-0.286 0.315,-0.852 0.7,-1.256 0.385,-0.404 0.93,-1.079 1.211,-1.5 0.788,-1.181 5.689,-11.315 5.689,-11.764 0,-0.219 0.337,-1.434 0.749,-2.699 0.411,-1.266 1.063,-3.742 1.447,-5.502 0.385,-1.76 0.964,-3.83 1.287,-4.6 0.323,-0.77 1.057,-3.11 1.632,-5.2 l 1.044,-3.8 0.013,-26.4 0.012,-26.4 -0.892,-1.951 c -0.491,-1.073 -0.892,-2.102 -0.892,-2.287 0,-3.076 -8.157,-9.962 -11.799,-9.962 -0.497,0 -1.127,-0.27 -1.401,-0.6 -0.274,-0.33 -0.731,-0.6 -1.016,-0.6 -0.284,0 -0.577,-0.179 -0.651,-0.398 -0.382,-1.143 -10.968,-3.954 -18.896,-5.018 -14.168,-1.901 -19.156,0.417 -23.058,10.716 -0.48,1.265 -0.991,2.3 -1.136,2.3 -0.738,0 -4.047,9.88 -4.044,12.076 0,0.592 -0.173,1.184 -0.386,1.316 -0.487,0.301 -2.413,4.105 -2.413,4.766 0,0.27 -0.36,1.237 -0.8,2.148 -0.44,0.91 -0.8,2.019 -0.8,2.464 0,0.445 -0.341,1.578 -0.757,2.519 -1.416,3.198 -2.379,5.705 -3.27,8.511 -1.535,4.838 -2.071,6.2 -2.438,6.2 -0.196,0 -1.158,0.802 -2.138,1.782 -2.7,2.7 -2.873,2.748 -10.493,2.943 -10.37,0.264 -12.332,-1.287 -15.08,-11.925 -0.369,-1.43 -0.948,-3.41 -1.287,-4.4 -0.58,-1.698 -1.757,-11.474 -2.502,-20.8 -0.445,-5.557 -2.16,-14.461 -3.275,-17 -0.193,-0.44 -0.612,-2.33 -0.931,-4.2 -0.608,-3.562 -1.958,-7.176 -2.884,-7.72 -0.3,-0.176 -0.545,-0.491 -0.545,-0.7 0,-0.707 -3.171,-3.557 -4.691,-4.216 -5.552,-2.407 -4.434,-2.31 -27.909,-2.412 -19.479,-0.084 -21.993,-0.021 -25.6,0.64 m 44.778,3.015 c 2.416,0.388 4.386,0.94 5.053,1.415 0.601,0.428 1.38,0.778 1.731,0.778 0.351,0 0.638,0.145 0.638,0.323 0,0.178 0.716,0.853 1.591,1.5 0.874,0.647 1.594,1.408 1.6,1.69 0.005,0.281 0.279,0.616 0.609,0.742 0.33,0.127 0.6,0.436 0.599,0.688 -0.001,0.251 0.347,1.177 0.774,2.057 0.94,1.941 2.43,7.22 2.428,8.6 -0.002,0.987 0.964,6.393 2.395,13.4 1.31,6.418 2.799,17.043 3.615,25.8 0.354,3.795 1.492,8.284 2.45,9.662 0.407,0.584 0.742,1.214 0.746,1.4 0.012,0.576 1.716,1.946 3.387,2.723 5.072,2.359 18.687,2.436 23.206,0.131 0.88,-0.449 1.87,-0.946 2.2,-1.106 0.775,-0.374 3.844,-5.459 4.211,-6.977 0.155,-0.641 0.62,-1.721 1.034,-2.4 0.414,-0.678 0.753,-1.468 0.754,-1.755 0,-0.287 0.329,-1.277 0.73,-2.2 0.401,-0.923 1.046,-2.488 1.432,-3.478 0.387,-0.99 1.023,-2.52 1.413,-3.4 0.669,-1.51 1.028,-2.675 2.063,-6.7 1.18,-4.588 2.865,-9.375 4.211,-11.962 0.303,-0.584 0.552,-1.254 0.552,-1.489 0,-1.881 4.65,-9.953 6.979,-12.114 2.698,-2.504 12.972,-2.639 21.151,-0.277 2.238,0.646 5.15,1.435 6.47,1.754 4.228,1.019 6.473,1.702 7.732,2.353 0.676,0.349 1.471,0.635 1.767,0.635 1.542,0 6.707,5.268 8.057,8.217 1.792,3.913 2.033,7.431 2.038,29.783 0.006,21.48 -0.133,23.854 -1.847,31.4 -0.741,3.264 -1.13,4.689 -3.055,11.2 -1.167,3.95 -3.795,9.856 -4.731,10.633 -0.309,0.256 -0.561,0.715 -0.561,1.02 0,0.498 -0.41,1.537 -2.19,5.547 -0.293,0.66 -0.62,1.476 -0.726,1.814 -0.205,0.652 -5.322,7.518 -6.984,9.371 -0.275,0.307 -0.5,0.644 -0.5,0.75 0,0.184 -7.716,7.886 -9.033,9.016 -0.353,0.302 -1.21,0.695 -1.904,0.872 -0.695,0.177 -2.073,0.621 -3.063,0.986 -2.354,0.869 -13.685,0.852 -19.2,-0.029 -2.09,-0.333 -5.349,-0.764 -7.242,-0.957 -1.894,-0.192 -4.954,-0.632 -6.8,-0.977 -3.515,-0.656 -11.873,-1.773 -21.358,-2.854 -3.08,-0.351 -8.48,-0.988 -12,-1.415 -9.983,-1.211 -22.174,-2.39 -24.653,-2.383 -1.24,0.003 -4.93,-0.334 -8.2,-0.749 -12.766,-1.622 -15.356,-1.845 -21.347,-1.835 -6.351,0.009 -11.304,0.435 -20.8,1.788 -12.478,1.777 -17.473,2.39 -26,3.189 -18.747,1.755 -22.237,2.245 -31.8,4.465 -1.76,0.408 -3.843,0.744 -4.63,0.745 -0.786,0.002 -3.306,0.287 -5.6,0.634 -9.316,1.409 -17.243,0.286 -20.691,-2.931 -0.295,-0.275 -1.292,-0.943 -2.216,-1.484 -0.924,-0.542 -2.397,-1.839 -3.272,-2.884 -0.875,-1.044 -2.491,-2.912 -3.591,-4.151 -2.923,-3.293 -4.074,-4.689 -4.344,-5.267 -0.131,-0.283 -0.694,-1.234 -1.25,-2.114 -0.556,-0.88 -1.265,-2.14 -1.576,-2.8 -0.311,-0.66 -1.074,-2.1 -1.696,-3.2 -1.292,-2.284 -1.698,-3.318 -3.378,-8.6 -0.665,-2.09 -1.896,-5.6 -2.735,-7.8 -2.336,-6.124 -3.642,-16.265 -4.432,-34.4 -0.192,-4.4 -0.628,-10.468 -0.97,-13.485 -0.342,-3.017 -0.666,-9.047 -0.72,-13.4 L 56.6,66.6 57.906,64.099 c 2.839,-5.435 5.342,-6.905 16.494,-9.688 1.87,-0.467 3.94,-1.029 4.6,-1.249 0.66,-0.221 2.46,-0.82 4,-1.333 3.101,-1.031 8.504,-2.073 12.811,-2.469 6.13,-0.564 12.396,4.455 14.783,11.84 0.392,1.21 1.048,3.079 1.459,4.153 0.411,1.075 0.747,2.177 0.747,2.449 0,0.505 1.028,3.103 2.374,5.998 1.498,3.225 3.077,7.501 3.675,9.952 0.208,0.853 0.58,1.929 0.827,2.39 0.247,0.462 0.585,1.383 0.751,2.049 0.814,3.263 3.783,9.977 6.196,14.009 0.527,0.88 1.062,1.874 1.19,2.208 1.624,4.254 22.207,3.942 26.73,-0.404 0.47,-0.452 2.22,-5.615 2.238,-6.604 0.015,-0.82 1.006,-5.866 2.475,-12.6 2.221,-10.18 3.544,-16.956 3.544,-18.146 0,-0.626 0.339,-2.964 0.754,-5.196 0.415,-2.232 0.949,-5.228 1.187,-6.658 1.053,-6.319 3.168,-11.295 5.558,-13.076 0.825,-0.616 1.591,-1.226 1.701,-1.355 0.263,-0.31 5.225,-2.633 7.749,-3.628 6.592,-2.598 36.422,-3.667 48.429,-1.734 M 152,197.814 c -0.33,0.066 -3.39,0.425 -6.8,0.796 -3.41,0.372 -7.945,1.016 -10.077,1.433 -2.132,0.416 -4.367,0.757 -4.965,0.757 -2.612,0 -14.566,2.411 -17.958,3.622 -1.1,0.393 -2.916,0.821 -4.037,0.952 -1.12,0.13 -3.063,0.504 -4.319,0.831 -1.256,0.327 -2.655,0.595 -3.109,0.595 -1.443,0 -5.935,2.87 -5.935,3.792 0,0.166 -0.659,1.198 -1.464,2.295 -2.711,3.693 -2.964,4.434 -5.318,15.588 -0.45,2.132 -0.817,4.472 -0.816,5.2 0.001,0.729 -0.354,3.845 -0.79,6.925 -1.756,12.423 -2.421,17.67 -2.417,19.05 0.003,0.797 -0.269,2.226 -0.604,3.174 -1.592,4.513 -3.769,17.927 -3.783,23.308 -0.015,5.975 -0.861,11.844 -2.402,16.668 -0.671,2.101 -1.067,3.817 -2.866,12.4 -0.438,2.09 -1.066,4.955 -1.395,6.367 -0.329,1.411 -0.758,3.841 -0.952,5.4 -0.194,1.558 -0.626,4.633 -0.96,6.833 -2.723,17.932 0.898,23.355 14.847,22.238 3.476,-0.279 8.66,-0.662 11.52,-0.851 2.86,-0.19 8.8,-0.624 13.2,-0.965 4.4,-0.342 9.35,-0.619 11,-0.616 2.873,0.005 10.059,-0.684 25.2,-2.417 6.677,-0.764 9.553,-0.8 62.398,-0.795 60.41,0.007 56.321,-0.123 70.402,2.223 1.87,0.312 4.57,0.655 6,0.764 5.921,0.449 34.085,2.946 38.594,3.421 6.221,0.656 11.69,-0.464 13.598,-2.784 2.987,-3.632 3.057,-14.672 0.176,-27.618 -1.039,-4.667 -2.368,-13.257 -2.369,-15.309 0,-0.93 -0.271,-3.221 -0.602,-5.091 -0.331,-1.87 -0.698,-4.93 -0.817,-6.8 -0.202,-3.184 -1.068,-9.157 -2.405,-16.6 -0.317,-1.76 -0.574,-3.65 -0.573,-4.2 0.003,-1.046 -1.133,-6.737 -2.437,-12.213 -0.421,-1.767 -0.765,-3.759 -0.765,-4.427 0,-0.668 -0.356,-2.552 -0.791,-4.187 -0.434,-1.635 -0.794,-4.233 -0.799,-5.773 -0.023,-7.07 -2.095,-22.3 -3.809,-28 -0.53,-1.76 -1.265,-4.28 -1.634,-5.6 -2.576,-9.217 -4.672,-10.816 -16.767,-12.796 -1.54,-0.252 -3.272,-0.658 -3.848,-0.902 -2.221,-0.939 -15.486,-3.704 -17.752,-3.701 -0.66,0.001 -3.18,-0.347 -5.6,-0.774 -4.636,-0.817 -9.783,-1.42 -17.4,-2.04 -4.031,-0.328 -106.017,-0.492 -107.6,-0.173 m 104.2,3.419 c 1.98,0.235 5.49,0.571 7.8,0.746 4.797,0.364 11.219,1.363 15.6,2.427 1.65,0.4 5.7,1.11 9,1.577 26.931,3.811 27.831,4.416 30.956,20.817 2.988,15.687 3.863,21.209 4.845,30.6 1.475,14.101 2.029,18.763 2.426,20.4 0.213,0.88 0.577,2.59 0.808,3.8 0.231,1.21 0.759,3.91 1.172,6 1.312,6.636 2.396,13.353 2.388,14.8 -0.004,0.77 0.256,3.11 0.578,5.2 1.217,7.902 1.926,13.111 2.232,16.4 0.173,1.87 0.598,5.2 0.944,7.4 2.372,15.088 1.839,18.517 -3.289,21.169 -2.942,1.521 -10.663,1.538 -22.66,0.05 -2.86,-0.355 -8.26,-1.016 -12,-1.469 -3.74,-0.453 -8.442,-1.078 -10.45,-1.387 -2.007,-0.31 -4.167,-0.56 -4.8,-0.557 -0.632,0.004 -2.77,-0.348 -4.75,-0.781 -10.815,-2.368 -5.931,-2.193 -65.4,-2.341 -53.607,-0.133 -59.147,-0.037 -66,1.138 -7.617,1.306 -9.927,1.629 -14.025,1.965 -13.087,1.07 -27.876,2.424 -37.614,3.444 -12.018,1.258 -16.018,0.348 -19.006,-4.323 -1.725,-2.695 -0.647,-16.507 2.13,-27.308 0.34,-1.32 0.761,-3.03 0.937,-3.8 1.308,-5.729 1.578,-7.17 1.578,-8.429 0,-0.787 0.274,-3.265 0.61,-5.508 0.335,-2.243 0.769,-5.919 0.964,-8.17 0.195,-2.251 0.566,-5.623 0.823,-7.493 0.441,-3.203 0.721,-4.682 2.765,-14.6 1.398,-6.78 2.442,-12.746 2.44,-13.94 -0.001,-0.627 0.342,-3.327 0.761,-6 0.42,-2.673 1.057,-7.02 1.416,-9.66 0.585,-4.309 1.246,-8.52 2.257,-14.384 0.387,-2.241 1.405,-5.824 2.166,-7.616 0.28,-0.66 0.631,-1.65 0.78,-2.2 0.929,-3.434 3.494,-7.112 5.925,-8.495 2.599,-1.48 13.443,-3.91 17.428,-3.906 1.53,0.001 9.364,-1.288 14.665,-2.414 5.18,-1.1 12.437,-2.26 18.2,-2.911 6.384,-0.72 99.559,-0.933 105.4,-0.241 m -53.4,176.643 c -1.43,0.067 -7.19,0.392 -12.8,0.724 -5.61,0.331 -11.82,0.599 -13.8,0.596 -4.205,-0.007 -20.24,1.274 -30,2.396 -3.74,0.43 -8.69,0.889 -11,1.019 -2.31,0.13 -6.45,0.494 -9.2,0.809 -2.75,0.315 -5.9,0.572 -7,0.571 -2.589,-10e-4 -10.557,1.03 -15.4,1.994 -8.313,1.654 -15.347,2.415 -22.325,2.415 -1.974,0 -6.263,0.359 -9.532,0.797 -3.268,0.439 -6.526,0.799 -7.239,0.8 -0.713,0.002 -3.143,0.56 -5.4,1.242 -2.257,0.681 -4.914,1.37 -5.904,1.531 -8.795,1.429 -16.483,6.586 -19.426,13.03 -0.401,0.88 -1.505,2.497 -2.452,3.593 -0.947,1.096 -1.722,2.239 -1.722,2.538 0,0.3 -0.327,1.023 -0.727,1.607 -1.762,2.574 -4.883,11.3 -5.451,15.242 -0.142,0.979 -0.409,1.969 -0.594,2.2 -2.269,2.827 -4.111,29.623 -2.683,39.02 1.45,9.538 4.925,11.353 23.055,12.04 21.065,0.798 322.399,0.26 326.8,-0.584 4.788,-0.917 9.59,-3.754 9.598,-5.671 10e-4,-0.229 0.339,-1.076 0.75,-1.884 2.177,-4.269 2.097,-31.245 -0.127,-43.101 -1.727,-9.201 -5.85,-20.665 -7.686,-21.37 -0.294,-0.113 -0.535,-0.437 -0.535,-0.721 0,-0.659 -1.934,-4.382 -2.55,-4.909 -0.803,-0.686 -3.449,-4.064 -3.479,-4.441 -0.016,-0.198 -0.913,-1.079 -1.994,-1.959 -1.08,-0.88 -2.215,-1.816 -2.521,-2.079 -0.686,-0.59 -4.826,-2.14 -6.456,-2.418 -0.66,-0.112 -1.38,-0.344 -1.6,-0.517 -1.904,-1.49 -10.546,-3.637 -17.6,-4.372 -4.989,-0.52 -7.492,-0.954 -11.827,-2.049 -1.665,-0.421 -3.523,-0.765 -4.128,-0.765 -0.606,0 -2.574,-0.262 -4.373,-0.581 -8.058,-1.431 -13.733,-1.925 -27.872,-2.425 -15.479,-0.547 -20.12,-0.91 -28,-2.192 -12.607,-2.05 -38.06,-3.003 -56.8,-2.126 m 44.8,4.089 c 2.31,0.264 6.18,0.819 8.6,1.233 9.044,1.547 13.946,2.025 27,2.63 13.48,0.624 15.239,0.762 24.4,1.916 9.929,1.251 19.027,2.263 20.321,2.259 1.548,-0.004 8.996,1.363 11.879,2.18 1.1,0.312 3.71,0.949 5.8,1.416 9.302,2.078 13.895,4.039 16.7,7.129 3.165,3.487 5.696,6.964 6.857,9.423 1.953,4.134 2.843,6.221 2.843,6.665 0,0.234 0.391,1.181 0.869,2.105 1.348,2.607 1.36,2.641 2.44,7.085 4.535,18.647 4.647,42.029 0.227,47.373 -2.833,3.425 -4.19,3.993 -11.527,4.828 -8.234,0.937 -324.64,0.656 -329.209,-0.292 -5.361,-1.113 -8.012,-3.021 -10.2,-7.344 l -1.2,-2.371 0.056,-9.033 c 0.077,-12.459 1.648,-25.767 3.779,-32.008 0.421,-1.233 0.767,-2.493 0.769,-2.8 0.003,-0.512 1.208,-2.972 6.621,-13.516 2.795,-5.444 7.548,-10.324 12.175,-12.502 5.294,-2.491 9.04,-3.35 20.6,-4.722 3.96,-0.471 9.27,-1.11 11.8,-1.42 2.53,-0.311 8.2,-0.942 12.6,-1.403 4.4,-0.46 10.341,-1.106 13.201,-1.435 2.861,-0.33 8.351,-0.768 12.2,-0.974 3.85,-0.206 8.529,-0.56 10.399,-0.786 1.87,-0.226 4.48,-0.506 5.8,-0.623 1.32,-0.116 4.92,-0.558 8,-0.982 9.915,-1.365 15.548,-2.001 17.8,-2.007 1.21,-0.003 5.155,-0.268 8.766,-0.59 3.611,-0.321 10.811,-0.778 16,-1.015 5.189,-0.237 10.874,-0.581 12.634,-0.766 4.826,-0.506 45.996,-0.227 51,0.347"
     stroke="none"
     fill="#a6a6a6"
     fill-rule="evenodd" />
  <path
     style="fill:#ffffff;fill-opacity:0;stroke:#ffffff;stroke-width:0.228849"
     d="m 0.93153338,1.3973001 c -0.62102225,-0.9315334 -0.31051113,-0.4657667 0,0 z M 372.65461,481.55304 c 0.61512,-0.74117 1.65243,-1.34758 2.30514,-1.34758 0.6527,0 2.48616,-1.47996 4.07434,-3.2888 l 2.8876,-3.2888 -0.30789,-20.69818 c -0.30916,-20.78358 -0.59515,-24.18387 -2.55549,-30.38396 -1.83053,-5.78951 -5.73042,-14.06833 -6.62715,-14.06833 -0.47261,0 -0.62111,-0.3854 -0.32999,-0.85643 0.29112,-0.47104 -0.10333,-1.48908 -0.87656,-2.2623 -0.77322,-0.77323 -1.40586,-1.76344 -1.40586,-2.20048 0,-0.96922 -9.11392,-9.53881 -10.31802,-9.70177 -1.30992,-0.17728 -2.03718,-0.41386 -4.80159,-1.56197 -8.84248,-3.67244 -49.19323,-10.27145 -63.12919,-10.32421 -5.27472,-0.0199 -20.78763,-1.11052 -21.42817,-1.5064 -0.43116,-0.26647 -2.63693,-0.41441 -4.90172,-0.32875 -2.26479,0.0857 -4.50391,-0.0829 -4.97584,-0.37454 -1.73485,-1.07219 -21.86881,-2.08952 -41.35388,-2.08952 -25.18366,0 -55.41212,1.4257 -71.72807,3.383 -4.35491,0.52243 -8.54681,0.94856 -9.31533,0.94698 -1.51991,-0.003 -18.02068,1.58312 -23.28833,2.23877 -1.79321,0.2232 -5.35632,0.6434 -7.91804,0.9338 -2.56171,0.29041 -7.172805,0.90225 -10.246865,1.35966 -3.07406,0.45742 -8.52353,1.04443 -12.109934,1.30448 -14.292339,1.03634 -20.488477,1.65213 -21.229054,2.10984 -0.426894,0.26383 -2.112845,0.67134 -3.746558,0.90556 -1.633714,0.23423 -4.437554,0.90432 -6.230756,1.4891 -1.793202,0.58479 -3.835822,1.16137 -4.539157,1.28131 -2.512402,0.42841 -6.639244,2.45288 -6.639244,3.25695 0,0.45018 -0.609032,0.81852 -1.353403,0.81852 -1.312713,0 -7.173447,6.51348 -7.265569,8.07479 -0.02514,0.42613 -0.716098,1.28543 -1.535455,1.90957 -0.819357,0.62413 -1.175348,1.14811 -0.79109,1.16442 0.384257,0.0163 -0.15502,0.88328 -1.198394,1.92666 -1.043374,1.04338 -1.669548,2.26514 -1.391496,2.71504 0.278051,0.4499 0.06092,0.9662 -0.482517,1.14735 -0.543436,0.18114 -1.081823,0.95053 -1.196416,1.70974 -0.114593,0.75922 -0.464626,1.79959 -0.777852,2.31193 -0.313226,0.51234 -1.724318,4.49465 -3.135761,8.84957 -2.326161,7.17723 -2.606801,9.54371 -2.999588,25.29401 -0.310397,12.44653 -0.102729,18.37771 0.732017,20.90701 1.268011,3.84211 3.694002,6.92083 5.69173,7.22311 0.695765,0.10529 1.684217,0.43554 2.19656,0.73391 0.512344,0.29836 2.562826,0.59044 4.556629,0.64905 1.993803,0.0586 3.835317,0.31678 4.092253,0.57371 0.256936,0.25694 75.61905,0.4547 167.47136,0.43946 144.55005,-0.0239 167.15458,-0.20888 168.1226,-1.37528 z M 98.276772,355.91382 c 15.495978,-0.91409 26.979888,-1.8096 38.119168,-2.97251 9.85828,-1.02918 13.32511,-1.0989 71.01466,-1.42812 31.33239,-0.17881 56.48379,-0.0171 55.89201,0.35928 -0.59178,0.37642 2.48715,0.72288 6.84207,0.76993 4.35492,0.047 8.75641,0.25285 9.7811,0.45735 1.81273,0.36177 15.36481,2.01961 18.1649,2.22214 0.76852,0.0556 3.91244,0.34455 6.9865,0.64216 3.07406,0.2976 10.6649,0.7486 16.86854,1.00221 9.23657,0.37759 11.80935,0.18702 14.20588,-1.05227 1.60961,-0.83237 2.9577,-1.81701 2.99577,-2.18811 0.0381,-0.3711 0.31663,-1.7227 0.61902,-3.00356 1.07946,-4.57246 0.37163,-19.98298 -1.21891,-26.53792 -0.49666,-2.04677 -4.76365,-32.60014 -5.5879,-40.01153 -0.28152,-2.53137 -0.70154,-4.9094 -0.93338,-5.28452 -0.23183,-0.37512 -0.65788,-2.69175 -0.94676,-5.14807 -0.28888,-2.45632 -0.73234,-4.80113 -0.98545,-5.21068 -0.25312,-0.40955 -0.62163,-2.30965 -0.81893,-4.22245 -0.1973,-1.91279 -0.82323,-6.62173 -1.39095,-10.4643 -0.56772,-3.84258 -1.1777,-8.45367 -1.35549,-10.24687 -1.13103,-11.40722 -2.91527,-20.31647 -5.41014,-27.01447 -1.96392,-5.27253 -6.21729,-10.19235 -8.92043,-10.31814 -0.84242,-0.0392 -2.37005,-0.27722 -3.39473,-0.52894 -1.02469,-0.25171 -2.49922,-0.55388 -3.27675,-0.67148 -0.77752,-0.11759 -1.82549,-0.4673 -2.32883,-0.77713 -1.21958,-0.75072 -19.45204,-4.63501 -20.54892,-4.3778 -0.47298,0.11092 -1.48876,-0.0758 -2.25727,-0.41495 -3.23704,-1.42847 -28.82211,-2.18967 -78.24881,-2.32805 -43.14583,-0.12079 -54.22659,0.10803 -61.4812,1.26962 -4.86726,0.77933 -10.10714,1.61544 -11.64417,1.85803 -1.53703,0.2426 -3.84257,0.665 -5.12343,0.93865 -1.28086,0.27367 -4.00559,0.74128 -6.05497,1.03915 -2.04937,0.29786 -4.18389,0.91133 -4.74337,1.36326 -0.55948,0.45192 -1.24804,0.5909 -1.53011,0.30882 -0.28208,-0.28208 -2.96824,0.1615 -5.96926,0.98572 -3.00102,0.82422 -5.938087,1.60101 -6.526835,1.72619 -3.363339,0.71516 -7.941991,7.43022 -10.027861,14.70688 -1.887514,6.58469 -6.419719,36.91681 -5.769333,38.61169 0.279033,0.72715 0.105993,1.32208 -0.384531,1.32208 -0.490525,0 -0.864587,0.94318 -0.831249,2.09595 0.03334,1.15278 -0.358934,3.77271 -0.871714,5.82209 -0.512781,2.04937 -1.190236,6.24127 -1.505457,9.31533 -0.792766,7.73111 -2.201699,17.7402 -3.278193,23.28834 -0.497044,2.56171 -1.085591,5.70564 -1.30788,6.9865 -0.22229,1.28085 -0.631354,2.95761 -0.909032,3.72613 -0.277678,0.76851 -0.708255,2.65487 -0.956837,4.1919 -0.248581,1.53703 -1.06781,6.14812 -1.820507,10.24687 -0.752696,4.09874 -1.3676,10.8635 -1.366451,15.0328 0.0019,6.9235 0.227784,7.85434 2.606062,10.73961 1.862321,2.25932 3.481375,3.22592 5.684563,3.3938 1.694323,0.12911 3.214947,0.3691 3.379165,0.53332 0.164218,0.16421 2.28213,0.16067 4.706472,-0.007 2.424341,-0.16897 7.761413,-0.50469 11.86016,-0.74647 z M 321.13954,179.73061 c 3.09802,-1.41231 7.35425,-4.47403 10.0781,-7.24971 4.98657,-5.08144 10.93333,-13.35781 10.95357,-15.24456 0.007,-0.61838 0.59755,-1.349 1.31314,-1.6236 0.7156,-0.2746 1.04018,-0.92142 0.72131,-1.43739 -0.31889,-0.51596 -0.11113,-0.93811 0.46169,-0.93811 0.57282,0 0.78241,-0.41919 0.46577,-0.93153 -0.31665,-0.51235 -0.062,-0.93154 0.56604,-0.93154 0.62798,0 0.87028,-0.27149 0.53845,-0.60331 -0.33182,-0.33182 0.18919,-2.11338 1.15781,-3.95902 2.36269,-4.50191 4.84756,-11.27373 4.13683,-11.27373 -0.31476,0 -0.042,-0.63891 0.60606,-1.41982 0.64808,-0.78089 0.91264,-1.6855 0.5879,-2.01024 -0.32474,-0.32473 -0.17601,-1.08976 0.33049,-1.70006 2.07505,-2.50028 2.85428,-12.48302 2.85439,-36.567776 1.2e-4,-24.499188 -0.74831,-32.824777 -2.95082,-32.824777 -0.52283,0 -0.70031,-0.404995 -0.39438,-0.899989 0.8917,-1.442805 -6.56583,-6.262684 -14.28539,-9.23279 -8.89772,-3.423408 -16.10343,-4.771756 -25.50073,-4.771756 h -7.32554 l -4.71311,4.713116 c -2.59222,2.592213 -4.47857,4.947662 -4.1919,5.23433 0.28667,0.286669 -0.0766,1.11905 -0.80731,1.849736 -0.73068,0.730687 -2.13686,3.929506 -3.12482,7.108487 -0.98798,3.178981 -2.86654,8.609499 -4.17459,12.067816 -1.30804,3.458318 -2.08265,6.29427 -1.72136,6.302115 0.3613,0.0078 0.21434,0.322238 -0.32658,0.69865 -0.54092,0.376412 -1.96199,3.409121 -3.15794,6.739353 -1.19596,3.330232 -3.06796,7.373711 -4.16002,8.985506 l -1.98556,2.930549 -9.19207,-0.13595 c -8.65486,-0.12799 -9.29154,-0.27204 -10.89394,-2.46477 -0.93601,-1.28086 -2.23307,-4.424785 -2.88234,-6.986502 -0.64927,-2.561717 -1.39703,-4.867262 -1.6617,-5.123433 -0.4223,-0.408751 -0.72061,-2.613747 -1.00821,-7.452267 -0.57634,-9.696211 -4.3544,-31.528847 -5.76286,-33.302319 -0.50862,-0.640429 -0.66723,-1.164417 -0.35248,-1.164417 0.31476,0 -0.12503,-1.781557 -0.97731,-3.959016 -1.34416,-3.434163 -7.09311,-10.000911 -8.62038,-9.846647 -0.29016,0.02931 -0.73717,-0.02842 -0.99334,-0.128297 -2.17047,-0.84619 -7.03626,-1.045325 -26.08293,-1.067454 -20.69277,-0.02404 -30.01866,0.498542 -32.1379,1.800874 -0.51235,0.314847 -1.55271,0.666207 -2.31193,0.780801 -0.75921,0.114592 -1.52772,0.650368 -1.70781,1.190611 -0.18008,0.540244 -0.84285,0.982261 -1.47281,0.982261 -1.50637,0 -5.56854,4.388101 -7.36653,7.957601 -1.59927,3.174988 -3.84239,14.310086 -3.04361,15.108866 0.28393,0.283918 0.13905,0.973975 -0.32194,1.533458 -0.46099,0.559484 -0.98135,2.903598 -1.15633,5.209143 -0.175,2.305546 -0.59125,4.401496 -0.92501,4.657667 -0.33375,0.256172 -0.82657,1.723337 -1.09514,3.260367 -0.26858,1.53703 -0.93176,5.016096 -1.47376,7.731257 -0.54198,2.715161 -0.9258,5.230301 -0.85291,5.5892 0.0729,0.358899 -0.0957,1.281329 -0.37475,2.049844 -0.279,0.768515 -1.01568,3.283655 -1.63707,5.5892 -1.44855,5.374519 -3.13333,7.206172 -7.84758,8.531732 -9.09052,2.55606 -14.14476,-0.26993 -17.85415,-9.98283 -0.8692,-2.275956 -1.92944,-4.138102 -2.35609,-4.138102 -0.42666,0 -0.53446,-0.628785 -0.23956,-1.3973 0.29492,-0.768515 0.0474,-1.3973 -0.54997,-1.3973 -0.5974,0 -0.81576,-0.437553 -0.48524,-0.972339 0.33052,-0.534787 0.0943,-1.582762 -0.52484,-2.328834 -0.6192,-0.746071 -0.88985,-1.356494 -0.60147,-1.356494 0.74408,0 -3.77413,-13.017266 -5.05311,-14.558339 -0.58323,-0.702751 -0.78873,-1.277729 -0.45667,-1.277729 0.33206,0 -0.11739,-1.362367 -0.99878,-3.027483 -0.88139,-1.665116 -1.73717,-3.865864 -1.90173,-4.89055 -0.40746,-2.537149 -2.97118,-5.862965 -7.08795,-9.194939 -2.79775,-2.264412 -4.42526,-2.821693 -8.747122,-2.995121 -2.920394,-0.117191 -7.424735,0.168778 -10.009644,0.635485 -2.58491,0.466708 -5.538216,0.987564 -6.562903,1.157458 -4.096833,0.679257 -14.438767,4.55037 -14.438767,5.404607 0,0.500809 -0.41919,0.651489 -0.931534,0.334843 -0.512343,-0.316646 -1.455521,-0.243007 -2.09595,0.163642 -0.640429,0.40665 -1.443689,0.745781 -1.785023,0.753627 -1.668961,0.03836 -6.249972,4.409225 -7.597541,7.249016 -1.255526,2.645822 -1.46021,5.75874 -1.184211,18.009942 0.524655,23.28882 1.573809,40.57242 2.849919,46.94914 0.256325,1.28086 0.716571,3.58641 1.022768,5.12344 0.737647,3.7028 4.346878,14.77957 5.008225,15.3703 0.286796,0.25617 0.640763,1.09455 0.786594,1.86306 0.47817,2.5199 4.349001,10.24687 5.13318,10.24687 0.421626,0 0.528404,0.3854 0.237287,0.85643 -0.291118,0.47104 0.103333,1.48908 0.876557,2.2623 0.773224,0.77323 1.405862,1.63295 1.405862,1.9105 0,0.96377 11.992607,12.66991 12.979961,12.66991 0.546172,0 0.99304,0.41919 0.99304,0.93153 0,0.51234 0.564381,0.93153 1.254181,0.93153 0.689799,0 2.583448,0.66312 4.208109,1.47361 2.232306,1.11362 4.713594,1.35904 10.157102,1.00456 13.24858,-0.86272 22.04089,-1.68324 22.75303,-2.12336 0.38812,-0.23988 3.54563,-0.67019 7.01668,-0.95624 3.47105,-0.28606 6.98946,-0.88179 7.81871,-1.32386 0.82923,-0.44207 1.73065,-0.58079 2.00317,-0.30829 0.27251,0.27251 3.78594,0.0264 7.80762,-0.54693 4.02169,-0.57333 9.19852,-1.21863 11.50407,-1.434 2.30554,-0.21538 6.28785,-0.64295 8.84957,-0.95017 2.56171,-0.30722 6.64882,-0.52072 9.08245,-0.47444 2.43363,0.0463 4.42478,-0.23795 4.42478,-0.63162 0,-0.39366 6.70704,-0.71576 14.90453,-0.71576 8.1975,0 14.90454,0.30942 14.90454,0.6876 0,0.37817 2.61994,0.68847 5.82208,0.68954 3.20215,9.4e-4 8.12763,0.21481 10.94552,0.47496 7.91364,0.73063 18.74892,1.65697 22.3568,1.91136 1.7932,0.12644 3.95079,0.51244 4.79464,0.85779 0.84385,0.34535 2.10142,0.52053 2.7946,0.38929 0.69318,-0.13124 2.5179,0.0397 4.05493,0.37976 3.23366,0.71552 11.64369,1.65732 28.41177,3.18167 8.12253,0.73841 9.69121,0.95135 11.1784,1.51744 5.19079,1.97583 12.60865,1.29982 19.32272,-1.76094 z"
     id="path2820"
     sodipodi:nodetypes="ccssscsssssssssssssscssssssssssssssssssssssssssscsssssssssssssssssssssssssssssssssssssssssssssssssscccsscsssssssssssssssscssssssssscssssssssssssssssssssssscssssssscssssssssssssssssssssssssssssssssssssssscsssscsss" />
  <path
     style="fill:none;fill-opacity:0.06;stroke:#ffffff;stroke-width:0.228849;fill-rule:nonzero;opacity:0"
     d="M 0.93153338,250.58248 V 2.3288335 H 199.81391 398.69629 V 250.58248 498.83613 H 199.81391 0.93153338 Z M 373.9265,481.42388 c 1.58332,-0.80862 4.04287,-2.75934 5.46568,-4.33493 l 2.58692,-2.86471 -0.089,-19.9235 c -0.0489,-10.95794 -0.46837,-22.25474 -0.93209,-25.10402 -0.98613,-6.05915 -5.33068,-17.92473 -6.56306,-17.92473 -0.46756,0 -0.78355,-0.31439 -0.70221,-0.69865 0.44338,-2.09463 -7.10682,-13.27435 -8.9648,-13.27435 -0.53999,0 -1.47977,-0.79737 -2.08839,-1.77192 -1.00169,-1.60397 -8.8928,-4.90619 -12.39941,-5.18884 -0.77753,-0.0627 -1.87214,-0.39728 -2.4325,-0.7436 -1.15727,-0.71524 -7.00212,-1.77007 -10.82548,-1.95371 -1.40894,-0.0676 -2.56172,-0.37991 -2.56172,-0.69388 0,-0.59639 -13.07877,-2.92447 -14.53478,-2.58726 -0.45953,0.10644 -1.57536,-0.12988 -2.47962,-0.52514 -0.90426,-0.39527 -2.47581,-0.50117 -3.49233,-0.23534 -1.01651,0.26582 -2.09222,0.0885 -2.39045,-0.39404 -0.29823,-0.48255 -2.08021,-0.90908 -3.95995,-0.94786 -9.88214,-0.20384 -17.54504,-0.6323 -18.788,-1.0505 -1.31363,-0.44199 -23.02148,-2.23989 -39.59017,-3.27897 -9.86146,-0.61845 -54.0031,-0.61567 -67.53617,0.005 -5.89195,0.26989 -13.54217,0.52379 -17.00048,0.56422 -3.45832,0.0404 -6.29214,0.41004 -6.29738,0.82136 -0.006,0.41132 -3.85801,0.83852 -8.56169,0.94933 -4.70369,0.11082 -9.20569,0.47602 -10.00445,0.81155 -0.79877,0.33554 -3.65305,0.52888 -6.34285,0.42964 -2.68981,-0.0992 -4.89055,0.16434 -4.89055,0.58574 0,0.4214 -2.41035,0.83647 -5.35632,0.92235 -8.11719,0.23665 -8.10577,0.23559 -23.05545,2.13258 -7.685152,0.97518 -18.2697,2.06593 -23.521219,2.42388 -5.25152,0.35795 -9.548217,0.97676 -9.548217,1.37514 0,0.39838 -0.840613,0.5045 -1.868029,0.23582 -1.027416,-0.26868 -2.428352,-0.0235 -3.113193,0.5449 -0.684841,0.56836 -1.468893,0.80967 -1.742339,0.53621 -0.732153,-0.73254 -12.83864,2.46597 -12.83864,3.39156 0,0.43397 -0.567986,0.57108 -1.262191,0.30469 -1.797865,-0.6899 -8.820613,4.93853 -12.933247,10.36544 -4.332097,5.71651 -7.30531,11.73347 -10.566542,21.38376 -2.326348,6.88388 -2.551291,8.89668 -2.94929,26.39042 -0.580785,25.52803 0.507032,28.39652 11.363247,29.96392 2.58712,0.37352 80.12019,0.71285 172.29571,0.75405 150.92236,0.0675 167.87819,-0.0713 170.47061,-1.39527 z M 92.526249,356.6281 c 0.338221,-0.33822 3.552011,-0.51969 7.141749,-0.40327 3.589752,0.11643 6.526812,-0.13082 6.526812,-0.54946 0,-0.41864 3.03912,-0.80258 6.75361,-0.85321 3.71449,-0.0507 9.26876,-0.30079 12.34282,-0.55588 3.07406,-0.2551 8.52353,-0.6922 12.10993,-0.97134 15.69543,-1.2216 115.72743,-1.8859 126.68854,-0.8413 14.83655,1.41392 25.15672,2.21499 30.27484,2.35 2.30554,0.0608 4.4456,0.45632 4.75569,0.87889 0.90721,1.23629 36.23178,1.83356 36.23178,0.61261 0,-0.56381 0.36317,-0.80066 0.80703,-0.52633 1.02745,0.635 3.53214,-2.20805 3.83041,-4.34784 0.40867,-2.93186 0.33597,-15.02395 -0.12182,-20.26085 -0.73476,-8.40515 -4.88791,-35.84436 -5.4658,-36.11163 -0.29444,-0.13617 -0.36484,-1.70813 -0.15644,-3.49325 0.24176,-2.07085 -0.0151,-3.24566 -0.70951,-3.24566 -0.59863,0 -0.80944,-0.45141 -0.46846,-1.00313 0.68467,-1.10781 -1.46,-15.76132 -2.30804,-15.76974 -0.29194,-0.003 -0.60948,-1.57486 -0.70565,-3.49325 -0.0962,-1.91839 -1.05121,-9.35664 -2.12234,-16.52945 -1.07113,-7.1728 -1.92249,-14.40383 -1.89193,-16.06895 0.0306,-1.66511 -0.40148,-3.02748 -0.96011,-3.02748 -0.55863,0 -0.75271,-0.42552 -0.43129,-0.94559 0.6521,-1.05512 -1.38766,-11.16397 -2.25287,-11.16501 -0.30273,-3.5e-4 -0.61659,-1.14025 -0.69748,-2.5331 -0.0808,-1.39285 -0.60748,-2.68592 -1.17022,-2.87351 -0.56274,-0.18758 -0.80172,-0.69934 -0.53108,-1.13725 0.27064,-0.43791 -0.74687,-2.20728 -2.26113,-3.93194 -2.38768,-2.71941 -4.09469,-3.47287 -12.85742,-5.67514 -25.73709,-6.46832 -24.15087,-6.3549 -95.51574,-6.8292 -39.64735,-0.26351 -64.97446,-0.0949 -64.97446,0.43267 0,0.47548 -0.94317,0.6978 -2.09595,0.49404 -3.35067,-0.59223 -38.23965,6.07375 -43.674473,8.34457 -2.8999,1.21165 -7.481554,6.2366 -5.718264,6.27152 0.396069,0.007 0.279087,0.32224 -0.259944,0.69865 -1.376491,0.96121 -4.415816,7.70895 -3.765287,8.35948 0.295509,0.29551 0.176966,0.99505 -0.263429,1.55453 -1.171297,1.48803 -3.208378,13.33287 -2.576283,14.98009 0.297051,0.7741 0.181216,1.40746 -0.257411,1.40746 -0.438627,0 -1.282568,4.29669 -1.875426,9.54821 -0.592857,5.25152 -1.505576,11.23228 -2.028263,13.29058 -0.522688,2.0583 -1.08926,5.41182 -1.25905,7.45227 -0.169791,2.04045 -0.518915,4.33869 -0.775833,5.1072 -0.256918,0.76852 -1.167129,6.84677 -2.02269,13.50724 -0.855562,6.66046 -2.351794,15.67305 -3.324958,20.02797 -2.60553,11.65975 -3.851944,19.48434 -3.257074,20.44686 0.288819,0.46732 0.0991,1.11297 -0.421603,1.43478 -0.538916,0.33307 -0.946728,4.58822 -0.946728,9.87824 0,9.56922 1.336292,13.88525 4.299036,13.88525 0.70959,0 1.290164,0.39004 1.290164,0.86675 0,0.47671 0.943178,1.0484 2.09595,1.27044 3.478943,0.67007 14.317749,0.7008 14.976095,0.0425 z M 314.36737,182.15546 c 0.30282,-0.48997 1.16594,-0.65471 1.91805,-0.36611 0.7521,0.28862 1.36746,0.036 1.36746,-0.56142 0,-0.59739 0.40688,-0.83471 0.90418,-0.52736 1.54774,0.95655 6.4724,-2.21333 12.00989,-7.73049 5.54738,-5.527 11.03705,-12.28057 9.98233,-12.28057 -0.55923,0 -0.13311,-0.61634 2.75952,-3.99134 1.48014,-1.72697 7.44424,-16.1586 9.70715,-23.4889 2.8716,-9.30204 4.26072,-33.715496 3.09819,-54.450137 -0.88034,-15.701388 -0.9269,-15.945836 -3.68605,-19.354868 -2.96044,-3.657727 -13.63606,-9.673665 -17.56876,-9.900373 -1.26533,-0.07294 -2.3009,-0.389735 -2.30125,-0.703985 -8e-4,-0.689864 -9.95403,-2.765601 -12.57636,-2.622787 -1.02469,0.05581 -4.58781,-0.188154 -7.91804,-0.542133 l -6.05496,-0.6436 -4.72142,4.984542 c -4.79596,5.063237 -9.37184,13.063822 -8.385,14.660562 0.29828,0.482618 0.18942,1.018088 -0.24191,1.189934 -0.43133,0.171844 -2.5707,5.342725 -4.75418,11.490846 -2.18348,6.14812 -5.39868,14.189739 -7.14492,17.870266 l -3.17495,6.691863 -9.27208,0.29464 -9.27208,0.29463 -1.81011,-3.260365 c -0.99556,-1.793202 -2.33655,-5.041924 -2.97999,-7.219383 -0.64345,-2.17746 -1.54747,-3.959017 -2.00896,-3.959017 -0.46149,0 -0.586,-0.409461 -0.27671,-0.909912 0.63622,-1.029416 -1.27505,-20.478007 -2.15341,-21.912656 -0.31369,-0.512344 -0.45372,-1.834674 -0.31119,-2.938512 0.14253,-1.103837 -0.16649,-2.270034 -0.68671,-2.591549 -0.52021,-0.321514 -0.70767,-1.205269 -0.41655,-1.963902 0.29111,-0.758631 0.0669,-1.936549 -0.49837,-2.617594 -0.56522,-0.681045 -0.77993,-1.485999 -0.47714,-1.788789 0.48572,-0.485725 -0.61591,-5.048614 -2.18718,-9.059155 -0.67287,-1.717426 -0.90716,-2.533887 -1.05767,-3.685654 -0.0641,-0.490079 -1.72946,-2.637936 -3.70092,-4.773014 -3.57737,-3.87426 -3.60278,-3.883748 -12.80858,-4.782538 -11.10718,-1.084425 -46.57557,-0.15903 -50.83657,1.326362 -3.564,1.242418 -11.01918,6.318699 -11.01918,7.503035 0,0.450314 -0.61771,1.436458 -1.37268,2.191435 -1.6423,1.642299 -3.60067,8.408221 -2.80593,9.694134 0.30934,0.500522 0.11851,0.91004 -0.42408,0.91004 -0.54258,0 -0.98651,1.362524 -0.98651,3.027832 0,1.665307 -0.67025,5.962005 -1.48944,9.548217 -0.81919,3.586212 -1.60367,7.358765 -1.74328,8.383452 -0.13961,1.024687 -0.56218,2.59665 -0.93905,3.49325 -0.37688,0.896601 -0.44394,2.258969 -0.14902,3.027484 0.2949,0.768515 0.13015,1.3973 -0.36611,1.3973 -0.49626,0 -0.9023,1.213414 -0.9023,2.696477 0,4.012521 -3.46464,14.477263 -5.36142,16.193822 -2.09505,1.89599 -9.38458,3.56432 -12.38288,2.83403 -1.25602,-0.30593 -3.27309,-1.44154 -4.48237,-2.52359 -2.5045,-2.240981 -7.65127,-12.852133 -9.42598,-19.433622 -0.65622,-2.433631 -1.5826,-4.424784 -2.05859,-4.424784 -0.476,0 -0.62078,-0.395872 -0.32175,-0.879716 0.29903,-0.483843 -0.9338,-4.61605 -2.73962,-9.18268 -1.80583,-4.56663 -3.28332,-8.770626 -3.28332,-9.342213 0,-1.498063 -7.49905,-9.425424 -10.24687,-10.832122 -2.36818,-1.212348 -14.448149,-1.827418 -16.080211,-0.818748 -0.49207,0.304114 -2.419996,0.667528 -4.284282,0.807585 -1.864285,0.140056 -5.90475,1.183957 -8.97881,2.319778 -3.07406,1.135821 -7.543007,2.749224 -9.930992,3.585339 -2.43899,0.853974 -5.909089,3.135116 -7.918034,5.205087 l -3.576242,3.684878 -0.239836,14.480023 c -0.13191,7.964012 0.157186,19.929493 0.642435,26.589955 0.485249,6.66047 1.064799,14.83467 1.287891,18.1649 0.22309,3.33023 0.952816,7.94133 1.621612,10.24687 0.668796,2.30555 1.297546,4.50629 1.397221,4.89055 0.09968,0.38426 0.264777,0.80345 0.366892,0.93153 0.102115,0.12809 0.357134,1.1476 0.566707,2.26557 0.587159,3.1322 5.650547,15.496 8.536793,20.84517 1.423337,2.63792 5.847016,7.91086 9.830396,11.71765 7.008648,6.69794 11.090901,9.30233 12.863629,8.20672 0.469349,-0.29008 0.853362,-0.133 0.853362,0.34906 0,1.03623 15.428919,1.45814 17.034539,0.4658 0.60694,-0.37511 2.49453,-0.56217 4.19464,-0.4157 1.70011,0.14647 5.89804,-0.16354 9.32874,-0.68893 32.23113,-4.93591 54.92816,-7.07083 74.70535,-7.02692 13.47406,0.0299 35.10525,0.99981 37.43158,1.67833 1.15298,0.3363 23.54878,2.59833 28.77868,2.90673 1.32011,0.0779 2.8562,0.42335 3.41353,0.76779 0.55732,0.34445 2.41156,0.60586 4.12052,0.58091 4.55446,-0.0665 27.79526,2.66937 31.0532,3.65551 3.79588,1.14898 12.33708,1.24429 13.01632,0.14525 z"
     id="path2859" />
  <path
     style="opacity:0;fill:#ffffff;fill-opacity:0;fill-rule:nonzero;stroke:#ffffff;stroke-width:0.228849"
     d="M 1.8630668,250.58248 V 2.3288335 H 199.81391 397.76475 V 250.58248 498.83613 H 199.81391 1.8630668 Z M 373.94129,481.43323 c 1.57518,-0.79506 4.0283,-2.69265 5.45138,-4.21689 l 2.58741,-2.77133 -0.0894,-20.0339 c -0.0492,-11.01863 -0.46886,-22.36511 -0.93258,-25.21439 -0.98615,-6.05915 -5.3307,-17.92473 -6.56308,-17.92473 -0.46756,0 -0.78355,-0.31439 -0.70221,-0.69865 0.44338,-2.09463 -7.10682,-13.27435 -8.9648,-13.27435 -0.53999,0 -1.47977,-0.79737 -2.08839,-1.77192 -1.00169,-1.60397 -8.8928,-4.90619 -12.39941,-5.18884 -0.77753,-0.0627 -1.8255,-0.36193 -2.32884,-0.66504 -1.73459,-1.04456 -11.60293,-2.74639 -12.54592,-2.16358 -0.51971,0.3212 -0.94494,0.19002 -0.94494,-0.29152 0,-1.02345 -20.03144,-4.28777 -21.34189,-3.47787 -0.4874,0.30123 -1.15873,0.10669 -1.49185,-0.43231 -0.33312,-0.53901 -2.14365,-1.00717 -4.02339,-1.04035 -9.02546,-0.15933 -17.82663,-0.67531 -18.50294,-1.08473 -0.41296,-0.25 -6.61949,-0.60364 -13.7923,-0.78587 -7.1728,-0.18224 -13.30703,-0.69628 -13.63162,-1.14231 -0.32459,-0.44603 -4.51649,-1.03471 -9.31533,-1.30818 -11.97911,-0.68264 -57.80705,-1.17726 -59.34338,-0.64049 -0.68581,0.23961 -8.64888,0.63955 -17.69572,0.88875 -9.91637,0.27315 -16.57422,0.82941 -16.76465,1.40067 -0.17372,0.52117 -0.73368,0.68936 -1.24435,0.37376 -1.09941,-0.67948 -28.72145,1.59274 -28.72145,2.36266 0,0.46933 -4.09468,0.73173 -13.77775,0.88289 -1.68582,0.0264 -3.52332,0.33103 -4.08333,0.67713 -0.56001,0.34611 -2.53422,0.70153 -4.38714,0.78983 -5.90481,0.28137 -27.535096,2.56374 -28.986119,3.05853 -0.768515,0.26206 -3.388453,0.39296 -5.822084,0.2909 -2.568422,-0.10772 -4.424783,0.22195 -4.424783,0.78579 0,0.53425 -0.576357,0.75019 -1.280793,0.47987 -1.702203,-0.6532 -18.281408,3.26862 -18.281408,4.32447 0,0.45358 -0.567986,0.60672 -1.262191,0.34033 -1.797865,-0.6899 -8.820613,4.93853 -12.933247,10.36544 -4.314032,5.69267 -7.284223,11.69088 -10.588804,21.38376 -2.400985,7.04248 -2.555487,8.52794 -2.809759,27.01446 -0.309692,22.51577 0.276691,25.30863 5.871117,27.96336 1.807944,0.85793 4.301287,1.36601 5.540761,1.12906 1.239473,-0.23693 2.469417,-0.0816 2.733209,0.34525 0.263793,0.42683 76.200761,0.76251 168.748831,0.74597 150.17836,-0.0268 168.57712,-0.18549 171.13317,-1.47563 z M 92.379567,356.77478 c 0.257549,-0.25755 6.502329,-0.7036 13.877283,-0.99121 7.37495,-0.28762 13.62674,-0.81048 13.89287,-1.16191 0.26612,-0.35144 2.7894,-0.6815 5.60729,-0.73347 2.81789,-0.052 8.05776,-0.3209 11.64416,-0.59763 15.79823,-1.21899 115.7508,-1.87929 126.68854,-0.83692 14.83655,1.41392 25.15672,2.21499 30.27484,2.35 2.30554,0.0608 4.4456,0.45632 4.75569,0.87889 0.31009,0.42257 8.54673,0.96289 18.30364,1.20072 17.70418,0.43155 17.74509,0.42789 20.35699,-1.81877 2.52601,-2.17278 2.61636,-2.55524 2.59437,-10.98182 -0.0126,-4.80185 -0.23103,-10.82659 -0.48556,-13.38831 -0.8369,-8.42348 -4.92267,-35.38829 -5.43418,-35.86403 -0.27543,-0.25618 -0.57298,-2.56172 -0.6612,-5.12344 -0.19433,-5.6418 -2.32404,-18.1649 -3.08918,-18.1649 -0.30249,0 -0.53345,-0.94318 -0.51326,-2.09595 0.0688,-3.92954 -2.56101,-22.12392 -3.19784,-22.12392 -0.34906,0 -0.45085,-1.25242 -0.22618,-2.78317 0.22466,-1.53074 0.094,-3.52189 -0.29033,-4.42478 -0.38435,-0.90289 -0.60864,-3.00398 -0.49844,-4.6691 0.11019,-1.66511 -0.23779,-3.02748 -0.77331,-3.02748 -0.53552,0 -0.74664,-0.59165 -0.46915,-1.31477 0.66658,-1.73708 -3.30818,-16.38437 -4.44616,-16.38437 -0.48644,0 -0.64089,-0.39409 -0.3432,-0.87576 0.29769,-0.48167 -0.6977,-2.28684 -2.21196,-4.0115 -2.3938,-2.72638 -4.09232,-3.47228 -13.01127,-5.71381 -15.09406,-3.79347 -23.48627,-5.21723 -35.97664,-6.10351 -14.34948,-1.01819 -124.35971,-1.24185 -124.35971,-0.25283 0,0.41099 -1.46716,0.57596 -3.26036,0.36661 -1.83615,-0.21436 -3.26037,0.0327 -3.26037,0.56561 0,0.52044 -0.73358,0.76223 -1.63018,0.53733 -0.8966,-0.2249 -6.24128,0.47642 -11.87705,1.55848 -5.63578,1.08206 -12.28018,2.33469 -14.76532,2.78362 -8.75993,1.58245 -16.132239,4.72688 -15.078787,6.43141 0.269558,0.43615 -0.162841,1.04356 -0.960895,1.3498 -0.798042,0.30624 -1.190085,0.97894 -0.871203,1.49491 0.318882,0.51596 0.181372,0.93811 -0.305578,0.93811 -1.038795,0 -4.193381,7.45165 -3.463552,8.18148 0.273166,0.27316 0.08646,0.99093 -0.414896,1.59503 -0.501359,0.60411 -1.078083,2.73862 -1.281608,4.74338 -0.203526,2.00476 -0.624266,4.2738 -0.934978,5.04231 -0.629165,1.55618 -4.438183,28.68502 -4.643106,33.06944 -0.07184,1.53703 -0.456397,3.03597 -0.854575,3.33098 -0.398177,0.29501 -0.888473,3.01975 -1.089547,6.05497 -0.201073,3.03522 -0.56441,6.14737 -0.807416,6.91588 -0.923891,2.92185 -3.426824,22.5464 -2.969883,23.28574 0.263438,0.42625 0.09214,0.9156 -0.380666,1.08745 -1.079488,0.39235 -4.05854,14.622 -3.413246,16.30361 0.262172,0.68321 0.02306,1.2422 -0.531348,1.2422 -0.593393,0 -0.836838,1.16638 -0.591846,2.83562 0.228898,1.55958 0.101426,3.03014 -0.283274,3.2679 -0.384699,0.23776 -0.734495,4.79764 -0.777323,10.13309 -0.07696,9.58767 -0.04517,9.7335 2.725738,12.50441 1.541985,1.54199 3.74323,2.98481 4.891656,3.20628 3.065995,0.59125 14.276092,0.73351 14.82151,0.1881 z M 314.40191,182.09958 c 0.3218,-0.5207 0.9477,-0.72263 1.39087,-0.44874 1.05558,0.65239 8.38084,-2.28734 8.38084,-3.36334 0,-0.45672 0.46475,-0.83039 1.03279,-0.83039 0.56803,0 3.33832,-2.30555 6.15621,-5.12343 2.81789,-2.81789 4.77501,-5.12344 4.34915,-5.12344 -0.42586,0 0.16437,-0.65746 1.31162,-1.46103 1.14726,-0.80357 1.87173,-1.80763 1.60993,-2.23123 -0.2618,-0.4236 0.21037,-1.03357 1.04928,-1.35548 0.8389,-0.32192 1.28088,-0.8297 0.98218,-1.12841 -0.49906,-0.49906 -0.14053,-1.08703 2.64402,-4.33592 1.68864,-1.97024 7.98332,-17.44351 7.44834,-18.30913 -0.28171,-0.45581 -0.12041,-0.96934 0.35844,-1.14119 0.47886,-0.17185 1.70153,-3.4969 2.71705,-7.38901 2.35407,-9.02227 3.4242,-35.094629 2.20614,-53.749748 -0.83429,-12.777476 -0.98204,-13.45814 -3.63966,-16.7676 -2.87731,-3.583022 -13.82602,-9.83234 -15.88268,-9.065536 -0.64042,0.238778 -1.16441,-0.01674 -1.16441,-0.56782 0,-0.551078 -0.62879,-0.760673 -1.3973,-0.465767 -0.76852,0.294908 -1.3973,0.08127 -1.3973,-0.474748 0,-0.55602 -0.81828,-0.796959 -1.8184,-0.535421 -1.00012,0.261538 -1.95986,0.05114 -2.13277,-0.46755 -0.17289,-0.51869 -2.60333,-1.092029 -5.40098,-1.274086 -2.79764,-0.182058 -7.81136,-0.599456 -11.14159,-0.92755 l -6.05496,-0.596538 -4.48729,4.53123 c -4.50107,4.545144 -9.60993,13.535634 -8.61053,15.152687 0.29355,0.474973 0.19041,1.004186 -0.2292,1.176032 -1.13289,0.463957 -5.8723,13.83112 -5.25694,14.826797 0.29095,0.470772 0.16929,0.855949 -0.27036,0.855949 -0.43967,0 -1.35775,1.571963 -2.04021,3.49325 -0.68245,1.921288 -2.67211,6.532378 -4.42147,10.246867 l -3.18064,6.753622 h -9.25143 c -8.62979,0 -9.34589,-0.14419 -10.65739,-2.145782 -2.76193,-4.215236 -5.0011,-12.709432 -6.09778,-23.131585 -0.61269,-5.82267 -1.37246,-11.005863 -1.68839,-11.518206 -0.31593,-0.512344 -0.45781,-1.834674 -0.31528,-2.938512 0.14253,-1.103837 -0.16649,-2.270034 -0.68671,-2.591549 -0.52021,-0.321514 -0.70767,-1.205269 -0.41655,-1.963902 0.29111,-0.758631 0.0669,-1.936549 -0.49837,-2.617594 -0.56522,-0.681045 -0.792,-1.47393 -0.50396,-1.761969 0.28804,-0.288038 -0.37756,-3.549992 -1.47911,-7.248786 -1.42461,-4.783581 -3.00536,-7.799853 -5.47547,-10.447947 -3.43559,-3.683124 -3.57154,-3.732519 -12.73486,-4.626946 -11.13795,-1.087168 -46.60689,-0.164893 -50.87466,1.32286 -3.564,1.242418 -11.01918,6.318699 -11.01918,7.503035 0,0.450314 -0.61771,1.436458 -1.37268,2.191435 -1.6423,1.642299 -3.60067,8.408221 -2.80593,9.694134 0.30934,0.500522 0.11851,0.91004 -0.42408,0.91004 -0.54258,0 -0.98651,1.362524 -0.98651,3.027832 0,1.665307 -0.66243,5.962005 -1.47206,9.548217 -0.80965,3.586212 -2.09057,9.664311 -2.84652,13.506886 -3.91058,19.878196 -5.29884,22.599409 -12.29475,24.099759 -5.28681,1.13382 -8.19382,0.58773 -11.20254,-2.10442 -2.5045,-2.240981 -7.65127,-12.852133 -9.42598,-19.433622 -0.65622,-2.433631 -1.5826,-4.424784 -2.05859,-4.424784 -0.476,0 -0.60856,-0.415649 -0.29459,-0.923666 0.31397,-0.508016 -0.91885,-4.647092 -2.73962,-9.197945 -1.82077,-4.550855 -3.31048,-8.769875 -3.31048,-9.375601 0,-1.338672 -8.11738,-9.660705 -10.71264,-10.982731 -2.37382,-1.20922 -15.110236,-1.435074 -15.82374,-0.280602 -0.295766,0.478561 -1.10384,0.652883 -1.795719,0.387384 -1.45433,-0.558079 -11.747885,1.960761 -12.569463,3.075757 -0.303423,0.411787 -1.180463,0.832274 -1.948978,0.934418 -4.363216,0.579913 -11.411456,3.998627 -14.552987,7.058855 l -3.611914,3.518437 -0.280593,13.249164 c -0.49602,23.421257 2.398889,58.089276 5.2284,62.612746 0.323122,0.51657 0.716542,1.7776 0.874267,2.80229 0.157724,1.02468 0.696451,2.00366 1.19717,2.17551 0.500719,0.17185 0.702551,0.64875 0.448515,1.05979 -0.521363,0.84358 3.747729,11.45013 7.074281,17.57603 1.20773,2.22405 5.461681,7.16386 9.453226,10.97737 7.022498,6.70925 11.105257,9.31483 12.878474,8.21892 0.469349,-0.29008 0.853362,-0.0623 0.853362,0.50625 0,1.19743 22.288079,0.60933 30.740599,-0.81114 11.19072,-1.88062 40.05952,-5.39068 51.70011,-6.28603 15.77914,-1.21368 58.42156,-0.45705 59.94219,1.06359 0.24872,0.24872 2.17985,0.45221 4.29138,0.45221 2.11155,0 8.85352,0.65603 14.98217,1.45784 6.12864,0.80182 13.23894,1.66216 15.80066,1.91188 17.62593,1.71819 30.21073,3.25367 32.60367,3.97798 3.88429,1.17574 12.34365,1.23367 13.05086,0.0893 z"
     id="path5217" />
  <path
     style="opacity:0;fill:#ffffff;fill-opacity:0;fill-rule:nonzero;stroke:#ffffff;stroke-width:0.228849"
     d="m 305.07718,345.05004 c -3.5864,-0.97788 -10.92223,-2.22614 -16.30183,-2.77391 -5.37961,-0.54777 -13.55381,-1.59451 -18.1649,-2.32609 -12.22379,-1.93941 -110.43172,-1.92915 -123.31702,0.0129 -4.9284,0.74282 -16.29655,1.8022 -25.26256,2.35422 -8.96601,0.55202 -19.02657,1.60631 -22.356798,2.34288 -8.887973,1.96581 -11.811503,1.78777 -14.48111,-0.88183 -1.956257,-1.95626 -2.286491,-3.15663 -2.286491,-8.31125 0,-5.82987 4.370208,-34.26578 7.046997,-45.85315 0.721968,-3.12527 1.962826,-10.67069 2.757462,-16.7676 0.794636,-6.0969 2.239751,-15.27718 3.211366,-20.40061 0.971615,-5.12344 2.038137,-11.7603 2.370049,-14.74858 0.644542,-5.80297 3.453715,-14.93044 5.267965,-17.11647 2.1976,-2.64794 6.6047,-4.07944 22.86701,-7.42758 l 16.56305,-3.41006 53.34711,-0.38543 c 59.61584,-0.43072 71.12734,0.12588 91.8857,4.44277 14.65822,3.04831 20.29546,5.22771 22.06255,8.52955 0.96724,1.8073 6.02667,31.60996 9.77776,57.59603 0.77654,5.37961 2.48158,17.11693 3.78898,26.08294 4.46735,30.63667 4.69431,36.48123 1.53922,39.63631 -1.91139,1.91141 -12.23076,1.60916 -20.31451,-0.59499 z"
     id="path5293" />
</svg>
