<?xml version="1.0" encoding="UTF-8" standalone="no"?>
<svg
   id="svg"
   version="1.1"
   width="400"
   height="424.7422680412371"
   viewBox="0, 0, 400,424.7422680412371"
   sodipodi:docname="wb.svg"
   inkscape:version="1.1.2 (0a00cf5339, 2022-02-04)"
   xmlns:inkscape="http://www.inkscape.org/namespaces/inkscape"
   xmlns:sodipodi="http://sodipodi.sourceforge.net/DTD/sodipodi-0.dtd"
   xmlns:xlink="http://www.w3.org/1999/xlink"
   xmlns="http://www.w3.org/2000/svg"
   xmlns:svg="http://www.w3.org/2000/svg">
  <defs
     id="defs8142">
    <clipPath
       clipPathUnits="userSpaceOnUse"
       id="clipPath917">
      <use
         x="0"
         y="0"
         xlink:href="#g913"
         id="use919" />
    </clipPath>
  </defs>
  <sodipodi:namedview
     id="namedview8140"
     pagecolor="#ffffff"
     bordercolor="#cccccc"
     borderopacity="1"
     inkscape:pageshadow="0"
     inkscape:pageopacity="1"
     inkscape:pagecheckerboard="0"
     showgrid="false"
     inkscape:zoom="0.63345265"
     inkscape:cx="194.17394"
     inkscape:cy="248.63737"
     inkscape:window-width="1680"
     inkscape:window-height="1014"
     inkscape:window-x="1920"
     inkscape:window-y="0"
     inkscape:window-maximized="1"
     inkscape:current-layer="svg" />
  <g
     id="g915"
     clip-path="url(#clipPath917)">
    <g
       inkscape:label="Clip"
       id="g913">
      <path
         id="path0"
         d="m 195.952,22.981 c -0.12,0.12 -1.013,0.388 -1.985,0.597 -4.412,0.945 -5.822,1.293 -6.567,1.619 -0.44,0.193 -1.52,0.58 -2.4,0.862 -0.88,0.281 -2.078,0.833 -2.662,1.226 -0.584,0.393 -1.174,0.715 -1.311,0.715 -0.389,0 -6.403,2.885 -6.627,3.18 -0.11,0.144 -0.92,0.785 -1.8,1.424 -3.372,2.448 -10.6,10.453 -10.6,11.738 0,0.257 -0.335,1.23 -0.745,2.162 -2.951,6.713 -3.016,7.127 -3.014,19.096 0.002,8.36 0.156,11.528 0.729,14.992 1.636,9.888 -0.015,16.615 -5.239,21.343 -3.541,3.204 -8.042,7.69 -8.829,8.797 -0.386,0.543 -1.851,2.086 -3.256,3.428 -1.404,1.342 -3.612,3.475 -4.905,4.74 -1.293,1.265 -2.49,2.3 -2.66,2.3 -0.169,0 -0.653,0.585 -1.074,1.3 -0.851,1.444 -2.554,3.423 -5.707,6.632 -1.155,1.175 -2.1,2.285 -2.1,2.465 0,0.18 -0.641,1.109 -1.425,2.065 -0.783,0.956 -1.663,2.031 -1.955,2.39 -0.291,0.359 -1.03,1.505 -1.641,2.548 -0.611,1.043 -1.531,2.316 -2.045,2.83 -0.514,0.513 -0.934,1.212 -0.934,1.552 0,0.34 -0.18,0.618 -0.4,0.618 -0.22,0 -0.4,0.255 -0.4,0.567 0,0.311 -0.157,0.626 -0.348,0.7 -0.445,0.17 -3.252,4.565 -3.252,5.091 0,0.498 -1.596,3.258 -2.309,3.992 -0.294,0.303 -0.91,1.383 -1.369,2.4 -1.882,4.172 -6.066,12.696 -6.883,14.026 -0.481,0.783 -1.314,2.774 -1.85,4.424 -0.536,1.65 -1.383,3.854 -1.882,4.898 -0.499,1.044 -0.907,2.079 -0.907,2.3 0,0.221 -0.156,0.402 -0.347,0.402 -0.191,0 -0.462,0.675 -0.601,1.5 -0.14,0.825 -0.443,2.58 -0.675,3.9 -3.114,17.769 -1.742,59.087 2.225,67 0.717,1.43 1.702,3.741 2.189,5.135 1.328,3.8 8.765,18.437 10.283,20.237 0.729,0.865 1.326,1.723 1.326,1.909 0,0.444 1.998,3.504 2.951,4.519 0.413,0.44 1.253,1.576 1.865,2.523 0.613,0.948 1.67,2.255 2.349,2.904 0.679,0.649 1.235,1.344 1.235,1.544 0,0.2 0.902,1.414 2.003,2.697 1.102,1.282 2.362,3.052 2.8,3.932 0.438,0.88 1.255,2.032 1.815,2.559 0.56,0.528 1.496,1.788 2.081,2.8 0.584,1.013 1.17,1.931 1.301,2.041 1.663,1.395 3.321,6.145 3.238,9.276 -0.107,3.99 -1.871,6.216 -6.438,8.125 -1.724,0.72 -4.371,0.764 -62.8,1.048 -33.55,0.163 -61.765,0.417 -62.7,0.566 L 0,326.884 V 344.442 362 h 1.153 c 1.186,0 1.199,0.02 2.039,3 1.16,4.115 1.985,7.679 2.777,12 0.202,1.1 0.743,3.44 1.202,5.2 0.85,3.256 1.312,5.878 2.045,11.6 0.472,3.688 1.259,6.843 2.394,9.6 0.181,0.44 0.415,1.25 0.519,1.8 1.134,5.999 2.721,8.884 5.707,10.375 4.122,2.059 2.03,1.995 66.68,2.011 62.064,0.014 64.415,-0.039 71.884,-1.625 2.09,-0.443 4.43,-0.913 5.2,-1.042 1.194,-0.201 3.323,-1.326 4,-2.113 0.11,-0.128 1.186,-0.856 2.391,-1.619 1.924,-1.218 3.819,-2.702 6.609,-5.177 0.44,-0.39 1.79,-1.837 3,-3.214 2.783,-3.168 5.446,-5.682 7.837,-7.396 0.613,-0.44 2.116,-1.54 3.339,-2.445 2.21,-1.634 4.109,-2.626 6.024,-3.148 5.841,-1.59 7.693,-1.501 12.19,0.585 2.736,1.269 7.48,5.673 10.715,9.946 3.001,3.965 7.695,8.894 10.903,11.448 1.095,0.873 2.082,1.683 2.192,1.8 0.765,0.818 1.872,1.351 4.262,2.054 6.701,1.972 5.68,1.945 73.018,1.953 65.493,0.007 65.386,0.01 68.963,-1.66 3.476,-1.623 4.618,-3.392 6.155,-9.533 1.086,-4.339 1.749,-6.778 2.237,-8.228 0.301,-0.896 0.74,-2.876 0.974,-4.4 0.235,-1.525 0.59,-3.852 0.791,-5.172 0.951,-6.254 1.715,-10.367 2.38,-12.8 0.24,-0.88 0.701,-3.13 1.024,-5 0.902,-5.222 1.237,-6.754 2.184,-10 0.481,-1.65 1.038,-4.08 1.238,-5.4 1.178,-7.768 2.321,-13.592 3.18,-16.2 0.181,-0.55 0.437,-1.495 0.569,-2.1 0.183,-0.84 0.475,-1.1 1.233,-1.1 0.968,0 0.992,-0.073 0.992,-3 0,-2.915 -0.028,-3 -0.977,-3 -0.661,0 -1.206,-0.387 -1.683,-1.194 -1.572,-2.661 1.935,-2.513 -65.94,-2.789 -66.268,-0.271 -62.985,-0.16 -65.255,-2.207 -0.251,-0.225 -0.791,-0.699 -1.2,-1.053 -1.491,-1.287 -2.174,-2.431 -2.733,-4.577 -0.314,-1.204 -0.664,-2.341 -0.779,-2.526 -0.114,-0.185 -0.036,-0.858 0.173,-1.495 0.21,-0.638 0.765,-2.329 1.234,-3.759 1.094,-3.338 1.954,-5.204 2.847,-6.175 0.392,-0.427 0.713,-1.012 0.713,-1.3 0,-0.289 0.18,-0.525 0.4,-0.525 0.22,0 0.4,-0.255 0.4,-0.566 0,-0.311 0.725,-1.346 1.612,-2.3 0.887,-0.954 1.903,-2.274 2.259,-2.934 0.797,-1.477 2.429,-3.687 3.629,-4.915 0.495,-0.507 0.902,-1.138 0.904,-1.403 0.003,-0.265 0.813,-1.558 1.8,-2.874 0.988,-1.316 1.796,-2.497 1.796,-2.625 0,-0.128 0.352,-0.61 0.782,-1.071 1.026,-1.102 3.618,-5.163 3.618,-5.67 0,-0.488 1.59,-3.251 2.281,-3.964 0.437,-0.451 2.642,-4.859 5.141,-10.278 0.406,-0.88 1.485,-2.875 2.399,-4.432 0.913,-1.558 1.758,-3.268 1.878,-3.8 0.348,-1.538 1.873,-5.557 3.102,-8.168 1.109,-2.357 1.579,-4.221 2.372,-9.4 2.285,-14.933 0.984,-51.391 -2.051,-57.476 -0.554,-1.109 -1.567,-4.244 -3.209,-9.924 -0.255,-0.88 -1.141,-2.95 -1.969,-4.6 -0.829,-1.65 -2.569,-5.353 -3.868,-8.229 -1.298,-2.876 -2.98,-6.206 -3.738,-7.4 -0.758,-1.194 -1.942,-3.351 -2.632,-4.793 -0.69,-1.442 -1.896,-3.322 -2.68,-4.178 -0.785,-0.856 -1.426,-1.682 -1.426,-1.836 0,-0.154 -0.495,-0.82 -1.1,-1.482 -1.887,-2.061 -2.5,-2.876 -2.5,-3.32 0,-0.236 -0.585,-1.003 -1.3,-1.706 -0.715,-0.702 -2.054,-2.262 -2.975,-3.466 -0.922,-1.205 -2.182,-2.763 -2.8,-3.464 -0.619,-0.701 -1.521,-1.781 -2.005,-2.4 -0.484,-0.619 -1.516,-1.846 -2.293,-2.726 -0.776,-0.88 -1.415,-1.709 -1.419,-1.843 -0.005,-0.133 -1.656,-1.663 -3.671,-3.4 -2.015,-1.736 -5.03,-4.461 -6.7,-6.056 -4.644,-4.432 -4.937,-4.694 -6.426,-5.732 -9.399,-6.558 -12.086,-15.387 -8.27,-27.169 0.645,-1.992 0.548,-18.735 -0.125,-21.6 -0.55,-2.338 -1.8,-6.259 -3.254,-10.2 -0.738,-2.003 -2.248,-4.565 -3.181,-5.4 -0.123,-0.11 -0.745,-0.92 -1.383,-1.8 -0.637,-0.88 -1.708,-2.155 -2.379,-2.833 -0.67,-0.678 -1.592,-1.668 -2.047,-2.2 -1.344,-1.57 -3.862,-3.524 -5.472,-4.247 -0.825,-0.371 -1.5,-0.797 -1.5,-0.947 0,-0.384 -6.424,-3.553 -8.271,-4.081 -1.589,-0.454 -13.794,-0.894 -14.177,-0.511 m 6.616,23.815 c 4.509,1.021 7.222,2.703 10.018,6.213 0.873,1.095 1.691,2.081 1.819,2.191 4.127,3.551 5.083,21.225 1.591,29.4 -2.041,4.78 -1.442,23.09 0.85,25.975 0.186,0.234 1.278,1.685 2.427,3.225 2.589,3.471 2.357,3.245 5.727,5.582 1.54,1.068 2.89,2.066 3,2.22 0.11,0.153 0.921,0.73 1.803,1.282 2.028,1.269 3.33,2.34 6.345,5.216 1.326,1.265 2.557,2.3 2.735,2.3 0.824,0 8.45,7.392 9.934,9.629 0.559,0.843 1.73,2.306 2.602,3.252 1.846,2.001 4.258,5.556 5.035,7.419 0.298,0.715 0.677,1.3 0.844,1.3 0.166,0 0.302,0.177 0.302,0.392 0,0.216 0.599,1.341 1.331,2.5 0.732,1.16 1.647,2.918 2.033,3.908 0.917,2.351 1.935,4.549 2.225,4.8 0.126,0.11 0.917,2 1.755,4.2 2.303,6.04 1.98,4.928 3.899,13.4 0.549,2.426 1.177,4.788 1.594,6 2.064,6 3.156,16.555 3.146,30.4 -0.011,13.458 -0.527,17.127 -3.487,24.8 -0.892,2.31 -2.009,5.28 -2.484,6.6 -1.042,2.897 -3.666,7.862 -4.794,9.073 -0.45,0.483 -0.818,1.014 -0.818,1.181 0,0.489 -2.88,5.29 -3.569,5.95 -0.692,0.663 -1.251,1.578 -2.808,4.596 -1.269,2.46 -3.212,5.207 -4.81,6.8 -0.661,0.66 -1.97,2.395 -2.908,3.856 -2.933,4.567 -4.823,7.305 -5.62,8.139 -0.423,0.443 -1.06,1.255 -1.416,1.805 -0.356,0.55 -1.498,1.785 -2.536,2.744 -1.039,0.96 -1.998,2.241 -2.131,2.848 -0.134,0.607 -0.998,2.003 -1.922,3.102 -2.502,2.976 -2.883,3.595 -5.906,9.606 -0.692,1.375 -1.419,2.5 -1.616,2.5 -0.197,0 -0.358,0.208 -0.358,0.462 0,0.254 -0.416,1.019 -0.925,1.7 -0.912,1.221 -1.398,2.98 -2.318,8.394 -1.016,5.972 0.842,16.186 3.411,18.755 0.322,0.322 1.002,1.315 1.509,2.205 0.934,1.64 4.923,6.084 5.46,6.084 0.161,0 1.095,0.728 2.077,1.617 0.983,0.889 2.236,1.808 2.786,2.043 2.772,1.182 7.423,2.74 8.182,2.74 0.472,0 1.029,0.156 1.238,0.346 1.288,1.171 4.899,1.254 54.657,1.262 51.689,0.008 54.578,0.087 57.779,1.582 4.655,2.173 5.082,5.691 1.731,14.28 -0.945,2.425 -1.587,4.744 -1.587,5.738 0,3.746 -1.918,8.056 -3.947,8.87 -3.677,1.475 -4.407,1.494 -60.453,1.507 -66.056,0.017 -61.998,0.38 -68.619,-6.15 -1.581,-1.559 -3.304,-3.213 -3.828,-3.675 -2.329,-2.052 -8.753,-9.146 -8.753,-9.666 0,-0.171 -0.749,-0.938 -1.665,-1.703 -0.916,-0.765 -2.166,-1.882 -2.777,-2.481 -3.182,-3.121 -9.332,-6.261 -12.474,-6.37 -2.566,-0.088 -2.676,-0.049 -8.92,3.223 -1.653,0.866 -7.458,6.409 -12.964,12.378 -14.761,16.004 -6.383,14.441 -77.469,14.451 -66.338,0.01 -60.761,0.589 -62.78,-6.523 -0.323,-1.138 -0.759,-2.474 -0.969,-2.969 -1.43,-3.369 -1.881,-4.77 -2.606,-8.1 -0.36,-1.65 -0.817,-3.413 -1.015,-3.919 -1.174,-2.989 0.582,-7.333 3.573,-8.836 3.116,-1.566 5.906,-1.645 57.754,-1.645 30.301,0 50.54,-0.149 51.284,-0.378 0.675,-0.208 2.308,-0.68 3.628,-1.048 8.162,-2.278 10.248,-3.18 12.816,-5.545 3.829,-3.523 4.829,-4.623 5.528,-6.08 0.41,-0.852 0.902,-1.858 1.095,-2.235 0.193,-0.378 0.517,-1.368 0.721,-2.2 0.204,-0.833 0.656,-2.558 1.005,-3.834 1.438,-5.254 -0.118,-16.347 -3.057,-21.792 -0.389,-0.722 -0.708,-1.496 -0.708,-1.719 0,-0.534 -2.801,-4.93 -3.252,-5.102 -0.191,-0.074 -0.348,-0.389 -0.348,-0.7 0,-0.312 -0.18,-0.567 -0.4,-0.567 -0.22,0 -0.4,-0.349 -0.4,-0.776 0,-0.427 -0.16,-0.876 -0.356,-0.997 -0.195,-0.121 -0.47,-0.676 -0.61,-1.233 -0.14,-0.558 -0.97,-1.751 -1.844,-2.652 -0.875,-0.901 -1.59,-1.784 -1.59,-1.962 0,-0.177 -0.257,-0.58 -0.571,-0.893 -0.313,-0.314 -1.424,-1.89 -2.467,-3.503 -1.043,-1.613 -2.389,-3.448 -2.992,-4.078 -0.602,-0.63 -1.607,-2.164 -2.232,-3.408 -0.626,-1.243 -1.566,-2.719 -2.09,-3.28 -0.523,-0.56 -1.692,-2.008 -2.597,-3.218 -0.906,-1.21 -1.755,-2.29 -1.888,-2.4 -0.133,-0.11 -0.74,-1.099 -1.349,-2.198 -0.609,-1.098 -1.534,-2.505 -2.056,-3.125 -0.522,-0.621 -1.529,-2.294 -2.238,-3.718 -0.709,-1.424 -1.566,-2.898 -1.905,-3.274 -2.194,-2.442 -4.468,-7.263 -7.115,-15.085 -0.446,-1.32 -1.215,-3.48 -1.707,-4.8 -1.937,-5.19 -2.899,-30.053 -1.587,-41 0.795,-6.632 1.27,-9.441 2.165,-12.8 0.498,-1.87 1.122,-4.39 1.387,-5.6 0.488,-2.231 0.703,-3.188 1.845,-8.2 1.011,-4.443 4.629,-12.997 5.497,-12.999 0.165,-0.001 0.3,-0.24 0.3,-0.532 0,-0.991 2.07,-5.662 3.131,-7.064 0.58,-0.768 1.555,-2.452 2.165,-3.743 1.349,-2.852 4.627,-7.858 5.638,-8.609 0.405,-0.301 1.379,-1.552 2.164,-2.78 1.225,-1.914 7.311,-8.326 11.126,-11.72 0.647,-0.575 1.826,-1.745 2.62,-2.6 0.794,-0.854 2.285,-2.273 3.312,-3.153 1.028,-0.88 2.779,-2.448 3.891,-3.484 1.113,-1.036 2.328,-1.981 2.702,-2.1 0.373,-0.118 1,-0.76 1.393,-1.426 0.394,-0.667 1.193,-1.688 1.775,-2.271 4.703,-4.703 7.909,-14.321 6.395,-19.188 -2.404,-7.728 -2.715,-10.007 -2.692,-19.755 0.028,-11.654 0.909,-15.54 4.457,-19.644 0.508,-0.587 1.272,-1.543 1.698,-2.125 1.396,-1.905 1.997,-2.454 4.225,-3.856 3.843,-2.419 10.216,-4.596 11.968,-4.089 0.312,0.091 1.302,0.331 2.2,0.534 m -13.735,108.057 c -1.191,0.198 -2.361,0.512 -2.6,0.698 -0.238,0.186 -0.883,0.447 -1.433,0.579 -2.098,0.504 -2.182,1.027 -2.423,15.07 -0.212,12.359 -0.414,14.8 -1.224,14.8 -0.194,0 -0.353,0.261 -0.353,0.58 0,0.765 -2.243,2.414 -4,2.94 -0.77,0.231 -6.08,0.505 -11.8,0.61 -15.497,0.283 -14.6,-0.552 -14.6,13.593 v 9.466 l 1.098,1.542 c 1.65,2.319 2.25,2.467 10.082,2.489 21.599,0.063 20.805,-1.046 20.843,29.135 0.025,20.656 0.034,20.731 2.577,21.571 4.156,1.373 19.225,1.632 25.265,0.434 3.713,-0.736 3.49,0.619 3.768,-22.96 0.346,-29.336 -0.628,-27.698 16.665,-28.038 15.707,-0.308 15.04,0.249 15.234,-12.731 0.223,-14.956 0.941,-14.22 -14.132,-14.478 -11.98,-0.205 -13.694,-0.472 -15.381,-2.392 -2.348,-2.674 -2.419,-3.145 -2.419,-15.964 0,-14.111 -0.223,-15.334 -2.947,-16.138 -4.149,-1.225 -16.905,-1.688 -22.22,-0.806"
         stroke="none"
         fill="#161616"
         fill-rule="evenodd" />
    </g>
  </g>
  <path
     id="path1"
     d="m 0,159.6 v 159.6 l 58.3,-0.002 c 49.023,-10e-4 58.841,-0.093 61.7,-0.58 7.606,-1.294 8.192,-2.307 4.317,-7.465 -0.724,-0.964 -1.587,-2.293 -1.917,-2.953 -0.33,-0.66 -1.143,-1.74 -1.808,-2.4 -0.664,-0.66 -1.734,-1.92 -2.379,-2.8 -0.644,-0.88 -1.286,-1.69 -1.427,-1.8 -0.141,-0.11 -0.918,-1.19 -1.727,-2.4 -1.688,-2.527 -2.69,-3.865 -3.743,-5 -0.408,-0.44 -1.04,-1.433 -1.403,-2.206 -0.364,-0.773 -1.134,-1.85 -1.712,-2.393 -0.578,-0.543 -1.438,-1.62 -1.911,-2.394 -0.473,-0.774 -1.094,-1.647 -1.38,-1.94 -0.285,-0.293 -1.273,-2.093 -2.195,-4 -0.922,-1.907 -1.976,-3.79 -2.342,-4.185 -0.931,-1.004 -2.258,-3.769 -2.766,-5.764 -0.235,-0.925 -0.693,-1.947 -1.018,-2.271 C 96.265,268.322 96,267.864 96,267.629 c 0,-0.236 -0.18,-0.429 -0.4,-0.429 -0.22,0 -0.4,-0.36 -0.4,-0.8 0,-0.44 -0.18,-0.8 -0.4,-0.8 -0.22,0 -0.4,-0.198 -0.4,-0.44 0,-0.241 -0.288,-1.096 -0.641,-1.9 -1.213,-2.766 -1.329,-3.068 -2.094,-5.477 -0.422,-1.33 -0.889,-3.58 -1.039,-5 -0.452,-4.301 -1.455,-9.418 -2.623,-13.383 -2.274,-7.722 -2.272,-34.767 0.004,-43.2 0.426,-1.581 1.228,-5.316 1.973,-9.2 0.211,-1.1 0.503,-3.08 0.647,-4.4 0.379,-3.452 1.183,-6.464 2.564,-9.6 0.388,-0.88 0.842,-2.05 1.01,-2.6 0.167,-0.55 0.89,-1.9 1.606,-3 0.716,-1.1 1.707,-3.305 2.203,-4.9 0.496,-1.595 1.056,-2.9 1.246,-2.9 0.189,0 0.344,-0.193 0.344,-0.428 0,-0.235 0.53,-1.198 1.177,-2.139 0.647,-0.94 1.308,-2.233 1.468,-2.872 0.535,-2.128 5.279,-10.155 6.686,-11.31 0.368,-0.302 0.669,-0.763 0.669,-1.025 0,-0.841 1.94,-4.529 2.889,-5.493 0.506,-0.513 1.505,-1.854 2.222,-2.979 0.717,-1.125 1.75,-2.565 2.296,-3.2 0.545,-0.635 0.992,-1.277 0.993,-1.428 0,-0.15 0.945,-1.28 2.1,-2.511 1.155,-1.231 2.64,-2.862 3.3,-3.625 0.66,-0.763 1.972,-2.152 2.916,-3.088 0.944,-0.936 1.961,-2.152 2.261,-2.702 0.3,-0.55 1.508,-1.922 2.684,-3.05 3.016,-2.89 9.253,-9.136 9.783,-9.796 0.807,-1.007 4.563,-4.354 4.886,-4.354 0.514,0 4.827,-4.497 5.562,-5.8 0.84,-1.488 0.94,-11.036 0.156,-14.8 -1.196,-5.745 -1.001,-21.192 0.369,-29.2 0.498,-2.912 3.629,-9.311 5.583,-11.409 0.77,-0.827 1.753,-2.171 2.184,-2.986 0.431,-0.815 1.221,-1.87 1.756,-2.344 0.911,-0.807 2.201,-2.093 3.923,-3.913 1.841,-1.945 3.754,-3.313 6.426,-4.595 1.588,-0.762 3.388,-1.804 4,-2.316 1.296,-1.085 5.04,-3.037 5.824,-3.037 0.298,0 1.523,-0.502 2.723,-1.116 2.004,-1.025 4.243,-1.717 9.241,-2.856 6.827,-1.556 19.933,-0.073 23.523,2.661 0.55,0.419 1.99,1.264 3.2,1.877 1.21,0.613 2.838,1.727 3.617,2.474 0.779,0.748 1.634,1.36 1.9,1.36 0.266,0 0.483,0.168 0.483,0.373 0,0.205 0.315,0.479 0.7,0.609 1.084,0.365 4.292,3.504 5.438,5.32 0.568,0.899 1.381,1.745 1.807,1.881 0.427,0.135 1.248,1.246 1.829,2.473 0.994,2.098 3.266,5.384 3.926,5.677 0.165,0.074 0.3,0.33 0.3,0.57 0,0.24 0.728,1.898 1.617,3.685 2.762,5.55 4.95,23.066 3.644,29.181 -2.73,12.788 -2.642,17.59 0.379,20.672 0.845,0.862 1.733,1.935 1.973,2.384 0.241,0.45 1.461,1.469 2.712,2.266 1.251,0.797 3.535,2.733 5.075,4.302 1.54,1.569 3.346,3.233 4.014,3.696 0.668,0.464 1.462,1.306 1.764,1.871 0.303,0.565 0.88,1.132 1.284,1.26 1.122,0.356 5.811,5.191 6.555,6.76 0.363,0.765 0.992,1.496 1.397,1.624 0.405,0.129 1.291,0.901 1.968,1.715 0.678,0.815 1.994,2.292 2.925,3.283 2.821,3.003 4.172,4.623 4.699,5.635 0.277,0.529 1.253,1.863 2.17,2.963 2.233,2.678 3.257,4.199 3.628,5.392 0.169,0.546 0.82,1.47 1.445,2.054 0.997,0.931 4.532,6.757 5.801,9.56 0.248,0.547 0.652,1.444 0.898,1.994 0.493,1.102 1.572,3.007 2.539,4.484 0.345,0.526 0.947,2.117 1.337,3.536 0.391,1.419 1.221,3.332 1.844,4.252 0.622,0.92 1.132,1.919 1.132,2.22 0,0.301 0.158,0.719 0.351,0.928 1.178,1.276 3.328,9.298 4.231,15.78 0.997,7.161 1.424,9.748 1.85,11.2 1.321,4.498 1.594,6.244 1.957,12.498 0.865,14.944 0.331,25.642 -1.568,31.393 -0.637,1.93 -1.455,5.219 -1.818,7.309 -1.306,7.528 -3.267,13.307 -5.873,17.309 -0.828,1.27 -1.784,3.16 -2.126,4.2 -0.622,1.892 -1.426,3.715 -1.803,4.091 -0.376,0.374 -1.204,1.796 -1.865,3.2 -2.647,5.627 -5.956,11.199 -7.392,12.447 -0.409,0.356 -0.745,0.806 -0.746,1 -0.004,0.853 -2.073,4.313 -3.759,6.286 -1.011,1.184 -1.839,2.291 -1.839,2.459 0,0.568 -3.737,5.6 -4.881,6.572 -0.623,0.53 -1.839,2.24 -2.701,3.8 -0.862,1.56 -1.903,3.196 -2.313,3.636 -1.575,1.691 -2.332,5.493 -1.405,7.062 1.581,2.676 3.462,2.752 70.8,2.851 L 400,319.4 V 159.7 0 H 200 0 V 159.6 M 198,53.097 c -1.643,0.124 -2.751,0.485 -5.6,1.829 -1.514,0.713 -5.046,4.597 -5.858,6.441 -0.396,0.898 -0.815,1.723 -0.931,1.833 -0.299,0.283 -1.233,1.936 -2.116,3.741 -0.677,1.384 -0.74,2.36 -0.624,9.634 l 0.129,8.093 1.495,2.966 c 3.681,7.305 3.734,17.073 0.119,22.129 -0.772,1.08 -1.795,2.79 -2.273,3.8 -1.115,2.357 -3.421,5.611 -4.702,6.637 -1,0.801 -1.385,1.184 -4.083,4.06 -0.794,0.847 -2.299,2.26 -3.343,3.14 -1.044,0.88 -2.593,2.269 -3.442,3.086 -0.849,0.818 -2.27,1.945 -3.157,2.505 -0.888,0.561 -1.614,1.196 -1.614,1.412 0,0.216 -0.855,1.279 -1.9,2.361 -5.942,6.154 -9.432,10.096 -10.159,11.476 -0.452,0.858 -1.495,2.37 -2.318,3.36 -1.761,2.119 -1.66,1.94 -4.846,8.6 -1.368,2.86 -2.969,5.92 -3.559,6.8 -0.589,0.88 -1.579,3.22 -2.201,5.2 -0.621,1.98 -1.544,4.451 -2.052,5.491 -1.338,2.741 -2.049,5.933 -3.411,15.309 -0.41,2.822 -0.922,6.149 -1.569,10.2 -1.351,8.446 -1.916,21.967 -1.205,28.8 0.486,4.68 0.706,5.795 2.047,10.4 0.787,2.702 2.268,8.264 2.664,10 0.125,0.55 0.627,1.48 1.114,2.066 0.488,0.587 1.55,2.427 2.36,4.089 0.81,1.661 1.642,3.126 1.848,3.253 0.206,0.127 1.139,1.528 2.073,3.112 0.935,1.584 1.837,2.94 2.006,3.013 0.17,0.074 0.308,0.307 0.308,0.52 0,0.212 0.63,1.37 1.4,2.574 0.77,1.204 1.402,2.32 1.403,2.481 0.002,0.16 0.587,0.922 1.3,1.692 0.714,0.77 1.71,2.159 2.215,3.086 0.913,1.678 1.688,2.707 3.782,5.018 0.605,0.668 1.1,1.355 1.1,1.527 0,0.171 0.276,0.588 0.613,0.925 0.338,0.338 1.161,1.655 1.83,2.929 0.669,1.273 1.768,2.923 2.443,3.666 0.675,0.743 1.844,2.543 2.598,4 0.754,1.457 1.738,3.077 2.186,3.601 2.177,2.543 6.091,9.327 6.918,11.989 0.161,0.518 0.715,1.564 1.231,2.325 3.779,5.568 3.873,23.885 0.152,29.534 -0.579,0.88 -1.391,2.317 -1.802,3.193 -1.071,2.279 -5.878,7.183 -8.519,8.689 -1.238,0.706 -2.587,1.596 -3,1.977 -0.412,0.381 -1.852,1.139 -3.2,1.685 -7.343,2.971 -2.57,2.739 -62.05,3.011 l -53.6,0.245 -1.536,0.955 c -1.302,0.809 -1.502,1.114 -1.313,2 0.427,1.997 1.418,9.463 1.671,12.584 l 0.254,3.14 2.262,1.06 2.262,1.061 53,0.124 c 69.861,0.164 60.704,1.862 75.8,-14.058 8.936,-9.423 10.552,-11.066 10.885,-11.066 0.178,0 1.042,-0.645 1.919,-1.433 3.287,-2.952 6.141,-3.905 11.796,-3.938 4.842,-0.028 8.8,0.612 8.8,1.423 0,0.191 0.248,0.348 0.551,0.348 0.303,0 0.784,0.281 1.07,0.625 0.285,0.343 1.515,1.286 2.733,2.095 2.372,1.574 4.818,3.927 10.846,10.43 11.423,12.323 14.101,14.413 19.507,15.217 4.104,0.611 107.676,0.605 109.665,-0.006 2.484,-0.763 4.097,-1.729 4.611,-2.761 1.478,-2.964 1.808,-4.18 2.226,-8.2 0.252,-2.42 0.601,-5.064 0.776,-5.876 0.336,-1.56 -0.28,-2.508 -2.185,-3.364 -0.452,-0.204 -24.344,-0.459 -55,-0.588 -54.858,-0.231 -56.697,-0.282 -58.18,-1.627 -0.209,-0.19 -0.715,-0.345 -1.125,-0.345 -1.074,0 -4.74,-1.872 -6.332,-3.234 -0.75,-0.641 -1.993,-1.459 -2.763,-1.816 -1.083,-0.503 -5.513,-4.652 -7.539,-7.06 -0.144,-0.171 -0.629,-0.621 -1.08,-1 -0.45,-0.38 -1.316,-1.77 -1.925,-3.09 -0.609,-1.32 -1.313,-2.76 -1.564,-3.2 -2.607,-4.561 -3.892,-9.499 -3.892,-14.952 0,-5.226 1.784,-12.076 3.764,-14.448 0.275,-0.33 0.83,-1.5 1.234,-2.6 0.773,-2.111 2.295,-4.763 2.973,-5.182 0.222,-0.137 0.95,-1.395 1.618,-2.796 1.203,-2.52 5.14,-7.954 6.468,-8.925 0.378,-0.277 1.152,-1.452 1.719,-2.612 0.893,-1.826 1.689,-2.941 4.846,-6.79 0.318,-0.387 0.578,-0.842 0.578,-1.011 0,-0.168 0.527,-0.931 1.171,-1.695 2.264,-2.686 4.02,-5.016 5.868,-7.789 1.027,-1.54 2.249,-3.256 2.715,-3.813 0.467,-0.557 1.553,-2.402 2.415,-4.1 0.862,-1.698 1.716,-3.087 1.899,-3.087 0.183,0 0.335,-0.225 0.34,-0.5 0.004,-0.275 0.986,-1.803 2.182,-3.395 1.196,-1.592 2.458,-3.73 2.805,-4.751 0.347,-1.021 1.257,-2.801 2.023,-3.955 1.356,-2.042 1.73,-3.076 3.982,-10.999 3.666,-12.895 3.861,-25.529 0.641,-41.4 -0.56,-2.761 -1.204,-6.348 -1.651,-9.2 -0.959,-6.121 -1.51,-8.091 -3.55,-12.696 -0.462,-1.042 -0.84,-2.164 -0.84,-2.492 0,-0.327 -0.255,-1.274 -0.566,-2.104 -0.311,-0.829 -0.671,-1.99 -0.801,-2.58 -0.129,-0.59 -0.478,-1.316 -0.775,-1.613 -0.298,-0.298 -1.943,-3.378 -3.655,-6.844 -2.918,-5.909 -4.25,-8.127 -6.054,-10.083 -0.412,-0.447 -1.066,-1.378 -1.454,-2.071 -0.919,-1.639 -12.079,-12.885 -13.895,-14.001 -0.77,-0.473 -1.929,-1.413 -2.575,-2.088 -0.646,-0.675 -1.366,-1.232 -1.6,-1.236 -1.402,-0.026 -11.509,-9.028 -14.139,-12.592 -0.812,-1.1 -1.858,-2.308 -2.325,-2.685 -3.623,-2.922 -4.168,-27.196 -0.749,-33.31 2.772,-4.957 3.415,-13.675 1.184,-16.041 -0.361,-0.384 -1.115,-1.858 -3.743,-7.322 -0.359,-0.747 -1.013,-1.557 -1.453,-1.8 -0.44,-0.243 -0.89,-0.546 -1,-0.673 -0.716,-0.826 -5.622,-1.852 -8,-1.672 m 16.932,97.244 c 3.436,2.386 3.517,2.782 3.896,19.193 0.369,15.918 0.3,15.615 3.533,15.707 0.792,0.022 6.479,0.157 12.639,0.3 l 11.2,0.259 1.3,1.166 c 0.715,0.641 1.3,1.32 1.3,1.509 0,0.188 0.495,1.09 1.1,2.003 l 1.1,1.661 0.133,9.831 c 0.171,12.647 -0.19,14.51 -3.664,18.908 -1.843,2.333 -2.468,2.442 -15.035,2.629 -7.885,0.117 -11.499,0.31 -11.8,0.631 -1.492,1.589 -1.587,2.832 -1.82,23.662 -0.327,29.296 1.105,27.4 -20.69,27.4 -21.789,0 -20.887,1.234 -20.91,-28.606 -0.013,-17.389 -0.058,-18.526 -0.814,-20.594 -0.44,-1.204 -0.8,-2.22 -0.8,-2.258 0,-0.038 -5.175,-0.144 -11.5,-0.236 -14.487,-0.21 -15.598,-0.655 -17.559,-7.039 -0.935,-3.046 -1.084,-23.229 -0.185,-25.106 2.9,-6.055 1.367,-5.507 16.325,-5.837 12.315,-0.272 12.642,-0.3 13.569,-1.171 l 0.95,-0.892 0.014,-12.231 c 0.026,-22.829 -0.437,-22.36 21.986,-22.28 l 13.8,0.05 1.932,1.341 M 397.822,371.5 c -0.631,6.143 -1.718,12.112 -2.824,15.5 -0.503,1.54 -1.125,4.15 -1.381,5.8 -1.083,6.959 -1.952,12.057 -2.42,14.2 -0.192,0.88 -0.661,3.04 -1.041,4.8 -0.945,4.377 -2.124,6.861 -4.307,9.073 -3.363,3.405 -3.15,3.527 6.151,3.527 h 8 v -27.6 -27.6 h -0.971 c -0.889,0 -0.992,0.196 -1.207,2.3 M 0,408.8 v 15.6 h 5.8 c 6.711,0 7.307,-0.433 4.224,-3.072 C 7.069,418.799 5.389,413.829 3.625,402.4 3.37,400.75 2.99,398.531 2.781,397.469 2.571,396.408 2.4,395.013 2.4,394.369 2.4,393.337 2.26,393.2 1.2,393.2 H 0 v 15.6 m 197.6,-12.329 c -1.21,0.456 -2.56,1.144 -3,1.529 -0.44,0.385 -1.98,1.437 -3.423,2.337 -1.442,0.901 -3.375,2.44 -4.295,3.422 -0.92,0.981 -1.993,1.886 -2.385,2.01 -0.392,0.125 -1.056,0.864 -1.476,1.643 -1.285,2.388 -7.456,8.359 -9.952,9.631 -2.746,1.399 -3.724,1.967 -4.201,2.438 -0.293,0.29 -1.775,1.11 -3.292,1.823 -2.203,1.034 -2.762,1.478 -2.768,2.196 l -0.008,0.9 h 34.2 34.2 v -0.981 c 0,-0.719 -0.356,-1.151 -1.331,-1.613 -0.732,-0.347 -2.217,-1.435 -3.3,-2.417 -1.083,-0.982 -2.149,-1.786 -2.368,-1.787 -0.36,-0.002 -1.142,-0.711 -5.801,-5.264 -1.849,-1.807 -4.122,-4.664 -4.514,-5.676 -0.173,-0.445 -1.253,-1.751 -2.4,-2.903 -1.147,-1.151 -2.446,-2.464 -2.886,-2.916 -2.398,-2.468 -7.495,-5.521 -8.715,-5.222 -0.047,0.011 -1.075,0.394 -2.285,0.85"
     stroke="none"
     fill="#f4f4f4"
     fill-rule="evenodd"
     style="fill:none" />
  <path
     id="path2"
     d="m 195.56,20.173 c -0.114,0.115 -1.547,0.392 -3.184,0.616 -3.564,0.487 -8.17,1.863 -9.638,2.877 -0.584,0.404 -1.183,0.734 -1.33,0.734 -0.374,0 -9.105,4.87 -9.652,5.383 -0.245,0.229 -1.145,0.952 -2,1.607 -3.772,2.884 -7.563,7.191 -9.164,10.41 -0.876,1.76 -1.691,3.29 -1.813,3.4 -1.441,1.305 -2.739,6.492 -3.25,12.98 -0.503,6.398 0.055,20.881 0.927,24.037 0.234,0.848 0.357,3.531 0.274,5.962 -0.24,7.031 -0.145,6.892 -14.68,21.467 -12.928,12.963 -15.295,15.483 -18.181,19.354 -0.984,1.32 -2.222,2.867 -2.752,3.437 -0.529,0.571 -2.011,2.551 -3.293,4.4 -1.282,1.85 -2.732,3.813 -3.221,4.363 -0.832,0.936 -1.753,2.569 -3.046,5.4 -0.301,0.66 -1.284,2.37 -2.185,3.8 -0.9,1.43 -2.957,5.21 -4.571,8.4 -1.614,3.19 -3.439,6.79 -4.055,8 -0.617,1.21 -1.127,2.427 -1.133,2.705 -0.007,0.278 -0.172,0.818 -0.366,1.2 -0.195,0.382 -0.544,1.145 -0.776,1.695 -0.233,0.55 -1.042,2.444 -1.798,4.209 -2.06,4.804 -3.183,10.345 -4.743,23.391 -0.674,5.634 -0.673,30.421 10e-4,35.8 1.631,13.007 2.666,17.96 4.682,22.4 0.7,1.54 2.049,4.78 2.999,7.2 0.95,2.42 2.326,5.348 3.058,6.508 0.731,1.159 1.33,2.211 1.33,2.338 0,0.127 0.348,0.719 0.773,1.317 0.426,0.597 0.895,1.57 1.044,2.161 0.148,0.592 0.43,1.076 0.626,1.076 0.197,0 0.357,0.27 0.357,0.6 0,0.33 0.168,0.6 0.373,0.6 0.205,0 0.487,0.359 0.626,0.798 0.139,0.438 0.467,1.023 0.727,1.3 0.816,0.865 3.474,5.07 3.474,5.496 0,0.223 0.136,0.406 0.302,0.406 0.167,0 0.53,0.514 0.808,1.142 0.278,0.628 1.267,1.941 2.198,2.918 1.823,1.913 2.368,2.577 3.887,4.74 0.541,0.77 1.317,1.76 1.725,2.2 0.408,0.44 1.037,1.295 1.397,1.9 0.361,0.605 0.797,1.1 0.969,1.1 0.173,0 0.314,0.27 0.314,0.6 0,0.33 0.168,0.6 0.373,0.6 0.205,0 0.476,0.323 0.601,0.718 0.125,0.395 1.396,2.24 2.823,4.1 1.427,1.86 2.597,3.686 2.599,4.058 0.002,0.372 0.164,0.775 0.359,0.896 1.128,0.697 0.726,5.126 -0.628,6.937 -2.739,3.66 -3.355,3.691 -73.189,3.691 H 0 v 1.642 1.642 l 1.7,-0.269 c 0.935,-0.149 29.15,-0.403 62.7,-0.566 58.429,-0.284 61.076,-0.328 62.8,-1.048 4.567,-1.909 6.331,-4.135 6.438,-8.125 0.083,-3.131 -1.575,-7.881 -3.238,-9.276 -0.131,-0.11 -0.717,-1.028 -1.301,-2.041 -0.585,-1.012 -1.521,-2.272 -2.081,-2.8 -0.56,-0.527 -1.377,-1.679 -1.815,-2.559 -0.438,-0.88 -1.698,-2.65 -2.8,-3.932 -1.101,-1.283 -2.003,-2.497 -2.003,-2.697 0,-0.2 -0.556,-0.895 -1.235,-1.544 -0.679,-0.649 -1.736,-1.956 -2.349,-2.904 -0.612,-0.947 -1.452,-2.083 -1.865,-2.523 -0.953,-1.015 -2.951,-4.075 -2.951,-4.519 0,-0.186 -0.597,-1.044 -1.326,-1.909 -1.518,-1.8 -8.955,-16.437 -10.283,-20.237 -0.487,-1.394 -1.472,-3.705 -2.189,-5.135 -3.967,-7.913 -5.339,-49.231 -2.225,-67 0.232,-1.32 0.535,-3.075 0.675,-3.9 0.139,-0.825 0.41,-1.5 0.601,-1.5 0.191,0 0.347,-0.181 0.347,-0.402 0,-0.221 0.408,-1.256 0.907,-2.3 0.499,-1.044 1.346,-3.248 1.882,-4.898 0.536,-1.65 1.369,-3.641 1.85,-4.424 0.817,-1.33 5.001,-9.854 6.883,-14.026 0.459,-1.017 1.075,-2.097 1.369,-2.4 0.713,-0.734 2.309,-3.494 2.309,-3.992 0,-0.526 2.807,-4.921 3.252,-5.091 0.191,-0.074 0.348,-0.389 0.348,-0.7 0,-0.312 0.18,-0.567 0.4,-0.567 0.22,0 0.4,-0.278 0.4,-0.618 0,-0.34 0.42,-1.039 0.934,-1.552 0.514,-0.514 1.434,-1.787 2.045,-2.83 0.611,-1.043 1.35,-2.189 1.641,-2.548 0.292,-0.359 1.172,-1.434 1.955,-2.39 0.784,-0.956 1.425,-1.885 1.425,-2.065 0,-0.18 0.945,-1.29 2.1,-2.465 3.153,-3.209 4.856,-5.188 5.707,-6.632 0.421,-0.715 0.905,-1.3 1.074,-1.3 0.17,0 1.367,-1.035 2.66,-2.3 1.293,-1.265 3.501,-3.398 4.905,-4.74 1.405,-1.342 2.87,-2.885 3.256,-3.428 0.787,-1.107 5.288,-5.593 8.829,-8.797 5.224,-4.728 6.875,-11.455 5.239,-21.343 -0.573,-3.464 -0.727,-6.632 -0.729,-14.992 -0.002,-11.969 0.063,-12.383 3.014,-19.096 0.41,-0.932 0.745,-1.905 0.745,-2.162 0,-1.285 7.228,-9.29 10.6,-11.738 0.88,-0.639 1.69,-1.28 1.8,-1.424 0.224,-0.295 6.238,-3.18 6.627,-3.18 0.137,0 0.727,-0.322 1.311,-0.715 0.584,-0.393 1.782,-0.945 2.662,-1.226 0.88,-0.282 1.96,-0.669 2.4,-0.862 0.44,-0.193 1.7,-0.551 2.8,-0.796 1.1,-0.244 2.81,-0.657 3.8,-0.916 2.285,-0.599 14.077,-0.601 16.129,-0.002 1.867,0.544 8.271,3.711 8.271,4.09 0,0.15 0.675,0.576 1.5,0.947 1.61,0.723 4.128,2.677 5.472,4.247 0.455,0.532 1.377,1.522 2.047,2.2 0.671,0.678 1.742,1.953 2.379,2.833 0.638,0.88 1.26,1.69 1.383,1.8 0.933,0.835 2.443,3.397 3.181,5.4 1.454,3.941 2.704,7.862 3.254,10.2 0.673,2.865 0.77,19.608 0.125,21.6 -3.816,11.782 -1.129,20.611 8.27,27.169 1.489,1.038 1.782,1.3 6.426,5.732 1.67,1.595 4.685,4.32 6.7,6.056 2.015,1.737 3.666,3.267 3.671,3.4 0.004,0.134 0.643,0.963 1.419,1.843 0.777,0.88 1.809,2.107 2.293,2.726 0.484,0.619 1.386,1.699 2.005,2.4 0.618,0.701 1.878,2.259 2.8,3.464 0.921,1.204 2.26,2.764 2.975,3.466 0.715,0.703 1.3,1.47 1.3,1.706 0,0.444 0.613,1.259 2.5,3.32 0.605,0.662 1.1,1.328 1.1,1.482 0,0.154 0.641,0.98 1.426,1.836 0.784,0.856 1.99,2.736 2.68,4.178 0.69,1.442 1.874,3.599 2.632,4.793 0.758,1.194 2.44,4.524 3.738,7.4 1.299,2.876 3.039,6.579 3.868,8.229 0.828,1.65 1.714,3.72 1.969,4.6 1.642,5.68 2.655,8.815 3.209,9.924 3.035,6.085 4.336,42.543 2.051,57.476 -0.793,5.179 -1.263,7.043 -2.372,9.4 -1.229,2.611 -2.754,6.63 -3.102,8.168 -0.12,0.532 -0.965,2.242 -1.878,3.8 -0.914,1.557 -1.993,3.552 -2.399,4.432 -2.499,5.419 -4.704,9.827 -5.141,10.278 -0.691,0.713 -2.281,3.476 -2.281,3.964 0,0.507 -2.592,4.568 -3.618,5.67 -0.43,0.461 -0.782,0.943 -0.782,1.071 0,0.128 -0.808,1.309 -1.796,2.625 -0.987,1.316 -1.797,2.609 -1.8,2.874 -0.002,0.265 -0.409,0.896 -0.904,1.403 -1.2,1.228 -2.832,3.438 -3.629,4.915 -0.356,0.66 -1.372,1.98 -2.259,2.934 -0.887,0.954 -1.612,1.989 -1.612,2.3 0,0.311 -0.18,0.566 -0.4,0.566 -0.22,0 -0.4,0.236 -0.4,0.525 0,0.288 -0.321,0.873 -0.713,1.3 -0.893,0.971 -1.753,2.837 -2.847,6.175 -0.469,1.43 -1.024,3.121 -1.234,3.759 -0.209,0.637 -0.287,1.31 -0.173,1.495 0.115,0.185 0.465,1.322 0.779,2.526 0.559,2.146 1.242,3.29 2.733,4.577 0.409,0.354 0.949,0.828 1.2,1.053 2.27,2.047 -1.013,1.936 65.255,2.207 67.875,0.276 64.368,0.128 65.94,2.789 1.371,2.32 2.66,1.673 2.66,-1.335 v -2.529 l -2.9,-0.551 c -2.341,-0.445 -14.464,-0.604 -62.9,-0.821 -33,-0.148 -60.994,-0.432 -62.209,-0.631 -8.524,-1.394 -9.768,-9.097 -2.991,-18.515 0.881,-1.223 2.248,-3.214 3.038,-4.424 1.222,-1.869 6.365,-8.887 7.495,-10.225 0.197,-0.234 0.578,-0.834 0.845,-1.334 0.268,-0.5 0.839,-1.314 1.269,-1.81 0.853,-0.98 1.625,-2.294 3.601,-6.131 0.709,-1.375 1.438,-2.5 1.62,-2.5 0.183,0 0.332,-0.197 0.332,-0.438 0,-0.241 0.335,-0.916 0.745,-1.5 1.153,-1.644 3.655,-6.519 3.655,-7.122 0,-0.297 0.136,-0.54 0.302,-0.54 0.167,0 0.557,-0.585 0.868,-1.3 0.311,-0.715 0.67,-1.39 0.798,-1.5 0.464,-0.4 3.722,-7.511 4.214,-9.2 0.161,-0.55 0.807,-2.08 1.437,-3.4 1.862,-3.902 3.081,-8.451 4.34,-16.2 0.233,-1.43 0.601,-3.68 0.82,-5 1.286,-7.783 0.723,-27.9 -1.137,-40.6 -0.209,-1.43 -0.59,-4.04 -0.845,-5.8 -0.539,-3.722 -1.168,-6.256 -2.381,-9.6 -0.479,-1.32 -1.297,-3.66 -1.818,-5.2 -2.066,-6.107 -4.097,-11.327 -4.59,-11.8 -0.115,-0.11 -0.479,-0.74 -0.808,-1.4 -0.329,-0.66 -0.694,-1.29 -0.81,-1.4 -0.117,-0.11 -0.561,-1.01 -0.988,-2 -0.427,-0.99 -1.754,-3.51 -2.95,-5.6 -1.196,-2.09 -2.49,-4.36 -2.876,-5.045 -1.528,-2.715 -1.794,-3.144 -2.276,-3.668 -0.275,-0.299 -0.504,-0.666 -0.509,-0.816 -0.005,-0.149 -0.649,-0.981 -1.43,-1.849 -0.782,-0.868 -1.678,-2.074 -1.991,-2.68 -0.313,-0.606 -0.795,-1.246 -1.07,-1.422 -0.275,-0.176 -1.214,-1.22 -2.086,-2.32 -0.873,-1.1 -1.688,-2.09 -1.812,-2.2 -0.123,-0.11 -1.232,-1.55 -2.462,-3.2 -3.383,-4.534 -17.7,-18.662 -22.984,-22.679 -8.321,-6.326 -10.927,-12.398 -8.979,-20.921 1.985,-8.682 2.08,-22.99 0.199,-29.819 -0.361,-1.31 -0.754,-2.831 -0.875,-3.381 -0.121,-0.55 -0.708,-1.72 -1.305,-2.6 -0.598,-0.88 -1.209,-1.991 -1.358,-2.469 -1.447,-4.624 -7.796,-12.519 -12.812,-15.932 -0.646,-0.439 -1.636,-1.179 -2.2,-1.644 -0.564,-0.465 -1.431,-0.972 -1.926,-1.127 -0.495,-0.155 -0.9,-0.429 -0.9,-0.609 0,-0.554 -4.886,-2.869 -7,-3.317 -2.091,-0.443 -15.479,-0.89 -15.84,-0.529 m 1.84,26.428 c -2.964,0.621 -6.113,1.933 -9,3.75 -2.228,1.402 -2.829,1.951 -4.225,3.856 -0.426,0.582 -1.19,1.538 -1.698,2.125 -3.548,4.104 -4.429,7.99 -4.457,19.644 -0.023,9.748 0.288,12.027 2.692,19.755 1.514,4.867 -1.692,14.485 -6.395,19.188 -0.582,0.583 -1.381,1.604 -1.775,2.271 -0.393,0.666 -1.02,1.308 -1.393,1.426 -0.374,0.119 -1.589,1.064 -2.702,2.1 -1.112,1.036 -2.863,2.604 -3.891,3.484 -1.027,0.88 -2.518,2.299 -3.312,3.153 -0.794,0.855 -1.973,2.025 -2.62,2.6 -3.815,3.394 -9.901,9.806 -11.126,11.72 -0.785,1.228 -1.759,2.479 -2.164,2.78 -1.011,0.751 -4.289,5.757 -5.638,8.609 -0.61,1.291 -1.585,2.975 -2.165,3.743 -1.061,1.402 -3.131,6.073 -3.131,7.064 0,0.292 -0.135,0.531 -0.3,0.532 -0.868,0.002 -4.486,8.556 -5.497,12.999 -1.142,5.012 -1.357,5.969 -1.845,8.2 -0.265,1.21 -0.889,3.73 -1.387,5.6 -0.895,3.359 -1.37,6.168 -2.165,12.8 -1.312,10.947 -0.35,35.81 1.587,41 0.492,1.32 1.261,3.48 1.707,4.8 2.647,7.822 4.921,12.643 7.115,15.085 0.339,0.376 1.196,1.85 1.905,3.274 0.709,1.424 1.716,3.097 2.238,3.718 0.522,0.62 1.447,2.027 2.056,3.125 0.609,1.099 1.216,2.088 1.349,2.198 0.133,0.11 0.982,1.19 1.888,2.4 0.905,1.21 2.074,2.658 2.597,3.218 0.524,0.561 1.464,2.037 2.09,3.28 0.625,1.244 1.63,2.778 2.232,3.408 0.603,0.63 1.949,2.465 2.992,4.078 1.043,1.613 2.154,3.189 2.467,3.503 0.314,0.313 0.571,0.716 0.571,0.893 0,0.178 0.715,1.061 1.59,1.962 0.874,0.901 1.704,2.094 1.844,2.652 0.14,0.557 0.415,1.112 0.61,1.233 0.196,0.121 0.356,0.57 0.356,0.997 0,0.427 0.18,0.776 0.4,0.776 0.22,0 0.4,0.255 0.4,0.567 0,0.311 0.157,0.626 0.348,0.7 0.451,0.172 3.252,4.568 3.252,5.102 0,0.223 0.319,0.997 0.708,1.719 2.939,5.445 4.495,16.538 3.057,21.792 -0.349,1.276 -0.801,3.001 -1.005,3.834 -0.204,0.832 -0.528,1.822 -0.721,2.2 -0.193,0.377 -0.685,1.383 -1.095,2.235 -0.699,1.457 -1.699,2.557 -5.528,6.08 -2.568,2.365 -4.654,3.267 -12.816,5.545 -1.32,0.368 -2.953,0.84 -3.628,1.048 -0.744,0.229 -20.983,0.378 -51.284,0.378 -51.848,0 -54.638,0.079 -57.754,1.645 -2.991,1.503 -4.747,5.847 -3.573,8.836 0.198,0.506 0.655,2.269 1.015,3.919 0.725,3.33 1.176,4.731 2.606,8.1 0.21,0.495 0.646,1.831 0.969,2.969 2.019,7.112 -3.558,6.533 62.78,6.523 71.086,-0.01 62.708,1.553 77.469,-14.451 5.506,-5.969 11.311,-11.512 12.964,-12.378 6.244,-3.272 6.354,-3.311 8.92,-3.223 3.142,0.109 9.292,3.249 12.474,6.37 0.611,0.599 1.861,1.716 2.777,2.481 0.916,0.765 1.665,1.532 1.665,1.703 0,0.52 6.424,7.614 8.753,9.666 0.524,0.462 2.247,2.116 3.828,3.675 6.621,6.53 2.563,6.167 68.619,6.15 56.046,-0.013 56.776,-0.032 60.453,-1.507 2.029,-0.814 3.947,-5.124 3.947,-8.87 0,-0.994 0.642,-3.313 1.587,-5.738 3.351,-8.589 2.924,-12.107 -1.731,-14.28 -3.201,-1.495 -6.09,-1.574 -57.779,-1.582 -49.758,-0.008 -53.369,-0.091 -54.657,-1.262 -0.209,-0.19 -0.766,-0.346 -1.238,-0.346 -0.759,0 -5.41,-1.558 -8.182,-2.74 -0.55,-0.235 -1.803,-1.154 -2.786,-2.043 -0.982,-0.889 -1.916,-1.617 -2.077,-1.617 -0.537,0 -4.526,-4.444 -5.46,-6.084 -0.507,-0.89 -1.187,-1.883 -1.509,-2.205 -2.569,-2.569 -4.427,-12.783 -3.411,-18.755 0.92,-5.414 1.406,-7.173 2.318,-8.394 0.509,-0.681 0.925,-1.446 0.925,-1.7 0,-0.254 0.161,-0.462 0.358,-0.462 0.197,0 0.924,-1.125 1.616,-2.5 3.023,-6.011 3.404,-6.63 5.906,-9.606 0.924,-1.099 1.788,-2.495 1.922,-3.102 0.133,-0.607 1.092,-1.888 2.131,-2.848 1.038,-0.959 2.18,-2.194 2.536,-2.744 0.356,-0.55 0.993,-1.362 1.416,-1.805 0.797,-0.834 2.687,-3.572 5.62,-8.139 0.938,-1.461 2.247,-3.196 2.908,-3.856 1.598,-1.593 3.541,-4.34 4.81,-6.8 1.557,-3.018 2.116,-3.933 2.808,-4.596 0.689,-0.66 3.569,-5.461 3.569,-5.95 0,-0.167 0.368,-0.698 0.818,-1.181 1.128,-1.211 3.752,-6.176 4.794,-9.073 0.475,-1.32 1.592,-4.29 2.484,-6.6 2.96,-7.673 3.476,-11.342 3.487,-24.8 0.01,-13.845 -1.082,-24.4 -3.146,-30.4 -0.417,-1.212 -1.045,-3.574 -1.594,-6 -1.919,-8.472 -1.596,-7.36 -3.899,-13.4 -0.838,-2.2 -1.629,-4.09 -1.755,-4.2 -0.29,-0.251 -1.308,-2.449 -2.225,-4.8 -0.386,-0.99 -1.301,-2.748 -2.033,-3.908 -0.732,-1.159 -1.331,-2.284 -1.331,-2.5 0,-0.215 -0.136,-0.392 -0.302,-0.392 -0.167,0 -0.546,-0.585 -0.844,-1.3 -0.777,-1.863 -3.189,-5.418 -5.035,-7.419 -0.872,-0.946 -2.043,-2.409 -2.602,-3.252 -1.484,-2.237 -9.11,-9.629 -9.934,-9.629 -0.178,0 -1.409,-1.035 -2.735,-2.3 -3.015,-2.876 -4.317,-3.947 -6.345,-5.216 -0.882,-0.552 -1.693,-1.129 -1.803,-1.282 -0.11,-0.154 -1.46,-1.152 -3,-2.22 -3.37,-2.337 -3.138,-2.111 -5.727,-5.582 -1.149,-1.54 -2.241,-2.991 -2.427,-3.225 -2.292,-2.885 -2.891,-21.195 -0.85,-25.975 3.492,-8.175 2.536,-25.849 -1.591,-29.4 -0.128,-0.11 -0.946,-1.096 -1.819,-2.191 -2.796,-3.51 -5.509,-5.192 -10.018,-6.213 -0.898,-0.203 -1.888,-0.443 -2.2,-0.534 -0.312,-0.09 -1.648,0.062 -2.968,0.339 m 4.894,2.655 c 3.7,0.885 6.369,2.225 7.429,3.73 0.47,0.668 1.175,1.563 1.566,1.989 0.391,0.427 0.711,0.939 0.711,1.139 0,0.199 0.351,0.855 0.779,1.457 4.007,5.627 4.739,16.989 1.586,24.629 -2.232,5.408 -2.356,6.201 -2.361,15.081 -0.002,4.555 0.164,8.695 0.368,9.2 0.205,0.506 0.471,1.385 0.592,1.954 0.247,1.171 5.569,8.442 7.3,9.974 0.625,0.553 1.766,1.446 2.536,1.985 0.77,0.539 1.94,1.48 2.6,2.091 0.66,0.611 1.307,1.112 1.438,1.113 0.131,0.001 0.761,0.452 1.4,1.002 0.639,0.549 1.269,0.999 1.401,1 0.131,0 0.61,0.315 1.064,0.7 0.454,0.385 1.516,1.274 2.361,1.976 0.845,0.702 2.324,2.007 3.287,2.9 0.962,0.893 1.894,1.624 2.07,1.624 0.487,0 8.744,8.531 9.568,9.886 0.399,0.655 1.149,1.637 1.668,2.183 1.959,2.059 3.836,4.908 5.885,8.931 0.336,0.66 1.292,2.257 2.125,3.548 0.833,1.291 1.629,2.958 1.769,3.704 0.14,0.746 0.414,1.455 0.609,1.576 0.195,0.121 0.355,0.51 0.355,0.866 0,0.355 0.711,2.099 1.58,3.876 1.906,3.897 3.692,9.51 5.037,15.83 0.949,4.462 1.423,6.486 1.778,7.6 0.176,0.55 0.539,2.08 0.808,3.4 0.269,1.32 0.641,2.94 0.827,3.6 1.728,6.132 1.938,25.166 0.38,34.4 -0.368,2.181 -4.279,13.765 -4.854,14.38 -0.196,0.209 -0.356,0.609 -0.356,0.89 0,0.796 -2.334,5.694 -3.374,7.082 -0.515,0.686 -1.608,2.543 -2.43,4.126 -0.822,1.582 -1.8,3.205 -2.173,3.606 -0.374,0.4 -1.2,1.625 -1.836,2.722 -1.991,3.431 -4.71,7.552 -5.668,8.59 -0.505,0.548 -0.919,1.105 -0.919,1.239 0,0.133 -0.36,0.658 -0.8,1.165 -0.44,0.507 -0.8,1.145 -0.8,1.418 0,0.272 -0.777,1.37 -1.728,2.439 -0.95,1.069 -2.333,2.843 -3.073,3.943 -0.741,1.1 -1.449,2.09 -1.575,2.2 -0.126,0.11 -0.764,0.92 -1.418,1.8 -0.654,0.88 -1.586,2.05 -2.07,2.6 -0.484,0.55 -1.768,2.35 -2.853,4 -1.085,1.65 -2.423,3.512 -2.973,4.137 -3.111,3.539 -8.72,14.076 -10.362,19.463 -0.742,2.435 -0.744,13.083 -0.003,15.8 1.181,4.328 2.239,6.901 3.782,9.2 1.546,2.302 8.803,9.8 9.486,9.8 0.181,0 0.568,0.232 0.858,0.515 0.606,0.59 3.251,1.885 3.852,1.885 0.221,0 1.183,0.386 2.139,0.857 1.734,0.854 2.093,1.006 4.738,2.006 1.125,0.425 11.972,0.572 55.2,0.746 58.871,0.237 55.895,0.102 58.223,2.644 1.903,2.077 2.392,3.179 1.885,4.247 -1.079,2.274 -1.911,5.633 -2.303,9.3 -0.845,7.898 -1.42,8.915 -6.205,10.973 -3.332,1.432 -113.869,1.01 -117.2,-0.448 -0.77,-0.337 -1.862,-0.799 -2.426,-1.026 -1.879,-0.759 -9.177,-7.395 -12.455,-11.326 -2.354,-2.825 -8.817,-9.339 -11.083,-11.173 -0.951,-0.77 -1.941,-1.58 -2.2,-1.8 -0.608,-0.518 -1.48,-1.051 -4.55,-2.782 -4.068,-2.295 -11.874,-1.313 -14.486,1.822 -0.11,0.132 -0.413,0.312 -0.673,0.4 -1.356,0.458 -8.179,7.017 -13.692,13.163 -3.655,4.074 -6.426,6.846 -9.938,9.941 -2.306,2.032 -6.041,3.237 -11.497,3.708 -7.446,0.643 -110.474,0.229 -112.231,-0.451 -2.534,-0.981 -4.007,-3.941 -4.578,-9.201 -0.132,-1.21 -0.387,-2.65 -0.567,-3.2 -0.18,-0.55 -0.729,-2.35 -1.219,-4 -0.491,-1.65 -1.032,-3.368 -1.203,-3.818 -0.558,-1.472 1.509,-4.526 3.792,-5.602 2.768,-1.306 5.706,-1.38 55.761,-1.414 54.116,-0.036 54.328,-0.044 59.051,-2.15 2.679,-1.195 3.926,-1.701 5.594,-2.27 0.88,-0.3 1.8,-0.726 2.044,-0.946 0.245,-0.22 1.132,-0.94 1.971,-1.6 8.563,-6.731 12.513,-18.815 9.612,-29.4 -1.117,-4.074 -2.798,-8.587 -4.17,-11.2 -1.595,-3.036 -2.385,-4.339 -3.132,-5.168 -0.482,-0.534 -1.471,-2.154 -2.199,-3.601 -0.727,-1.447 -1.458,-2.691 -1.624,-2.764 -0.166,-0.074 -0.302,-0.361 -0.302,-0.638 0,-0.278 -0.454,-1.028 -1.008,-1.667 -0.555,-0.639 -2.389,-3.142 -4.076,-5.562 -1.687,-2.42 -3.393,-4.722 -3.792,-5.116 -0.398,-0.393 -0.724,-0.875 -0.724,-1.071 0,-0.196 -0.225,-0.594 -0.501,-0.884 -0.275,-0.291 -0.86,-1.213 -1.3,-2.05 -0.439,-0.836 -1.356,-2.112 -2.037,-2.835 -0.681,-0.723 -1.659,-2.063 -2.174,-2.979 -0.514,-0.916 -1.06,-1.665 -1.213,-1.665 -0.153,0 -0.502,-0.54 -0.775,-1.2 -0.273,-0.66 -0.636,-1.2 -0.805,-1.2 -0.17,0 -0.421,-0.45 -0.559,-1 -0.138,-0.55 -0.428,-1 -0.644,-1 -0.215,0 -0.392,-0.225 -0.393,-0.5 0,-0.275 -0.495,-1.082 -1.1,-1.792 -0.604,-0.711 -1.629,-2.331 -2.276,-3.6 -0.648,-1.27 -1.64,-3.028 -2.204,-3.908 -1.001,-1.561 -3.03,-5.598 -3.618,-7.2 -0.162,-0.44 -0.48,-1.25 -0.708,-1.8 -0.227,-0.55 -0.888,-2.53 -1.467,-4.4 -0.579,-1.87 -1.227,-3.805 -1.44,-4.3 -0.212,-0.495 -0.557,-1.305 -0.767,-1.8 -2.091,-4.946 -2.097,-31.769 -0.01,-41.1 0.393,-1.752 1.378,-6.572 2.005,-9.8 1.52,-7.831 1.938,-9.543 3.857,-15.8 0.574,-1.87 1.346,-3.85 1.716,-4.4 0.868,-1.29 2.413,-4.655 2.413,-5.256 0,-0.631 1.915,-4.578 3.175,-6.544 0.564,-0.88 1.383,-2.32 1.821,-3.2 1.02,-2.052 4.151,-6.958 5.104,-7.998 0.404,-0.441 1.491,-1.963 2.417,-3.383 1.47,-2.254 12.464,-13.696 16.318,-16.983 0.751,-0.641 2.355,-2.083 3.565,-3.206 1.21,-1.122 3.19,-2.894 4.4,-3.936 1.21,-1.043 2.74,-2.701 3.4,-3.686 0.66,-0.985 1.335,-1.794 1.5,-1.799 0.165,-0.005 0.3,-0.279 0.3,-0.609 0,-0.33 0.141,-0.6 0.312,-0.6 0.172,0 0.523,-0.495 0.78,-1.1 0.256,-0.605 1.017,-2 1.69,-3.1 2.505,-4.094 2.842,-4.98 3.08,-8.11 0.247,-3.227 0.115,-3.927 -1.669,-8.89 C 180.139,86.288 180,85.28 180,76.109 c 0,-5.309 0.174,-9.204 0.451,-10.081 1.076,-3.407 2.558,-6.607 3.577,-7.723 0.604,-0.662 1.41,-1.78 1.79,-2.486 0.589,-1.094 5.587,-5.019 6.391,-5.019 0.148,0 0.837,-0.266 1.531,-0.591 2.817,-1.322 5.679,-1.641 8.554,-0.953 m -15.894,103.4 c -2.553,0.315 -3.477,0.928 -4.633,3.076 l -1.113,2.068 -0.227,13.039 c -0.237,13.609 -0.204,13.365 -2.015,15.172 -2.414,2.41 -2.298,2.389 -13.399,2.389 -16.909,0 -16.214,-0.629 -16.211,14.674 0.004,16.883 -0.402,16.51 17.998,16.528 9.985,0.01 9.911,-0.002 11.134,1.865 2.214,3.379 2.197,3.212 2.45,24.733 0.32,27.219 -0.981,25.352 17.696,25.383 13.865,0.023 14.667,-0.156 16.581,-3.708 l 1.118,-2.075 0.224,-20.2 0.224,-20.2 1.14,-2.315 c 1.754,-3.559 1.503,-3.484 11.622,-3.493 18.944,-0.017 18.611,0.275 18.611,-16.325 0,-15.4 0.589,-14.867 -16.414,-14.867 -11.12,0 -11.179,-0.011 -13.586,-2.658 l -1.4,-1.539 -0.22,-13.001 -0.221,-13.002 -1.075,-2.124 c -1.879,-3.712 -0.817,-3.456 -14.65,-3.529 -6.729,-0.035 -12.864,0.014 -13.634,0.109 m 20.389,2.134 c 7.357,1.064 7.211,0.718 7.211,17.007 0,18.293 -0.238,18.047 17.8,18.356 15.073,0.258 14.355,-0.478 14.132,14.478 -0.194,12.98 0.473,12.423 -15.234,12.731 -13.445,0.265 -14.337,0.612 -16.008,6.238 -0.249,0.838 -0.513,9.592 -0.657,21.8 -0.278,23.579 -0.055,22.224 -3.768,22.96 -6.04,1.198 -21.109,0.939 -25.265,-0.434 -2.543,-0.84 -2.552,-0.915 -2.577,-21.571 -0.038,-30.181 0.756,-29.072 -20.843,-29.135 -7.832,-0.022 -8.432,-0.17 -10.082,-2.489 l -1.098,-1.542 v -9.466 c 0,-14.145 -0.897,-13.31 14.6,-13.593 5.72,-0.105 11.03,-0.379 11.8,-0.61 1.757,-0.526 4,-2.175 4,-2.94 0,-0.319 0.159,-0.58 0.353,-0.58 0.81,0 1.012,-2.441 1.224,-14.8 0.241,-14.043 0.325,-14.566 2.423,-15.07 0.55,-0.132 1.195,-0.393 1.433,-0.579 1.309,-1.022 15.193,-1.536 20.556,-0.761 M 397.775,337.1 c -0.132,0.605 -0.388,1.55 -0.569,2.1 -0.859,2.608 -2.002,8.432 -3.18,16.2 -0.2,1.32 -0.757,3.75 -1.238,5.4 -0.947,3.246 -1.282,4.778 -2.184,10 -0.323,1.87 -0.784,4.12 -1.024,5 -0.665,2.433 -1.429,6.546 -2.38,12.8 -0.201,1.32 -0.556,3.647 -0.791,5.172 -0.234,1.524 -0.673,3.504 -0.974,4.4 -0.488,1.45 -1.151,3.889 -2.237,8.228 -1.537,6.141 -2.679,7.91 -6.155,9.533 -3.577,1.67 -3.47,1.667 -68.963,1.66 -67.338,-0.008 -66.317,0.019 -73.018,-1.953 -2.39,-0.703 -3.497,-1.236 -4.262,-2.054 -0.11,-0.117 -1.097,-0.927 -2.192,-1.8 -3.208,-2.554 -7.902,-7.483 -10.903,-11.448 -5.991,-7.914 -13.681,-12.756 -18.552,-11.68 -4.906,1.083 -7.463,2.142 -10.377,4.297 -1.223,0.905 -2.726,2.005 -3.339,2.445 -2.391,1.714 -5.054,4.228 -7.837,7.396 -1.21,1.377 -2.56,2.824 -3,3.214 -2.79,2.475 -4.685,3.959 -6.609,5.177 -1.205,0.763 -2.281,1.491 -2.391,1.619 -0.677,0.787 -2.806,1.912 -4,2.113 -0.77,0.129 -3.11,0.599 -5.2,1.042 -7.469,1.586 -9.82,1.639 -71.884,1.625 -64.65,-0.016 -62.558,0.048 -66.68,-2.011 -2.986,-1.491 -4.573,-4.376 -5.707,-10.375 -0.104,-0.55 -0.338,-1.36 -0.519,-1.8 -1.135,-2.757 -1.922,-5.912 -2.394,-9.6 -0.733,-5.722 -1.195,-8.344 -2.045,-11.6 -0.459,-1.76 -1,-4.1 -1.202,-5.2 -0.792,-4.321 -1.617,-7.885 -2.777,-12 -0.84,-2.98 -0.853,-3 -2.039,-3 H 0 v 6.6 6.6 l 1.1,0.001 c 1.023,0.002 1.149,0.192 1.792,2.7 0.381,1.485 1.132,4.319 1.67,6.299 0.538,1.98 1.172,4.86 1.409,6.4 0.237,1.54 0.593,3.61 0.793,4.6 0.199,0.99 0.558,2.79 0.798,4 0.24,1.21 0.625,3.01 0.856,4 0.231,0.99 0.598,2.7 0.817,3.8 0.548,2.757 1.806,5.936 3.519,8.899 1.541,2.664 1.558,2.675 6.446,3.914 2.84,0.721 128.777,0.869 133.154,0.157 4.358,-0.709 8.328,-1.806 11.446,-3.164 0.88,-0.383 2.41,-1.025 3.4,-1.427 2.624,-1.065 4.619,-2.761 12.2,-10.375 10.233,-10.278 15.412,-13.598 21.119,-13.537 5.572,0.059 6.674,0.95 19.44,15.727 4.124,4.773 7.007,7.632 7.928,7.864 0.502,0.126 0.913,0.368 0.913,0.539 0,0.17 0.315,0.41 0.7,0.532 0.689,0.218 2.909,1.478 3.3,1.873 0.323,0.326 4.424,1.537 6.72,1.985 2.906,0.566 134.049,0.569 136.28,0.002 7.445,-1.89 8.203,-3.114 11.816,-19.089 0.652,-2.887 1.1,-5.002 1.586,-7.5 0.258,-1.32 0.56,-2.85 0.672,-3.4 0.112,-0.55 0.454,-2.53 0.76,-4.4 0.582,-3.559 0.775,-4.449 2.166,-10 1.003,-4 1.175,-4.881 2.83,-14.5 0.499,-2.898 0.849,-4.763 1.804,-9.6 0.633,-3.208 0.769,-3.5 1.629,-3.5 H 400 v -6 -6 h -0.992 c -0.758,0 -1.05,0.26 -1.233,1.1"
     stroke="none"
     fill="#747474"
     fill-rule="evenodd" />
  <path
     id="path3"
     d="m 193.6,15.229 c -0.77,0.197 -2.636,0.658 -4.146,1.025 -1.511,0.368 -3.749,1.181 -4.974,1.807 -1.224,0.627 -2.469,1.139 -2.767,1.139 -0.784,0 -4.528,1.952 -5.824,3.037 -0.612,0.512 -2.412,1.554 -4,2.316 -2.672,1.282 -4.585,2.65 -6.426,4.595 -1.722,1.82 -3.012,3.106 -3.923,3.913 -0.535,0.474 -1.325,1.529 -1.756,2.344 -0.431,0.815 -1.414,2.159 -2.184,2.986 -1.954,2.098 -5.085,8.497 -5.583,11.409 -1.37,8.008 -1.565,23.455 -0.369,29.2 0.784,3.764 0.684,13.312 -0.156,14.8 -0.735,1.303 -5.048,5.8 -5.562,5.8 -0.323,0 -4.079,3.347 -4.886,4.354 -0.53,0.66 -6.767,6.906 -9.783,9.796 -1.176,1.128 -2.384,2.5 -2.684,3.05 -0.3,0.55 -1.317,1.766 -2.261,2.702 -0.944,0.936 -2.256,2.325 -2.916,3.088 -0.66,0.763 -2.145,2.394 -3.3,3.625 -1.155,1.231 -2.1,2.361 -2.1,2.511 -0.001,0.151 -0.448,0.793 -0.993,1.428 -0.546,0.635 -1.579,2.075 -2.296,3.2 -0.717,1.125 -1.716,2.466 -2.222,2.979 -0.949,0.964 -2.889,4.652 -2.889,5.493 0,0.262 -0.301,0.723 -0.669,1.025 -1.407,1.155 -6.151,9.182 -6.686,11.31 -0.16,0.639 -0.821,1.932 -1.468,2.872 -0.647,0.941 -1.177,1.904 -1.177,2.139 0,0.235 -0.155,0.428 -0.344,0.428 -0.19,0 -0.75,1.305 -1.246,2.9 -0.496,1.595 -1.487,3.8 -2.203,4.9 -0.716,1.1 -1.439,2.45 -1.606,3 -0.168,0.55 -0.622,1.72 -1.01,2.6 -1.381,3.136 -2.185,6.148 -2.564,9.6 -0.144,1.32 -0.436,3.3 -0.647,4.4 -0.745,3.884 -1.547,7.619 -1.973,9.2 -2.276,8.433 -2.278,35.478 -0.004,43.2 1.168,3.965 2.171,9.082 2.623,13.383 0.15,1.42 0.617,3.67 1.039,5 0.765,2.409 0.881,2.711 2.094,5.477 0.353,0.804 0.641,1.659 0.641,1.9 0,0.242 0.18,0.44 0.4,0.44 0.22,0 0.4,0.36 0.4,0.8 0,0.44 0.18,0.8 0.4,0.8 0.22,0 0.4,0.193 0.4,0.429 0,0.235 0.265,0.693 0.589,1.018 0.325,0.324 0.783,1.346 1.018,2.271 0.508,1.995 1.835,4.76 2.766,5.764 0.366,0.395 1.42,2.278 2.342,4.185 0.922,1.907 1.91,3.707 2.195,4 0.286,0.293 0.907,1.166 1.38,1.94 0.473,0.774 1.333,1.851 1.911,2.394 0.578,0.543 1.348,1.62 1.712,2.393 0.363,0.773 0.995,1.766 1.403,2.206 1.053,1.135 2.055,2.473 3.743,5 0.809,1.21 1.586,2.29 1.727,2.4 0.141,0.11 0.783,0.92 1.427,1.8 0.645,0.88 1.715,2.14 2.379,2.8 0.665,0.66 1.478,1.74 1.808,2.4 0.33,0.66 1.193,1.989 1.917,2.953 3.875,5.158 3.289,6.171 -4.317,7.465 -2.859,0.487 -12.677,0.579 -61.7,0.58 L 0,319.2 v 1.7 1.7 l 55.9,-0.106 c 72.252,-0.137 72.451,-0.148 73.18,-3.792 0.123,-0.615 0.38,-1.216 0.572,-1.334 0.465,-0.287 0.447,-3.259 -0.021,-3.549 -0.203,-0.125 -0.479,-0.727 -0.613,-1.337 -0.134,-0.61 -0.697,-1.636 -1.251,-2.282 -0.555,-0.645 -1.395,-1.809 -1.867,-2.586 -0.472,-0.778 -0.969,-1.504 -1.105,-1.614 -0.136,-0.11 -0.85,-1.1 -1.586,-2.2 -0.736,-1.1 -2.089,-2.9 -3.008,-4 -0.918,-1.1 -2.014,-2.54 -2.435,-3.2 -0.815,-1.277 -2.093,-2.826 -3.836,-4.647 -0.588,-0.615 -1.639,-2.161 -2.335,-3.436 -1.334,-2.44 -3.145,-5.026 -3.678,-5.25 -0.175,-0.074 -0.317,-0.316 -0.317,-0.539 0,-0.222 -0.334,-0.882 -0.743,-1.466 -0.408,-0.584 -1.244,-1.962 -1.857,-3.062 -0.613,-1.1 -1.638,-2.9 -2.279,-4 -0.641,-1.1 -1.266,-2.315 -1.39,-2.7 -0.123,-0.385 -0.383,-0.7 -0.578,-0.7 -0.194,0 -0.353,-0.225 -0.354,-0.5 -0.001,-0.675 -3.242,-8.716 -4.716,-11.7 -0.653,-1.32 -1.484,-3.84 -1.848,-5.6 -0.364,-1.76 -0.822,-3.92 -1.018,-4.8 -0.196,-0.88 -0.547,-2.86 -0.78,-4.4 -0.233,-1.54 -0.604,-3.97 -0.824,-5.4 -1.206,-7.83 -1.212,-32.692 -0.011,-41.2 1.219,-8.635 1.305,-9.132 2.614,-15 0.646,-2.896 1.958,-6.604 2.831,-8 0.275,-0.44 0.888,-1.88 1.362,-3.2 1.152,-3.209 1.773,-4.613 3.715,-8.4 0.902,-1.76 2.439,-4.82 3.415,-6.8 0.977,-1.98 2.469,-4.624 3.317,-5.876 0.848,-1.252 2.178,-3.599 2.956,-5.216 0.779,-1.617 2.444,-4.317 3.702,-6 1.257,-1.683 2.556,-3.462 2.886,-3.953 0.559,-0.833 3.119,-3.907 3.626,-4.355 0.125,-0.11 0.803,-1.047 1.507,-2.081 1.924,-2.829 7.504,-8.943 13.467,-14.757 1.76,-1.716 3.356,-3.289 3.546,-3.495 0.922,-0.999 6.958,-7.002 9.732,-9.68 5.725,-5.524 6.972,-10.166 5.424,-20.187 -1.89,-12.233 -1.798,-21.409 0.298,-29.91 0.725,-2.94 1.836,-5.528 2.5,-5.823 0.165,-0.074 0.3,-0.374 0.3,-0.667 0,-0.293 0.135,-0.593 0.3,-0.667 0.165,-0.073 0.654,-0.853 1.087,-1.733 1.449,-2.947 3.764,-6.094 5.481,-7.453 0.937,-0.741 2.34,-1.949 3.117,-2.684 1.756,-1.659 4.31,-3.341 9.215,-6.071 5.923,-3.295 7.24,-3.892 9.6,-4.35 1.21,-0.234 3.55,-0.735 5.2,-1.112 3.843,-0.878 15.593,-1 18.6,-0.193 3.168,0.851 8.2,3.139 8.2,3.728 0,0.184 0.18,0.335 0.399,0.335 0.344,0 2.652,1.538 5.401,3.6 3.538,2.654 8.687,8.83 10.837,13 1.248,2.42 2.726,5.272 3.286,6.338 1.008,1.922 1.652,4.483 2.581,10.262 0.646,4.019 0.633,15.907 -0.02,19.2 -2.806,14.14 -1.947,17.615 6.031,24.413 3.24,2.76 4.69,4.064 10.881,9.787 2.38,2.2 4.885,4.613 5.566,5.361 0.681,0.749 2.408,2.549 3.838,4 1.43,1.452 3.318,3.629 4.196,4.839 0.878,1.21 1.958,2.587 2.4,3.06 0.442,0.472 1.196,1.372 1.675,2 0.479,0.627 1.204,1.5 1.612,1.94 0.408,0.44 1.275,1.52 1.927,2.4 0.652,0.88 1.286,1.69 1.409,1.8 0.971,0.869 3.317,4.585 4.846,7.675 0.401,0.811 0.896,1.577 1.1,1.703 0.337,0.208 0.927,1.215 4.182,7.136 0.579,1.053 1.053,2.178 1.053,2.5 0,0.322 0.14,0.586 0.31,0.586 0.171,0 0.666,0.808 1.1,1.796 0.435,0.988 0.896,1.798 1.026,1.8 0.13,0.002 0.477,0.769 0.772,1.704 0.295,0.935 0.654,1.88 0.798,2.1 0.145,0.22 0.576,1.48 0.959,2.8 0.705,2.432 0.873,2.895 1.961,5.4 1.43,3.293 2.46,6.557 3.091,9.8 1.013,5.204 1.173,6.105 1.603,9 1.748,11.776 2.095,17.582 1.842,30.8 -0.161,8.393 -0.407,12.666 -0.852,14.8 -0.345,1.65 -0.792,3.9 -0.995,5 -0.203,1.1 -0.548,2.72 -0.766,3.6 -0.218,0.88 -0.598,2.41 -0.844,3.4 -0.723,2.905 -1.531,5.09 -2.784,7.521 -0.646,1.253 -1.628,3.498 -2.183,4.988 -1.092,2.932 -2.265,5.572 -2.617,5.891 -0.122,0.11 -0.76,1.28 -1.419,2.6 -0.659,1.32 -1.296,2.49 -1.417,2.6 -0.12,0.11 -0.788,1.37 -1.484,2.8 -1.434,2.947 -2.428,4.651 -3.301,5.659 -0.33,0.381 -1.3,2.009 -2.156,3.617 -1.426,2.679 -4.112,7.043 -4.632,7.524 -0.119,0.11 -0.746,0.92 -1.393,1.8 -0.647,0.88 -1.276,1.69 -1.398,1.8 -2.403,2.173 -10.277,14.51 -11.532,18.068 -1.414,4.011 0.174,7.636 4.126,9.415 1.492,0.672 5.208,0.727 63.385,0.937 46.4,0.168 62.148,0.342 63.197,0.702 2.737,0.936 3.203,0.724 3.203,-1.462 v -1.939 l -3.9,-0.259 c -2.145,-0.142 -29.28,-0.265 -60.3,-0.273 -63.783,-0.016 -64.721,-0.055 -66.297,-2.722 -0.93,-1.574 -0.176,-5.374 1.402,-7.067 0.41,-0.44 1.451,-2.076 2.313,-3.636 0.862,-1.56 2.078,-3.27 2.701,-3.8 1.144,-0.972 4.881,-6.004 4.881,-6.572 0,-0.168 0.828,-1.275 1.839,-2.459 1.686,-1.973 3.755,-5.433 3.759,-6.286 10e-4,-0.194 0.337,-0.644 0.746,-1 1.436,-1.248 4.745,-6.82 7.392,-12.447 0.661,-1.404 1.489,-2.826 1.865,-3.2 0.377,-0.376 1.181,-2.199 1.803,-4.091 0.342,-1.04 1.298,-2.93 2.126,-4.2 2.606,-4.002 4.567,-9.781 5.873,-17.309 0.363,-2.09 1.181,-5.379 1.818,-7.309 1.899,-5.751 2.433,-16.449 1.568,-31.393 -0.363,-6.254 -0.636,-8 -1.957,-12.498 -0.426,-1.452 -0.853,-4.039 -1.85,-11.2 -0.903,-6.482 -3.053,-14.504 -4.231,-15.78 -0.193,-0.209 -0.351,-0.627 -0.351,-0.928 0,-0.301 -0.51,-1.3 -1.132,-2.22 -0.623,-0.92 -1.453,-2.833 -1.844,-4.252 -0.39,-1.419 -0.992,-3.01 -1.337,-3.536 -0.967,-1.477 -2.046,-3.382 -2.539,-4.484 -0.246,-0.55 -0.65,-1.447 -0.898,-1.994 -1.269,-2.803 -4.804,-8.629 -5.801,-9.56 -0.625,-0.584 -1.276,-1.508 -1.445,-2.054 -0.371,-1.193 -1.395,-2.714 -3.628,-5.392 -0.917,-1.1 -1.893,-2.434 -2.17,-2.963 -0.527,-1.012 -1.878,-2.632 -4.699,-5.635 -0.931,-0.991 -2.247,-2.468 -2.925,-3.283 -0.677,-0.814 -1.563,-1.586 -1.968,-1.715 -0.405,-0.128 -1.034,-0.859 -1.397,-1.624 -0.744,-1.569 -5.433,-6.404 -6.555,-6.76 -0.404,-0.128 -0.981,-0.695 -1.284,-1.26 -0.302,-0.565 -1.096,-1.407 -1.764,-1.871 -0.668,-0.463 -2.474,-2.127 -4.014,-3.696 -1.54,-1.569 -3.824,-3.505 -5.075,-4.302 -1.251,-0.797 -2.471,-1.816 -2.712,-2.266 -0.24,-0.449 -1.128,-1.522 -1.973,-2.384 -3.021,-3.082 -3.109,-7.884 -0.379,-20.672 1.306,-6.115 -0.882,-23.631 -3.644,-29.181 -0.889,-1.787 -1.617,-3.445 -1.617,-3.685 0,-0.24 -0.135,-0.496 -0.3,-0.57 -0.66,-0.293 -2.932,-3.579 -3.926,-5.677 -0.581,-1.227 -1.402,-2.338 -1.829,-2.473 -0.426,-0.136 -1.239,-0.982 -1.807,-1.881 -1.146,-1.816 -4.354,-4.955 -5.438,-5.32 -0.385,-0.13 -0.7,-0.404 -0.7,-0.609 0,-0.205 -0.217,-0.373 -0.483,-0.373 -0.266,0 -1.121,-0.612 -1.9,-1.36 -0.779,-0.747 -2.407,-1.861 -3.617,-2.474 -1.21,-0.613 -2.65,-1.458 -3.2,-1.877 -3.518,-2.68 -17.39,-4.244 -23.6,-2.66 m 3.731,34.959 c -4.187,0.83 -9.164,3.518 -10.598,5.723 -0.906,1.395 -2.018,2.901 -2.549,3.455 -0.701,0.731 -2.246,4.305 -2.831,6.548 -0.661,2.541 -0.78,18.331 -0.153,20.258 0.221,0.675 0.747,2.308 1.171,3.628 0.423,1.32 1.164,3.48 1.646,4.8 2.111,5.779 0.764,10.455 -5.896,20.469 -1.264,1.901 -9.901,10.453 -12.721,12.597 -2.08,1.581 -15.352,15.154 -15.609,15.962 -0.135,0.425 -0.384,0.772 -0.554,0.772 -0.171,0 -0.792,0.886 -1.382,1.969 -0.589,1.084 -1.224,2.029 -1.409,2.1 -0.487,0.189 -3.616,5.228 -5.421,8.731 -0.85,1.65 -1.847,3.45 -2.215,4 -0.774,1.156 -2.167,4.144 -2.61,5.6 -0.167,0.55 -0.81,2.008 -1.428,3.24 -1.888,3.765 -5.093,14.799 -5.74,19.76 -0.144,1.1 -0.426,2.81 -0.627,3.8 -0.202,0.99 -0.556,2.79 -0.787,4 -0.231,1.21 -0.702,3.55 -1.047,5.2 -1.41,6.741 -1.898,32.073 -0.671,34.8 0.248,0.55 1.107,3.16 1.909,5.8 2.156,7.091 2.149,7.072 4.337,12.117 0.792,1.824 1.953,4.074 2.581,5 0.629,0.926 1.622,2.673 2.208,3.883 0.586,1.21 1.591,2.815 2.235,3.567 0.643,0.753 1.48,2.058 1.86,2.9 0.381,0.843 0.844,1.533 1.031,1.533 0.186,0 0.339,0.188 0.339,0.417 0,0.229 0.181,0.634 0.401,0.9 0.221,0.266 1.064,1.471 1.873,2.678 0.809,1.208 1.874,2.631 2.368,3.163 0.493,0.533 1.295,1.742 1.781,2.687 0.487,0.946 1.226,2.087 1.644,2.535 0.418,0.449 2.193,2.885 3.945,5.413 1.752,2.529 3.553,5.021 4.002,5.537 0.902,1.037 1.796,2.557 3.457,5.87 0.606,1.21 1.334,2.438 1.617,2.73 1.671,1.72 6.512,10.781 6.512,12.188 0,0.287 0.157,0.693 0.349,0.902 1.05,1.145 2.451,8.107 2.451,12.18 0,11.293 -6.856,22.277 -16.209,25.968 -1.535,0.605 -3.601,1.485 -4.591,1.955 -4.326,2.051 -5.054,2.077 -58.752,2.08 -53.062,0.003 -53.96,0.034 -56.441,1.906 -2.775,2.095 -3.079,2.809 -2.276,5.343 1.403,4.429 2.669,10.568 2.669,12.944 0,2.042 1.74,4.393 3.881,5.242 2.565,1.018 111.064,1.206 115.719,0.2 4.977,-1.075 9.917,-4.778 16.329,-12.238 4.11,-4.782 12.945,-13.332 14.826,-14.349 0.355,-0.191 1.455,-0.818 2.445,-1.392 2.779,-1.611 4.358,-2.046 7.447,-2.053 2.808,-0.006 6.953,1.214 6.953,2.047 0,0.191 0.27,0.347 0.6,0.347 0.33,0 0.6,0.147 0.6,0.326 0,0.179 0.602,0.613 1.337,0.963 1.987,0.948 8.996,7.541 13.324,12.533 4.868,5.616 10.961,11.305 13.345,12.46 4.094,1.984 1.315,1.89 59.59,2.025 67.268,0.156 63.564,0.609 64.824,-7.927 0.954,-6.465 1.53,-9.856 1.957,-11.526 0.564,-2.202 0.363,-2.811 -1.501,-4.535 -2.291,-2.12 -0.5,-2.047 -57.076,-2.322 -57.27,-0.278 -55.299,-0.195 -60.241,-2.525 -1.627,-0.767 -3.589,-1.658 -4.359,-1.979 -2.952,-1.23 -9.396,-6.933 -11.443,-10.128 -0.411,-0.641 -1.002,-1.431 -1.314,-1.756 -0.672,-0.699 -2.111,-3.954 -2.745,-6.209 -0.248,-0.88 -0.716,-2.5 -1.04,-3.6 -2.939,-9.964 1.555,-24.205 11.539,-36.562 1.212,-1.5 2.203,-2.917 2.203,-3.149 0,-0.232 0.138,-0.482 0.307,-0.556 0.169,-0.073 0.888,-1.033 1.597,-2.133 0.71,-1.1 1.921,-2.718 2.693,-3.596 0.772,-0.877 1.403,-1.719 1.403,-1.871 0,-0.152 0.231,-0.514 0.513,-0.804 0.282,-0.291 0.923,-1.112 1.424,-1.824 0.501,-0.713 1.683,-2.201 2.627,-3.307 0.944,-1.106 2.059,-2.673 2.476,-3.483 0.736,-1.426 1.469,-2.484 2.416,-3.487 0.774,-0.82 4.144,-6.213 4.144,-6.632 0,-0.218 0.18,-0.396 0.4,-0.396 0.22,0 0.4,-0.27 0.4,-0.6 0,-0.33 0.16,-0.6 0.357,-0.6 0.196,0 0.462,-0.422 0.592,-0.937 0.129,-0.516 0.663,-1.371 1.187,-1.9 0.524,-0.53 1.722,-2.403 2.662,-4.163 0.941,-1.76 2.007,-3.65 2.37,-4.2 0.364,-0.55 0.869,-1.45 1.124,-2 1.252,-2.707 2.448,-5.558 2.935,-7 0.297,-0.88 0.666,-1.78 0.821,-2 0.154,-0.22 0.411,-1.098 0.57,-1.951 0.16,-0.853 0.73,-2.743 1.268,-4.2 2.285,-6.19 2.287,-6.207 2.284,-19.049 -0.002,-8.212 -0.162,-12.694 -0.507,-14.2 -0.277,-1.21 -0.662,-2.92 -0.855,-3.8 -0.194,-0.88 -0.538,-2.41 -0.766,-3.4 -0.228,-0.99 -0.703,-3.15 -1.056,-4.8 -0.98,-4.586 -1.403,-6.47 -1.795,-8 -0.34,-1.325 -1.004,-3.961 -2.191,-8.695 -0.289,-1.152 -1.16,-3.402 -1.936,-5 -0.776,-1.598 -1.865,-4.238 -2.419,-5.867 -0.555,-1.629 -1.619,-3.969 -2.367,-5.2 -0.747,-1.231 -1.79,-3.048 -2.318,-4.038 -0.528,-0.99 -1.095,-1.86 -1.26,-1.933 -0.165,-0.074 -0.3,-0.389 -0.3,-0.7 0,-0.312 -0.18,-0.567 -0.4,-0.567 -0.22,0 -0.4,-0.24 -0.4,-0.534 0,-0.499 -2.075,-3.43 -3.725,-5.261 -0.399,-0.443 -1.202,-1.525 -1.784,-2.405 -1.501,-2.267 -12.656,-12.677 -16.049,-14.978 -0.793,-0.538 -1.68,-1.213 -1.971,-1.5 -0.29,-0.287 -0.65,-0.522 -0.8,-0.522 -0.149,-10e-4 -0.746,-0.406 -1.326,-0.9 -0.58,-0.495 -1.66,-1.379 -2.4,-1.965 -0.74,-0.586 -1.726,-1.396 -2.192,-1.8 -0.465,-0.404 -1.436,-1.185 -2.158,-1.735 -1.249,-0.953 -2.779,-2.801 -6.084,-7.35 -1.774,-2.441 -1.701,-2.281 -2.299,-5.05 -0.8,-3.708 -0.188,-21.698 0.762,-22.4 2.184,-1.614 4.015,-13.524 2.791,-18.154 -1.235,-4.67 -1.777,-6.185 -2.738,-7.646 -0.578,-0.88 -1.278,-2.05 -1.555,-2.6 -1.352,-2.686 -4.595,-4.939 -8.061,-5.6 -0.996,-0.189 -2.081,-0.425 -2.411,-0.523 -0.33,-0.099 -1.711,0.041 -3.069,0.311 m 6.469,3.728 c 1.1,0.342 2.09,0.726 2.2,0.853 0.11,0.127 0.56,0.43 1,0.673 0.44,0.243 1.094,1.053 1.453,1.8 2.628,5.464 3.382,6.938 3.743,7.322 2.231,2.366 1.588,11.084 -1.184,16.041 -3.419,6.114 -2.874,30.388 0.749,33.31 0.467,0.377 1.513,1.585 2.325,2.685 2.63,3.564 12.737,12.566 14.139,12.592 0.234,0.004 0.954,0.561 1.6,1.236 0.646,0.675 1.805,1.615 2.575,2.088 1.816,1.116 12.976,12.362 13.895,14.001 0.388,0.693 1.042,1.624 1.454,2.071 1.804,1.956 3.136,4.174 6.054,10.083 1.712,3.466 3.357,6.546 3.655,6.844 0.297,0.297 0.646,1.023 0.775,1.613 0.13,0.59 0.49,1.751 0.801,2.58 0.311,0.83 0.566,1.777 0.566,2.104 0,0.328 0.378,1.45 0.84,2.492 2.04,4.605 2.591,6.575 3.55,12.696 0.447,2.852 1.091,6.439 1.651,9.2 3.22,15.871 3.025,28.505 -0.641,41.4 -2.252,7.923 -2.626,8.957 -3.982,10.999 -0.766,1.154 -1.676,2.934 -2.023,3.955 -0.347,1.021 -1.609,3.159 -2.805,4.751 -1.196,1.592 -2.178,3.12 -2.182,3.395 -0.005,0.275 -0.157,0.5 -0.34,0.5 -0.183,0 -1.037,1.389 -1.899,3.087 -0.862,1.698 -1.948,3.543 -2.415,4.1 -0.466,0.557 -1.688,2.273 -2.715,3.813 -1.848,2.773 -3.604,5.103 -5.868,7.789 -0.644,0.764 -1.171,1.527 -1.171,1.695 0,0.169 -0.26,0.624 -0.578,1.011 -3.157,3.849 -3.953,4.964 -4.846,6.79 -0.567,1.16 -1.341,2.335 -1.719,2.612 -1.328,0.971 -5.265,6.405 -6.468,8.925 -0.668,1.401 -1.396,2.659 -1.618,2.796 -0.678,0.419 -2.2,3.071 -2.973,5.182 -0.404,1.1 -0.959,2.27 -1.234,2.6 -1.98,2.372 -3.764,9.222 -3.764,14.448 0,5.453 1.285,10.391 3.892,14.952 0.251,0.44 0.955,1.88 1.564,3.2 0.609,1.32 1.475,2.71 1.925,3.09 0.451,0.379 0.936,0.829 1.08,1 2.026,2.408 6.456,6.557 7.539,7.06 0.77,0.357 2.013,1.175 2.763,1.816 1.592,1.362 5.258,3.234 6.332,3.234 0.41,0 0.916,0.155 1.125,0.345 1.483,1.345 3.322,1.396 58.18,1.627 30.656,0.129 54.548,0.384 55,0.588 1.905,0.856 2.521,1.804 2.185,3.364 -0.175,0.812 -0.524,3.456 -0.776,5.876 -0.418,4.02 -0.748,5.236 -2.226,8.2 -0.514,1.032 -2.127,1.998 -4.611,2.761 -1.989,0.611 -105.561,0.617 -109.665,0.006 -5.406,-0.804 -8.084,-2.894 -19.507,-15.217 -6.028,-6.503 -8.474,-8.856 -10.846,-10.43 -1.218,-0.809 -2.448,-1.752 -2.733,-2.095 -0.286,-0.344 -0.767,-0.625 -1.07,-0.625 -0.303,0 -0.551,-0.157 -0.551,-0.348 0,-0.811 -3.958,-1.451 -8.8,-1.423 -5.655,0.033 -8.509,0.986 -11.796,3.938 -0.877,0.788 -1.741,1.433 -1.919,1.433 -0.333,0 -1.949,1.643 -10.885,11.066 -15.096,15.92 -5.939,14.222 -75.8,14.058 l -53,-0.124 -2.262,-1.061 -2.262,-1.06 -0.254,-3.14 c -0.253,-3.121 -1.244,-10.587 -1.671,-12.584 -0.189,-0.886 0.011,-1.191 1.313,-2 L 40.2,362.6 93.8,362.355 c 59.48,-0.272 54.707,-0.04 62.05,-3.011 1.348,-0.546 2.788,-1.304 3.2,-1.685 0.413,-0.381 1.762,-1.271 3,-1.977 2.641,-1.506 7.448,-6.41 8.519,-8.689 0.411,-0.876 1.223,-2.313 1.802,-3.193 3.721,-5.649 3.627,-23.966 -0.152,-29.534 -0.516,-0.761 -1.07,-1.807 -1.231,-2.325 -0.827,-2.662 -4.741,-9.446 -6.918,-11.989 -0.448,-0.524 -1.432,-2.144 -2.186,-3.601 -0.754,-1.457 -1.923,-3.257 -2.598,-4 -0.675,-0.743 -1.774,-2.393 -2.443,-3.666 -0.669,-1.274 -1.492,-2.591 -1.83,-2.929 -0.337,-0.337 -0.613,-0.754 -0.613,-0.925 0,-0.172 -0.495,-0.859 -1.1,-1.527 -2.094,-2.311 -2.869,-3.34 -3.782,-5.018 -0.505,-0.927 -1.501,-2.316 -2.215,-3.086 -0.713,-0.77 -1.298,-1.532 -1.3,-1.692 -10e-4,-0.161 -0.633,-1.277 -1.403,-2.481 -0.77,-1.204 -1.4,-2.362 -1.4,-2.574 0,-0.213 -0.138,-0.446 -0.308,-0.52 -0.169,-0.073 -1.071,-1.429 -2.006,-3.013 -0.934,-1.584 -1.867,-2.985 -2.073,-3.112 -0.206,-0.127 -1.038,-1.592 -1.848,-3.253 -0.81,-1.662 -1.872,-3.502 -2.36,-4.089 -0.487,-0.586 -0.989,-1.516 -1.114,-2.066 -0.396,-1.736 -1.877,-7.298 -2.664,-10 -1.341,-4.605 -1.561,-5.72 -2.047,-10.4 -0.711,-6.833 -0.146,-20.354 1.205,-28.8 0.647,-4.051 1.159,-7.378 1.569,-10.2 1.362,-9.376 2.073,-12.568 3.411,-15.309 0.508,-1.04 1.431,-3.511 2.052,-5.491 0.622,-1.98 1.612,-4.32 2.201,-5.2 0.59,-0.88 2.191,-3.94 3.559,-6.8 3.186,-6.66 3.085,-6.481 4.846,-8.6 0.823,-0.99 1.866,-2.502 2.318,-3.36 0.727,-1.38 4.217,-5.322 10.159,-11.476 1.045,-1.082 1.9,-2.145 1.9,-2.361 0,-0.216 0.726,-0.851 1.614,-1.412 0.887,-0.56 2.308,-1.687 3.157,-2.505 0.849,-0.817 2.398,-2.206 3.442,-3.086 1.044,-0.88 2.549,-2.293 3.343,-3.14 2.698,-2.876 3.083,-3.259 4.083,-4.06 1.281,-1.026 3.587,-4.28 4.702,-6.637 0.478,-1.01 1.501,-2.72 2.273,-3.8 3.615,-5.056 3.562,-14.824 -0.119,-22.129 L 183,84.668 182.871,76.575 c -0.116,-7.274 -0.053,-8.25 0.624,-9.634 0.883,-1.805 1.817,-3.458 2.116,-3.741 0.116,-0.11 0.535,-0.935 0.931,-1.833 0.812,-1.844 4.344,-5.728 5.858,-6.441 4.794,-2.261 6.807,-2.439 11.4,-1.01 m -19.577,95.168 c -5.781,0.902 -6.989,4.718 -7.009,22.146 l -0.014,12.231 -0.95,0.892 c -0.927,0.871 -1.254,0.899 -13.569,1.171 -14.094,0.311 -13.588,0.199 -15.125,3.354 -0.354,0.727 -0.894,1.844 -1.2,2.483 -0.899,1.877 -0.75,22.06 0.185,25.106 1.961,6.384 3.072,6.829 17.559,7.039 6.325,0.092 11.5,0.198 11.5,0.236 0,0.038 0.36,1.054 0.8,2.258 0.756,2.068 0.801,3.205 0.814,20.594 0.023,29.84 -0.879,28.606 20.91,28.606 21.795,0 20.363,1.896 20.69,-27.4 0.233,-20.83 0.328,-22.073 1.82,-23.662 0.301,-0.321 3.915,-0.514 11.8,-0.631 12.567,-0.187 13.192,-0.296 15.035,-2.629 3.474,-4.398 3.835,-6.261 3.664,-18.908 l -0.133,-9.831 -1.1,-1.661 c -0.605,-0.913 -1.1,-1.815 -1.1,-2.003 0,-0.189 -0.585,-0.868 -1.3,-1.509 L 246.2,185.8 235,185.541 c -6.16,-0.143 -11.847,-0.278 -12.639,-0.3 -3.233,-0.092 -3.164,0.211 -3.533,-15.707 -0.379,-16.411 -0.46,-16.807 -3.896,-19.193 L 213,149 199.2,148.95 c -7.59,-0.027 -14.33,0.034 -14.977,0.134 m 29.539,4.079 c 2.512,2.436 2.705,3.582 2.901,17.237 0.198,13.833 0.176,13.635 1.649,15.157 1.936,2.001 2.2,2.043 12.842,2.043 11.247,0 13.868,0.384 15.636,2.292 l 1.01,1.089 v 12.61 c 0,17.363 1.111,16.154 -15,16.316 -13.011,0.131 -12.332,0.024 -13.862,2.182 -1.856,2.616 -1.838,2.416 -2.122,23.711 l -0.266,20 -1.021,2.2 c -0.562,1.21 -1.51,2.65 -2.107,3.2 l -1.085,1 -12.469,0.136 c -16.491,0.18 -16.648,0.146 -18.974,-4.136 l -1.086,-2 -0.234,-19.8 c -0.254,-21.407 -0.269,-21.55 -2.51,-24.49 l -1.303,-1.71 -11.58,-0.2 c -16.903,-0.292 -16.35,0.328 -16.113,-18.072 0.189,-14.687 -0.238,-14.328 17.022,-14.328 h 10.433 l 1.938,-1.754 1.939,-1.755 0.228,-13.145 c 0.354,-20.479 -0.903,-19.275 20.05,-19.195 l 12.678,0.049 1.406,1.363 M 397.433,356.9 c -0.376,2.035 -0.868,4.69 -1.093,5.9 -0.899,4.822 -1.096,5.892 -1.508,8.2 -0.875,4.901 -1.189,6.439 -1.632,8 -0.954,3.366 -1.688,6.887 -2.586,12.4 -0.672,4.122 -2.544,13.095 -3.381,16.2 -2.432,9.023 -3.851,11.185 -8.433,12.853 l -2.6,0.947 H 308 c -73.154,0 -70.236,0.078 -74.4,-1.99 -7.223,-3.586 -9.205,-5.279 -16.863,-14.403 -9.339,-11.125 -13.069,-13.619 -18.719,-12.513 -3.725,0.729 -12.722,7.318 -17.618,12.902 -1.88,2.145 -5.828,6.088 -7.816,7.807 -3.186,2.754 -12.424,6.563 -18.584,7.662 -4.106,0.732 -133.927,0.797 -135.8,0.068 -0.66,-0.258 -1.681,-0.573 -2.269,-0.7 C 12.492,419.485 9.357,413.6 7.602,404.6 7.431,403.72 6.908,401.02 6.441,398.6 4.509,388.599 3.986,386.069 3.585,384.8 3.412,384.25 3.035,382.945 2.747,381.9 2.284,380.214 2.1,380 1.113,380 H 0 v 6.6 6.6 h 1.2 c 1.06,0 1.2,0.137 1.2,1.169 0,0.644 0.171,2.039 0.381,3.1 0.209,1.062 0.589,3.281 0.844,4.931 1.764,11.429 3.444,16.399 6.399,18.928 0.929,0.795 1.576,1.702 1.576,2.21 v 0.862 h 75.6 75.6 l 0.008,-0.9 c 0.006,-0.718 0.565,-1.162 2.768,-2.196 1.517,-0.713 2.999,-1.533 3.292,-1.823 0.477,-0.471 1.455,-1.039 4.201,-2.438 2.496,-1.272 8.667,-7.243 9.952,-9.631 0.42,-0.779 1.084,-1.518 1.476,-1.643 0.392,-0.124 1.465,-1.029 2.385,-2.01 0.92,-0.982 2.853,-2.521 4.295,-3.422 1.443,-0.9 2.983,-1.952 3.423,-2.337 0.44,-0.385 1.835,-1.079 3.1,-1.544 l 2.3,-0.845 2.3,0.852 c 2.108,0.781 4.248,2.268 6.3,4.38 0.44,0.452 1.739,1.765 2.886,2.916 1.147,1.152 2.227,2.458 2.4,2.903 0.392,1.012 2.665,3.869 4.514,5.676 4.659,4.553 5.441,5.262 5.801,5.264 0.219,0.001 1.285,0.805 2.368,1.787 1.083,0.982 2.568,2.07 3.3,2.417 0.975,0.462 1.331,0.894 1.331,1.613 v 0.981 h 76.4 76.4 v -0.827 c 0,-0.455 0.832,-1.67 1.849,-2.7 2.183,-2.212 3.362,-4.696 4.307,-9.073 0.38,-1.76 0.849,-3.92 1.041,-4.8 0.468,-2.143 1.337,-7.241 2.42,-14.2 0.256,-1.65 0.878,-4.26 1.381,-5.8 1.106,-3.388 2.193,-9.357 2.824,-15.5 0.215,-2.104 0.318,-2.3 1.207,-2.3 H 400 v -8 -8 h -0.941 c -0.872,0 -0.992,0.275 -1.626,3.7"
     stroke="none"
     fill="#9d9d9d"
     fill-rule="evenodd" />
  <path
     id="path4"
     d="m 196.4,19.057 c -0.77,0.099 -2.66,0.446 -4.2,0.77 -1.54,0.324 -3.79,0.781 -5,1.015 -2.36,0.458 -3.677,1.055 -9.6,4.35 -4.905,2.73 -7.459,4.412 -9.215,6.071 -0.777,0.735 -2.18,1.943 -3.117,2.684 -1.717,1.359 -4.032,4.506 -5.481,7.453 -0.433,0.88 -0.922,1.66 -1.087,1.733 -0.165,0.074 -0.3,0.374 -0.3,0.667 0,0.293 -0.135,0.593 -0.3,0.667 -2.057,0.914 -4.1,11.252 -4.1,20.746 0,5.351 0.24,8.109 1.302,14.987 1.548,10.021 0.301,14.663 -5.424,20.187 -2.774,2.678 -8.81,8.681 -9.732,9.68 -0.19,0.206 -1.786,1.779 -3.546,3.495 -5.963,5.814 -11.543,11.928 -13.467,14.757 -0.704,1.034 -1.382,1.971 -1.507,2.081 -0.507,0.448 -3.067,3.522 -3.626,4.355 -0.33,0.491 -1.629,2.27 -2.886,3.953 -1.258,1.683 -2.923,4.383 -3.702,6 -0.778,1.617 -2.108,3.964 -2.956,5.216 -0.848,1.252 -2.34,3.896 -3.317,5.876 -0.976,1.98 -2.513,5.04 -3.415,6.8 -1.942,3.787 -2.563,5.191 -3.715,8.4 -0.474,1.32 -1.087,2.76 -1.362,3.2 -0.873,1.396 -2.185,5.104 -2.831,8 -1.309,5.868 -1.395,6.365 -2.614,15 -1.201,8.508 -1.195,33.37 0.011,41.2 0.22,1.43 0.591,3.86 0.824,5.4 0.233,1.54 0.584,3.52 0.78,4.4 0.196,0.88 0.654,3.04 1.018,4.8 0.364,1.76 1.195,4.28 1.848,5.6 1.474,2.984 4.715,11.025 4.716,11.7 0.001,0.275 0.16,0.5 0.354,0.5 0.195,0 0.455,0.315 0.578,0.7 0.124,0.385 0.749,1.6 1.39,2.7 0.641,1.1 1.666,2.9 2.279,4 0.613,1.1 1.449,2.478 1.857,3.062 0.409,0.584 0.743,1.244 0.743,1.466 0,0.223 0.142,0.465 0.317,0.539 0.533,0.224 2.344,2.81 3.678,5.25 0.696,1.275 1.747,2.821 2.335,3.436 1.743,1.821 3.021,3.37 3.836,4.647 0.421,0.66 1.517,2.1 2.435,3.2 0.919,1.1 2.272,2.9 3.008,4 0.736,1.1 1.45,2.09 1.586,2.2 0.136,0.11 0.633,0.836 1.105,1.614 0.472,0.777 1.312,1.941 1.867,2.586 0.554,0.646 1.117,1.672 1.251,2.282 0.134,0.61 0.41,1.212 0.613,1.337 0.468,0.29 0.486,3.262 0.021,3.549 -0.192,0.118 -0.449,0.719 -0.572,1.334 -0.729,3.643 -0.583,3.635 -68.519,3.67 C 9.136,322.399 0,322.533 0,323.26 c 0,0.519 111.803,0.428 119.394,-0.097 6.793,-0.471 8.699,-1.071 10.333,-3.254 1.354,-1.811 1.756,-6.24 0.628,-6.937 -0.195,-0.121 -0.357,-0.524 -0.359,-0.896 -0.002,-0.372 -1.172,-2.198 -2.599,-4.058 -1.427,-1.86 -2.698,-3.705 -2.823,-4.1 -0.125,-0.395 -0.396,-0.718 -0.601,-0.718 -0.205,0 -0.373,-0.27 -0.373,-0.6 0,-0.33 -0.141,-0.6 -0.314,-0.6 -0.172,0 -0.608,-0.495 -0.969,-1.1 -0.36,-0.605 -0.989,-1.46 -1.397,-1.9 -0.408,-0.44 -1.184,-1.43 -1.725,-2.2 -1.519,-2.163 -2.064,-2.827 -3.887,-4.74 -0.931,-0.977 -1.92,-2.29 -2.198,-2.918 -0.278,-0.628 -0.641,-1.142 -0.808,-1.142 -0.166,0 -0.302,-0.183 -0.302,-0.406 0,-0.426 -2.658,-4.631 -3.474,-5.496 -0.26,-0.277 -0.588,-0.862 -0.727,-1.3 -0.139,-0.439 -0.421,-0.798 -0.626,-0.798 -0.205,0 -0.373,-0.27 -0.373,-0.6 0,-0.33 -0.16,-0.6 -0.357,-0.6 -0.196,0 -0.478,-0.484 -0.626,-1.076 -0.149,-0.591 -0.618,-1.564 -1.044,-2.161 -0.425,-0.598 -0.773,-1.19 -0.773,-1.317 0,-0.127 -0.599,-1.179 -1.33,-2.338 -0.732,-1.16 -2.108,-4.088 -3.058,-6.508 -0.95,-2.42 -2.299,-5.66 -2.999,-7.2 -2.016,-4.44 -3.051,-9.393 -4.682,-22.4 -0.674,-5.379 -0.675,-30.166 -10e-4,-35.8 1.56,-13.046 2.683,-18.587 4.743,-23.391 0.756,-1.765 1.565,-3.659 1.798,-4.209 0.232,-0.55 0.581,-1.313 0.776,-1.695 0.194,-0.382 0.359,-0.922 0.366,-1.2 0.006,-0.278 0.516,-1.495 1.133,-2.705 0.616,-1.21 2.441,-4.81 4.055,-8 1.614,-3.19 3.671,-6.97 4.571,-8.4 0.901,-1.43 1.884,-3.14 2.185,-3.8 1.293,-2.831 2.214,-4.464 3.046,-5.4 0.489,-0.55 1.939,-2.513 3.221,-4.363 1.282,-1.849 2.764,-3.829 3.293,-4.4 0.53,-0.57 1.768,-2.117 2.752,-3.437 2.886,-3.871 5.253,-6.391 18.181,-19.354 14.535,-14.575 14.44,-14.436 14.68,-21.467 0.083,-2.431 -0.04,-5.114 -0.274,-5.962 -0.872,-3.156 -1.43,-17.639 -0.927,-24.037 0.511,-6.488 1.809,-11.675 3.25,-12.98 0.122,-0.11 0.937,-1.64 1.813,-3.4 1.601,-3.219 5.392,-7.526 9.164,-10.41 0.855,-0.655 1.755,-1.378 2,-1.607 0.547,-0.513 9.278,-5.383 9.652,-5.383 0.147,0 0.746,-0.33 1.33,-0.734 4.082,-2.821 21.162,-4.593 28.662,-2.972 2.123,0.459 7,2.775 7,3.325 0,0.18 0.405,0.454 0.9,0.609 0.495,0.155 1.362,0.662 1.926,1.127 0.564,0.465 1.554,1.205 2.2,1.644 5.016,3.413 11.365,11.308 12.812,15.932 0.149,0.478 0.76,1.589 1.358,2.469 0.597,0.88 1.184,2.05 1.305,2.6 0.121,0.55 0.514,2.071 0.875,3.381 1.881,6.829 1.786,21.137 -0.199,29.819 -1.948,8.523 0.658,14.595 8.979,20.921 5.284,4.017 19.601,18.145 22.984,22.679 1.23,1.65 2.339,3.09 2.462,3.2 0.124,0.11 0.939,1.1 1.812,2.2 0.872,1.1 1.811,2.144 2.086,2.32 0.275,0.176 0.757,0.816 1.07,1.422 0.313,0.606 1.209,1.812 1.991,2.68 0.781,0.868 1.425,1.7 1.43,1.849 0.005,0.15 0.234,0.517 0.509,0.816 0.482,0.524 0.748,0.953 2.276,3.668 0.386,0.685 1.68,2.955 2.876,5.045 1.196,2.09 2.523,4.61 2.95,5.6 0.427,0.99 0.871,1.89 0.988,2 0.116,0.11 0.481,0.74 0.81,1.4 0.329,0.66 0.693,1.29 0.808,1.4 0.493,0.473 2.524,5.693 4.59,11.8 0.521,1.54 1.339,3.88 1.818,5.2 1.213,3.344 1.842,5.878 2.381,9.6 0.255,1.76 0.636,4.37 0.845,5.8 1.86,12.7 2.423,32.817 1.137,40.6 -0.219,1.32 -0.587,3.57 -0.82,5 -1.259,7.749 -2.478,12.298 -4.34,16.2 -0.63,1.32 -1.276,2.85 -1.437,3.4 -0.492,1.689 -3.75,8.8 -4.214,9.2 -0.128,0.11 -0.487,0.785 -0.798,1.5 -0.311,0.715 -0.701,1.3 -0.868,1.3 -0.166,0 -0.302,0.243 -0.302,0.54 0,0.603 -2.502,5.478 -3.655,7.122 -0.41,0.584 -0.745,1.259 -0.745,1.5 0,0.241 -0.149,0.438 -0.332,0.438 -0.182,0 -0.911,1.125 -1.62,2.5 -1.976,3.837 -2.748,5.151 -3.601,6.131 -0.43,0.496 -1.001,1.31 -1.269,1.81 -0.267,0.5 -0.648,1.1 -0.845,1.334 -1.13,1.338 -6.273,8.356 -7.495,10.225 -0.79,1.21 -2.157,3.201 -3.038,4.424 -5.734,7.968 -5.878,14.234 -0.4,17.377 2.914,1.673 7.718,1.799 68.382,1.799 32.781,0 56.966,0.152 57.518,0.362 1.928,0.733 5.5,0.977 5.5,0.376 0,-1.602 -2.245,-1.667 -66.6,-1.908 -57.992,-0.218 -61.693,-0.274 -63.185,-0.946 -3.953,-1.781 -5.54,-5.405 -4.126,-9.416 1.255,-3.558 9.129,-15.895 11.532,-18.068 0.122,-0.11 0.751,-0.92 1.398,-1.8 0.647,-0.88 1.274,-1.69 1.393,-1.8 0.52,-0.481 3.206,-4.845 4.632,-7.524 0.856,-1.608 1.826,-3.236 2.156,-3.617 0.873,-1.008 1.867,-2.712 3.301,-5.659 0.696,-1.43 1.364,-2.69 1.484,-2.8 0.121,-0.11 0.758,-1.28 1.417,-2.6 0.659,-1.32 1.297,-2.49 1.419,-2.6 0.352,-0.319 1.525,-2.959 2.617,-5.891 0.555,-1.49 1.537,-3.735 2.183,-4.988 1.253,-2.431 2.061,-4.616 2.784,-7.521 0.246,-0.99 0.626,-2.52 0.844,-3.4 0.218,-0.88 0.563,-2.5 0.766,-3.6 0.203,-1.1 0.65,-3.35 0.995,-5 1.334,-6.394 1.218,-29.175 -0.203,-40 -1.411,-10.739 -2.609,-16.708 -4.297,-21.4 -0.317,-0.88 -0.849,-2.23 -1.184,-3 -1.088,-2.505 -1.256,-2.968 -1.961,-5.4 -0.383,-1.32 -0.814,-2.58 -0.959,-2.8 -0.144,-0.22 -0.503,-1.165 -0.798,-2.1 -0.295,-0.935 -0.642,-1.702 -0.772,-1.704 -0.13,-0.002 -0.591,-0.812 -1.026,-1.8 -0.434,-0.988 -0.929,-1.796 -1.1,-1.796 -0.17,0 -0.31,-0.264 -0.31,-0.586 0,-0.322 -0.474,-1.447 -1.053,-2.5 -3.255,-5.921 -3.845,-6.928 -4.182,-7.136 -0.204,-0.126 -0.699,-0.892 -1.1,-1.703 -1.529,-3.09 -3.875,-6.806 -4.846,-7.675 -0.123,-0.11 -0.757,-0.92 -1.409,-1.8 -0.652,-0.88 -1.519,-1.96 -1.927,-2.4 -0.408,-0.44 -1.133,-1.313 -1.612,-1.94 -0.479,-0.628 -1.233,-1.528 -1.675,-2 -0.442,-0.473 -1.522,-1.85 -2.4,-3.06 -0.878,-1.21 -2.766,-3.387 -4.196,-4.839 -1.43,-1.451 -3.157,-3.251 -3.838,-4 -0.681,-0.748 -3.186,-3.161 -5.566,-5.361 -6.191,-5.723 -7.641,-7.027 -10.881,-9.787 -7.978,-6.798 -8.837,-10.273 -6.031,-24.413 1.51,-7.608 0.041,-24.502 -2.561,-29.462 -0.56,-1.066 -2.038,-3.918 -3.286,-6.338 -2.15,-4.17 -7.299,-10.346 -10.837,-13 -2.749,-2.062 -5.057,-3.6 -5.401,-3.6 -0.219,0 -0.399,-0.151 -0.399,-0.335 0,-0.539 -4.264,-2.531 -7.6,-3.55 -1.802,-0.551 -12.449,-1.011 -15.2,-0.658 m 0.2,30.192 c -0.88,0.203 -2.167,0.634 -2.86,0.96 -0.694,0.325 -1.383,0.591 -1.531,0.591 -0.804,0 -5.802,3.925 -6.391,5.019 -0.38,0.706 -1.186,1.824 -1.79,2.486 -1.019,1.116 -2.501,4.316 -3.577,7.723 C 180.174,66.905 180,70.8 180,76.109 c 0,9.171 0.139,10.179 2.193,15.891 1.784,4.963 1.916,5.663 1.669,8.89 -0.238,3.13 -0.575,4.016 -3.08,8.11 -0.673,1.1 -1.434,2.495 -1.69,3.1 -0.257,0.605 -0.608,1.1 -0.78,1.1 -0.171,0 -0.312,0.27 -0.312,0.6 0,0.33 -0.135,0.604 -0.3,0.609 -0.165,0.005 -0.84,0.814 -1.5,1.799 -0.66,0.985 -2.19,2.643 -3.4,3.686 -1.21,1.042 -3.19,2.814 -4.4,3.936 -1.21,1.123 -2.814,2.565 -3.565,3.206 -3.854,3.287 -14.848,14.729 -16.318,16.983 -0.926,1.42 -2.013,2.942 -2.417,3.383 -0.953,1.04 -4.084,5.946 -5.104,7.998 -0.438,0.88 -1.257,2.32 -1.821,3.2 -1.26,1.966 -3.175,5.913 -3.175,6.544 0,0.601 -1.545,3.966 -2.413,5.256 -0.37,0.55 -1.142,2.53 -1.716,4.4 -1.919,6.257 -2.337,7.969 -3.857,15.8 -0.627,3.228 -1.612,8.048 -2.005,9.8 -2.087,9.331 -2.081,36.154 0.01,41.1 0.21,0.495 0.555,1.305 0.767,1.8 0.213,0.495 0.861,2.43 1.44,4.3 0.579,1.87 1.24,3.85 1.467,4.4 0.228,0.55 0.546,1.36 0.708,1.8 0.588,1.602 2.617,5.639 3.618,7.2 0.564,0.88 1.556,2.638 2.204,3.908 0.647,1.269 1.672,2.889 2.276,3.6 0.605,0.71 1.1,1.517 1.1,1.792 0.001,0.275 0.178,0.5 0.393,0.5 0.216,0 0.506,0.45 0.644,1 0.138,0.55 0.389,1 0.559,1 0.169,0 0.532,0.54 0.805,1.2 0.273,0.66 0.622,1.2 0.775,1.2 0.153,0 0.699,0.749 1.213,1.665 0.515,0.916 1.493,2.256 2.174,2.979 0.681,0.723 1.598,1.999 2.037,2.835 0.44,0.837 1.025,1.759 1.3,2.05 0.276,0.29 0.501,0.688 0.501,0.884 0,0.196 0.326,0.678 0.724,1.071 0.399,0.394 2.105,2.696 3.792,5.116 1.687,2.42 3.521,4.923 4.076,5.562 0.554,0.639 1.008,1.389 1.008,1.667 0,0.277 0.136,0.564 0.302,0.638 0.166,0.073 0.897,1.317 1.624,2.764 0.728,1.447 1.717,3.067 2.199,3.601 0.747,0.829 1.537,2.132 3.132,5.168 1.372,2.613 3.053,7.126 4.17,11.2 2.901,10.585 -1.049,22.669 -9.612,29.4 -0.839,0.66 -1.726,1.38 -1.971,1.6 -0.244,0.22 -1.164,0.646 -2.044,0.946 -1.668,0.569 -2.915,1.075 -5.594,2.27 -4.723,2.106 -4.935,2.114 -59.051,2.15 -50.055,0.034 -52.993,0.108 -55.761,1.414 -2.283,1.076 -4.35,4.13 -3.792,5.602 0.171,0.45 0.712,2.168 1.203,3.818 0.49,1.65 1.039,3.45 1.219,4 0.18,0.55 0.435,1.99 0.567,3.2 0.571,5.26 2.044,8.22 4.578,9.201 1.757,0.68 104.785,1.094 112.231,0.451 5.456,-0.471 9.191,-1.676 11.497,-3.708 3.512,-3.095 6.283,-5.867 9.938,-9.941 5.513,-6.146 12.336,-12.705 13.692,-13.163 0.26,-0.088 0.563,-0.268 0.673,-0.4 2.612,-3.135 10.418,-4.117 14.486,-1.822 3.07,1.731 3.942,2.264 4.55,2.782 0.259,0.22 1.249,1.03 2.2,1.8 2.266,1.834 8.729,8.348 11.083,11.173 3.278,3.931 10.576,10.567 12.455,11.326 0.564,0.227 1.656,0.689 2.426,1.026 3.331,1.458 113.868,1.88 117.2,0.448 4.785,-2.058 5.36,-3.075 6.205,-10.973 0.392,-3.667 1.224,-7.026 2.303,-9.3 0.507,-1.068 0.018,-2.17 -1.885,-4.247 -2.328,-2.542 0.648,-2.407 -58.223,-2.644 -43.228,-0.174 -54.075,-0.321 -55.2,-0.746 -2.645,-1 -3.004,-1.152 -4.738,-2.006 -0.956,-0.471 -1.918,-0.857 -2.139,-0.857 -0.601,0 -3.246,-1.295 -3.852,-1.885 -0.29,-0.283 -0.677,-0.515 -0.858,-0.515 -0.683,0 -7.94,-7.498 -9.486,-9.8 -1.543,-2.299 -2.601,-4.872 -3.782,-9.2 -0.741,-2.717 -0.739,-13.365 0.003,-15.8 1.642,-5.387 7.251,-15.924 10.362,-19.463 0.55,-0.625 1.888,-2.487 2.973,-4.137 1.085,-1.65 2.369,-3.45 2.853,-4 0.484,-0.55 1.416,-1.72 2.07,-2.6 0.654,-0.88 1.292,-1.69 1.418,-1.8 0.126,-0.11 0.834,-1.1 1.575,-2.2 0.74,-1.1 2.123,-2.874 3.073,-3.943 0.951,-1.069 1.728,-2.167 1.728,-2.439 0,-0.273 0.36,-0.911 0.8,-1.418 0.44,-0.507 0.8,-1.032 0.8,-1.165 0,-0.134 0.414,-0.691 0.919,-1.239 0.958,-1.038 3.677,-5.159 5.668,-8.59 0.636,-1.097 1.462,-2.322 1.836,-2.722 0.373,-0.401 1.351,-2.024 2.173,-3.606 0.822,-1.583 1.915,-3.44 2.43,-4.126 1.04,-1.388 3.374,-6.286 3.374,-7.082 0,-0.281 0.16,-0.681 0.356,-0.89 0.575,-0.615 4.486,-12.199 4.854,-14.38 1.558,-9.234 1.348,-28.268 -0.38,-34.4 -0.186,-0.66 -0.558,-2.28 -0.827,-3.6 -0.269,-1.32 -0.632,-2.85 -0.808,-3.4 -0.355,-1.114 -0.829,-3.138 -1.778,-7.6 -1.345,-6.32 -3.131,-11.933 -5.037,-15.83 -0.869,-1.777 -1.58,-3.521 -1.58,-3.876 0,-0.356 -0.16,-0.745 -0.355,-0.866 -0.195,-0.121 -0.469,-0.83 -0.609,-1.576 -0.14,-0.746 -0.936,-2.413 -1.769,-3.704 -0.833,-1.291 -1.789,-2.888 -2.125,-3.548 -2.049,-4.023 -3.926,-6.872 -5.885,-8.931 -0.519,-0.546 -1.269,-1.528 -1.668,-2.183 -0.824,-1.355 -9.081,-9.886 -9.568,-9.886 -0.176,0 -1.108,-0.731 -2.07,-1.624 -0.963,-0.893 -2.442,-2.198 -3.287,-2.9 -0.845,-0.702 -1.907,-1.591 -2.361,-1.976 -0.454,-0.385 -0.933,-0.7 -1.064,-0.7 -0.132,-10e-4 -0.762,-0.451 -1.401,-1 -0.639,-0.55 -1.269,-1.001 -1.4,-1.002 -0.131,-0.001 -0.778,-0.502 -1.438,-1.113 -0.66,-0.611 -1.83,-1.552 -2.6,-2.091 -0.77,-0.539 -1.911,-1.432 -2.536,-1.985 -1.731,-1.532 -7.053,-8.803 -7.3,-9.974 -0.121,-0.569 -0.387,-1.448 -0.592,-1.954 -0.204,-0.505 -0.37,-4.645 -0.368,-9.2 0.005,-8.88 0.129,-9.673 2.361,-15.081 3.153,-7.64 2.421,-19.002 -1.586,-24.629 C 212.351,56.969 212,56.313 212,56.114 c 0,-0.2 -0.32,-0.712 -0.711,-1.139 -0.391,-0.426 -1.096,-1.321 -1.566,-1.989 -1.06,-1.505 -3.729,-2.845 -7.429,-3.73 -2.189,-0.524 -3.444,-0.525 -5.694,-0.007 m 6.211,1.151 c 3.466,0.661 6.709,2.914 8.061,5.6 0.277,0.55 0.977,1.72 1.555,2.6 0.961,1.461 1.503,2.976 2.738,7.646 1.224,4.63 -0.607,16.54 -2.791,18.154 -0.95,0.702 -1.562,18.692 -0.762,22.4 0.598,2.769 0.525,2.609 2.299,5.05 3.305,4.549 4.835,6.397 6.084,7.35 0.722,0.55 1.693,1.331 2.158,1.735 0.466,0.404 1.452,1.214 2.192,1.8 0.74,0.586 1.82,1.47 2.4,1.965 0.58,0.494 1.177,0.899 1.326,0.9 0.15,0 0.51,0.235 0.8,0.522 0.291,0.287 1.178,0.962 1.971,1.5 3.393,2.301 14.548,12.711 16.049,14.978 0.582,0.88 1.385,1.962 1.784,2.405 1.65,1.831 3.725,4.762 3.725,5.261 0,0.294 0.18,0.534 0.4,0.534 0.22,0 0.4,0.255 0.4,0.567 0,0.311 0.135,0.626 0.3,0.7 0.165,0.073 0.732,0.943 1.26,1.933 0.528,0.99 1.571,2.807 2.318,4.038 0.748,1.231 1.812,3.571 2.367,5.2 0.554,1.629 1.643,4.269 2.419,5.867 0.776,1.598 1.647,3.848 1.936,5 1.187,4.734 1.851,7.37 2.191,8.695 0.392,1.53 0.815,3.414 1.795,8 0.353,1.65 0.828,3.81 1.056,4.8 0.228,0.99 0.572,2.52 0.766,3.4 0.193,0.88 0.578,2.59 0.855,3.8 0.345,1.506 0.505,5.988 0.507,14.2 0.003,12.842 10e-4,12.859 -2.284,19.049 -0.538,1.457 -1.108,3.347 -1.268,4.2 -0.159,0.853 -0.416,1.731 -0.57,1.951 -0.155,0.22 -0.524,1.12 -0.821,2 -0.487,1.442 -1.683,4.293 -2.935,7 -0.255,0.55 -0.76,1.45 -1.124,2 -0.363,0.55 -1.429,2.44 -2.37,4.2 -0.94,1.76 -2.138,3.633 -2.662,4.163 -0.524,0.529 -1.058,1.384 -1.187,1.9 -0.13,0.515 -0.396,0.937 -0.592,0.937 -0.197,0 -0.357,0.27 -0.357,0.6 0,0.33 -0.18,0.6 -0.4,0.6 -0.22,0 -0.4,0.178 -0.4,0.396 0,0.419 -3.37,5.812 -4.144,6.632 -0.947,1.003 -1.68,2.061 -2.416,3.487 -0.417,0.81 -1.532,2.377 -2.476,3.483 -0.944,1.106 -2.126,2.594 -2.627,3.307 -0.501,0.712 -1.142,1.533 -1.424,1.824 -0.282,0.29 -0.513,0.652 -0.513,0.804 0,0.152 -0.631,0.994 -1.403,1.871 -0.772,0.878 -1.983,2.496 -2.693,3.596 -0.709,1.1 -1.428,2.06 -1.597,2.133 -0.169,0.074 -0.307,0.324 -0.307,0.556 0,0.232 -0.991,1.649 -2.203,3.149 -9.984,12.357 -14.478,26.598 -11.539,36.562 0.324,1.1 0.792,2.72 1.04,3.6 0.634,2.255 2.073,5.51 2.745,6.209 0.312,0.325 0.903,1.115 1.314,1.756 2.047,3.195 8.491,8.898 11.443,10.128 0.77,0.321 2.732,1.212 4.359,1.979 4.942,2.33 2.971,2.247 60.241,2.525 56.576,0.275 54.785,0.202 57.076,2.322 1.864,1.724 2.065,2.333 1.501,4.535 -0.427,1.67 -1.003,5.061 -1.957,11.526 -1.26,8.536 2.444,8.083 -64.824,7.927 -58.275,-0.135 -55.496,-0.041 -59.59,-2.025 -2.384,-1.155 -8.477,-6.844 -13.345,-12.46 -4.328,-4.992 -11.337,-11.585 -13.324,-12.533 -0.735,-0.35 -1.337,-0.784 -1.337,-0.963 0,-0.179 -0.27,-0.326 -0.6,-0.326 -0.33,0 -0.6,-0.156 -0.6,-0.347 0,-0.833 -4.145,-2.053 -6.953,-2.047 -3.089,0.007 -4.668,0.442 -7.447,2.053 -0.99,0.574 -2.09,1.201 -2.445,1.392 -1.881,1.017 -10.716,9.567 -14.826,14.349 -6.412,7.46 -11.352,11.163 -16.329,12.238 -4.655,1.006 -113.154,0.818 -115.719,-0.2 -2.141,-0.849 -3.881,-3.2 -3.881,-5.242 0,-2.376 -1.266,-8.515 -2.669,-12.944 -0.803,-2.534 -0.499,-3.248 2.276,-5.343 2.481,-1.872 3.379,-1.903 56.441,-1.906 53.698,-0.003 54.426,-0.029 58.752,-2.08 0.99,-0.47 3.056,-1.35 4.591,-1.955 9.353,-3.691 16.209,-14.675 16.209,-25.968 0,-4.073 -1.401,-11.035 -2.451,-12.18 -0.192,-0.209 -0.349,-0.615 -0.349,-0.902 0,-1.407 -4.841,-10.468 -6.512,-12.188 -0.283,-0.292 -1.011,-1.52 -1.617,-2.73 -1.661,-3.313 -2.555,-4.833 -3.457,-5.87 -0.449,-0.516 -2.25,-3.008 -4.002,-5.537 -1.752,-2.528 -3.527,-4.964 -3.945,-5.413 -0.418,-0.448 -1.157,-1.589 -1.644,-2.535 -0.486,-0.945 -1.288,-2.154 -1.781,-2.687 -0.494,-0.532 -1.559,-1.955 -2.368,-3.163 -0.809,-1.207 -1.652,-2.412 -1.873,-2.678 -0.22,-0.266 -0.401,-0.671 -0.401,-0.9 0,-0.229 -0.153,-0.417 -0.339,-0.417 -0.187,0 -0.65,-0.69 -1.031,-1.533 -0.38,-0.842 -1.217,-2.147 -1.86,-2.9 -0.644,-0.752 -1.649,-2.357 -2.235,-3.567 -0.586,-1.21 -1.579,-2.957 -2.208,-3.883 -0.628,-0.926 -1.789,-3.176 -2.581,-5 -2.188,-5.045 -2.181,-5.026 -4.337,-12.117 -0.802,-2.64 -1.661,-5.25 -1.909,-5.8 -1.227,-2.727 -0.739,-28.059 0.671,-34.8 0.345,-1.65 0.816,-3.99 1.047,-5.2 0.231,-1.21 0.585,-3.01 0.787,-4 0.201,-0.99 0.483,-2.7 0.627,-3.8 0.647,-4.961 3.852,-15.995 5.74,-19.76 0.618,-1.232 1.261,-2.69 1.428,-3.24 0.443,-1.456 1.836,-4.444 2.61,-5.6 0.368,-0.55 1.365,-2.35 2.215,-4 1.805,-3.503 4.934,-8.542 5.421,-8.731 0.185,-0.071 0.82,-1.016 1.409,-2.1 0.59,-1.083 1.211,-1.969 1.382,-1.969 0.17,0 0.419,-0.347 0.554,-0.772 0.257,-0.808 13.529,-14.381 15.609,-15.962 2.82,-2.144 11.457,-10.696 12.721,-12.597 6.66,-10.014 8.007,-14.69 5.896,-20.469 -0.482,-1.32 -1.223,-3.48 -1.646,-4.8 -0.424,-1.32 -0.95,-2.953 -1.171,-3.628 -0.627,-1.927 -0.508,-17.717 0.153,-20.258 0.585,-2.243 2.13,-5.817 2.831,-6.548 0.531,-0.554 1.643,-2.06 2.549,-3.455 1.85,-2.845 10.924,-6.852 13.667,-6.034 0.33,0.098 1.415,0.334 2.411,0.523 m -17.432,101.471 c -4.765,0.493 -5.47,2.83 -5.751,19.075 l -0.228,13.145 -1.939,1.755 -1.938,1.754 H 165.09 c -17.26,0 -16.833,-0.359 -17.022,14.328 -0.237,18.4 -0.79,17.78 16.113,18.072 l 11.58,0.2 1.303,1.71 c 2.241,2.94 2.256,3.083 2.51,24.49 l 0.234,19.8 1.086,2 c 2.326,4.282 2.483,4.316 18.974,4.136 l 12.469,-0.136 1.085,-1 c 0.597,-0.55 1.545,-1.99 2.107,-3.2 l 1.021,-2.2 0.266,-20 c 0.284,-21.295 0.266,-21.095 2.122,-23.711 1.53,-2.158 0.851,-2.051 13.862,-2.182 16.111,-0.162 15,1.047 15,-16.316 v -12.61 l -1.01,-1.089 c -1.768,-1.908 -4.389,-2.292 -15.636,-2.292 -15.065,0 -14.231,0.99 -14.491,-17.2 -0.196,-13.655 -0.389,-14.801 -2.901,-17.237 l -1.406,-1.363 -12.678,-0.049 c -6.973,-0.026 -13.407,0.027 -14.299,0.12 m 27.56,1.41 c 0.368,0.369 1.153,1.626 1.745,2.795 l 1.075,2.124 0.221,13.002 0.22,13.001 1.4,1.539 c 2.407,2.647 2.466,2.658 13.586,2.658 17.003,0 16.414,-0.533 16.414,14.867 0,9.708 -0.161,11.46 -1.263,13.764 -0.888,1.855 -5.599,2.551 -17.348,2.561 -10.119,0.009 -9.868,-0.066 -11.622,3.493 l -1.14,2.315 -0.224,20.2 -0.224,20.2 -1.118,2.075 c -1.914,3.552 -2.716,3.731 -16.581,3.708 -18.677,-0.031 -17.376,1.836 -17.696,-25.383 -0.33,-28.087 0.438,-26.584 -13.584,-26.598 -18.4,-0.018 -17.994,0.355 -17.998,-16.528 -0.003,-15.303 -0.698,-14.674 16.211,-14.674 11.101,0 10.985,0.021 13.399,-2.389 1.811,-1.807 1.778,-1.563 2.015,-15.172 l 0.227,-13.039 1.113,-2.068 c 1.766,-3.281 1.712,-3.271 18.267,-3.185 10.856,0.057 12.31,0.14 12.905,0.734 M 397.434,351.5 c -0.955,4.837 -1.305,6.702 -1.804,9.6 -1.655,9.619 -1.827,10.5 -2.83,14.5 -1.391,5.551 -1.584,6.441 -2.166,10 -0.306,1.87 -0.648,3.85 -0.76,4.4 -0.112,0.55 -0.414,2.08 -0.672,3.4 -0.554,2.848 -0.997,4.949 -1.558,7.4 -3.719,16.229 -4.376,17.293 -11.844,19.189 -2.231,0.567 -133.374,0.564 -136.28,-0.002 -2.296,-0.448 -6.397,-1.659 -6.72,-1.985 -0.391,-0.395 -2.611,-1.655 -3.3,-1.873 -0.385,-0.122 -0.7,-0.362 -0.7,-0.532 0,-0.171 -0.411,-0.413 -0.913,-0.539 -0.921,-0.232 -3.804,-3.091 -7.928,-7.864 -12.766,-14.777 -13.868,-15.668 -19.44,-15.727 -5.707,-0.061 -10.886,3.259 -21.119,13.537 -7.581,7.614 -9.576,9.31 -12.2,10.375 -0.99,0.402 -2.52,1.044 -3.4,1.427 -3.118,1.358 -7.088,2.455 -11.446,3.164 -4.377,0.712 -130.314,0.564 -133.154,-0.157 -4.888,-1.239 -4.905,-1.25 -6.446,-3.914 -1.713,-2.963 -2.971,-6.142 -3.519,-8.899 -0.219,-1.1 -0.586,-2.81 -0.817,-3.8 -0.231,-0.99 -0.616,-2.79 -0.856,-4 -0.24,-1.21 -0.599,-3.01 -0.798,-4 -0.2,-0.99 -0.556,-3.06 -0.793,-4.6 C 5.734,389.06 5.1,386.18 4.562,384.2 4.024,382.22 3.273,379.386 2.892,377.901 1.881,373.959 0,373.763 0,377.6 c 0,2.358 0.019,2.4 1.113,2.4 0.987,0 1.171,0.214 1.634,1.9 0.288,1.045 0.668,2.35 0.845,2.9 0.177,0.55 0.539,2.08 0.804,3.4 0.264,1.32 0.644,3.21 0.843,4.2 0.199,0.99 0.742,3.78 1.207,6.2 0.464,2.42 0.985,5.12 1.156,6 1.755,9 4.89,14.885 8.329,15.633 0.588,0.127 1.609,0.442 2.269,0.7 1.873,0.729 131.694,0.664 135.8,-0.068 6.16,-1.099 15.398,-4.908 18.584,-7.662 1.988,-1.719 5.936,-5.662 7.816,-7.807 4.896,-5.584 13.893,-12.173 17.618,-12.902 4.729,-0.926 7.21,0.226 12.689,5.888 3.358,3.47 3.661,3.803 6.03,6.625 7.658,9.124 9.64,10.817 16.863,14.403 4.164,2.068 1.246,1.99 74.4,1.99 h 68.2 l 2.6,-0.947 c 1.43,-0.52 3.055,-1.371 3.611,-1.889 2.039,-1.902 3.993,-6.851 5.593,-14.164 1.452,-6.639 2.095,-9.839 2.61,-13 0.898,-5.513 1.632,-9.034 2.586,-12.4 0.439,-1.547 0.717,-2.907 1.637,-8 0.833,-4.615 1.236,-6.814 1.578,-8.6 0.189,-0.99 0.65,-3.465 1.023,-5.5 0.629,-3.426 0.749,-3.7 1.621,-3.7 0.892,0 0.941,-0.137 0.941,-2.6 0,-2.46 -0.05,-2.6 -0.937,-2.6 -0.86,0 -0.996,0.292 -1.629,3.5"
     stroke="none"
     fill="#7c7c7c"
     fill-rule="evenodd"
     style="fill:#ffffff" />
  <path
     style="fill:#ffffff;stroke:#00a7ca;stroke-width:0.387826"
     d="m 41.609735,381.61446 c -0.991726,-0.6379 -2.057315,-4.71178 -2.367975,-9.05307 l -0.564836,-7.89325 57.620723,-1.57865 c 61.253533,-1.67818 60.882923,-1.62492 69.996193,-10.05946 6.96613,-6.4473 8.93966,-11.63705 8.90164,-23.40846 -0.043,-13.32997 -2.25159,-18.39195 -18.62253,-42.68308 -23.99431,-35.60264 -27.09034,-42.83936 -27.11159,-63.37114 -0.0225,-21.75325 4.17314,-42.00059 12.12632,-58.51898 6.23772,-12.95547 9.41561,-17.21236 24.15938,-32.36233 9.33729,-9.59452 18.13235,-19.71809 19.54459,-22.49681 3.20609,-6.30832 3.28174,-14.65202 0.19972,-22.028328 -3.26116,-7.805051 -2.96405,-16.868355 0.79448,-24.235686 3.73503,-7.321252 7.75347,-9.830796 14.67031,-9.161711 4.19246,0.405551 5.70718,1.718687 8.85458,7.676188 3.79239,7.178383 3.79359,7.197496 1.01065,16.045182 -2.01298,6.399815 -2.62248,12.464518 -2.19615,21.852455 l 0.5901,12.99422 10.91996,9.63753 c 19.65827,17.34959 28.40062,27.1212 33.64184,37.60253 11.02789,22.05347 15.83965,55.76066 10.73679,75.21301 -2.97078,11.32473 -12.16402,27.27894 -28.11858,48.79783 -15.4765,20.87408 -20.12031,30.29783 -20.12031,40.83044 0,14.54711 6.37455,25.188 19.73313,32.94013 6.17853,3.58549 7.55158,3.68888 63.72303,4.79862 l 57.40844,1.13417 -0.81144,7.19908 c -0.50178,4.45165 -1.92056,8.01009 -3.7176,9.32413 -2.3353,1.70761 -13.96265,2.03656 -59.19326,1.67464 l -56.28711,-0.45037 -15.09269,-14.60251 c -15.08335,-14.59348 -15.09775,-14.60251 -23.26511,-14.60251 -10.31675,0 -15.35843,3.04632 -27.17011,16.41688 -6.48646,7.34254 -10.78294,10.76639 -14.96944,11.9291 -6.71366,1.86456 -112.181201,2.26819 -115.023145,0.44021 z M 216.27504,273.93219 c 1.86371,-1.17578 2.45962,-5.79303 2.79835,-21.68227 0.61249,-28.73209 -0.50765,-26.63443 14.90918,-27.92015 13.71193,-1.14352 15.09788,-1.98188 17.23067,-10.4227 1.74919,-6.92275 1.39096,-19.60095 -0.66908,-23.67975 -1.78541,-3.53503 -3.29801,-4.06526 -14.50366,-5.08416 -6.8807,-0.62564 -13.43237,-1.49134 -14.55926,-1.92377 -1.47015,-0.56414 -2.0489,-4.81351 -2.0489,-15.04362 0,-19.51842 -1.09146,-20.572 -21.31177,-20.572 -20.33713,0 -21.31177,0.96923 -21.31177,21.19326 v 14.87866 l -14.26362,1.11583 c -11.92896,0.93318 -14.53751,1.62759 -15.93695,4.24247 -2.52683,4.72143 -1.15741,30.95012 1.70834,32.72003 1.26029,0.77835 7.65382,1.91065 14.20785,2.51622 6.55402,0.60556 12.43832,1.89595 13.07621,2.86751 0.6379,0.97156 1.1707,10.94566 1.18399,22.16464 0.0315,26.52917 -0.25116,26.18038 21.18596,26.14786 8.76506,-0.0126 17.00208,-0.69642 18.30446,-1.51806 z"
     id="path1075" />
  <path
     style="fill:#000000;stroke:#00a7ca;stroke-width:0.387826"
     d="M 32.157329,416.38148 C 22.401823,415.97955 18.721846,415.18829 16.81654,413.08295 14.204517,410.19671 11.697718,401.14349 6.9699713,377.52246 5.4307181,369.83195 3.2327801,362.60117 2.0856645,361.45406 0.63691548,360.0053 0,354.57537 0,343.67304 v -15.69535 l 64.329986,-1.15063 c 70.934074,-1.26874 69.855264,-1.09686 69.855264,-11.12911 0,-3.82372 -2.73106,-8.70528 -11.12391,-19.88312 -6.11814,-8.14833 -14.3266,-21.32148 -18.24101,-29.27368 -6.142012,-12.47761 -7.343003,-16.58703 -8.765946,-29.99435 -2.541732,-23.94879 -0.774235,-45.36152 4.974906,-60.26953 8.42325,-21.84224 19.62127,-38.60319 39.86522,-59.66944 14.26653,-14.84603 18.58889,-20.330099 18.72132,-23.753011 0.0947,-2.447732 0.0444,-12.264739 -0.11177,-21.815571 -0.32872,-20.101788 1.28823,-25.384614 10.47643,-34.228208 11.97298,-11.523941 33.33371,-15.796802 46.18784,-9.239115 8.05157,4.107606 16.6509,14.374254 18.96613,22.643471 1.12538,4.019431 1.67011,14.356864 1.37067,26.011433 l -0.49696,19.341078 15.89994,15.362043 c 24.52257,23.69297 35.55582,40.03135 44.21874,65.48044 4.38,12.86717 6.44077,42.42058 4.06927,58.3577 -2.01271,13.52605 -12.05954,34.8492 -26.24581,55.7035 -5.90638,8.68258 -11.43118,17.76196 -12.27735,20.17641 -1.83384,5.23269 0.9046,13.27522 4.894,14.37318 1.42608,0.3925 30.95177,1.19659 65.61267,1.78688 53.01083,0.90281 63.39729,1.45071 65.39643,3.44985 1.83675,1.83675 1.97538,3.01903 0.61032,5.20484 -0.97145,1.55554 -4.67239,17.28781 -8.22432,34.96061 -7.69011,38.26255 -8.7613,41.88321 -13.07425,44.19143 -4.41381,2.3622 -94.50187,3.65609 -122.52485,1.75977 l -21.11145,-1.42863 -12.29427,-12.74804 c -7.97946,-8.27399 -13.94833,-13.11135 -17.00727,-13.78321 -6.68894,-1.46914 -15.42005,2.62012 -24.7732,11.60265 -14.78925,14.20323 -16.11857,14.74911 -39.28418,16.13213 -19.95983,1.19163 -81.240882,1.32361 -107.735261,0.23202 z M 163.18159,386.95817 c 2.86836,-1.19848 8.96875,-6.44332 13.55645,-11.65519 10.70059,-12.15652 18.6219,-16.83145 24.64154,-14.54279 2.39013,0.90872 10.32352,7.48771 17.62976,14.61996 l 13.28406,12.96774 62.0044,0.44654 c 51.90623,0.37381 62.30609,0.083 63.85688,-1.78558 2.17577,-2.62164 6.51346,-18.48975 6.51346,-23.82748 0,-2.03539 -1.24319,-4.30951 -2.76264,-5.05359 -1.51945,-0.7441 -27.98157,-1.70809 -58.80471,-2.14221 -52.0264,-0.73277 -56.48728,-1.01557 -62.25526,-3.94663 -9.99061,-5.07683 -15.5683,-13.36376 -16.3598,-24.30619 -0.78102,-10.79746 1.39404,-15.30971 18.72214,-38.83981 13.7828,-18.71586 22.516,-32.76464 26.98697,-43.41287 3.22197,-7.67357 3.63445,-11.15924 3.54947,-29.99435 -0.083,-18.38835 -0.69214,-23.36899 -4.44079,-36.30895 -2.38952,-8.24845 -6.59617,-19.25953 -9.34808,-24.46907 -5.31786,-10.06705 -21.68994,-27.678 -32.19198,-34.62791 -10.22887,-6.76916 -12.19631,-12.04609 -10.69507,-28.685657 2.83262,-31.396586 1.24494,-37.802419 -10.86003,-43.816923 -5.62448,-2.794587 -6.25967,-2.808461 -12.8771,-0.281241 -14.42529,5.509075 -18.79117,17.955131 -14.95307,42.627597 2.54354,16.350644 2.15524,17.127114 -19.37153,38.736404 -13.35028,13.40147 -17.74503,19.03032 -22.94847,29.39268 -10.50122,20.91258 -13.61617,35.23387 -13.52205,62.16902 0.0978,27.99777 1.80732,33.27333 18.79633,58.00654 18.4814,26.90591 24.29806,37.09708 25.81854,45.23573 2.71214,14.51738 -3.45915,25.50347 -16.89858,30.08274 -5.881,2.00386 -16.47023,2.44304 -59.366614,2.46215 -54.735654,0.0245 -59.41192,0.56385 -60.650743,6.99655 -0.824632,4.28196 4.564218,21.81648 7.424589,24.15852 3.672513,3.00701 118.282328,2.81917 125.521928,-0.20573 z"
     id="path1355" />
  <path
     style="fill:#000000;stroke:#00a7ca;stroke-width:0.387826"
     d="m 184.23262,266.58553 c -0.61007,-0.61008 -1.10922,-10.42306 -1.10922,-21.80663 0,-26.45584 -0.6899,-27.71453 -15.19048,-27.71453 -14.97324,0 -16.38252,-1.15107 -16.38252,-13.3809 0,-5.56188 0.73409,-10.56621 1.63132,-11.12073 0.89723,-0.55452 7.11316,-1.38933 13.81319,-1.85514 8.40765,-0.58453 12.79324,-1.61726 14.15517,-3.33331 1.212,-1.52712 1.97332,-7.42509 1.97332,-15.28744 0,-7.85152 0.73246,-13.53353 1.89438,-14.69545 2.51431,-2.51432 23.69127,-2.51432 26.20558,0 1.16192,1.16192 1.89438,6.84393 1.89438,14.69545 0,7.86235 0.76132,13.76032 1.97332,15.28744 1.36193,1.71605 5.74752,2.74878 14.15517,3.33331 6.70003,0.46581 12.91596,1.30062 13.81319,1.85514 0.89723,0.55452 1.63132,5.55885 1.63132,11.12073 0,12.21658 -1.41647,13.3809 -16.27874,13.3809 -7.52108,0 -10.7363,0.67829 -12.33832,2.6029 -1.51505,1.82014 -2.40398,9.29732 -2.95594,24.86374 l -0.78932,22.26083 -13.49328,0.45146 c -7.42131,0.2483 -13.99244,-0.0477 -14.60252,-0.65777 z"
     id="path1408" />
</svg>
