<?xml version="1.0" encoding="UTF-8" standalone="no"?>
<svg
   id="svg"
   version="1.1"
   width="400"
   height="424.39024390243907"
   viewBox="0, 0, 400,424.39024390243907"
   sodipodi:docname="wp.svg"
   inkscape:version="1.1.2 (0a00cf5339, 2022-02-04)"
   xmlns:inkscape="http://www.inkscape.org/namespaces/inkscape"
   xmlns:sodipodi="http://sodipodi.sourceforge.net/DTD/sodipodi-0.dtd"
   xmlns="http://www.w3.org/2000/svg"
   xmlns:svg="http://www.w3.org/2000/svg">
  <defs
     id="defs2650" />
  <sodipodi:namedview
     id="namedview2648"
     pagecolor="#ffffff"
     bordercolor="#cccccc"
     borderopacity="1"
     inkscape:pageshadow="0"
     inkscape:pageopacity="1"
     inkscape:pagecheckerboard="0"
     showgrid="false"
     inkscape:zoom="1.475"
     inkscape:cx="200"
     inkscape:cy="211.86441"
     inkscape:window-width="1680"
     inkscape:window-height="1014"
     inkscape:window-x="1920"
     inkscape:window-y="0"
     inkscape:window-maximized="1"
     inkscape:current-layer="svg" />
  <path
     id="path0"
     d="m 183.8,51.198 c -5.017,0.879 -7.172,1.396 -11.2,2.687 -5.418,1.738 -6.6,2.197 -6.6,2.562 0,0.194 -0.255,0.353 -0.567,0.353 -0.311,0 -0.626,0.15 -0.7,0.333 -0.114,0.286 -2.095,1.462 -5.893,3.499 -0.528,0.284 -1.068,0.679 -1.2,0.879 -0.132,0.2 -1.064,0.988 -2.072,1.751 -3.171,2.401 -13.968,13.659 -13.968,14.564 0,0.142 -0.517,0.915 -1.15,1.716 -1.043,1.323 -3.169,5.235 -4.814,8.858 -0.35,0.77 -0.751,1.49 -0.891,1.6 -0.141,0.11 -0.441,0.83 -0.668,1.6 -0.41,1.392 -0.93,2.927 -1.897,5.6 -3.039,8.401 -3.539,20.952 -1.197,30.012 0.339,1.313 0.905,3.513 1.256,4.888 0.703,2.747 1.999,6.772 2.521,7.827 0.416,0.841 1.206,3.093 1.639,4.673 0.587,2.14 2.055,5.99 2.433,6.38 0.202,0.209 0.368,0.704 0.368,1.1 0,0.396 0.145,0.72 0.323,0.72 0.393,0 2.703,4.566 3.089,6.107 0.153,0.608 0.78,2.048 1.394,3.2 8.945,16.775 9.219,30.421 0.789,39.194 -0.875,0.911 -1.707,2.02 -1.848,2.466 -0.325,1.024 -7.425,10.389 -9.22,12.161 -0.74,0.731 -1.632,1.766 -1.982,2.3 -0.351,0.535 -0.79,0.972 -0.978,0.972 -0.598,0 -2.939,2.616 -3.767,4.21 -0.44,0.847 -1.093,1.821 -1.452,2.165 -2.961,2.838 -4.749,10.067 -5.347,21.625 -0.457,8.816 -3.194,24.329 -4.976,28.2 -0.202,0.44 -0.751,1.955 -1.219,3.366 -0.855,2.581 -3.373,6.834 -4.045,6.834 -0.199,0 -0.361,0.189 -0.361,0.419 0,0.58 -7.926,8.38 -8.52,8.384 -0.264,0.002 -1.38,0.895 -2.48,1.984 -1.1,1.088 -2.18,1.987 -2.4,1.996 -0.22,0.01 -1.21,0.793 -2.2,1.74 -0.99,0.947 -2.43,2.156 -3.2,2.685 -0.77,0.529 -2.158,1.733 -3.085,2.677 -0.927,0.943 -1.872,1.715 -2.1,1.715 -0.228,0 -0.416,0.135 -0.417,0.3 -10e-4,0.165 -0.586,0.948 -1.3,1.739 -3.586,3.975 -5.098,5.775 -5.098,6.07 0,0.178 -0.373,0.722 -0.828,1.208 -0.456,0.486 -1.483,1.738 -2.283,2.783 -0.799,1.045 -1.596,1.9 -1.771,1.9 -0.175,0 -0.319,0.225 -0.319,0.5 -0.001,0.275 -0.516,0.845 -1.145,1.266 -0.629,0.421 -1.472,1.411 -1.874,2.2 -1.297,2.544 -3.5,6.206 -4.378,7.277 -0.47,0.573 -1.723,2.823 -2.786,5 -1.062,2.176 -2.04,4.047 -2.173,4.157 -0.371,0.306 -1.643,2.815 -1.643,3.24 0,0.207 -0.489,1.137 -1.086,2.068 -1.367,2.13 -2.914,5.392 -2.914,6.144 0,0.628 -1.084,3.908 -2.428,7.348 -1.521,3.894 -3.057,8.546 -3.499,10.6 -2.147,9.973 -3.01,17.003 -3.021,24.6 l -0.009,6.2 1.358,2.732 c 2.762,5.559 -10.717,5.116 150.999,4.97 150.17,-0.136 138.314,0.066 140.924,-2.405 3.623,-3.431 4.588,-12.465 2.23,-20.87 -0.305,-1.085 -0.554,-2.419 -0.554,-2.964 0,-0.546 -0.256,-1.909 -0.568,-3.028 -0.313,-1.119 -0.862,-3.385 -1.222,-5.035 -0.767,-3.521 -1.845,-7.66 -4.221,-16.2 -0.489,-1.76 -1.578,-4.55 -2.419,-6.2 -0.842,-1.65 -2.261,-4.575 -3.154,-6.5 -0.893,-1.925 -1.758,-3.5 -1.922,-3.5 -0.164,0 -0.715,-0.855 -1.223,-1.9 -1.171,-2.405 -2.199,-4.242 -2.52,-4.5 -0.136,-0.11 -0.731,-1.1 -1.321,-2.2 -0.59,-1.1 -1.218,-2.27 -1.395,-2.6 -0.177,-0.33 -0.651,-1.23 -1.055,-2 -0.403,-0.77 -1.211,-1.881 -1.796,-2.47 -0.584,-0.588 -1.291,-1.623 -1.571,-2.3 -0.281,-0.676 -0.668,-1.23 -0.862,-1.23 -0.193,0 -0.351,-0.179 -0.351,-0.397 0,-0.56 -1.214,-1.947 -5.868,-6.703 -2.237,-2.286 -4.473,-4.748 -4.969,-5.471 -0.495,-0.723 -1.378,-1.636 -1.963,-2.029 -0.585,-0.393 -1.48,-1.323 -1.989,-2.066 -0.509,-0.743 -2.115,-2.285 -3.569,-3.427 -1.453,-1.141 -3.722,-3.144 -5.042,-4.449 -1.32,-1.306 -3.66,-3.473 -5.2,-4.815 -5.882,-5.129 -11.4,-11.515 -11.4,-13.195 0,-0.137 -0.334,-0.582 -0.742,-0.99 -1.621,-1.621 -4.068,-10.66 -4.061,-15 0.002,-0.849 -0.252,-2.559 -0.564,-3.8 -0.312,-1.242 -0.765,-6.218 -1.008,-11.058 -0.692,-13.805 -1.528,-20.472 -3.008,-24 -1.347,-3.211 -2.299,-4.91 -3.406,-6.078 -0.666,-0.703 -1.211,-1.412 -1.211,-1.575 0,-0.434 -11.979,-12.147 -12.423,-12.147 -0.207,0 -0.377,-0.145 -0.377,-0.323 0,-0.448 -1.877,-2.728 -3.857,-4.684 -1.561,-1.543 -4.943,-6.583 -4.943,-7.367 0,-0.198 -0.203,-0.427 -0.451,-0.51 -1.121,-0.373 -1.848,-8.82 -1.125,-13.074 0.515,-3.033 1.65,-6.193 2.387,-6.649 0.214,-0.132 0.389,-0.583 0.389,-1.003 0,-1.254 3.144,-8.107 4.359,-9.501 0.886,-1.017 2.041,-3.236 2.041,-3.921 0,-0.313 0.16,-0.568 0.357,-0.568 0.196,0 0.48,-0.493 0.631,-1.096 0.152,-0.603 0.397,-1.188 0.546,-1.3 0.517,-0.39 2.292,-3.013 3.077,-4.548 0.434,-0.849 1.014,-1.633 1.289,-1.743 0.275,-0.109 0.5,-0.449 0.5,-0.756 0,-0.306 0.135,-0.558 0.3,-0.56 0.501,-0.004 1.744,-2.438 2.756,-5.397 1.208,-3.532 2.662,-7.139 2.982,-7.4 0.462,-0.376 1.151,-2.998 2.206,-8.4 2.511,-12.849 1.244,-28.526 -3.053,-37.8 -1.728,-3.729 -2.39,-5.291 -2.399,-5.66 -0.008,-0.304 -3.72,-5.613 -4.772,-6.823 -0.231,-0.266 -0.42,-0.603 -0.42,-0.749 0,-0.227 -2.621,-3.201 -5.4,-6.127 C 244.899,68.649 236.59,61.77 233.989,60 233.504,59.67 232.695,59.085 232.191,58.7 231.686,58.315 230.987,58 230.637,58 230.287,58 230,57.859 230,57.686 c 0,-1.362 -10.307,-4.738 -20.308,-6.653 -4.734,-0.906 -20.341,-0.806 -25.892,0.165 m 23,34.809 c 8.113,1.315 15.673,6.416 18.759,12.654 0.528,1.067 1.107,2.209 1.288,2.539 3.661,6.683 4.347,27.109 1.189,35.4 -0.445,1.168 -0.628,1.584 -2.393,5.444 -0.464,1.014 -0.843,1.997 -0.843,2.185 0,1.368 -5.805,11.541 -6.992,12.252 -0.258,0.155 -0.79,1.055 -1.182,2 -1.525,3.676 -2.42,5.408 -3.993,7.722 -5.751,8.464 -7.158,19.946 -3.578,29.197 1.902,4.917 3.195,7.47 4.311,8.514 0.537,0.503 1.352,1.691 1.812,2.641 0.711,1.468 11.147,12.645 11.807,12.645 0.331,0 1.446,1.201 3.349,3.607 0.953,1.206 2.394,2.913 3.201,3.793 0.808,0.88 1.827,2.32 2.267,3.2 0.439,0.88 0.922,1.656 1.073,1.725 0.151,0.069 0.75,1.419 1.332,3 1.362,3.703 2.905,7.235 4.138,9.475 1.914,3.475 2.039,4.95 2.23,26.4 0.174,19.449 0.443,23.693 1.63,25.653 1.116,1.844 9.914,11.147 10.542,11.147 0.228,0 1.289,0.855 2.357,1.9 1.068,1.045 2.359,2.17 2.87,2.5 2.296,1.484 5.226,3.764 5.226,4.067 0,0.183 0.178,0.333 0.395,0.333 0.217,0 1.282,0.883 2.368,1.963 1.085,1.079 2.347,2.082 2.805,2.227 0.458,0.145 0.832,0.432 0.832,0.637 0,0.205 0.251,0.373 0.557,0.373 0.307,0 0.661,0.27 0.788,0.6 0.126,0.33 0.428,0.6 0.671,0.6 0.243,0 0.669,0.225 0.947,0.5 0.279,0.275 1.363,1.22 2.409,2.1 3.363,2.83 6.228,5.65 6.228,6.131 0,0.258 0.225,0.476 0.5,0.484 0.275,0.008 0.977,0.643 1.559,1.411 0.583,0.769 2.339,2.808 3.903,4.532 3.84,4.232 5.222,6.136 6.855,9.442 0.761,1.54 1.9,3.7 2.532,4.8 2.799,4.872 4.213,13.822 2.826,17.891 -1.279,3.755 -2.593,4.705 -7.375,5.337 -5.686,0.751 -203.808,0.789 -208.069,0.04 -4.872,-0.857 -6.497,-3.423 -6.376,-10.068 0.091,-4.962 1.676,-12.123 2.878,-13 0.151,-0.11 0.811,-1.19 1.467,-2.4 3.74,-6.897 4.694,-8.235 9.336,-13.091 1.52,-1.589 2.764,-2.972 2.764,-3.072 0,-0.638 11.021,-11.05 12.822,-12.113 0.648,-0.383 1.178,-0.838 1.178,-1.01 0,-0.173 0.247,-0.314 0.549,-0.314 0.302,0 1.468,-0.945 2.591,-2.1 1.123,-1.155 3.508,-3.18 5.298,-4.5 1.791,-1.32 4.18,-3.229 5.309,-4.242 1.129,-1.013 2.842,-2.406 3.807,-3.096 0.965,-0.69 2.135,-1.758 2.6,-2.375 0.465,-0.617 1.5,-1.834 2.299,-2.704 6.21,-6.763 5.636,-4.002 5.979,-28.783 0.311,-22.42 0.706,-26.267 2.981,-29 0.458,-0.551 1.272,-2.418 2.879,-6.6 0.891,-2.32 2.266,-5 2.564,-5 0.141,0 0.362,-0.419 0.491,-0.931 0.128,-0.512 1.318,-2.025 2.643,-3.363 1.326,-1.337 2.41,-2.521 2.41,-2.63 0,-0.327 2.513,-3.165 3.769,-4.259 0.643,-0.559 1.596,-1.422 2.118,-1.917 0.522,-0.495 1.043,-0.9 1.158,-0.9 0.368,0 14.955,-14.808 14.955,-15.182 0,-0.198 0.229,-0.599 0.509,-0.889 0.28,-0.291 1.132,-1.789 1.893,-3.329 0.761,-1.54 1.692,-3.265 2.071,-3.834 2.574,-3.87 3.157,-15.965 0.981,-20.366 -1.89,-3.824 -3.38,-6.584 -3.824,-7.083 -0.237,-0.266 -0.43,-0.646 -0.43,-0.845 0,-0.199 -0.542,-1.331 -1.204,-2.517 -0.662,-1.185 -1.607,-2.965 -2.1,-3.955 -0.493,-0.99 -1.089,-1.98 -1.324,-2.2 -1.192,-1.114 -2.086,-3.325 -3.801,-9.4 -0.466,-1.65 -1.1,-3.675 -1.409,-4.5 -2.239,-5.978 -2.48,-7.005 -3.162,-13.5 -1.28,-12.186 -0.264,-22.598 2.641,-27.062 0.595,-0.915 1.211,-2.085 1.369,-2.6 1.054,-3.429 5.185,-9.138 6.612,-9.138 0.141,0 0.688,-0.381 1.217,-0.847 2.896,-2.553 5.886,-3.596 12.961,-4.52 2.64,-0.345 5.25,-0.702 5.8,-0.794 1.576,-0.264 6.587,0.155 11.6,0.968"
     stroke="none"
     fill="#1c1c1c"
     fill-rule="evenodd" />
  <path
     id="path1"
     d="M 0,212 V 424 H 200 400 V 212 0 H 200 0 V 212 M 209.2,42.569 c 4.757,0.524 9.735,1.566 10.6,2.219 0.22,0.166 0.895,0.42 1.5,0.564 0.605,0.145 1.1,0.417 1.1,0.605 0,0.189 1.305,0.741 2.9,1.228 6.704,2.048 15.1,6.367 15.1,7.768 0,0.479 1.392,1.847 1.879,1.847 1.216,0 3.945,2.263 10.008,8.298 1.822,1.814 3.313,3.562 3.313,3.883 0,0.322 0.641,1.088 1.425,1.702 1.541,1.208 3.775,4.224 3.775,5.096 0,0.296 0.585,1.066 1.3,1.711 0.715,0.645 1.551,1.602 1.857,2.127 1.41,2.416 4.18,8.199 4.469,9.329 0.176,0.69 0.593,2.064 0.927,3.054 5.082,15.071 5.039,25.615 -0.175,43.228 -0.428,1.446 -0.778,2.93 -0.778,3.298 0,0.368 -0.81,2.391 -1.8,4.496 -0.99,2.104 -1.8,3.928 -1.8,4.054 0,0.125 -0.856,1.509 -1.901,3.076 -1.046,1.566 -2.492,4.03 -3.214,5.474 -0.721,1.444 -1.832,3.195 -2.468,3.891 -1.202,1.316 -2.045,2.761 -3.781,6.483 -0.564,1.21 -1.653,3.28 -2.419,4.6 -0.766,1.32 -1.862,3.3 -2.435,4.4 -0.572,1.1 -1.331,2.54 -1.686,3.2 -0.884,1.646 -1.192,9.505 -0.473,12.105 0.434,1.573 1.181,2.54 4.396,5.695 2.131,2.09 4.155,4.34 4.499,5 0.344,0.66 1.429,1.738 2.412,2.397 0.983,0.658 2.197,1.794 2.697,2.525 0.501,0.731 1.465,1.615 2.142,1.965 1.476,0.762 6.376,5.728 7.663,7.765 0.505,0.799 1.395,1.967 1.978,2.596 1.515,1.636 2.142,3.362 3.032,8.352 0.432,2.42 0.962,5.39 1.178,6.6 0.832,4.648 1.167,9.272 1.202,16.6 0.02,4.18 0.202,8.59 0.403,9.8 0.202,1.21 0.531,3.28 0.731,4.6 0.2,1.32 0.561,2.907 0.804,3.526 0.242,0.619 0.441,1.609 0.441,2.2 0.001,0.591 0.361,1.663 0.8,2.384 0.44,0.72 0.8,1.53 0.801,1.8 0,0.269 0.54,1.57 1.198,2.89 0.658,1.32 1.204,2.58 1.212,2.8 0.023,0.615 1.272,1.976 2.596,2.828 0.655,0.422 1.912,1.432 2.792,2.245 0.88,0.813 2.737,2.524 4.126,3.803 4.555,4.191 5.674,5.319 5.674,5.719 0,0.217 0.744,0.865 1.654,1.439 1.466,0.926 2.525,1.863 6.517,5.766 2.001,1.957 6.229,6.553 6.232,6.775 10e-4,0.124 0.993,1.27 2.204,2.548 1.211,1.278 2.442,2.898 2.736,3.6 0.294,0.702 1.009,1.727 1.589,2.277 0.58,0.55 1.057,1.132 1.061,1.293 0.004,0.16 1.106,1.446 2.448,2.856 2.527,2.653 2.772,3.008 4.558,6.597 0.588,1.181 1.548,2.621 2.135,3.2 1.176,1.163 3.666,6.022 3.666,7.157 0,0.395 0.495,1.164 1.1,1.708 0.605,0.544 1.355,1.484 1.668,2.089 0.312,0.605 0.717,1.1 0.9,1.1 0.182,0 0.333,0.225 0.334,0.5 0,0.275 0.5,1.501 1.109,2.725 1.087,2.181 1.848,4.385 3.032,8.775 1.433,5.311 2.341,8.038 3.233,9.716 1.169,2.199 2.019,5.427 2.795,10.617 0.324,2.166 0.881,4.733 1.237,5.703 3.13,8.515 4.026,23.765 1.736,29.533 -1.269,3.192 -4.549,5.845 -8.744,7.071 -2.529,0.739 -6.51,0.762 -146.8,0.865 l -144.2,0.106 -2.8,-0.824 c -9.623,-2.833 -10.595,-4.521 -10.608,-18.415 -0.009,-8.624 0.55,-14.402 1.839,-19.007 0.313,-1.119 0.569,-2.328 0.569,-2.687 0,-0.358 0.254,-1.242 0.565,-1.964 0.31,-0.723 0.866,-2.844 1.234,-4.714 0.368,-1.87 1.03,-4.84 1.471,-6.6 0.44,-1.76 1.072,-4.28 1.403,-5.6 0.33,-1.32 0.855,-2.991 1.164,-3.714 0.31,-0.722 0.563,-1.574 0.563,-1.892 0,-0.94 3.718,-8.428 4.468,-8.998 0.148,-0.112 0.397,-0.742 0.555,-1.4 0.157,-0.658 0.504,-1.646 0.77,-2.196 1.801,-3.717 2.513,-4.943 3.307,-5.691 0.495,-0.467 0.9,-1.061 0.9,-1.322 0,-1.73 6.643,-11.647 8.449,-12.613 0.454,-0.243 1.246,-1.394 1.761,-2.558 0.515,-1.164 1.42,-2.634 2.012,-3.266 0.592,-0.633 2.118,-2.5 3.391,-4.15 2.565,-3.325 10.309,-11.314 13.378,-13.8 1.086,-0.88 3.129,-2.725 4.54,-4.1 1.411,-1.375 2.755,-2.5 2.986,-2.5 0.231,0 1.205,-0.82 2.165,-1.821 0.96,-1.002 2.372,-2.247 3.138,-2.766 2.015,-1.368 6.122,-6.03 7.008,-7.958 0.419,-0.91 0.935,-1.925 1.147,-2.255 3.03,-4.728 4.055,-11.245 4.97,-31.616 0.41,-9.132 0.647,-11.686 1.184,-12.762 0.369,-0.74 0.671,-1.574 0.671,-1.855 0,-0.28 0.225,-0.75 0.5,-1.045 0.275,-0.294 0.815,-1.206 1.2,-2.028 0.385,-0.822 1.015,-2.154 1.4,-2.96 0.385,-0.806 2.32,-3.16 4.3,-5.232 1.98,-2.071 3.764,-4.066 3.965,-4.434 0.2,-0.367 0.605,-0.812 0.9,-0.988 0.294,-0.176 0.535,-0.491 0.535,-0.701 0,-0.21 1.17,-1.557 2.6,-2.994 1.43,-1.437 2.6,-2.866 2.6,-3.177 0,-0.31 0.618,-1.238 1.374,-2.063 0.755,-0.825 1.61,-1.96 1.899,-2.522 0.289,-0.563 0.751,-1.167 1.026,-1.343 0.276,-0.176 0.501,-0.456 0.501,-0.624 0,-0.167 0.9,-1.237 2,-2.378 1.1,-1.142 2,-2.327 2,-2.634 0,-0.307 0.27,-0.662 0.6,-0.789 0.33,-0.126 0.6,-0.5 0.6,-0.83 0,-0.788 1.495,-3.64 2.226,-4.247 0.919,-0.762 0.77,-5.824 -0.226,-7.682 -0.44,-0.821 -0.8,-1.832 -0.8,-2.246 0,-0.413 -0.258,-0.967 -0.574,-1.229 -0.316,-0.262 -0.69,-1.002 -0.831,-1.644 -0.141,-0.642 -0.423,-1.271 -0.626,-1.396 -0.203,-0.126 -0.369,-0.555 -0.369,-0.954 0,-1.012 -1.493,-4.304 -2.857,-6.299 -0.629,-0.92 -1.143,-1.817 -1.143,-1.993 0,-0.177 -0.514,-1.405 -1.141,-2.728 -3.123,-6.585 -4.254,-9.338 -5.329,-12.972 -0.222,-0.751 -0.678,-1.64 -1.013,-1.975 -1.173,-1.173 -4.102,-9.21 -4.112,-11.284 -0.003,-0.562 -0.269,-1.372 -0.592,-1.8 -0.323,-0.427 -0.593,-1.112 -0.6,-1.522 -0.007,-0.411 -0.277,-1.581 -0.599,-2.6 -2.754,-8.714 -1.825,-31.725 1.414,-35.034 0.205,-0.209 0.372,-0.811 0.372,-1.337 0,-1.133 1.959,-6.81 2.456,-7.117 0.189,-0.117 0.344,-0.548 0.344,-0.956 0,-0.409 0.135,-0.803 0.3,-0.877 0.385,-0.171 2.1,-2.61 2.1,-2.986 0,-0.58 3.374,-6.947 3.681,-6.947 0.176,0 0.319,-0.251 0.319,-0.557 0,-0.307 0.27,-0.661 0.6,-0.788 0.33,-0.126 0.6,-0.409 0.6,-0.627 0,-0.218 0.675,-1.079 1.5,-1.913 0.826,-0.833 2.221,-2.397 3.1,-3.474 2.633,-3.224 3.562,-4.241 3.876,-4.241 0.39,0 3.124,-2.738 3.124,-3.128 0,-0.35 3.829,-3.272 4.29,-3.273 0.17,0 1.3,-0.895 2.51,-1.988 1.21,-1.094 2.515,-2.095 2.9,-2.226 0.385,-0.132 0.7,-0.407 0.7,-0.612 0,-0.205 0.349,-0.373 0.776,-0.373 0.427,0 0.881,-0.169 1.008,-0.375 0.487,-0.787 9.938,-4.425 11.496,-4.425 0.258,0 0.84,-0.335 1.294,-0.745 3.571,-3.219 23.231,-5.051 37.426,-3.486 M 190,90.679 c -7.303,3.277 -15.073,8.403 -16.138,10.647 -2.428,5.117 -3.427,20.231 -2.066,31.251 0.327,2.653 0.787,6.353 1.022,8.223 0.496,3.954 2.972,9.662 4.482,10.333 0.165,0.074 0.3,0.406 0.3,0.739 0,0.628 1.535,3.028 2.086,3.261 0.172,0.074 0.314,0.288 0.314,0.477 0,0.751 3.334,7.121 4.81,9.19 0.863,1.21 1.574,2.493 1.58,2.851 0.005,0.358 0.291,1.324 0.635,2.146 0.343,0.822 0.789,2.779 0.991,4.349 0.202,1.57 0.487,3.738 0.635,4.819 0.378,2.774 -0.537,12.993 -1.526,17.035 -0.974,3.979 -1.381,4.854 -3.788,8.143 -0.989,1.351 -2.099,2.907 -2.467,3.457 -0.787,1.174 -5.218,5.596 -7.617,7.6 -0.922,0.77 -2.076,1.984 -2.565,2.697 -0.488,0.714 -1.099,1.299 -1.356,1.3 -0.437,0.003 -12.132,11.378 -12.132,11.8 0,0.318 -1.311,1.856 -2.728,3.2 -1.257,1.193 -2.361,3.651 -3.865,8.603 -0.3,0.99 -0.986,3.15 -1.524,4.8 -1.785,5.469 -1.995,8.03 -2.271,27.6 -0.264,18.755 -0.383,20.209 -1.8,22 -0.261,0.33 -1.047,1.77 -1.745,3.2 -1.235,2.525 -2.515,3.972 -9.55,10.793 -1.365,1.324 -2.645,2.407 -2.844,2.407 -0.198,0 -1.03,0.631 -1.847,1.401 -0.817,0.771 -2.327,1.977 -3.356,2.681 -1.028,0.703 -2.52,1.93 -3.315,2.727 -0.794,0.796 -2.009,1.682 -2.7,1.968 -0.69,0.286 -1.255,0.659 -1.255,0.828 0,0.17 -0.474,0.427 -1.053,0.572 -0.578,0.146 -1.613,0.91 -2.3,1.699 -0.686,0.789 -1.958,2.085 -2.826,2.879 -2.2,2.012 -3.821,3.766 -3.821,4.134 0,0.171 -0.193,0.311 -0.429,0.311 -0.236,0 -1.091,0.758 -1.9,1.684 -0.809,0.927 -2.551,2.806 -3.871,4.177 -6.463,6.709 -9.4,10.221 -9.4,11.239 0,0.299 -0.385,1.389 -0.856,2.422 -4.697,10.3 -5.425,15.298 -2.402,16.477 2.48,0.967 198.513,1.109 203.345,0.148 l 3.486,-0.694 0.256,-1.704 c 0.404,-2.698 -0.479,-7.798 -1.735,-10.023 -0.272,-0.48 -0.494,-1.091 -0.494,-1.356 0,-0.265 -0.338,-1.222 -0.752,-2.126 -0.414,-0.904 -1.145,-2.544 -1.624,-3.644 -0.48,-1.1 -1.942,-3.139 -3.248,-4.531 -1.307,-1.392 -2.377,-2.652 -2.378,-2.8 -0.002,-0.376 -10.242,-10.769 -14.651,-14.871 -2.009,-1.869 -4.692,-3.938 -5.962,-4.597 -1.27,-0.659 -2.776,-1.784 -3.347,-2.5 -0.571,-0.715 -1.218,-1.311 -1.438,-1.323 -0.22,-0.013 -1.3,-0.729 -2.4,-1.592 -1.1,-0.863 -3.004,-2.33 -4.231,-3.26 -1.228,-0.93 -2.668,-2.279 -3.2,-2.997 -0.533,-0.719 -1.132,-1.312 -1.332,-1.318 -0.871,-0.026 -6.711,-6.691 -7.695,-8.781 -0.577,-1.227 -1.16,-2.32 -1.296,-2.43 -2.321,-1.885 -2.842,-6.661 -2.875,-26.343 -0.016,-9.601 -0.171,-18.357 -0.345,-19.457 -0.419,-2.661 -1.215,-5.724 -1.871,-7.2 -0.293,-0.66 -1.123,-3.145 -1.844,-5.522 -1.004,-3.311 -1.639,-4.682 -2.711,-5.863 -1.806,-1.987 -2.4,-2.73 -2.4,-2.998 0,-0.119 -0.315,-0.557 -0.7,-0.973 -0.385,-0.416 -2.05,-2.232 -3.7,-4.036 -1.65,-1.804 -3.538,-3.759 -4.196,-4.344 -3.126,-2.78 -10.604,-10.782 -10.604,-11.347 0,-0.175 -0.162,-0.317 -0.36,-0.317 -0.197,0 -0.754,-0.757 -1.236,-1.683 -0.483,-0.925 -1.107,-1.87 -1.387,-2.1 -0.817,-0.669 -3.417,-6.142 -3.417,-7.193 0,-0.302 -0.519,-1.707 -1.154,-3.122 -1.446,-3.222 -2.135,-10.646 -1.589,-17.109 0.355,-4.197 0.396,-4.326 3.674,-11.593 0.839,-1.86 4.669,-7.789 6.849,-10.6 0.682,-0.88 1.529,-2.23 1.881,-3 1.877,-4.1 3.347,-7.026 3.631,-7.227 0.538,-0.382 1.908,-3.297 1.908,-4.059 0,-0.394 0.36,-1.389 0.8,-2.21 0.44,-0.82 0.8,-1.804 0.8,-2.185 0,-0.38 0.259,-1.283 0.576,-2.005 3.854,-8.785 3.855,-22.862 0.004,-31.714 -0.287,-0.66 -0.751,-1.874 -1.031,-2.698 -0.488,-1.439 -2.383,-3.902 -3.002,-3.902 -0.163,0 -1.328,-0.81 -2.588,-1.8 -1.26,-0.99 -2.552,-1.8 -2.871,-1.8 -0.319,0 -1.009,-0.315 -1.534,-0.7 -1.519,-1.115 -3.427,-2.1 -4.067,-2.1 -0.324,0 -0.813,-0.27 -1.087,-0.6 -0.734,-0.884 -12.395,-0.82 -14.4,0.079"
     stroke="none"
     fill="#f4f4f4"
     fill-rule="evenodd"
     style="fill:none" />
  <path
     id="path2"
     d="m 190.4,45.478 c -3.604,0.385 -10.408,1.874 -14.4,3.15 -0.99,0.317 -2.171,0.575 -2.624,0.574 -0.452,-10e-4 -1.172,0.262 -1.6,0.585 -0.427,0.323 -1.085,0.593 -1.462,0.6 -0.719,0.014 -1.629,0.379 -5.914,2.373 -3.098,1.443 -5.648,2.873 -6.2,3.479 -0.465,0.51 -4.143,2.961 -4.444,2.961 -0.625,0 -8.489,7.768 -11.456,11.317 -0.935,1.118 -2.285,2.635 -3,3.371 -0.715,0.736 -1.3,1.513 -1.3,1.725 0,0.213 -0.142,0.387 -0.315,0.387 -0.416,0 -2.382,3.288 -4.783,8 -1.065,2.09 -2.341,4.493 -2.836,5.341 -3.369,5.777 -4.911,18.865 -3.859,32.777 0.312,4.135 0.664,7.673 0.781,7.862 0.117,0.19 0.373,1.397 0.569,2.683 0.418,2.746 1.295,5.321 3.25,9.537 0.408,0.88 1.123,2.59 1.589,3.8 0.466,1.21 1.017,2.605 1.225,3.1 0.209,0.495 0.549,1.305 0.758,1.8 0.208,0.495 0.78,1.89 1.271,3.1 0.49,1.21 1.205,2.657 1.588,3.216 0.383,0.558 1.356,2.448 2.163,4.2 1.533,3.329 1.673,3.66 2.792,6.584 0.379,0.99 0.881,2.16 1.117,2.6 3.292,6.162 3.608,7.299 3.64,13.1 0.033,5.942 -1.656,12.26 -3.29,12.308 -0.143,0.004 -0.8,0.9 -1.46,1.992 -0.66,1.092 -1.335,1.988 -1.5,1.992 -0.165,0.005 -0.3,0.234 -0.3,0.511 0,0.277 -0.952,1.595 -2.117,2.93 -1.164,1.335 -2.998,3.628 -4.077,5.097 -1.078,1.468 -2.106,2.67 -2.283,2.67 -0.178,0 -0.323,0.209 -0.323,0.465 0,0.255 -0.598,1.02 -1.33,1.7 -0.731,0.679 -1.933,2.045 -2.671,3.035 -0.738,0.99 -2.209,2.651 -3.27,3.691 -1.061,1.04 -1.929,2.075 -1.929,2.3 0,0.225 -0.135,0.409 -0.301,0.409 -0.165,0 -0.748,0.855 -1.296,1.9 -0.547,1.045 -1.312,2.249 -1.699,2.675 -0.387,0.427 -0.704,1.029 -0.704,1.339 0,0.309 -0.255,1.04 -0.567,1.624 -0.925,1.732 -1.752,5.617 -2.013,9.462 -1.031,15.169 -1.556,20.089 -3.076,28.8 -1.139,6.528 -2.939,11.8 -4.028,11.8 -0.174,0 -0.316,0.163 -0.316,0.361 0,0.96 -10.09,11.239 -11.033,11.239 -0.092,0 -0.482,0.273 -0.867,0.606 -0.774,0.671 -5.922,5.029 -8.076,6.838 -2.335,1.961 -5.843,5.5 -6.598,6.656 -0.395,0.605 -0.871,1.1 -1.059,1.1 -0.445,0 -3.167,2.725 -3.167,3.171 0,0.189 -0.27,0.447 -0.6,0.574 -0.33,0.126 -0.6,0.506 -0.6,0.842 0,0.337 -0.143,0.613 -0.318,0.613 -0.175,0 -0.971,0.857 -1.77,1.904 -0.798,1.047 -1.822,2.352 -2.274,2.9 -2.73,3.305 -5.393,7.153 -5.878,8.496 -0.139,0.385 -0.395,0.7 -0.568,0.7 -0.481,0 -3.452,4.501 -5.192,7.866 -0.55,1.064 -1.225,2.172 -1.5,2.463 -0.275,0.29 -0.5,0.744 -0.5,1.009 0,0.264 -0.585,1.388 -1.3,2.497 -1.415,2.195 -2.268,3.889 -3.205,6.365 -0.332,0.88 -0.912,2.41 -1.287,3.4 -0.762,2.013 -1.325,3.359 -2.508,6 -0.443,0.99 -1.093,2.79 -1.444,4 -2.705,9.316 -3.623,13.286 -5.082,22 -0.461,2.75 -1.093,6.44 -1.406,8.2 -1.27,7.149 -0.529,16.639 1.454,18.622 0.428,0.428 0.778,0.859 0.778,0.957 0,0.864 2.425,2.423 6,3.859 2.369,0.951 282.003,1.062 286.98,0.114 1.969,-0.375 4.039,-0.922 4.6,-1.215 0.561,-0.292 1.223,-0.533 1.471,-0.535 0.248,-0.001 1.099,-0.947 1.89,-2.102 3.062,-4.469 3.376,-12.677 1.001,-26.1 -0.234,-1.32 -0.56,-3.21 -0.726,-4.2 -0.314,-1.878 -1.742,-7.249 -2.357,-8.865 -0.195,-0.514 -0.668,-2.015 -1.049,-3.335 -0.382,-1.32 -0.922,-3.12 -1.2,-4 -0.277,-0.88 -0.801,-2.59 -1.163,-3.8 -1.989,-6.65 -3.193,-9.563 -6.533,-15.8 -0.235,-0.44 -1.005,-1.97 -1.71,-3.4 -0.705,-1.43 -1.895,-3.531 -2.643,-4.668 -0.749,-1.137 -1.361,-2.262 -1.361,-2.5 0,-0.238 -0.168,-0.432 -0.373,-0.432 -0.205,0 -0.498,-0.395 -0.652,-0.877 -0.153,-0.483 -0.84,-1.707 -1.527,-2.72 -1.779,-2.626 -2.218,-3.324 -2.519,-4.003 -0.146,-0.33 -1.327,-1.744 -2.624,-3.142 -1.296,-1.399 -2.525,-2.929 -2.73,-3.4 -0.205,-0.472 -0.599,-1.198 -0.874,-1.613 -1.717,-2.59 -17.564,-18.553 -23.901,-24.078 -9.069,-7.906 -11.45,-10.644 -14.137,-16.261 -1.025,-2.142 -1.863,-4.049 -1.863,-4.239 0,-0.189 -0.272,-0.89 -0.605,-1.557 -0.333,-0.667 -0.788,-2.72 -1.011,-4.562 -0.224,-1.841 -0.515,-3.618 -0.647,-3.948 -0.132,-0.33 -0.386,-6.63 -0.564,-14 -0.455,-18.819 -1.436,-24.404 -5.053,-28.745 -1.679,-2.015 -10.863,-11.58 -12.9,-13.434 -11.447,-10.421 -14.557,-16.928 -12.46,-26.072 1.198,-5.227 2.7,-9.054 4.846,-12.349 0.43,-0.66 0.962,-1.56 1.181,-2 0.22,-0.44 0.843,-1.52 1.385,-2.4 0.542,-0.88 1.483,-2.545 2.091,-3.7 0.607,-1.155 1.247,-2.1 1.421,-2.1 0.174,0 0.316,-0.206 0.316,-0.459 0,-0.252 0.595,-1.197 1.321,-2.1 1.168,-1.45 2.563,-4.098 4.554,-8.641 0.337,-0.77 0.766,-1.67 0.953,-2 1.294,-2.282 3.197,-6.61 3.869,-8.8 1.687,-5.501 2.103,-7.105 2.103,-8.11 0,-0.572 0.292,-2.267 0.648,-3.765 1.457,-6.124 0.699,-21.254 -1.392,-27.773 -0.239,-0.744 -0.794,-2.464 -1.235,-3.824 -0.44,-1.36 -1.373,-3.52 -2.072,-4.8 -0.699,-1.28 -2.341,-4.398 -3.648,-6.928 -1.308,-2.53 -3.035,-5.247 -3.839,-6.037 C 253.919,72.65 250.8,69.21 250.8,69 c 0,-0.081 -1.009,-1.105 -2.241,-2.274 -1.233,-1.169 -2.826,-2.711 -3.541,-3.426 -0.714,-0.715 -1.424,-1.3 -1.578,-1.3 -0.153,0 -0.675,-0.421 -1.159,-0.935 -0.77,-0.816 -2.977,-2.406 -9.281,-6.684 -0.88,-0.598 -2.59,-1.489 -3.8,-1.981 -1.21,-0.493 -2.74,-1.115 -3.4,-1.382 -0.66,-0.268 -2.28,-0.813 -3.6,-1.21 -1.32,-0.398 -3.079,-0.968 -3.908,-1.266 -0.83,-0.298 -1.858,-0.542 -2.287,-0.542 -0.428,0 -1.369,-0.251 -2.091,-0.558 -4.064,-1.726 -16.233,-2.743 -23.514,-1.964 m 19.4,1.912 c 1.54,0.379 3.88,0.951 5.2,1.273 1.32,0.321 2.94,0.771 3.6,1 0.66,0.228 1.83,0.547 2.6,0.707 0.77,0.16 1.76,0.481 2.2,0.712 0.44,0.232 1.724,0.724 2.853,1.093 1.129,0.369 3.019,1.203 4.2,1.852 1.181,0.649 2.462,1.29 2.847,1.423 0.385,0.134 0.7,0.387 0.7,0.562 0,0.272 3.503,2.688 4.55,3.138 0.193,0.082 0.686,0.443 1.096,0.8 0.41,0.358 1.49,1.28 2.401,2.05 2.037,1.723 9.346,8.972 12.434,12.334 1.609,1.75 2.961,3.867 4.583,7.174 1.265,2.581 2.399,4.782 2.518,4.892 0.651,0.598 2.702,5.465 3.456,8.2 2.113,7.665 2.278,8.945 2.318,18 0.04,8.966 -0.524,14.164 -1.997,18.413 -0.307,0.888 -0.559,2.007 -0.559,2.487 0,0.992 -0.515,2.245 -3.257,7.921 -1.069,2.212 -1.943,4.164 -1.943,4.34 0,0.4 -1.023,2.745 -2.111,4.839 -0.69,1.328 -1.935,3.173 -3.783,5.602 -0.168,0.222 -0.743,1.212 -1.276,2.2 -0.534,0.989 -1.074,1.888 -1.2,1.998 -0.275,0.239 -1.226,1.935 -2.468,4.4 -0.499,0.99 -1.028,1.89 -1.177,2 -0.473,0.351 -3.185,5.698 -3.185,6.28 0,0.308 -0.274,1.089 -0.608,1.736 -1.476,2.854 -2.165,10.454 -1.357,14.96 0.951,5.306 1.912,6.537 16.104,20.624 4.1,4.07 7.461,7.58 7.469,7.8 0.008,0.22 0.53,0.906 1.16,1.524 1.06,1.039 2.251,3.124 3.472,6.076 1.102,2.665 1.74,8.637 1.988,18.6 0.456,18.371 1.609,27.086 4.18,31.6 0.188,0.33 0.921,1.739 1.629,3.132 0.708,1.392 1.841,3.192 2.517,4 1.251,1.494 8.659,8.868 8.909,8.868 0.075,0 0.464,0.315 0.864,0.7 0.4,0.385 2.504,2.32 4.677,4.3 7.614,6.937 20.259,20.007 20.525,21.214 0.071,0.322 0.284,0.586 0.473,0.586 0.189,0 0.458,0.359 0.597,0.798 0.14,0.439 1.092,1.72 2.118,2.846 1.7,1.869 3.932,4.955 4.616,6.384 0.151,0.315 0.66,1.202 1.132,1.972 0.472,0.77 1.059,1.76 1.304,2.2 0.577,1.037 1.953,3.143 2.222,3.4 0.369,0.353 1.109,1.721 2.811,5.2 0.915,1.87 2.013,4.03 2.44,4.8 2.308,4.167 3.713,7.705 5.559,14 0.677,2.31 1.422,4.74 1.654,5.4 0.233,0.66 0.565,1.83 0.737,2.6 0.438,1.952 1.428,5.463 2.144,7.6 2.726,8.14 3.968,24.66 2.259,30.058 -0.969,3.062 -1.281,3.479 -3.595,4.799 -4.514,2.575 7.725,2.389 -149,2.26 L 51.4,413 49.525,412.125 c -6.402,-2.988 -8.274,-10.715 -5.943,-24.525 0.464,-2.75 1.124,-6.71 1.467,-8.8 1.403,-8.556 3.903,-17.759 6.356,-23.4 0.72,-1.657 1.592,-3.947 2.631,-6.912 0.484,-1.382 1.034,-2.608 1.222,-2.724 0.188,-0.116 0.342,-0.497 0.342,-0.846 0,-0.349 0.6,-1.554 1.334,-2.677 0.734,-1.122 1.734,-2.851 2.223,-3.841 1.433,-2.902 3.28,-6.151 3.883,-6.831 0.308,-0.348 0.56,-0.766 0.56,-0.931 0,-0.164 0.765,-1.32 1.7,-2.568 0.935,-1.249 2.049,-2.9 2.476,-3.67 0.923,-1.663 3.761,-5.344 4.268,-5.533 0.196,-0.074 0.356,-0.394 0.356,-0.713 0,-0.318 0.27,-0.683 0.6,-0.809 0.33,-0.127 0.6,-0.391 0.6,-0.588 0,-0.196 0.315,-0.687 0.7,-1.09 1.491,-1.561 3.3,-3.756 3.301,-4.006 0,-0.393 9.149,-9.643 11.206,-11.332 0.986,-0.809 2.603,-2.212 3.593,-3.117 0.99,-0.906 3.6,-3.055 5.8,-4.777 3.594,-2.812 7.402,-6.502 10.202,-9.883 2.762,-3.337 4.496,-8.578 5.805,-17.552 0.353,-2.42 0.888,-5.93 1.187,-7.8 0.3,-1.87 0.653,-5.38 0.783,-7.8 0.625,-11.558 1.575,-17.659 3.092,-19.862 0.402,-0.584 0.731,-1.19 0.731,-1.347 0,-0.44 2.915,-5.173 3.279,-5.324 0.177,-0.074 0.321,-0.308 0.321,-0.521 0,-0.213 0.602,-0.963 1.337,-1.666 0.735,-0.704 2.038,-2.18 2.896,-3.28 0.857,-1.1 2.326,-2.733 3.263,-3.628 0.937,-0.895 1.704,-1.732 1.704,-1.859 0,-0.127 0.435,-0.744 0.966,-1.372 1.96,-2.315 6.476,-8.18 7.834,-10.175 0.77,-1.131 1.684,-2.364 2.031,-2.741 0.346,-0.378 0.753,-0.942 0.904,-1.256 0.151,-0.313 0.63,-1.109 1.065,-1.769 2.122,-3.218 3.051,-12.97 1.64,-17.2 -0.706,-2.114 -1.386,-3.711 -3.32,-7.8 -0.885,-1.87 -1.747,-3.76 -1.916,-4.2 -1.75,-4.545 -2.578,-6.375 -4.256,-9.4 -0.549,-0.99 -1.638,-3.33 -2.42,-5.2 -0.782,-1.87 -1.671,-3.967 -1.975,-4.66 -0.304,-0.694 -0.553,-1.476 -0.553,-1.739 0,-0.263 -0.253,-0.955 -0.562,-1.539 -5.348,-10.108 -6.985,-24.998 -4.645,-42.262 0.573,-4.222 1.333,-6.521 3.796,-11.481 4.783,-9.634 6.594,-12.687 8.793,-14.822 0.78,-0.758 1.419,-1.54 1.421,-1.737 0.008,-0.8 12.694,-12.877 14.697,-13.992 1.154,-0.642 2.099,-1.303 2.1,-1.468 0,-0.165 0.172,-0.3 0.382,-0.3 0.21,0 0.995,-0.416 1.743,-0.924 0.749,-0.508 2.422,-1.428 3.718,-2.044 1.296,-0.617 2.678,-1.287 3.071,-1.489 3.03,-1.558 16.416,-4.992 21.686,-5.563 4.936,-0.535 17.663,-0.162 20.8,0.61 m -13.9,40.103 c 0.935,0.084 2.465,0.084 3.4,0 0.935,-0.084 0.17,-0.153 -1.7,-0.153 -1.87,0 -2.635,0.069 -1.7,0.153 m -9.947,0.909 c -3.55,0.969 -4.704,1.595 -9.108,4.938 -5.155,3.914 -5.067,3.751 -9.106,16.86 -1.035,3.36 -1.026,17.31 0.014,21.8 0.655,2.829 1.479,6.562 2.871,13 1.113,5.149 1.922,7.177 4.237,10.622 1.264,1.882 2.492,3.862 2.727,4.4 0.736,1.682 4.053,7.64 4.442,7.978 0.345,0.3 1.818,3.209 2.431,4.8 0.881,2.287 0.755,18.409 -0.163,20.921 -0.932,2.549 -3.008,6.506 -3.724,7.101 -0.316,0.262 -0.574,0.653 -0.574,0.869 0,0.692 -2.434,3.616 -5.664,6.806 -1.725,1.703 -3.136,3.207 -3.136,3.341 0,0.222 -5.557,5.762 -5.78,5.762 -0.756,0 -11.02,10.268 -11.02,11.025 0,0.081 -0.539,0.699 -1.198,1.373 -0.658,0.674 -1.569,1.895 -2.023,2.713 -0.454,0.819 -1.345,2.389 -1.979,3.489 -0.635,1.1 -1.166,2.27 -1.18,2.6 -0.013,0.33 -0.294,1.116 -0.622,1.746 -0.329,0.63 -0.598,1.38 -0.598,1.667 0,0.287 -0.3,1.122 -0.668,1.855 -3.235,6.456 -3.058,5.017 -3.345,27.132 -0.342,26.319 -0.15,25.469 -7.441,33.038 -1.569,1.629 -3.035,2.962 -3.257,2.962 -0.222,0 -0.507,0.27 -0.634,0.6 -0.126,0.33 -0.446,0.6 -0.71,0.6 -0.265,0 -1.673,1.125 -3.131,2.5 -2.666,2.515 -4.292,3.9 -4.577,3.9 -0.162,0 -0.769,0.502 -5.034,4.168 -1.428,1.228 -2.753,2.232 -2.942,2.232 -0.694,0 -4.589,3.391 -9.768,8.505 -1.352,1.335 -8.202,8.549 -8.893,9.365 -0.33,0.39 -1.545,1.793 -2.7,3.117 -1.155,1.324 -2.1,2.633 -2.1,2.91 0,0.277 -0.168,0.503 -0.373,0.503 -0.205,0 -0.487,0.359 -0.626,0.798 -0.139,0.438 -0.467,1.026 -0.727,1.306 -0.438,0.47 -1.483,2.479 -2.027,3.896 -0.126,0.33 -0.683,1.32 -1.236,2.2 -0.553,0.88 -1.077,1.78 -1.164,2 -2.049,5.165 -2.554,11.633 -1.098,14.058 1.21,2.016 2.541,2.496 8.251,2.973 6.424,0.537 195.509,0.458 200.097,-0.083 3.993,-0.471 8.103,-1.956 8.103,-2.928 0,-0.287 0.252,-0.731 0.561,-0.987 0.98,-0.814 0.102,-8.264 -1.348,-11.433 -0.402,-0.88 -1.307,-2.86 -2.01,-4.4 -0.703,-1.54 -1.576,-3.425 -1.94,-4.19 -0.822,-1.723 -4.234,-6.622 -5.408,-7.764 -0.479,-0.465 -1.391,-1.547 -2.027,-2.404 -3.202,-4.312 -15.871,-16.057 -19.428,-18.011 -0.77,-0.423 -2.12,-1.465 -3,-2.315 -0.88,-0.85 -2.455,-2.098 -3.5,-2.772 -1.045,-0.675 -1.9,-1.389 -1.9,-1.586 0,-0.197 -0.193,-0.358 -0.429,-0.358 -0.236,0 -1.077,-0.722 -1.869,-1.604 -0.792,-0.882 -2.579,-2.44 -3.971,-3.462 -1.392,-1.022 -2.531,-2.01 -2.531,-2.196 0,-0.186 -0.172,-0.338 -0.382,-0.338 -0.379,0 -2.418,-1.87 -2.418,-2.219 0,-0.1 -0.695,-0.857 -1.544,-1.681 -0.85,-0.825 -2.035,-2.49 -2.633,-3.7 -0.599,-1.21 -1.27,-2.538 -1.491,-2.951 -0.721,-1.346 -1.107,-10.162 -1.12,-25.572 -0.015,-18.755 -0.11,-19.525 -3.28,-26.605 -0.623,-1.39 -1.131,-2.65 -1.129,-2.8 0.008,-0.68 -3.094,-7.275 -4.268,-9.072 -1.195,-1.829 -1.754,-2.55 -4.136,-5.334 -0.439,-0.514 -0.799,-1.076 -0.799,-1.249 0,-0.323 -1.576,-1.883 -6.748,-6.682 -4.391,-4.073 -6.052,-5.709 -6.052,-5.959 0,-0.204 -2.213,-3.292 -3.2,-4.466 -3.798,-4.512 -6.743,-10.849 -7.768,-16.714 -1.574,-8.999 -0.343,-17.439 3.382,-23.196 0.428,-0.66 0.902,-1.47 1.055,-1.8 0.372,-0.806 1.762,-2.781 2.662,-3.785 0.681,-0.759 1.222,-1.806 3.48,-6.734 0.483,-1.056 1.629,-3.036 2.545,-4.4 2.155,-3.208 3.439,-5.904 6.039,-12.681 0.379,-0.99 1.015,-2.61 1.412,-3.6 3.527,-8.788 3.136,-23.16 -0.86,-31.6 -0.677,-1.43 -1.408,-2.978 -1.624,-3.439 -0.359,-0.767 -1.148,-1.782 -3.079,-3.961 -0.39,-0.44 -1.396,-1.34 -2.235,-2 -0.839,-0.66 -2.175,-1.745 -2.968,-2.411 -2.531,-2.126 -7.669,-3.803 -11.441,-3.733 -2.084,0.038 -1.949,0.091 2,0.776 5.477,0.95 11.953,4.786 14.909,8.832 0.28,0.383 0.762,0.95 1.071,1.259 0.309,0.309 0.95,1.442 1.426,2.519 0.475,1.077 1.118,2.436 1.429,3.02 0.311,0.584 0.565,1.356 0.565,1.716 0,0.359 0.331,1.322 0.735,2.138 3.12,6.298 2.538,17.93 -1.414,28.284 -0.336,0.88 -0.861,2.275 -1.166,3.1 -2.086,5.638 -3.693,9.001 -5.595,11.706 -0.462,0.657 -1.513,2.634 -2.337,4.394 -0.824,1.76 -1.698,3.618 -1.943,4.128 -0.245,0.511 -0.824,1.321 -1.288,1.8 -0.864,0.894 -3.392,4.554 -3.392,4.911 0,0.11 -0.591,1.136 -1.314,2.28 -1.276,2.019 -2.163,4.456 -3.054,8.387 -1.172,5.172 0.172,17.83 2.309,21.745 0.225,0.412 0.825,1.649 1.334,2.749 0.508,1.1 1.015,2.09 1.126,2.2 0.111,0.11 0.691,0.92 1.29,1.8 0.599,0.88 1.499,2.05 1.999,2.6 0.501,0.55 1.45,1.81 2.11,2.8 0.66,0.99 1.605,2.248 2.1,2.796 0.495,0.548 0.9,1.133 0.9,1.3 0,0.167 0.145,0.304 0.322,0.304 0.177,0 1.504,1.125 2.949,2.5 1.445,1.375 3.685,3.5 4.978,4.721 2.273,2.147 3.351,3.347 3.351,3.728 0,0.101 0.36,0.603 0.799,1.117 0.44,0.514 1.26,1.474 1.822,2.134 1.351,1.585 3.779,5.696 3.779,6.398 0,0.305 0.16,0.654 0.356,0.775 0.195,0.121 0.473,0.716 0.616,1.323 0.144,0.607 0.64,1.914 1.103,2.904 1.718,3.677 2.861,6.721 3.68,9.8 0.529,1.989 0.666,5.656 0.802,21.4 0.226,26.196 0.929,28.429 11.443,36.396 0.99,0.75 2.452,2.003 3.249,2.784 2.008,1.968 3.393,3.144 5.951,5.054 1.21,0.903 2.65,2.094 3.2,2.647 0.55,0.553 2.26,1.766 3.8,2.698 1.54,0.931 3.7,2.558 4.8,3.617 6.681,6.43 14.201,13.981 14.209,14.268 0.006,0.185 0.994,1.416 2.197,2.736 1.203,1.32 2.189,2.597 2.19,2.838 0.002,0.241 0.364,0.764 0.804,1.162 0.44,0.398 0.8,0.966 0.8,1.262 0,0.296 0.168,0.538 0.373,0.538 0.205,0 0.49,0.405 0.633,0.9 0.142,0.495 0.679,1.8 1.192,2.9 0.512,1.1 1.322,2.9 1.799,4 0.477,1.1 1.212,2.74 1.635,3.644 0.598,1.281 0.768,2.537 0.768,5.692 v 4.048 l -2.66,1.244 c -1.463,0.684 -3.758,1.412 -5.1,1.618 -5.112,0.784 -203.054,0.256 -204.52,-0.546 -0.704,-0.385 -1.635,-0.7 -2.068,-0.7 -1.624,0 -2.557,-2.444 -2.331,-6.113 0.198,-3.232 1.157,-7.418 1.8,-7.861 0.18,-0.124 1.355,-2.296 2.611,-4.826 2.407,-4.847 2.957,-5.826 3.768,-6.712 0.275,-0.3 0.5,-0.674 0.5,-0.832 0,-0.157 0.907,-1.252 2.015,-2.433 1.109,-1.181 2.59,-2.884 3.293,-3.785 0.702,-0.901 1.63,-1.898 2.063,-2.216 0.433,-0.318 1.786,-1.647 3.008,-2.954 1.221,-1.307 3.199,-3.297 4.395,-4.422 3.615,-3.402 4.426,-4.256 4.426,-4.66 0,-0.212 0.276,-0.386 0.613,-0.386 0.336,0 0.716,-0.27 0.842,-0.6 0.127,-0.33 0.406,-0.6 0.62,-0.6 0.578,0 4.502,-2.675 5.798,-3.953 0.62,-0.611 2.297,-1.993 3.727,-3.07 1.43,-1.078 3.41,-2.754 4.4,-3.726 0.99,-0.972 2.475,-2.215 3.3,-2.762 0.825,-0.547 1.5,-1.151 1.5,-1.342 0,-0.191 0.168,-0.347 0.374,-0.347 0.352,0 4.826,-4.34 4.826,-4.681 0,-0.086 0.426,-0.554 0.946,-1.038 0.521,-0.485 1.436,-1.871 2.033,-3.081 0.598,-1.21 1.286,-2.56 1.529,-3 0.294,-0.533 0.538,-7.536 0.73,-21 0.285,-19.95 0.534,-23.582 1.745,-25.43 0.339,-0.518 0.617,-1.198 0.617,-1.51 0,-0.313 0.269,-1.084 0.598,-1.714 0.328,-0.63 0.604,-1.416 0.612,-1.746 0.009,-0.33 0.28,-0.949 0.603,-1.376 0.323,-0.428 0.587,-1.182 0.587,-1.677 0,-0.495 0.166,-1.002 0.369,-1.128 0.203,-0.125 0.492,-0.785 0.641,-1.466 0.4,-1.821 3.596,-6.828 5.815,-9.11 0.344,-0.354 1.331,-1.543 2.195,-2.643 2.028,-2.584 3.937,-4.494 6.18,-6.185 0.99,-0.747 2.651,-2.225 3.691,-3.286 1.04,-1.061 2.075,-1.929 2.3,-1.929 0.225,0 0.411,-0.135 0.413,-0.3 0.002,-0.165 1.907,-2.262 4.232,-4.66 8.178,-8.435 10.896,-13.233 11.732,-20.708 1.104,-9.886 0.2,-17.053 -2.742,-21.732 -1.152,-1.832 -1.353,-2.185 -3.416,-6 -2.057,-3.8 -3.527,-6.359 -3.792,-6.6 -1.485,-1.348 -4.429,-8.011 -4.413,-9.986 0.003,-0.338 -0.278,-1.964 -0.623,-3.614 -0.346,-1.65 -0.899,-4.282 -1.228,-5.85 -2.284,-10.871 -2.325,-21.024 -0.109,-27.286 0.415,-1.174 0.755,-2.563 0.755,-3.086 0,-0.523 0.259,-1.542 0.576,-2.264 0.316,-0.723 0.669,-1.764 0.784,-2.314 0.277,-1.325 2.294,-4.4 2.887,-4.4 0.257,0 0.571,-0.27 0.698,-0.6 0.126,-0.33 0.416,-0.6 0.642,-0.6 0.227,0 0.746,-0.315 1.153,-0.7 1.177,-1.113 2.449,-2.1 2.707,-2.1 0.131,0 0.894,-0.511 1.695,-1.136 1.883,-1.468 4.58,-2.375 9.058,-3.047 l 3.6,-0.54 -2.6,0.002 c -1.43,0 -3.791,0.326 -5.247,0.723"
     stroke="none"
     fill="#848484"
     fill-rule="evenodd" />
  <path
     id="path3"
     d="m 189,46.78 c -5.27,0.571 -18.656,4.005 -21.686,5.563 -0.393,0.202 -1.775,0.872 -3.071,1.489 -1.296,0.616 -2.969,1.536 -3.718,2.044 -0.748,0.508 -1.533,0.924 -1.743,0.924 -0.21,0 -0.382,0.135 -0.382,0.3 -0.001,0.165 -0.946,0.826 -2.1,1.468 -2.003,1.115 -14.689,13.192 -14.697,13.992 -0.002,0.197 -0.641,0.979 -1.421,1.737 -4.446,4.317 -11.648,19.367 -12.589,26.303 -2.34,17.264 -0.703,32.154 4.645,42.262 0.309,0.584 0.562,1.276 0.562,1.539 0,0.263 0.249,1.045 0.553,1.739 0.304,0.693 1.193,2.79 1.975,4.66 0.782,1.87 1.871,4.21 2.42,5.2 1.678,3.025 2.506,4.855 4.256,9.4 0.169,0.44 1.031,2.33 1.916,4.2 1.934,4.089 2.614,5.686 3.32,7.8 0.723,2.167 0.727,10.599 0.005,13.2 -0.72,2.598 -0.719,2.596 -1.645,4 -0.435,0.66 -0.914,1.456 -1.065,1.769 -0.151,0.314 -0.558,0.878 -0.904,1.256 -0.347,0.377 -1.261,1.61 -2.031,2.741 -1.358,1.995 -5.874,7.86 -7.834,10.175 -0.531,0.628 -0.966,1.245 -0.966,1.372 0,0.127 -0.767,0.964 -1.704,1.859 -0.937,0.895 -2.406,2.528 -3.263,3.628 -0.858,1.1 -2.161,2.576 -2.896,3.28 -0.735,0.703 -1.337,1.453 -1.337,1.666 0,0.213 -0.144,0.447 -0.321,0.521 -0.364,0.151 -3.279,4.884 -3.279,5.324 0,0.157 -0.329,0.763 -0.731,1.347 -1.517,2.203 -2.467,8.304 -3.092,19.862 -0.13,2.42 -0.483,5.93 -0.783,7.8 -0.299,1.87 -0.834,5.38 -1.187,7.8 -1.309,8.974 -3.043,14.215 -5.805,17.552 -2.8,3.381 -6.608,7.071 -10.202,9.883 -2.2,1.722 -4.81,3.871 -5.8,4.777 -0.99,0.905 -2.607,2.308 -3.593,3.117 -2.057,1.689 -11.206,10.939 -11.206,11.332 -0.001,0.25 -1.81,2.445 -3.301,4.006 -0.385,0.403 -0.7,0.894 -0.7,1.09 0,0.197 -0.27,0.461 -0.6,0.588 -0.33,0.126 -0.6,0.491 -0.6,0.809 0,0.319 -0.16,0.639 -0.356,0.713 -0.507,0.189 -3.345,3.87 -4.268,5.533 -0.427,0.77 -1.541,2.421 -2.476,3.67 -0.935,1.248 -1.7,2.404 -1.7,2.568 0,0.165 -0.252,0.583 -0.56,0.931 -0.603,0.68 -2.45,3.929 -3.883,6.831 -0.489,0.99 -1.489,2.719 -2.223,3.841 -0.734,1.123 -1.334,2.328 -1.334,2.677 0,0.349 -0.154,0.73 -0.342,0.846 -0.188,0.116 -0.738,1.342 -1.222,2.724 -1.039,2.965 -1.911,5.255 -2.631,6.912 -2.453,5.641 -4.953,14.844 -6.356,23.4 -0.343,2.09 -1.003,6.05 -1.467,8.8 -2.331,13.81 -0.459,21.537 5.943,24.525 L 51.4,413 l 142,0.117 c 156.725,0.129 144.486,0.315 149,-2.26 2.314,-1.32 2.626,-1.737 3.595,-4.799 1.709,-5.398 0.467,-21.918 -2.259,-30.058 -0.716,-2.137 -1.706,-5.648 -2.144,-7.6 -0.172,-0.77 -0.504,-1.94 -0.737,-2.6 -0.232,-0.66 -0.977,-3.09 -1.654,-5.4 -1.846,-6.295 -3.251,-9.833 -5.559,-14 -0.427,-0.77 -1.525,-2.93 -2.44,-4.8 -1.702,-3.479 -2.442,-4.847 -2.811,-5.2 -0.269,-0.257 -1.645,-2.363 -2.222,-3.4 -0.245,-0.44 -0.832,-1.43 -1.304,-2.2 -0.472,-0.77 -0.981,-1.657 -1.132,-1.972 -0.684,-1.429 -2.916,-4.515 -4.616,-6.384 -1.026,-1.126 -1.978,-2.407 -2.118,-2.846 -0.139,-0.439 -0.408,-0.798 -0.597,-0.798 -0.189,0 -0.402,-0.264 -0.473,-0.586 -0.266,-1.207 -12.911,-14.277 -20.525,-21.214 -2.173,-1.98 -4.277,-3.915 -4.677,-4.3 -0.4,-0.385 -0.789,-0.7 -0.864,-0.7 -0.25,0 -7.658,-7.374 -8.909,-8.868 -0.676,-0.808 -1.809,-2.608 -2.517,-4 -0.708,-1.393 -1.441,-2.802 -1.629,-3.132 -2.571,-4.514 -3.724,-13.229 -4.18,-31.6 -0.248,-9.963 -0.886,-15.935 -1.988,-18.6 -1.221,-2.952 -2.412,-5.037 -3.472,-6.076 -0.63,-0.618 -1.152,-1.304 -1.16,-1.524 -0.008,-0.22 -3.369,-3.73 -7.469,-7.8 -14.192,-14.087 -15.153,-15.318 -16.104,-20.624 -0.808,-4.506 -0.119,-12.106 1.357,-14.96 0.334,-0.647 0.608,-1.428 0.608,-1.736 0,-0.582 2.712,-5.929 3.185,-6.28 0.149,-0.11 0.678,-1.01 1.177,-2 1.242,-2.465 2.193,-4.161 2.468,-4.4 0.126,-0.11 0.666,-1.009 1.2,-1.998 0.533,-0.988 1.108,-1.978 1.276,-2.2 1.848,-2.429 3.093,-4.274 3.783,-5.602 1.088,-2.094 2.111,-4.439 2.111,-4.839 0,-0.176 0.874,-2.128 1.943,-4.34 2.742,-5.676 3.257,-6.929 3.257,-7.921 0,-0.48 0.252,-1.599 0.559,-2.487 3.828,-11.042 2.52,-31.705 -2.698,-42.613 -0.474,-0.99 -0.959,-1.89 -1.079,-2 -0.119,-0.11 -1.253,-2.311 -2.518,-4.892 -1.622,-3.307 -2.974,-5.424 -4.583,-7.174 C 251.393,70.972 244.084,63.723 242.047,62 c -0.911,-0.77 -1.991,-1.692 -2.401,-2.05 -0.41,-0.357 -0.903,-0.718 -1.096,-0.8 -1.047,-0.45 -4.55,-2.866 -4.55,-3.138 0,-0.175 -0.315,-0.428 -0.7,-0.562 -0.385,-0.133 -1.666,-0.774 -2.847,-1.423 -1.181,-0.649 -3.071,-1.483 -4.2,-1.852 -1.129,-0.369 -2.413,-0.861 -2.853,-1.093 -0.44,-0.231 -1.43,-0.552 -2.2,-0.712 -0.77,-0.16 -1.94,-0.479 -2.6,-0.707 -0.66,-0.229 -2.28,-0.679 -3.6,-1 -1.32,-0.322 -3.66,-0.894 -5.2,-1.273 -3.137,-0.772 -15.864,-1.145 -20.8,-0.61 m 20.692,4.253 c 10.001,1.915 20.308,5.291 20.308,6.653 0,0.173 0.287,0.314 0.637,0.314 0.35,0 1.049,0.315 1.554,0.7 0.504,0.385 1.313,0.97 1.798,1.3 2.601,1.77 10.91,8.649 12.611,10.441 2.779,2.926 5.4,5.9 5.4,6.127 0,0.146 0.189,0.483 0.42,0.749 1.052,1.21 4.764,6.519 4.772,6.823 0.009,0.369 0.671,1.931 2.399,5.66 4.297,9.274 5.564,24.951 3.053,37.8 -1.055,5.402 -1.744,8.024 -2.206,8.4 -0.32,0.261 -1.774,3.868 -2.982,7.4 -1.012,2.959 -2.255,5.393 -2.756,5.397 -0.165,0.002 -0.3,0.254 -0.3,0.56 0,0.307 -0.225,0.647 -0.5,0.756 -0.275,0.11 -0.855,0.894 -1.289,1.743 -0.785,1.535 -2.56,4.158 -3.077,4.548 -0.149,0.112 -0.394,0.697 -0.546,1.3 -0.151,0.603 -0.435,1.096 -0.631,1.096 -0.197,0 -0.357,0.255 -0.357,0.568 0,0.685 -1.155,2.904 -2.041,3.921 -1.215,1.394 -4.359,8.247 -4.359,9.501 0,0.42 -0.175,0.871 -0.389,1.003 -0.737,0.456 -1.872,3.616 -2.387,6.649 -0.723,4.254 0.004,12.701 1.125,13.074 0.248,0.083 0.451,0.312 0.451,0.51 0,0.784 3.382,5.824 4.943,7.367 1.98,1.956 3.857,4.236 3.857,4.684 0,0.178 0.17,0.323 0.377,0.323 0.444,0 12.423,11.713 12.423,12.147 0,0.163 0.545,0.872 1.211,1.575 1.107,1.168 2.059,2.867 3.406,6.078 1.48,3.528 2.316,10.195 3.008,24 0.243,4.84 0.696,9.816 1.008,11.058 0.312,1.241 0.566,2.951 0.564,3.8 -0.007,4.34 2.44,13.379 4.061,15 0.408,0.408 0.742,0.853 0.742,0.99 0,1.68 5.518,8.066 11.4,13.195 1.54,1.342 3.88,3.509 5.2,4.815 1.32,1.305 3.589,3.308 5.042,4.449 1.454,1.142 3.06,2.684 3.569,3.427 0.509,0.743 1.404,1.673 1.989,2.066 0.585,0.393 1.468,1.306 1.963,2.029 0.496,0.723 2.732,3.185 4.969,5.471 4.654,4.756 5.868,6.143 5.868,6.703 0,0.218 0.158,0.397 0.351,0.397 0.194,0 0.581,0.554 0.862,1.23 0.28,0.677 0.987,1.712 1.571,2.3 0.585,0.589 1.393,1.7 1.796,2.47 0.404,0.77 0.878,1.67 1.055,2 0.177,0.33 0.805,1.5 1.395,2.6 0.59,1.1 1.185,2.09 1.321,2.2 0.321,0.258 1.349,2.095 2.52,4.5 0.508,1.045 1.059,1.9 1.223,1.9 0.164,0 1.029,1.575 1.922,3.5 0.893,1.925 2.312,4.85 3.154,6.5 0.841,1.65 1.93,4.44 2.419,6.2 2.376,8.54 3.454,12.679 4.221,16.2 0.36,1.65 0.909,3.916 1.222,5.035 0.312,1.119 0.568,2.482 0.568,3.028 0,0.545 0.249,1.879 0.554,2.964 2.358,8.405 1.393,17.439 -2.23,20.87 -2.61,2.471 9.246,2.269 -140.924,2.405 -161.716,0.146 -148.237,0.589 -150.999,-4.97 l -1.358,-2.732 0.009,-6.2 c 0.011,-7.597 0.874,-14.627 3.021,-24.6 0.442,-2.054 1.978,-6.706 3.499,-10.6 1.344,-3.44 2.428,-6.72 2.428,-7.348 0,-0.752 1.547,-4.014 2.914,-6.144 0.597,-0.931 1.086,-1.861 1.086,-2.068 0,-0.425 1.272,-2.934 1.643,-3.24 0.133,-0.11 1.111,-1.981 2.173,-4.157 1.063,-2.177 2.316,-4.427 2.786,-5 0.878,-1.071 3.081,-4.733 4.378,-7.277 0.402,-0.789 1.245,-1.779 1.874,-2.2 0.629,-0.421 1.144,-0.991 1.145,-1.266 0,-0.275 0.144,-0.5 0.319,-0.5 0.175,0 0.972,-0.855 1.771,-1.9 0.8,-1.045 1.827,-2.297 2.283,-2.783 0.455,-0.486 0.828,-1.03 0.828,-1.208 0,-0.295 1.512,-2.095 5.098,-6.07 0.714,-0.791 1.299,-1.574 1.3,-1.739 0.001,-0.165 0.189,-0.3 0.417,-0.3 0.228,0 1.173,-0.772 2.1,-1.715 0.927,-0.944 2.315,-2.148 3.085,-2.677 0.77,-0.529 2.21,-1.738 3.2,-2.685 0.99,-0.947 1.98,-1.73 2.2,-1.74 0.22,-0.009 1.3,-0.908 2.4,-1.996 1.1,-1.089 2.216,-1.982 2.48,-1.984 0.594,-0.004 8.52,-7.804 8.52,-8.384 0,-0.23 0.162,-0.419 0.361,-0.419 0.672,0 3.19,-4.253 4.045,-6.834 0.468,-1.411 1.017,-2.926 1.219,-3.366 1.782,-3.871 4.519,-19.384 4.976,-28.2 0.598,-11.558 2.386,-18.787 5.347,-21.625 0.359,-0.344 1.012,-1.318 1.452,-2.165 0.828,-1.594 3.169,-4.21 3.767,-4.21 0.188,0 0.627,-0.437 0.978,-0.972 0.35,-0.534 1.242,-1.569 1.982,-2.3 1.795,-1.772 8.895,-11.137 9.22,-12.161 0.141,-0.446 0.973,-1.555 1.848,-2.466 8.43,-8.773 8.156,-22.419 -0.789,-39.194 -0.614,-1.152 -1.241,-2.592 -1.394,-3.2 -0.386,-1.541 -2.696,-6.107 -3.089,-6.107 -0.178,0 -0.323,-0.324 -0.323,-0.72 0,-0.396 -0.166,-0.891 -0.368,-1.1 -0.378,-0.39 -1.846,-4.24 -2.433,-6.38 -0.433,-1.58 -1.223,-3.832 -1.639,-4.673 -0.522,-1.055 -1.818,-5.08 -2.521,-7.827 -0.351,-1.375 -0.917,-3.575 -1.256,-4.888 -2.342,-9.06 -1.842,-21.611 1.197,-30.012 0.967,-2.673 1.487,-4.208 1.897,-5.6 0.227,-0.77 0.527,-1.49 0.668,-1.6 0.14,-0.11 0.541,-0.83 0.891,-1.6 1.645,-3.623 3.771,-7.535 4.814,-8.858 0.633,-0.801 1.15,-1.574 1.15,-1.716 0,-0.905 10.797,-12.163 13.968,-14.564 1.008,-0.763 1.94,-1.551 2.072,-1.751 0.132,-0.2 0.672,-0.595 1.2,-0.879 3.798,-2.037 5.779,-3.213 5.893,-3.499 0.074,-0.183 0.389,-0.333 0.7,-0.333 0.312,0 0.567,-0.159 0.567,-0.353 0,-0.873 10.508,-3.972 17.8,-5.249 5.551,-0.971 21.158,-1.071 25.892,-0.165 M 195.2,85.039 c -0.55,0.092 -3.16,0.449 -5.8,0.794 -7.075,0.924 -10.065,1.967 -12.961,4.52 -0.529,0.466 -1.076,0.847 -1.217,0.847 -1.427,0 -5.558,5.709 -6.612,9.138 -0.158,0.515 -0.774,1.685 -1.369,2.6 -2.905,4.464 -3.921,14.876 -2.641,27.062 0.682,6.495 0.923,7.522 3.162,13.5 0.309,0.825 0.943,2.85 1.409,4.5 1.715,6.075 2.609,8.286 3.801,9.4 0.235,0.22 0.831,1.21 1.324,2.2 0.493,0.99 1.438,2.77 2.1,3.955 0.662,1.186 1.204,2.318 1.204,2.517 0,0.199 0.193,0.579 0.43,0.845 0.444,0.499 1.934,3.259 3.824,7.083 2.176,4.401 1.593,16.496 -0.981,20.366 -0.379,0.569 -1.31,2.294 -2.071,3.834 -0.761,1.54 -1.613,3.038 -1.893,3.329 -0.28,0.29 -0.509,0.691 -0.509,0.889 0,0.374 -14.587,15.182 -14.955,15.182 -0.115,0 -0.636,0.405 -1.158,0.9 -0.522,0.495 -1.475,1.358 -2.118,1.917 -1.256,1.094 -3.769,3.932 -3.769,4.259 0,0.109 -1.084,1.293 -2.41,2.63 -1.325,1.338 -2.515,2.851 -2.643,3.363 -0.129,0.512 -0.35,0.931 -0.491,0.931 -0.298,0 -1.673,2.68 -2.564,5 -1.607,4.182 -2.421,6.049 -2.879,6.6 -2.275,2.733 -2.67,6.58 -2.981,29 -0.343,24.781 0.231,22.02 -5.979,28.783 -0.799,0.87 -1.834,2.087 -2.299,2.704 -0.465,0.617 -1.635,1.685 -2.6,2.375 -0.965,0.69 -2.678,2.083 -3.807,3.096 -1.129,1.013 -3.518,2.922 -5.309,4.242 -1.79,1.32 -4.175,3.345 -5.298,4.5 -1.123,1.155 -2.289,2.1 -2.591,2.1 -0.302,0 -0.549,0.141 -0.549,0.314 0,0.172 -0.53,0.627 -1.178,1.01 C 109.021,322.387 98,332.799 98,333.437 c 0,0.1 -1.244,1.483 -2.764,3.072 -4.642,4.856 -5.596,6.194 -9.336,13.091 -0.656,1.21 -1.316,2.29 -1.467,2.4 -1.202,0.877 -2.787,8.038 -2.878,13 -0.121,6.645 1.504,9.211 6.376,10.068 4.261,0.749 202.383,0.711 208.069,-0.04 4.782,-0.632 6.096,-1.582 7.375,-5.337 1.387,-4.069 -0.027,-13.019 -2.826,-17.891 -0.632,-1.1 -1.771,-3.26 -2.532,-4.8 -1.633,-3.306 -3.015,-5.21 -6.855,-9.442 -1.564,-1.724 -3.32,-3.763 -3.903,-4.532 -0.582,-0.768 -1.284,-1.403 -1.559,-1.411 -0.275,-0.008 -0.5,-0.226 -0.5,-0.484 0,-0.481 -2.865,-3.301 -6.228,-6.131 -1.046,-0.88 -2.13,-1.825 -2.409,-2.1 -0.278,-0.275 -0.704,-0.5 -0.947,-0.5 -0.243,0 -0.545,-0.27 -0.671,-0.6 -0.127,-0.33 -0.481,-0.6 -0.788,-0.6 -0.306,0 -0.557,-0.168 -0.557,-0.373 0,-0.205 -0.374,-0.492 -0.832,-0.637 -0.458,-0.145 -1.72,-1.148 -2.805,-2.227 -1.086,-1.08 -2.151,-1.963 -2.368,-1.963 -0.217,0 -0.395,-0.15 -0.395,-0.333 0,-0.303 -2.93,-2.583 -5.226,-4.067 -0.511,-0.33 -1.802,-1.455 -2.87,-2.5 -1.068,-1.045 -2.129,-1.9 -2.357,-1.9 -0.628,0 -9.426,-9.303 -10.542,-11.147 -1.187,-1.96 -1.456,-6.204 -1.63,-25.653 -0.191,-21.45 -0.316,-22.925 -2.23,-26.4 -1.233,-2.24 -2.776,-5.772 -4.138,-9.475 -0.582,-1.581 -1.181,-2.931 -1.332,-3 -0.151,-0.069 -0.634,-0.845 -1.073,-1.725 -0.44,-0.88 -1.459,-2.32 -2.267,-3.2 -0.807,-0.88 -2.248,-2.587 -3.201,-3.793 -1.903,-2.406 -3.018,-3.607 -3.349,-3.607 -0.66,0 -11.096,-11.177 -11.807,-12.645 -0.46,-0.95 -1.275,-2.138 -1.812,-2.641 -0.895,-0.837 -1.856,-2.56 -3.186,-5.714 -4.819,-11.423 -3.966,-22.549 2.453,-31.997 1.573,-2.314 2.468,-4.046 3.993,-7.722 0.392,-0.945 0.924,-1.845 1.182,-2 1.187,-0.711 6.992,-10.884 6.992,-12.252 0,-0.188 0.379,-1.171 0.843,-2.185 1.765,-3.86 1.948,-4.276 2.393,-5.444 3.158,-8.291 2.472,-28.717 -1.189,-35.4 -0.181,-0.33 -0.76,-1.472 -1.288,-2.539 -1.714,-3.466 -9.063,-10.036 -12.734,-11.385 -3.07,-1.128 -15.114,-2.657 -17.625,-2.237 m 13.382,3.434 c 3.575,0.924 4.212,1.223 6.259,2.927 0.793,0.66 2.129,1.74 2.968,2.4 0.839,0.66 1.845,1.56 2.235,2 1.931,2.179 2.72,3.194 3.079,3.961 0.216,0.461 0.947,2.009 1.624,3.439 2.777,5.866 3.039,7.333 2.985,16.686 -0.05,8.784 -0.263,10.274 -2.125,14.914 -0.397,0.99 -1.033,2.61 -1.412,3.6 -2.6,6.777 -3.884,9.473 -6.039,12.681 -0.916,1.364 -2.062,3.344 -2.545,4.4 -2.258,4.928 -2.799,5.975 -3.48,6.734 -0.9,1.004 -2.29,2.979 -2.662,3.785 -0.153,0.33 -0.627,1.14 -1.055,1.8 -6.877,10.625 -4.867,28.915 4.386,39.91 0.987,1.174 3.2,4.262 3.2,4.466 0,0.25 1.661,1.886 6.052,5.959 5.172,4.799 6.748,6.359 6.748,6.682 0,0.173 0.36,0.735 0.799,1.249 2.382,2.784 2.941,3.505 4.136,5.334 1.174,1.797 4.276,8.392 4.268,9.072 -0.002,0.15 0.506,1.41 1.129,2.8 3.17,7.08 3.265,7.85 3.28,26.605 0.013,15.41 0.399,24.226 1.12,25.572 0.221,0.413 0.892,1.741 1.491,2.951 0.598,1.21 1.783,2.875 2.633,3.7 0.849,0.824 1.544,1.581 1.544,1.681 0,0.349 2.039,2.219 2.418,2.219 0.21,0 0.382,0.152 0.382,0.338 0,0.186 1.139,1.174 2.531,2.196 1.392,1.022 3.179,2.58 3.971,3.462 0.792,0.882 1.633,1.604 1.869,1.604 0.236,0 0.429,0.161 0.429,0.358 0,0.197 0.855,0.911 1.9,1.586 1.045,0.674 2.62,1.922 3.5,2.772 0.88,0.85 2.23,1.892 3,2.315 3.557,1.954 16.226,13.699 19.428,18.011 0.636,0.857 1.548,1.939 2.027,2.404 1.174,1.142 4.586,6.041 5.408,7.764 0.364,0.765 1.237,2.65 1.94,4.19 0.703,1.54 1.608,3.52 2.01,4.4 1.45,3.169 2.328,10.619 1.348,11.433 -0.309,0.256 -0.561,0.7 -0.561,0.987 0,0.972 -4.11,2.457 -8.103,2.928 -4.588,0.541 -193.673,0.62 -200.097,0.083 -5.71,-0.477 -7.041,-0.957 -8.251,-2.973 -1.456,-2.425 -0.951,-8.893 1.098,-14.058 0.087,-0.22 0.611,-1.12 1.164,-2 0.553,-0.88 1.11,-1.87 1.236,-2.2 0.544,-1.417 1.589,-3.426 2.027,-3.896 0.26,-0.28 0.588,-0.868 0.727,-1.306 0.139,-0.439 0.421,-0.798 0.626,-0.798 0.205,0 0.373,-0.226 0.373,-0.503 0,-0.277 0.945,-1.586 2.1,-2.91 1.155,-1.324 2.37,-2.727 2.7,-3.117 0.691,-0.816 7.541,-8.03 8.893,-9.365 5.179,-5.114 9.074,-8.505 9.768,-8.505 0.189,0 1.514,-1.004 2.942,-2.232 4.265,-3.666 4.872,-4.168 5.034,-4.168 0.285,0 1.911,-1.385 4.577,-3.9 1.458,-1.375 2.866,-2.5 3.131,-2.5 0.264,0 0.584,-0.27 0.71,-0.6 0.127,-0.33 0.412,-0.6 0.634,-0.6 0.222,0 1.688,-1.333 3.257,-2.962 7.291,-7.569 7.099,-6.719 7.441,-33.038 0.287,-22.115 0.11,-20.676 3.345,-27.132 0.368,-0.733 0.668,-1.568 0.668,-1.855 0,-0.287 0.269,-1.037 0.598,-1.667 0.328,-0.63 0.609,-1.416 0.622,-1.746 0.014,-0.33 0.545,-1.5 1.18,-2.6 0.634,-1.1 1.525,-2.67 1.979,-3.489 0.454,-0.818 1.365,-2.039 2.023,-2.713 0.659,-0.674 1.198,-1.292 1.198,-1.373 0,-0.757 10.264,-11.025 11.02,-11.025 0.223,0 5.78,-5.54 5.78,-5.762 0,-0.134 1.411,-1.638 3.136,-3.341 3.23,-3.19 5.664,-6.114 5.664,-6.806 0,-0.216 0.258,-0.607 0.574,-0.869 0.716,-0.595 2.792,-4.552 3.724,-7.101 0.918,-2.512 1.044,-18.634 0.163,-20.921 -0.613,-1.591 -2.086,-4.5 -2.431,-4.8 -0.389,-0.338 -3.706,-6.296 -4.442,-7.978 -0.235,-0.538 -1.463,-2.518 -2.727,-4.4 -2.315,-3.445 -3.124,-5.473 -4.237,-10.622 -1.392,-6.438 -2.216,-10.171 -2.871,-13 -1.04,-4.49 -1.049,-18.44 -0.014,-21.8 4.039,-13.109 3.951,-12.946 9.106,-16.86 4.294,-3.26 5.555,-3.96 8.7,-4.833 5.326,-1.478 17.385,-1.495 23.037,-0.034"
     stroke="none"
     fill="#7c7c7c"
     fill-rule="evenodd" />
  <path
     id="path4"
     d="m 185,42.609 c -6.593,0.646 -11.554,1.939 -13.226,3.446 -0.454,0.41 -1.036,0.745 -1.294,0.745 -1.558,0 -11.009,3.638 -11.496,4.425 -0.127,0.206 -0.581,0.375 -1.008,0.375 -0.427,0 -0.776,0.168 -0.776,0.373 0,0.205 -0.315,0.48 -0.7,0.612 -0.385,0.131 -1.69,1.132 -2.9,2.226 -1.21,1.093 -2.34,1.988 -2.51,1.988 -0.461,10e-4 -4.29,2.923 -4.29,3.273 0,0.39 -2.734,3.128 -3.124,3.128 -0.314,0 -1.243,1.017 -3.876,4.241 -0.879,1.077 -2.274,2.641 -3.1,3.474 -0.825,0.834 -1.5,1.695 -1.5,1.913 0,0.218 -0.27,0.501 -0.6,0.627 -0.33,0.127 -0.6,0.481 -0.6,0.788 0,0.306 -0.143,0.557 -0.319,0.557 -0.307,0 -3.681,6.367 -3.681,6.947 0,0.376 -1.715,2.815 -2.1,2.986 -0.165,0.074 -0.3,0.468 -0.3,0.877 0,0.408 -0.155,0.839 -0.344,0.956 -0.497,0.307 -2.456,5.984 -2.456,7.117 0,0.526 -0.167,1.128 -0.372,1.337 -3.239,3.309 -4.168,26.32 -1.414,35.034 0.322,1.019 0.592,2.189 0.599,2.6 0.007,0.41 0.277,1.095 0.6,1.522 0.323,0.428 0.589,1.238 0.592,1.8 0.01,2.074 2.939,10.111 4.112,11.284 0.335,0.335 0.791,1.224 1.013,1.975 1.075,3.634 2.206,6.387 5.329,12.972 0.627,1.323 1.141,2.551 1.141,2.728 0,0.176 0.514,1.073 1.143,1.993 1.364,1.995 2.857,5.287 2.857,6.299 0,0.399 0.166,0.828 0.369,0.954 0.203,0.125 0.485,0.754 0.626,1.396 0.141,0.642 0.515,1.382 0.831,1.644 0.316,0.262 0.574,0.816 0.574,1.229 0,0.414 0.36,1.425 0.8,2.246 0.996,1.858 1.145,6.92 0.226,7.682 -0.731,0.607 -2.226,3.459 -2.226,4.247 0,0.33 -0.27,0.704 -0.6,0.83 -0.33,0.127 -0.6,0.482 -0.6,0.789 0,0.307 -0.9,1.492 -2,2.634 -1.1,1.141 -2,2.211 -2,2.378 0,0.168 -0.225,0.448 -0.501,0.624 -0.275,0.176 -0.737,0.78 -1.026,1.343 -0.289,0.562 -1.144,1.697 -1.899,2.522 -0.756,0.825 -1.374,1.753 -1.374,2.063 0,0.311 -1.17,1.74 -2.6,3.177 -1.43,1.437 -2.6,2.784 -2.6,2.994 0,0.21 -0.241,0.525 -0.535,0.701 -0.295,0.176 -0.7,0.621 -0.9,0.988 -0.201,0.368 -1.985,2.363 -3.965,4.434 -1.98,2.072 -3.915,4.426 -4.3,5.232 -0.385,0.806 -1.015,2.138 -1.4,2.96 -0.385,0.822 -0.925,1.734 -1.2,2.028 -0.275,0.295 -0.5,0.765 -0.5,1.045 0,0.281 -0.302,1.115 -0.671,1.855 -0.537,1.076 -0.774,3.63 -1.184,12.762 -0.915,20.371 -1.94,26.888 -4.97,31.616 -0.212,0.33 -0.728,1.345 -1.147,2.255 -0.886,1.928 -4.993,6.59 -7.008,7.958 -0.766,0.519 -2.178,1.764 -3.138,2.766 -0.96,1.001 -1.934,1.821 -2.165,1.821 -0.231,0 -1.575,1.125 -2.986,2.5 -1.411,1.375 -3.454,3.22 -4.54,4.1 -3.069,2.486 -10.813,10.475 -13.378,13.8 -1.273,1.65 -2.799,3.517 -3.391,4.15 -0.592,0.632 -1.497,2.102 -2.012,3.266 -0.515,1.164 -1.307,2.315 -1.761,2.558 -1.806,0.966 -8.449,10.883 -8.449,12.613 0,0.261 -0.405,0.855 -0.9,1.322 -0.794,0.748 -1.506,1.974 -3.307,5.691 -0.266,0.55 -0.613,1.538 -0.77,2.196 -0.158,0.658 -0.407,1.288 -0.555,1.4 -0.75,0.57 -4.468,8.058 -4.468,8.998 0,0.318 -0.253,1.17 -0.563,1.892 -0.309,0.723 -0.834,2.394 -1.164,3.714 -0.331,1.32 -0.963,3.84 -1.403,5.6 -0.441,1.76 -1.103,4.73 -1.471,6.6 -0.368,1.87 -0.924,3.991 -1.234,4.714 -0.311,0.722 -0.565,1.606 -0.565,1.964 0,0.359 -0.256,1.568 -0.569,2.687 -1.289,4.605 -1.848,10.383 -1.839,19.007 0.013,13.894 0.985,15.582 10.608,18.415 l 2.8,0.824 144.2,-0.106 c 140.29,-0.103 144.271,-0.126 146.8,-0.865 4.195,-1.226 7.475,-3.879 8.744,-7.071 2.29,-5.768 1.394,-21.018 -1.736,-29.533 -0.356,-0.97 -0.913,-3.537 -1.237,-5.703 -0.776,-5.19 -1.626,-8.418 -2.795,-10.617 -0.892,-1.678 -1.8,-4.405 -3.233,-9.716 -1.184,-4.39 -1.945,-6.594 -3.032,-8.775 -0.609,-1.224 -1.109,-2.45 -1.109,-2.725 -0.001,-0.275 -0.152,-0.5 -0.334,-0.5 -0.183,0 -0.588,-0.495 -0.9,-1.1 -0.313,-0.605 -1.063,-1.545 -1.668,-2.089 -0.605,-0.544 -1.1,-1.313 -1.1,-1.708 0,-1.135 -2.49,-5.994 -3.666,-7.157 -0.587,-0.579 -1.547,-2.019 -2.135,-3.2 -1.786,-3.589 -2.031,-3.944 -4.558,-6.597 -1.342,-1.41 -2.444,-2.696 -2.448,-2.856 -0.004,-0.161 -0.481,-0.743 -1.061,-1.293 -0.58,-0.55 -1.295,-1.575 -1.589,-2.277 -0.294,-0.702 -1.525,-2.322 -2.736,-3.6 -1.211,-1.278 -2.203,-2.424 -2.204,-2.548 -0.003,-0.222 -4.231,-4.818 -6.232,-6.775 -3.992,-3.903 -5.051,-4.84 -6.517,-5.766 -0.91,-0.574 -1.654,-1.222 -1.654,-1.439 0,-0.4 -1.119,-1.528 -5.674,-5.719 -1.389,-1.279 -3.246,-2.99 -4.126,-3.803 -0.88,-0.813 -2.137,-1.823 -2.792,-2.245 -1.324,-0.852 -2.573,-2.213 -2.596,-2.828 -0.008,-0.22 -0.554,-1.48 -1.212,-2.8 -0.658,-1.32 -1.198,-2.621 -1.198,-2.89 -10e-4,-0.27 -0.361,-1.08 -0.801,-1.8 -0.439,-0.721 -0.799,-1.793 -0.8,-2.384 0,-0.591 -0.199,-1.581 -0.441,-2.2 -0.243,-0.619 -0.604,-2.206 -0.804,-3.526 -0.2,-1.32 -0.529,-3.39 -0.731,-4.6 -0.201,-1.21 -0.383,-5.62 -0.403,-9.8 -0.035,-7.328 -0.37,-11.952 -1.202,-16.6 -0.216,-1.21 -0.746,-4.18 -1.178,-6.6 -0.89,-4.99 -1.517,-6.716 -3.032,-8.352 -0.583,-0.629 -1.473,-1.797 -1.978,-2.596 -1.287,-2.037 -6.187,-7.003 -7.663,-7.765 -0.677,-0.35 -1.641,-1.234 -2.142,-1.965 -0.5,-0.731 -1.714,-1.867 -2.697,-2.525 -0.983,-0.659 -2.068,-1.737 -2.412,-2.397 -0.344,-0.66 -2.368,-2.91 -4.499,-5 -3.215,-3.155 -3.962,-4.122 -4.396,-5.695 -0.719,-2.6 -0.411,-10.459 0.473,-12.105 0.355,-0.66 1.114,-2.1 1.686,-3.2 0.573,-1.1 1.669,-3.08 2.435,-4.4 0.766,-1.32 1.855,-3.39 2.419,-4.6 1.736,-3.722 2.579,-5.167 3.781,-6.483 0.636,-0.696 1.747,-2.447 2.468,-3.891 0.722,-1.444 2.168,-3.908 3.214,-5.474 1.045,-1.567 1.901,-2.951 1.901,-3.076 0,-0.126 0.81,-1.95 1.8,-4.054 0.99,-2.105 1.8,-4.128 1.8,-4.496 0,-0.368 0.35,-1.852 0.778,-3.298 5.214,-17.613 5.257,-28.157 0.175,-43.228 -0.334,-0.99 -0.751,-2.364 -0.927,-3.054 -0.289,-1.13 -3.059,-6.913 -4.469,-9.329 -0.306,-0.525 -1.142,-1.482 -1.857,-2.127 -0.715,-0.645 -1.3,-1.415 -1.3,-1.711 0,-0.872 -2.234,-3.888 -3.775,-5.096 -0.784,-0.614 -1.425,-1.38 -1.425,-1.702 0,-0.321 -1.491,-2.069 -3.313,-3.883 -6.063,-6.035 -8.792,-8.298 -10.008,-8.298 -0.487,0 -1.879,-1.368 -1.879,-1.847 0,-1.401 -8.396,-5.72 -15.1,-7.768 -1.595,-0.487 -2.9,-1.039 -2.9,-1.228 0,-0.188 -0.495,-0.46 -1.1,-0.605 -0.605,-0.144 -1.28,-0.398 -1.5,-0.564 -2.983,-2.251 -21.951,-3.438 -34.8,-2.179 m 23,3.429 c 2.53,0.465 5.191,1.097 5.914,1.404 0.722,0.307 1.663,0.558 2.091,0.558 0.429,0 1.457,0.244 2.287,0.542 0.829,0.298 2.588,0.868 3.908,1.266 1.32,0.397 2.94,0.942 3.6,1.21 0.66,0.267 2.19,0.889 3.4,1.382 1.21,0.492 2.92,1.383 3.8,1.981 6.304,4.278 8.511,5.868 9.281,6.684 0.484,0.514 1.006,0.935 1.159,0.935 0.154,0 0.864,0.585 1.578,1.3 0.715,0.715 2.308,2.257 3.541,3.426 1.232,1.169 2.241,2.193 2.241,2.274 0,0.21 3.119,3.65 4.862,5.363 0.804,0.79 2.531,3.507 3.839,6.037 1.307,2.53 2.949,5.648 3.648,6.928 0.699,1.28 1.632,3.44 2.072,4.8 0.441,1.36 0.996,3.08 1.235,3.824 2.091,6.519 2.849,21.649 1.392,27.773 -0.356,1.498 -0.648,3.193 -0.648,3.765 0,1.005 -0.416,2.609 -2.103,8.11 -0.672,2.19 -2.575,6.518 -3.869,8.8 -0.187,0.33 -0.616,1.23 -0.953,2 -1.991,4.543 -3.386,7.191 -4.554,8.641 -0.726,0.903 -1.321,1.848 -1.321,2.1 0,0.253 -0.142,0.459 -0.316,0.459 -0.174,0 -0.814,0.945 -1.421,2.1 -0.608,1.155 -1.549,2.82 -2.091,3.7 -0.542,0.88 -1.165,1.96 -1.385,2.4 -0.219,0.44 -0.751,1.34 -1.181,2 -1.334,2.048 -3.262,6.247 -3.844,8.371 -3.494,12.755 -1.342,18.397 11.458,30.05 2.037,1.854 11.221,11.419 12.9,13.434 3.617,4.341 4.598,9.926 5.053,28.745 0.178,7.37 0.432,13.67 0.564,14 0.132,0.33 0.423,2.107 0.647,3.948 0.223,1.842 0.678,3.895 1.011,4.562 0.333,0.667 0.605,1.368 0.605,1.557 0,0.19 0.838,2.097 1.863,4.239 2.687,5.617 5.068,8.355 14.137,16.261 6.337,5.525 22.184,21.488 23.901,24.078 0.275,0.415 0.669,1.141 0.874,1.613 0.205,0.471 1.434,2.001 2.73,3.4 1.297,1.398 2.478,2.812 2.624,3.142 0.301,0.679 0.74,1.377 2.519,4.003 0.687,1.013 1.374,2.237 1.527,2.72 0.154,0.482 0.447,0.877 0.652,0.877 0.205,0 0.373,0.194 0.373,0.432 0,0.238 0.612,1.363 1.361,2.5 0.748,1.137 1.938,3.238 2.643,4.668 0.705,1.43 1.475,2.96 1.71,3.4 3.34,6.237 4.544,9.15 6.533,15.8 0.362,1.21 0.886,2.92 1.163,3.8 0.278,0.88 0.818,2.68 1.2,4 0.381,1.32 0.854,2.821 1.049,3.335 0.615,1.616 2.043,6.987 2.357,8.865 0.166,0.99 0.492,2.88 0.726,4.2 2.375,13.423 2.061,21.631 -1.001,26.1 -0.791,1.155 -1.642,2.101 -1.89,2.102 -0.248,0.002 -0.91,0.243 -1.471,0.535 -0.561,0.293 -2.631,0.84 -4.6,1.215 -4.977,0.948 -284.611,0.837 -286.98,-0.114 -3.575,-1.436 -6,-2.995 -6,-3.859 0,-0.098 -0.35,-0.529 -0.778,-0.957 -1.983,-1.983 -2.724,-11.473 -1.454,-18.622 0.313,-1.76 0.945,-5.45 1.406,-8.2 1.459,-8.714 2.377,-12.684 5.082,-22 0.351,-1.21 1.001,-3.01 1.444,-4 1.183,-2.641 1.746,-3.987 2.508,-6 0.375,-0.99 0.955,-2.52 1.287,-3.4 0.937,-2.476 1.79,-4.17 3.205,-6.365 0.715,-1.109 1.3,-2.233 1.3,-2.497 0,-0.265 0.225,-0.719 0.5,-1.009 0.275,-0.291 0.95,-1.399 1.5,-2.463 1.74,-3.365 4.711,-7.866 5.192,-7.866 0.173,0 0.429,-0.315 0.568,-0.7 0.485,-1.343 3.148,-5.191 5.878,-8.496 0.452,-0.548 1.476,-1.853 2.274,-2.9 0.799,-1.047 1.595,-1.904 1.77,-1.904 0.175,0 0.318,-0.276 0.318,-0.613 0,-0.336 0.27,-0.716 0.6,-0.842 0.33,-0.127 0.6,-0.385 0.6,-0.574 0,-0.446 2.722,-3.171 3.167,-3.171 0.188,0 0.664,-0.495 1.059,-1.1 0.755,-1.156 4.263,-4.695 6.598,-6.656 2.154,-1.809 7.302,-6.167 8.076,-6.838 0.385,-0.333 0.775,-0.606 0.867,-0.606 0.943,0 11.033,-10.279 11.033,-11.239 0,-0.198 0.142,-0.361 0.316,-0.361 1.089,0 2.889,-5.272 4.028,-11.8 1.52,-8.711 2.045,-13.631 3.076,-28.8 0.261,-3.845 1.088,-7.73 2.013,-9.462 0.312,-0.584 0.567,-1.315 0.567,-1.624 0,-0.31 0.317,-0.912 0.704,-1.339 0.387,-0.426 1.152,-1.63 1.699,-2.675 0.548,-1.045 1.131,-1.9 1.296,-1.9 0.166,0 0.301,-0.184 0.301,-0.409 0,-0.225 0.868,-1.26 1.929,-2.3 1.061,-1.04 2.532,-2.701 3.27,-3.691 0.738,-0.99 1.94,-2.356 2.671,-3.035 0.732,-0.68 1.33,-1.445 1.33,-1.7 0,-0.256 0.145,-0.465 0.323,-0.465 0.177,0 1.205,-1.202 2.283,-2.67 1.079,-1.469 2.913,-3.762 4.077,-5.097 1.165,-1.335 2.117,-2.653 2.117,-2.93 0,-0.277 0.135,-0.506 0.3,-0.511 0.165,-0.004 0.84,-0.9 1.5,-1.992 0.66,-1.092 1.317,-1.988 1.46,-1.992 1.634,-0.048 3.323,-6.366 3.29,-12.308 -0.032,-5.801 -0.348,-6.938 -3.64,-13.1 -0.236,-0.44 -0.738,-1.61 -1.117,-2.6 -1.119,-2.924 -1.259,-3.255 -2.792,-6.584 -0.807,-1.752 -1.78,-3.642 -2.163,-4.2 -0.383,-0.559 -1.098,-2.006 -1.588,-3.216 -0.491,-1.21 -1.063,-2.605 -1.271,-3.1 -0.209,-0.495 -0.549,-1.305 -0.758,-1.8 -0.208,-0.495 -0.759,-1.89 -1.225,-3.1 -0.466,-1.21 -1.181,-2.92 -1.589,-3.8 -1.955,-4.216 -2.832,-6.791 -3.25,-9.537 -0.196,-1.286 -0.452,-2.493 -0.569,-2.683 -0.117,-0.189 -0.469,-3.727 -0.781,-7.862 -1.052,-13.912 0.49,-27 3.859,-32.777 0.495,-0.848 1.771,-3.251 2.836,-5.341 2.401,-4.712 4.367,-8 4.783,-8 0.173,0 0.315,-0.174 0.315,-0.387 0,-0.212 0.585,-0.989 1.3,-1.725 0.715,-0.736 2.065,-2.253 3,-3.371 2.967,-3.549 10.831,-11.317 11.456,-11.317 0.301,0 3.979,-2.451 4.444,-2.961 0.552,-0.606 3.102,-2.036 6.2,-3.479 4.285,-1.994 5.195,-2.359 5.914,-2.373 0.377,-0.007 1.035,-0.277 1.462,-0.6 0.428,-0.323 1.148,-0.586 1.6,-0.585 0.453,0.001 1.634,-0.257 2.624,-0.574 10.575,-3.381 22.469,-4.344 32,-2.59 m -17.8,42.154 c -4.514,0.708 -7.191,1.616 -9.058,3.072 -0.801,0.625 -1.564,1.136 -1.695,1.136 -0.258,0 -1.53,0.987 -2.707,2.1 -0.407,0.385 -0.926,0.7 -1.153,0.7 -0.226,0 -0.516,0.27 -0.642,0.6 -0.127,0.33 -0.441,0.6 -0.698,0.6 -0.593,0 -2.61,3.075 -2.887,4.4 -0.115,0.55 -0.468,1.591 -0.784,2.314 -0.317,0.722 -0.576,1.741 -0.576,2.264 0,0.523 -0.34,1.912 -0.755,3.086 -2.225,6.288 -2.175,16.446 0.133,27.386 1.561,7.403 1.832,8.789 1.827,9.364 -0.016,1.975 2.928,8.638 4.413,9.986 0.265,0.241 1.735,2.8 3.792,6.6 2.063,3.815 2.264,4.168 3.416,6 2.942,4.679 3.846,11.846 2.742,21.732 -0.836,7.475 -3.554,12.273 -11.732,20.708 -2.325,2.398 -4.23,4.495 -4.232,4.66 -0.002,0.165 -0.188,0.3 -0.413,0.3 -0.225,0 -1.26,0.868 -2.3,1.929 -1.04,1.061 -2.701,2.539 -3.691,3.286 -2.243,1.691 -4.152,3.601 -6.18,6.185 -0.864,1.1 -1.851,2.289 -2.195,2.643 -2.219,2.282 -5.415,7.289 -5.815,9.11 -0.149,0.681 -0.438,1.341 -0.641,1.466 -0.203,0.126 -0.369,0.633 -0.369,1.128 0,0.495 -0.264,1.249 -0.587,1.677 -0.323,0.427 -0.594,1.046 -0.603,1.376 -0.008,0.33 -0.284,1.116 -0.612,1.746 -0.329,0.63 -0.598,1.401 -0.598,1.714 0,0.312 -0.278,0.992 -0.617,1.51 -1.211,1.848 -1.46,5.48 -1.745,25.43 -0.192,13.464 -0.436,20.467 -0.73,21 -0.243,0.44 -0.931,1.79 -1.529,3 -0.597,1.21 -1.512,2.596 -2.033,3.081 -0.52,0.484 -0.946,0.952 -0.946,1.038 0,0.341 -4.474,4.681 -4.826,4.681 -0.206,0 -0.374,0.156 -0.374,0.347 0,0.191 -0.675,0.795 -1.5,1.342 -0.825,0.547 -2.31,1.79 -3.3,2.762 -0.99,0.972 -2.97,2.648 -4.4,3.726 -1.43,1.077 -3.107,2.459 -3.727,3.07 -1.296,1.278 -5.22,3.953 -5.798,3.953 -0.214,0 -0.493,0.27 -0.62,0.6 -0.126,0.33 -0.506,0.6 -0.842,0.6 -0.337,0 -0.613,0.174 -0.613,0.386 0,0.404 -0.811,1.258 -4.426,4.66 -1.196,1.125 -3.174,3.115 -4.395,4.422 -1.222,1.307 -2.575,2.636 -3.008,2.954 -0.433,0.318 -1.361,1.315 -2.063,2.216 -0.703,0.901 -2.184,2.604 -3.293,3.785 -1.108,1.181 -2.015,2.276 -2.015,2.433 0,0.158 -0.225,0.532 -0.5,0.832 -0.811,0.886 -1.361,1.865 -3.768,6.712 -1.256,2.53 -2.431,4.702 -2.611,4.826 -0.643,0.443 -1.602,4.629 -1.8,7.861 -0.226,3.669 0.707,6.113 2.331,6.113 0.433,0 1.364,0.315 2.068,0.7 1.466,0.802 199.408,1.33 204.52,0.546 1.342,-0.206 3.637,-0.934 5.1,-1.618 l 2.66,-1.244 v -4.048 c 0,-3.155 -0.17,-4.411 -0.768,-5.692 -0.423,-0.904 -1.158,-2.544 -1.635,-3.644 -0.477,-1.1 -1.287,-2.9 -1.799,-4 -0.513,-1.1 -1.05,-2.405 -1.192,-2.9 -0.143,-0.495 -0.428,-0.9 -0.633,-0.9 -0.205,0 -0.373,-0.242 -0.373,-0.538 0,-0.296 -0.36,-0.864 -0.8,-1.262 -0.44,-0.398 -0.802,-0.921 -0.804,-1.162 -10e-4,-0.241 -0.987,-1.518 -2.19,-2.838 -1.203,-1.32 -2.191,-2.551 -2.197,-2.736 -0.008,-0.287 -7.528,-7.838 -14.209,-14.268 -1.1,-1.059 -3.26,-2.686 -4.8,-3.617 -1.54,-0.932 -3.25,-2.145 -3.8,-2.698 -0.55,-0.553 -1.99,-1.744 -3.2,-2.647 -2.558,-1.91 -3.943,-3.086 -5.951,-5.054 -0.797,-0.781 -2.259,-2.034 -3.249,-2.784 -10.514,-7.967 -11.217,-10.2 -11.443,-36.396 -0.136,-15.744 -0.273,-19.411 -0.802,-21.4 -0.819,-3.079 -1.962,-6.123 -3.68,-9.8 -0.463,-0.99 -0.959,-2.297 -1.103,-2.904 -0.143,-0.607 -0.421,-1.202 -0.616,-1.323 -0.196,-0.121 -0.356,-0.47 -0.356,-0.775 0,-0.702 -2.428,-4.813 -3.779,-6.398 -0.562,-0.66 -1.382,-1.62 -1.822,-2.134 -0.439,-0.514 -0.799,-1.016 -0.799,-1.117 0,-0.381 -1.078,-1.581 -3.351,-3.728 -1.293,-1.221 -3.533,-3.346 -4.978,-4.721 -1.445,-1.375 -2.772,-2.5 -2.949,-2.5 -0.177,0 -0.322,-0.137 -0.322,-0.304 0,-0.167 -0.405,-0.752 -0.9,-1.3 -0.495,-0.548 -1.44,-1.806 -2.1,-2.796 -0.66,-0.99 -1.609,-2.25 -2.11,-2.8 -0.5,-0.55 -1.4,-1.72 -1.999,-2.6 -0.599,-0.88 -1.179,-1.69 -1.29,-1.8 -0.111,-0.11 -0.618,-1.1 -1.126,-2.2 -0.509,-1.1 -1.109,-2.337 -1.334,-2.749 -2.137,-3.915 -3.481,-16.573 -2.309,-21.745 0.891,-3.931 1.778,-6.368 3.054,-8.387 0.723,-1.144 1.314,-2.17 1.314,-2.28 0,-0.357 2.528,-4.017 3.392,-4.911 0.464,-0.479 1.043,-1.289 1.288,-1.8 0.245,-0.51 1.119,-2.368 1.943,-4.128 0.824,-1.76 1.875,-3.737 2.337,-4.394 0.972,-1.383 1.361,-2.066 2.734,-4.806 0.937,-1.871 1.404,-2.996 2.906,-7 0.33,-0.88 0.855,-2.275 1.166,-3.1 3.915,-10.381 4.475,-21.914 1.369,-28.184 -0.404,-0.816 -0.735,-1.779 -0.735,-2.138 0,-0.36 -0.254,-1.132 -0.565,-1.716 -0.311,-0.584 -0.954,-1.943 -1.429,-3.02 -0.476,-1.077 -1.117,-2.21 -1.426,-2.519 -0.309,-0.309 -0.791,-0.876 -1.071,-1.259 -1.51,-2.067 -8.222,-7.102 -10.309,-7.734 -5.958,-1.803 -13.562,-2.317 -19.8,-1.338 m 14.2,2.408 c 0.274,0.33 0.763,0.6 1.087,0.6 0.64,0 2.548,0.985 4.067,2.1 0.525,0.385 1.215,0.7 1.534,0.7 0.319,0 1.611,0.81 2.871,1.8 1.26,0.99 2.425,1.8 2.588,1.8 0.619,0 2.514,2.463 3.002,3.902 0.28,0.824 0.744,2.038 1.031,2.698 3.851,8.852 3.85,22.929 -0.004,31.714 -0.317,0.722 -0.576,1.625 -0.576,2.005 0,0.381 -0.36,1.365 -0.8,2.185 -0.44,0.821 -0.8,1.816 -0.8,2.21 0,0.762 -1.37,3.677 -1.908,4.059 -0.284,0.201 -1.754,3.127 -3.631,7.227 -0.352,0.77 -1.199,2.12 -1.881,3 -2.18,2.811 -6.01,8.74 -6.849,10.6 -3.278,7.267 -3.319,7.396 -3.674,11.593 -0.546,6.463 0.143,13.887 1.589,17.109 0.635,1.415 1.154,2.82 1.154,3.122 0,1.051 2.6,6.524 3.417,7.193 0.28,0.23 0.904,1.175 1.387,2.1 0.482,0.926 1.039,1.683 1.236,1.683 0.198,0 0.36,0.142 0.36,0.317 0,0.565 7.478,8.567 10.604,11.347 0.658,0.585 2.546,2.54 4.196,4.344 1.65,1.804 3.315,3.62 3.7,4.036 0.385,0.416 0.7,0.854 0.7,0.973 0,0.268 0.594,1.011 2.4,2.998 1.072,1.181 1.707,2.552 2.711,5.863 0.721,2.377 1.551,4.862 1.844,5.522 0.656,1.476 1.452,4.539 1.871,7.2 0.174,1.1 0.329,9.856 0.345,19.457 0.033,19.682 0.554,24.458 2.875,26.343 0.136,0.11 0.719,1.203 1.296,2.43 0.984,2.09 6.824,8.755 7.695,8.781 0.2,0.006 0.799,0.599 1.332,1.318 0.532,0.718 1.972,2.067 3.2,2.997 1.227,0.93 3.131,2.397 4.231,3.26 1.1,0.863 2.18,1.579 2.4,1.592 0.22,0.012 0.867,0.608 1.438,1.323 0.571,0.716 2.077,1.841 3.347,2.5 1.27,0.659 3.953,2.728 5.962,4.597 4.409,4.102 14.649,14.495 14.651,14.871 10e-4,0.148 1.071,1.408 2.378,2.8 1.306,1.392 2.768,3.431 3.248,4.531 0.479,1.1 1.21,2.74 1.624,3.644 0.414,0.904 0.752,1.861 0.752,2.126 0,0.265 0.222,0.876 0.494,1.356 1.256,2.225 2.139,7.325 1.735,10.023 l -0.256,1.704 -3.486,0.694 c -4.832,0.961 -200.865,0.819 -203.345,-0.148 -3.023,-1.179 -2.295,-6.177 2.402,-16.477 0.471,-1.033 0.856,-2.123 0.856,-2.422 0,-1.018 2.937,-4.53 9.4,-11.239 1.32,-1.371 3.062,-3.25 3.871,-4.177 0.809,-0.926 1.664,-1.684 1.9,-1.684 0.236,0 0.429,-0.14 0.429,-0.311 0,-0.368 1.621,-2.122 3.821,-4.134 0.868,-0.794 2.14,-2.09 2.826,-2.879 0.687,-0.789 1.722,-1.553 2.3,-1.699 0.579,-0.145 1.053,-0.402 1.053,-0.572 0,-0.169 0.565,-0.542 1.255,-0.828 0.691,-0.286 1.906,-1.172 2.7,-1.968 0.795,-0.797 2.287,-2.024 3.315,-2.727 1.029,-0.704 2.539,-1.91 3.356,-2.681 0.817,-0.77 1.649,-1.401 1.847,-1.401 0.199,0 1.479,-1.083 2.844,-2.407 7.035,-6.821 8.315,-8.268 9.55,-10.793 0.698,-1.43 1.484,-2.87 1.745,-3.2 1.417,-1.791 1.536,-3.245 1.8,-22 0.276,-19.57 0.486,-22.131 2.271,-27.6 0.538,-1.65 1.224,-3.81 1.524,-4.8 1.504,-4.952 2.608,-7.41 3.865,-8.603 1.417,-1.344 2.728,-2.882 2.728,-3.2 0,-0.422 11.695,-11.797 12.132,-11.8 0.257,-0.001 0.868,-0.586 1.356,-1.3 0.489,-0.713 1.643,-1.927 2.565,-2.697 2.399,-2.004 6.83,-6.426 7.617,-7.6 0.368,-0.55 1.478,-2.106 2.467,-3.457 2.407,-3.289 2.814,-4.164 3.788,-8.143 0.989,-4.042 1.904,-14.261 1.526,-17.035 -0.148,-1.081 -0.433,-3.249 -0.635,-4.819 -0.202,-1.57 -0.648,-3.527 -0.991,-4.349 -0.344,-0.822 -0.63,-1.788 -0.635,-2.146 -0.006,-0.358 -0.717,-1.641 -1.58,-2.851 -1.476,-2.069 -4.81,-8.439 -4.81,-9.19 0,-0.189 -0.142,-0.403 -0.314,-0.477 -0.551,-0.233 -2.086,-2.633 -2.086,-3.261 0,-0.333 -0.135,-0.665 -0.3,-0.739 -1.51,-0.671 -3.986,-6.379 -4.482,-10.333 -0.235,-1.87 -0.695,-5.57 -1.022,-8.223 -1.361,-11.02 -0.362,-26.134 2.066,-31.251 1.065,-2.244 8.835,-7.37 16.138,-10.647 2.005,-0.899 13.666,-0.963 14.4,-0.079"
     stroke="none"
     fill="#999999"
     fill-rule="evenodd" />
  <path
     style="fill:#ffffff;stroke:#00a7ca;stroke-width:0.166555"
     d="m 95.286362,368.65603 c -6.612894,-0.29858 -7.428173,-0.85815 -6.896968,-4.7337 0.534026,-3.89615 4.302371,-13.51659 6.449259,-16.4647 2.847458,-3.91015 21.231707,-22.41494 24.052527,-24.21024 9.26023,-5.89363 21.93101,-17.81302 25.30738,-23.8066 l 2.41557,-4.28804 0.55517,-20.79671 c 0.5482,-20.53565 0.58159,-20.88514 2.65962,-27.84046 1.15744,-3.87406 2.74302,-8.29546 3.52351,-9.82534 0.82326,-1.61374 7.43891,-8.76134 15.75704,-17.02406 9.71241,-9.6477 14.91215,-15.33604 16.11773,-17.63228 2.37125,-4.51647 3.42628,-10.55919 3.49192,-20 0.0572,-8.223 -1.15376,-14.12687 -3.61236,-17.61214 -0.66341,-0.94044 -2.16789,-3.5404 -3.3433,-5.77769 -1.17539,-2.23729 -2.74164,-4.98305 -3.48053,-6.1017 -0.7389,-1.11864 -2.11539,-3.61165 -3.05887,-5.54001 -3.92906,-8.03053 -4.88306,-34.19991 -1.60847,-44.12201 0.82608,-2.50303 6.38316,-6.784523 13.31423,-10.258041 3.79206,-1.900401 4.83794,-2.113834 10.35832,-2.113834 5.523,0 6.56444,0.21278 10.35831,2.116352 9.86386,4.94917 12.2808,8.026543 14.5075,18.471643 2.94213,13.80111 -1.84935,30.82934 -13.55261,48.164 -2.24285,3.32208 -5.01941,8.20344 -6.17013,10.84746 -1.99042,4.57339 -2.09099,5.23621 -2.06688,13.62088 0.0226,7.87685 0.22242,9.35312 1.87955,13.89034 2.89514,7.92689 5.5639,11.76236 15.0684,21.65593 13.05959,13.59419 14.40409,15.40315 17.07869,22.97864 2.5857,7.32368 2.63136,7.79293 3.48397,35.80112 l 0.51865,17.03789 2.78857,4.65703 c 3.29578,5.50409 11.00863,13.21674 19.49581,19.4953 3.35593,2.48262 8.35431,6.41386 11.10752,8.73609 6.54126,5.51732 18.10571,18.3133 20.05284,22.18834 4.13734,8.23383 5.68894,16.86694 3.24642,18.06306 -1.11859,0.54778 -188.26042,0.94444 -199.798388,0.42348 z"
     id="path2792" />
  <path
     style="fill:#ffffff;stroke:#00a7ca;stroke-width:0.166555"
     d="m 93.220339,368.14137 c -0.372881,-0.12439 -1.516949,-0.41119 -2.542373,-0.63736 -1.493206,-0.32933 -1.864407,-0.78993 -1.864407,-2.31343 0,-2.38082 2.61557,-10.15017 5.002507,-14.85956 2.435154,-4.80452 20.992934,-23.46783 29.861044,-30.03086 8.38847,-6.20806 17.75197,-15.50169 20.88609,-20.73026 l 2.38371,-3.97668 0.70356,-21.35593 0.70356,-21.35593 2.42613,-7.45763 c 1.33437,-4.1017 2.96319,-8.25835 3.61959,-9.23702 0.65641,-0.97866 7.70721,-8.55967 15.66844,-16.84667 16.11986,-16.77949 17.08826,-18.23631 18.45538,-27.7636 0.92128,-6.42022 0.49356,-18.70645 -0.78063,-22.4239 -0.44733,-1.30508 -3.50594,-7.10169 -6.79692,-12.88135 -7.88097,-13.84071 -8.31841,-15.63073 -8.3667,-34.23729 -0.0251,-9.67138 0.2393,-15.14679 0.82442,-17.07328 1.1,-3.62163 5.23631,-7.315474 12.31653,-10.999009 5.10441,-2.655605 5.60069,-2.77517 11.51882,-2.77517 5.7147,0 6.5414,0.179688 10.88087,2.365009 8.36361,4.211846 11.25898,7.73304 13.22884,16.08822 3.2923,13.96431 -0.85121,29.806 -12.7468,48.73418 -8.04001,12.79322 -8.26441,13.49171 -8.2544,25.69395 0.009,10.40553 0.0308,10.5602 2.27754,15.78885 2.86605,6.67005 6.09619,11.04313 15.38779,20.83258 9.94161,10.47428 12.07776,13.18101 14.51818,18.39606 3.29318,7.03737 3.9576,11.91771 4.78568,35.152 0.85506,23.99124 0.40942,22.03072 6.88232,30.27765 3.66903,4.67459 9.30271,9.81021 18.85174,17.1851 3.54237,2.73584 8.29034,6.58677 10.55104,8.55762 5.19738,4.53101 14.96745,15.62435 17.42679,19.78709 2.50477,4.23964 4.70516,11.57482 4.44009,14.8014 l -0.21453,2.61148 -12.54238,0.42193 c -12.79846,0.43054 -188.258966,0.67297 -189.491521,0.26181 z"
     id="path2877" />
</svg>
