<?xml version="1.0" encoding="UTF-8" standalone="no"?>
<svg
   id="svg"
   version="1.1"
   width="400"
   height="479.01234567901236"
   viewBox="0, 0, 400,479.01234567901236"
   sodipodi:docname="wr.svg"
   inkscape:version="1.1.2 (0a00cf5339, 2022-02-04)"
   xmlns:inkscape="http://www.inkscape.org/namespaces/inkscape"
   xmlns:sodipodi="http://sodipodi.sourceforge.net/DTD/sodipodi-0.dtd"
   xmlns="http://www.w3.org/2000/svg"
   xmlns:svg="http://www.w3.org/2000/svg">
  <defs
     id="defs2064" />
  <sodipodi:namedview
     id="namedview2062"
     pagecolor="#ffffff"
     bordercolor="#cccccc"
     borderopacity="1"
     inkscape:pageshadow="0"
     inkscape:pageopacity="1"
     inkscape:pagecheckerboard="0"
     showgrid="false"
     inkscape:zoom="1.475"
     inkscape:cx="200"
     inkscape:cy="239.66102"
     inkscape:window-width="1680"
     inkscape:window-height="1014"
     inkscape:window-x="1920"
     inkscape:window-y="0"
     inkscape:window-maximized="1"
     inkscape:current-layer="svg" />
  <path
     id="path0"
     d="m 180.6,47.064 c -8.062,1.724 -10.617,4.882 -14.243,17.61 -4.381,15.374 -9.195,19.342 -23.44,19.319 -10.701,-0.017 -16.267,-2.953 -23.108,-12.187 -5.544,-7.483 -7.48,-8.683 -14.416,-8.93 -11.153,-0.397 -29.669,3.314 -38.832,7.782 -10.965,5.347 -12.429,11.113 -12.042,47.438 0.242,22.764 0.608,25.303 5.883,40.911 2.504,7.407 11.429,22.528 18.412,31.193 8.575,10.641 9.606,14.732 7.607,30.2 -0.441,3.41 -1.265,10.25 -1.831,15.2 -0.566,4.95 -1.375,11.166 -1.797,13.813 -0.422,2.648 -1.492,9.668 -2.377,15.6 -0.885,5.933 -2.23,14.387 -2.989,18.787 -0.759,4.4 -1.666,11.15 -2.017,15 -1.371,15.068 -1.857,19.402 -3.407,30.4 -3.43,24.331 -4.066,26.025 -14.063,37.44 -21.596,24.658 -25.792,34.784 -26.756,64.56 -0.946,29.233 0.382,32.648 13.216,33.989 5.309,0.555 301.06,0.556 306.909,0.002 11.831,-1.122 13.256,-3.86 12.355,-23.732 -1.677,-36.996 -8.626,-56.207 -27.988,-77.377 -8.269,-9.041 -9.334,-11.5 -11.841,-27.34 -1.843,-11.644 -2.455,-16.761 -3.223,-26.951 -0.742,-9.839 -1.411,-15.413 -3.002,-24.991 -0.64,-3.85 -1.538,-10.15 -1.996,-14 -0.459,-3.85 -1.542,-11.95 -2.407,-18 -0.866,-6.05 -2.045,-15.5 -2.62,-21 -0.574,-5.5 -1.302,-11.969 -1.616,-14.375 -1.598,-12.238 -0.316,-17.639 6.456,-27.198 1.696,-2.394 4.382,-6.62 5.97,-9.39 1.587,-2.77 3.648,-6.207 4.58,-7.637 11.396,-17.489 14.983,-34.244 14.982,-70 -10e-4,-31.818 -1.758,-33.701 -37.159,-39.821 -17.993,-3.11 -20.261,-2.445 -27.413,8.04 -6.465,9.479 -11.335,12.302 -21.187,12.282 -14.099,-0.028 -18.799,-4.188 -22.76,-20.139 -4.251,-17.124 -4.325,-17.164 -31.84,-17.122 -13.682,0.02 -17.773,0.148 -20,0.624 m 24.28,36.543 c 14.072,1.334 20.742,7.611 29.956,28.193 3.935,8.79 4.718,9.2 17.564,9.2 13.991,0 15,-0.599 20.796,-12.344 6.099,-12.358 9.021,-14.791 17.804,-14.823 19.388,-0.071 22.443,15.871 11.612,60.603 -1.87,7.724 -5.832,14.999 -11.327,20.8 -7.356,7.765 -11.338,8.518 -28.485,5.386 -26.172,-4.78 -25.528,-4.737 -68,-4.51 -35.507,0.189 -32.15,-0.025 -44.637,2.849 -28.473,6.553 -36.19,5.11 -46.631,-8.721 C 91.76,154.645 83.198,114.501 89.02,102.195 c 3.757,-7.941 16.571,-10.96 24.684,-5.815 2.579,1.635 4.501,4.398 8.725,12.538 5.999,11.562 6.67,11.951 20.971,12.189 14.453,0.24 16.164,-0.755 21.657,-12.59 9.848,-21.218 18.92,-26.893 39.823,-24.91 m 23.978,128.805 c 2.278,0.226 8.462,1.134 13.742,2.017 31.762,5.313 34.879,7.924 37.209,31.171 0.815,8.129 5.424,44.6 6.774,53.6 1.632,10.877 3.919,33.156 3.647,35.53 -0.953,8.323 -6.357,10.336 -17.53,6.527 -9.729,-3.317 -4.094,-3.057 -66.3,-3.057 -43.474,0 -56.003,0.111 -58.2,0.515 -1.54,0.284 -6.49,1.406 -11,2.495 -33.604,8.11 -34.733,6.362 -27.388,-42.41 1.323,-8.786 2.59,-18.96 5.802,-46.6 2.529,-21.757 3.622,-25.395 9.072,-30.192 5.604,-4.933 19.125,-8.463 37.314,-9.742 4.955,-0.348 63.165,-0.221 66.858,0.146 m 9.542,161.947 c 39.164,4.193 79.123,19.848 86.492,33.886 7.329,13.96 5.492,22.965 -5.082,24.919 -3.937,0.728 -242.413,0.591 -245.868,-0.141 -10.484,-2.222 -12.118,-9.975 -5.151,-24.438 4.809,-9.981 17.171,-18.525 36.637,-25.32 24.397,-8.517 35.636,-9.652 93.772,-9.467 22.367,0.071 36.516,0.273 39.2,0.561"
     stroke="none"
     fill="#161616"
     fill-rule="evenodd" />
  <path
     id="path1"
     d="m 0,239.4 v 239.4 h 14.8 c 8.14,0 14.798,-0.135 14.795,-0.3 -0.003,-0.165 -0.858,-1.015 -1.9,-1.889 -7.697,-6.454 -8.446,-8.827 -8.772,-27.811 -0.808,-47.019 4.055,-60.947 32.185,-92.172 5.46,-6.062 5.894,-7.56 9.5,-32.794 1.444,-10.101 3.238,-21.711 3.988,-25.8 1.691,-9.217 2.415,-14.607 3.204,-23.834 1.091,-12.769 3.797,-33.74 6.246,-48.4 1.347,-8.059 1.904,-17.066 1.213,-19.6 C 74.554,203.617 68.841,195.053 63.368,188.375 53.498,176.333 47.345,162.404 43.762,144 42.898,139.559 42.468,98.44 43.187,89.029 44.371,73.546 47.309,67.03 55.2,62.388 c 6.105,-3.592 25.886,-9.076 40.4,-11.201 19.655,-2.878 24.703,-1.089 33.485,11.867 5.5,8.116 7.364,9.227 14.862,8.86 4.388,-0.215 6.35,-0.98 8.35,-3.258 1.916,-2.182 2.597,-4.267 5.689,-17.41 3.439,-14.615 8.182,-16.238 46.614,-15.951 33.317,0.249 33.96,0.638 38.987,23.556 2.53,11.533 4.517,13.621 12.428,13.055 4.872,-0.349 6.825,-2.079 11.822,-10.478 7.842,-13.18 15.305,-14.811 42.059,-9.189 7.616,1.6 19.877,4.877 26.264,7.018 9.925,3.329 14.513,9.51 16.289,21.943 0.651,4.558 0.676,37.487 0.032,43 -0.257,2.2 -0.824,7.24 -1.26,11.2 -1.205,10.929 -1.633,13.699 -2.688,17.368 -2.303,8.006 -8.127,20.36 -13.026,27.632 -17.799,26.417 -17.282,24.57 -13.492,48.2 1.667,10.397 4.061,30.337 5.382,44.839 1.563,17.149 1.625,17.644 3.798,30.361 0.865,5.06 2.216,14.06 3.002,20 3.18,24.016 3.676,25.616 9.971,32.16 16.689,17.349 24.752,32.751 27.032,51.64 0.253,2.09 1.244,9.47 2.203,16.4 4.992,36.07 4.049,44.813 -5.701,52.808 -0.934,0.765 -1.699,1.527 -1.7,1.692 -0.001,0.165 7.648,0.3 16.998,0.3 h 17 V 239.4 0 H 200 0 V 239.4 M 193.4,93.479 c -8.981,1.191 -11.453,3.67 -19.82,19.872 -8.546,16.547 -10.675,17.849 -29.182,17.849 -20.82,0 -23.48,-1.688 -32.042,-20.323 -4.758,-10.357 -14.375,-9.493 -15.071,1.353 -1.172,18.273 7.761,46.352 17.837,56.064 5.149,4.962 9.247,5.406 23.878,2.586 18.552,-3.576 20.249,-3.678 61.2,-3.678 41.303,0.001 47.258,0.318 64.319,3.428 13.695,2.496 16.685,1.788 21.97,-5.201 4.932,-6.52 7.729,-14.204 9.912,-27.229 4.444,-26.519 2.736,-35.716 -6.408,-34.49 -3.422,0.459 -5.269,2.713 -8.351,10.188 -6.224,15.098 -10.675,17.576 -30.911,17.208 -15.645,-0.284 -18.493,-1.993 -24.415,-14.654 -4.772,-10.203 -5.526,-11.62 -7.785,-14.652 -5.202,-6.98 -13.793,-9.825 -25.131,-8.321 m -26.6,128.374 c -11.244,0.669 -26.564,3.486 -31.443,5.783 -6.364,2.996 -7.323,6.235 -11.15,37.685 -0.557,4.576 -1.552,11.776 -2.213,16 -0.66,4.223 -1.557,11.279 -1.993,15.679 -1.109,11.178 -1.928,17.981 -2.865,23.8 -1.928,11.966 -0.214,14.166 9.664,12.41 24.399,-4.337 19.105,-4.088 83,-3.904 53.618,0.155 54.466,0.17 59,1.017 10.8,2.017 12.279,0.165 10.026,-12.553 -1.246,-7.035 -1.952,-12.504 -3.043,-23.57 -0.563,-5.72 -1.544,-13.82 -2.18,-18 -0.635,-4.18 -1.801,-12.769 -2.59,-19.087 -3.516,-28.164 -3.489,-28.13 -24.813,-31.707 -4.62,-0.775 -10.92,-1.887 -14,-2.471 l -5.6,-1.061 -28.8,-0.076 c -15.84,-0.041 -29.79,-0.017 -31,0.055 m -8.6,161.618 c -3.109,0.196 -21.517,2.115 -26.2,2.73 -7.866,1.034 -32.355,9.357 -39.192,13.321 -2.465,1.429 -8.517,5.397 -10.894,7.141 -6.185,4.54 -8.542,13.732 -4.197,16.361 1.519,0.919 234.205,1.459 237.576,0.551 5.732,-1.544 4.323,-9.585 -2.672,-15.247 -3.046,-2.466 -15.353,-8.599 -22.421,-11.173 -23.671,-8.621 -39.373,-12.276 -58.2,-13.551 -5.117,-0.346 -68.621,-0.461 -73.8,-0.133"
     stroke="none"
     fill="#f4f4f4"
     fill-rule="evenodd"
     style="fill:none" />
  <path
     id="path2"
     d="m 179.222,39.249 c -12.254,1.42 -15.539,4.909 -19.444,20.656 -3.382,13.643 -5.233,15.553 -15.5,15.993 C 134.596,76.313 131.519,74.649 125.603,65.8 117.502,53.683 112.209,52.366 88.709,56.619 61.753,61.498 51.862,66.88 48.981,78.237 c -2.123,8.368 -2.602,58.431 -0.647,67.563 3.276,15.302 9.485,29.077 18.03,40 8.577,10.965 12.178,16.684 12.892,20.476 0.849,4.511 -1.486,25.781 -5.831,53.124 -0.559,3.52 -1.651,11.98 -2.425,18.8 -1.706,15.022 -2.937,24.34 -4.994,37.8 -0.857,5.61 -2.117,14.34 -2.799,19.4 -1.976,14.656 -2.77,16.73 -9.23,24.097 -27.016,30.81 -30.769,40.993 -30.775,83.513 -0.004,23.484 1.914,28.095 12.598,30.296 3.522,0.725 320.517,0.722 323.958,-0.003 12.105,-2.552 13.931,-9.839 10.623,-42.401 -3.831,-37.707 -9.163,-50.752 -29.777,-72.858 -4.486,-4.811 -6.108,-7.41 -7.159,-11.476 -1.388,-5.366 -6.716,-44.276 -9.04,-66.016 -0.89,-8.334 -2.422,-20.732 -3.403,-27.552 -6.148,-42.741 -6.167,-48.092 -0.201,-57.4 15.352,-23.952 17.226,-27.198 20.901,-36.2 4.636,-11.355 6.474,-24.778 6.956,-50.8 C 349.372,70.015 347.099,65.615 323.373,59.671 306.858,55.534 297.181,53.849 289.8,53.823 L 283,53.8 l -2.726,1.291 c -3.602,1.706 -6.221,4.458 -9.457,9.936 -5.163,8.738 -8.281,10.801 -16.217,10.73 -10.177,-0.092 -11.873,-1.957 -15.375,-16.9 -3.591,-15.324 -6.113,-18.373 -16.227,-19.613 -4.248,-0.521 -39.271,-0.517 -43.776,0.005 m 45.636,2.52 c 7.123,1.814 8.843,4.437 12.326,18.79 3.392,13.982 5.402,16.417 14.475,17.534 9.616,1.184 15.293,-1.759 20.518,-10.637 7.231,-12.286 12.394,-13.592 35.223,-8.913 22.411,4.594 27.564,6.341 32.79,11.118 5.414,4.948 6.01,8.212 6.01,32.939 0,45.359 -2.336,53.431 -25.93,89.6 -5.564,8.53 -6.45,10.911 -6.4,17.2 0.037,4.741 2.849,30.962 4.568,42.6 1.678,11.36 3.606,26.695 5.96,47.4 1.943,17.095 5.408,41.715 6.586,46.795 1.409,6.075 2.502,7.837 9.433,15.205 20.17,21.444 26.606,40.374 28.761,84.602 0.952,19.534 -1.379,23.657 -14.021,24.796 -5.579,0.503 -309.135,0.503 -314.714,0 -13.768,-1.24 -15.168,-4.418 -14.722,-33.398 0.579,-37.557 4.591,-47.764 30.044,-76.426 6.695,-7.538 7.669,-10.002 9.645,-24.374 0.574,-4.18 1.672,-11.644 2.438,-16.586 0.767,-4.943 2.194,-15.923 3.172,-24.4 1.926,-16.703 2.983,-24.487 5.381,-39.614 0.854,-5.39 1.837,-12.23 2.184,-15.2 0.347,-2.97 1.156,-9.9 1.799,-15.4 2.328,-19.911 2.021,-22.171 -4.074,-30.005 C 58.914,173.034 51.289,156.521 49.612,137.58 48.601,126.152 49.237,88.836 50.561,81.955 53.037,69.084 62.177,63.607 88.8,59.041 c 22.88,-3.924 27.291,-2.833 35.132,8.686 5.988,8.797 10.212,10.979 20.468,10.574 11.2,-0.443 13.82,-2.962 17.235,-16.573 3.897,-15.527 7.382,-19.166 19.672,-20.533 5.767,-0.642 40.578,-0.183 43.551,0.574 m -32.455,46.272 c -10.543,1.621 -16.204,7.169 -23.792,23.318 -5.938,12.637 -8.606,14.373 -22.411,14.577 -18.318,0.272 -20.979,-1.136 -27.678,-14.647 C 113.35,100.858 111.424,98.983 105.389,98.498 96.322,97.77 92,102.719 92,113.831 c 0,18.697 5.618,39.454 14.119,52.169 8.595,12.856 14.104,14.296 37.081,9.694 18.298,-3.666 15.506,-3.497 57.4,-3.476 42.911,0.022 43.881,0.081 62.801,3.8 17.084,3.36 21.322,2.073 28.396,-8.618 6.093,-9.209 7.508,-13.917 11.235,-37.4 3.307,-20.827 -0.151,-30.964 -10.75,-31.516 -7.438,-0.388 -10.379,1.891 -14.674,11.373 -6.408,14.148 -9.477,16.143 -24.808,16.132 -14.576,-0.011 -16.399,-1.067 -22.079,-12.789 -1.759,-3.63 -3.827,-7.888 -4.595,-9.462 C 220.21,91.618 207.528,85.715 192.403,88.041 M 207,90.656 c 8.484,1.602 14.655,7.37 19.421,18.152 7.829,17.71 9.858,19.186 26.379,19.186 16.694,0 19.926,-2.092 26.614,-17.225 3.602,-8.151 6.064,-10.343 11.636,-10.36 5.175,-0.016 8.166,1.798 9.846,5.97 1.066,2.65 1.288,15.375 0.381,21.821 -3.566,25.333 -6.944,34.853 -15.278,43.052 -5.031,4.95 -8.574,5.395 -22.091,2.778 -17.383,-3.365 -21.837,-3.618 -63.908,-3.62 -41.407,-0.002 -41.097,-0.023 -61.6,4.072 -18.551,3.705 -23.904,1.615 -32.481,-12.682 -10.17,-16.953 -15.607,-51.647 -9.204,-58.728 5.01,-5.539 14.18,-2.877 18.104,5.256 3.862,8.006 4.879,9.907 6.556,12.258 4.523,6.338 8.729,7.58 24.834,7.331 14.817,-0.228 17.309,-1.804 23.901,-15.117 3.921,-7.92 6.965,-13.135 9.249,-15.844 5.22,-6.193 15.637,-8.568 27.641,-6.3 m -43.453,126.176 c -21.019,1.044 -34.551,5.314 -38.569,12.169 -2.212,3.776 -3.985,15.247 -9.179,59.399 -0.789,6.71 -2.141,16.88 -3.005,22.6 -4.376,28.991 -3.25,31.414 13.006,27.979 23.494,-4.964 16.746,-4.579 80.347,-4.579 57.89,0 57.811,-0.002 66.184,2.013 13.685,3.294 15.15,0.26 11.499,-23.813 -2.285,-15.065 -3.271,-22.449 -5.234,-39.2 -4.982,-42.498 -5.358,-44.053 -11.558,-47.76 -5.974,-3.572 -25.173,-7.642 -41.651,-8.83 -6.396,-0.461 -52.451,-0.445 -61.84,0.022 m 63.253,1.993 c 15.444,1.418 34.4,5.645 39.325,8.768 5.274,3.345 6.074,7.442 12.874,65.95 0.572,4.918 1.56,12.118 2.197,16 4.236,25.845 3.599,27.426 -9.947,24.667 -8.771,-1.786 -12.116,-1.87 -68.649,-1.708 -59.601,0.171 -54.284,-0.076 -71.421,3.314 -19.439,3.845 -20.629,2.475 -17.043,-19.616 0.786,-4.84 1.979,-13.57 2.65,-19.4 4.495,-39.021 7.895,-62.232 9.649,-65.867 3.149,-6.525 15.963,-10.818 36.144,-12.108 7.564,-0.483 58.957,-0.483 64.221,0 m -71,159.841 c -0.88,0.084 -7,0.603 -13.6,1.152 -15.442,1.285 -16.595,1.516 -29.844,5.976 -29.592,9.961 -41.584,19.642 -42.621,34.406 -0.318,4.52 1.656,7.371 6.025,8.701 1.295,0.394 26.938,0.499 121.868,0.499 h 120.229 l 2.341,-1.2 c 8.839,-4.531 3.649,-19.644 -9.398,-27.365 -17.042,-10.085 -44.586,-18.696 -68.8,-21.508 -5.433,-0.631 -80.495,-1.206 -86.2,-0.661 m 88.8,2.875 c 26.495,3.316 63.448,16.859 72.408,26.537 5.14,5.551 6.871,13.354 3.752,16.906 -2.281,2.599 7.058,2.416 -123.56,2.416 H 77.8 l -1.999,-1 c -2.774,-1.387 -3.802,-3.056 -3.796,-6.159 0.026,-13.29 12.222,-22.885 41.485,-32.637 13.608,-4.535 14.225,-4.657 30.31,-6 5.5,-0.459 10.45,-0.895 11,-0.969 5.249,-0.704 83.222,0.082 89.8,0.906"
     stroke="none"
     fill="#9a9a9a"
     fill-rule="evenodd" />
  <path
     id="path3"
     d="m 181.307,41.195 c -12.29,1.367 -15.775,5.006 -19.672,20.533 C 158.22,75.339 155.6,77.858 144.4,78.301 134.144,78.706 129.92,76.524 123.932,67.727 116.091,56.208 111.68,55.117 88.8,59.041 62.177,63.607 53.037,69.084 50.561,81.955 c -1.324,6.881 -1.96,44.197 -0.949,55.625 1.677,18.941 9.302,35.454 26.698,57.815 6.095,7.834 6.402,10.094 4.074,30.005 -0.643,5.5 -1.452,12.43 -1.799,15.4 -0.347,2.97 -1.33,9.81 -2.184,15.2 -2.398,15.127 -3.455,22.911 -5.381,39.614 -0.978,8.477 -2.405,19.457 -3.172,24.4 -0.766,4.942 -1.864,12.406 -2.438,16.586 -1.976,14.372 -2.95,16.836 -9.645,24.374 -25.453,28.662 -29.465,38.869 -30.044,76.426 -0.446,28.98 0.954,32.158 14.722,33.398 5.579,0.503 309.135,0.503 314.714,0 12.642,-1.139 14.973,-5.262 14.021,-24.796 -2.155,-44.228 -8.591,-63.158 -28.761,-84.602 -6.931,-7.368 -8.024,-9.13 -9.433,-15.205 -1.178,-5.08 -4.643,-29.7 -6.586,-46.795 -2.354,-20.705 -4.282,-36.04 -5.96,-47.4 -1.719,-11.638 -4.531,-37.859 -4.568,-42.6 -0.05,-6.289 0.836,-8.67 6.4,-17.2 23.594,-36.169 25.93,-44.241 25.93,-89.6 0,-35.423 -0.731,-36.254 -38.8,-44.057 -22.829,-4.679 -27.992,-3.373 -35.223,8.913 -5.225,8.878 -10.902,11.821 -20.518,10.637 -9.073,-1.117 -11.083,-3.552 -14.475,-17.534 -3.483,-14.353 -5.203,-16.976 -12.326,-18.79 -2.973,-0.757 -37.784,-1.216 -43.551,-0.574 m 42.613,1.747 c 6.925,1.808 8.897,4.685 11.831,17.258 3.684,15.787 6.321,18.705 17.43,19.284 9.726,0.507 14.875,-2.356 20.019,-11.131 7.071,-12.062 10.977,-12.994 34.8,-8.305 28.015,5.514 33.789,8.784 36.284,20.552 1.828,8.624 0.578,50.396 -1.934,64.6 -1.807,10.217 -8.38,23.441 -22.666,45.6 -7.539,11.695 -8.067,13.877 -6.532,27 0.464,3.96 1.299,11.61 1.857,17 0.557,5.39 1.552,13.49 2.211,18 1.972,13.497 5.09,37.942 6.175,48.4 2.005,19.34 5.165,41.073 6.83,46.977 1.442,5.111 2.568,6.903 7.908,12.58 16.795,17.856 23.376,31.59 27.236,56.843 2.37,15.496 3.272,39.074 1.692,44.196 -1.366,4.428 -3.949,6.319 -10.261,7.51 -3.13,0.59 -296.794,0.887 -309.6,0.312 C 27.624,468.74 27.003,467.857 27.049,441 c 0.068,-39.234 4.308,-50.893 28.148,-77.4 6.841,-7.605 8.22,-9.861 9.591,-15.682 1.468,-6.234 5.619,-35.619 7.588,-53.718 1.068,-9.808 3.383,-26.123 5.989,-42.2 0.445,-2.75 1.449,-10.58 2.231,-17.4 0.781,-6.82 1.681,-14.56 2,-17.2 1.346,-11.156 0.354,-15.371 -5.37,-22.824 -16.048,-20.893 -23.382,-36 -26.105,-53.776 -0.746,-4.87 -0.737,-48.503 0.011,-54.382 2.043,-16.049 9.899,-21.385 38.576,-26.201 21.192,-3.559 25.62,-2.437 33.092,8.383 6.12,8.862 10.09,11.029 20.2,11.025 12.926,-0.005 16.063,-2.747 19.826,-17.326 3.866,-14.979 7.308,-18.583 18.981,-19.874 5.892,-0.651 39.204,-0.243 42.113,0.517 m -30.327,43.843 c -11.667,1.181 -17.676,6.713 -25.781,23.733 -3.733,7.838 -6.579,11.306 -11.012,13.414 -2.122,1.01 -21.969,0.987 -25.25,-0.029 -5.301,-1.641 -7.603,-4.204 -12.316,-13.708 -5.32,-10.727 -7.801,-12.834 -15.026,-12.756 -9.813,0.105 -13.22,4.433 -13.194,16.761 0.037,17.325 3.616,32.448 11.243,47.514 3.479,6.872 9.599,13.583 14.676,16.092 5.4,2.669 8.677,2.506 28.267,-1.403 16.528,-3.299 14.9,-3.204 54.684,-3.197 42.133,0.008 43.277,0.077 62.516,3.788 16.431,3.169 19.155,2.853 25.281,-2.926 9.038,-8.526 12.169,-17.089 16.773,-45.868 0.933,-5.837 0.717,-19.505 -0.358,-22.614 -2.281,-6.596 -9.667,-9.962 -17.116,-7.798 -4.838,1.406 -6.124,2.907 -10.97,12.812 -6.392,13.066 -7.954,14 -23.41,14 -15.381,0 -15.984,-0.449 -23.734,-17.679 C 221.745,91.089 211.1,85.013 193.593,86.785 m 14.875,1.981 c 7.496,1.917 13.962,7.399 17.658,14.972 0.768,1.574 2.836,5.832 4.595,9.462 5.68,11.722 7.503,12.778 22.079,12.789 15.331,0.011 18.4,-1.984 24.808,-16.132 4.295,-9.482 7.236,-11.761 14.674,-11.373 10.599,0.552 14.057,10.689 10.75,31.516 -3.727,23.483 -5.142,28.191 -11.235,37.4 -7.074,10.691 -11.312,11.978 -28.396,8.618 -18.92,-3.719 -19.89,-3.778 -62.801,-3.8 -41.894,-0.021 -39.102,-0.19 -57.4,3.476 -20.588,4.124 -24.589,3.685 -31.838,-3.489 C 99.978,160.937 92,136.885 92,113.831 c 0,-11.112 4.322,-16.061 13.389,-15.333 6.035,0.485 7.961,2.36 13.133,12.791 6.699,13.511 9.36,14.919 27.678,14.647 13.805,-0.204 16.473,-1.94 22.411,-14.577 9.023,-19.204 15.56,-24.075 31.596,-23.546 3.331,0.11 6.307,0.453 8.261,0.953 M 168.6,215.592 c -26.1,0.817 -40.718,5.153 -44.848,13.303 -2.291,4.52 -3.807,14.413 -8.751,57.105 -0.573,4.95 -1.839,14.4 -2.814,21 -5.328,36.088 -4.579,37.362 18.826,32.047 17.403,-3.952 10.631,-3.599 72.187,-3.758 60.023,-0.154 59.595,-0.169 69.548,2.348 15.184,3.84 16.083,1.462 11.429,-30.237 -0.969,-6.6 -2.667,-19.47 -3.772,-28.6 -5.733,-47.328 -5.599,-46.57 -9.056,-51.102 -3.813,-5 -16.078,-8.516 -40.149,-11.511 -5.9,-0.734 -45.968,-1.115 -62.6,-0.595 m 56.787,1.218 c 16.478,1.188 35.677,5.258 41.651,8.83 6.2,3.707 6.576,5.262 11.558,47.76 1.963,16.751 2.949,24.135 5.234,39.2 3.651,24.073 2.186,27.107 -11.499,23.813 -8.373,-2.015 -8.294,-2.013 -66.184,-2.013 -63.601,0 -56.853,-0.385 -80.347,4.579 -16.256,3.435 -17.382,1.012 -13.006,-27.979 0.864,-5.72 2.216,-15.89 3.005,-22.6 5.194,-44.152 6.967,-55.623 9.179,-59.399 4.018,-6.855 17.55,-11.125 38.569,-12.169 9.389,-0.467 55.444,-0.483 61.84,-0.022 M 157.6,377.48 c -16.482,0.987 -31.605,2.765 -36.842,4.333 -28.62,8.566 -44.251,17.652 -49.349,28.684 -4.937,10.685 -3.756,17.143 3.528,19.307 3.084,0.915 241.487,0.902 244.571,-0.014 10.582,-3.142 6.926,-19.927 -6.233,-28.617 -18.143,-11.983 -50.78,-21.609 -79.875,-23.559 -5.355,-0.358 -70.134,-0.474 -75.8,-0.134 m 84.4,1.847 c 24.214,2.812 51.758,11.423 68.8,21.508 13.047,7.721 18.237,22.834 9.398,27.365 l -2.341,1.2 H 197.628 c -128.037,0 -121.863,0.094 -124.868,-1.902 -4.382,-2.913 -3.723,-12.293 1.407,-20.022 5.076,-7.647 17.571,-14.742 38.189,-21.682 13.249,-4.46 14.402,-4.691 29.844,-5.976 6.6,-0.549 12.72,-1.068 13.6,-1.152 5.705,-0.545 80.767,0.03 86.2,0.661"
     stroke="none"
     fill="#7c7c7c"
     fill-rule="evenodd" />
  <path
     id="path4"
     d="M 181.807,42.425 C 170.134,43.716 166.692,47.32 162.826,62.299 159.063,76.878 155.926,79.62 143,79.625 132.89,79.629 128.92,77.462 122.8,68.6 115.328,57.78 110.9,56.658 89.708,60.217 61.031,65.033 53.175,70.369 51.132,86.418 c -0.748,5.879 -0.757,49.512 -0.011,54.382 2.723,17.776 10.057,32.883 26.105,53.776 5.724,7.453 6.716,11.668 5.37,22.824 -0.319,2.64 -1.219,10.38 -2,17.2 -0.782,6.82 -1.786,14.65 -2.231,17.4 -2.606,16.077 -4.921,32.392 -5.989,42.2 -1.969,18.099 -6.12,47.484 -7.588,53.718 -1.371,5.821 -2.75,8.077 -9.591,15.682 -23.84,26.507 -28.08,38.166 -28.148,77.4 -0.046,26.857 0.575,27.74 20.151,28.618 12.806,0.575 306.47,0.278 309.6,-0.312 6.312,-1.191 8.895,-3.082 10.261,-7.51 1.58,-5.122 0.678,-28.7 -1.692,-44.196 -3.86,-25.253 -10.441,-38.987 -27.236,-56.843 -5.34,-5.677 -6.466,-7.469 -7.908,-12.58 -1.665,-5.904 -4.825,-27.637 -6.83,-46.977 -1.085,-10.458 -4.203,-34.903 -6.175,-48.4 -0.659,-4.51 -1.654,-12.61 -2.211,-18 -0.558,-5.39 -1.393,-13.04 -1.857,-17 -1.535,-13.123 -1.007,-15.305 6.532,-27 14.286,-22.159 20.859,-35.383 22.666,-45.6 2.512,-14.204 3.762,-55.976 1.934,-64.6 C 341.789,68.832 336.015,65.562 308,60.048 284.177,55.359 280.271,56.291 273.2,68.353 268.056,77.128 262.907,79.991 253.181,79.484 242.072,78.905 239.435,75.987 235.751,60.2 232.817,47.627 230.845,44.75 223.92,42.942 c -2.909,-0.76 -36.221,-1.168 -42.113,-0.517 m 40.167,0.757 c 7.894,1.408 10.253,4.402 13.087,16.618 3.908,16.842 6.494,19.658 18.463,20.106 10.326,0.387 14.425,-1.878 20.098,-11.111 7.594,-12.357 10.345,-12.917 37.178,-7.578 23.869,4.749 29.71,8.001 32.662,18.183 2.14,7.383 0.645,56.252 -2.073,67.751 -1.61,6.809 -6.772,18.479 -11.877,26.849 -1.408,2.31 -4.098,6.72 -5.976,9.8 -1.878,3.08 -4.41,7.04 -5.626,8.8 -5.54,8.021 -6.856,13.627 -5.509,23.471 0.22,1.611 1.029,8.869 1.796,16.129 0.768,7.26 2.111,18.24 2.986,24.4 2.888,20.349 5.199,38.652 6.236,49.4 1.087,11.271 4.49,35.146 5.812,40.784 1.362,5.808 2.868,8.34 8.572,14.416 21.317,22.708 27.866,41.853 29.624,86.6 0.633,16.11 -1.717,19.929 -12.918,20.991 -5.762,0.546 -307.88,0.547 -313.501,0 -12.607,-1.225 -13.645,-3.716 -13.297,-31.901 0.455,-36.773 4.207,-46.229 29.851,-75.23 6.789,-7.679 7.43,-9.406 10.018,-26.982 0.881,-5.983 2.05,-13.938 2.599,-17.678 0.548,-3.74 1.367,-10.49 1.82,-15 1.302,-12.984 1.836,-17 4.999,-37.6 1.639,-10.67 3.438,-23.54 3.999,-28.6 0.56,-5.06 1.394,-12.154 1.851,-15.764 C 84.581,206.365 83.74,202.326 77.426,194 62.695,174.575 57.32,164.286 53.027,147.294 49.347,132.727 50.151,84.795 54.209,76.781 58.381,68.542 69.983,63.571 92.8,60.244 c 18.615,-2.714 22.465,-1.576 29.596,8.75 6.155,8.913 10.262,11.19 20.204,11.2 13.562,0.014 16.781,-2.716 20.638,-17.501 4.078,-15.634 7.68,-18.993 21.362,-19.921 6.491,-0.44 34.316,-0.135 37.374,0.41 m -29.55,43.224 c -11.384,1.599 -16.987,7.093 -25.743,25.243 -5.302,10.989 -7.71,12.49 -20.363,12.685 -17.636,0.271 -19.89,-0.943 -26.723,-14.388 -5.648,-11.113 -7.818,-12.933 -15.395,-12.919 -10.218,0.019 -13.604,4.347 -13.594,17.373 0.02,26.471 10.217,53.402 23.613,62.362 6.615,4.424 10.469,4.366 34.199,-0.515 13.261,-2.728 13.193,-2.725 55.182,-2.545 42.117,0.18 38.6,-0.039 57.4,3.586 17.722,3.417 21.314,2.974 27.569,-3.398 7.75,-7.896 10.923,-15.348 14.217,-33.397 6.029,-33.038 3.19,-43.512 -11.786,-43.486 -7.646,0.013 -9.686,1.768 -15.316,13.173 -6.433,13.035 -8.069,14.02 -23.284,14.02 -14.605,0 -15.132,-0.365 -22.143,-15.342 -6.493,-13.868 -11.761,-19.229 -21.288,-21.666 -3.585,-0.917 -12.573,-1.344 -16.545,-0.786 m 15.315,1.016 c 9.257,1.863 15.989,8.076 21.127,19.499 7.75,17.23 8.353,17.679 23.734,17.679 15.456,0 17.018,-0.934 23.41,-14 4.846,-9.905 6.132,-11.406 10.97,-12.812 7.449,-2.164 14.835,1.202 17.116,7.798 1.075,3.109 1.291,16.777 0.358,22.614 -4.604,28.779 -7.735,37.342 -16.773,45.868 -6.126,5.779 -8.85,6.095 -25.281,2.926 -19.239,-3.711 -20.383,-3.78 -62.516,-3.788 -39.784,-0.007 -38.156,-0.102 -54.684,3.197 -19.59,3.909 -22.867,4.072 -28.267,1.403 -5.077,-2.509 -11.197,-9.22 -14.676,-16.092 C 94.63,146.648 91.051,131.525 91.014,114.2 c -0.026,-12.328 3.381,-16.656 13.194,-16.761 7.225,-0.078 9.706,2.029 15.026,12.756 4.713,9.504 7.015,12.067 12.316,13.708 3.281,1.016 23.128,1.039 25.25,0.029 4.433,-2.108 7.279,-5.576 11.012,-13.414 10.112,-21.235 20.195,-27.067 39.927,-23.096 M 165,215.223 c -20.176,0.834 -34.554,4.643 -39.698,10.517 -3.972,4.537 -4.643,8.121 -9.901,52.86 -1.009,8.58 -2.642,21.09 -3.63,27.8 -5.51,37.418 -4.757,38.611 20.723,32.84 8.273,-1.873 14.201,-2.948 18.506,-3.354 l 1.6,-0.152 -1.8,-0.067 c -2.536,-0.094 -10.408,1.25 -19.787,3.38 -23.405,5.315 -24.154,4.041 -18.826,-32.047 0.975,-6.6 2.241,-16.05 2.814,-21 6.054,-52.275 6.866,-56.489 11.731,-60.863 8.884,-7.988 28.264,-10.378 79.468,-9.801 21.305,0.24 23.524,0.406 38.6,2.891 22.472,3.703 27.845,6.941 30.164,18.173 0.613,2.968 1.532,10.134 5.441,42.4 1.105,9.13 2.803,22 3.772,28.6 4.66,31.736 3.767,34.08 -11.51,30.217 -3.442,-0.871 -7.566,-1.659 -9.163,-1.751 -1.597,-0.093 -2.364,-0.094 -1.704,-0.003 3.508,0.483 8.468,1.529 12.169,2.567 14.4,4.04 15.47,0.187 10.004,-36.03 -0.88,-5.83 -2.677,-19.69 -3.994,-30.8 -3.405,-28.731 -3.914,-32.588 -4.8,-36.354 -2.633,-11.186 -8.247,-14.11 -34.979,-18.219 -14.08,-2.164 -47.223,-2.959 -75.2,-1.804 M 179.5,335.5 c 14.795,0.058 39.005,0.058 53.8,0 14.795,-0.058 2.69,-0.106 -26.9,-0.106 -29.59,0 -41.695,0.048 -26.9,0.106 m -23.1,41.577 c -29.411,2.248 -30.523,2.436 -46.6,7.871 -23.423,7.918 -35.049,15.882 -39.578,27.114 -4.929,12.223 -2.366,17.763 8.687,18.782 8.611,0.795 238.584,0.257 240.997,-0.563 6.002,-2.04 7.57,-6.865 4.919,-15.14 -3.156,-9.851 -10.84,-16.015 -29.258,-23.468 -21.155,-8.561 -38.825,-12.766 -60.747,-14.458 -4.87,-0.376 -73.724,-0.497 -78.42,-0.138 m 77,0.537 c 29.095,1.95 61.732,11.576 79.875,23.559 13.159,8.69 16.815,25.475 6.233,28.617 -3.084,0.916 -241.487,0.929 -244.571,0.014 -7.284,-2.164 -8.465,-8.622 -3.528,-19.307 5.098,-11.032 20.729,-20.118 49.349,-28.684 5.237,-1.568 20.36,-3.346 36.842,-4.333 5.666,-0.34 70.445,-0.224 75.8,0.134"
     stroke="none"
     fill="#747474"
     fill-rule="evenodd" />
  <path
     id="path5"
     d="m 184.6,42.772 c -13.682,0.928 -17.284,4.287 -21.362,19.921 -3.857,14.785 -7.076,17.515 -20.638,17.501 -9.942,-0.01 -14.049,-2.287 -20.204,-11.2 C 115.265,58.668 111.415,57.53 92.8,60.244 69.983,63.571 58.381,68.542 54.209,76.781 c -4.058,8.014 -4.862,55.946 -1.182,70.513 4.293,16.992 9.668,27.281 24.399,46.706 6.314,8.326 7.155,12.365 5.422,26.036 -0.457,3.61 -1.291,10.704 -1.851,15.764 -0.561,5.06 -2.36,17.93 -3.999,28.6 -3.163,20.6 -3.697,24.616 -4.999,37.6 -0.453,4.51 -1.272,11.26 -1.82,15 -5.582,38.052 -5.022,36.069 -12.617,44.66 -25.644,29.001 -29.396,38.457 -29.851,75.23 -0.348,28.185 0.69,30.676 13.297,31.901 5.621,0.547 307.739,0.546 313.501,0 11.201,-1.062 13.551,-4.881 12.918,-20.991 -1.758,-44.747 -8.307,-63.892 -29.624,-86.6 -5.704,-6.076 -7.21,-8.608 -8.572,-14.416 -1.322,-5.638 -4.725,-29.513 -5.812,-40.784 -1.037,-10.748 -3.348,-29.051 -6.236,-49.4 -0.875,-6.16 -2.218,-17.14 -2.986,-24.4 -0.767,-7.26 -1.576,-14.518 -1.796,-16.129 -1.347,-9.844 -0.031,-15.45 5.509,-23.471 1.216,-1.76 3.748,-5.72 5.626,-8.8 1.878,-3.08 4.568,-7.49 5.976,-9.8 12.351,-20.251 15.086,-33.755 14.79,-73 C 344.061,69.029 342.853,67.595 310.8,61.217 283.967,55.878 281.216,56.438 273.622,68.795 267.949,78.028 263.85,80.293 253.524,79.906 241.555,79.458 238.969,76.642 235.061,59.8 232.227,47.584 229.868,44.59 221.974,43.182 218.916,42.637 191.091,42.332 184.6,42.772 m 35.858,4.205 c 7.227,1.532 8.778,3.678 11.982,16.585 3.961,15.951 8.661,20.111 22.76,20.139 9.852,0.02 14.722,-2.803 21.187,-12.282 7.152,-10.485 9.42,-11.15 27.413,-8.04 27.249,4.711 33.954,8.302 36.507,19.554 1.865,8.218 0.291,50.431 -2.336,62.667 -1.398,6.511 -7.698,21.007 -11.994,27.6 -0.932,1.43 -2.993,4.867 -4.58,7.637 -1.588,2.77 -4.274,6.996 -5.97,9.39 -6.772,9.559 -8.054,14.96 -6.456,27.198 0.314,2.406 1.042,8.875 1.616,14.375 0.575,5.5 1.754,14.95 2.62,21 0.865,6.05 1.948,14.15 2.407,18 0.458,3.85 1.356,10.15 1.996,14 1.591,9.578 2.26,15.152 3.002,24.991 0.768,10.19 1.38,15.307 3.223,26.951 2.507,15.84 3.572,18.299 11.841,27.34 19.362,21.17 26.311,40.381 27.988,77.377 0.901,19.872 -0.524,22.61 -12.355,23.732 -5.849,0.554 -301.6,0.553 -306.909,-0.002 -12.834,-1.341 -14.162,-4.756 -13.216,-33.989 0.964,-29.776 5.16,-39.902 26.756,-64.56 9.997,-11.415 10.633,-13.109 14.063,-37.44 1.55,-10.998 2.036,-15.332 3.407,-30.4 0.351,-3.85 1.258,-10.6 2.017,-15 0.759,-4.4 2.104,-12.854 2.989,-18.787 0.885,-5.932 1.955,-12.952 2.377,-15.6 0.422,-2.647 1.231,-8.863 1.797,-13.813 0.566,-4.95 1.39,-11.79 1.831,-15.2 1.999,-15.468 0.968,-19.559 -7.607,-30.2 -6.983,-8.665 -15.908,-23.786 -18.412,-31.193 -5.275,-15.608 -5.641,-18.147 -5.883,-40.911 -0.387,-36.325 1.077,-42.091 12.042,-47.438 9.163,-4.468 27.679,-8.179 38.832,-7.782 6.936,0.247 8.872,1.447 14.416,8.93 6.841,9.234 12.407,12.17 23.108,12.187 14.245,0.023 19.059,-3.945 23.44,-19.319 3.626,-12.728 6.181,-15.886 14.243,-17.61 3.981,-0.851 35.923,-0.921 39.858,-0.087 m -29.041,36.691 c -11.205,1.277 -18.698,8.341 -26.36,24.849 -5.493,11.835 -7.204,12.83 -21.657,12.59 -14.301,-0.238 -14.972,-0.627 -20.971,-12.189 -4.224,-8.14 -6.146,-10.903 -8.725,-12.538 -8.113,-5.145 -20.927,-2.126 -24.684,5.815 -5.822,12.306 2.74,52.45 14.512,68.045 10.441,13.831 18.158,15.274 46.631,8.721 12.487,-2.874 9.13,-2.66 44.637,-2.849 42.472,-0.227 41.828,-0.27 68,4.51 17.147,3.132 21.129,2.379 28.485,-5.386 5.495,-5.801 9.457,-13.076 11.327,-20.8 10.831,-44.732 7.776,-60.674 -11.612,-60.603 -8.783,0.032 -11.705,2.465 -17.804,14.823 C 267.4,120.401 266.391,121 252.4,121 239.554,121 238.771,120.59 234.836,111.8 223.809,87.168 214.369,81.051 191.417,83.668 m 17.552,3.524 c 9.527,2.437 14.795,7.798 21.288,21.666 7.011,14.977 7.538,15.342 22.143,15.342 15.215,0 16.851,-0.985 23.284,-14.02 5.63,-11.405 7.67,-13.16 15.316,-13.173 14.976,-0.026 17.815,10.448 11.786,43.486 -3.294,18.049 -6.467,25.501 -14.217,33.397 -6.255,6.372 -9.847,6.815 -27.569,3.398 -18.8,-3.625 -15.283,-3.406 -57.4,-3.586 -41.989,-0.18 -41.921,-0.183 -55.182,2.545 -23.73,4.881 -27.584,4.939 -34.199,0.515 -13.396,-8.96 -23.593,-35.891 -23.613,-62.362 -0.01,-13.026 3.376,-17.354 13.594,-17.373 7.577,-0.014 9.747,1.806 15.395,12.919 6.833,13.445 9.087,14.659 26.723,14.388 12.653,-0.195 15.061,-1.696 20.363,-12.685 8.756,-18.15 14.359,-23.644 25.743,-25.243 3.972,-0.558 12.96,-0.131 16.545,0.786 M 162,212.266 c -18.189,1.279 -31.71,4.809 -37.314,9.742 -5.45,4.797 -6.543,8.435 -9.072,30.192 -3.212,27.64 -4.479,37.814 -5.802,46.6 -7.345,48.772 -6.216,50.52 27.388,42.41 4.51,-1.089 9.46,-2.211 11,-2.495 2.197,-0.404 14.726,-0.515 58.2,-0.515 62.206,0 56.571,-0.26 66.3,3.057 11.173,3.809 16.577,1.796 17.53,-6.527 0.272,-2.374 -2.015,-24.653 -3.647,-35.53 -1.35,-9 -5.959,-45.471 -6.774,-53.6 -2.33,-23.247 -5.447,-25.858 -37.209,-31.171 -5.28,-0.883 -11.464,-1.791 -13.742,-2.017 -3.693,-0.367 -61.903,-0.494 -66.858,-0.146 m 62.6,2.942 c 10.264,0.649 29.202,3.734 35.909,5.848 6.831,2.154 10.6,4.681 12.612,8.456 2.324,4.361 2.555,5.777 6.858,42.088 1.317,11.11 3.114,24.97 3.994,30.8 5.466,36.217 4.396,40.07 -10.004,36.03 -10.043,-2.817 -5.234,-2.63 -67.769,-2.63 -63.732,0 -57.161,-0.307 -73.706,3.44 -25.48,5.771 -26.233,4.578 -20.723,-32.84 0.988,-6.71 2.621,-19.22 3.63,-27.8 5.258,-44.739 5.929,-48.323 9.901,-52.86 5.144,-5.874 19.522,-9.683 39.698,-10.517 11.102,-0.458 52.428,-0.469 59.6,-0.015 m -67,158.803 c -16.006,0.787 -29.486,2.496 -38.172,4.84 -27.206,7.341 -44.837,17.693 -50.637,29.734 -6.967,14.463 -5.333,22.216 5.151,24.438 3.455,0.732 241.931,0.869 245.868,0.141 10.574,-1.954 12.411,-10.959 5.082,-24.919 -7.369,-14.038 -47.328,-29.693 -86.492,-33.886 -5.093,-0.546 -71.008,-0.829 -80.8,-0.348 m 77.22,3.204 c 21.922,1.692 39.592,5.897 60.747,14.458 18.418,7.453 26.102,13.617 29.258,23.468 2.651,8.275 1.083,13.1 -4.919,15.14 -2.413,0.82 -232.386,1.358 -240.997,0.563 -11.053,-1.019 -13.616,-6.559 -8.687,-18.782 4.529,-11.232 16.155,-19.196 39.578,-27.114 16.077,-5.435 17.189,-5.623 46.6,-7.871 4.696,-0.359 73.55,-0.238 78.42,0.138"
     stroke="none"
     fill="#6c6c6c"
     fill-rule="evenodd" />
  <path
     id="path6"
     d="m 177.646,35.642 c -12.331,1.343 -17.217,5.22 -19.66,15.604 -3.092,13.143 -3.773,15.228 -5.689,17.41 -2,2.278 -3.962,3.043 -8.35,3.258 -7.498,0.367 -9.362,-0.744 -14.862,-8.86 C 120.303,50.098 115.255,48.309 95.6,51.187 81.086,53.312 61.305,58.796 55.2,62.388 47.309,67.03 44.371,73.546 43.187,89.029 c -0.719,9.411 -0.289,50.53 0.575,54.971 3.583,18.404 9.736,32.333 19.606,44.375 5.473,6.678 11.186,15.242 11.891,17.825 0.691,2.534 0.134,11.541 -1.213,19.6 -2.449,14.66 -5.155,35.631 -6.246,48.4 -0.789,9.227 -1.513,14.617 -3.204,23.834 -0.75,4.089 -2.544,15.699 -3.988,25.8 -3.606,25.234 -4.04,26.732 -9.5,32.794 -28.13,31.225 -32.993,45.153 -32.185,92.172 0.329,19.157 0.86,20.812 9.013,28.1 l 2.125,1.9 H 197.8 365.54 l 1.917,-1.7 c 7.659,-6.793 8.731,-9.519 8.688,-22.1 -0.031,-9.411 -0.523,-14.969 -2.742,-31 -0.959,-6.93 -1.95,-14.31 -2.203,-16.4 -2.28,-18.889 -10.343,-34.291 -27.032,-51.64 -6.295,-6.544 -6.791,-8.144 -9.971,-32.16 -0.786,-5.94 -2.137,-14.94 -3.002,-20 -2.173,-12.717 -2.235,-13.212 -3.798,-30.361 -1.321,-14.502 -3.715,-34.442 -5.382,-44.839 -3.158,-19.693 -2.935,-22.658 2.355,-31.241 2.831,-4.594 3.818,-6.096 11.137,-16.959 4.899,-7.272 10.723,-19.626 13.026,-27.632 1.055,-3.669 1.483,-6.439 2.688,-17.368 0.436,-3.96 1.003,-9 1.26,-11.2 0.644,-5.513 0.619,-38.442 -0.032,-43 -1.776,-12.433 -6.364,-18.614 -16.289,-21.943 -6.387,-2.141 -18.648,-5.418 -26.264,-7.018 -26.754,-5.622 -34.217,-3.991 -42.059,9.189 -4.997,8.399 -6.95,10.129 -11.822,10.478 -7.911,0.566 -9.898,-1.522 -12.428,-13.055 -3.634,-16.567 -5.944,-20.126 -14.621,-22.526 -3.504,-0.969 -43.771,-1.504 -51.32,-0.683 m 45.352,3.602 c 10.114,1.24 12.636,4.289 16.227,19.613 3.502,14.943 5.198,16.808 15.375,16.9 7.936,0.071 11.054,-1.992 16.217,-10.73 3.236,-5.478 5.855,-8.23 9.457,-9.936 L 283,53.8 l 6.8,0.023 c 7.381,0.026 17.058,1.711 33.573,5.848 23.726,5.944 25.999,10.344 25.285,48.929 -0.482,26.022 -2.32,39.445 -6.956,50.8 -3.675,9.002 -5.549,12.248 -20.901,36.2 -5.966,9.308 -5.947,14.659 0.201,57.4 0.981,6.82 2.513,19.218 3.403,27.552 2.324,21.74 7.652,60.65 9.04,66.016 1.051,4.066 2.673,6.665 7.159,11.476 20.614,22.106 25.946,35.151 29.777,72.858 3.308,32.562 1.482,39.849 -10.623,42.401 -3.441,0.725 -320.436,0.728 -323.958,0.003 -10.684,-2.201 -12.602,-6.812 -12.598,-30.296 0.006,-42.52 3.759,-52.703 30.775,-83.513 6.46,-7.367 7.254,-9.441 9.23,-24.097 0.682,-5.06 1.942,-13.79 2.799,-19.4 2.057,-13.46 3.288,-22.778 4.994,-37.8 0.774,-6.82 1.866,-15.28 2.425,-18.8 4.345,-27.343 6.68,-48.613 5.831,-53.124 -0.714,-3.792 -4.315,-9.511 -12.892,-20.476 -8.545,-10.923 -14.754,-24.698 -18.03,-40 -1.955,-9.132 -1.476,-59.195 0.647,-67.563 2.881,-11.357 12.772,-16.739 39.728,-21.618 23.5,-4.253 28.793,-2.936 36.894,9.181 5.916,8.849 8.993,10.513 18.675,10.098 10.267,-0.44 12.118,-2.35 15.5,-15.993 3.905,-15.747 7.19,-19.236 19.444,-20.656 4.505,-0.522 39.528,-0.526 43.776,-0.005 m -28.657,50.76 c -11.255,1.079 -15.416,4.993 -24.231,22.796 -6.592,13.313 -9.084,14.889 -23.901,15.117 -16.105,0.249 -20.311,-0.993 -24.834,-7.331 -1.677,-2.351 -2.694,-4.252 -6.556,-12.258 -2.923,-6.058 -6.133,-8.222 -11.619,-7.832 -9.248,0.656 -11.077,8.315 -7.568,31.704 2.252,15.011 10.195,32.548 17.823,39.345 5.956,5.309 10.431,5.836 24.945,2.937 20.503,-4.095 20.193,-4.074 61.6,-4.072 42.071,0.002 46.525,0.255 63.908,3.62 13.517,2.617 17.06,2.172 22.091,-2.778 8.334,-8.199 11.712,-17.719 15.278,-43.052 0.907,-6.446 0.685,-19.171 -0.381,-21.821 -1.68,-4.172 -4.671,-5.986 -9.846,-5.97 -5.572,0.017 -8.034,2.209 -11.636,10.36 -6.688,15.133 -9.92,17.225 -26.614,17.225 -16.521,0 -18.55,-1.476 -26.379,-19.186 -6.519,-14.746 -16.06,-20.338 -32.08,-18.804 m 11.107,3.814 c 6.282,1.093 9.34,2.959 13.083,7.982 2.259,3.032 3.013,4.449 7.785,14.652 5.922,12.661 8.77,14.37 24.415,14.654 20.236,0.368 24.687,-2.11 30.911,-17.208 4.155,-10.078 9.08,-13.103 14.125,-8.673 5.627,4.94 2.424,37.22 -5.336,53.775 -5.786,12.346 -10.463,14.445 -25.912,11.63 -17.061,-3.11 -23.016,-3.427 -64.319,-3.428 -40.951,0 -42.648,0.102 -61.2,3.678 -14.631,2.82 -18.729,2.376 -23.878,-2.586 -10.076,-9.712 -19.009,-37.791 -17.837,-56.064 0.696,-10.846 10.313,-11.71 15.071,-1.353 8.562,18.635 11.222,20.323 32.042,20.323 18.507,0 20.636,-1.302 29.182,-17.849 5.781,-11.194 6.876,-12.984 9.317,-15.223 4.773,-4.376 13.063,-5.961 22.551,-4.31 m -42.869,125.007 c -20.181,1.29 -32.995,5.583 -36.144,12.108 -1.754,3.635 -5.154,26.846 -9.649,65.867 -0.671,5.83 -1.864,14.56 -2.65,19.4 -3.586,22.091 -2.396,23.461 17.043,19.616 17.137,-3.39 11.82,-3.143 71.421,-3.314 56.533,-0.162 59.878,-0.078 68.649,1.708 13.546,2.759 14.183,1.178 9.947,-24.667 -0.637,-3.882 -1.625,-11.082 -2.197,-16 -6.8,-58.508 -7.6,-62.605 -12.874,-65.95 -4.925,-3.123 -23.881,-7.35 -39.325,-8.768 -5.264,-0.483 -56.657,-0.483 -64.221,0 m 69.621,4.11 c 3.08,0.584 9.38,1.696 14,2.471 21.324,3.577 21.297,3.543 24.813,31.707 0.789,6.318 1.955,14.907 2.59,19.087 0.636,4.18 1.617,12.28 2.18,18 1.091,11.066 1.797,16.535 3.043,23.57 2.253,12.718 0.774,14.57 -10.026,12.553 -4.534,-0.847 -5.382,-0.862 -59,-1.017 -63.895,-0.184 -58.601,-0.433 -83,3.904 -9.878,1.756 -11.592,-0.444 -9.664,-12.41 0.937,-5.819 1.756,-12.622 2.865,-23.8 0.436,-4.4 1.333,-11.456 1.993,-15.679 0.661,-4.224 1.656,-11.424 2.213,-16 3.827,-31.45 4.786,-34.689 11.15,-37.685 4.879,-2.297 20.199,-5.114 31.443,-5.783 1.21,-0.072 15.16,-0.096 31,-0.055 l 28.8,0.076 5.6,1.061 m -77.4,157.7 c -0.55,0.074 -5.5,0.51 -11,0.969 -16.085,1.343 -16.702,1.465 -30.31,6 -29.263,9.752 -41.459,19.347 -41.485,32.637 -0.006,3.103 1.022,4.772 3.796,6.159 l 1.999,1 h 119.4 c 130.618,0 121.279,0.183 123.56,-2.416 3.119,-3.552 1.388,-11.355 -3.752,-16.906 -8.96,-9.678 -45.913,-23.221 -72.408,-26.537 -6.578,-0.824 -84.551,-1.61 -89.8,-0.906 m 77.2,2.969 c 13.063,0.885 22.429,2.518 35.441,6.18 26.301,7.403 44.248,15.681 48.986,22.595 3.671,5.356 3.198,10.029 -1.134,11.196 -3.371,0.908 -236.057,0.368 -237.576,-0.551 -4.345,-2.629 -1.988,-11.821 4.197,-16.361 2.377,-1.744 8.429,-5.712 10.894,-7.141 6.837,-3.964 31.326,-12.287 39.192,-13.321 4.683,-0.615 23.091,-2.534 26.2,-2.73 5.179,-0.328 68.683,-0.213 73.8,0.133"
     stroke="none"
     fill="#bcbcbc"
     fill-rule="evenodd" />
  <path
     style="fill:#ffffff;stroke:#00a7ca;stroke-width:0.166555"
     d="m 118.50184,332.50333 c -1.82743,-1.06536 -2.08799,-4.59157 -0.92867,-12.56791 0.59099,-4.06618 1.53349,-11.66423 2.09443,-16.88457 0.56094,-5.22034 1.93876,-16.35593 3.06182,-24.74577 5.57003,-41.61098 6.20221,-44.75952 9.68657,-48.24389 2.26021,-2.26021 7.701,-4.02468 18.77045,-6.08735 7.10954,-1.32478 10.69426,-1.47853 40.67797,-1.7447 l 32.88135,-0.29188 15.76779,2.79205 c 8.67227,1.53562 17.05778,3.24718 18.63445,3.80346 6.45103,2.27606 8.47355,6.41413 10.57512,21.63672 3.519,25.48971 4.89284,36.15309 6.20163,48.13559 0.77384,7.08475 1.85382,15.47458 2.39996,18.64407 1.38332,8.02792 1.29893,11.04233 -0.35092,12.53541 -1.19537,1.0818 -1.9833,1.15137 -6.94915,0.61356 -3.0805,-0.33363 -32.60091,-0.60659 -65.60091,-0.60659 h -60 l -10.32992,1.8644 c -10.96838,1.97964 -14.71945,2.23904 -16.59197,1.1474 z"
     id="path2220" />
  <path
     style="fill:#ffffff;stroke:#00a7ca;stroke-width:0.166555"
     d="m 122.32586,171.91911 c -5.52389,-1.35733 -10.70989,-7.02052 -15.26068,-16.66487 -5.57596,-11.81698 -8.631866,-23.84528 -9.21953,-36.2888 -0.365457,-7.7384 -0.275162,-8.73896 1.017259,-11.27232 2.024651,-3.96863 4.775981,-4.70861 8.672621,-2.33252 1.51816,0.92574 3.17047,3.35498 5.87778,8.64154 5.32631,10.40066 7.28944,12.8843 11.88794,15.03994 3.80522,1.78378 4.02974,1.80538 18.76655,1.80538 14.12321,0 15.06515,-0.0802 17.73801,-1.50931 3.90431,-2.08761 6.80221,-5.89713 12.00296,-15.77883 6.36465,-12.0932 8.32596,-14.806867 12.31436,-17.038189 6.59166,-3.687723 18.37513,-3.810874 25.37225,-0.26517 4.68354,2.373329 8.03864,6.892409 13.55692,18.260169 7.64923,15.75758 8.49891,16.26146 27.49007,16.30222 11.48852,0.0247 14.04297,-0.15753 16.72617,-1.19298 4.51198,-1.74117 8.18789,-6.09596 12.17534,-14.42394 1.87894,-3.92426 4.42575,-8.14451 5.65958,-9.37834 1.99285,-1.99284 2.53289,-2.19627 4.83645,-1.82184 6.63699,1.07882 7.94949,11.04854 4.34941,33.03797 -2.05409,12.54644 -6.22859,24.06089 -10.62075,29.29498 -4.3177,5.14537 -9.65942,5.93164 -23.89834,3.51771 -13.97211,-2.3687 -22.11564,-2.73222 -61.09226,-2.72714 -39.53314,0.005 -44.11965,0.23551 -59.66102,2.99635 -11.2974,2.00692 -15.99988,2.45928 -18.69109,1.79799 z"
     id="path2259" />
  <path
     style="fill:#ffffff;stroke:#00a7ca;stroke-width:0.166555"
     d="m 83.909089,422.88454 c -7.628902,-0.25607 -8.382826,-0.84755 -7.789537,-6.1112 0.701405,-6.22285 7.126855,-12.00879 20.490617,-18.45125 14.029711,-6.76351 29.149521,-11.05791 45.937081,-13.04729 12.18736,-1.44424 15.61161,-1.54414 52.02902,-1.51786 48.02351,0.0346 51.99143,0.42258 76.27119,7.45699 17.28792,5.00872 31.41103,10.75069 38.7267,15.74495 4.89625,3.34257 6.66396,5.20544 8.0206,8.45233 1.39873,3.34764 1.32253,4.99353 -0.30662,6.62269 -1.34621,1.34621 -2.16428,1.35491 -114.0678,1.21404 -61.99153,-0.078 -115.681589,-0.24157 -119.311251,-0.3634 z"
     id="path2298" />
</svg>
